<svg width="34" height="33" viewBox="0 0 34 33" fill="none" xmlns="http://www.w3.org/2000/svg">
<g clip-path="url(#clip0_1693_12124)">
<path d="M20.7964 6.10254L11.6504 17.3124H15.7191C15.8305 17.3124 15.909 17.4227 15.8714 17.5265L12.6213 26.5223L22.103 14.5939H18.0539C17.9426 14.5939 17.864 14.4852 17.9017 14.3814L20.7964 6.10254Z" fill="black"/>
<path d="M31.2347 24.7337C31.4463 24.7337 31.6178 24.5638 31.6178 24.3542C31.6178 24.1445 31.4463 23.9746 31.2347 23.9746C31.0231 23.9746 30.8516 24.1445 30.8516 24.3542C30.8516 24.5638 31.0231 24.7337 31.2347 24.7337Z" fill="black" fill-opacity="0.7"/>
<path d="M30.1695 22.1699C30.3203 22.1699 30.4426 22.0488 30.4426 21.8994C30.4426 21.75 30.3203 21.6289 30.1695 21.6289C30.0187 21.6289 29.8965 21.75 29.8965 21.8994C29.8965 22.0488 30.0187 22.1699 30.1695 22.1699Z" fill="black" fill-opacity="0.7"/>
<path d="M28.7447 20.6811C28.8485 20.6811 28.9327 20.5977 28.9327 20.4949C28.9327 20.392 28.8485 20.3086 28.7447 20.3086C28.6408 20.3086 28.5566 20.392 28.5566 20.4949C28.5566 20.5977 28.6408 20.6811 28.7447 20.6811Z" fill="black" fill-opacity="0.7"/>
<path d="M27.6334 24.0413C27.7481 24.0413 27.8411 23.9492 27.8411 23.8356C27.8411 23.722 27.7481 23.6299 27.6334 23.6299C27.5187 23.6299 27.4258 23.722 27.4258 23.8356C27.4258 23.9492 27.5187 24.0413 27.6334 24.0413Z" fill="black" fill-opacity="0.7"/>
<path d="M21.8538 21.0174C21.8538 21.1486 21.7458 21.2555 21.6134 21.2555C21.481 21.2555 21.373 21.1486 21.373 21.0174C21.373 20.8862 21.481 20.7793 21.6134 20.7793C21.7458 20.7793 21.8538 20.8862 21.8538 21.0174Z" fill="black" fill-opacity="0.7"/>
<path d="M19.4474 25.2882C19.4343 25.3126 19.4245 25.3369 19.4163 25.3628L17.1617 24.3475C17.0995 24.4464 16.9882 24.5113 16.8637 24.5113C16.6689 24.5113 16.5117 24.3556 16.5117 24.1642C16.5117 23.9728 16.6689 23.8154 16.8637 23.8154C17.0586 23.8154 17.2158 23.9711 17.2158 24.1642C17.2158 24.2031 17.2092 24.2404 17.1961 24.2745L19.4474 25.2882Z" fill="black" fill-opacity="0.7"/>
<path d="M3.55905 26.4143C3.75347 26.4143 3.91108 26.2581 3.91108 26.0655C3.91108 25.8729 3.75347 25.7168 3.55905 25.7168C3.36464 25.7168 3.20703 25.8729 3.20703 26.0655C3.20703 26.2581 3.36464 26.4143 3.55905 26.4143Z" fill="black" fill-opacity="0.7"/>
<path d="M11.9399 31.0402C12.1343 31.0402 12.2919 30.8841 12.2919 30.6915C12.2919 30.4989 12.1343 30.3428 11.9399 30.3428C11.7455 30.3428 11.5879 30.4989 11.5879 30.6915C11.5879 30.8841 11.7455 31.0402 11.9399 31.0402Z" fill="black" fill-opacity="0.7"/>
<path d="M7.14499 29.7717C7.33941 29.7717 7.49701 29.6156 7.49701 29.423C7.49701 29.2304 7.33941 29.0742 7.14499 29.0742C6.95057 29.0742 6.79297 29.2304 6.79297 29.423C6.79297 29.6156 6.95057 29.7717 7.14499 29.7717Z" fill="black" fill-opacity="0.7"/>
<path d="M0.40278 16.4894C0.625229 16.4894 0.805559 16.3108 0.805559 16.0904C0.805559 15.8701 0.625229 15.6914 0.40278 15.6914C0.180331 15.6914 0 15.8701 0 16.0904C0 16.3108 0.180331 16.4894 0.40278 16.4894Z" fill="black" fill-opacity="0.7"/>
<path d="M10.5871 8.85747C10.5871 8.90451 10.5805 8.95155 10.5658 8.99372C10.5576 9.0213 10.5478 9.04725 10.5347 9.07158C10.4561 9.21756 10.3022 9.31651 10.1237 9.31651C10.0533 9.31651 9.98784 9.30029 9.92889 9.27433L8.87937 11.3084C8.85318 11.2986 8.82698 11.2889 8.80078 11.2824L9.85849 9.23216C9.73896 9.15106 9.66037 9.01319 9.66037 8.85747C9.66037 8.60444 9.86831 8.39844 10.1237 8.39844C10.3792 8.39844 10.5871 8.60444 10.5871 8.85747Z" fill="black" fill-opacity="0.7"/>
<path d="M21.5346 2.50727C21.5346 2.69867 21.3775 2.85438 21.1826 2.85438C21.0778 2.85438 20.9829 2.80735 20.919 2.73435L19.7352 3.47887C19.7352 3.47887 19.7369 3.49346 19.7369 3.50157C19.7369 3.83409 19.4634 4.10335 19.1278 4.10335C19.1147 4.10335 19.1016 4.10335 19.0901 4.10335L17.2056 8.30927C17.2793 8.36604 17.3267 8.45363 17.3267 8.55419C17.3267 8.72775 17.1843 8.86887 17.0091 8.86887C16.8339 8.86887 16.6915 8.72775 16.6915 8.55419C16.6915 8.38064 16.8339 8.24114 17.0091 8.24114C17.0533 8.24114 17.0959 8.25087 17.1352 8.26709L19.0066 4.09199C18.9853 4.08875 18.9624 4.08226 18.9428 4.07577L16.0709 6.91432C16.1741 7.02624 16.2363 7.17385 16.2363 7.33605C16.2363 7.68316 15.953 7.96215 15.6043 7.96215C15.4389 7.96215 15.2916 7.90052 15.1786 7.79833L13.1909 9.76098C13.2695 9.84208 13.3202 9.95238 13.3202 10.0773C13.3202 10.3287 13.1139 10.5314 12.8601 10.5314C12.6064 10.5314 12.4017 10.3287 12.4017 10.0773C12.4017 10.0302 12.4082 9.98482 12.4213 9.94103L10.5352 9.07324C10.5483 9.04891 10.5581 9.02296 10.5663 8.99538L12.4541 9.86641C12.5294 9.72205 12.6833 9.62311 12.8601 9.62311C12.96 9.62311 13.0533 9.65393 13.1287 9.70908L15.1213 7.73993C15.028 7.63126 14.9723 7.49014 14.9723 7.33605C14.9723 7.2809 14.9805 7.22575 14.9936 7.17385L12.4934 6.39365C12.4525 6.5299 12.3264 6.62884 12.1757 6.62884C11.9924 6.62884 11.8434 6.48286 11.8434 6.30119C11.8434 6.11953 11.9924 5.97192 12.1757 5.97192C12.3591 5.97192 12.5065 6.11953 12.5065 6.30119V6.31417L15.0198 7.09761C15.0754 6.9646 15.1753 6.85593 15.2997 6.78618L14.4942 5.09116C14.4598 5.09927 14.4238 5.10414 14.3878 5.10414C14.134 5.10414 13.9293 4.90138 13.9293 4.65159C13.9293 4.4018 14.134 4.19742 14.3878 4.19742C14.6415 4.19742 14.8446 4.40018 14.8446 4.65159C14.8446 4.8365 14.7332 4.99546 14.5728 5.06521L15.3734 6.75374H15.3751C15.4455 6.72454 15.5224 6.70995 15.6043 6.70995C15.7615 6.70995 15.9023 6.76509 16.0136 6.85917L18.8609 4.04333C18.6595 3.94601 18.5203 3.74163 18.5203 3.5032C18.5203 3.17068 18.7921 2.8998 19.1278 2.8998C19.4241 2.8998 19.673 3.11229 19.7254 3.39128L20.8732 2.6711C20.847 2.62243 20.8322 2.56729 20.8322 2.50889C20.8322 2.31587 20.9894 2.16016 21.1826 2.16016C21.3758 2.16016 21.5346 2.31587 21.5346 2.50889V2.50727Z" fill="black" fill-opacity="0.7"/>
<path d="M11.8838 7.76091C11.8838 7.94258 11.7348 8.09018 11.5514 8.09018C11.3681 8.09018 11.2207 7.94258 11.2207 7.76091C11.2207 7.57924 11.3681 7.43164 11.5514 7.43164C11.7348 7.43164 11.8838 7.57924 11.8838 7.76091Z" fill="black" fill-opacity="0.7"/>
<path d="M14.3571 3.098C14.3571 3.27967 14.2097 3.42728 14.0264 3.42728C13.843 3.42728 13.694 3.27967 13.694 3.098C13.694 3.0023 13.7349 2.91634 13.8021 2.85632L12.299 1.124C12.227 1.17752 12.1385 1.20996 12.0403 1.20996C11.8029 1.20996 11.6113 1.01856 11.6113 0.78337C11.6113 0.548176 11.8029 0.358398 12.0403 0.358398C12.2777 0.358398 12.4693 0.548176 12.4693 0.78337C12.4693 0.893668 12.4283 0.992612 12.3579 1.06885L13.8675 2.80928H13.8692C13.9167 2.78333 13.9691 2.77035 14.0264 2.77035C14.2097 2.77035 14.3571 2.91634 14.3571 3.098Z" fill="black" fill-opacity="0.7"/>
<path d="M23.0765 2.52671C23.2601 2.52671 23.4089 2.37929 23.4089 2.19744C23.4089 2.01558 23.2601 1.86816 23.0765 1.86816C22.8929 1.86816 22.7441 2.01558 22.7441 2.19744C22.7441 2.37929 22.8929 2.52671 23.0765 2.52671Z" fill="black" fill-opacity="0.7"/>
<path d="M23.4712 4.72189C23.6656 4.72189 23.8232 4.56575 23.8232 4.37315C23.8232 4.18055 23.6656 4.02441 23.4712 4.02441C23.2767 4.02441 23.1191 4.18055 23.1191 4.37315C23.1191 4.56575 23.2767 4.72189 23.4712 4.72189Z" fill="black" fill-opacity="0.7"/>
<path d="M30.4755 12.4924C30.7588 12.4924 30.988 12.2735 31.006 11.9994L32.478 12.168C32.4812 12.4178 32.6859 12.6206 32.9397 12.6206C33.1935 12.6206 33.4014 12.4146 33.4014 12.1632C33.4014 11.9118 33.1935 11.7058 32.9397 11.7058C32.7105 11.7058 32.5205 11.8696 32.4845 12.0869L31.0044 11.9183C30.9815 11.6474 30.7539 11.4365 30.4755 11.4365C30.2578 11.4365 30.0695 11.5663 29.9876 11.7528L26.9995 11.164C27.0028 11.1445 27.0028 11.1251 27.0028 11.1056C27.0028 10.9807 26.9717 10.8623 26.916 10.7601L31.6855 8.72934C31.751 8.84289 31.8754 8.91912 32.0179 8.91912C32.2291 8.91912 32.401 8.74881 32.401 8.53957C32.401 8.33033 32.2291 8.16001 32.0179 8.16001C31.8067 8.16001 31.6331 8.3287 31.6331 8.53957C31.6331 8.58012 31.6397 8.61905 31.6495 8.65473L26.8718 10.6904C26.7687 10.5412 26.6082 10.4325 26.4232 10.3919L26.5885 8.83802C26.6933 8.82829 26.7752 8.74232 26.7752 8.63527C26.7752 8.52172 26.6819 8.43089 26.5689 8.43089C26.4559 8.43089 26.3626 8.52172 26.3626 8.63527C26.3626 8.72772 26.4232 8.80396 26.5067 8.82829L26.3429 10.3789C26.3184 10.3789 26.2922 10.3757 26.266 10.3757C26.1465 10.3757 26.0335 10.4049 25.9336 10.4568L23.8952 7.02297C24.0392 6.94187 24.1457 6.80237 24.1833 6.63693L26.5492 6.61746C26.6164 6.87861 26.8538 7.07163 27.137 7.07163C27.4727 7.07163 27.7461 6.80075 27.7461 6.46824C27.7461 6.13572 27.4727 5.86484 27.137 5.86484C26.8014 5.86484 26.5296 6.13572 26.5296 6.46824C26.5296 6.49094 26.5312 6.51365 26.5329 6.53636L24.1964 6.55583C24.1997 6.53798 24.1997 6.52014 24.1997 6.5023C24.1997 6.28819 24.0884 6.10166 23.9197 5.9946L25.9893 2.57537C26.0368 2.59808 26.0908 2.60943 26.1465 2.60943C26.3528 2.60943 26.5214 2.44398 26.5214 2.23799C26.5214 2.03199 26.3528 1.86816 26.1465 1.86816C25.9402 1.86816 25.7715 2.03361 25.7715 2.23799C25.7715 2.35964 25.8288 2.46507 25.9189 2.5332L23.8493 5.95568C23.7707 5.91837 23.6839 5.8989 23.5923 5.8989C23.2566 5.8989 22.9832 6.16816 22.9832 6.5023C22.9832 6.69856 23.0781 6.87374 23.2271 6.98242L21.9287 9.12674C21.8452 9.08457 21.7519 9.06024 21.652 9.06024C21.3164 9.06024 21.043 9.32949 21.043 9.66363C21.043 9.99777 21.3164 10.2654 21.652 10.2654C21.8731 10.2654 22.0679 10.1486 22.1743 9.97182L25.5669 10.8785C25.5439 10.9499 25.5308 11.0261 25.5308 11.1056C25.5308 11.2208 25.557 11.3311 25.6062 11.4268L23.8264 12.5573C23.7756 12.4941 23.6954 12.4535 23.6054 12.4535C23.4433 12.4535 23.3123 12.5849 23.3123 12.7455C23.3123 12.9061 23.4433 13.0358 23.6054 13.0358C23.7675 13.0358 23.8984 12.9061 23.8984 12.7455C23.8984 12.7017 23.8886 12.6611 23.8706 12.6238L25.6455 11.4965C25.729 11.6279 25.8534 11.7301 26.0008 11.7869L25.187 14.64C25.1281 14.6141 25.0642 14.5995 24.9954 14.5995C24.74 14.5995 24.5337 14.8038 24.5337 15.0569C24.5337 15.3099 24.74 15.5143 24.9954 15.5143C25.0904 15.5143 25.1788 15.4867 25.2509 15.4381L27.9704 18.2798C27.9279 18.3463 27.8951 18.4193 27.8755 18.4988L26.3659 17.9068C26.4068 17.8322 26.4297 17.7462 26.4297 17.6554C26.4297 17.3634 26.1923 17.1266 25.8976 17.1266C25.6307 17.1266 25.4113 17.3196 25.372 17.5726L24.5255 17.3131C24.5304 17.2904 24.5337 17.2661 24.5337 17.2417C24.5337 17.0682 24.3913 16.9271 24.2161 16.9271C24.0409 16.9271 23.8984 17.0682 23.8984 17.2417C23.8984 17.4153 24.0409 17.5564 24.2161 17.5564C24.3372 17.5564 24.4437 17.4883 24.4961 17.3894L25.3638 17.6554C25.3638 17.9473 25.6029 18.1841 25.8976 18.1841C26.0712 18.1841 26.2234 18.103 26.3217 17.9765L27.8591 18.5783C27.8542 18.6107 27.8526 18.6432 27.8526 18.6772C27.8526 18.7924 27.8788 18.9011 27.9279 18.9968L25.5308 19.5629C25.5046 19.4104 25.3687 19.2952 25.2083 19.2952C25.0282 19.2952 24.8825 19.4396 24.8825 19.6196C24.8825 19.7997 25.0282 19.9424 25.2083 19.9424C25.3786 19.9424 25.521 19.8127 25.5341 19.6456L27.9688 19.0714C28.0245 19.1606 28.0998 19.2352 28.1882 19.2904L26.8292 21.7202C26.7392 21.6569 26.6278 21.6196 26.51 21.6196C26.3118 21.6196 26.1383 21.7218 26.0417 21.8775L23.6152 20.4177C23.6594 20.335 23.6839 20.2393 23.6839 20.1371C23.6839 19.7997 23.4089 19.5272 23.0683 19.5272C22.7278 19.5272 22.4527 19.7997 22.4527 20.1371C22.4527 20.3901 22.6066 20.6058 22.826 20.6999L20.298 24.9723C20.2178 24.9367 20.1277 24.9172 20.0344 24.9172C19.946 24.9172 19.8641 24.9334 19.7871 24.9658L18.7474 22.7469C18.849 22.7047 18.9194 22.6058 18.9194 22.4906C18.9194 22.3365 18.7933 22.2116 18.6377 22.2116C18.4822 22.2116 18.3561 22.3365 18.3561 22.4906C18.3561 22.6447 18.4822 22.7696 18.6377 22.7696C18.6476 22.7696 18.659 22.7696 18.6688 22.7664L19.7151 25.0015C19.5972 25.0664 19.5022 25.167 19.4466 25.2886C19.4335 25.313 19.4237 25.3373 19.4155 25.3632C19.3958 25.4265 19.3844 25.493 19.3844 25.5611C19.3844 25.6374 19.3975 25.7104 19.422 25.7769L16.8089 26.5198C16.7434 26.3267 16.5584 26.1872 16.3406 26.1872C16.0639 26.1872 15.8412 26.4095 15.8412 26.682C15.8412 26.8182 15.8969 26.9399 15.9869 27.0307L15.6382 29.2772C15.6218 29.274 15.6054 29.274 15.5891 29.274C15.2681 29.274 15.0078 29.5335 15.0078 29.8514C15.0078 30.1693 15.2681 30.4288 15.5891 30.4288C15.91 30.4288 16.1719 30.1709 16.1719 29.8514C16.1719 29.5773 15.9787 29.3469 15.7184 29.2886L16.0606 27.0923C16.1408 27.1459 16.2374 27.1767 16.3406 27.1767C16.6157 27.1767 16.8383 26.9545 16.8383 26.682C16.8383 26.6528 16.8351 26.6252 16.8301 26.5976L19.4548 25.8515C19.4875 25.918 19.5334 25.978 19.5857 26.0267L17.8404 27.8758C17.7798 27.8271 17.7028 27.7979 17.6193 27.7979C17.4261 27.7979 17.2689 27.9536 17.2689 28.1466C17.2689 28.3397 17.4261 28.4938 17.6193 28.4938C17.8125 28.4938 17.9714 28.338 17.9714 28.1466C17.9714 28.0672 17.9435 27.9926 17.8977 27.9342L19.648 26.0802C19.756 26.1597 19.8887 26.2067 20.0344 26.2067C20.0786 26.2067 20.1228 26.2018 20.1637 26.1937L20.6009 27.7768C20.4961 27.8174 20.4224 27.9179 20.4224 28.0363C20.4224 28.1904 20.5501 28.3153 20.7057 28.3153C20.8612 28.3153 20.9873 28.1904 20.9873 28.0363C20.9873 27.8823 20.8612 27.7557 20.7057 27.7557C20.6975 27.7557 20.6877 27.7557 20.6795 27.7574L20.2423 26.1726C20.3717 26.1305 20.4814 26.0494 20.5599 25.9407L23.9164 28.2878C23.869 28.3689 23.8411 28.4613 23.8411 28.5619C23.8411 28.8603 24.0867 29.1036 24.388 29.1036C24.6893 29.1036 24.9332 28.8603 24.9332 28.5619C24.9332 28.3802 24.8432 28.218 24.7024 28.1207L26.8472 25.433L26.7834 25.3827L24.632 28.0769C24.5583 28.0412 24.4764 28.0201 24.388 28.0201C24.2177 28.0201 24.0654 28.098 23.9639 28.2196L20.6042 25.8726C20.6566 25.7801 20.686 25.6747 20.686 25.5611C20.686 25.5514 20.686 25.54 20.6844 25.5303L25.5701 25.1426C25.6045 25.3032 25.747 25.4233 25.9189 25.4233C26.1088 25.4233 26.2611 25.2805 26.2742 25.0972L28.3519 24.9983C28.3765 25.2108 28.5599 25.3778 28.7809 25.3778C29.02 25.3778 29.2132 25.1864 29.2132 24.9513C29.2132 24.7161 29.02 24.523 28.7809 24.523C28.555 24.523 28.3699 24.6966 28.3519 24.9172L26.2709 25.0161C26.2447 24.8474 26.0974 24.7193 25.9189 24.7193C25.7257 24.7193 25.5685 24.8718 25.5636 25.0615L20.6762 25.4492C20.6647 25.3811 20.6418 25.3178 20.6107 25.2594L22.9062 23.6228C22.9881 23.6974 23.0978 23.7445 23.219 23.7445C23.4744 23.7445 23.6823 23.5385 23.6823 23.2854C23.6823 23.0324 23.4907 22.8426 23.2484 22.828L23.1404 20.7421C23.3188 20.7226 23.4744 20.6269 23.571 20.4874L26.004 21.9505C25.9729 22.017 25.9565 22.0916 25.9565 22.1678C25.9565 22.4712 26.2038 22.7177 26.51 22.7177C26.7408 22.7177 26.9406 22.5766 27.0224 22.3771L29.5161 23.1102V23.1135C29.5161 23.1978 29.5848 23.266 29.67 23.266C29.7551 23.266 29.8239 23.1978 29.8239 23.1135C29.8239 23.0291 29.7551 22.9626 29.67 22.9626C29.6159 22.9626 29.5668 22.9902 29.5406 23.0324L27.0486 22.3009C27.0585 22.2587 27.065 22.2133 27.065 22.1678C27.065 22.0121 26.9995 21.8726 26.8947 21.7721L28.257 19.3309C28.3585 19.3844 28.4747 19.4136 28.5975 19.4136C28.8693 19.4136 29.1067 19.2693 29.2361 19.0519L32.4338 21.4347C32.4125 21.4801 32.401 21.532 32.401 21.5872C32.401 21.798 32.5713 21.9667 32.7825 21.9667C32.9937 21.9667 33.1656 21.798 33.1656 21.5872C33.1656 21.3763 32.9954 21.2076 32.7825 21.2076C32.6564 21.2076 32.5435 21.2692 32.4747 21.3633L29.2737 18.9806C29.318 18.8881 29.3409 18.7859 29.3409 18.6772C29.3409 18.5929 29.3261 18.5118 29.2999 18.4372L31.6904 17.2855C31.7576 17.3942 31.8787 17.4672 32.0179 17.4672C32.2291 17.4672 32.401 17.2969 32.401 17.0877C32.401 16.8784 32.2291 16.7081 32.0179 16.7081C31.8067 16.7081 31.6348 16.8784 31.6348 17.0877C31.6348 17.1315 31.6429 17.1736 31.656 17.2126L29.2688 18.3626C29.1739 18.1631 28.9905 18.0122 28.7678 17.9603L29.4391 15.3959C29.4686 15.4007 29.4981 15.404 29.5292 15.404C29.8222 15.404 30.0613 15.1672 30.0613 14.8752C30.0613 14.5832 29.8222 14.3464 29.5292 14.3464C29.2557 14.3464 29.0298 14.5508 29.0003 14.8136L25.4342 14.9158C25.4031 14.8201 25.3409 14.739 25.259 14.6822L26.0793 11.8112C26.1383 11.8274 26.2021 11.8355 26.266 11.8355C26.4215 11.8355 26.5656 11.7885 26.6851 11.7058L28.4305 13.5435C28.4142 13.5695 28.406 13.6003 28.406 13.6327C28.406 13.7333 28.4878 13.8128 28.5877 13.8128C28.6876 13.8128 28.7678 13.7333 28.7678 13.6327C28.7678 13.5322 28.6876 13.4543 28.5877 13.4543C28.5517 13.4543 28.5173 13.4657 28.4878 13.4851L26.749 11.6555C26.8718 11.5517 26.9586 11.4073 26.9897 11.2435L29.9631 11.829C29.95 11.8728 29.9434 11.9183 29.9434 11.9653C29.9434 12.2556 30.1808 12.4924 30.4755 12.4924ZM25.5963 10.8039L22.2136 9.89883C22.2431 9.82583 22.2611 9.74636 22.2611 9.66363C22.2611 9.45763 22.158 9.27597 21.9992 9.16891L23.2959 7.02621C23.3827 7.0765 23.4842 7.10407 23.5923 7.10407C23.6741 7.10407 23.7511 7.08785 23.8215 7.06028L25.8632 10.4957C25.747 10.5703 25.6553 10.6774 25.5963 10.8039ZM23.1666 22.828C22.9357 22.8556 22.7556 23.0502 22.7556 23.2854C22.7556 23.3892 22.79 23.4849 22.8506 23.5612L20.5665 25.1897C20.5141 25.1167 20.447 25.0551 20.37 25.0096L22.9062 20.7242C22.9553 20.7388 23.0061 20.747 23.0601 20.747L23.1666 22.828ZM25.4572 15.0569C25.4572 15.0358 25.4555 15.0147 25.4522 14.9952L28.997 14.8947C29.0036 15.1201 29.1542 15.3083 29.3605 15.3764L28.6876 17.9457C28.6581 17.9425 28.6286 17.9408 28.5975 17.9408C28.3634 17.9408 28.1555 18.0463 28.0196 18.2133L25.3131 15.3861C25.4015 15.305 25.4572 15.1866 25.4572 15.0569Z" fill="black" fill-opacity="0.7"/>
<path d="M15.581 2.01245C15.7853 2.01245 15.951 1.84833 15.951 1.64588C15.951 1.44342 15.7853 1.2793 15.581 1.2793C15.3766 1.2793 15.2109 1.44342 15.2109 1.64588C15.2109 1.84833 15.3766 2.01245 15.581 2.01245Z" fill="black" fill-opacity="0.7"/>
<path d="M11.789 11.1631C11.789 11.3188 11.6613 11.4453 11.5041 11.4453C11.3714 11.4453 11.2585 11.3545 11.229 11.2312L9.25767 11.7113C9.24949 11.6838 9.23802 11.6594 9.22656 11.6351L11.2208 11.1517C11.2257 11.0009 11.3502 10.8809 11.5041 10.8809C11.658 10.8809 11.789 11.0074 11.789 11.1631Z" fill="black" fill-opacity="0.7"/>
<path d="M3.51731 8.79005C3.67466 8.79005 3.80221 8.66369 3.80221 8.50782C3.80221 8.35195 3.67466 8.22559 3.51731 8.22559C3.35997 8.22559 3.23242 8.35195 3.23242 8.50782C3.23242 8.66369 3.35997 8.79005 3.51731 8.79005Z" fill="black" fill-opacity="0.7"/>
<path d="M2.20872 15.2617C2.36606 15.2617 2.49361 15.1354 2.49361 14.9795C2.49361 14.8236 2.36606 14.6973 2.20872 14.6973C2.05138 14.6973 1.92383 14.8236 1.92383 14.9795C1.92383 15.1354 2.05138 15.2617 2.20872 15.2617Z" fill="black" fill-opacity="0.7"/>
<path d="M5.05638 6.94728C5.21372 6.94728 5.34127 6.82092 5.34127 6.66505C5.34127 6.50917 5.21372 6.38281 5.05638 6.38281C4.89904 6.38281 4.77148 6.50917 4.77148 6.66505C4.77148 6.82092 4.89904 6.94728 5.05638 6.94728Z" fill="black" fill-opacity="0.7"/>
<path d="M10.514 18.4376C10.514 18.7296 10.275 18.9664 9.97864 18.9664C9.81164 18.9664 9.66264 18.8902 9.56276 18.7718L6.29141 20.5382C6.32088 20.5982 6.33725 20.6647 6.33725 20.7344C6.33725 20.9907 6.12767 21.1983 5.86898 21.1983C5.61028 21.1983 5.40234 20.9907 5.40234 20.7344C5.40234 20.4781 5.61192 20.2705 5.86898 20.2705C6.0278 20.2705 6.16861 20.3484 6.25211 20.4684L9.51856 18.7053C9.47271 18.6274 9.44488 18.535 9.44488 18.4376C9.44488 18.144 9.68392 17.9072 9.97864 17.9072C10.2734 17.9072 10.514 18.144 10.514 18.4376Z" fill="black" fill-opacity="0.7"/>
<path d="M12.53 28.9518C12.53 29.187 12.3368 29.3784 12.0977 29.3784C11.8587 29.3784 11.6671 29.187 11.6671 28.9518C11.6671 28.8367 11.7113 28.7312 11.7882 28.655L10.2655 27.3606C10.1853 27.5001 10.0347 27.5958 9.86113 27.5958C9.60571 27.5958 9.39941 27.3914 9.39941 27.1384C9.39941 26.9065 9.57624 26.7134 9.80382 26.6859L9.06048 25.2633C8.93277 25.3542 8.77559 25.4077 8.60531 25.4077C8.16978 25.4077 7.81776 25.059 7.81776 24.6291C7.81776 24.5724 7.82431 24.5172 7.83577 24.4637L5.20952 23.9235C5.16858 24.1198 4.99503 24.2658 4.78545 24.2658C4.5464 24.2658 4.35156 24.0744 4.35156 23.8376C4.35156 23.6008 4.5464 23.4094 4.78545 23.4094C5.0245 23.4094 5.2177 23.6008 5.2177 23.8376V23.8424L7.85869 24.3858C7.96021 24.0728 8.25656 23.8489 8.60531 23.8489C8.65606 23.8489 8.70682 23.8538 8.7543 23.8635L9.52384 21.9804C9.32245 21.8863 9.18328 21.6835 9.18328 21.45C9.18328 21.1239 9.45016 20.8595 9.77926 20.8595C9.96919 20.8595 10.1378 20.9487 10.2459 21.0866C10.4276 20.939 10.8173 20.6 11.1317 20.3243C11.0105 20.2934 10.9205 20.1831 10.9205 20.0534C10.9205 19.896 11.0482 19.7695 11.2054 19.7695C11.3625 19.7695 11.4903 19.896 11.4903 20.0534C11.4903 20.1945 11.3855 20.3129 11.2463 20.3308C10.7011 20.8125 10.4309 21.0444 10.2917 21.1515C10.3441 21.2391 10.3736 21.3413 10.3736 21.45C10.3736 21.7744 10.1067 22.0387 9.77926 22.0387C9.71705 22.0387 9.65647 22.029 9.59916 22.0112L8.83453 23.883C9.03265 23.943 9.19802 24.0776 9.29789 24.2561L11.8406 23.2163C11.8357 23.192 11.8325 23.1677 11.8325 23.1417C11.8325 22.9487 11.9896 22.793 12.1845 22.793C12.3793 22.793 12.5349 22.9487 12.5349 23.1417C12.5349 23.3347 12.3777 23.4888 12.1845 23.4888C12.0453 23.4888 11.9241 23.4094 11.8685 23.2926L9.33228 24.3307C9.37157 24.4215 9.39286 24.5237 9.39286 24.6291C9.39286 24.6599 9.39122 24.6908 9.38795 24.7216L11.1874 25.1157C11.2217 25.0006 11.3282 24.9178 11.4559 24.9178C11.6114 24.9178 11.7375 25.0427 11.7375 25.1968C11.7375 25.3509 11.6114 25.4758 11.4559 25.4758C11.3003 25.4758 11.1743 25.3509 11.1743 25.1968L9.37321 24.8011C9.33555 24.9633 9.24714 25.106 9.12597 25.2114L9.89551 26.6842C10.1329 26.7005 10.3229 26.8983 10.3229 27.1384C10.3229 27.1903 10.3147 27.2406 10.2983 27.286L11.8505 28.6015C11.9209 28.5512 12.006 28.5236 12.0977 28.5236C12.3368 28.5236 12.53 28.715 12.53 28.9518Z" fill="black" fill-opacity="0.7"/>
<path d="M32.5437 18.6934C32.6747 18.6934 32.7808 18.5882 32.7808 18.4585C32.7808 18.3288 32.6747 18.2236 32.5437 18.2236C32.4128 18.2236 32.3066 18.3288 32.3066 18.4585C32.3066 18.5882 32.4128 18.6934 32.5437 18.6934Z" fill="black" fill-opacity="0.7"/>
<path d="M31.2496 19.5209C31.3561 19.5209 31.4425 19.4354 31.4425 19.3298C31.4425 19.2242 31.3561 19.1387 31.2496 19.1387C31.143 19.1387 31.0566 19.2242 31.0566 19.3298C31.0566 19.4354 31.143 19.5209 31.2496 19.5209Z" fill="black" fill-opacity="0.7"/>
<path d="M25.8568 21.2049C25.9417 21.2049 26.0105 21.1367 26.0105 21.0526C26.0105 20.9686 25.9417 20.9004 25.8568 20.9004C25.7719 20.9004 25.7031 20.9686 25.7031 21.0526C25.7031 21.1367 25.7719 21.2049 25.8568 21.2049Z" fill="black" fill-opacity="0.7"/>
<path d="M25.7514 23.1922C25.8362 23.1922 25.905 23.124 25.905 23.04C25.905 22.9559 25.8362 22.8877 25.7514 22.8877C25.6665 22.8877 25.5977 22.9559 25.5977 23.04C25.5977 23.124 25.6665 23.1922 25.7514 23.1922Z" fill="black" fill-opacity="0.7"/>
<path d="M19.4407 29.558C19.5869 29.558 19.7055 29.4405 19.7055 29.2956C19.7055 29.1507 19.5869 29.0332 19.4407 29.0332C19.2944 29.0332 19.1758 29.1507 19.1758 29.2956C19.1758 29.4405 19.2944 29.558 19.4407 29.558Z" fill="black" fill-opacity="0.7"/>
<path d="M18.8929 31.1088C19.071 31.1088 19.2154 30.9657 19.2154 30.7893C19.2154 30.6128 19.071 30.4697 18.8929 30.4697C18.7147 30.4697 18.5703 30.6128 18.5703 30.7893C18.5703 30.9657 18.7147 31.1088 18.8929 31.1088Z" fill="black" fill-opacity="0.7"/>
<path d="M17.6164 29.599C17.7627 29.599 17.8813 29.4815 17.8813 29.3366C17.8813 29.1917 17.7627 29.0742 17.6164 29.0742C17.4702 29.0742 17.3516 29.1917 17.3516 29.3366C17.3516 29.4815 17.4702 29.599 17.6164 29.599Z" fill="black" fill-opacity="0.7"/>
<path d="M13.6517 28.359C13.77 28.359 13.8659 28.264 13.8659 28.1468C13.8659 28.0296 13.77 27.9346 13.6517 27.9346C13.5334 27.9346 13.4375 28.0296 13.4375 28.1468C13.4375 28.264 13.5334 28.359 13.6517 28.359Z" fill="black" fill-opacity="0.7"/>
<path d="M15.1047 32.3227C15.251 32.3227 15.3696 32.2052 15.3696 32.0603C15.3696 31.9153 15.251 31.7979 15.1047 31.7979C14.9584 31.7979 14.8398 31.9153 14.8398 32.0603C14.8398 32.2052 14.9584 32.3227 15.1047 32.3227Z" fill="black" fill-opacity="0.7"/>
<path d="M17.3917 30.5615C17.4884 30.5615 17.5667 30.4839 17.5667 30.3882C17.5667 30.2924 17.4884 30.2148 17.3917 30.2148C17.2951 30.2148 17.2168 30.2924 17.2168 30.3882C17.2168 30.4839 17.2951 30.5615 17.3917 30.5615Z" fill="black" fill-opacity="0.7"/>
<path d="M14.0421 30.4697C14.1388 30.4697 14.2171 30.3921 14.2171 30.2964C14.2171 30.2006 14.1388 30.123 14.0421 30.123C13.9455 30.123 13.8672 30.2006 13.8672 30.2964C13.8672 30.3921 13.9455 30.4697 14.0421 30.4697Z" fill="black" fill-opacity="0.7"/>
<path d="M8.95034 29.2988C9.04696 29.2988 9.12529 29.2212 9.12529 29.1255C9.12529 29.0297 9.04696 28.9521 8.95034 28.9521C8.85372 28.9521 8.77539 29.0297 8.77539 29.1255C8.77539 29.2212 8.85372 29.2988 8.95034 29.2988Z" fill="black" fill-opacity="0.7"/>
<path d="M7.99136 28.1074C8.08798 28.1074 8.16631 28.0298 8.16631 27.9341C8.16631 27.8383 8.08798 27.7607 7.99136 27.7607C7.89473 27.7607 7.81641 27.8383 7.81641 27.9341C7.81641 28.0298 7.89473 28.1074 7.99136 28.1074Z" fill="black" fill-opacity="0.7"/>
<path d="M6.50503 26.2382C6.60165 26.2382 6.67998 26.1606 6.67998 26.0649C6.67998 25.9692 6.60165 25.8916 6.50503 25.8916C6.40841 25.8916 6.33008 25.9692 6.33008 26.0649C6.33008 26.1606 6.40841 26.2382 6.50503 26.2382Z" fill="black" fill-opacity="0.7"/>
<path d="M6.82925 22.0791C6.92587 22.0791 7.0042 22.0015 7.0042 21.9057C7.0042 21.81 6.92587 21.7324 6.82925 21.7324C6.73262 21.7324 6.6543 21.81 6.6543 21.9057C6.6543 22.0015 6.73262 22.0791 6.82925 22.0791Z" fill="black" fill-opacity="0.7"/>
<path d="M5.69253 19.1669C5.78915 19.1669 5.86748 19.0893 5.86748 18.9936C5.86748 18.8979 5.78915 18.8203 5.69253 18.8203C5.59591 18.8203 5.51758 18.8979 5.51758 18.9936C5.51758 19.0893 5.59591 19.1669 5.69253 19.1669Z" fill="black" fill-opacity="0.7"/>
<path d="M5.70061 17.4301C5.82974 17.4301 5.93442 17.3263 5.93442 17.1984C5.93442 17.0705 5.82974 16.9668 5.70061 16.9668C5.57148 16.9668 5.4668 17.0705 5.4668 17.1984C5.4668 17.3263 5.57148 17.4301 5.70061 17.4301Z" fill="black" fill-opacity="0.7"/>
<path d="M2.04045 13.8988C2.16958 13.8988 2.27426 13.7951 2.27426 13.6672C2.27426 13.5393 2.16958 13.4355 2.04045 13.4355C1.91132 13.4355 1.80664 13.5393 1.80664 13.6672C1.80664 13.7951 1.91132 13.8988 2.04045 13.8988Z" fill="black" fill-opacity="0.7"/>
<path d="M3.65542 13.6669C3.75204 13.6669 3.83037 13.5893 3.83037 13.4936C3.83037 13.3979 3.75204 13.3203 3.65542 13.3203C3.5588 13.3203 3.48047 13.3979 3.48047 13.4936C3.48047 13.5893 3.5588 13.6669 3.65542 13.6669Z" fill="black" fill-opacity="0.7"/>
<path d="M4.30581 14.1904C4.40243 14.1904 4.48076 14.1128 4.48076 14.0171C4.48076 13.9213 4.40243 13.8438 4.30581 13.8438C4.20919 13.8438 4.13086 13.9213 4.13086 14.0171C4.13086 14.1128 4.20919 14.1904 4.30581 14.1904Z" fill="black" fill-opacity="0.7"/>
<path d="M2.94276 10.952C3.02764 10.952 3.09645 10.8838 3.09645 10.7997C3.09645 10.7156 3.02764 10.6475 2.94276 10.6475C2.85787 10.6475 2.78906 10.7156 2.78906 10.7997C2.78906 10.8838 2.85787 10.952 2.94276 10.952Z" fill="black" fill-opacity="0.7"/>
<path d="M7.33924 6.73909C7.42412 6.73909 7.49293 6.67092 7.49293 6.58683C7.49293 6.50274 7.42412 6.43457 7.33924 6.43457C7.25436 6.43457 7.18555 6.50274 7.18555 6.58683C7.18555 6.67092 7.25436 6.73909 7.33924 6.73909Z" fill="black" fill-opacity="0.7"/>
<path d="M6.3744 3.57991C6.45928 3.57991 6.52809 3.51174 6.52809 3.42765C6.52809 3.34356 6.45928 3.27539 6.3744 3.27539C6.28951 3.27539 6.2207 3.34356 6.2207 3.42765C6.2207 3.51174 6.28951 3.57991 6.3744 3.57991Z" fill="black" fill-opacity="0.7"/>
<path d="M11.2979 3.17081C11.2979 3.25342 11.2309 3.32145 11.1459 3.32145C11.0609 3.32145 10.9922 3.25342 10.9922 3.17081C10.9922 3.0882 11.0609 3.01855 11.1459 3.01855C11.2309 3.01855 11.2979 3.08659 11.2979 3.17081Z" fill="black" fill-opacity="0.7"/>
<path d="M13.8767 7.90962C13.8767 8.00843 13.7949 8.08942 13.6952 8.08942C13.5954 8.08942 13.5137 8.00843 13.5137 7.90962C13.5137 7.81081 13.5954 7.73145 13.6952 7.73145C13.7949 7.73145 13.8767 7.81081 13.8767 7.90962Z" fill="black" fill-opacity="0.7"/>
<path d="M16.6366 4.68967C16.7368 4.68967 16.8181 4.60917 16.8181 4.50987C16.8181 4.41057 16.7368 4.33008 16.6366 4.33008C16.5363 4.33008 16.4551 4.41057 16.4551 4.50987C16.4551 4.60917 16.5363 4.68967 16.6366 4.68967Z" fill="black" fill-opacity="0.7"/>
<path d="M17.5897 0.359591C17.6899 0.359591 17.7712 0.279094 17.7712 0.179795C17.7712 0.0804971 17.6899 0 17.5897 0C17.4895 0 17.4082 0.0804971 17.4082 0.179795C17.4082 0.279094 17.4895 0.359591 17.5897 0.359591Z" fill="black" fill-opacity="0.7"/>
<path d="M18.0135 2.1174C18.1138 2.1174 18.195 2.03691 18.195 1.93761C18.195 1.83831 18.1138 1.75781 18.0135 1.75781C17.9133 1.75781 17.832 1.83831 17.832 1.93761C17.832 2.03691 17.9133 2.1174 18.0135 2.1174Z" fill="black" fill-opacity="0.7"/>
<path d="M27.0455 4.68886C27.1548 4.68886 27.2433 4.60111 27.2433 4.49287C27.2433 4.38462 27.1548 4.29688 27.0455 4.29688C26.9362 4.29688 26.8477 4.38462 26.8477 4.49287C26.8477 4.60111 26.9362 4.68886 27.0455 4.68886Z" fill="black" fill-opacity="0.7"/>
<path d="M30.8459 9.83647C30.984 9.83647 31.096 9.72552 31.096 9.58865C31.096 9.45178 30.984 9.34082 30.8459 9.34082C30.7077 9.34082 30.5957 9.45178 30.5957 9.58865C30.5957 9.72552 30.7077 9.83647 30.8459 9.83647Z" fill="black" fill-opacity="0.7"/>
<path d="M29.7404 8.80229C29.8786 8.80229 29.9906 8.69134 29.9906 8.55447C29.9906 8.4176 29.8786 8.30664 29.7404 8.30664C29.6022 8.30664 29.4902 8.4176 29.4902 8.55447C29.4902 8.69134 29.6022 8.80229 29.7404 8.80229Z" fill="black" fill-opacity="0.7"/>
<path d="M28.7155 6.87505C28.8702 6.87505 28.9955 6.75086 28.9955 6.59768C28.9955 6.44449 28.8702 6.32031 28.7155 6.32031C28.5609 6.32031 28.4355 6.44449 28.4355 6.59768C28.4355 6.75086 28.5609 6.87505 28.7155 6.87505Z" fill="black" fill-opacity="0.7"/>
<path d="M27.838 8.83069C27.9999 8.83069 28.1311 8.7007 28.1311 8.54034C28.1311 8.37999 27.9999 8.25 27.838 8.25C27.6761 8.25 27.5449 8.37999 27.5449 8.54034C27.5449 8.7007 27.6761 8.83069 27.838 8.83069Z" fill="black" fill-opacity="0.7"/>
<path d="M31.8508 14.2729C32.0263 14.2729 32.1685 14.132 32.1685 13.9582C32.1685 13.7844 32.0263 13.6436 31.8508 13.6436C31.6754 13.6436 31.5332 13.7844 31.5332 13.9582C31.5332 14.132 31.6754 14.2729 31.8508 14.2729Z" fill="black" fill-opacity="0.7"/>
<path d="M21.828 3.68088C21.9282 3.68088 22.0095 3.60038 22.0095 3.50108C22.0095 3.40179 21.9282 3.32129 21.828 3.32129C21.7277 3.32129 21.6465 3.40179 21.6465 3.50108C21.6465 3.60038 21.7277 3.68088 21.828 3.68088Z" fill="black" fill-opacity="0.7"/>
<path d="M20.4373 2.04807C20.5376 2.04807 20.6188 1.96757 20.6188 1.86827C20.6188 1.76897 20.5376 1.68848 20.4373 1.68848C20.3371 1.68848 20.2559 1.76897 20.2559 1.86827C20.2559 1.96757 20.3371 2.04807 20.4373 2.04807Z" fill="black" fill-opacity="0.7"/>
<path d="M25.1053 8.18186C25.2056 8.18186 25.2868 8.10136 25.2868 8.00206C25.2868 7.90276 25.2056 7.82227 25.1053 7.82227C25.0051 7.82227 24.9238 7.90276 24.9238 8.00206C24.9238 8.10136 25.0051 8.18186 25.1053 8.18186Z" fill="black" fill-opacity="0.7"/>
<path d="M23.9823 9.69943C24.0825 9.69943 24.1638 9.61894 24.1638 9.51964C24.1638 9.42034 24.0825 9.33984 23.9823 9.33984C23.882 9.33984 23.8008 9.42034 23.8008 9.51964C23.8008 9.61894 23.882 9.69943 23.9823 9.69943Z" fill="black" fill-opacity="0.7"/>
<path d="M22.8612 10.9406C22.9614 10.9406 23.0427 10.8601 23.0427 10.7608C23.0427 10.6616 22.9614 10.5811 22.8612 10.5811C22.7609 10.5811 22.6797 10.6616 22.6797 10.7608C22.6797 10.8601 22.7609 10.9406 22.8612 10.9406Z" fill="black" fill-opacity="0.7"/>
<path d="M26.9549 13.5471C27.0552 13.5471 27.1364 13.4666 27.1364 13.3673C27.1364 13.268 27.0552 13.1875 26.9549 13.1875C26.8547 13.1875 26.7734 13.268 26.7734 13.3673C26.7734 13.4666 26.8547 13.5471 26.9549 13.5471Z" fill="black" fill-opacity="0.7"/>
<path d="M19.458 1.36619C19.5717 1.36619 19.664 1.27482 19.664 1.1621C19.664 1.04938 19.5717 0.958008 19.458 0.958008C19.3442 0.958008 19.252 1.04938 19.252 1.1621C19.252 1.27482 19.3442 1.36619 19.458 1.36619Z" fill="black" fill-opacity="0.7"/>
<path d="M16.5432 3.4896C16.6922 3.4896 16.813 3.36995 16.813 3.22234C16.813 3.07474 16.6922 2.95508 16.5432 2.95508C16.3942 2.95508 16.2734 3.07474 16.2734 3.22234C16.2734 3.36995 16.3942 3.4896 16.5432 3.4896Z" fill="black" fill-opacity="0.7"/>
<path d="M2.09878 18.6103C2.1954 18.6103 2.27373 18.5327 2.27373 18.437C2.27373 18.3413 2.1954 18.2637 2.09878 18.2637C2.00216 18.2637 1.92383 18.3413 1.92383 18.437C1.92383 18.5327 2.00216 18.6103 2.09878 18.6103Z" fill="black" fill-opacity="0.7"/>
<path d="M6.28772 15.0884C6.28772 15.1839 6.21087 15.2617 6.1144 15.2617C6.01794 15.2617 5.93945 15.1839 5.93945 15.0884C5.93945 14.9928 6.0163 14.915 6.1144 14.915C6.21251 14.915 6.28772 14.9928 6.28772 15.0884Z" fill="black" fill-opacity="0.7"/>
<path d="M1.35073 19.4355C1.44735 19.4355 1.52568 19.3579 1.52568 19.2622C1.52568 19.1665 1.44735 19.0889 1.35073 19.0889C1.25411 19.0889 1.17578 19.1665 1.17578 19.2622C1.17578 19.3579 1.25411 19.4355 1.35073 19.4355Z" fill="black" fill-opacity="0.7"/>
<path d="M8.19643 22.1396C8.29306 22.1396 8.37138 22.062 8.37138 21.9663C8.37138 21.8706 8.29306 21.793 8.19643 21.793C8.09981 21.793 8.02148 21.8706 8.02148 21.9663C8.02148 22.062 8.09981 22.1396 8.19643 22.1396Z" fill="black" fill-opacity="0.7"/>
<path d="M4.22246 23.1064C4.3561 23.1064 4.46444 22.9991 4.46444 22.8667C4.46444 22.7343 4.3561 22.627 4.22246 22.627C4.08881 22.627 3.98047 22.7343 3.98047 22.8667C3.98047 22.9991 4.08881 23.1064 4.22246 23.1064Z" fill="black" fill-opacity="0.7"/>
<path d="M4.44316 20.625C4.5768 20.625 4.68514 20.5176 4.68514 20.3852C4.68514 20.2528 4.5768 20.1455 4.44316 20.1455C4.30951 20.1455 4.20117 20.2528 4.20117 20.3852C4.20117 20.5176 4.30951 20.625 4.44316 20.625Z" fill="black" fill-opacity="0.7"/>
<path d="M3.55279 21.7067C3.70922 21.7067 3.83604 21.5811 3.83604 21.4261C3.83604 21.2711 3.70922 21.1455 3.55279 21.1455C3.39635 21.1455 3.26953 21.2711 3.26953 21.4261C3.26953 21.5811 3.39635 21.7067 3.55279 21.7067Z" fill="black" fill-opacity="0.7"/>
<path d="M24.7213 24.7858C24.7972 24.7858 24.8587 24.7249 24.8587 24.6497C24.8587 24.5746 24.7972 24.5137 24.7213 24.5137C24.6455 24.5137 24.584 24.5746 24.584 24.6497C24.584 24.7249 24.6455 24.7858 24.7213 24.7858Z" fill="black" fill-opacity="0.7"/>
<path d="M28.3924 26.6175C28.4872 26.6175 28.5641 26.5414 28.5641 26.4474C28.5641 26.3535 28.4872 26.2773 28.3924 26.2773C28.2976 26.2773 28.2207 26.3535 28.2207 26.4474C28.2207 26.5414 28.2976 26.6175 28.3924 26.6175Z" fill="black" fill-opacity="0.7"/>
<path d="M26.4592 27.0336C26.6028 27.0336 26.7192 26.9183 26.7192 26.7761C26.7192 26.6339 26.6028 26.5186 26.4592 26.5186C26.3156 26.5186 26.1992 26.6339 26.1992 26.7761C26.1992 26.9183 26.3156 27.0336 26.4592 27.0336Z" fill="black" fill-opacity="0.7"/>
<path d="M23.2786 26.7706C23.3472 26.7706 23.4028 26.7155 23.4028 26.6475C23.4028 26.5795 23.3472 26.5244 23.2786 26.5244C23.2099 26.5244 23.1543 26.5795 23.1543 26.6475C23.1543 26.7155 23.2099 26.7706 23.2786 26.7706Z" fill="black" fill-opacity="0.7"/>
<path d="M21.0352 30.2993C21.1183 30.2993 21.1856 30.2325 21.1856 30.1502C21.1856 30.0679 21.1183 30.0012 21.0352 30.0012C20.9521 30.0012 20.8848 30.0679 20.8848 30.1502C20.8848 30.2325 20.9521 30.2993 21.0352 30.2993Z" fill="black" fill-opacity="0.7"/>
<path d="M18.6706 31.8901C18.7573 31.8901 18.8276 31.8205 18.8276 31.7346C18.8276 31.6487 18.7573 31.5791 18.6706 31.5791C18.5839 31.5791 18.5137 31.6487 18.5137 31.7346C18.5137 31.8205 18.5839 31.8901 18.6706 31.8901Z" fill="black" fill-opacity="0.7"/>
<path d="M22.9017 30.2889C22.9866 30.2889 23.0554 30.2207 23.0554 30.1366C23.0554 30.0525 22.9866 29.9844 22.9017 29.9844C22.8169 29.9844 22.748 30.0525 22.748 30.1366C22.748 30.2207 22.8169 30.2889 22.9017 30.2889Z" fill="black" fill-opacity="0.7"/>
<path d="M15.4352 25.9277C15.5526 25.9277 15.6478 25.8335 15.6478 25.7172C15.6478 25.6009 15.5526 25.5066 15.4352 25.5066C15.3178 25.5066 15.2227 25.6009 15.2227 25.7172C15.2227 25.8335 15.3178 25.9277 15.4352 25.9277Z" fill="black" fill-opacity="0.7"/>
<path d="M22.0705 32.0513C22.2658 32.0513 22.4241 31.8944 22.4241 31.7009C22.4241 31.5074 22.2658 31.3506 22.0705 31.3506C21.8751 31.3506 21.7168 31.5074 21.7168 31.7009C21.7168 31.8944 21.8751 32.0513 22.0705 32.0513Z" fill="black" fill-opacity="0.7"/>
<path d="M25.4875 30.0321C25.5895 30.0321 25.6723 29.9501 25.6723 29.8491C25.6723 29.748 25.5895 29.666 25.4875 29.666C25.3855 29.666 25.3027 29.748 25.3027 29.8491C25.3027 29.9501 25.3855 30.0321 25.4875 30.0321Z" fill="black" fill-opacity="0.7"/>
<path d="M24.4782 26.8198C24.5622 26.8198 24.6303 26.7524 24.6303 26.6692C24.6303 26.586 24.5622 26.5186 24.4782 26.5186C24.3942 26.5186 24.3262 26.586 24.3262 26.6692C24.3262 26.7524 24.3942 26.8198 24.4782 26.8198Z" fill="black" fill-opacity="0.7"/>
<path d="M25.4713 28.4541C25.6194 28.4541 25.7394 28.3352 25.7394 28.1885C25.7394 28.0418 25.6194 27.9229 25.4713 27.9229C25.3232 27.9229 25.2031 28.0418 25.2031 28.1885C25.2031 28.3352 25.3232 28.4541 25.4713 28.4541Z" fill="black" fill-opacity="0.7"/>
<path d="M27.3519 16.7099C27.4286 16.7099 27.4908 16.6483 27.4908 16.5723C27.4908 16.4962 27.4286 16.4346 27.3519 16.4346C27.2751 16.4346 27.2129 16.4962 27.2129 16.5723C27.2129 16.6483 27.2751 16.7099 27.3519 16.7099Z" fill="black" fill-opacity="0.7"/>
<path d="M32.9058 15.3296C33.0069 15.3296 33.0889 15.2484 33.0889 15.1482C33.0889 15.048 33.0069 14.9668 32.9058 14.9668C32.8046 14.9668 32.7227 15.048 32.7227 15.1482C32.7227 15.2484 32.8046 15.3296 32.9058 15.3296Z" fill="black" fill-opacity="0.7"/>
<path d="M28.8537 16.0939C28.9197 16.0939 28.9731 16.041 28.9731 15.9757C28.9731 15.9104 28.9197 15.8574 28.8537 15.8574C28.7878 15.8574 28.7344 15.9104 28.7344 15.9757C28.7344 16.041 28.7878 16.0939 28.8537 16.0939Z" fill="black" fill-opacity="0.7"/>
<path d="M10.2651 13.0357C10.1784 13.0357 10.1014 13.073 10.0506 13.1331L9.0568 12.4307C9.20088 12.3091 9.29257 12.1274 9.29257 11.9246C9.29257 11.85 9.27947 11.7787 9.25655 11.7122C9.24836 11.683 9.2369 11.6586 9.22544 11.6343C9.1534 11.4883 9.0306 11.3715 8.87997 11.3083C8.85377 11.2985 8.82757 11.2888 8.80138 11.2823C8.74407 11.2661 8.68349 11.258 8.62127 11.258C8.46082 11.258 8.31346 11.3131 8.19721 11.4072L6.29792 9.15746C6.38143 9.07474 6.43218 8.9612 6.43218 8.83468C6.43218 8.58002 6.22588 8.37402 5.96882 8.37402C5.71176 8.37402 5.50546 8.58002 5.50546 8.83468C5.50546 8.95147 5.54967 9.05852 5.62335 9.13962L4.21689 11.0293C4.11211 10.932 3.9713 10.8719 3.81575 10.8719C3.49156 10.8719 3.22959 11.1331 3.22959 11.4543C3.22959 11.7754 3.49156 12.0349 3.81575 12.0349C3.9713 12.0349 4.11374 11.9749 4.21853 11.876L5.18455 13.451C4.99789 13.5321 4.86855 13.717 4.86855 13.9327C4.86855 14.1484 4.98971 14.3204 5.16654 14.4063L4.38881 16.3528C4.35279 16.3447 4.31513 16.3414 4.27747 16.3414C3.97621 16.3414 3.73061 16.5831 3.73061 16.8832C3.73061 17.0876 3.84522 17.266 4.01387 17.3584L3.45063 18.5896C3.37531 18.5393 3.28362 18.5085 3.18538 18.5085C2.92669 18.5085 2.71875 18.7161 2.71875 18.9724C2.71875 19.2286 2.92669 19.4363 3.18538 19.4363C3.44408 19.4363 3.65366 19.2286 3.65366 18.9724C3.65366 18.8442 3.60126 18.7274 3.51612 18.6447L4.08755 17.3925C4.14649 17.4152 4.21034 17.4266 4.27747 17.4266C4.58038 17.4266 4.82597 17.1833 4.82597 16.8832C4.82597 16.8134 4.81288 16.7469 4.78832 16.6869L8.52303 15.2822C8.5918 15.3974 8.69659 15.4882 8.82266 15.5401L8.18575 17.652C8.16446 17.6472 8.14154 17.6455 8.11862 17.6455C7.89594 17.6455 7.71584 17.8256 7.71584 18.0462C7.71584 18.2668 7.89594 18.4452 8.11862 18.4452C8.34129 18.4452 8.52303 18.2668 8.52303 18.0462C8.52303 17.8759 8.41497 17.7315 8.26434 17.6731L8.90125 15.5645C8.95201 15.5791 9.00441 15.5856 9.05844 15.5856C9.40391 15.5856 9.68389 15.3082 9.68389 14.9659C9.68389 14.6237 9.40391 14.3463 9.05844 14.3463C8.99131 14.3463 8.92745 14.3577 8.86687 14.3771L8.66384 12.5897C8.78337 12.5832 8.8947 12.5443 8.98967 12.481L10.0064 13.1996C9.98843 13.2352 9.97861 13.2758 9.97861 13.318C9.97861 13.4753 10.1063 13.6018 10.2651 13.6018C10.424 13.6018 10.55 13.4753 10.55 13.318C10.55 13.1606 10.4223 13.0357 10.2651 13.0357ZM5.68393 9.19639C5.76252 9.25641 5.86076 9.29371 5.96882 9.29371C6.0687 9.29371 6.16039 9.26289 6.2357 9.20937L8.13499 11.4624C8.04985 11.55 7.98927 11.6619 7.96307 11.7851L4.39372 11.5646C4.40027 11.5289 4.40355 11.4916 4.40355 11.4543C4.40355 11.3164 4.35607 11.1899 4.2742 11.0909L5.68393 9.19639ZM4.7523 16.6139C4.69008 16.5036 4.58856 16.4193 4.46904 16.3755L5.24349 14.4372H5.24513C5.29425 14.4534 5.34828 14.4615 5.40231 14.4615C5.63481 14.4615 5.83292 14.3139 5.90497 14.1079L8.46245 14.7859C8.44444 14.8427 8.43462 14.9027 8.43462 14.9659C8.43462 15.0519 8.45263 15.1346 8.48538 15.2109L4.7523 16.6139ZM8.78828 14.408C8.65729 14.4712 8.55251 14.5767 8.49192 14.708L5.92625 14.03C5.9328 13.9976 5.93607 13.9652 5.93607 13.9327C5.93607 13.6407 5.69703 13.4039 5.40231 13.4039C5.35483 13.4039 5.30898 13.4104 5.26478 13.4234L4.27747 11.8143C4.31841 11.7641 4.34952 11.7057 4.3708 11.644L7.95161 11.8646C7.94997 11.8841 7.94834 11.9036 7.94834 11.9246C7.94834 12.0512 7.98272 12.1679 8.04494 12.2669L6.97577 12.9352C6.95121 12.9189 6.92174 12.9092 6.89063 12.9092C6.80549 12.9092 6.73672 12.9773 6.73672 13.0617C6.73672 13.146 6.80549 13.2125 6.89063 13.2125C6.97577 13.2125 7.0429 13.1444 7.0429 13.0617C7.0429 13.039 7.03799 13.0163 7.02816 12.9968L8.09078 12.3334C8.20539 12.4794 8.38059 12.5783 8.58034 12.5897L8.78828 14.408Z" fill="black" fill-opacity="0.7"/>
<path d="M12.1724 3.95606C12.1724 4.1653 12.0021 4.33399 11.7926 4.33399C11.6223 4.33399 11.4798 4.22531 11.4291 4.07447L9.09427 4.55945C9.09263 4.73788 9.01077 4.89846 8.88306 5.00551L10.5269 6.60321C10.5498 6.59023 10.576 6.58212 10.6039 6.58212C10.6874 6.58212 10.7561 6.65025 10.7561 6.73297C10.7561 6.81569 10.6874 6.88544 10.6039 6.88544C10.5204 6.88544 10.45 6.81732 10.45 6.73297C10.45 6.70702 10.4565 6.68107 10.4696 6.65998L8.81756 5.05579C8.7226 5.11743 8.60962 5.15311 8.48846 5.15311C8.47209 5.15311 8.45572 5.15311 8.44098 5.14987L8.06931 8.41664C8.18065 8.45394 8.25924 8.55775 8.25924 8.68103C8.25924 8.83674 8.13153 8.96326 7.97435 8.96326C7.81716 8.96326 7.68945 8.83674 7.68945 8.68103C7.68945 8.52531 7.81716 8.39879 7.97435 8.39879C7.97926 8.39879 7.98417 8.39879 7.98908 8.40042L8.36075 5.14014C8.08732 5.08175 7.88266 4.84006 7.88266 4.55296C7.88266 4.22045 8.15281 3.95281 8.48846 3.95281C8.79628 3.95281 9.0517 4.1799 9.08936 4.47673L11.4127 3.99499C11.4111 3.98039 11.4111 3.96903 11.4111 3.95606C11.4111 3.74844 11.5814 3.57812 11.7926 3.57812C12.0038 3.57812 12.1724 3.74844 12.1724 3.95606Z" fill="black" fill-opacity="0.7"/>
</g>
<defs>
<clipPath id="clip0_1693_12124">
<rect width="33.4012" height="32.3238" fill="white"/>
</clipPath>
</defs>
</svg>
