<svg xmlns="http://www.w3.org/2000/svg" width="185" height="52" viewBox="0 0 185 52" fill="none">
<path d="M82.2146 40.1954C110.279 39.6937 138.481 38.068 166.496 40.9005" stroke="black" stroke-linecap="round"/>
<path d="M17.1912 34.304C15.6232 34.304 14.8392 33.312 14.8392 31.328C14.8392 28.928 15.9432 25.28 18.1512 20.384C18.9512 18.592 19.7992 16.832 20.6952 15.104C21.5912 13.376 22.5352 11.68 23.5272 10.016L16.3272 12.08C14.8872 12.496 13.5752 12.784 12.3912 12.944C11.2072 13.104 10.1032 13.184 9.07925 13.184C6.16725 13.184 4.71125 12.432 4.71125 10.928C4.71125 10.48 4.87125 10 5.19125 9.488C6.11925 8.08 7.76725 7.008 10.1352 6.272C12.0552 5.664 14.0552 5.36 16.1352 5.36C18.0232 5.36 19.3992 5.488 20.2632 5.744C20.6792 5.872 20.8872 6.08 20.8872 6.368C20.8872 6.624 20.7592 6.752 20.5032 6.752H20.3592C19.0472 6.752 18.0552 6.688 17.3832 6.56C16.7112 6.432 16.3432 6.368 16.2792 6.368C14.6472 6.368 12.9672 6.592 11.2392 7.04C9.06325 7.616 7.59125 8.384 6.82325 9.344C6.50325 9.696 6.34325 10.016 6.34325 10.304C6.34325 11.104 7.31925 11.504 9.27125 11.504C10.1992 11.504 11.3032 11.408 12.5832 11.216C13.8952 10.992 15.3512 10.672 16.9512 10.256C18.1032 9.936 19.0792 9.68 19.8792 9.488C20.7112 9.264 21.4952 9.056 22.2312 8.864C22.9672 8.64 23.7832 8.4 24.6792 8.144C24.7112 8.08 24.8232 7.904 25.0152 7.616C25.2072 7.296 25.3992 7.024 25.5912 6.8C26.0392 6.32 26.8072 6.08 27.8952 6.08C28.3112 6.08 28.5192 6.16 28.5192 6.32C28.5192 6.384 28.2472 6.784 27.7032 7.52C28.6952 7.36 29.6392 7.232 30.5352 7.136C31.4632 7.04 32.3432 6.992 33.1752 6.992C34.9352 6.992 36.7112 7.456 38.5032 8.384C40.5832 9.504 41.6232 10.832 41.6232 12.368C41.6232 12.88 41.4632 13.136 41.1432 13.136C40.9832 13.136 40.8712 12.992 40.8072 12.704C40.7112 12.192 40.5832 11.776 40.4232 11.456C40.1672 10.976 39.7672 10.544 39.2232 10.16C38.6792 9.744 38.0552 9.408 37.3512 9.152C36.0712 8.672 34.7752 8.432 33.4632 8.432C31.4152 8.432 29.0632 8.72 26.4072 9.296C24.1352 12.528 22.0552 16.048 20.1672 19.856C17.8312 24.56 16.6632 28.432 16.6632 31.472C16.6632 32.72 16.8712 33.344 17.2872 33.344C17.5432 33.344 17.9432 33.168 18.4872 32.816C19.0632 32.432 19.3512 32.24 19.3512 32.24C19.6392 32.24 19.7832 32.384 19.7832 32.672C19.7832 33.024 19.4632 33.376 18.8232 33.728C18.1512 34.112 17.6072 34.304 17.1912 34.304ZM20.2512 51.488C18.6832 51.488 17.4032 51.04 16.4112 50.144C15.3552 49.216 14.8272 48.016 14.8272 46.544C14.8272 43.152 17.2752 39.872 22.1712 36.704C26.3312 34.048 30.3152 32.416 34.1232 31.808C34.3472 30.816 34.5872 29.584 34.8432 28.112C35.0992 26.64 35.3712 24.928 35.6592 22.976C35.4672 23.424 35.1952 23.968 34.8432 24.608C34.4912 25.248 34.0752 25.92 33.5952 26.624C33.0512 27.456 32.5872 28.144 32.2032 28.688C31.8192 29.2 31.4352 29.648 31.0512 30.032C30.2512 30.896 29.4672 31.328 28.6992 31.328C27.6752 31.328 27.1632 30.432 27.1632 28.64C27.1632 27.648 27.4832 26.416 28.1232 24.944C28.8272 23.28 29.6432 22.448 30.5712 22.448C31.0192 22.448 31.2432 22.576 31.2432 22.832C31.2432 22.864 31.1632 23.024 31.0032 23.312C30.8432 23.6 30.5232 24.16 30.0432 24.992C29.2432 26.4 28.8432 27.504 28.8432 28.304C28.8432 29.328 29.1312 29.84 29.7072 29.84C30.7312 29.84 32.8912 26.624 36.1872 20.192C36.2512 19.712 36.6512 19.472 37.3872 19.472C37.9632 19.472 38.2512 19.6 38.2512 19.856C38.2512 20.08 38.2032 20.528 38.1072 21.2C38.0112 21.872 37.8512 22.784 37.6272 23.936C37.3392 25.536 37.0832 26.912 36.8592 28.064C36.6352 29.184 36.3632 30.416 36.0432 31.76H36.2352C37.9312 31.76 38.7792 32.192 38.7792 33.056C38.7792 33.248 38.7312 33.344 38.6352 33.344C38.6032 33.344 38.4592 33.264 38.2032 33.104C38.0752 33.04 37.8992 32.944 37.6752 32.816C37.4512 32.72 37.1632 32.672 36.8112 32.672C36.6512 32.672 36.4912 32.672 36.3312 32.672C36.2032 32.672 36.0592 32.688 35.8992 32.72C34.7152 37.456 33.1952 41.184 31.3392 43.904C27.8832 48.96 24.1872 51.488 20.2512 51.488ZM20.4912 50.816C22.4752 50.816 24.4112 49.984 26.2992 48.32C27.8032 47.04 29.1632 45.36 30.3792 43.28C32.0752 40.368 33.3072 36.832 34.0752 32.672C31.9952 32.992 29.4832 33.904 26.5392 35.408C23.5632 36.912 21.3392 38.384 19.8672 39.824C17.4352 42.128 16.2192 44.416 16.2192 46.688C16.2192 47.936 16.6032 48.928 17.3712 49.664C18.2032 50.432 19.2432 50.816 20.4912 50.816ZM32.6071 46.832C31.8071 46.832 31.4071 46.24 31.4071 45.056C31.4071 44.256 31.7591 43.12 32.4631 41.648C33.1671 40.208 34.2551 38.432 35.7271 36.32C36.7191 34.88 37.7431 33.456 38.7991 32.048C39.8551 30.64 40.8951 29.232 41.9191 27.824V27.536C41.9191 26.96 41.9191 26.416 41.9191 25.904C41.9191 25.392 41.9031 24.928 41.8711 24.512C41.6471 24.832 41.3271 25.312 40.9111 25.952C40.4951 26.592 39.9511 27.312 39.2791 28.112C39.2471 28.144 39.2151 28.16 39.1831 28.16C39.0231 28.16 38.9431 28.016 38.9431 27.728C38.9431 27.504 39.0071 27.312 39.1351 27.152C39.8711 26.128 40.4471 25.056 40.8631 23.936C41.3111 22.816 41.5351 21.984 41.5351 21.44C41.5351 21.152 41.4551 20.896 41.2951 20.672L41.0071 20.336C41.0071 20.208 41.1191 20.096 41.3431 20C41.5991 19.904 41.9831 19.888 42.4951 19.952C42.9431 20.016 43.2631 20.208 43.4551 20.528C43.6791 20.848 43.7911 21.552 43.7911 22.64C43.7911 23.152 43.7751 23.776 43.7431 24.512C43.7111 25.216 43.6311 26 43.5031 26.864C43.9511 26.032 44.4951 25.104 45.1351 24.08C45.8071 23.024 46.4151 22.16 46.9591 21.488C48.5911 19.44 49.9831 18.416 51.1351 18.416C52.1591 18.416 52.6711 19.168 52.6711 20.672C52.6711 22.528 52.0151 24.72 50.7031 27.248C50.1911 28.24 49.5511 29.232 48.7831 30.224C48.0151 31.184 47.1991 31.936 46.3351 32.48C47.7431 32.448 49.2471 31.952 50.8471 30.992C52.4471 30.032 54.0311 28.368 55.5991 26C55.6951 25.84 55.7911 25.76 55.8871 25.76C56.0151 25.76 56.0791 25.856 56.0791 26.048C56.0791 26.336 55.9351 26.688 55.6471 27.104C55.1351 27.84 54.6711 28.448 54.2551 28.928C53.8711 29.376 53.4711 29.792 53.0551 30.176C52.6711 30.528 52.1911 30.928 51.6151 31.376C50.5911 32.144 49.5671 32.688 48.5431 33.008C47.5191 33.328 46.5431 33.488 45.6151 33.488C45.0391 33.488 44.4791 33.424 43.9351 33.296C43.4231 33.2 42.9431 33.072 42.4951 32.912C41.9831 34.224 41.4071 35.536 40.7671 36.848C40.1271 38.16 39.3591 39.536 38.4631 40.976C36.0951 44.88 34.1431 46.832 32.6071 46.832ZM45.0391 32.384C45.7431 32.064 46.4151 31.488 47.0551 30.656C47.7271 29.792 48.3351 28.784 48.8791 27.632C49.9991 25.296 50.5591 23.312 50.5591 21.68C50.5591 20.688 50.2871 20.192 49.7431 20.192C49.6151 20.192 49.4551 20.224 49.2631 20.288C48.6871 20.544 48.0791 21.072 47.4391 21.872C46.8311 22.64 46.2231 23.6 45.6151 24.752C45.1351 25.648 44.6551 26.624 44.1751 27.68C43.6951 28.736 43.3111 29.744 43.0231 30.704C43.3751 30.704 43.7591 30.896 44.1751 31.28C44.6231 31.632 44.9111 32 45.0391 32.384ZM33.3751 45.152C34.8151 45.152 36.7511 42.848 39.1831 38.24C39.5031 37.632 39.8391 36.8 40.1911 35.744C40.5431 34.688 40.8951 33.424 41.2471 31.952C41.2151 31.888 41.1991 31.808 41.1991 31.712C41.1991 31.616 41.1991 31.536 41.1991 31.472C41.1991 31.088 41.2951 30.736 41.4871 30.416C41.4551 30.384 41.4231 30.368 41.3911 30.368C41.2631 30.368 41.0871 30.528 40.8631 30.848L37.4071 35.936C37.0871 36.416 36.7191 37.008 36.3031 37.712C35.8551 38.448 35.3751 39.312 34.8631 40.304C33.6791 42.544 33.0871 44.016 33.0871 44.72C33.0871 45.008 33.1831 45.152 33.3751 45.152ZM57.3822 32.288C56.3262 32.288 55.3982 31.984 54.5982 31.376C53.7982 30.768 53.3982 29.744 53.3982 28.304C53.3982 27.44 53.5902 26.512 53.9742 25.52C54.3582 24.496 54.8702 23.536 55.5102 22.64C56.1822 21.744 56.9182 21.008 57.7182 20.432C58.5182 19.856 59.3342 19.568 60.1662 19.568C60.4862 19.568 60.7582 19.68 60.9822 19.904C61.2382 20.128 61.3662 20.464 61.3662 20.912C61.3662 21.904 60.6142 23.104 59.1102 24.512C58.5022 25.088 57.8622 25.6 57.1902 26.048C56.5502 26.496 55.9582 26.816 55.4142 27.008C55.2862 27.424 55.2222 27.904 55.2222 28.448C55.2222 29.184 55.3982 29.856 55.7502 30.464C56.1022 31.072 56.6622 31.376 57.4302 31.376C58.3902 31.376 59.2702 31.104 60.0702 30.56C60.8702 30.016 61.6062 29.36 62.2782 28.592C62.9502 27.792 63.5422 27.056 64.0542 26.384C64.2782 26.064 64.5022 25.904 64.7262 25.904C64.8542 25.904 64.9182 25.968 64.9182 26.096C64.9182 26.16 64.9022 26.24 64.8702 26.336C64.8382 26.4 64.8062 26.464 64.7742 26.528C64.2302 27.296 63.6062 28.128 62.9022 29.024C62.1982 29.92 61.3982 30.688 60.5022 31.328C59.6062 31.968 58.5662 32.288 57.3822 32.288ZM55.7502 26.048C56.5822 25.696 57.4462 25.072 58.3422 24.176C59.3982 23.152 59.9262 22.256 59.9262 21.488C59.9262 21.104 59.7342 20.912 59.3502 20.912C58.8382 20.912 58.1342 21.648 57.2382 23.12C56.4382 24.336 55.9422 25.312 55.7502 26.048ZM66.7516 33.104C65.2476 33.104 63.8876 32.56 62.6716 31.472C61.4236 30.352 60.7996 29.072 60.7996 27.632C60.7996 26.704 61.0556 26.24 61.5676 26.24C61.8876 26.24 62.2236 26.464 62.5756 26.912C63.0236 26.528 63.8236 25.328 64.9756 23.312C65.4876 22.448 66.0476 21.568 66.6556 20.672C67.2636 19.744 67.9196 18.976 68.6236 18.368C69.3276 17.728 70.0636 17.408 70.8316 17.408C71.4396 17.408 71.9516 17.552 72.3676 17.84C72.8476 18.128 73.0876 18.48 73.0876 18.896C73.0876 19.152 72.7196 19.28 71.9836 19.28C71.2796 19.28 70.6076 19.504 69.9676 19.952C69.3596 20.432 69.0556 21.024 69.0556 21.728C69.0556 21.984 69.1036 22.256 69.1996 22.544L70.3996 25.664C70.6556 26.272 70.8156 26.864 70.8796 27.44C70.9756 27.984 71.0236 28.48 71.0236 28.928C72.8796 28.64 74.4636 27.696 75.7756 26.096C75.8396 26 75.9196 25.952 76.0156 25.952C76.2076 25.952 76.3036 26.08 76.3036 26.336C76.3036 26.4 76.2876 26.464 76.2556 26.528C76.2556 26.592 76.2396 26.656 76.2076 26.72C75.1516 28.384 73.3756 29.456 70.8796 29.936C70.7836 30.448 70.6076 30.896 70.3516 31.28C70.0956 31.664 69.7916 31.984 69.4396 32.24C68.6396 32.816 67.7436 33.104 66.7516 33.104ZM69.3436 29.168V28.688C69.3436 28.336 69.2636 27.856 69.1036 27.248C68.9756 26.64 68.7676 25.856 68.4796 24.896C68.1916 23.936 67.9676 23.072 67.8076 22.304C67.6796 21.504 67.6316 20.992 67.6636 20.768C66.8316 22.112 65.9996 23.392 65.1676 24.608C64.3676 25.792 63.6476 26.752 63.0076 27.488C63.9996 27.968 65.0556 28.352 66.1756 28.64C67.2956 28.928 68.3516 29.104 69.3436 29.168ZM66.1276 31.76C66.7676 31.76 67.3916 31.648 67.9996 31.424C68.6396 31.168 69.0716 30.72 69.2956 30.08C67.8556 30.08 66.5116 29.936 65.2636 29.648C64.0476 29.36 63.0716 28.912 62.3356 28.304L62.0476 28.592C62.9116 30.704 64.2716 31.76 66.1276 31.76ZM77.5872 32.288C76.5312 32.288 75.6032 31.984 74.8032 31.376C74.0032 30.768 73.6032 29.744 73.6032 28.304C73.6032 27.44 73.7952 26.512 74.1792 25.52C74.5632 24.496 75.0752 23.536 75.7152 22.64C76.3872 21.744 77.1232 21.008 77.9232 20.432C78.7232 19.856 79.5392 19.568 80.3712 19.568C80.6912 19.568 80.9632 19.68 81.1872 19.904C81.4432 20.128 81.5712 20.464 81.5712 20.912C81.5712 21.904 80.8192 23.104 79.3152 24.512C78.7072 25.088 78.0672 25.6 77.3952 26.048C76.7552 26.496 76.1632 26.816 75.6192 27.008C75.4912 27.424 75.4272 27.904 75.4272 28.448C75.4272 29.184 75.6032 29.856 75.9552 30.464C76.3072 31.072 76.8672 31.376 77.6352 31.376C78.5952 31.376 79.4752 31.104 80.2752 30.56C81.0752 30.016 81.8112 29.36 82.4832 28.592C83.1552 27.792 83.7472 27.056 84.2592 26.384C84.4832 26.064 84.7072 25.904 84.9312 25.904C85.0592 25.904 85.1232 25.968 85.1232 26.096C85.1232 26.16 85.1072 26.24 85.0752 26.336C85.0432 26.4 85.0112 26.464 84.9792 26.528C84.4352 27.296 83.8112 28.128 83.1072 29.024C82.4032 29.92 81.6032 30.688 80.7072 31.328C79.8112 31.968 78.7712 32.288 77.5872 32.288ZM75.9552 26.048C76.7872 25.696 77.6512 25.072 78.5472 24.176C79.6032 23.152 80.1312 22.256 80.1312 21.488C80.1312 21.104 79.9392 20.912 79.5552 20.912C79.0432 20.912 78.3392 21.648 77.4432 23.12C76.6432 24.336 76.1472 25.312 75.9552 26.048ZM90.2686 32.288C88.4446 32.288 87.5326 31.136 87.5326 28.832C87.5326 27.808 87.6926 26.816 88.0126 25.856C88.3646 24.896 88.7646 24.016 89.2126 23.216C88.0926 24.208 86.9086 25.44 85.6606 26.912C84.4446 28.352 83.2446 29.968 82.0606 31.76C81.8686 32.048 81.7246 32.192 81.6286 32.192C81.3406 32.192 81.1966 31.904 81.1966 31.328C81.1966 31.2 81.2286 31.072 81.2926 30.944C81.6446 30.08 81.9966 29.088 82.3486 27.968C82.7006 26.816 83.0526 25.472 83.4046 23.936C83.4686 23.616 83.5326 23.296 83.5966 22.976C83.6606 22.656 83.7566 22.24 83.8846 21.728C83.9486 21.536 84.1726 21.312 84.5566 21.056C84.8766 20.832 85.1966 20.72 85.5166 20.72C85.7406 20.72 85.8526 20.816 85.8526 21.008C85.8526 21.168 85.6606 21.856 85.2766 23.072C84.8926 24.288 84.3326 26.032 83.5966 28.304C83.7886 28.048 84.1886 27.584 84.7966 26.912C85.4046 26.208 86.2046 25.312 87.1966 24.224L90.1726 20.96C90.3966 20.736 90.6526 20.624 90.9406 20.624C91.6766 20.624 92.0446 20.992 92.0446 21.728C92.0446 21.888 91.9806 22.08 91.8526 22.304C90.0606 25.248 89.1646 27.584 89.1646 29.312C89.1646 30.528 89.7406 31.136 90.8926 31.136C91.7246 31.136 92.6846 30.672 93.7726 29.744C94.2206 29.392 94.6046 29.008 94.9246 28.592C95.2766 28.144 95.6446 27.664 96.0286 27.152C96.7006 26.224 97.0846 25.76 97.1806 25.76C97.2766 25.76 97.3246 25.856 97.3246 26.048C97.3246 26.24 97.2286 26.512 97.0366 26.864C94.8606 30.48 92.6046 32.288 90.2686 32.288ZM99.356 33.104C97.852 33.104 96.492 32.56 95.276 31.472C94.028 30.352 93.404 29.072 93.404 27.632C93.404 26.704 93.66 26.24 94.172 26.24C94.492 26.24 94.828 26.464 95.18 26.912C95.628 26.528 96.428 25.328 97.58 23.312C98.092 22.448 98.652 21.568 99.26 20.672C99.868 19.744 100.524 18.976 101.228 18.368C101.932 17.728 102.668 17.408 103.436 17.408C104.044 17.408 104.556 17.552 104.972 17.84C105.452 18.128 105.692 18.48 105.692 18.896C105.692 19.152 105.324 19.28 104.588 19.28C103.884 19.28 103.212 19.504 102.572 19.952C101.964 20.432 101.66 21.024 101.66 21.728C101.66 21.984 101.708 22.256 101.804 22.544L103.004 25.664C103.26 26.272 103.42 26.864 103.484 27.44C103.58 27.984 103.628 28.48 103.628 28.928C105.484 28.64 107.068 27.696 108.38 26.096C108.444 26 108.524 25.952 108.62 25.952C108.812 25.952 108.908 26.08 108.908 26.336C108.908 26.4 108.892 26.464 108.86 26.528C108.86 26.592 108.844 26.656 108.812 26.72C107.756 28.384 105.98 29.456 103.484 29.936C103.388 30.448 103.212 30.896 102.956 31.28C102.7 31.664 102.396 31.984 102.044 32.24C101.244 32.816 100.348 33.104 99.356 33.104ZM101.948 29.168V28.688C101.948 28.336 101.868 27.856 101.708 27.248C101.58 26.64 101.372 25.856 101.084 24.896C100.796 23.936 100.572 23.072 100.412 22.304C100.284 21.504 100.236 20.992 100.268 20.768C99.436 22.112 98.604 23.392 97.772 24.608C96.972 25.792 96.252 26.752 95.612 27.488C96.604 27.968 97.66 28.352 98.78 28.64C99.9 28.928 100.956 29.104 101.948 29.168ZM98.732 31.76C99.372 31.76 99.996 31.648 100.604 31.424C101.244 31.168 101.676 30.72 101.9 30.08C100.46 30.08 99.116 29.936 97.868 29.648C96.652 29.36 95.676 28.912 94.94 28.304L94.652 28.592C95.516 30.704 96.876 31.76 98.732 31.76ZM110.192 32.288C109.136 32.288 108.208 31.984 107.408 31.376C106.608 30.768 106.208 29.744 106.208 28.304C106.208 27.44 106.4 26.512 106.784 25.52C107.168 24.496 107.68 23.536 108.32 22.64C108.992 21.744 109.728 21.008 110.528 20.432C111.328 19.856 112.144 19.568 112.976 19.568C113.296 19.568 113.568 19.68 113.792 19.904C114.048 20.128 114.176 20.464 114.176 20.912C114.176 21.904 113.424 23.104 111.92 24.512C111.312 25.088 110.672 25.6 110 26.048C109.36 26.496 108.768 26.816 108.224 27.008C108.096 27.424 108.032 27.904 108.032 28.448C108.032 29.184 108.208 29.856 108.56 30.464C108.912 31.072 109.472 31.376 110.24 31.376C111.2 31.376 112.08 31.104 112.88 30.56C113.68 30.016 114.416 29.36 115.088 28.592C115.76 27.792 116.352 27.056 116.864 26.384C117.088 26.064 117.312 25.904 117.536 25.904C117.664 25.904 117.728 25.968 117.728 26.096C117.728 26.16 117.712 26.24 117.68 26.336C117.648 26.4 117.616 26.464 117.584 26.528C117.04 27.296 116.416 28.128 115.712 29.024C115.008 29.92 114.208 30.688 113.312 31.328C112.416 31.968 111.376 32.288 110.192 32.288ZM108.56 26.048C109.392 25.696 110.256 25.072 111.152 24.176C112.208 23.152 112.736 22.256 112.736 21.488C112.736 21.104 112.544 20.912 112.16 20.912C111.648 20.912 110.944 21.648 110.048 23.12C109.248 24.336 108.752 25.312 108.56 26.048ZM133.263 34.304C131.695 34.304 130.911 33.312 130.911 31.328C130.911 28.928 132.015 25.28 134.223 20.384C135.023 18.592 135.871 16.832 136.767 15.104C137.663 13.376 138.607 11.68 139.599 10.016L132.399 12.08C130.959 12.496 129.647 12.784 128.463 12.944C127.279 13.104 126.175 13.184 125.151 13.184C122.239 13.184 120.783 12.432 120.783 10.928C120.783 10.48 120.943 10 121.263 9.488C122.191 8.08 123.839 7.008 126.207 6.272C128.127 5.664 130.127 5.36 132.207 5.36C134.095 5.36 135.471 5.488 136.335 5.744C136.751 5.872 136.959 6.08 136.959 6.368C136.959 6.624 136.831 6.752 136.575 6.752H136.431C135.119 6.752 134.127 6.688 133.455 6.56C132.783 6.432 132.415 6.368 132.351 6.368C130.719 6.368 129.039 6.592 127.311 7.04C125.135 7.616 123.663 8.384 122.895 9.344C122.575 9.696 122.415 10.016 122.415 10.304C122.415 11.104 123.391 11.504 125.343 11.504C126.271 11.504 127.375 11.408 128.655 11.216C129.967 10.992 131.423 10.672 133.023 10.256C134.175 9.936 135.151 9.68 135.951 9.488C136.783 9.264 137.567 9.056 138.303 8.864C139.039 8.64 139.855 8.4 140.751 8.144C140.783 8.08 140.895 7.904 141.087 7.616C141.279 7.296 141.471 7.024 141.663 6.8C142.111 6.32 142.879 6.08 143.967 6.08C144.383 6.08 144.591 6.16 144.591 6.32C144.591 6.384 144.319 6.784 143.775 7.52C144.767 7.36 145.711 7.232 146.607 7.136C147.535 7.04 148.415 6.992 149.247 6.992C151.007 6.992 152.783 7.456 154.575 8.384C156.655 9.504 157.695 10.832 157.695 12.368C157.695 12.88 157.535 13.136 157.215 13.136C157.055 13.136 156.943 12.992 156.879 12.704C156.783 12.192 156.655 11.776 156.495 11.456C156.239 10.976 155.839 10.544 155.295 10.16C154.751 9.744 154.127 9.408 153.423 9.152C152.143 8.672 150.847 8.432 149.535 8.432C147.487 8.432 145.135 8.72 142.479 9.296C140.207 12.528 138.127 16.048 136.239 19.856C133.903 24.56 132.735 28.432 132.735 31.472C132.735 32.72 132.943 33.344 133.359 33.344C133.615 33.344 134.015 33.168 134.559 32.816C135.135 32.432 135.423 32.24 135.423 32.24C135.711 32.24 135.855 32.384 135.855 32.672C135.855 33.024 135.535 33.376 134.895 33.728C134.223 34.112 133.679 34.304 133.263 34.304ZM146.499 32.288C145.443 32.288 144.515 31.984 143.715 31.376C142.915 30.768 142.515 29.744 142.515 28.304C142.515 27.44 142.707 26.512 143.091 25.52C143.475 24.496 143.987 23.536 144.627 22.64C145.299 21.744 146.035 21.008 146.835 20.432C147.635 19.856 148.451 19.568 149.283 19.568C149.603 19.568 149.875 19.68 150.099 19.904C150.355 20.128 150.483 20.464 150.483 20.912C150.483 21.904 149.731 23.104 148.227 24.512C147.619 25.088 146.979 25.6 146.307 26.048C145.667 26.496 145.075 26.816 144.531 27.008C144.403 27.424 144.339 27.904 144.339 28.448C144.339 29.184 144.515 29.856 144.867 30.464C145.219 31.072 145.779 31.376 146.547 31.376C147.507 31.376 148.387 31.104 149.187 30.56C149.987 30.016 150.723 29.36 151.395 28.592C152.067 27.792 152.659 27.056 153.171 26.384C153.395 26.064 153.619 25.904 153.843 25.904C153.971 25.904 154.035 25.968 154.035 26.096C154.035 26.16 154.019 26.24 153.987 26.336C153.955 26.4 153.923 26.464 153.891 26.528C153.347 27.296 152.723 28.128 152.019 29.024C151.315 29.92 150.515 30.688 149.619 31.328C148.723 31.968 147.683 32.288 146.499 32.288ZM144.867 26.048C145.699 25.696 146.563 25.072 147.459 24.176C148.515 23.152 149.043 22.256 149.043 21.488C149.043 21.104 148.851 20.912 148.467 20.912C147.955 20.912 147.251 21.648 146.355 23.12C145.555 24.336 145.059 25.312 144.867 26.048ZM152.124 32.144C151.132 32.144 150.636 31.6 150.636 30.512C150.636 28.88 151.436 26.88 153.036 24.512C154.604 22.176 156.156 20.736 157.692 20.192C157.98 20.096 158.252 20.016 158.508 19.952C158.764 19.888 159.02 19.856 159.276 19.856C160.428 19.856 161.26 20.256 161.772 21.056C161.868 21.184 161.916 21.296 161.916 21.392C161.916 21.456 161.804 21.504 161.58 21.536C161.388 21.568 161.228 21.68 161.1 21.872C160.332 23.12 159.948 24.992 159.948 27.488C159.948 29.792 160.444 30.944 161.436 30.944C162.108 30.944 163.084 30.24 164.364 28.832C164.556 28.64 164.828 28.304 165.18 27.824C165.532 27.344 165.884 26.864 166.236 26.384C166.588 25.872 166.828 25.536 166.956 25.376C167.052 25.28 167.132 25.232 167.196 25.232C167.324 25.232 167.388 25.344 167.388 25.568C167.388 25.728 167.292 25.952 167.1 26.24C166.396 27.36 165.596 28.448 164.7 29.504C163.804 30.56 163.036 31.248 162.396 31.568C161.82 31.856 161.244 32 160.668 32C158.716 32 157.74 30.624 157.74 27.872C157.74 27.648 157.74 27.424 157.74 27.2C157.772 26.944 157.804 26.688 157.836 26.432C155.66 30.24 153.756 32.144 152.124 32.144ZM152.94 30.704C153.292 30.704 153.708 30.512 154.188 30.128C154.668 29.712 155.164 29.168 155.676 28.496C156.444 27.472 157.164 26.384 157.836 25.232C158.508 24.08 159.1 22.832 159.612 21.488C159.516 21.456 159.372 21.44 159.18 21.44C157.868 21.44 156.54 22.256 155.196 23.888C153.244 26.224 152.268 28.16 152.268 29.696C152.268 30.368 152.492 30.704 152.94 30.704ZM163.981 32.192C163.725 32.192 163.597 31.904 163.597 31.328C163.597 31.136 163.613 31.008 163.645 30.944C163.997 30.08 164.365 29.04 164.749 27.824C165.133 26.608 165.517 25.216 165.901 23.648C165.933 23.424 165.965 23.2 165.997 22.976C166.061 22.752 166.157 22.336 166.285 21.728C166.317 21.664 166.381 21.568 166.477 21.44C166.573 21.312 166.717 21.184 166.909 21.056C167.261 20.832 167.581 20.72 167.869 20.72C168.093 20.72 168.205 20.816 168.205 21.008C168.205 21.168 168.013 21.856 167.629 23.072C167.245 24.288 166.685 26.032 165.949 28.304L171.229 21.248C171.677 20.672 172.173 20.384 172.717 20.384C173.229 20.384 173.485 20.672 173.485 21.248C173.485 21.472 173.453 21.792 173.389 22.208C173.357 22.592 173.277 23.088 173.149 23.696C173.021 24.304 172.893 25.072 172.765 26C172.669 26.896 172.541 27.936 172.381 29.12C172.829 28.48 173.389 27.696 174.061 26.768C174.765 25.808 175.597 24.72 176.557 23.504C177.037 22.896 177.549 22.592 178.093 22.592C178.573 22.592 178.813 22.896 178.813 23.504C178.813 23.76 178.781 24.08 178.717 24.464C178.685 24.816 178.637 25.248 178.573 25.76C178.509 26.272 178.445 26.72 178.381 27.104C178.349 27.488 178.333 27.808 178.333 28.064C178.333 29.728 178.765 30.56 179.629 30.56C180.877 30.56 182.429 29.216 184.285 26.528C184.509 26.208 184.669 26.048 184.765 26.048C184.925 26.048 185.005 26.192 185.005 26.48C185.005 26.544 184.973 26.624 184.909 26.72C184.877 26.784 184.877 26.8 184.909 26.768C184.525 27.28 184.125 27.792 183.709 28.304C183.293 28.816 182.797 29.344 182.221 29.888C180.909 31.168 179.757 31.808 178.765 31.808C177.261 31.808 176.509 30.144 176.509 26.816C176.509 26.56 176.509 26.288 176.509 26C176.509 25.712 176.525 25.408 176.557 25.088C175.981 25.6 175.341 26.352 174.637 27.344C173.965 28.304 173.309 29.392 172.669 30.608C172.189 31.504 171.661 31.952 171.085 31.952C170.893 31.952 170.749 31.888 170.653 31.76C170.557 31.408 170.509 30.96 170.509 30.416C170.509 30 170.557 29.36 170.653 28.496C170.749 27.6 170.909 26.528 171.133 25.28C171.229 24.704 171.309 24.208 171.373 23.792C171.437 23.376 171.469 23.088 171.469 22.928C171.469 22.672 171.421 22.544 171.325 22.544C171.069 22.768 170.685 23.184 170.173 23.792C169.693 24.368 169.197 24.992 168.685 25.664C168.045 26.528 167.357 27.472 166.621 28.496C165.917 29.488 165.197 30.576 164.461 31.76C164.269 32.048 164.109 32.192 163.981 32.192Z" fill="black"/>
</svg>