<svg xmlns="http://www.w3.org/2000/svg" width="111" height="27" viewBox="0 0 111 27" fill="none">
  <g clip-path="url(#clip0_1693_12113)">
    <path d="M6.71285 7.55046C6.76191 7.80545 6.78641 8.05189 6.78641 8.28989C6.78641 8.51084 6.76191 8.74879 6.71285 9.00378L3.60002 8.97829V17.5451C3.60002 18.259 3.91866 18.6159 4.55592 18.6159H6.41872C6.53311 18.9049 6.59029 19.1939 6.59029 19.4828C6.59029 19.7718 6.57396 19.9502 6.54128 20.0182C5.78965 20.1202 5.01347 20.1712 4.21279 20.1712C2.62777 20.1712 1.83527 19.4658 1.83527 18.055V8.97829L0.0950159 9.00378C0.0459949 8.74879 0.0214844 8.51084 0.0214844 8.28989C0.0214844 8.05189 0.0459949 7.80545 0.0950159 7.55046L1.83527 7.57595V4.89885C1.83527 4.43991 1.90063 4.11696 2.03135 3.92998C2.16207 3.72601 2.41535 3.62402 2.79117 3.62402H3.45296L3.60002 3.777V7.60148L6.71285 7.55046Z" fill="black"/>
    <path d="M18.5728 7.67608L15.2149 19.6339C14.5939 21.8266 13.9321 23.3734 13.2295 24.2743C12.5269 25.1751 11.4729 25.6256 10.0676 25.6256C9.34868 25.6256 8.6869 25.5151 8.08229 25.2941C8.03328 24.8182 8.16401 24.3592 8.47444 23.9173C8.98099 24.1043 9.52026 24.1977 10.0921 24.1977C10.9582 24.1977 11.62 23.8918 12.0775 23.2799C12.535 22.668 12.9517 21.7161 13.3276 20.4243L13.4011 20.1693C12.9762 20.1353 12.6494 20.0333 12.4207 19.8634C12.2082 19.6934 12.0285 19.379 11.8814 18.92L8.44994 7.70157C8.95649 7.48062 9.31597 7.37012 9.52842 7.37012C10.0023 7.37012 10.3209 7.66759 10.4843 8.26248L12.4207 14.6621C12.486 14.8661 12.8619 16.1919 13.5481 18.6395C13.5808 18.7585 13.6625 18.818 13.7932 18.818L16.7835 7.54859C16.996 7.48062 17.2737 7.44663 17.6169 7.44663C17.9764 7.44663 18.2787 7.49761 18.5238 7.59962L18.5728 7.67608Z" fill="black"/>
    <path d="M23.2853 19.2265V24.2748C23.2853 24.7337 23.22 25.0567 23.0893 25.2436C22.9585 25.4476 22.6971 25.5496 22.3049 25.5496H21.6431L21.4961 25.3966V7.62565L21.6431 7.47266H22.2804C22.6726 7.47266 22.934 7.58312 23.0647 7.80412C23.2118 8.00808 23.2853 8.34804 23.2853 8.82398V8.95143C24.2658 7.81262 25.4341 7.24316 26.7903 7.24316C28.1793 7.24316 29.2251 7.82961 29.9277 9.00246C30.6303 10.1583 30.9817 11.7646 30.9817 13.8213C30.9817 14.8241 30.8509 15.725 30.5895 16.5239C30.3444 17.3228 30.0094 18.0027 29.5845 18.5636C29.1761 19.1075 28.7022 19.5324 28.163 19.8384C27.6237 20.1274 27.0681 20.2719 26.4962 20.2719C25.3687 20.2719 24.2984 19.9234 23.2853 19.2265ZM23.2853 10.9402V17.4928C24.2821 18.2576 25.2217 18.6401 26.104 18.6401C26.9865 18.6401 27.7136 18.2321 28.2855 17.4162C28.8574 16.6004 29.1434 15.368 29.1434 13.7193C29.1434 12.9034 29.0698 12.198 28.9228 11.6031C28.792 10.9912 28.6123 10.4897 28.3835 10.0988C28.1548 9.69086 27.8852 9.39339 27.5747 9.20642C27.2805 9.00246 26.9619 8.90045 26.6188 8.90045C25.9651 8.90045 25.3442 9.07892 24.756 9.43587C24.1677 9.79282 23.6775 10.2943 23.2853 10.9402Z" fill="black"/>
    <path d="M43.3909 14.3822H35.7927C35.8744 17.2718 36.9283 18.7166 38.9545 18.7166C40.0657 18.7166 41.2504 18.3596 42.5085 17.6457C42.8681 17.9856 43.0886 18.4191 43.1704 18.946C41.8305 19.8979 40.3271 20.3738 38.6604 20.3738C37.8107 20.3738 37.0836 20.2123 36.479 19.8894C35.8744 19.5495 35.376 19.0905 34.9838 18.5126C34.608 17.9177 34.3302 17.2208 34.1504 16.4219C33.9707 15.623 33.8809 14.7476 33.8809 13.7957C33.8809 12.8269 33.987 11.943 34.1995 11.1441C34.4282 10.3452 34.7551 9.65683 35.1799 9.07892C35.6048 8.50102 36.1113 8.05057 36.6996 7.72761C37.3041 7.40464 37.9904 7.24316 38.7584 7.24316C39.5101 7.24316 40.1801 7.38765 40.7683 7.67663C41.3729 7.94861 41.8713 8.33104 42.2635 8.82398C42.672 9.29988 42.9824 9.87783 43.1949 10.5577C43.4073 11.2206 43.5135 11.9345 43.5135 12.6994C43.5135 13.0054 43.4971 13.3028 43.4645 13.5918C43.4481 13.8638 43.4236 14.1272 43.3909 14.3822ZM35.7927 12.9289H41.6752V12.5974C41.6752 11.4246 41.4383 10.4812 40.9644 9.76733C40.4905 9.05343 39.7797 8.69649 38.832 8.69649C37.9006 8.69649 37.1734 9.07892 36.6505 9.84384C36.144 10.6087 35.858 11.6371 35.7927 12.9289Z" fill="black"/>
    <path d="M45.916 19.1733C45.932 18.7994 46.0301 18.3914 46.2099 17.9495C46.4061 17.4906 46.6267 17.1336 46.8718 16.8786C48.1627 17.6095 49.2982 17.975 50.2788 17.975C50.8177 17.975 51.251 17.8645 51.5777 17.6436C51.9208 17.4225 52.0926 17.1251 52.0926 16.7511C52.0926 16.1562 51.6514 15.6803 50.7689 15.3233L49.3963 14.7879C47.3374 14.0061 46.308 12.7567 46.308 11.0399C46.308 10.4281 46.4141 9.88414 46.6267 9.40819C46.8553 8.91525 47.1656 8.49883 47.5581 8.15888C47.9665 7.80193 48.4485 7.52995 49.0043 7.34298C49.5597 7.15601 50.1807 7.0625 50.867 7.0625C51.1773 7.0625 51.5204 7.08804 51.8964 7.13901C52.2884 7.18999 52.6808 7.26651 53.0728 7.36847C53.4652 7.45348 53.8408 7.55544 54.2003 7.67444C54.5599 7.79343 54.8702 7.92088 55.1317 8.05687C55.1317 8.48184 55.05 8.92375 54.8866 9.3827C54.7233 9.84165 54.5026 10.1816 54.2247 10.4026C52.9338 9.80762 51.8147 9.5102 50.867 9.5102C50.4422 9.5102 50.107 9.62065 49.862 9.84165C49.6169 10.0456 49.4944 10.3176 49.4944 10.6575C49.4944 11.1844 49.9028 11.6009 50.72 11.9068L52.2151 12.4678C53.2934 12.8587 54.0942 13.3941 54.6172 14.074C55.1401 14.7539 55.4016 15.5443 55.4016 16.4452C55.4016 17.652 54.9683 18.6209 54.1022 19.3518C53.2361 20.0657 51.9945 20.4227 50.3769 20.4227C48.7917 20.4227 47.3046 20.0062 45.916 19.1733Z" fill="black"/>
    <path d="M67.3955 14.8134H60.6307C60.68 15.7483 60.8842 16.4877 61.2433 17.0316C61.6193 17.5585 62.2648 17.822 63.1797 17.822C64.1274 17.822 65.2142 17.533 66.4398 16.9551C66.9135 17.465 67.2158 18.1364 67.3467 18.9693C66.0394 19.9382 64.4706 20.4227 62.6408 20.4227C60.9086 20.4227 59.5933 19.8702 58.6944 18.7654C57.8119 17.6436 57.3711 15.9863 57.3711 13.7936C57.3711 12.7737 57.4852 11.8558 57.7142 11.0399C57.9429 10.2071 58.2776 9.5017 58.7188 8.92375C59.1601 8.32885 59.6994 7.8699 60.3364 7.54694C60.9739 7.22398 61.701 7.0625 62.5183 7.0625C63.3515 7.0625 64.0866 7.19849 64.7241 7.47047C65.3615 7.72541 65.9004 8.09935 66.3417 8.59229C66.7829 9.06824 67.1097 9.63764 67.3223 10.3006C67.5509 10.9635 67.6654 11.6859 67.6654 12.4678C67.6654 12.8927 67.6406 13.3006 67.5918 13.6916C67.5429 14.0655 67.4772 14.4395 67.3955 14.8134ZM62.6652 9.45917C61.3907 9.45917 60.7044 10.462 60.6063 12.4678H64.6748V12.1618C64.6748 11.3459 64.5114 10.6915 64.1847 10.1986C63.858 9.70566 63.3515 9.45917 62.6652 9.45917Z" fill="black"/>
    <path d="M80.8271 11.5532V17.1114C80.8271 18.1993 80.9984 19.0067 81.3416 19.5336C80.8187 20.0096 80.1896 20.2475 79.4545 20.2475C78.7518 20.2475 78.2697 20.0861 78.0082 19.7631C77.7468 19.4232 77.6158 18.8962 77.6158 18.1823V12.2416C77.6158 11.4768 77.5262 10.9413 77.3464 10.6354C77.1666 10.3294 76.8319 10.1764 76.3414 10.1764C75.4753 10.1764 74.6665 10.5844 73.9149 11.4003V20.0691C73.6699 20.1201 73.4084 20.154 73.1305 20.171C72.8691 20.188 72.5996 20.1965 72.3217 20.1965C72.0438 20.1965 71.7664 20.188 71.4885 20.171C71.227 20.154 70.9736 20.1201 70.7285 20.0691V7.44835L70.8755 7.26987H72.1011C73.0164 7.26987 73.5882 7.7798 73.8168 8.79962C75.0096 7.72878 76.1944 7.19336 77.3708 7.19336C78.5476 7.19336 79.4137 7.59283 79.969 8.39169C80.5408 9.17361 80.8271 10.2275 80.8271 11.5532Z" fill="black"/>
    <path d="M83.3965 19.1733C83.4125 18.7994 83.5106 18.3914 83.6904 17.9495C83.8866 17.4906 84.1072 17.1336 84.3522 16.8786C85.6431 17.6095 86.7787 17.975 87.7593 17.975C88.2982 17.975 88.7314 17.8645 89.0582 17.6436C89.4013 17.4225 89.5731 17.1251 89.5731 16.7511C89.5731 16.1562 89.1318 15.6803 88.2493 15.3233L86.8768 14.7879C84.8179 14.0061 83.7885 12.7567 83.7885 11.0399C83.7885 10.4281 83.8946 9.88414 84.1072 9.40819C84.3358 8.91525 84.6461 8.49883 85.0385 8.15888C85.4469 7.80193 85.929 7.52995 86.4848 7.34298C87.0401 7.15601 87.6612 7.0625 88.3474 7.0625C88.6577 7.0625 89.0009 7.08804 89.3769 7.13901C89.7689 7.18999 90.1613 7.26651 90.5533 7.36847C90.9457 7.45348 91.3212 7.55544 91.6808 7.67444C92.0404 7.79343 92.3507 7.92088 92.6121 8.05687C92.6121 8.48184 92.5304 8.92375 92.3671 9.3827C92.2037 9.84165 91.9831 10.1816 91.7052 10.4026C90.4143 9.80762 89.2952 9.5102 88.3474 9.5102C87.9226 9.5102 87.5875 9.62065 87.3424 9.84165C87.0974 10.0456 86.9749 10.3176 86.9749 10.6575C86.9749 11.1844 87.3833 11.6009 88.2005 11.9068L89.6956 12.4678C90.7739 12.8587 91.5747 13.3941 92.0976 14.074C92.6206 14.7539 92.882 15.5443 92.882 16.4452C92.882 17.652 92.4488 18.6209 91.5827 19.3518C90.7166 20.0657 89.475 20.4227 87.8574 20.4227C86.2722 20.4227 84.785 20.0062 83.3965 19.1733Z" fill="black"/>
    <path d="M104.878 14.8134H98.1132C98.1624 15.7483 98.3666 16.4877 98.7258 17.0316C99.1018 17.5585 99.7472 17.822 100.662 17.822C101.61 17.822 102.697 17.533 103.922 16.9551C104.396 17.465 104.698 18.1364 104.829 18.9693C103.522 19.9382 101.953 20.4227 100.123 20.4227C98.3911 20.4227 97.0757 19.8702 96.1768 18.7654C95.2943 17.6436 94.8535 15.9863 94.8535 13.7936C94.8535 12.7737 94.9676 11.8558 95.1967 11.0399C95.4253 10.2071 95.76 9.5017 96.2012 8.92375C96.6425 8.32885 97.1818 7.8699 97.8193 7.54694C98.4563 7.22398 99.1834 7.0625 100.001 7.0625C100.834 7.0625 101.569 7.19849 102.206 7.47047C102.844 7.72541 103.383 8.09935 103.824 8.59229C104.265 9.06824 104.592 9.63764 104.805 10.3006C105.033 10.9635 105.148 11.6859 105.148 12.4678C105.148 12.8927 105.123 13.3006 105.074 13.6916C105.025 14.0655 104.96 14.4395 104.878 14.8134ZM100.148 9.45917C98.8731 9.45917 98.1869 10.462 98.0888 12.4678H102.158V12.1618C102.158 11.3459 101.994 10.6915 101.667 10.1986C101.34 9.70566 100.834 9.45917 100.148 9.45917Z" fill="black"/>
    <path d="M108.68 23.6371V0.307935C108.925 0.256942 109.203 0.231445 109.513 0.231445C109.84 0.231445 110.142 0.256942 110.42 0.307935V23.6371C110.142 23.6881 109.84 23.7137 109.513 23.7137C109.203 23.7137 108.925 23.6881 108.68 23.6371Z" fill="black"/>
  </g>
  <defs>
    <clipPath id="clip0_1693_12113">
      <rect width="110.978" height="25.859" fill="white" transform="translate(0.0214844 0.231445)"/>
    </clipPath>
  </defs>
</svg>