<svg xmlns="http://www.w3.org/2000/svg" width="98" height="24" viewBox="0 0 98 24" fill="none">
  <g clip-path="url(#clip0_1661_8202)">
    <path d="M5.98228 7.13052C6.02556 7.35551 6.04718 7.57296 6.04718 7.78295C6.04718 7.97792 6.02556 8.18787 5.98228 8.41286L3.23566 8.39037V15.9493C3.23566 16.5792 3.51681 16.8941 4.0791 16.8941H5.72274C5.82368 17.1491 5.87413 17.4041 5.87413 17.659C5.87413 17.914 5.85972 18.0715 5.83089 18.1315C5.16768 18.2215 4.48282 18.2665 3.77634 18.2665C2.37779 18.2665 1.67852 17.644 1.67852 16.3992V8.39037L0.143006 8.41286C0.0997519 8.18787 0.078125 7.97792 0.078125 7.78295C0.078125 7.57296 0.0997519 7.35551 0.143006 7.13052L1.67852 7.15301V4.79086C1.67852 4.38591 1.73619 4.10096 1.85154 3.93598C1.96688 3.756 2.19036 3.66602 2.52197 3.66602H3.1059L3.23566 3.801V7.17554L5.98228 7.13052Z" fill="white"/>
    <path d="M16.4468 7.24116L13.4839 17.7922C12.936 19.7269 12.3521 21.0917 11.7321 21.8866C11.1122 22.6815 10.1822 23.0789 8.94227 23.0789C8.30789 23.0789 7.72396 22.9814 7.19048 22.7865C7.14724 22.3665 7.26259 21.9616 7.5365 21.5717C7.98346 21.7366 8.45928 21.8191 8.96389 21.8191C9.72804 21.8191 10.312 21.5492 10.7157 21.0092C11.1194 20.4693 11.487 19.6294 11.8187 18.4896L11.8835 18.2646C11.5086 18.2346 11.2203 18.1446 11.0185 17.9946C10.831 17.8447 10.6724 17.5672 10.5427 17.1623L7.51488 7.26365C7.96184 7.06869 8.27902 6.97119 8.46649 6.97119C8.88461 6.97119 9.16577 7.23367 9.30995 7.75857L11.0185 13.4053C11.0761 13.5853 11.4078 14.7551 12.0133 16.9148C12.0421 17.0198 12.1142 17.0723 12.2296 17.0723L14.868 7.12867C15.0555 7.06869 15.3006 7.0387 15.6034 7.0387C15.9206 7.0387 16.1873 7.08369 16.4036 7.17369L16.4468 7.24116Z" fill="white"/>
    <path d="M20.6041 17.4334V21.8878C20.6041 22.2927 20.5465 22.5777 20.4311 22.7426C20.3158 22.9226 20.0851 23.0126 19.739 23.0126H19.1551L19.0254 22.8776V7.19735L19.1551 7.06236H19.7174C20.0635 7.06236 20.2941 7.15982 20.4095 7.35482C20.5393 7.53479 20.6041 7.83475 20.6041 8.2547V8.36716C21.4692 7.36232 22.5001 6.85986 23.6968 6.85986C24.9223 6.85986 25.8451 7.37732 26.465 8.41218C27.085 9.43201 27.395 10.8493 27.395 12.6641C27.395 13.5489 27.2797 14.3438 27.049 15.0487C26.8327 15.7536 26.5371 16.3536 26.1623 16.8485C25.8018 17.3284 25.3837 17.7033 24.9079 17.9733C24.4321 18.2283 23.9419 18.3558 23.4373 18.3558C22.4424 18.3558 21.498 18.0483 20.6041 17.4334ZM20.6041 10.1219V15.9036C21.4836 16.5785 22.3127 16.916 23.0912 16.916C23.8698 16.916 24.5114 16.556 25.016 15.8361C25.5207 15.1162 25.773 14.0289 25.773 12.5741C25.773 11.8542 25.7081 11.2318 25.5783 10.7069C25.463 10.1669 25.3044 9.72447 25.1026 9.37953C24.9007 9.01959 24.6628 8.75712 24.3889 8.59215C24.1293 8.41218 23.8482 8.32218 23.5454 8.32218C22.9687 8.32218 22.4208 8.47965 21.9018 8.7946C21.3827 9.10956 20.9502 9.552 20.6041 10.1219Z" fill="white"/>
    <path d="M38.3444 13.159H31.64C31.7121 15.7086 32.6421 16.9835 34.4299 16.9835C35.4103 16.9835 36.4556 16.6685 37.5658 16.0386C37.883 16.3385 38.0776 16.721 38.1497 17.1859C36.9675 18.0258 35.641 18.4457 34.1704 18.4457C33.4206 18.4457 32.779 18.3033 32.2456 18.0183C31.7121 17.7184 31.2724 17.3134 30.9263 16.8035C30.5947 16.2786 30.3496 15.6636 30.191 14.9587C30.0324 14.2538 29.9531 13.4815 29.9531 12.6416C29.9531 11.7867 30.0468 11.0068 30.2343 10.3019C30.4361 9.59698 30.7245 8.98957 31.0993 8.47965C31.4742 7.96974 31.9212 7.57228 32.4402 7.28731C32.9737 7.00235 33.5792 6.85986 34.2569 6.85986C34.9201 6.85986 35.5113 6.98735 36.0303 7.24233C36.5638 7.48231 37.0035 7.81976 37.3495 8.2547C37.71 8.67461 37.9839 9.18457 38.1714 9.78449C38.3588 10.3694 38.4525 10.9993 38.4525 11.6742C38.4525 11.9442 38.4381 12.2066 38.4092 12.4616C38.3948 12.7016 38.3732 12.934 38.3444 13.159ZM31.64 11.8767H36.8305V11.5842C36.8305 10.5494 36.6214 9.71697 36.2033 9.08707C35.7852 8.45716 35.158 8.14221 34.3217 8.14221C33.4999 8.14221 32.8583 8.47965 32.3969 9.15458C31.95 9.82947 31.6977 10.7368 31.64 11.8767Z" fill="white"/>
    <path d="M40.5723 17.3862C40.5864 17.0562 40.6729 16.6963 40.8316 16.3063C41.0047 15.9014 41.1994 15.5865 41.4156 15.3615C42.5546 16.0064 43.5565 16.3289 44.4218 16.3289C44.8973 16.3289 45.2796 16.2314 45.5679 16.0364C45.8706 15.8414 46.0222 15.579 46.0222 15.249C46.0222 14.7241 45.6329 14.3041 44.8542 13.9892L43.6431 13.5168C41.8265 12.8269 40.9181 11.7245 40.9181 10.2097C40.9181 9.6698 41.0117 9.18987 41.1994 8.76992C41.4011 8.33498 41.6749 7.96755 42.0211 7.66759C42.3815 7.35263 42.8068 7.11265 43.2972 6.94768C43.7872 6.7827 44.3352 6.7002 44.9408 6.7002C45.2146 6.7002 45.5173 6.72273 45.8491 6.76771C46.1949 6.81269 46.5412 6.8802 46.8871 6.97017C47.2333 7.04518 47.5647 7.13514 47.882 7.24014C48.1992 7.34514 48.473 7.45759 48.7037 7.57758C48.7037 7.95255 48.6316 8.34247 48.4875 8.74743C48.3434 9.15239 48.1487 9.45231 47.9035 9.64731C46.7645 9.12236 45.777 8.85993 44.9408 8.85993C44.5659 8.85993 44.2702 8.95739 44.054 9.15239C43.8378 9.33236 43.7297 9.5723 43.7297 9.87226C43.7297 10.3372 44.09 10.7047 44.8111 10.9746L46.1303 11.4696C47.0817 11.8145 47.7883 12.2869 48.2497 12.8868C48.7112 13.4868 48.9419 14.1841 48.9419 14.9791C48.9419 16.0439 48.5596 16.8988 47.7954 17.5437C47.0312 18.1736 45.9357 18.4886 44.5083 18.4886C43.1096 18.4886 41.7975 18.1211 40.5723 17.3862Z" fill="white"/>
    <path d="M59.5248 13.5392H53.5559C53.5993 14.3642 53.7795 15.0165 54.0964 15.4965C54.4281 15.9614 54.9977 16.1939 55.8049 16.1939C56.6412 16.1939 57.6 15.9389 58.6815 15.429C59.0994 15.8789 59.3662 16.4713 59.4817 17.2062C58.3282 18.0611 56.944 18.4886 55.3294 18.4886C53.8011 18.4886 52.6405 18.0011 51.8473 17.0263C51.0686 16.0364 50.6797 14.5741 50.6797 12.6394C50.6797 11.7395 50.7803 10.9296 50.9825 10.2097C51.1842 9.47484 51.4795 8.85243 51.8689 8.34247C52.2582 7.81757 52.7341 7.41261 53.2962 7.12764C53.8586 6.84268 54.5002 6.7002 55.2213 6.7002C55.9565 6.7002 56.6051 6.82019 57.1676 7.06017C57.7301 7.28512 58.2056 7.61507 58.5949 8.05001C58.9843 8.46996 59.2725 8.97238 59.4602 9.5573C59.6619 10.1422 59.7629 10.7796 59.7629 11.4696C59.7629 11.8445 59.741 12.2044 59.6979 12.5494C59.6548 12.8793 59.5969 13.2093 59.5248 13.5392ZM55.351 8.8149C54.2264 8.8149 53.6209 9.69979 53.5343 11.4696H57.1241V11.1996C57.1241 10.4797 56.98 9.90225 56.6917 9.46734C56.4034 9.0324 55.9565 8.8149 55.351 8.8149Z" fill="white"/>
    <path d="M71.3773 10.6624V15.5667C71.3773 16.5266 71.5285 17.239 71.8313 17.7039C71.3699 18.1238 70.8148 18.3338 70.1662 18.3338C69.5462 18.3338 69.1208 18.1913 68.8901 17.9064C68.6594 17.6064 68.5438 17.1415 68.5438 16.5116V11.2698C68.5438 10.5949 68.4647 10.1225 68.3061 9.85251C68.1475 9.58253 67.8521 9.44755 67.4193 9.44755C66.6551 9.44755 65.9415 9.80752 65.2783 10.5274V18.1764C65.0621 18.2213 64.8314 18.2513 64.5862 18.2663C64.3555 18.2813 64.1178 18.2888 63.8726 18.2888C63.6274 18.2888 63.3826 18.2813 63.1374 18.2663C62.9067 18.2513 62.683 18.2213 62.4668 18.1764V7.04042L62.5964 6.88294H63.6779C64.4856 6.88294 64.9901 7.33288 65.1918 8.23272C66.2442 7.28786 67.2897 6.81543 68.3276 6.81543C69.366 6.81543 70.1302 7.16791 70.6202 7.87278C71.1247 8.56271 71.3773 9.49257 71.3773 10.6624Z" fill="white"/>
    <path d="M73.6445 17.3862C73.6586 17.0562 73.7452 16.6963 73.9038 16.3063C74.077 15.9014 74.2716 15.5865 74.4878 15.3615C75.6269 16.0064 76.6288 16.3289 77.494 16.3289C77.9696 16.3289 78.3518 16.2314 78.6401 16.0364C78.9429 15.8414 79.0945 15.579 79.0945 15.249C79.0945 14.7241 78.7051 14.3041 77.9265 13.9892L76.7154 13.5168C74.8987 12.8269 73.9904 11.7245 73.9904 10.2097C73.9904 9.6698 74.084 9.18987 74.2716 8.76992C74.4733 8.33498 74.7471 7.96755 75.0934 7.66759C75.4537 7.35263 75.8791 7.11265 76.3695 6.94768C76.8595 6.7827 77.4075 6.7002 78.013 6.7002C78.2868 6.7002 78.5896 6.72273 78.9214 6.76771C79.2672 6.81269 79.6135 6.8802 79.9593 6.97017C80.3056 7.04518 80.6369 7.13514 80.9542 7.24014C81.2715 7.34514 81.5453 7.45759 81.776 7.57758C81.776 7.95255 81.7039 8.34247 81.5598 8.74743C81.4156 9.15239 81.221 9.45231 80.9758 9.64731C79.8367 9.12236 78.8493 8.85993 78.013 8.85993C77.6382 8.85993 77.3425 8.95739 77.1263 9.15239C76.91 9.33236 76.8019 9.5723 76.8019 9.87226C76.8019 10.3372 77.1623 10.7047 77.8834 10.9746L79.2026 11.4696C80.154 11.8145 80.8606 12.2869 81.322 12.8868C81.7834 13.4868 82.0141 14.1841 82.0141 14.9791C82.0141 16.0439 81.6318 16.8988 80.8677 17.5437C80.1035 18.1736 79.0079 18.4886 77.5806 18.4886C76.1819 18.4886 74.8697 18.1211 73.6445 17.3862Z" fill="white"/>
    <path d="M92.599 13.5392H86.6301C86.6736 14.3642 86.8537 15.0165 87.1706 15.4965C87.5024 15.9614 88.0719 16.1939 88.8791 16.1939C89.7154 16.1939 90.6743 15.9389 91.7557 15.429C92.1736 15.8789 92.4404 16.4713 92.5559 17.2062C91.4024 18.0611 90.0182 18.4886 88.4036 18.4886C86.8753 18.4886 85.7147 18.0011 84.9215 17.0263C84.1429 16.0364 83.7539 14.5741 83.7539 12.6394C83.7539 11.7395 83.8546 10.9296 84.0567 10.2097C84.2584 9.47484 84.5537 8.85243 84.9431 8.34247C85.3324 7.81757 85.8083 7.41261 86.3708 7.12764C86.9328 6.84268 87.5744 6.7002 88.2955 6.7002C89.0307 6.7002 89.6794 6.82019 90.2418 7.06017C90.8043 7.28512 91.2798 7.61507 91.6691 8.05001C92.0585 8.46996 92.3468 8.97238 92.5344 9.5573C92.7361 10.1422 92.8372 10.7796 92.8372 11.4696C92.8372 11.8445 92.8156 12.2044 92.7721 12.5494C92.729 12.8793 92.6711 13.2093 92.599 13.5392ZM88.4252 8.8149C87.3006 8.8149 86.6951 9.69979 86.6085 11.4696H90.1987V11.1996C90.1987 10.4797 90.0542 9.90225 89.7659 9.46734C89.4776 9.0324 89.0307 8.8149 88.4252 8.8149Z" fill="white"/>
    <path d="M95.9531 21.3249V0.740342C96.1693 0.695349 96.4145 0.672852 96.6887 0.672852C96.977 0.672852 97.2437 0.695349 97.4885 0.740342V21.3249C97.2437 21.3699 96.977 21.3924 96.6887 21.3924C96.4145 21.3924 96.1693 21.3699 95.9531 21.3249Z" fill="white"/>
  </g>
  <defs>
    <clipPath id="clip0_1661_8202">
      <rect width="97.922" height="22.8168" fill="white" transform="translate(0.078125 0.672852)"/>
    </clipPath>
  </defs>
</svg>