<svg xmlns="http://www.w3.org/2000/svg" width="140" height="35" viewBox="0 0 140 35">
  <path fill="#E5422B" d="M48.4829545 20.7215909C46.1761364 20.7215909 44.9034091 19.25 45.2215909 17.1420455 45.5795455 14.9943182 47.3295455 13.5625 49.5965909 13.5625 50.7897727 13.5625 51.8636364 14.1193182 52.5 14.9545455L54.7272727 13.125C53.5340909 11.7727273 51.8238636 11.0965909 49.9943182 11.0965909 46.2556818 11.0965909 42.9943182 13.6022727 42.4375 17.1420455 41.8806818 20.7215909 44.2670455 23.1875 48.0454545 23.1875 49.9545455 23.1875 51.8636364 22.3920455 53.5340909 21.0795455L51.9431818 19.25C50.7897727 20.2840909 49.5965909 20.7215909 48.4829545 20.7215909M63.4375 11.2159091C63.4375 11.2159091 62.9602273 11.1363636 62.9204545 11.1363636 62.4034091 11.0568182 61.8465909 11.0965909 61.3295455 11.1363636 60.8522727 11.1761364 60.375 11.2556818 59.8977273 11.4147727 59.5 11.5340909 59.0625 11.6931818 58.7045455 11.9318182L58.7840909 11.375 56.0795455 11.375 54.25 22.9090909 56.9545455 22.9090909 58.0284091 16.1875C58.0681818 15.7897727 58.2272727 15.4318182 58.4261364 15.1136364 58.625 14.7954545 58.9034091 14.5170455 59.2215909 14.3181818 59.5397727 14.0795455 59.8579545 13.9204545 60.2159091 13.8011364 60.5738636 13.6818182 60.9318182 13.6022727 61.3295455 13.5625 61.8465909 13.5227273 62.4034091 13.5625 62.9204545 13.6818182 62.9204545 13.6818182 62.9602273 13.6818182 62.9602273 13.6818182 63.0397727 13.6818182 63.4375 11.2159091 63.4375 11.2159091M72.9034091 12.0909091C72.1477273 11.4545455 70.9943182 11.0965909 69.6420455 11.0965909 66.2613636 11.0965909 63.1988636 13.5227273 62.6022727 17.1022727 62.0454545 20.6818182 64.3920455 23.1079545 67.6534091 23.1079545 69.125 23.1079545 70.3579545 22.9090909 71.3920455 22.1931818L71.3125 22.8295455 73.7784091 22.8295455 75.5681818 11.375 73.0227273 11.375 72.9034091 12.0909091zM72.3465909 17.1022727L72.3465909 17.1022727C71.9886364 19.2897727 70.3579545 20.8011364 68.25 20.8011364 66.1022727 20.8011364 64.8693182 19.2102273 65.2272727 17.0625 65.5852273 14.9147727 67.2954545 13.4034091 69.4034091 13.4034091 71.5113636 13.4431818 72.6647727 14.9147727 72.3465909 17.1022727L72.3465909 17.1022727zM88.0568182 11.375L88.5738636 8.11363636 85.4715909 10.3409091 85.3125 11.4147727 81.8125 11.4147727 82.1704545 9.22727273C82.3693182 8.19318182 83.4829545 8.23295455 83.4829545 8.23295455L84.7954545 8.23295455 85.1931818 5.84659091 83.6818182 5.84659091 83.3238636 5.84659091C79.625 5.84659091 79.5056818 8.71022727 79.5056818 8.71022727L79.2670455 10.0625 79.0681818 11.4147727 78.8295455 11.4147727 75.8068182 13.8011364 78.6704545 13.8011364 76.8409091 25.4545455 79.625 25.4545455 81.4545455 13.7613636 84.9545455 13.7613636 83.5227273 22.9090909 86.2670455 22.9090909 87.6988636 13.7613636 91.1193182 13.7613636 91.5170455 11.375 88.0568182 11.375zM95.4147727 17.1420455C95.9715909 13.6022727 99.1931818 11.0965909 102.971591 11.0965909 104.801136 11.0965909 106.511364 11.8125 107.704545 13.125L105.477273 14.9545455C104.840909 14.1193182 103.767045 13.5625 102.573864 13.5625 100.306818 13.5625 98.5568182 15.0340909 98.1988636 17.1420455 97.8806818 19.25 99.1534091 20.7215909 101.460227 20.7215909 102.573864 20.7215909 103.767045 20.2840909 104.920455 19.25L106.511364 21.0795455C104.840909 22.4318182 102.931818 23.1875 101.022727 23.1875 97.2443182 23.1875 94.8579545 20.7215909 95.4147727 17.1420455M127.630682 15.9090909L126.556818 22.9090909 123.852273 22.9090909 124.926136 16.1079545C125.204545 14.5170455 124.329545 13.5625 122.778409 13.5625 121.147727 13.5625 119.517045 14.5568182 119.278409 16.1875L118.204545 22.9090909 115.5 22.9090909 116.573864 16.1079545C116.8125 14.5568182 115.897727 13.6022727 114.426136 13.5625 112.914773 13.6420455 111.164773 14.5965909 110.926136 16.1875L109.852273 22.9090909 107.147727 22.9090909 108.977273 11.375 111.681818 11.375 111.602273 11.9318182C112.517045 11.375 113.551136 11.1363636 114.863636 11.0965909L115.102273 11.0965909C116.772727 11.0965909 118.125 11.7727273 118.840909 12.9261364 119.954545 11.7727273 121.664773 11.0965909 123.375 11.0965909 126.318182 11.0965909 128.107955 13.0454545 127.630682 15.9090909M127.511364 21.5170455L129.181818 19.4488636C130.096591 20.1647727 131.846591 20.7215909 133.318182 20.7215909 134.670455 20.7215909 136.022727 20.4431818 136.181818 19.5284091 136.301136 18.8125 134.988636 18.5738636 133.517045 18.3352273 130.454545 17.8181818 128.903409 17.1818182 129.221591 14.875 129.698864 11.9715909 132.681818 11.1363636 135.147727 11.1363636 136.897727 11.1363636 138.727273 11.7329545 139.960227 12.5681818L138.289773 14.6363636C137.335227 14.0397727 136.102273 13.6022727 134.710227 13.6022727 133.079545 13.6022727 132.125 14.0795455 132.005682 14.8352273 131.926136 15.3522727 132.363636 15.5511364 134.272727 15.8693182 137.056818 16.3465909 139.363636 16.7840909 138.926136 19.4488636 138.568182 21.875 136.102273 23.2272727 132.880682 23.2272727 131.090909 23.1875 128.784091 22.5511364 127.511364 21.5170455M30.4261364 0L3.57954545 0C1.59090909 0 0 1.59090909 0 3.57954545L0 30.4261364C0 32.4147727 1.59090909 34.0056818 3.57954545 34.0056818L30.4261364 34.0056818C32.375 34.0056818 34.0056818 32.4147727 34.0056818 30.4261364L34.0056818 3.57954545C34.0056818 1.59090909 32.4147727 0 30.4261364 0M16.9431818 20.7215909C18.0568182 20.7215909 19.25 20.2840909 20.4034091 19.25L21.9943182 21.0795455C20.3238636 22.4318182 18.4147727 23.1875 16.5056818 23.1875 12.7272727 23.1875 10.3409091 20.6818182 10.8977273 17.1420455 11.4545455 13.6022727 14.6761364 11.0965909 18.4545455 11.0965909 20.2840909 11.0965909 21.9943182 11.8125 23.1875 13.125L20.9602273 14.9545455C20.3238636 14.1193182 19.25 13.5625 18.0568182 13.5625 15.7897727 13.5625 14.0397727 15.0340909 13.6818182 17.1420455 13.3636364 19.25 14.6363636 20.7215909 16.9431818 20.7215909"></path>
</svg>