<svg width="109" height="30" viewBox="0 0 109 30" fill="none" xmlns="http://www.w3.org/2000/svg" class="w-20 shrink-0 fill-blue-600"><path d="M41.9623 2.354C41.9711 2.33924 41.9799 2.32447 41.9875 2.30932L41.9906 2.30427L41.9902 2.30388C42.0376 2.20946 42.0647 2.10338 42.0647 1.99031C42.0647 1.73697 41.9302 1.51588 41.7307 1.39542C41.7284 1.39309 41.7265 1.3892 41.7242 1.38843C37.5184 -0.943713 31.9025 -0.392345 28.1841 3.49637C26.0967 5.6793 25.0306 8.48704 24.9756 11.3084H24.9722V22.3855C24.9722 22.7674 25.2772 23.0775 25.6533 23.0775H28.8316C29.2078 23.0775 29.5128 22.7674 29.5128 22.3855V11.5392H29.5147C29.5147 9.79999 30.1534 8.05924 31.44 6.71365C33.7365 4.31235 37.1266 4.13205 39.4644 5.39643C39.4716 5.4007 39.4793 5.4042 39.4865 5.40809C39.4919 5.41081 39.4972 5.41353 39.5026 5.41625H39.5034C39.592 5.45899 39.6907 5.48347 39.795 5.48347C40.0607 5.48347 40.2908 5.32805 40.4028 5.10229L41.9623 2.354Z" fill="#5237E6"></path><path d="M11.3506 0C5.08186 0 0 5.16592 0 11.5383V29.308C0 29.6899 0.304643 30 0.681149 30H3.85947C4.23559 30 4.54061 29.6899 4.54061 29.308V20.7697C6.43767 22.2183 8.7957 23.077 11.351 23.077C17.6193 23.077 22.7019 17.9111 22.7019 11.5387C22.7015 5.16592 17.6193 0 11.3506 0ZM11.3506 18.4617C7.58935 18.4617 4.54023 15.3621 4.54023 11.5383C4.54023 7.71487 7.58935 4.61532 11.3506 4.61532C15.1118 4.61532 18.1613 7.71487 18.1613 11.5383C18.1613 15.3617 15.1118 18.4617 11.3506 18.4617Z" fill="#5237E6"></path><path d="M78.2866 0C72.0183 0 66.936 5.16592 66.936 11.5383V29.308C66.936 29.6899 67.2411 30 67.6172 30H70.7955C71.1716 30 71.4767 29.6899 71.4767 29.308V20.7701C73.3737 22.2187 75.7317 23.0774 78.287 23.0774C84.5553 23.0774 89.638 17.9115 89.638 11.5391C89.6376 5.16592 84.555 0 78.2866 0ZM78.2866 18.4617C74.5254 18.4617 71.4763 15.3621 71.4763 11.5383C71.4763 7.71487 74.5254 4.61532 78.2866 4.61532C82.0475 4.61532 85.097 7.71487 85.097 11.5383C85.097 15.3617 82.0475 18.4617 78.2866 18.4617Z" fill="#5237E6"></path><path d="M64.5868 11.7691C64.5868 5.39633 59.5042 0 53.2358 0C46.9671 0 41.8853 5.16592 41.8853 11.5383C41.8853 17.9107 46.9671 23.0766 53.2358 23.0766C56.7842 23.0766 59.711 21.4237 61.5465 19.3962C61.5465 19.3962 61.5469 19.3958 61.5472 19.3954C61.5488 19.3938 61.5503 19.3923 61.5514 19.3907C61.6719 19.2656 61.746 19.095 61.746 18.9066C61.746 18.7073 61.6627 18.5281 61.53 18.4018V18.4011L61.5205 18.3933C61.5033 18.3774 61.4853 18.3626 61.4662 18.3486L59.0378 16.3394C58.9182 16.2325 58.7615 16.1668 58.5891 16.1668C58.375 16.1668 58.1843 16.2675 58.0597 16.4241C56.981 17.54 55.2755 18.4617 53.2355 18.4617C49.4742 18.4617 46.4251 15.3621 46.4251 11.5383C46.4251 7.71487 49.4742 4.61532 53.2355 4.61532C56.2001 4.61532 58.7217 6.5422 59.6567 9.23065H53.8027C53.4266 9.23065 53.1215 9.54072 53.1215 9.92306V13.1539C53.1215 13.5363 53.4266 13.8464 53.8027 13.8464H63.6778C63.6966 13.8464 63.7145 13.8448 63.7329 13.8436C63.7512 13.8452 63.7696 13.8464 63.7879 13.8464C64.0903 13.8464 64.3464 13.6459 64.4354 13.3684L64.4431 13.3696C64.4469 13.3447 64.4507 13.3206 64.4545 13.2962C64.4595 13.2725 64.4633 13.2488 64.4656 13.2243C64.5455 12.7083 64.5868 12.3399 64.5868 11.7691Z" fill="#5237E6"></path><path d="M108.923 2.30785L108.926 2.3028L108.925 2.30241C108.973 2.20799 109 2.10191 109 1.98884C109 1.7355 108.865 1.51441 108.666 1.39395C108.663 1.39162 108.662 1.38774 108.659 1.38696C104.453 -0.945178 98.8376 -0.39381 95.1192 3.4949C93.0318 5.67784 91.9657 8.48557 91.9107 11.3069H91.9072V22.384C91.9072 22.766 92.2123 23.076 92.5884 23.076H95.7667C96.1428 23.076 96.4478 22.766 96.4478 22.384V11.5377H96.4494C96.4494 9.79852 97.0881 8.05777 98.3747 6.71218C100.671 4.31088 104.061 4.13059 106.399 5.39497C106.406 5.39924 106.414 5.40273 106.421 5.40662C106.427 5.40934 106.432 5.41206 106.437 5.41478H106.438C106.527 5.45752 106.625 5.48239 106.73 5.48239C106.995 5.48239 107.225 5.32697 107.337 5.10121L108.898 2.3537C108.907 2.33816 108.915 2.32339 108.923 2.30785Z" fill="#5237E6"></path></svg>