<svg xmlns="http://www.w3.org/2000/svg" width="100%" height="100%" viewBox="0 0 131 22" fill="none">
<g clip-path="url(#clip0_3345_300)">
<path d="M34.537 11L31.1839 15.796L30.6891 16.5L27.8307 20.5865V20.592L26.8413 22H13.4179L14.4073 20.5865L17.2712 16.5H23.9774L24.4722 15.796L27.8307 11L24.4722 6.204L23.9774 5.5H18.2552L21.119 1.4135V1.408L22.1085 0H26.8413L27.8307 1.408V1.4135L30.6891 5.5L31.1839 6.204L34.537 11Z" fill="#4368E3"></path>
<path d="M14.4073 11L11.0542 15.796L10.5595 16.5L6.7117 22H0L3.84782 16.5L7.69565 11L3.84782 5.5L0 0H6.7117L10.5595 5.5L11.0542 6.204L14.4073 11Z" fill="#4368E3"></path>
<path d="M45.4978 20.6305V4.07H40.1658V1.375H53.7981V4.0755H48.4661V20.6305H45.4978Z" fill="#000"></path>
<path d="M60.2294 20.9604C58.8717 20.9604 57.6679 20.6799 56.6125 20.1189C55.5571 19.5634 54.727 18.7549 54.1224 17.7099C53.5177 16.6649 53.2154 15.4274 53.2154 13.9974V13.5849C53.2154 12.1549 53.5177 10.9229 54.1224 9.88894C54.7325 8.85494 55.5571 8.04644 56.6125 7.47994C57.6679 6.91344 58.8717 6.62744 60.2294 6.62744C61.5872 6.62744 62.7965 6.91344 63.8574 7.47994C64.9183 8.04644 65.7538 8.84944 66.364 9.88894C66.9741 10.9284 67.2709 12.1549 67.2709 13.5849V13.9974C67.2709 15.4274 66.9686 16.6649 66.364 17.7099C65.7538 18.7549 64.9293 19.5579 63.8574 20.1189C62.7965 20.6744 61.5872 20.9604 60.2294 20.9604ZM60.2294 18.4249C61.4717 18.4249 62.4886 18.0289 63.2692 17.2259C64.0498 16.4284 64.44 15.3229 64.44 13.9149V13.6674C64.44 12.2594 64.0553 11.1539 63.2857 10.3564C62.5106 9.55344 61.4992 9.15744 60.2349 9.15744C58.9706 9.15744 58.0032 9.55344 57.2226 10.3564C56.4421 11.1539 56.0518 12.2594 56.0518 13.6674V13.9149C56.0518 15.3284 56.4421 16.4284 57.2226 17.2259C58.0032 18.0234 59.0036 18.4249 60.2349 18.4249H60.2294Z" fill="#000"></path>
<path d="M76.6321 20.9604C75.2744 20.9604 74.0706 20.6799 73.0152 20.1189C71.9598 19.5634 71.1297 18.7549 70.5251 17.7099C69.9204 16.6649 69.6181 15.4274 69.6181 13.9974V13.5849C69.6181 12.1549 69.9204 10.9229 70.5251 9.88894C71.1352 8.85494 71.9598 8.04644 73.0152 7.47994C74.0706 6.91344 75.2744 6.62744 76.6321 6.62744C77.9899 6.62744 79.1992 6.91344 80.2601 7.47994C81.321 8.04644 82.1565 8.84944 82.7667 9.88894C83.3768 10.9284 83.6736 12.1549 83.6736 13.5849V13.9974C83.6736 15.4274 83.3713 16.6649 82.7667 17.7099C82.1565 18.7549 81.332 19.5579 80.2601 20.1189C79.1992 20.6744 77.9899 20.9604 76.6321 20.9604ZM76.6321 18.4249C77.8744 18.4249 78.8914 18.0289 79.6719 17.2259C80.4525 16.4284 80.8427 15.3229 80.8427 13.9149V13.6674C80.8427 12.2594 80.458 11.1539 79.6884 10.3564C78.9133 9.55344 77.9019 9.15744 76.6376 9.15744C75.3733 9.15744 74.4059 9.55344 73.6253 10.3564C72.8448 11.1539 72.4545 12.2594 72.4545 13.6674V13.9149C72.4545 15.3284 72.8448 16.4284 73.6253 17.2259C74.4059 18.0234 75.4063 18.4249 76.6376 18.4249H76.6321Z" fill="#000"></path>
<path d="M86.3121 20.6911V1.38062H89.1485V20.6911H86.3121Z" fill="#000"></path>
<path d="M98.3448 21.0155C96.4209 21.0155 94.8928 20.482 93.7494 19.4095C92.6116 18.337 92.0454 16.819 92.0454 14.861V13.2055H95.0137V14.861C95.0137 15.8895 95.2941 16.709 95.8548 17.3195C96.4099 17.9355 97.2235 18.238 98.2844 18.238C99.3453 18.238 100.071 17.9355 100.566 17.3305C101.06 16.731 101.308 15.9005 101.308 14.8555V4.07H97.24V1.375H106.425V4.0755H104.276V14.8555C104.276 16.8575 103.759 18.3755 102.72 19.4315C101.687 20.4875 100.219 21.01 98.3339 21.01L98.3448 21.0155Z" fill="#000"></path>
<path d="M113.907 21.0155C112.532 21.0155 111.328 20.724 110.306 20.1465C109.278 19.569 108.476 18.755 107.898 17.699C107.321 16.643 107.03 15.422 107.03 14.0305V13.7005C107.03 12.287 107.316 11.055 107.882 10.0045C108.448 8.94849 109.245 8.13449 110.262 7.55699C111.279 6.97949 112.461 6.68799 113.797 6.68799C115.132 6.68799 116.237 6.97949 117.221 7.55699C118.205 8.13449 118.964 8.93749 119.513 9.96599C120.063 10.9945 120.338 12.1935 120.338 13.5685V14.641H109.916C109.949 15.8345 110.356 16.7805 111.114 17.4845C111.873 18.1885 112.824 18.5405 113.961 18.5405C115.099 18.5405 115.825 18.304 116.369 17.8255C116.908 17.347 117.331 16.797 117.617 16.181L119.959 17.391C119.706 17.9025 119.326 18.447 118.843 19.0135C118.354 19.58 117.716 20.0585 116.93 20.4435C116.138 20.8285 115.132 21.021 113.901 21.021H113.907V21.0155ZM109.949 12.463H117.458C117.386 11.4345 117.012 10.6315 116.358 10.054C115.699 9.47649 114.835 9.18499 113.775 9.18499C112.714 9.18499 111.845 9.47649 111.175 10.054C110.504 10.6315 110.097 11.4345 109.954 12.463H109.949Z" fill="#000"></path>
<path d="M126.764 20.6909C125.939 20.6909 125.28 20.4434 124.801 19.9484C124.312 19.4534 124.076 18.7934 124.076 17.9684V9.08045H121.844V6.68795H124.076V4.07545L126.912 2.59595V6.68795H130.958V9.08045H126.912V17.4734C126.912 18.0234 127.165 18.2984 127.687 18.2984H130.958V20.6909H126.769H126.764Z" fill="#000"></path>
</g>
<defs>
<clipPath id="clip0_3345_300">
<rect width="100%" height="100%" fill="#000"></rect>
</clipPath>
</defs>
</svg>