<svg width="240" height="150" viewBox="0 0 240 150" fill="none" xmlns="http://www.w3.org/2000/svg">
<rect width="240" height="202.396" rx="12" fill="#F1F1F1"/>
<rect x="8.84766" y="8.8479" width="222.304" height="30.9677" rx="8" fill="white"/>
<path d="M36.87 22.1582V21.5533H41.0929V22.1582H39.3223V27.1838H38.6405V22.1582H36.87ZM43.7388 22.961V23.5108H41.5504V22.961H43.7388ZM42.1883 21.9492H42.8371V25.9742C42.8371 26.1574 42.8637 26.2949 42.9168 26.3866C42.9718 26.4764 43.0414 26.5368 43.1258 26.568C43.2119 26.5973 43.3026 26.612 43.3979 26.612C43.4694 26.612 43.5281 26.6083 43.5739 26.601C43.6197 26.5918 43.6564 26.5845 43.6839 26.579L43.8158 27.1618C43.7718 27.1783 43.7104 27.1948 43.6316 27.2113C43.5528 27.2297 43.4529 27.2388 43.332 27.2388C43.1487 27.2388 42.9691 27.1994 42.7931 27.1206C42.619 27.0418 42.4742 26.9217 42.3587 26.7605C42.2451 26.5992 42.1883 26.3957 42.1883 26.1501V21.9492ZM46.2302 27.2718C45.8489 27.2718 45.5144 27.1811 45.2267 26.9996C44.9408 26.8182 44.7172 26.5643 44.5559 26.2381C44.3964 25.9118 44.3167 25.5306 44.3167 25.0944C44.3167 24.6545 44.3964 24.2705 44.5559 23.9425C44.7172 23.6144 44.9408 23.3596 45.2267 23.1782C45.5144 22.9967 45.8489 22.906 46.2302 22.906C46.6114 22.906 46.945 22.9967 47.2309 23.1782C47.5187 23.3596 47.7423 23.6144 47.9017 23.9425C48.063 24.2705 48.1437 24.6545 48.1437 25.0944C48.1437 25.5306 48.063 25.9118 47.9017 26.2381C47.7423 26.5643 47.5187 26.8182 47.2309 26.9996C46.945 27.1811 46.6114 27.2718 46.2302 27.2718ZM46.2302 26.689C46.5198 26.689 46.758 26.6147 46.945 26.4663C47.1319 26.3178 47.2703 26.1226 47.3601 25.8807C47.4499 25.6387 47.4948 25.3767 47.4948 25.0944C47.4948 24.8121 47.4499 24.5491 47.3601 24.3054C47.2703 24.0616 47.1319 23.8646 46.945 23.7143C46.758 23.564 46.5198 23.4888 46.2302 23.4888C45.9406 23.4888 45.7023 23.564 45.5154 23.7143C45.3284 23.8646 45.19 24.0616 45.1002 24.3054C45.0104 24.5491 44.9655 24.8121 44.9655 25.0944C44.9655 25.3767 45.0104 25.6387 45.1002 25.8807C45.19 26.1226 45.3284 26.3178 45.5154 26.4663C45.7023 26.6147 45.9406 26.689 46.2302 26.689ZM48.9793 27.1838V22.961H49.6061V23.6208H49.6611C49.749 23.3953 49.8911 23.2203 50.0872 23.0957C50.2833 22.9692 50.5188 22.906 50.7938 22.906C51.0724 22.906 51.3042 22.9692 51.4893 23.0957C51.6763 23.2203 51.822 23.3953 51.9265 23.6208H51.9705C52.0786 23.4027 52.2408 23.2295 52.4571 23.1012C52.6733 22.971 52.9327 22.906 53.2351 22.906C53.6127 22.906 53.9215 23.0242 54.1616 23.2606C54.4017 23.4952 54.5218 23.8609 54.5218 24.3576V27.1838H53.8729V24.3576C53.8729 24.046 53.7877 23.8233 53.6173 23.6895C53.4468 23.5557 53.2461 23.4888 53.0152 23.4888C52.7183 23.4888 52.4882 23.5786 52.3251 23.7583C52.162 23.936 52.0804 24.1615 52.0804 24.4346V27.1838H51.4206V24.2916C51.4206 24.0515 51.3427 23.8581 51.1869 23.7115C51.0311 23.5631 50.8304 23.4888 50.5848 23.4888C50.4162 23.4888 50.2586 23.5337 50.1119 23.6235C49.9672 23.7133 49.8499 23.838 49.76 23.9974C49.6721 24.1551 49.6281 24.3374 49.6281 24.5445V27.1838H48.9793Z" fill="#353FD7"/>
<path d="M36.4961 28.7234H55.1156V29.2513H36.4961V28.7234Z" fill="#353FD7"/>
<path d="M25.2021 28.4784C27.6199 28.4784 29.58 26.5184 29.58 24.1005C29.58 21.6827 27.6199 19.7227 25.2021 19.7227C22.7843 19.7227 20.8242 21.6827 20.8242 24.1005C20.8242 26.5184 22.7843 28.4784 25.2021 28.4784Z" stroke="#353FD7" stroke-width="0.829493" stroke-linecap="round" stroke-linejoin="round"/>
<path d="M30.0408 28.9392L29.1191 28.0176" stroke="#353FD7" stroke-width="0.829493" stroke-linecap="round" stroke-linejoin="round"/>
<rect x="8.84766" y="43.1338" width="222.304" height="30.9677" rx="8" fill="white"/>
<path d="M25.3408 58.6545C25.3408 59.2483 25.2335 59.7615 25.0191 60.1941C24.8046 60.6266 24.5105 60.9602 24.1366 61.1948C23.7627 61.4294 23.3356 61.5467 22.8554 61.5467C22.3752 61.5467 21.9482 61.4294 21.5743 61.1948C21.2004 60.9602 20.9062 60.6266 20.6917 60.1941C20.4773 59.7615 20.3701 59.2483 20.3701 58.6545C20.3701 58.0606 20.4773 57.5474 20.6917 57.1149C20.9062 56.6823 21.2004 56.3488 21.5743 56.1142C21.9482 55.8796 22.3752 55.7622 22.8554 55.7622C23.3356 55.7622 23.7627 55.8796 24.1366 56.1142C24.5105 56.3488 24.8046 56.6823 25.0191 57.1149C25.2335 57.5474 25.3408 58.0606 25.3408 58.6545ZM24.6809 58.6545C24.6809 58.1669 24.5994 57.7555 24.4362 57.4201C24.275 57.0846 24.0559 56.8308 23.7792 56.6585C23.5042 56.4862 23.1963 56.4001 22.8554 56.4001C22.5145 56.4001 22.2057 56.4862 21.9289 56.6585C21.654 56.8308 21.435 57.0846 21.2718 57.4201C21.1105 57.7555 21.0299 58.1669 21.0299 58.6545C21.0299 59.142 21.1105 59.5535 21.2718 59.8889C21.435 60.2243 21.654 60.4782 21.9289 60.6504C22.2057 60.8227 22.5145 60.9089 22.8554 60.9089C23.1963 60.9089 23.5042 60.8227 23.7792 60.6504C24.0559 60.4782 24.275 60.2243 24.4362 59.8889C24.5994 59.5535 24.6809 59.142 24.6809 58.6545ZM27.839 61.5577C27.4871 61.5577 27.1764 61.4688 26.907 61.291C26.6375 61.1114 26.4268 60.8585 26.2746 60.5322C26.1225 60.2041 26.0464 59.8165 26.0464 59.3693C26.0464 58.9257 26.1225 58.5408 26.2746 58.2146C26.4268 57.8883 26.6384 57.6363 26.9097 57.4585C27.181 57.2808 27.4944 57.1919 27.85 57.1919C28.1249 57.1919 28.3421 57.2377 28.5015 57.3293C28.6628 57.4191 28.7856 57.5218 28.8699 57.6372C28.9561 57.7509 29.023 57.8444 29.0706 57.9177H29.1256V55.8392H29.7744V61.4697H29.1476V60.8209H29.0706C29.023 60.8979 28.9552 60.995 28.8672 61.1123C28.7792 61.2278 28.6537 61.3313 28.4905 61.423C28.3274 61.5128 28.1102 61.5577 27.839 61.5577ZM27.9269 60.9749C28.1872 60.9749 28.4071 60.907 28.5868 60.7714C28.7664 60.6339 28.9029 60.4443 28.9964 60.2023C29.0899 59.9585 29.1366 59.6772 29.1366 59.3583C29.1366 59.043 29.0908 58.7672 28.9991 58.5308C28.9075 58.2925 28.7719 58.1074 28.5923 57.9754C28.4126 57.8416 28.1909 57.7747 27.9269 57.7747C27.652 57.7747 27.4229 57.8453 27.2396 57.9864C27.0582 58.1257 26.9216 58.3154 26.83 58.5555C26.7402 58.7938 26.6953 59.0614 26.6953 59.3583C26.6953 59.6589 26.7411 59.932 26.8327 60.1776C26.9262 60.4213 27.0637 60.6156 27.2451 60.7604C27.4284 60.9034 27.6557 60.9749 27.9269 60.9749ZM32.4926 61.5577C32.1407 61.5577 31.83 61.4688 31.5606 61.291C31.2912 61.1114 31.0804 60.8585 30.9283 60.5322C30.7761 60.2041 30.7001 59.8165 30.7001 59.3693C30.7001 58.9257 30.7761 58.5408 30.9283 58.2146C31.0804 57.8883 31.2921 57.6363 31.5633 57.4585C31.8346 57.2808 32.148 57.1919 32.5036 57.1919C32.7785 57.1919 32.9957 57.2377 33.1552 57.3293C33.3165 57.4191 33.4393 57.5218 33.5236 57.6372C33.6097 57.7509 33.6766 57.8444 33.7243 57.9177H33.7792V55.8392H34.4281V61.4697H33.8012V60.8209H33.7243C33.6766 60.8979 33.6088 60.995 33.5208 61.1123C33.4328 61.2278 33.3073 61.3313 33.1442 61.423C32.981 61.5128 32.7638 61.5577 32.4926 61.5577ZM32.5806 60.9749C32.8408 60.9749 33.0608 60.907 33.2404 60.7714C33.42 60.6339 33.5566 60.4443 33.65 60.2023C33.7435 59.9585 33.7902 59.6772 33.7902 59.3583C33.7902 59.043 33.7444 58.7672 33.6528 58.5308C33.5611 58.2925 33.4255 58.1074 33.2459 57.9754C33.0663 57.8416 32.8445 57.7747 32.5806 57.7747C32.3056 57.7747 32.0765 57.8453 31.8932 57.9864C31.7118 58.1257 31.5752 58.3154 31.4836 58.5555C31.3938 58.7938 31.3489 59.0614 31.3489 59.3583C31.3489 59.6589 31.3947 59.932 31.4864 60.1776C31.5798 60.4213 31.7173 60.6156 31.8987 60.7604C32.082 60.9034 32.3093 60.9749 32.5806 60.9749Z" fill="#4D4D4D"/>
<path d="M37.3543 56.4441V55.8392H41.5772V56.4441H39.8066V61.4697H39.1248V56.4441H37.3543ZM43.0354 58.9294V61.4697H42.3866V55.8392H43.0354V57.9067H43.0904C43.1894 57.6886 43.3379 57.5154 43.5358 57.3871C43.7356 57.2569 44.0014 57.1919 44.3331 57.1919C44.6209 57.1919 44.8729 57.2496 45.0891 57.3651C45.3054 57.4787 45.4731 57.6537 45.5923 57.8902C45.7132 58.1248 45.7737 58.4235 45.7737 58.7864V61.4697H45.1249V58.8304C45.1249 58.495 45.0378 58.2357 44.8637 58.0524C44.6914 57.8673 44.4522 57.7747 44.1462 57.7747C43.9335 57.7747 43.7429 57.8196 43.5743 57.9094C43.4075 57.9992 43.2755 58.1303 43.1784 58.3026C43.0831 58.4749 43.0354 58.6838 43.0354 58.9294ZM48.5214 61.5577C48.1402 61.5577 47.8057 61.467 47.5179 61.2855C47.232 61.1041 47.0084 60.8502 46.8471 60.524C46.6877 60.1977 46.6079 59.8165 46.6079 59.3803C46.6079 58.9404 46.6877 58.5564 46.8471 58.2283C47.0084 57.9003 47.232 57.6455 47.5179 57.464C47.8057 57.2826 48.1402 57.1919 48.5214 57.1919C48.9026 57.1919 49.2362 57.2826 49.5221 57.464C49.8099 57.6455 50.0335 57.9003 50.193 58.2283C50.3543 58.5564 50.4349 58.9404 50.4349 59.3803C50.4349 59.8165 50.3543 60.1977 50.193 60.524C50.0335 60.8502 49.8099 61.1041 49.5221 61.2855C49.2362 61.467 48.9026 61.5577 48.5214 61.5577ZM48.5214 60.9749C48.811 60.9749 49.0493 60.9006 49.2362 60.7522C49.4232 60.6037 49.5616 60.4085 49.6514 60.1666C49.7412 59.9246 49.7861 59.6625 49.7861 59.3803C49.7861 59.098 49.7412 58.835 49.6514 58.5912C49.5616 58.3475 49.4232 58.1504 49.2362 58.0002C49.0493 57.8499 48.811 57.7747 48.5214 57.7747C48.2318 57.7747 47.9936 57.8499 47.8066 58.0002C47.6197 58.1504 47.4813 58.3475 47.3915 58.5912C47.3017 58.835 47.2568 59.098 47.2568 59.3803C47.2568 59.6625 47.3017 59.9246 47.3915 60.1666C47.4813 60.4085 47.6197 60.6037 47.8066 60.7522C47.9936 60.9006 48.2318 60.9749 48.5214 60.9749ZM51.2705 61.4697V57.2469H51.8973V57.9067H51.9523C52.0403 57.6812 52.1823 57.5062 52.3784 57.3816C52.5746 57.2551 52.8101 57.1919 53.085 57.1919C53.3636 57.1919 53.5955 57.2551 53.7806 57.3816C53.9675 57.5062 54.1132 57.6812 54.2177 57.9067H54.2617C54.3698 57.6886 54.532 57.5154 54.7483 57.3871C54.9646 57.2569 55.2239 57.1919 55.5264 57.1919C55.9039 57.1919 56.2128 57.3101 56.4529 57.5465C56.693 57.7811 56.813 58.1468 56.813 58.6435V61.4697H56.1642V58.6435C56.1642 58.3319 56.079 58.1092 55.9085 57.9754C55.738 57.8416 55.5374 57.7747 55.3064 57.7747C55.0095 57.7747 54.7795 57.8645 54.6163 58.0441C54.4532 58.2219 54.3717 58.4474 54.3717 58.7205V61.4697H53.7118V58.5775C53.7118 58.3374 53.6339 58.144 53.4782 57.9974C53.3224 57.8489 53.1217 57.7747 52.8761 57.7747C52.7074 57.7747 52.5498 57.8196 52.4032 57.9094C52.2584 57.9992 52.1411 58.1239 52.0513 58.2833C51.9633 58.441 51.9193 58.6233 51.9193 58.8304V61.4697H51.2705ZM59.0872 61.5687C58.8196 61.5687 58.5767 61.5183 58.3586 61.4175C58.1405 61.3149 57.9673 61.1673 57.839 60.9749C57.7107 60.7806 57.6465 60.546 57.6465 60.271C57.6465 60.0291 57.6942 59.833 57.7895 59.6827C57.8848 59.5306 58.0122 59.4114 58.1716 59.3253C58.3311 59.2392 58.5071 59.175 58.6995 59.1328C58.8938 59.0889 59.089 59.054 59.2851 59.0284C59.5417 58.9954 59.7497 58.9706 59.9092 58.9541C60.0705 58.9358 60.1878 58.9056 60.2611 58.8634C60.3362 58.8213 60.3738 58.748 60.3738 58.6435V58.6215C60.3738 58.3502 60.2996 58.1394 60.1511 57.9892C60.0045 57.8389 59.7818 57.7637 59.483 57.7637C59.1733 57.7637 58.9304 57.8315 58.7545 57.9672C58.5785 58.1028 58.4548 58.2476 58.3833 58.4015L57.7675 58.1816C57.8775 57.925 58.0241 57.7252 58.2074 57.5823C58.3925 57.4375 58.5941 57.3367 58.8122 57.2798C59.0322 57.2212 59.2484 57.1919 59.4611 57.1919C59.5967 57.1919 59.7525 57.2084 59.9284 57.2414C60.1062 57.2725 60.2776 57.3376 60.4425 57.4366C60.6093 57.5355 60.7477 57.6849 60.8577 57.8847C60.9676 58.0845 61.0226 58.3521 61.0226 58.6875V61.4697H60.3738V60.8979H60.3408C60.2968 60.9895 60.2235 61.0876 60.1209 61.1921C60.0182 61.2965 59.8817 61.3854 59.7112 61.4587C59.5408 61.532 59.3328 61.5687 59.0872 61.5687ZM59.1861 60.9859C59.4427 60.9859 59.659 60.9355 59.835 60.8346C60.0127 60.7338 60.1465 60.6037 60.2363 60.4443C60.328 60.2848 60.3738 60.1171 60.3738 59.9411V59.3473C60.3463 59.3803 60.2858 59.4105 60.1924 59.438C60.1007 59.4637 59.9944 59.4866 59.8734 59.5067C59.7543 59.5251 59.6379 59.5416 59.5243 59.5562C59.4125 59.5691 59.3218 59.5801 59.2521 59.5892C59.0835 59.6112 58.9259 59.647 58.7792 59.6964C58.6344 59.7441 58.5171 59.8165 58.4273 59.9136C58.3394 60.0089 58.2954 60.1391 58.2954 60.304C58.2954 60.5295 58.3788 60.6999 58.5455 60.8154C58.7142 60.929 58.9277 60.9859 59.1861 60.9859ZM65.0432 58.1926L64.4604 58.3576C64.4237 58.2604 64.3697 58.166 64.2982 58.0744C64.2285 57.9809 64.1332 57.9039 64.0123 57.8434C63.8913 57.783 63.7364 57.7527 63.5476 57.7527C63.2892 57.7527 63.0739 57.8123 62.9016 57.9314C62.7311 58.0487 62.6459 58.1981 62.6459 58.3796C62.6459 58.5408 62.7045 58.6682 62.8218 58.7617C62.9391 58.8552 63.1224 58.9331 63.3717 58.9954L63.9985 59.1493C64.3761 59.241 64.6574 59.3812 64.8425 59.57C65.0277 59.7569 65.1202 59.998 65.1202 60.293C65.1202 60.535 65.0506 60.7513 64.9113 60.9419C64.7738 61.1325 64.5814 61.2828 64.3339 61.3927C64.0865 61.5027 63.7987 61.5577 63.4707 61.5577C63.0399 61.5577 62.6835 61.4642 62.4012 61.2773C62.1189 61.0903 61.9402 60.8172 61.8651 60.458L62.4809 60.304C62.5396 60.5313 62.6505 60.7018 62.8136 60.8154C62.9785 60.929 63.1939 60.9859 63.4597 60.9859C63.7621 60.9859 64.0022 60.9217 64.18 60.7934C64.3596 60.6633 64.4494 60.5075 64.4494 60.326C64.4494 60.1794 64.3981 60.0566 64.2954 59.9576C64.1928 59.8568 64.0352 59.7817 63.8226 59.7322L63.1188 59.5672C62.732 59.4756 62.4479 59.3335 62.2665 59.1411C62.0869 58.9468 61.9971 58.704 61.9971 58.4125C61.9971 58.1743 62.064 57.9635 62.1978 57.7802C62.3334 57.5969 62.5176 57.453 62.7504 57.3486C62.985 57.2441 63.2507 57.1919 63.5476 57.1919C63.9655 57.1919 64.2936 57.2835 64.5319 57.4668C64.772 57.6501 64.9424 57.892 65.0432 58.1926Z" fill="#353FD7"/>
<path d="M36.9804 63.0093H65.5051V63.5372H36.9804V63.0093Z" fill="#353FD7"/>
<path d="M216.039 58.2496L219.062 55.2266" stroke="#353FD7" stroke-width="0.829493" stroke-linecap="round" stroke-linejoin="round"/>
<path d="M219.357 56.7012V54.9316H217.588" stroke="#353FD7" stroke-width="0.829493" stroke-linecap="round" stroke-linejoin="round"/>
<path d="M215.3 54.9316H214.563C212.72 54.9316 211.982 55.669 211.982 57.5123V59.7243C211.982 61.5676 212.72 62.3049 214.563 62.3049H216.775C218.618 62.3049 219.356 61.5676 219.356 59.7243V58.9869" stroke="#353FD7" stroke-width="0.829493" stroke-linecap="round" stroke-linejoin="round"/>
<rect x="8.84766" y="77.4194" width="222.304" height="30.9677" rx="8" fill="white"/>
<path d="M20.2821 90.7297V90.1249H24.505V90.7297H22.7344V95.7554H22.0526V90.7297H20.2821ZM25.9633 93.215V95.7554H25.3144V90.1249H25.9633V92.1923H26.0183C26.1172 91.9742 26.2657 91.801 26.4636 91.6727C26.6634 91.5426 26.9292 91.4775 27.2609 91.4775C27.5487 91.4775 27.8007 91.5352 28.017 91.6507C28.2332 91.7644 28.401 91.9394 28.5201 92.1758C28.6411 92.4104 28.7015 92.7092 28.7015 93.0721V95.7554H28.0527V93.1161C28.0527 92.7807 27.9657 92.5213 27.7915 92.338C27.6192 92.1529 27.3801 92.0604 27.074 92.0604C26.8614 92.0604 26.6707 92.1053 26.5021 92.1951C26.3353 92.2849 26.2034 92.4159 26.1062 92.5882C26.0109 92.7605 25.9633 92.9694 25.9633 93.215ZM31.4492 95.8433C31.068 95.8433 30.7335 95.7526 30.4458 95.5712C30.1598 95.3897 29.9362 95.1359 29.7749 94.8096C29.6155 94.4834 29.5358 94.1021 29.5358 93.6659C29.5358 93.226 29.6155 92.8421 29.7749 92.514C29.9362 92.1859 30.1598 91.9311 30.4458 91.7497C30.7335 91.5682 31.068 91.4775 31.4492 91.4775C31.8305 91.4775 32.164 91.5682 32.45 91.7497C32.7377 91.9311 32.9613 92.1859 33.1208 92.514C33.2821 92.8421 33.3627 93.226 33.3627 93.6659C33.3627 94.1021 33.2821 94.4834 33.1208 94.8096C32.9613 95.1359 32.7377 95.3897 32.45 95.5712C32.164 95.7526 31.8305 95.8433 31.4492 95.8433ZM31.4492 95.2605C31.7388 95.2605 31.9771 95.1863 32.164 95.0378C32.351 94.8894 32.4894 94.6942 32.5792 94.4522C32.669 94.2103 32.7139 93.9482 32.7139 93.6659C32.7139 93.3837 32.669 93.1207 32.5792 92.8769C32.4894 92.6331 32.351 92.4361 32.164 92.2858C31.9771 92.1355 31.7388 92.0604 31.4492 92.0604C31.1597 92.0604 30.9214 92.1355 30.7344 92.2858C30.5475 92.4361 30.4091 92.6331 30.3193 92.8769C30.2295 93.1207 30.1846 93.3837 30.1846 93.6659C30.1846 93.9482 30.2295 94.2103 30.3193 94.4522C30.4091 94.6942 30.5475 94.8894 30.7344 95.0378C30.9214 95.1863 31.1597 95.2605 31.4492 95.2605ZM34.1983 95.7554V91.5325H34.8251V92.1923H34.8801C34.9681 91.9669 35.1102 91.7918 35.3063 91.6672C35.5024 91.5407 35.7379 91.4775 36.0128 91.4775C36.2914 91.4775 36.5233 91.5407 36.7084 91.6672C36.8953 91.7918 37.0411 91.9669 37.1455 92.1923H37.1895C37.2977 91.9742 37.4599 91.801 37.6761 91.6727C37.8924 91.5426 38.1518 91.4775 38.4542 91.4775C38.8317 91.4775 39.1406 91.5957 39.3807 91.8322C39.6208 92.0668 39.7408 92.4324 39.7408 92.9291V95.7554H39.092V92.9291C39.092 92.6175 39.0068 92.3949 38.8363 92.2611C38.6659 92.1273 38.4652 92.0604 38.2342 92.0604C37.9373 92.0604 37.7073 92.1502 37.5442 92.3298C37.381 92.5076 37.2995 92.733 37.2995 93.0061V95.7554H36.6397V92.8631C36.6397 92.623 36.5618 92.4297 36.406 92.283C36.2502 92.1346 36.0495 92.0604 35.8039 92.0604C35.6353 92.0604 35.4776 92.1053 35.331 92.1951C35.1862 92.2849 35.0689 92.4095 34.9791 92.569C34.8911 92.7266 34.8471 92.909 34.8471 93.1161V95.7554H34.1983ZM42.015 95.8543C41.7474 95.8543 41.5045 95.8039 41.2864 95.7031C41.0683 95.6005 40.8951 95.453 40.7668 95.2605C40.6385 95.0662 40.5744 94.8316 40.5744 94.5567C40.5744 94.3148 40.622 94.1186 40.7173 93.9683C40.8126 93.8162 40.94 93.6971 41.0995 93.6109C41.2589 93.5248 41.4349 93.4606 41.6273 93.4185C41.8216 93.3745 42.0168 93.3397 42.2129 93.314C42.4695 93.281 42.6775 93.2563 42.837 93.2398C42.9983 93.2215 43.1156 93.1912 43.1889 93.1491C43.2641 93.1069 43.3016 93.0336 43.3016 92.9291V92.9071C43.3016 92.6359 43.2274 92.4251 43.0789 92.2748C42.9323 92.1245 42.7096 92.0494 42.4109 92.0494C42.1011 92.0494 41.8583 92.1172 41.6823 92.2528C41.5064 92.3884 41.3826 92.5332 41.3112 92.6872L40.6953 92.4672C40.8053 92.2106 40.9519 92.0109 41.1352 91.8679C41.3203 91.7231 41.5219 91.6223 41.74 91.5655C41.96 91.5068 42.1763 91.4775 42.3889 91.4775C42.5245 91.4775 42.6803 91.494 42.8563 91.527C43.034 91.5582 43.2054 91.6232 43.3704 91.7222C43.5372 91.8212 43.6755 91.9705 43.7855 92.1703C43.8955 92.3701 43.9505 92.6377 43.9505 92.9731V95.7554H43.3016V95.1835H43.2686C43.2247 95.2752 43.1513 95.3732 43.0487 95.4777C42.9461 95.5822 42.8095 95.6711 42.6391 95.7444C42.4686 95.8177 42.2606 95.8543 42.015 95.8543ZM42.1139 95.2715C42.3705 95.2715 42.5868 95.2211 42.7628 95.1203C42.9406 95.0195 43.0744 94.8894 43.1642 94.7299C43.2558 94.5704 43.3016 94.4027 43.3016 94.2268V93.6329C43.2741 93.6659 43.2137 93.6962 43.1202 93.7237C43.0285 93.7493 42.9222 93.7722 42.8013 93.7924C42.6821 93.8107 42.5657 93.8272 42.4521 93.8419C42.3403 93.8547 42.2496 93.8657 42.1799 93.8749C42.0113 93.8969 41.8537 93.9326 41.7071 93.9821C41.5623 94.0297 41.445 94.1021 41.3552 94.1993C41.2672 94.2946 41.2232 94.4247 41.2232 94.5897C41.2232 94.8151 41.3066 94.9856 41.4734 95.101C41.642 95.2147 41.8555 95.2715 42.1139 95.2715ZM47.9711 92.4782L47.3882 92.6432C47.3516 92.5461 47.2975 92.4517 47.226 92.36C47.1564 92.2666 47.0611 92.1896 46.9401 92.1291C46.8191 92.0686 46.6643 92.0384 46.4755 92.0384C46.217 92.0384 46.0017 92.0979 45.8294 92.2171C45.6589 92.3344 45.5737 92.4837 45.5737 92.6652C45.5737 92.8265 45.6324 92.9539 45.7497 93.0473C45.867 93.1408 46.0502 93.2187 46.2995 93.281L46.9263 93.435C47.3039 93.5266 47.5853 93.6668 47.7704 93.8556C47.9555 94.0426 48.048 94.2836 48.048 94.5787C48.048 94.8206 47.9784 95.0369 47.8391 95.2275C47.7016 95.4181 47.5092 95.5684 47.2618 95.6784C47.0143 95.7884 46.7266 95.8433 46.3985 95.8433C45.9678 95.8433 45.6113 95.7499 45.329 95.5629C45.0468 95.376 44.8681 95.1029 44.7929 94.7436L45.4088 94.5897C45.4674 94.817 45.5783 94.9874 45.7414 95.101C45.9064 95.2147 46.1217 95.2715 46.3875 95.2715C46.6899 95.2715 46.93 95.2074 47.1078 95.0791C47.2874 94.9489 47.3772 94.7931 47.3772 94.6117C47.3772 94.465 47.3259 94.3422 47.2233 94.2433C47.1206 94.1425 46.963 94.0673 46.7504 94.0178L46.0466 93.8529C45.6599 93.7612 45.3758 93.6192 45.1943 93.4267C45.0147 93.2325 44.9249 92.9896 44.9249 92.6982C44.9249 92.4599 44.9918 92.2491 45.1256 92.0659C45.2612 91.8826 45.4454 91.7387 45.6782 91.6342C45.9128 91.5297 46.1785 91.4775 46.4755 91.4775C46.8934 91.4775 47.2214 91.5692 47.4597 91.7524C47.6998 91.9357 47.8703 92.1777 47.9711 92.4782Z" fill="#353FD7"/>
<path d="M53.1359 90.1249H53.8177V94.1498C53.8177 94.509 53.7517 94.8142 53.6197 95.0653C53.4878 95.3164 53.3017 95.507 53.0616 95.6372C52.8215 95.7673 52.5384 95.8324 52.2121 95.8324C51.9042 95.8324 51.6302 95.7764 51.3901 95.6646C51.15 95.551 50.9612 95.3897 50.8237 95.1808C50.6863 94.9718 50.6175 94.7235 50.6175 94.4357H51.2884C51.2884 94.5952 51.3278 94.7345 51.4066 94.8536C51.4872 94.9709 51.5972 95.0626 51.7365 95.1285C51.8758 95.1945 52.0343 95.2275 52.2121 95.2275C52.4082 95.2275 52.575 95.1863 52.7125 95.1038C52.8499 95.0213 52.9544 94.9003 53.0259 94.7409C53.0992 94.5796 53.1359 94.3826 53.1359 94.1498V90.1249ZM56.7118 95.8433C56.3049 95.8433 55.9539 95.7535 55.6588 95.5739C55.3656 95.3925 55.1392 95.1395 54.9797 94.8151C54.8221 94.4889 54.7433 94.1095 54.7433 93.6769C54.7433 93.2444 54.8221 92.8631 54.9797 92.5332C55.1392 92.2015 55.361 91.9431 55.6451 91.7579C55.931 91.571 56.2646 91.4775 56.6458 91.4775C56.8657 91.4775 57.0829 91.5142 57.2974 91.5875C57.5118 91.6608 57.707 91.7799 57.883 91.9449C58.0589 92.108 58.1991 92.3243 58.3036 92.5937C58.4081 92.8631 58.4603 93.1949 58.4603 93.5889V93.8639H55.2052V93.303H57.8005C57.8005 93.0648 57.7528 92.8521 57.6575 92.6652C57.5641 92.4782 57.4303 92.3307 57.2561 92.2226C57.0839 92.1144 56.8804 92.0604 56.6458 92.0604C56.3874 92.0604 56.1638 92.1245 55.975 92.2528C55.788 92.3793 55.6442 92.5442 55.5433 92.7477C55.4425 92.9511 55.3921 93.1692 55.3921 93.402V93.7759C55.3921 94.0948 55.4471 94.3652 55.5571 94.5869C55.6689 94.8069 55.8238 94.9746 56.0217 95.09C56.2197 95.2037 56.4497 95.2605 56.7118 95.2605C56.8822 95.2605 57.0362 95.2367 57.1737 95.189C57.313 95.1395 57.433 95.0662 57.5338 94.9691C57.6346 94.8701 57.7125 94.7473 57.7675 94.6007L58.3943 94.7766C58.3284 94.9892 58.2175 95.1762 58.0617 95.3375C57.9059 95.4969 57.7134 95.6216 57.4843 95.7114C57.2552 95.7994 56.9977 95.8433 56.7118 95.8433ZM61.173 91.5325V92.0824H58.8966V91.5325H61.173ZM59.5784 95.7554V90.9497C59.5784 90.7077 59.6352 90.5061 59.7488 90.3448C59.8625 90.1835 60.01 90.0626 60.1915 89.9819C60.3729 89.9013 60.5645 89.8609 60.7661 89.8609C60.9255 89.8609 61.0557 89.8738 61.1565 89.8994C61.2573 89.9251 61.3324 89.9489 61.3819 89.9709L61.195 90.5318C61.162 90.5208 61.1161 90.507 61.0575 90.4905C61.0007 90.474 60.9255 90.4658 60.8321 90.4658C60.6176 90.4658 60.4627 90.5199 60.3674 90.628C60.274 90.7361 60.2272 90.8947 60.2272 91.1036V95.7554H59.5784ZM63.8079 91.5325V92.0824H61.5316V91.5325H63.8079ZM62.2134 95.7554V90.9497C62.2134 90.7077 62.2702 90.5061 62.3838 90.3448C62.4975 90.1835 62.645 90.0626 62.8265 89.9819C63.0079 89.9013 63.1994 89.8609 63.4011 89.8609C63.5605 89.8609 63.6906 89.8738 63.7915 89.8994C63.8923 89.9251 63.9674 89.9489 64.0169 89.9709L63.8299 90.5318C63.7969 90.5208 63.7511 90.507 63.6925 90.4905C63.6357 90.474 63.5605 90.4658 63.467 90.4658C63.2526 90.4658 63.0977 90.5199 63.0024 90.628C62.9089 90.7361 62.8622 90.8947 62.8622 91.1036V95.7554H62.2134ZM66.1591 95.8433C65.7522 95.8433 65.4012 95.7535 65.1061 95.5739C64.8128 95.3925 64.5865 95.1395 64.427 94.8151C64.2694 94.4889 64.1906 94.1095 64.1906 93.6769C64.1906 93.2444 64.2694 92.8631 64.427 92.5332C64.5865 92.2015 64.8083 91.9431 65.0923 91.7579C65.3783 91.571 65.7118 91.4775 66.0931 91.4775C66.313 91.4775 66.5302 91.5142 66.7447 91.5875C66.9591 91.6608 67.1543 91.7799 67.3303 91.9449C67.5062 92.108 67.6464 92.3243 67.7509 92.5937C67.8554 92.8631 67.9076 93.1949 67.9076 93.5889V93.8639H64.6525V93.303H67.2478C67.2478 93.0648 67.2001 92.8521 67.1048 92.6652C67.0113 92.4782 66.8775 92.3307 66.7034 92.2226C66.5311 92.1144 66.3277 92.0604 66.0931 92.0604C65.8346 92.0604 65.611 92.1245 65.4223 92.2528C65.2353 92.3793 65.0914 92.5442 64.9906 92.7477C64.8898 92.9511 64.8394 93.1692 64.8394 93.402V93.7759C64.8394 94.0948 64.8944 94.3652 65.0044 94.5869C65.1162 94.8069 65.271 94.9746 65.469 95.09C65.6669 95.2037 65.897 95.2605 66.1591 95.2605C66.3295 95.2605 66.4835 95.2367 66.6209 95.189C66.7602 95.1395 66.8803 95.0662 66.9811 94.9691C67.0819 94.8701 67.1598 94.7473 67.2148 94.6007L67.8416 94.7766C67.7756 94.9892 67.6647 95.1762 67.509 95.3375C67.3532 95.4969 67.1607 95.6216 66.9316 95.7114C66.7025 95.7994 66.445 95.8433 66.1591 95.8433ZM68.7397 95.7554V91.5325H69.3666V92.1703H69.4106C69.4875 91.9614 69.6268 91.7918 69.8285 91.6617C70.0301 91.5316 70.2573 91.4665 70.5103 91.4665C70.5579 91.4665 70.6175 91.4674 70.689 91.4693C70.7605 91.4711 70.8145 91.4738 70.8512 91.4775V92.1373C70.8292 92.1318 70.7788 92.1236 70.7 92.1126C70.623 92.0998 70.5414 92.0933 70.4553 92.0933C70.25 92.0933 70.0667 92.1364 69.9054 92.2226C69.746 92.3069 69.6195 92.4242 69.526 92.5745C69.4344 92.7229 69.3886 92.8925 69.3886 93.0831V95.7554H68.7397ZM74.4567 92.4782L73.8738 92.6432C73.8372 92.5461 73.7831 92.4517 73.7116 92.36C73.642 92.2666 73.5466 92.1896 73.4257 92.1291C73.3047 92.0686 73.1498 92.0384 72.9611 92.0384C72.7026 92.0384 72.4873 92.0979 72.315 92.2171C72.1445 92.3344 72.0593 92.4837 72.0593 92.6652C72.0593 92.8265 72.1179 92.9539 72.2352 93.0473C72.3525 93.1408 72.5358 93.2187 72.7851 93.281L73.4119 93.435C73.7895 93.5266 74.0708 93.6668 74.256 93.8556C74.4411 94.0426 74.5336 94.2836 74.5336 94.5787C74.5336 94.8206 74.464 95.0369 74.3247 95.2275C74.1872 95.4181 73.9948 95.5684 73.7473 95.6784C73.4999 95.7884 73.2122 95.8433 72.8841 95.8433C72.4534 95.8433 72.0969 95.7499 71.8146 95.5629C71.5323 95.376 71.3536 95.1029 71.2785 94.7436L71.8943 94.5897C71.953 94.817 72.0639 94.9874 72.227 95.101C72.392 95.2147 72.6073 95.2715 72.8731 95.2715C73.1755 95.2715 73.4156 95.2074 73.5934 95.0791C73.773 94.9489 73.8628 94.7931 73.8628 94.6117C73.8628 94.465 73.8115 94.3422 73.7089 94.2433C73.6062 94.1425 73.4486 94.0673 73.236 94.0178L72.5322 93.8529C72.1454 93.7612 71.8613 93.6192 71.6799 93.4267C71.5003 93.2325 71.4105 92.9896 71.4105 92.6982C71.4105 92.4599 71.4774 92.2491 71.6112 92.0659C71.7468 91.8826 71.931 91.7387 72.1638 91.6342C72.3984 91.5297 72.6641 91.4775 72.9611 91.4775C73.3789 91.4775 73.707 91.5692 73.9453 91.7524C74.1854 91.9357 74.3558 92.1777 74.4567 92.4782ZM77.071 95.8433C76.6898 95.8433 76.3553 95.7526 76.0675 95.5712C75.7816 95.3897 75.558 95.1359 75.3967 94.8096C75.2373 94.4834 75.1575 94.1021 75.1575 93.6659C75.1575 93.226 75.2373 92.8421 75.3967 92.514C75.558 92.1859 75.7816 91.9311 76.0675 91.7497C76.3553 91.5682 76.6898 91.4775 77.071 91.4775C77.4522 91.4775 77.7858 91.5682 78.0717 91.7497C78.3595 91.9311 78.5831 92.1859 78.7426 92.514C78.9039 92.8421 78.9845 93.226 78.9845 93.6659C78.9845 94.1021 78.9039 94.4834 78.7426 94.8096C78.5831 95.1359 78.3595 95.3897 78.0717 95.5712C77.7858 95.7526 77.4522 95.8433 77.071 95.8433ZM77.071 95.2605C77.3606 95.2605 77.5989 95.1863 77.7858 95.0378C77.9728 94.8894 78.1112 94.6942 78.201 94.4522C78.2908 94.2103 78.3357 93.9482 78.3357 93.6659C78.3357 93.3837 78.2908 93.1207 78.201 92.8769C78.1112 92.6331 77.9728 92.4361 77.7858 92.2858C77.5989 92.1355 77.3606 92.0604 77.071 92.0604C76.7814 92.0604 76.5432 92.1355 76.3562 92.2858C76.1693 92.4361 76.0309 92.6331 75.9411 92.8769C75.8513 93.1207 75.8063 93.3837 75.8063 93.6659C75.8063 93.9482 75.8513 94.2103 75.9411 94.4522C76.0309 94.6942 76.1693 94.8894 76.3562 95.0378C76.5432 95.1863 76.7814 95.2605 77.071 95.2605ZM80.4689 93.215V95.7554H79.8201V91.5325H80.4469V92.1923H80.5019C80.6009 91.9779 80.7512 91.8056 80.9528 91.6755C81.1544 91.5435 81.4147 91.4775 81.7336 91.4775C82.0195 91.4775 82.2697 91.5362 82.4841 91.6535C82.6986 91.7689 82.8654 91.9449 82.9845 92.1813C83.1036 92.4159 83.1632 92.7128 83.1632 93.0721V95.7554H82.5144V93.1161C82.5144 92.7843 82.4282 92.5259 82.2559 92.3408C82.0837 92.1538 81.8472 92.0604 81.5466 92.0604C81.3395 92.0604 81.1544 92.1053 80.9913 92.1951C80.83 92.2849 80.7026 92.4159 80.6091 92.5882C80.5157 92.7605 80.4689 92.9694 80.4689 93.215ZM84.6669 95.7994C84.5312 95.7994 84.4148 95.7508 84.3177 95.6536C84.2206 95.5565 84.172 95.4401 84.172 95.3045C84.172 95.1689 84.2206 95.0525 84.3177 94.9553C84.4148 94.8582 84.5312 94.8096 84.6669 94.8096C84.8025 94.8096 84.9189 94.8582 85.016 94.9553C85.1131 95.0525 85.1617 95.1689 85.1617 95.3045C85.1617 95.3943 85.1388 95.4768 85.093 95.5519C85.049 95.6271 84.9894 95.6876 84.9143 95.7334C84.841 95.7774 84.7585 95.7994 84.6669 95.7994ZM84.6669 92.6652C84.5312 92.6652 84.4148 92.6166 84.3177 92.5195C84.2206 92.4223 84.172 92.306 84.172 92.1703C84.172 92.0347 84.2206 91.9183 84.3177 91.8212C84.4148 91.724 84.5312 91.6755 84.6669 91.6755C84.8025 91.6755 84.9189 91.724 85.016 91.8212C85.1131 91.9183 85.1617 92.0347 85.1617 92.1703C85.1617 92.2601 85.1388 92.3426 85.093 92.4178C85.049 92.4929 84.9894 92.5534 84.9143 92.5992C84.841 92.6432 84.7585 92.6652 84.6669 92.6652ZM87.9738 90.7297V90.1249H92.1967V90.7297H90.4262V95.7554H89.7444V90.7297H87.9738ZM93.655 93.215V95.7554H93.0062V90.1249H93.655V92.1923H93.71C93.809 91.9742 93.9574 91.801 94.1554 91.6727C94.3551 91.5426 94.6209 91.4775 94.9527 91.4775C95.2404 91.4775 95.4924 91.5352 95.7087 91.6507C95.925 91.7644 96.0927 91.9394 96.2118 92.1758C96.3328 92.4104 96.3933 92.7092 96.3933 93.0721V95.7554H95.7444V93.1161C95.7444 92.7807 95.6574 92.5213 95.4833 92.338C95.311 92.1529 95.0718 92.0604 94.7657 92.0604C94.5531 92.0604 94.3625 92.1053 94.1939 92.1951C94.0271 92.2849 93.8951 92.4159 93.798 92.5882C93.7027 92.7605 93.655 92.9694 93.655 93.215ZM99.196 95.8433C98.7891 95.8433 98.4381 95.7535 98.143 95.5739C97.8497 95.3925 97.6234 95.1395 97.4639 94.8151C97.3063 94.4889 97.2275 94.1095 97.2275 93.6769C97.2275 93.2444 97.3063 92.8631 97.4639 92.5332C97.6234 92.2015 97.8452 91.9431 98.1292 91.7579C98.4152 91.571 98.7487 91.4775 99.13 91.4775C99.3499 91.4775 99.5671 91.5142 99.7816 91.5875C99.996 91.6608 100.191 91.7799 100.367 91.9449C100.543 92.108 100.683 92.3243 100.788 92.5937C100.892 92.8631 100.944 93.1949 100.944 93.5889V93.8639H97.6894V93.303H100.285C100.285 93.0648 100.237 92.8521 100.142 92.6652C100.048 92.4782 99.9144 92.3307 99.7403 92.2226C99.568 92.1144 99.3646 92.0604 99.13 92.0604C98.8715 92.0604 98.6479 92.1245 98.4592 92.2528C98.2722 92.3793 98.1283 92.5442 98.0275 92.7477C97.9267 92.9511 97.8763 93.1692 97.8763 93.402V93.7759C97.8763 94.0948 97.9313 94.3652 98.0413 94.5869C98.1531 94.8069 98.3079 94.9746 98.5059 95.09C98.7038 95.2037 98.9339 95.2605 99.196 95.2605C99.3664 95.2605 99.5204 95.2367 99.6578 95.189C99.7971 95.1395 99.9172 95.0662 100.018 94.9691C100.119 94.8701 100.197 94.7473 100.252 94.6007L100.879 94.7766C100.813 94.9892 100.702 95.1762 100.546 95.3375C100.39 95.4969 100.198 95.6216 99.9685 95.7114C99.7394 95.7994 99.4819 95.8433 99.196 95.8433ZM104.118 95.7554H103.403L105.471 90.1249H106.175L108.242 95.7554H107.527L105.845 91.0156H105.801L104.118 95.7554ZM104.382 93.556H107.263V94.1608H104.382V93.556ZM108.876 95.7554V91.5325H109.503V92.1703H109.547C109.624 91.9614 109.763 91.7918 109.965 91.6617C110.167 91.5316 110.394 91.4665 110.647 91.4665C110.694 91.4665 110.754 91.4674 110.825 91.4693C110.897 91.4711 110.951 91.4738 110.988 91.4775V92.1373C110.966 92.1318 110.915 92.1236 110.836 92.1126C110.759 92.0998 110.678 92.0933 110.592 92.0933C110.387 92.0933 110.203 92.1364 110.042 92.2226C109.882 92.3069 109.756 92.4242 109.663 92.5745C109.571 92.7229 109.525 92.8925 109.525 93.0831V95.7554H108.876ZM113.703 91.5325V92.0824H111.515V91.5325H113.703ZM112.152 90.5208H112.801V94.5457C112.801 94.729 112.828 94.8664 112.881 94.9581C112.936 95.0479 113.006 95.1084 113.09 95.1395C113.176 95.1689 113.267 95.1835 113.362 95.1835C113.434 95.1835 113.492 95.1799 113.538 95.1725C113.584 95.1634 113.621 95.156 113.648 95.1505L113.78 95.7334C113.736 95.7499 113.675 95.7664 113.596 95.7829C113.517 95.8012 113.417 95.8104 113.296 95.8104C113.113 95.8104 112.933 95.771 112.757 95.6921C112.583 95.6133 112.438 95.4933 112.323 95.332C112.209 95.1707 112.152 94.9672 112.152 94.7216V90.5208ZM118.262 95.8433C117.881 95.8433 117.547 95.7526 117.259 95.5712C116.973 95.3897 116.749 95.1359 116.588 94.8096C116.429 94.4834 116.349 94.1021 116.349 93.6659C116.349 93.226 116.429 92.8421 116.588 92.514C116.749 92.1859 116.973 91.9311 117.259 91.7497C117.547 91.5682 117.881 91.4775 118.262 91.4775C118.644 91.4775 118.977 91.5682 119.263 91.7497C119.551 91.9311 119.774 92.1859 119.934 92.514C120.095 92.8421 120.176 93.226 120.176 93.6659C120.176 94.1021 120.095 94.4834 119.934 94.8096C119.774 95.1359 119.551 95.3897 119.263 95.5712C118.977 95.7526 118.644 95.8433 118.262 95.8433ZM118.262 95.2605C118.552 95.2605 118.79 95.1863 118.977 95.0378C119.164 94.8894 119.302 94.6942 119.392 94.4522C119.482 94.2103 119.527 93.9482 119.527 93.6659C119.527 93.3837 119.482 93.1207 119.392 92.8769C119.302 92.6331 119.164 92.4361 118.977 92.2858C118.79 92.1355 118.552 92.0604 118.262 92.0604C117.973 92.0604 117.734 92.1355 117.548 92.2858C117.361 92.4361 117.222 92.6331 117.132 92.8769C117.043 93.1207 116.998 93.3837 116.998 93.6659C116.998 93.9482 117.043 94.2103 117.132 94.4522C117.222 94.6942 117.361 94.8894 117.548 95.0378C117.734 95.1863 117.973 95.2605 118.262 95.2605ZM122.892 91.5325V92.0824H120.616V91.5325H122.892ZM121.297 95.7554V90.9497C121.297 90.7077 121.354 90.5061 121.468 90.3448C121.581 90.1835 121.729 90.0626 121.91 89.9819C122.092 89.9013 122.283 89.8609 122.485 89.8609C122.644 89.8609 122.775 89.8738 122.875 89.8994C122.976 89.9251 123.051 89.9489 123.101 89.9709L122.914 90.5318C122.881 90.5208 122.835 90.507 122.776 90.4905C122.72 90.474 122.644 90.4658 122.551 90.4658C122.337 90.4658 122.182 90.5199 122.086 90.628C121.993 90.7361 121.946 90.8947 121.946 91.1036V95.7554H121.297ZM125.757 95.7554V90.1249H127.659C128.101 90.1249 128.462 90.2046 128.743 90.3641C129.025 90.5217 129.234 90.7352 129.369 91.0046C129.505 91.2741 129.573 91.5747 129.573 91.9064C129.573 92.2381 129.505 92.5396 129.369 92.8109C129.236 93.0822 129.029 93.2984 128.748 93.4597C128.468 93.6192 128.108 93.6989 127.67 93.6989H126.307V93.0941H127.648C127.951 93.0941 128.194 93.0418 128.377 92.9374C128.56 92.8329 128.693 92.6918 128.776 92.514C128.86 92.3344 128.902 92.1318 128.902 91.9064C128.902 91.681 128.86 91.4793 128.776 91.3016C128.693 91.1238 128.559 90.9845 128.374 90.8837C128.189 90.781 127.944 90.7297 127.637 90.7297H126.439V95.7554H125.757ZM132.099 95.8433C131.717 95.8433 131.383 95.7526 131.095 95.5712C130.809 95.3897 130.586 95.1359 130.424 94.8096C130.265 94.4834 130.185 94.1021 130.185 93.6659C130.185 93.226 130.265 92.8421 130.424 92.514C130.586 92.1859 130.809 91.9311 131.095 91.7497C131.383 91.5682 131.717 91.4775 132.099 91.4775C132.48 91.4775 132.813 91.5682 133.099 91.7497C133.387 91.9311 133.611 92.1859 133.77 92.514C133.931 92.8421 134.012 93.226 134.012 93.6659C134.012 94.1021 133.931 94.4834 133.77 94.8096C133.611 95.1359 133.387 95.3897 133.099 95.5712C132.813 95.7526 132.48 95.8433 132.099 95.8433ZM132.099 95.2605C132.388 95.2605 132.626 95.1863 132.813 95.0378C133 94.8894 133.139 94.6942 133.229 94.4522C133.318 94.2103 133.363 93.9482 133.363 93.6659C133.363 93.3837 133.318 93.1207 133.229 92.8769C133.139 92.6331 133 92.4361 132.813 92.2858C132.626 92.1355 132.388 92.0604 132.099 92.0604C131.809 92.0604 131.571 92.1355 131.384 92.2858C131.197 92.4361 131.058 92.6331 130.969 92.8769C130.879 93.1207 130.834 93.3837 130.834 93.6659C130.834 93.9482 130.879 94.2103 130.969 94.4522C131.058 94.6942 131.197 94.8894 131.384 95.0378C131.571 95.1863 131.809 95.2605 132.099 95.2605ZM135.661 95.7554L134.374 91.5325H135.056L135.969 94.7656H136.013L136.914 91.5325H137.607L138.498 94.7546H138.542L139.455 91.5325H140.137L138.85 95.7554H138.212L137.288 92.5112H137.222L136.299 95.7554H135.661ZM142.466 95.8433C142.06 95.8433 141.709 95.7535 141.413 95.5739C141.12 95.3925 140.894 95.1395 140.734 94.8151C140.577 94.4889 140.498 94.1095 140.498 93.6769C140.498 93.2444 140.577 92.8631 140.734 92.5332C140.894 92.2015 141.116 91.9431 141.4 91.7579C141.686 91.571 142.019 91.4775 142.4 91.4775C142.62 91.4775 142.838 91.5142 143.052 91.5875C143.266 91.6608 143.462 91.7799 143.638 91.9449C143.814 92.108 143.954 92.3243 144.058 92.5937C144.163 92.8631 144.215 93.1949 144.215 93.5889V93.8639H140.96V93.303H143.555C143.555 93.0648 143.507 92.8521 143.412 92.6652C143.319 92.4782 143.185 92.3307 143.011 92.2226C142.838 92.1144 142.635 92.0604 142.4 92.0604C142.142 92.0604 141.918 92.1245 141.73 92.2528C141.543 92.3793 141.399 92.5442 141.298 92.7477C141.197 92.9511 141.147 93.1692 141.147 93.402V93.7759C141.147 94.0948 141.202 94.3652 141.312 94.5869C141.424 94.8069 141.578 94.9746 141.776 95.09C141.974 95.2037 142.204 95.2605 142.466 95.2605C142.637 95.2605 142.791 95.2367 142.928 95.189C143.068 95.1395 143.188 95.0662 143.288 94.9691C143.389 94.8701 143.467 94.7473 143.522 94.6007L144.149 94.7766C144.083 94.9892 143.972 95.1762 143.816 95.3375C143.661 95.4969 143.468 95.6216 143.239 95.7114C143.01 95.7994 142.752 95.8433 142.466 95.8433ZM145.047 95.7554V91.5325H145.674V92.1703H145.718C145.795 91.9614 145.934 91.7918 146.136 91.6617C146.337 91.5316 146.565 91.4665 146.818 91.4665C146.865 91.4665 146.925 91.4674 146.996 91.4693C147.068 91.4711 147.122 91.4738 147.159 91.4775V92.1373C147.137 92.1318 147.086 92.1236 147.007 92.1126C146.93 92.0998 146.849 92.0933 146.763 92.0933C146.557 92.0933 146.374 92.1364 146.213 92.2226C146.053 92.3069 145.927 92.4242 145.833 92.5745C145.742 92.7229 145.696 92.8925 145.696 93.0831V95.7554H145.047Z" fill="#4D4D4D"/>
<path d="M19.9082 97.295H48.276V97.8228H19.9082V97.295Z" fill="#353FD7"/>
<path d="M216.039 92.5352L219.062 89.5122" stroke="#353FD7" stroke-width="0.829493" stroke-linecap="round" stroke-linejoin="round"/>
<path d="M219.357 90.9869V89.2173H217.588" stroke="#353FD7" stroke-width="0.829493" stroke-linecap="round" stroke-linejoin="round"/>
<path d="M215.3 89.2173H214.563C212.72 89.2173 211.982 89.9546 211.982 91.7979V94.0099C211.982 95.8532 212.72 96.5906 214.563 96.5906H216.775C218.618 96.5906 219.356 95.8532 219.356 94.0099V93.2726" stroke="#353FD7" stroke-width="0.829493" stroke-linecap="round" stroke-linejoin="round"/>
</svg>
