<svg width="240" height="203" viewBox="0 0 240 203" fill="none" xmlns="http://www.w3.org/2000/svg">
<rect width="240" height="202.396" fill="#F1F1F1"/>
<rect x="8.84766" y="8.8479" width="222.304" height="30.9677" rx="8" fill="white"/>
<path d="M37.8597 21.5533V27.1838H37.1779V21.5533H37.8597ZM40.8205 22.961V23.5108H38.6321V22.961H40.8205ZM39.2699 21.9492H39.9187V25.9742C39.9187 26.1574 39.9453 26.2949 39.9985 26.3866C40.0535 26.4764 40.1231 26.5368 40.2074 26.568C40.2936 26.5973 40.3843 26.612 40.4796 26.612C40.5511 26.612 40.6097 26.6083 40.6555 26.601C40.7014 26.5918 40.738 26.5845 40.7655 26.579L40.8975 27.1618C40.8535 27.1783 40.7921 27.1948 40.7133 27.2113C40.6345 27.2297 40.5346 27.2388 40.4136 27.2388C40.2303 27.2388 40.0507 27.1994 39.8748 27.1206C39.7006 27.0418 39.5558 26.9217 39.4404 26.7605C39.3267 26.5992 39.2699 26.3957 39.2699 26.1501V21.9492ZM42.8843 27.2828C42.6167 27.2828 42.3739 27.2324 42.1558 27.1316C41.9377 27.029 41.7644 26.8814 41.6362 26.689C41.5079 26.4947 41.4437 26.2601 41.4437 25.9852C41.4437 25.7432 41.4914 25.5471 41.5867 25.3968C41.682 25.2447 41.8094 25.1256 41.9688 25.0394C42.1283 24.9533 42.3042 24.8891 42.4967 24.847C42.691 24.803 42.8862 24.7681 43.0823 24.7425C43.3389 24.7095 43.5469 24.6848 43.7063 24.6683C43.8676 24.6499 43.9849 24.6197 44.0583 24.5775C44.1334 24.5354 44.171 24.4621 44.171 24.3576V24.3356C44.171 24.0643 44.0967 23.8536 43.9483 23.7033C43.8017 23.553 43.579 23.4778 43.2802 23.4778C42.9705 23.4778 42.7276 23.5456 42.5517 23.6813C42.3757 23.8169 42.252 23.9617 42.1805 24.1157L41.5647 23.8957C41.6746 23.6391 41.8213 23.4393 42.0046 23.2964C42.1897 23.1516 42.3913 23.0508 42.6094 22.994C42.8293 22.9353 43.0456 22.906 43.2582 22.906C43.3938 22.906 43.5496 22.9225 43.7256 22.9555C43.9034 22.9866 44.0748 23.0517 44.2397 23.1507C44.4065 23.2496 44.5449 23.399 44.6548 23.5988C44.7648 23.7986 44.8198 24.0662 44.8198 24.4016V27.1838H44.171V26.612H44.138C44.094 26.7036 44.0207 26.8017 43.918 26.9062C43.8154 27.0106 43.6789 27.0995 43.5084 27.1728C43.3379 27.2462 43.1299 27.2828 42.8843 27.2828ZM42.9833 26.7C43.2399 26.7 43.4562 26.6496 43.6321 26.5488C43.8099 26.448 43.9437 26.3178 44.0335 26.1584C44.1252 25.9989 44.171 25.8312 44.171 25.6552V25.0614C44.1435 25.0944 44.083 25.1246 43.9895 25.1521C43.8979 25.1778 43.7916 25.2007 43.6706 25.2209C43.5515 25.2392 43.4351 25.2557 43.3215 25.2703C43.2096 25.2832 43.1189 25.2942 43.0493 25.3033C42.8807 25.3253 42.723 25.3611 42.5764 25.4106C42.4316 25.4582 42.3143 25.5306 42.2245 25.6278C42.1365 25.7231 42.0925 25.8532 42.0925 26.0181C42.0925 26.2436 42.1759 26.414 42.3427 26.5295C42.5113 26.6431 42.7249 26.7 42.9833 26.7ZM46.498 21.5533V27.1838H45.8492V21.5533H46.498ZM47.5316 27.1838V22.961H48.1804V27.1838H47.5316ZM47.8615 22.2572C47.735 22.2572 47.626 22.2141 47.5343 22.1279C47.4445 22.0418 47.3996 21.9382 47.3996 21.8173C47.3996 21.6963 47.4445 21.5927 47.5343 21.5066C47.626 21.4205 47.735 21.3774 47.8615 21.3774C47.9879 21.3774 48.0961 21.4205 48.1859 21.5066C48.2775 21.5927 48.3234 21.6963 48.3234 21.8173C48.3234 21.9382 48.2775 22.0418 48.1859 22.1279C48.0961 22.2141 47.9879 22.2572 47.8615 22.2572ZM50.4566 27.2828C50.189 27.2828 49.9461 27.2324 49.728 27.1316C49.5099 27.029 49.3367 26.8814 49.2084 26.689C49.0801 26.4947 49.016 26.2601 49.016 25.9852C49.016 25.7432 49.0636 25.5471 49.1589 25.3968C49.2542 25.2447 49.3816 25.1256 49.5411 25.0394C49.7005 24.9533 49.8765 24.8891 50.0689 24.847C50.2632 24.803 50.4584 24.7681 50.6545 24.7425C50.9111 24.7095 51.1192 24.6848 51.2786 24.6683C51.4399 24.6499 51.5572 24.6197 51.6305 24.5775C51.7057 24.5354 51.7433 24.4621 51.7433 24.3576V24.3356C51.7433 24.0643 51.669 23.8536 51.5206 23.7033C51.3739 23.553 51.1512 23.4778 50.8525 23.4778C50.5427 23.4778 50.2999 23.5456 50.1239 23.6813C49.948 23.8169 49.8243 23.9617 49.7528 24.1157L49.1369 23.8957C49.2469 23.6391 49.3935 23.4393 49.5768 23.2964C49.7619 23.1516 49.9636 23.0508 50.1817 22.994C50.4016 22.9353 50.6179 22.906 50.8305 22.906C50.9661 22.906 51.1219 22.9225 51.2979 22.9555C51.4757 22.9866 51.647 23.0517 51.812 23.1507C51.9788 23.2496 52.1172 23.399 52.2271 23.5988C52.3371 23.7986 52.3921 24.0662 52.3921 24.4016V27.1838H51.7433V26.612H51.7103C51.6663 26.7036 51.593 26.8017 51.4903 26.9062C51.3877 27.0106 51.2511 27.0995 51.0807 27.1728C50.9102 27.2462 50.7022 27.2828 50.4566 27.2828ZM50.5556 26.7C50.8122 26.7 51.0284 26.6496 51.2044 26.5488C51.3822 26.448 51.516 26.3178 51.6058 26.1584C51.6974 25.9989 51.7433 25.8312 51.7433 25.6552V25.0614C51.7158 25.0944 51.6553 25.1246 51.5618 25.1521C51.4702 25.1778 51.3639 25.2007 51.2429 25.2209C51.1238 25.2392 51.0074 25.2557 50.8937 25.2703C50.7819 25.2832 50.6912 25.2942 50.6216 25.3033C50.4529 25.3253 50.2953 25.3611 50.1487 25.4106C50.0039 25.4582 49.8866 25.5306 49.7968 25.6278C49.7088 25.7231 49.6648 25.8532 49.6648 26.0181C49.6648 26.2436 49.7482 26.414 49.915 26.5295C50.0836 26.6431 50.2971 26.7 50.5556 26.7ZM54.0703 24.6435V27.1838H53.4215V22.961H54.0483V23.6208H54.1033C54.2023 23.4063 54.3526 23.2341 54.5542 23.1039C54.7558 22.972 55.0161 22.906 55.335 22.906C55.6209 22.906 55.8711 22.9646 56.0855 23.0819C56.3 23.1974 56.4668 23.3734 56.5859 23.6098C56.705 23.8444 56.7646 24.1413 56.7646 24.5006V27.1838H56.1158V24.5445C56.1158 24.2128 56.0296 23.9544 55.8573 23.7692C55.6851 23.5823 55.4486 23.4888 55.148 23.4888C54.9409 23.4888 54.7558 23.5337 54.5927 23.6235C54.4314 23.7133 54.304 23.8444 54.2105 24.0167C54.1171 24.189 54.0703 24.3979 54.0703 24.6435ZM59.9059 27.1838V21.5533H63.282V22.1582H60.5878V24.0607H63.0291V24.6655H60.5878V27.1838H59.9059ZM65.6125 27.2718C65.2313 27.2718 64.8968 27.1811 64.6091 26.9996C64.3231 26.8182 64.0995 26.5643 63.9382 26.2381C63.7788 25.9118 63.699 25.5306 63.699 25.0944C63.699 24.6545 63.7788 24.2705 63.9382 23.9425C64.0995 23.6144 64.3231 23.3596 64.6091 23.1782C64.8968 22.9967 65.2313 22.906 65.6125 22.906C65.9938 22.906 66.3273 22.9967 66.6133 23.1782C66.901 23.3596 67.1246 23.6144 67.2841 23.9425C67.4454 24.2705 67.526 24.6545 67.526 25.0944C67.526 25.5306 67.4454 25.9118 67.2841 26.2381C67.1246 26.5643 66.901 26.8182 66.6133 26.9996C66.3273 27.1811 65.9938 27.2718 65.6125 27.2718ZM65.6125 26.689C65.9021 26.689 66.1404 26.6147 66.3273 26.4663C66.5143 26.3178 66.6527 26.1226 66.7425 25.8807C66.8323 25.6387 66.8772 25.3767 66.8772 25.0944C66.8772 24.8121 66.8323 24.5491 66.7425 24.3054C66.6527 24.0616 66.5143 23.8646 66.3273 23.7143C66.1404 23.564 65.9021 23.4888 65.6125 23.4888C65.3229 23.4888 65.0847 23.564 64.8977 23.7143C64.7108 23.8646 64.5724 24.0616 64.4826 24.3054C64.3928 24.5491 64.3479 24.8121 64.3479 25.0944C64.3479 25.3767 64.3928 25.6387 64.4826 25.8807C64.5724 26.1226 64.7108 26.3178 64.8977 26.4663C65.0847 26.6147 65.3229 26.689 65.6125 26.689ZM70.0772 27.2718C69.6959 27.2718 69.3614 27.1811 69.0737 26.9996C68.7877 26.8182 68.5641 26.5643 68.4028 26.2381C68.2434 25.9118 68.1637 25.5306 68.1637 25.0944C68.1637 24.6545 68.2434 24.2705 68.4028 23.9425C68.5641 23.6144 68.7877 23.3596 69.0737 23.1782C69.3614 22.9967 69.6959 22.906 70.0772 22.906C70.4584 22.906 70.792 22.9967 71.0779 23.1782C71.3656 23.3596 71.5892 23.6144 71.7487 23.9425C71.91 24.2705 71.9906 24.6545 71.9906 25.0944C71.9906 25.5306 71.91 25.9118 71.7487 26.2381C71.5892 26.5643 71.3656 26.8182 71.0779 26.9996C70.792 27.1811 70.4584 27.2718 70.0772 27.2718ZM70.0772 26.689C70.3667 26.689 70.605 26.6147 70.792 26.4663C70.9789 26.3178 71.1173 26.1226 71.2071 25.8807C71.2969 25.6387 71.3418 25.3767 71.3418 25.0944C71.3418 24.8121 71.2969 24.5491 71.2071 24.3054C71.1173 24.0616 70.9789 23.8646 70.792 23.7143C70.605 23.564 70.3667 23.4888 70.0772 23.4888C69.7876 23.4888 69.5493 23.564 69.3623 23.7143C69.1754 23.8646 69.037 24.0616 68.9472 24.3054C68.8574 24.5491 68.8125 24.8121 68.8125 25.0944C68.8125 25.3767 68.8574 25.6387 68.9472 25.8807C69.037 26.1226 69.1754 26.3178 69.3623 26.4663C69.5493 26.6147 69.7876 26.689 70.0772 26.689ZM74.4208 27.2718C74.0689 27.2718 73.7582 27.1829 73.4888 27.0051C73.2194 26.8255 73.0086 26.5726 72.8565 26.2463C72.7043 25.9183 72.6283 25.5306 72.6283 25.0834C72.6283 24.6398 72.7043 24.255 72.8565 23.9287C73.0086 23.6025 73.2203 23.3504 73.4915 23.1727C73.7628 22.9949 74.0762 22.906 74.4318 22.906C74.7067 22.906 74.9239 22.9518 75.0834 23.0434C75.2447 23.1333 75.3675 23.2359 75.4518 23.3514C75.5379 23.465 75.6048 23.5585 75.6525 23.6318H75.7075V21.5533H76.3563V27.1838H75.7295V26.535H75.6525C75.6048 26.612 75.537 26.7091 75.449 26.8264C75.361 26.9419 75.2355 27.0455 75.0724 27.1371C74.9093 27.2269 74.6921 27.2718 74.4208 27.2718ZM74.5088 26.689C74.769 26.689 74.989 26.6212 75.1686 26.4855C75.3482 26.3481 75.4848 26.1584 75.5782 25.9164C75.6717 25.6727 75.7185 25.3913 75.7185 25.0724C75.7185 24.7572 75.6726 24.4813 75.581 24.2449C75.4893 24.0066 75.3537 23.8215 75.1741 23.6895C74.9945 23.5557 74.7727 23.4888 74.5088 23.4888C74.2338 23.4888 74.0047 23.5594 73.8215 23.7005C73.64 23.8398 73.5035 24.0295 73.4118 24.2696C73.322 24.5079 73.2771 24.7755 73.2771 25.0724C73.2771 25.373 73.3229 25.6461 73.4146 25.8917C73.508 26.1355 73.6455 26.3297 73.827 26.4745C74.0102 26.6175 74.2375 26.689 74.5088 26.689Z" fill="#353FD7"/>
<path d="M36.4961 28.7234H77.0381V29.2513H36.4961V28.7234Z" fill="#353FD7"/>
<path d="M25.2021 28.4784C27.6199 28.4784 29.58 26.5184 29.58 24.1005C29.58 21.6827 27.6199 19.7227 25.2021 19.7227C22.7843 19.7227 20.8242 21.6827 20.8242 24.1005C20.8242 26.5184 22.7843 28.4784 25.2021 28.4784Z" stroke="#353FD7" stroke-width="0.829493" stroke-linecap="round" stroke-linejoin="round"/>
<path d="M30.0408 28.9392L29.1191 28.0176" stroke="#353FD7" stroke-width="0.829493" stroke-linecap="round" stroke-linejoin="round"/>
<rect x="8.84766" y="43.1337" width="222.304" height="30.9677" rx="8" fill="white"/>
<path d="M20.59 61.4696V55.8391H22.4925C22.9342 55.8391 23.2953 55.9188 23.5757 56.0783C23.858 56.2359 24.0669 56.4494 24.2026 56.7189C24.3382 56.9883 24.406 57.2889 24.406 57.6206C24.406 57.9524 24.3382 58.2539 24.2026 58.5251C24.0688 58.7964 23.8616 59.0127 23.5812 59.174C23.3008 59.3334 22.9416 59.4132 22.5035 59.4132H21.1399V58.8083H22.4815C22.7839 58.8083 23.0268 58.7561 23.2101 58.6516C23.3934 58.5471 23.5262 58.406 23.6087 58.2282C23.693 58.0486 23.7352 57.8461 23.7352 57.6206C23.7352 57.3952 23.693 57.1936 23.6087 57.0158C23.5262 56.838 23.3924 56.6987 23.2073 56.5979C23.0222 56.4953 22.7766 56.4439 22.4705 56.4439H21.2718V61.4696H20.59ZM25.2615 61.4696V57.2467H25.9103V61.4696H25.2615ZM25.5914 56.5429C25.465 56.5429 25.3559 56.4998 25.2643 56.4137C25.1745 56.3276 25.1296 56.224 25.1296 56.103C25.1296 55.9821 25.1745 55.8785 25.2643 55.7924C25.3559 55.7062 25.465 55.6632 25.5914 55.6632C25.7179 55.6632 25.826 55.7062 25.9158 55.7924C26.0075 55.8785 26.0533 55.9821 26.0533 56.103C26.0533 56.224 26.0075 56.3276 25.9158 56.4137C25.826 56.4998 25.7179 56.5429 25.5914 56.5429ZM26.8229 61.4696V60.9747L29.2203 57.8956V57.8516H26.8999V57.2467H30.056V57.7636L27.7247 60.8208V60.8648H30.133V61.4696H26.8229ZM30.8566 61.4696V60.9747L33.2539 57.8956V57.8516H30.9336V57.2467H34.0897V57.7636L31.7583 60.8208V60.8648H34.1667V61.4696H30.8566ZM36.2539 61.5686C35.9863 61.5686 35.7434 61.5182 35.5253 61.4174C35.3072 61.3147 35.134 61.1672 35.0057 60.9747C34.8774 60.7805 34.8133 60.5459 34.8133 60.2709C34.8133 60.029 34.8609 59.8329 34.9562 59.6826C35.0515 59.5305 35.1789 59.4113 35.3384 59.3252C35.4978 59.239 35.6738 59.1749 35.8662 59.1327C36.0605 59.0887 36.2557 59.0539 36.4518 59.0283C36.7084 58.9953 36.9165 58.9705 37.0759 58.954C37.2372 58.9357 37.3545 58.9055 37.4278 58.8633C37.503 58.8211 37.5405 58.7478 37.5405 58.6434V58.6214C37.5405 58.3501 37.4663 58.1393 37.3179 57.989C37.1712 57.8387 36.9485 57.7636 36.6498 57.7636C36.34 57.7636 36.0972 57.8314 35.9212 57.967C35.7453 58.1027 35.6216 58.2475 35.5501 58.4014L34.9342 58.1815C35.0442 57.9249 35.1908 57.7251 35.3741 57.5821C35.5592 57.4373 35.7609 57.3365 35.979 57.2797C36.1989 57.2211 36.4152 57.1917 36.6278 57.1917C36.7634 57.1917 36.9192 57.2082 37.0952 57.2412C37.2729 57.2724 37.4443 57.3375 37.6093 57.4364C37.7761 57.5354 37.9144 57.6848 38.0244 57.8846C38.1344 58.0843 38.1894 58.3519 38.1894 58.6873V61.4696H37.5405V60.8978H37.5076C37.4636 60.9894 37.3903 61.0875 37.2876 61.1919C37.185 61.2964 37.0484 61.3853 36.878 61.4586C36.7075 61.5319 36.4995 61.5686 36.2539 61.5686ZM36.3529 60.9857C36.6095 60.9857 36.8257 60.9353 37.0017 60.8345C37.1795 60.7337 37.3133 60.6036 37.4031 60.4441C37.4947 60.2847 37.5405 60.117 37.5405 59.941V59.3472C37.5131 59.3802 37.4526 59.4104 37.3591 59.4379C37.2674 59.4636 37.1611 59.4865 37.0402 59.5066C36.921 59.525 36.8047 59.5415 36.691 59.5561C36.5792 59.5689 36.4885 59.5799 36.4188 59.5891C36.2502 59.6111 36.0926 59.6468 35.946 59.6963C35.8012 59.744 35.6839 59.8164 35.5941 59.9135C35.5061 60.0088 35.4621 60.139 35.4621 60.3039C35.4621 60.5294 35.5455 60.6998 35.7123 60.8153C35.8809 60.9289 36.0944 60.9857 36.3529 60.9857Z" fill="#353FD7"/>
<path d="M19.9082 63.0092H38.7832V63.5371H19.9082V63.0092Z" fill="#353FD7"/>
<path d="M216.039 58.2495L219.062 55.2264" stroke="#353FD7" stroke-width="0.829493" stroke-linecap="round" stroke-linejoin="round"/>
<path d="M219.357 56.7011V54.9315H217.588" stroke="#353FD7" stroke-width="0.829493" stroke-linecap="round" stroke-linejoin="round"/>
<path d="M215.302 54.9315H214.565C212.722 54.9315 211.984 55.6688 211.984 57.5122V59.7241C211.984 61.5675 212.722 62.3048 214.565 62.3048H216.777C218.62 62.3048 219.358 61.5675 219.358 59.7241V58.9868" stroke="#353FD7" stroke-width="0.829493" stroke-linecap="round" stroke-linejoin="round"/>
<rect x="8.84766" y="77.4193" width="222.304" height="30.9677" rx="8" fill="white"/>
<path d="M23.6692 91.5324C23.6362 91.2538 23.5024 91.0375 23.2678 90.8835C23.0332 90.7296 22.7454 90.6526 22.4045 90.6526C22.1553 90.6526 21.9372 90.6929 21.7502 90.7736C21.5651 90.8542 21.4203 90.9651 21.3158 91.1062C21.2132 91.2474 21.1619 91.4077 21.1619 91.5874C21.1619 91.7377 21.1976 91.8669 21.2691 91.975C21.3424 92.0813 21.4359 92.1702 21.5495 92.2417C21.6632 92.3113 21.7823 92.3691 21.9069 92.4149C22.0316 92.4589 22.1461 92.4946 22.2506 92.5221L22.8224 92.6761C22.9691 92.7146 23.1322 92.7677 23.3118 92.8355C23.4932 92.9033 23.6665 92.9959 23.8314 93.1132C23.9982 93.2287 24.1357 93.3771 24.2438 93.5586C24.3519 93.74 24.406 93.9627 24.406 94.2267C24.406 94.5309 24.3263 94.8058 24.1668 95.0514C24.0092 95.297 23.7783 95.4922 23.474 95.637C23.1716 95.7818 22.8041 95.8542 22.3715 95.8542C21.9683 95.8542 21.6192 95.7892 21.3241 95.659C21.0308 95.5289 20.7999 95.3474 20.6313 95.1147C20.4645 94.8819 20.3701 94.6116 20.3481 94.3036H21.0519C21.0702 94.5162 21.1417 94.6922 21.2663 94.8315C21.3928 94.969 21.5523 95.0716 21.7447 95.1394C21.939 95.2054 22.1479 95.2384 22.3715 95.2384C22.6318 95.2384 22.8655 95.1962 23.0726 95.1119C23.2797 95.0258 23.4438 94.9066 23.5647 94.7545C23.6857 94.6006 23.7462 94.4209 23.7462 94.2157C23.7462 94.0287 23.6939 93.8766 23.5895 93.7593C23.485 93.642 23.3475 93.5467 23.1771 93.4734C23.0066 93.4 22.8224 93.3359 22.6245 93.2809L21.9317 93.083C21.4918 92.9565 21.1435 92.776 20.8869 92.5414C20.6303 92.3068 20.502 91.9998 20.502 91.6204C20.502 91.3051 20.5873 91.0302 20.7577 90.7956C20.93 90.5591 21.161 90.3759 21.4505 90.2457C21.742 90.1138 22.0673 90.0478 22.4265 90.0478C22.7894 90.0478 23.112 90.1128 23.3943 90.243C23.6765 90.3713 23.9001 90.5472 24.0651 90.7708C24.2319 90.9944 24.3199 91.2483 24.329 91.5324H23.6692ZM25.2842 97.3388V91.5324H25.911V92.2032H25.988C26.0357 92.1299 26.1017 92.0364 26.186 91.9228C26.2721 91.8073 26.3949 91.7047 26.5544 91.6149C26.7157 91.5232 26.9338 91.4774 27.2087 91.4774C27.5643 91.4774 27.8777 91.5663 28.1489 91.7441C28.4202 91.9219 28.6319 92.1739 28.784 92.5001C28.9361 92.8264 29.0122 93.2113 29.0122 93.6548C29.0122 94.102 28.9361 94.4897 28.784 94.8177C28.6319 95.144 28.4211 95.3969 28.1517 95.5765C27.8823 95.7543 27.5716 95.8432 27.2197 95.8432C26.9484 95.8432 26.7312 95.7983 26.5681 95.7085C26.405 95.6169 26.2794 95.5133 26.1915 95.3978C26.1035 95.2805 26.0357 95.1834 25.988 95.1064H25.933V97.3388H25.2842ZM25.922 93.6438C25.922 93.9627 25.9688 94.2441 26.0622 94.4878C26.1557 94.7298 26.2923 94.9195 26.4719 95.0569C26.6515 95.1926 26.8714 95.2604 27.1317 95.2604C27.403 95.2604 27.6293 95.1889 27.8108 95.0459C27.9941 94.9011 28.1315 94.7069 28.2232 94.4631C28.3166 94.2175 28.3634 93.9444 28.3634 93.6438C28.3634 93.3469 28.3176 93.0793 28.2259 92.841C28.1361 92.6009 27.9996 92.4112 27.8163 92.2719C27.6348 92.1308 27.4066 92.0602 27.1317 92.0602C26.8678 92.0602 26.646 92.1271 26.4664 92.2609C26.2868 92.3929 26.1511 92.578 26.0595 92.8163C25.9679 93.0527 25.922 93.3286 25.922 93.6438ZM31.0898 95.8542C30.8222 95.8542 30.5793 95.8038 30.3612 95.703C30.1431 95.6004 29.9699 95.4528 29.8416 95.2604C29.7133 95.0661 29.6492 94.8315 29.6492 94.5566C29.6492 94.3146 29.6968 94.1185 29.7921 93.9682C29.8874 93.8161 30.0148 93.697 30.1743 93.6108C30.3337 93.5247 30.5097 93.4605 30.7021 93.4184C30.8964 93.3744 31.0916 93.3396 31.2877 93.3139C31.5443 93.2809 31.7523 93.2562 31.9118 93.2397C32.0731 93.2213 32.1904 93.1911 32.2637 93.1489C32.3389 93.1068 32.3764 93.0335 32.3764 92.929V92.907C32.3764 92.6357 32.3022 92.425 32.1537 92.2747C32.0071 92.1244 31.7844 92.0492 31.4857 92.0492C31.1759 92.0492 30.9331 92.1171 30.7571 92.2527C30.5812 92.3883 30.4574 92.5331 30.386 92.6871L29.7701 92.4671C29.8801 92.2105 30.0267 92.0107 30.21 91.8678C30.3951 91.723 30.5967 91.6222 30.8148 91.5654C31.0348 91.5067 31.2511 91.4774 31.4637 91.4774C31.5993 91.4774 31.7551 91.4939 31.931 91.5269C32.1088 91.558 32.2802 91.6231 32.4452 91.7221C32.612 91.821 32.7503 91.9704 32.8603 92.1702C32.9703 92.37 33.0253 92.6376 33.0253 92.973V95.7552H32.3764V95.1834H32.3434C32.2995 95.275 32.2261 95.3731 32.1235 95.4776C32.0209 95.582 31.8843 95.6709 31.7139 95.7443C31.5434 95.8176 31.3354 95.8542 31.0898 95.8542ZM31.1887 95.2714C31.4453 95.2714 31.6616 95.221 31.8376 95.1202C32.0154 95.0194 32.1492 94.8892 32.239 94.7298C32.3306 94.5703 32.3764 94.4026 32.3764 94.2267V93.6328C32.3489 93.6658 32.2885 93.696 32.195 93.7235C32.1033 93.7492 31.997 93.7721 31.8761 93.7923C31.7569 93.8106 31.6405 93.8271 31.5269 93.8418C31.4151 93.8546 31.3244 93.8656 31.2547 93.8748C31.0861 93.8967 30.9285 93.9325 30.7819 93.982C30.6371 94.0296 30.5198 94.102 30.4299 94.1992C30.342 94.2945 30.298 94.4246 30.298 94.5896C30.298 94.815 30.3814 94.9855 30.5482 95.1009C30.7168 95.2146 30.9303 95.2714 31.1887 95.2714ZM35.7592 97.4268C35.4458 97.4268 35.1764 97.3865 34.9509 97.3058C34.7255 97.227 34.5376 97.1226 34.3873 96.9924C34.2389 96.8641 34.1206 96.7267 34.0327 96.58L34.5495 96.2171C34.6082 96.2941 34.6824 96.3821 34.7722 96.4811C34.862 96.5819 34.9848 96.6689 35.1406 96.7422C35.2983 96.8174 35.5044 96.855 35.7592 96.855C36.1001 96.855 36.3815 96.7725 36.6032 96.6075C36.825 96.4426 36.9359 96.1841 36.9359 95.8322V94.9745H36.8809C36.8333 95.0514 36.7654 95.1467 36.6775 95.2604C36.5913 95.3722 36.4667 95.4721 36.3036 95.5601C36.1423 95.6462 35.9242 95.6893 35.6492 95.6893C35.3083 95.6893 35.0022 95.6086 34.731 95.4473C34.4616 95.286 34.248 95.0514 34.0904 94.7435C33.9346 94.4356 33.8567 94.0617 33.8567 93.6218C33.8567 93.1893 33.9328 92.8126 34.0849 92.4919C34.237 92.1693 34.4487 91.92 34.72 91.7441C34.9912 91.5663 35.3047 91.4774 35.6602 91.4774C35.9352 91.4774 36.1533 91.5232 36.3146 91.6149C36.4777 91.7047 36.6023 91.8073 36.6885 91.9228C36.7764 92.0364 36.8443 92.1299 36.8919 92.2032H36.9579V91.5324H37.5847V95.8762C37.5847 96.2391 37.5022 96.5342 37.3373 96.7615C37.1742 96.9906 36.9542 97.1583 36.6775 97.2646C36.4025 97.3727 36.0965 97.4268 35.7592 97.4268ZM35.7372 95.1064C35.9975 95.1064 36.2174 95.0469 36.397 94.9277C36.5767 94.8086 36.7132 94.6372 36.8067 94.4136C36.9002 94.19 36.9469 93.9224 36.9469 93.6108C36.9469 93.3066 36.9011 93.0381 36.8094 92.8053C36.7178 92.5725 36.5822 92.3901 36.4025 92.2582C36.2229 92.1262 36.0011 92.0602 35.7372 92.0602C35.4623 92.0602 35.2332 92.1299 35.0499 92.2692C34.8684 92.4085 34.7319 92.5954 34.6403 92.83C34.5505 93.0646 34.5055 93.3249 34.5055 93.6108C34.5055 93.9041 34.5514 94.1634 34.643 94.3889C34.7365 94.6125 34.8739 94.7884 35.0554 94.9167C35.2387 95.0432 35.466 95.1064 35.7372 95.1064ZM39.2664 93.2149V95.7552H38.6176V90.1248H39.2664V92.1922H39.3214C39.4204 91.9741 39.5688 91.8009 39.7668 91.6726C39.9665 91.5425 40.2323 91.4774 40.564 91.4774C40.8518 91.4774 41.1038 91.5351 41.3201 91.6506C41.5364 91.7642 41.7041 91.9393 41.8232 92.1757C41.9442 92.4103 42.0047 92.7091 42.0047 93.072V95.7552H41.3558V93.116C41.3558 92.7805 41.2688 92.5212 41.0947 92.3379C40.9224 92.1528 40.6832 92.0602 40.3771 92.0602C40.1645 92.0602 39.9739 92.1051 39.8053 92.1949C39.6385 92.2848 39.5065 92.4158 39.4094 92.5881C39.3141 92.7604 39.2664 92.9693 39.2664 93.2149ZM44.8074 95.8432C44.4005 95.8432 44.0495 95.7534 43.7544 95.5738C43.4611 95.3923 43.2348 95.1394 43.0753 94.815C42.9177 94.4888 42.8389 94.1094 42.8389 93.6768C42.8389 93.2443 42.9177 92.863 43.0753 92.5331C43.2348 92.2014 43.4565 91.9429 43.7406 91.7578C44.0266 91.5709 44.3601 91.4774 44.7414 91.4774C44.9613 91.4774 45.1785 91.514 45.3929 91.5874C45.6074 91.6607 45.8026 91.7798 45.9785 91.9448C46.1545 92.1079 46.2947 92.3242 46.3992 92.5936C46.5036 92.863 46.5559 93.1948 46.5559 93.5888V93.8638H43.3008V93.3029H45.8961C45.8961 93.0646 45.8484 92.852 45.7531 92.6651C45.6596 92.4781 45.5258 92.3306 45.3517 92.2224C45.1794 92.1143 44.976 92.0602 44.7414 92.0602C44.4829 92.0602 44.2593 92.1244 44.0705 92.2527C43.8836 92.3791 43.7397 92.5441 43.6389 92.7476C43.5381 92.951 43.4877 93.1691 43.4877 93.4019V93.7758C43.4877 94.0947 43.5427 94.365 43.6527 94.5868C43.7645 94.8068 43.9193 94.9745 44.1173 95.0899C44.3152 95.2036 44.5453 95.2604 44.8074 95.2604C44.9778 95.2604 45.1318 95.2366 45.2692 95.1889C45.4085 95.1394 45.5286 95.0661 45.6294 94.969C45.7302 94.87 45.8081 94.7472 45.8631 94.6006L46.4899 94.7765C46.4239 94.9891 46.313 95.1761 46.1572 95.3374C46.0014 95.4968 45.809 95.6215 45.5799 95.7113C45.3508 95.7992 45.0933 95.8432 44.8074 95.8432ZM49.2245 91.5324V92.0822H47.0361V91.5324H49.2245ZM47.674 90.5206H48.3228V94.5456C48.3228 94.7289 48.3494 94.8663 48.4025 94.958C48.4575 95.0478 48.5271 95.1083 48.6115 95.1394C48.6976 95.1687 48.7883 95.1834 48.8836 95.1834C48.9551 95.1834 49.0138 95.1797 49.0596 95.1724C49.1054 95.1632 49.1421 95.1559 49.1696 95.1504L49.3015 95.7333C49.2575 95.7498 49.1961 95.7662 49.1173 95.7827C49.0385 95.8011 48.9386 95.8102 48.8177 95.8102C48.6344 95.8102 48.4547 95.7708 48.2788 95.692C48.1047 95.6132 47.9599 95.4932 47.8444 95.3319C47.7308 95.1706 47.674 94.9671 47.674 94.7215V90.5206ZM51.8822 91.5324V92.0822H49.6938V91.5324H51.8822ZM50.3316 90.5206H50.9804V94.5456C50.9804 94.7289 51.007 94.8663 51.0602 94.958C51.1152 95.0478 51.1848 95.1083 51.2691 95.1394C51.3553 95.1687 51.446 95.1834 51.5413 95.1834C51.6128 95.1834 51.6714 95.1797 51.7172 95.1724C51.7631 95.1632 51.7997 95.1559 51.8272 95.1504L51.9592 95.7333C51.9152 95.7498 51.8538 95.7662 51.775 95.7827C51.6962 95.8011 51.5963 95.8102 51.4753 95.8102C51.292 95.8102 51.1124 95.7708 50.9365 95.692C50.7623 95.6132 50.6175 95.4932 50.5021 95.3319C50.3884 95.1706 50.3316 94.9671 50.3316 94.7215V90.5206ZM52.7034 95.7552V91.5324H53.3522V95.7552H52.7034ZM53.0333 90.8286C52.9068 90.8286 52.7977 90.7855 52.7061 90.6993C52.6163 90.6132 52.5714 90.5096 52.5714 90.3887C52.5714 90.2677 52.6163 90.1642 52.7061 90.078C52.7977 89.9919 52.9068 89.9488 53.0333 89.9488C53.1597 89.9488 53.2679 89.9919 53.3577 90.078C53.4493 90.1642 53.4951 90.2677 53.4951 90.3887C53.4951 90.5096 53.4493 90.6132 53.3577 90.6993C53.2679 90.7855 53.1597 90.8286 53.0333 90.8286Z" fill="#353FD7"/>
<path d="M19.9082 97.2948H53.946V97.8227H19.9082V97.2948Z" fill="#353FD7"/>
<path d="M216.039 92.5351L219.062 89.5121" stroke="#353FD7" stroke-width="0.829493" stroke-linecap="round" stroke-linejoin="round"/>
<path d="M219.357 90.9867V89.2172H217.588" stroke="#353FD7" stroke-width="0.829493" stroke-linecap="round" stroke-linejoin="round"/>
<path d="M215.302 89.2172H214.565C212.722 89.2172 211.984 89.9545 211.984 91.7978V94.0098C211.984 95.8531 212.722 96.5904 214.565 96.5904H216.777C218.62 96.5904 219.358 95.8531 219.358 94.0098V93.2725" stroke="#353FD7" stroke-width="0.829493" stroke-linecap="round" stroke-linejoin="round"/>
</svg>
