<svg width="240" height="150" viewBox="0 0 240 150" fill="none" xmlns="http://www.w3.org/2000/svg">
<rect width="240" height="202.396" rx="12" fill="#F1F1F1"/>
<rect x="8.84766" y="8.84766" width="222.304" height="30.9677" rx="8" fill="white"/>
<path d="M41.7087 23.3126H41.0269C40.9866 23.1165 40.916 22.9442 40.8152 22.7958C40.7162 22.6473 40.5953 22.5227 40.4523 22.4219C40.3112 22.3192 40.1545 22.2422 39.9822 22.1909C39.8099 22.1396 39.6303 22.1139 39.4433 22.1139C39.1024 22.1139 38.7936 22.2001 38.5168 22.3724C38.2419 22.5447 38.0229 22.7985 37.8597 23.1339C37.6984 23.4693 37.6178 23.8808 37.6178 24.3683C37.6178 24.8559 37.6984 25.2674 37.8597 25.6028C38.0229 25.9382 38.2419 26.192 38.5168 26.3643C38.7936 26.5366 39.1024 26.6227 39.4433 26.6227C39.6303 26.6227 39.8099 26.5971 39.9822 26.5458C40.1545 26.4944 40.3112 26.4184 40.4523 26.3176C40.5953 26.2149 40.7162 26.0894 40.8152 25.9409C40.916 25.7906 40.9866 25.6183 41.0269 25.4241H41.7087C41.6574 25.7118 41.5639 25.9693 41.4283 26.1966C41.2926 26.4239 41.124 26.6172 40.9224 26.7767C40.7208 26.9343 40.4944 27.0544 40.2433 27.1369C39.9941 27.2193 39.7274 27.2606 39.4433 27.2606C38.9631 27.2606 38.536 27.1433 38.1621 26.9087C37.7882 26.6741 37.4941 26.3405 37.2796 25.9079C37.0652 25.4754 36.958 24.9622 36.958 24.3683C36.958 23.7745 37.0652 23.2613 37.2796 22.8288C37.4941 22.3962 37.7882 22.0626 38.1621 21.828C38.536 21.5934 38.9631 21.4761 39.4433 21.4761C39.7274 21.4761 39.9941 21.5174 40.2433 21.5998C40.4944 21.6823 40.7208 21.8033 40.9224 21.9627C41.124 22.1204 41.2926 22.3128 41.4283 22.5401C41.5639 22.7655 41.6574 23.023 41.7087 23.3126ZM43.8103 27.2826C43.5427 27.2826 43.2999 27.2322 43.0818 27.1314C42.8637 27.0287 42.6905 26.8812 42.5622 26.6887C42.4339 26.4944 42.3697 26.2598 42.3697 25.9849C42.3697 25.743 42.4174 25.5469 42.5127 25.3966C42.608 25.2444 42.7354 25.1253 42.8948 25.0392C43.0543 24.953 43.2302 24.8889 43.4227 24.8467C43.617 24.8027 43.8122 24.7679 44.0083 24.7422C44.2649 24.7093 44.4729 24.6845 44.6324 24.668C44.7936 24.6497 44.9109 24.6194 44.9843 24.5773C45.0594 24.5351 45.097 24.4618 45.097 24.3573V24.3354C45.097 24.0641 45.0228 23.8533 44.8743 23.703C44.7277 23.5527 44.505 23.4776 44.2062 23.4776C43.8965 23.4776 43.6536 23.5454 43.4777 23.681C43.3017 23.8167 43.178 23.9615 43.1065 24.1154L42.4907 23.8955C42.6006 23.6389 42.7473 23.4391 42.9306 23.2961C43.1157 23.1513 43.3173 23.0505 43.5354 22.9937C43.7553 22.9351 43.9716 22.9057 44.1842 22.9057C44.3199 22.9057 44.4756 22.9222 44.6516 22.9552C44.8294 22.9864 45.0008 23.0514 45.1657 23.1504C45.3325 23.2494 45.4709 23.3988 45.5809 23.5985C45.6908 23.7983 45.7458 24.0659 45.7458 24.4013V27.1836H45.097V26.6117H45.064C45.02 26.7034 44.9467 26.8014 44.8441 26.9059C44.7414 27.0104 44.6049 27.0993 44.4344 27.1726C44.264 27.2459 44.0559 27.2826 43.8103 27.2826ZM43.9093 26.6997C44.1659 26.6997 44.3822 26.6493 44.5581 26.5485C44.7359 26.4477 44.8697 26.3176 44.9595 26.1581C45.0512 25.9987 45.097 25.831 45.097 25.655V25.0612C45.0695 25.0942 45.009 25.1244 44.9155 25.1519C44.8239 25.1775 44.7176 25.2005 44.5966 25.2206C44.4775 25.2389 44.3611 25.2554 44.2475 25.2701C44.1357 25.2829 44.0449 25.2939 43.9753 25.3031C43.8067 25.3251 43.649 25.3608 43.5024 25.4103C43.3576 25.458 43.2403 25.5304 43.1505 25.6275C43.0625 25.7228 43.0185 25.8529 43.0185 26.0179C43.0185 26.2433 43.1019 26.4138 43.2687 26.5293C43.4373 26.6429 43.6509 26.6997 43.9093 26.6997ZM46.7752 27.1836V22.9607H47.402V23.5985H47.446C47.523 23.3896 47.6623 23.2201 47.8639 23.0899C48.0655 22.9598 48.2928 22.8947 48.5457 22.8947C48.5934 22.8947 48.653 22.8957 48.7244 22.8975C48.7959 22.8993 48.85 22.9021 48.8867 22.9057V23.5656C48.8647 23.5601 48.8143 23.5518 48.7354 23.5408C48.6585 23.528 48.5769 23.5216 48.4908 23.5216C48.2855 23.5216 48.1022 23.5646 47.9409 23.6508C47.7814 23.7351 47.655 23.8524 47.5615 24.0027C47.4699 24.1512 47.424 24.3207 47.424 24.5113V27.1836H46.7752Z" fill="#353FD7"/>
<path d="M36.4961 28.7232H49.0626V29.251H36.4961V28.7232Z" fill="#353FD7"/>
<path d="M25.2099 28.4782C27.6277 28.4782 29.5878 26.5181 29.5878 24.1003C29.5878 21.6825 27.6277 19.7224 25.2099 19.7224C22.7921 19.7224 20.832 21.6825 20.832 24.1003C20.832 26.5181 22.7921 28.4782 25.2099 28.4782Z" stroke="#353FD7" stroke-width="0.829493" stroke-linecap="round" stroke-linejoin="round"/>
<path d="M30.0486 28.939L29.127 28.0173" stroke="#353FD7" stroke-width="0.829493" stroke-linecap="round" stroke-linejoin="round"/>
<rect x="8.84766" y="43.1335" width="222.304" height="30.9677" rx="8" fill="white"/>
<path d="M20.59 61.4695V55.839H22.4925C22.9324 55.839 23.2935 55.9141 23.5757 56.0644C23.858 56.2129 24.0669 56.4172 24.2026 56.6775C24.3382 56.9378 24.406 57.2338 24.406 57.5655C24.406 57.8973 24.3382 58.1914 24.2026 58.448C24.0669 58.7046 23.8589 58.9062 23.5785 59.0529C23.298 59.1977 22.9397 59.2701 22.5035 59.2701H20.9639V58.6542H22.4815C22.7821 58.6542 23.024 58.6102 23.2073 58.5223C23.3924 58.4343 23.5262 58.3097 23.6087 58.1484C23.693 57.9852 23.7352 57.791 23.7352 57.5655C23.7352 57.3401 23.693 57.1431 23.6087 56.9744C23.5244 56.8058 23.3897 56.6757 23.2046 56.584C23.0195 56.4906 22.7748 56.4438 22.4705 56.4438H21.2718V61.4695H20.59ZM23.2403 58.9402L24.6259 61.4695H23.8342L22.4705 58.9402H23.2403ZM26.9695 61.5575C26.5883 61.5575 26.2538 61.4667 25.966 61.2853C25.6801 61.1038 25.4565 60.85 25.2952 60.5237C25.1357 60.1975 25.056 59.8163 25.056 59.38C25.056 58.9402 25.1357 58.5562 25.2952 58.2281C25.4565 57.9 25.6801 57.6453 25.966 57.4638C26.2538 57.2823 26.5883 57.1916 26.9695 57.1916C27.3507 57.1916 27.6843 57.2823 27.9702 57.4638C28.258 57.6453 28.4816 57.9 28.6411 58.2281C28.8023 58.5562 28.883 58.9402 28.883 59.38C28.883 59.8163 28.8023 60.1975 28.6411 60.5237C28.4816 60.85 28.258 61.1038 27.9702 61.2853C27.6843 61.4667 27.3507 61.5575 26.9695 61.5575ZM26.9695 60.9746C27.2591 60.9746 27.4974 60.9004 27.6843 60.7519C27.8713 60.6035 28.0096 60.4083 28.0995 60.1663C28.1893 59.9244 28.2342 59.6623 28.2342 59.38C28.2342 59.0978 28.1893 58.8348 28.0995 58.591C28.0096 58.3472 27.8713 58.1502 27.6843 57.9999C27.4974 57.8496 27.2591 57.7745 26.9695 57.7745C26.6799 57.7745 26.4416 57.8496 26.2547 57.9999C26.0677 58.1502 25.9294 58.3472 25.8396 58.591C25.7497 58.8348 25.7048 59.0978 25.7048 59.38C25.7048 59.6623 25.7497 59.9244 25.8396 60.1663C25.9294 60.4083 26.0677 60.6035 26.2547 60.7519C26.4416 60.9004 26.6799 60.9746 26.9695 60.9746ZM30.3674 55.839V61.4695H29.7186V55.839H30.3674ZM32.0498 55.839V61.4695H31.4009V55.839H32.0498ZM36.0745 58.1924L35.4917 58.3573C35.455 58.2602 35.4009 58.1658 35.3294 58.0741C35.2598 57.9807 35.1645 57.9037 35.0435 57.8432C34.9226 57.7827 34.7677 57.7525 34.5789 57.7525C34.3205 57.7525 34.1051 57.812 33.9328 57.9312C33.7624 58.0485 33.6771 58.1979 33.6771 58.3793C33.6771 58.5406 33.7358 58.668 33.8531 58.7615C33.9704 58.8549 34.1537 58.9328 34.4029 58.9951L35.0298 59.1491C35.4073 59.2407 35.6887 59.381 35.8738 59.5697C36.0589 59.7567 36.1515 59.9977 36.1515 60.2928C36.1515 60.5347 36.0818 60.751 35.9425 60.9416C35.8051 61.1322 35.6126 61.2825 35.3652 61.3925C35.1178 61.5025 34.83 61.5575 34.5019 61.5575C34.0712 61.5575 33.7147 61.464 33.4325 61.277C33.1502 61.0901 32.9715 60.817 32.8963 60.4578L33.5122 60.3038C33.5708 60.5311 33.6817 60.7015 33.8448 60.8152C34.0098 60.9288 34.2252 60.9856 34.4909 60.9856C34.7933 60.9856 35.0334 60.9215 35.2112 60.7932C35.3908 60.663 35.4807 60.5072 35.4807 60.3258C35.4807 60.1792 35.4293 60.0564 35.3267 59.9574C35.2241 59.8566 35.0664 59.7814 34.8538 59.7319L34.15 59.567C33.7633 59.4753 33.4792 59.3333 33.2977 59.1409C33.1181 58.9466 33.0283 58.7037 33.0283 58.4123C33.0283 58.174 33.0952 57.9633 33.229 57.78C33.3646 57.5967 33.5488 57.4528 33.7816 57.3483C34.0162 57.2439 34.282 57.1916 34.5789 57.1916C34.9968 57.1916 35.3249 57.2833 35.5631 57.4665C35.8032 57.6498 35.9737 57.8918 36.0745 58.1924ZM39.3927 58.7532V59.358H36.9293V58.7532H39.3927ZM40.4674 61.4695V55.839H42.3699C42.8098 55.839 43.1709 55.9141 43.4531 56.0644C43.7354 56.2129 43.9443 56.4172 44.08 56.6775C44.2156 56.9378 44.2834 57.2338 44.2834 57.5655C44.2834 57.8973 44.2156 58.1914 44.08 58.448C43.9443 58.7046 43.7363 58.9062 43.4559 59.0529C43.1755 59.1977 42.8171 59.2701 42.3809 59.2701H40.8413V58.6542H42.3589C42.6595 58.6542 42.9015 58.6102 43.0847 58.5223C43.2699 58.4343 43.4037 58.3097 43.4861 58.1484C43.5704 57.9852 43.6126 57.791 43.6126 57.5655C43.6126 57.3401 43.5704 57.1431 43.4861 56.9744C43.4018 56.8058 43.2671 56.6757 43.082 56.584C42.8969 56.4906 42.6522 56.4438 42.3479 56.4438H41.1493V61.4695H40.4674ZM43.1177 58.9402L44.5034 61.4695H43.7116L42.3479 58.9402H43.1177ZM46.8469 61.5575C46.4657 61.5575 46.1312 61.4667 45.8434 61.2853C45.5575 61.1038 45.3339 60.85 45.1726 60.5237C45.0132 60.1975 44.9334 59.8163 44.9334 59.38C44.9334 58.9402 45.0132 58.5562 45.1726 58.2281C45.3339 57.9 45.5575 57.6453 45.8434 57.4638C46.1312 57.2823 46.4657 57.1916 46.8469 57.1916C47.2282 57.1916 47.5617 57.2823 47.8477 57.4638C48.1354 57.6453 48.359 57.9 48.5185 58.2281C48.6798 58.5562 48.7604 58.9402 48.7604 59.38C48.7604 59.8163 48.6798 60.1975 48.5185 60.5237C48.359 60.85 48.1354 61.1038 47.8477 61.2853C47.5617 61.4667 47.2282 61.5575 46.8469 61.5575ZM46.8469 60.9746C47.1365 60.9746 47.3748 60.9004 47.5617 60.7519C47.7487 60.6035 47.8871 60.4083 47.9769 60.1663C48.0667 59.9244 48.1116 59.6623 48.1116 59.38C48.1116 59.0978 48.0667 58.8348 47.9769 58.591C47.8871 58.3472 47.7487 58.1502 47.5617 57.9999C47.3748 57.8496 47.1365 57.7745 46.8469 57.7745C46.5573 57.7745 46.3191 57.8496 46.1321 57.9999C45.9452 58.1502 45.8068 58.3472 45.717 58.591C45.6272 58.8348 45.5823 59.0978 45.5823 59.38C45.5823 59.6623 45.6272 59.9244 45.717 60.1663C45.8068 60.4083 45.9452 60.6035 46.1321 60.7519C46.3191 60.9004 46.5573 60.9746 46.8469 60.9746ZM49.8627 63.0531C49.7527 63.0531 49.6546 63.0439 49.5685 63.0256C49.4824 63.0091 49.4228 62.9926 49.3898 62.9761L49.5548 62.4042C49.7124 62.4446 49.8517 62.4592 49.9726 62.4482C50.0936 62.4372 50.2008 62.3832 50.2943 62.286C50.3896 62.1907 50.4767 62.0358 50.5555 61.8214L50.6765 61.4915L49.1149 57.2466H49.8187L50.9844 60.6117H51.0284L52.1941 57.2466H52.8979L51.1053 62.0853C51.0247 62.3034 50.9248 62.484 50.8057 62.6269C50.6865 62.7717 50.5482 62.8789 50.3905 62.9486C50.2347 63.0182 50.0588 63.0531 49.8627 63.0531ZM55.1638 61.5575C54.7679 61.5575 54.427 61.464 54.141 61.277C53.8551 61.0901 53.6352 60.8326 53.4812 60.5045C53.3272 60.1764 53.2503 59.8016 53.2503 59.38C53.2503 58.9512 53.3291 58.5727 53.4867 58.2446C53.6462 57.9147 53.8679 57.6572 54.152 57.472C54.4379 57.2851 54.7715 57.1916 55.1528 57.1916C55.4497 57.1916 55.7173 57.2466 55.9555 57.3566C56.1938 57.4665 56.389 57.6205 56.5411 57.8185C56.6933 58.0164 56.7877 58.2473 56.8243 58.5113H56.1755C56.126 58.3188 56.016 58.1484 55.8456 57.9999C55.677 57.8496 55.4497 57.7745 55.1638 57.7745C54.9108 57.7745 54.689 57.8405 54.4984 57.9724C54.3096 58.1025 54.1621 58.2867 54.0558 58.525C53.9513 58.7615 53.8991 59.0391 53.8991 59.358C53.8991 59.6843 53.9504 59.9684 54.0531 60.2103C54.1575 60.4523 54.3042 60.6401 54.4929 60.7739C54.6835 60.9077 54.9072 60.9746 55.1638 60.9746C55.3324 60.9746 55.4854 60.9453 55.6229 60.8866C55.7603 60.828 55.8767 60.7437 55.972 60.6337C56.0673 60.5237 56.1352 60.3918 56.1755 60.2378H56.8243C56.7877 60.4871 56.6969 60.7116 56.5521 60.9114C56.4092 61.1093 56.2195 61.267 55.983 61.3843C55.7484 61.4997 55.4753 61.5575 55.1638 61.5575ZM59.3885 61.5575C58.9816 61.5575 58.6306 61.4676 58.3355 61.288C58.0423 61.1066 57.8159 60.8536 57.6565 60.5292C57.4988 60.203 57.42 59.8236 57.42 59.391C57.42 58.9585 57.4988 58.5773 57.6565 58.2473C57.8159 57.9156 58.0377 57.6572 58.3218 57.472C58.6077 57.2851 58.9413 57.1916 59.3225 57.1916C59.5425 57.1916 59.7597 57.2283 59.9741 57.3016C60.1885 57.3749 60.3837 57.494 60.5597 57.659C60.7356 57.8221 60.8759 58.0384 60.9803 58.3078C61.0848 58.5773 61.137 58.909 61.137 59.3031V59.578H57.8819V59.0171H60.4772C60.4772 58.7789 60.4296 58.5663 60.3342 58.3793C60.2408 58.1924 60.107 58.0448 59.9329 57.9367C59.7606 57.8285 59.5571 57.7745 59.3225 57.7745C59.0641 57.7745 58.8405 57.8386 58.6517 57.9669C58.4647 58.0934 58.3209 58.2583 58.2201 58.4618C58.1193 58.6652 58.0689 58.8833 58.0689 59.1161V59.49C58.0689 59.8089 58.1238 60.0793 58.2338 60.301C58.3456 60.521 58.5005 60.6887 58.6984 60.8042C58.8964 60.9178 59.1264 60.9746 59.3885 60.9746C59.559 60.9746 59.7129 60.9508 59.8504 60.9031C59.9897 60.8536 60.1097 60.7803 60.2105 60.6832C60.3113 60.5842 60.3892 60.4614 60.4442 60.3148L61.0711 60.4907C61.0051 60.7034 60.8942 60.8903 60.7384 61.0516C60.5826 61.2111 60.3902 61.3357 60.161 61.4255C59.9319 61.5135 59.6744 61.5575 59.3885 61.5575ZM64.0797 55.839H64.8935L66.807 60.5127H66.873L68.7865 55.839H69.6003V61.4695H68.9624V57.1916H68.9074L67.1479 61.4695H66.5321L64.7726 57.1916H64.7176V61.4695H64.0797V55.839ZM72.4401 61.5575C72.0588 61.5575 71.7243 61.4667 71.4366 61.2853C71.1507 61.1038 70.9271 60.85 70.7658 60.5237C70.6063 60.1975 70.5266 59.8163 70.5266 59.38C70.5266 58.9402 70.6063 58.5562 70.7658 58.2281C70.9271 57.9 71.1507 57.6453 71.4366 57.4638C71.7243 57.2823 72.0588 57.1916 72.4401 57.1916C72.8213 57.1916 73.1549 57.2823 73.4408 57.4638C73.7286 57.6453 73.9522 57.9 74.1116 58.2281C74.2729 58.5562 74.3536 58.9402 74.3536 59.38C74.3536 59.8163 74.2729 60.1975 74.1116 60.5237C73.9522 60.85 73.7286 61.1038 73.4408 61.2853C73.1549 61.4667 72.8213 61.5575 72.4401 61.5575ZM72.4401 60.9746C72.7297 60.9746 72.9679 60.9004 73.1549 60.7519C73.3418 60.6035 73.4802 60.4083 73.57 60.1663C73.6598 59.9244 73.7047 59.6623 73.7047 59.38C73.7047 59.0978 73.6598 58.8348 73.57 58.591C73.4802 58.3472 73.3418 58.1502 73.1549 57.9999C72.9679 57.8496 72.7297 57.7745 72.4401 57.7745C72.1505 57.7745 71.9122 57.8496 71.7253 57.9999C71.5383 58.1502 71.3999 58.3472 71.3101 58.591C71.2203 58.8348 71.1754 59.0978 71.1754 59.38C71.1754 59.6623 71.2203 59.9244 71.3101 60.1663C71.3999 60.4083 71.5383 60.6035 71.7253 60.7519C71.9122 60.9004 72.1505 60.9746 72.4401 60.9746ZM77.0257 57.2466V57.7965H74.8372V57.2466H77.0257ZM75.4751 56.2349H76.1239V60.2598C76.1239 60.4431 76.1505 60.5806 76.2036 60.6722C76.2586 60.762 76.3283 60.8225 76.4126 60.8536C76.4987 60.883 76.5894 60.8976 76.6847 60.8976C76.7562 60.8976 76.8149 60.894 76.8607 60.8866C76.9065 60.8775 76.9432 60.8701 76.9707 60.8646L77.1026 61.4475C77.0586 61.464 76.9972 61.4805 76.9184 61.497C76.8396 61.5153 76.7397 61.5245 76.6188 61.5245C76.4355 61.5245 76.2559 61.4851 76.0799 61.4062C75.9058 61.3274 75.761 61.2074 75.6455 61.0461C75.5319 60.8848 75.4751 60.6814 75.4751 60.4358V56.2349ZM79.517 61.5575C79.1357 61.5575 78.8013 61.4667 78.5135 61.2853C78.2276 61.1038 78.004 60.85 77.8427 60.5237C77.6832 60.1975 77.6035 59.8163 77.6035 59.38C77.6035 58.9402 77.6832 58.5562 77.8427 58.2281C78.004 57.9 78.2276 57.6453 78.5135 57.4638C78.8013 57.2823 79.1357 57.1916 79.517 57.1916C79.8982 57.1916 80.2318 57.2823 80.5177 57.4638C80.8055 57.6453 81.0291 57.9 81.1885 58.2281C81.3498 58.5562 81.4305 58.9402 81.4305 59.38C81.4305 59.8163 81.3498 60.1975 81.1885 60.5237C81.0291 60.85 80.8055 61.1038 80.5177 61.2853C80.2318 61.4667 79.8982 61.5575 79.517 61.5575ZM79.517 60.9746C79.8066 60.9746 80.0448 60.9004 80.2318 60.7519C80.4187 60.6035 80.5571 60.4083 80.6469 60.1663C80.7367 59.9244 80.7816 59.6623 80.7816 59.38C80.7816 59.0978 80.7367 58.8348 80.6469 58.591C80.5571 58.3472 80.4187 58.1502 80.2318 57.9999C80.0448 57.8496 79.8066 57.7745 79.517 57.7745C79.2274 57.7745 78.9891 57.8496 78.8022 57.9999C78.6152 58.1502 78.4768 58.3472 78.387 58.591C78.2972 58.8348 78.2523 59.0978 78.2523 59.38C78.2523 59.6623 78.2972 59.9244 78.387 60.1663C78.4768 60.4083 78.6152 60.6035 78.8022 60.7519C78.9891 60.9004 79.2274 60.9746 79.517 60.9746ZM82.2661 61.4695V57.2466H82.8929V57.8844H82.9369C83.0139 57.6755 83.1532 57.506 83.3548 57.3758C83.5564 57.2457 83.7837 57.1806 84.0366 57.1806C84.0842 57.1806 84.1438 57.1815 84.2153 57.1834C84.2868 57.1852 84.3408 57.188 84.3775 57.1916V57.8514C84.3555 57.8459 84.3051 57.8377 84.2263 57.8267C84.1493 57.8139 84.0677 57.8075 83.9816 57.8075C83.7763 57.8075 83.593 57.8505 83.4317 57.9367C83.2723 58.021 83.1458 58.1383 83.0523 58.2886C82.9607 58.437 82.9149 58.6066 82.9149 58.7972V61.4695H82.2661Z" fill="#4D4D4D"/>
<path d="M91.6331 57.5985H90.9513C90.911 57.4024 90.8404 57.2301 90.7396 57.0817C90.6406 56.9332 90.5197 56.8086 90.3767 56.7078C90.2356 56.6051 90.0789 56.5281 89.9066 56.4768C89.7343 56.4255 89.5547 56.3998 89.3677 56.3998C89.0268 56.3998 88.718 56.486 88.4412 56.6583C88.1663 56.8306 87.9473 57.0844 87.7841 57.4198C87.6228 57.7552 87.5422 58.1667 87.5422 58.6542C87.5422 59.1418 87.6228 59.5532 87.7841 59.8887C87.9473 60.2241 88.1663 60.4779 88.4412 60.6502C88.718 60.8225 89.0268 60.9086 89.3677 60.9086C89.5547 60.9086 89.7343 60.883 89.9066 60.8317C90.0789 60.7803 90.2356 60.7043 90.3767 60.6035C90.5197 60.5008 90.6406 60.3753 90.7396 60.2268C90.8404 60.0765 90.911 59.9042 90.9513 59.71H91.6331C91.5818 59.9977 91.4883 60.2552 91.3527 60.4825C91.2171 60.7098 91.0484 60.9031 90.8468 61.0626C90.6452 61.2202 90.4189 61.3403 90.1678 61.4227C89.9185 61.5052 89.6518 61.5465 89.3677 61.5465C88.8875 61.5465 88.4605 61.4292 88.0866 61.1946C87.7127 60.96 87.4185 60.6264 87.204 60.1938C86.9896 59.7613 86.8824 59.2481 86.8824 58.6542C86.8824 58.0604 86.9896 57.5472 87.204 57.1146C87.4185 56.6821 87.7127 56.3485 88.0866 56.1139C88.4605 55.8793 88.8875 55.762 89.3677 55.762C89.6518 55.762 89.9185 55.8032 90.1678 55.8857C90.4189 55.9682 90.6452 56.0892 90.8468 56.2486C91.0484 56.4062 91.2171 56.5987 91.3527 56.826C91.4883 57.0514 91.5818 57.3089 91.6331 57.5985ZM93.7347 61.5685C93.4671 61.5685 93.2243 61.5181 93.0062 61.4172C92.7881 61.3146 92.6149 61.1671 92.4866 60.9746C92.3583 60.7803 92.2941 60.5457 92.2941 60.2708C92.2941 60.0289 92.3418 59.8328 92.4371 59.6825C92.5324 59.5303 92.6598 59.4112 92.8192 59.3251C92.9787 59.2389 93.1546 59.1748 93.3471 59.1326C93.5414 59.0886 93.7366 59.0538 93.9327 59.0281C94.1893 58.9951 94.3973 58.9704 94.5568 58.9539C94.7181 58.9356 94.8354 58.9053 94.9087 58.8632C94.9838 58.821 95.0214 58.7477 95.0214 58.6432V58.6212C95.0214 58.35 94.9472 58.1392 94.7987 57.9889C94.6521 57.8386 94.4294 57.7635 94.1306 57.7635C93.8209 57.7635 93.578 57.8313 93.4021 57.9669C93.2261 58.1025 93.1024 58.2473 93.0309 58.4013L92.4151 58.1814C92.5251 57.9248 92.6717 57.725 92.855 57.582C93.0401 57.4372 93.2417 57.3364 93.4598 57.2796C93.6797 57.2209 93.896 57.1916 94.1086 57.1916C94.2443 57.1916 94.4001 57.2081 94.576 57.2411C94.7538 57.2723 94.9252 57.3373 95.0901 57.4363C95.2569 57.5353 95.3953 57.6847 95.5053 57.8844C95.6152 58.0842 95.6702 58.3518 95.6702 58.6872V61.4695H95.0214V60.8976H94.9884C94.9444 60.9893 94.8711 61.0873 94.7685 61.1918C94.6658 61.2963 94.5293 61.3852 94.3588 61.4585C94.1884 61.5318 93.9803 61.5685 93.7347 61.5685ZM93.8337 60.9856C94.0903 60.9856 94.3066 60.9352 94.4825 60.8344C94.6603 60.7336 94.7941 60.6035 94.8839 60.444C94.9756 60.2845 95.0214 60.1168 95.0214 59.9409V59.347C94.9939 59.38 94.9334 59.4103 94.8399 59.4378C94.7483 59.4634 94.642 59.4863 94.521 59.5065C94.4019 59.5248 94.2855 59.5413 94.1719 59.556C94.0601 59.5688 93.9693 59.5798 93.8997 59.589C93.7311 59.611 93.5734 59.6467 93.4268 59.6962C93.282 59.7439 93.1647 59.8163 93.0749 59.9134C92.9869 60.0087 92.9429 60.1388 92.9429 60.3038C92.9429 60.5292 93.0263 60.6997 93.1931 60.8152C93.3618 60.9288 93.5753 60.9856 93.8337 60.9856ZM96.6996 61.4695V57.2466H97.3265V57.8844H97.3704C97.4474 57.6755 97.5867 57.506 97.7883 57.3758C97.9899 57.2457 98.2172 57.1806 98.4702 57.1806C98.5178 57.1806 98.5774 57.1815 98.6489 57.1834C98.7203 57.1852 98.7744 57.188 98.8111 57.1916V57.8514C98.7891 57.8459 98.7387 57.8377 98.6599 57.8267C98.5829 57.8139 98.5013 57.8075 98.4152 57.8075C98.2099 57.8075 98.0266 57.8505 97.8653 57.9367C97.7059 58.021 97.5794 58.1383 97.4859 58.2886C97.3943 58.437 97.3485 58.6066 97.3485 58.7972V61.4695H96.6996Z" fill="#353FD7"/>
<path d="M86.4205 63.0091H98.987V63.5369H86.4205V63.0091Z" fill="#353FD7"/>
<path d="M216.031 58.2494L219.054 55.2263" stroke="#353FD7" stroke-width="0.829493" stroke-linecap="round" stroke-linejoin="round"/>
<path d="M219.35 56.701V54.9314H217.58" stroke="#353FD7" stroke-width="0.829493" stroke-linecap="round" stroke-linejoin="round"/>
<path d="M215.295 54.9314H214.557C212.714 54.9314 211.977 55.6687 211.977 57.512V59.724C211.977 61.5673 212.714 62.3047 214.557 62.3047H216.769C218.613 62.3047 219.35 61.5673 219.35 59.724V58.9867" stroke="#353FD7" stroke-width="0.829493" stroke-linecap="round" stroke-linejoin="round"/>
<rect x="8.84766" y="77.4192" width="222.304" height="30.9677" rx="8" fill="white"/>
<path d="M216.031 92.535L219.054 89.512" stroke="#353FD7" stroke-width="0.829493" stroke-linecap="round" stroke-linejoin="round"/>
<path d="M219.35 90.9866V89.217H217.58" stroke="#353FD7" stroke-width="0.829493" stroke-linecap="round" stroke-linejoin="round"/>
<path d="M215.295 89.217H214.557C212.714 89.217 211.977 89.9544 211.977 91.7977V94.0097C211.977 95.853 212.714 96.5903 214.557 96.5903H216.769C218.613 96.5903 219.35 95.853 219.35 94.0097V93.2723" stroke="#353FD7" stroke-width="0.829493" stroke-linecap="round" stroke-linejoin="round"/>
<path d="M20.2821 90.4443V89.8395H24.505V90.4443H22.7344V95.47H22.0526V90.4443H20.2821ZM26.4726 95.5579C26.0657 95.5579 25.7147 95.4681 25.4196 95.2885C25.1263 95.1071 24.9 94.8541 24.7405 94.5297C24.5829 94.2035 24.5041 93.8241 24.5041 93.3915C24.5041 92.959 24.5829 92.5777 24.7405 92.2478C24.9 91.9161 25.1218 91.6577 25.4059 91.4725C25.6918 91.2856 26.0254 91.1921 26.4066 91.1921C26.6265 91.1921 26.8437 91.2288 27.0582 91.3021C27.2726 91.3754 27.4678 91.4945 27.6438 91.6595C27.8197 91.8226 27.9599 92.0389 28.0644 92.3083C28.1689 92.5777 28.2211 92.9095 28.2211 93.3035V93.5785H24.966V93.0176H27.5613C27.5613 92.7794 27.5136 92.5667 27.4183 92.3798C27.3248 92.1928 27.191 92.0453 27.0169 91.9372C26.8446 91.829 26.6412 91.775 26.4066 91.775C26.1482 91.775 25.9246 91.8391 25.7358 91.9674C25.5488 92.0939 25.4049 92.2588 25.3041 92.4623C25.2033 92.6657 25.1529 92.8838 25.1529 93.1166V93.4905C25.1529 93.8094 25.2079 94.0798 25.3179 94.3015C25.4297 94.5215 25.5846 94.6892 25.7825 94.8046C25.9805 94.9183 26.2105 94.9751 26.4726 94.9751C26.643 94.9751 26.797 94.9513 26.9344 94.9036C27.0737 94.8541 27.1938 94.7808 27.2946 94.6837C27.3954 94.5847 27.4733 94.4619 27.5283 94.3153L28.1551 94.4912C28.0891 94.7038 27.9783 94.8908 27.8225 95.0521C27.6667 95.2115 27.4742 95.3362 27.2451 95.426C27.016 95.514 26.7585 95.5579 26.4726 95.5579ZM32.0445 92.1928L31.4616 92.3578C31.425 92.2607 31.3709 92.1663 31.2994 92.0746C31.2298 91.9812 31.1344 91.9042 31.0135 91.8437C30.8925 91.7832 30.7376 91.753 30.5489 91.753C30.2904 91.753 30.0751 91.8125 29.9028 91.9317C29.7323 92.049 29.6471 92.1983 29.6471 92.3798C29.6471 92.5411 29.7057 92.6685 29.823 92.7619C29.9404 92.8554 30.1236 92.9333 30.3729 92.9956L30.9997 93.1496C31.3773 93.2412 31.6586 93.3814 31.8438 93.5702C32.0289 93.7572 32.1214 93.9982 32.1214 94.2933C32.1214 94.5352 32.0518 94.7515 31.9125 94.9421C31.775 95.1327 31.5826 95.283 31.3351 95.393C31.0877 95.503 30.8 95.5579 30.4719 95.5579C30.0412 95.5579 29.6847 95.4645 29.4024 95.2775C29.1202 95.0906 28.9415 94.8175 28.8663 94.4582L29.4821 94.3043C29.5408 94.5316 29.6517 94.702 29.8148 94.8156C29.9798 94.9293 30.1951 94.9861 30.4609 94.9861C30.7633 94.9861 31.0034 94.922 31.1812 94.7937C31.3608 94.6635 31.4506 94.5077 31.4506 94.3263C31.4506 94.1796 31.3993 94.0568 31.2967 93.9579C31.194 93.8571 31.0364 93.7819 30.8238 93.7324L30.12 93.5675C29.7332 93.4758 29.4491 93.3338 29.2677 93.1413C29.0881 92.9471 28.9983 92.7042 28.9983 92.4128C28.9983 92.1745 29.0652 91.9637 29.199 91.7805C29.3346 91.5972 29.5188 91.4533 29.7516 91.3488C29.9862 91.2443 30.2519 91.1921 30.5489 91.1921C30.9667 91.1921 31.2948 91.2838 31.5331 91.467C31.7732 91.6503 31.9437 91.8923 32.0445 92.1928ZM33.5921 89.8395V95.47H32.9433V89.8395H33.5921ZM35.8683 95.5689C35.6007 95.5689 35.3579 95.5185 35.1397 95.4177C34.9216 95.3151 34.7484 95.1676 34.6201 94.9751C34.4918 94.7808 34.4277 94.5462 34.4277 94.2713C34.4277 94.0294 34.4753 93.8332 34.5706 93.6829C34.666 93.5308 34.7933 93.4117 34.9528 93.3255C35.1123 93.2394 35.2882 93.1752 35.4807 93.1331C35.6749 93.0891 35.8701 93.0543 36.0662 93.0286C36.3228 92.9956 36.5309 92.9709 36.6903 92.9544C36.8516 92.9361 36.9689 92.9058 37.0422 92.8637C37.1174 92.8215 37.155 92.7482 37.155 92.6437V92.6217C37.155 92.3505 37.0807 92.1397 36.9323 91.9894C36.7856 91.8391 36.563 91.764 36.2642 91.764C35.9544 91.764 35.7116 91.8318 35.5356 91.9674C35.3597 92.103 35.236 92.2478 35.1645 92.4018L34.5487 92.1818C34.6586 91.9252 34.8053 91.7255 34.9885 91.5825C35.1737 91.4377 35.3753 91.3369 35.5934 91.2801C35.8133 91.2214 36.0296 91.1921 36.2422 91.1921C36.3778 91.1921 36.5336 91.2086 36.7096 91.2416C36.8874 91.2728 37.0587 91.3378 37.2237 91.4368C37.3905 91.5358 37.5289 91.6851 37.6388 91.8849C37.7488 92.0847 37.8038 92.3523 37.8038 92.6877V95.47H37.155V94.8981H37.122C37.078 94.9898 37.0047 95.0878 36.902 95.1923C36.7994 95.2968 36.6628 95.3857 36.4924 95.459C36.3219 95.5323 36.1139 95.5689 35.8683 95.5689ZM35.9673 94.9861C36.2239 94.9861 36.4401 94.9357 36.6161 94.8349C36.7939 94.7341 36.9277 94.604 37.0175 94.4445C37.1091 94.285 37.155 94.1173 37.155 93.9414V93.3475C37.1275 93.3805 37.067 93.4108 36.9735 93.4383C36.8819 93.4639 36.7756 93.4868 36.6546 93.507C36.5355 93.5253 36.4191 93.5418 36.3054 93.5565C36.1936 93.5693 36.1029 93.5803 36.0333 93.5895C35.8646 93.6115 35.707 93.6472 35.5604 93.6967C35.4156 93.7443 35.2983 93.8167 35.2085 93.9139C35.1205 94.0092 35.0765 94.1393 35.0765 94.3043C35.0765 94.5297 35.1599 94.7002 35.3267 94.8156C35.4953 94.9293 35.7088 94.9861 35.9673 94.9861Z" fill="#4D4D4D"/>
<path d="M45.4745 91.599H44.7927C44.7524 91.4029 44.6818 91.2306 44.581 91.0821C44.4821 90.9337 44.3611 90.809 44.2181 90.7082C44.077 90.6056 43.9203 90.5286 43.748 90.4773C43.5757 90.426 43.3961 90.4003 43.2091 90.4003C42.8682 90.4003 42.5594 90.4865 42.2826 90.6588C42.0077 90.831 41.7887 91.0849 41.6256 91.4203C41.4643 91.7557 41.3836 92.1672 41.3836 92.6547C41.3836 93.1423 41.4643 93.5537 41.6256 93.8891C41.7887 94.2246 42.0077 94.4784 42.2826 94.6507C42.5594 94.823 42.8682 94.9091 43.2091 94.9091C43.3961 94.9091 43.5757 94.8835 43.748 94.8321C43.9203 94.7808 44.077 94.7048 44.2181 94.604C44.3611 94.5013 44.4821 94.3758 44.581 94.2273C44.6818 94.077 44.7524 93.9047 44.7927 93.7104H45.4745C45.4232 93.9982 45.3297 94.2557 45.1941 94.483C45.0585 94.7103 44.8899 94.9036 44.6883 95.0631C44.4866 95.2207 44.2603 95.3408 44.0092 95.4232C43.7599 95.5057 43.4932 95.547 43.2091 95.547C42.7289 95.547 42.3019 95.4296 41.928 95.195C41.5541 94.9604 41.2599 94.6269 41.0455 94.1943C40.831 93.7618 40.7238 93.2486 40.7238 92.6547C40.7238 92.0609 40.831 91.5477 41.0455 91.1151C41.2599 90.6826 41.5541 90.349 41.928 90.1144C42.3019 89.8798 42.7289 89.7625 43.2091 89.7625C43.4932 89.7625 43.7599 89.8037 44.0092 89.8862C44.2603 89.9687 44.4866 90.0897 44.6883 90.2491C44.8899 90.4067 45.0585 90.5992 45.1941 90.8265C45.3297 91.0519 45.4232 91.3094 45.4745 91.599ZM47.5762 95.5689C47.3086 95.5689 47.0657 95.5185 46.8476 95.4177C46.6295 95.3151 46.4563 95.1676 46.328 94.9751C46.1997 94.7808 46.1355 94.5462 46.1355 94.2713C46.1355 94.0294 46.1832 93.8332 46.2785 93.6829C46.3738 93.5308 46.5012 93.4117 46.6607 93.3255C46.8201 93.2394 46.9961 93.1752 47.1885 93.1331C47.3828 93.0891 47.578 93.0543 47.7741 93.0286C48.0307 92.9956 48.2387 92.9709 48.3982 92.9544C48.5595 92.9361 48.6768 92.9058 48.7501 92.8637C48.8252 92.8215 48.8628 92.7482 48.8628 92.6437V92.6217C48.8628 92.3505 48.7886 92.1397 48.6401 91.9894C48.4935 91.8391 48.2708 91.764 47.9721 91.764C47.6623 91.764 47.4195 91.8318 47.2435 91.9674C47.0676 92.103 46.9438 92.2478 46.8724 92.4018L46.2565 92.1818C46.3665 91.9252 46.5131 91.7255 46.6964 91.5825C46.8815 91.4377 47.0831 91.3369 47.3012 91.2801C47.5212 91.2214 47.7375 91.1921 47.9501 91.1921C48.0857 91.1921 48.2415 91.2086 48.4174 91.2416C48.5952 91.2728 48.7666 91.3378 48.9316 91.4368C49.0983 91.5358 49.2367 91.6851 49.3467 91.8849C49.4567 92.0847 49.5116 92.3523 49.5116 92.6877V95.47H48.8628V94.8981H48.8298C48.7858 94.9898 48.7125 95.0878 48.6099 95.1923C48.5072 95.2968 48.3707 95.3857 48.2002 95.459C48.0298 95.5323 47.8218 95.5689 47.5762 95.5689ZM47.6751 94.9861C47.9317 94.9861 48.148 94.9357 48.324 94.8349C48.5018 94.7341 48.6355 94.604 48.7254 94.4445C48.817 94.285 48.8628 94.1173 48.8628 93.9414V93.3475C48.8353 93.3805 48.7748 93.4108 48.6814 93.4383C48.5897 93.4639 48.4834 93.4868 48.3625 93.507C48.2433 93.5253 48.1269 93.5418 48.0133 93.5565C47.9015 93.5693 47.8108 93.5803 47.7411 93.5895C47.5725 93.6115 47.4149 93.6472 47.2682 93.6967C47.1235 93.7443 47.0062 93.8167 46.9163 93.9139C46.8284 94.0092 46.7844 94.1393 46.7844 94.3043C46.7844 94.5297 46.8678 94.7002 47.0346 94.8156C47.2032 94.9293 47.4167 94.9861 47.6751 94.9861ZM50.5411 95.47V91.2471H51.1679V91.8849H51.2119C51.2889 91.676 51.4282 91.5064 51.6298 91.3763C51.8314 91.2462 52.0587 91.1811 52.3116 91.1811C52.3592 91.1811 52.4188 91.182 52.4903 91.1839C52.5618 91.1857 52.6158 91.1884 52.6525 91.1921V91.8519C52.6305 91.8464 52.5801 91.8382 52.5013 91.8272C52.4243 91.8144 52.3427 91.8079 52.2566 91.8079C52.0513 91.8079 51.868 91.851 51.7067 91.9372C51.5473 92.0215 51.4208 92.1388 51.3273 92.2891C51.2357 92.4375 51.1899 92.6071 51.1899 92.7977V95.47H50.5411Z" fill="#353FD7"/>
<path d="M40.2619 97.0096H52.8284V97.5374H40.2619V97.0096Z" fill="#353FD7"/>
</svg>
