<svg width="240" height="150" viewBox="0 0 240 150" fill="none" xmlns="http://www.w3.org/2000/svg">
<rect width="240" height="202.396" rx="12" fill="#F1F1F1"/>
<rect x="8.84766" y="8.84766" width="222.304" height="30.9677" rx="6.63594" fill="white"/>
<path d="M41.9286 24.3683C41.9286 24.9622 41.8214 25.4754 41.607 25.9079C41.3925 26.3405 41.0984 26.6741 40.7245 26.9087C40.3506 27.1433 39.9235 27.2606 39.4433 27.2606C38.9631 27.2606 38.536 27.1433 38.1621 26.9087C37.7882 26.6741 37.4941 26.3405 37.2796 25.9079C37.0652 25.4754 36.958 24.9622 36.958 24.3683C36.958 23.7745 37.0652 23.2613 37.2796 22.8288C37.4941 22.3962 37.7882 22.0626 38.1621 21.828C38.536 21.5934 38.9631 21.4761 39.4433 21.4761C39.9235 21.4761 40.3506 21.5934 40.7245 21.828C41.0984 22.0626 41.3925 22.3962 41.607 22.8288C41.8214 23.2613 41.9286 23.7745 41.9286 24.3683ZM41.2688 24.3683C41.2688 23.8808 41.1873 23.4693 41.0241 23.1339C40.8628 22.7985 40.6438 22.5447 40.3671 22.3724C40.0921 22.2001 39.7842 22.1139 39.4433 22.1139C39.1024 22.1139 38.7936 22.2001 38.5168 22.3724C38.2419 22.5447 38.0229 22.7985 37.8597 23.1339C37.6984 23.4693 37.6178 23.8808 37.6178 24.3683C37.6178 24.8559 37.6984 25.2674 37.8597 25.6028C38.0229 25.9382 38.2419 26.192 38.5168 26.3643C38.7936 26.5366 39.1024 26.6227 39.4433 26.6227C39.7842 26.6227 40.0921 26.5366 40.3671 26.3643C40.6438 26.192 40.8628 25.9382 41.0241 25.6028C41.1873 25.2674 41.2688 24.8559 41.2688 24.3683ZM44.5478 27.2716C44.1519 27.2716 43.811 27.1781 43.5251 26.9911C43.2392 26.8042 43.0192 26.5467 42.8653 26.2186C42.7113 25.8905 42.6343 25.5157 42.6343 25.0942C42.6343 24.6653 42.7131 24.2868 42.8708 23.9587C43.0302 23.6288 43.252 23.3713 43.5361 23.1862C43.822 22.9992 44.1556 22.9057 44.5368 22.9057C44.8337 22.9057 45.1013 22.9607 45.3396 23.0707C45.5779 23.1807 45.7731 23.3346 45.9252 23.5326C46.0773 23.7305 46.1717 23.9615 46.2084 24.2254H45.5595C45.5101 24.0329 45.4001 23.8625 45.2296 23.714C45.061 23.5637 44.8337 23.4886 44.5478 23.4886C44.2949 23.4886 44.0731 23.5546 43.8825 23.6865C43.6937 23.8167 43.5462 24.0009 43.4399 24.2391C43.3354 24.4756 43.2832 24.7532 43.2832 25.0722C43.2832 25.3984 43.3345 25.6825 43.4371 25.9244C43.5416 26.1664 43.6882 26.3542 43.877 26.488C44.0676 26.6218 44.2912 26.6887 44.5478 26.6887C44.7164 26.6887 44.8695 26.6594 45.0069 26.6007C45.1444 26.5421 45.2608 26.4578 45.3561 26.3478C45.4514 26.2378 45.5192 26.1059 45.5595 25.9519H46.2084C46.1717 26.2012 46.081 26.4257 45.9362 26.6255C45.7932 26.8234 45.6035 26.9811 45.3671 27.0984C45.1325 27.2138 44.8594 27.2716 44.5478 27.2716ZM48.7726 27.2716C48.3657 27.2716 48.0147 27.1818 47.7196 27.0021C47.4263 26.8207 47.2 26.5678 47.0405 26.2433C46.8829 25.9171 46.8041 25.5377 46.8041 25.1051C46.8041 24.6726 46.8829 24.2914 47.0405 23.9615C47.2 23.6297 47.4218 23.3713 47.7058 23.1862C47.9918 22.9992 48.3253 22.9057 48.7066 22.9057C48.9265 22.9057 49.1437 22.9424 49.3582 23.0157C49.5726 23.089 49.7678 23.2082 49.9437 23.3731C50.1197 23.5362 50.2599 23.7525 50.3644 24.0219C50.4689 24.2914 50.5211 24.6231 50.5211 25.0172V25.2921H47.266V24.7312H49.8613C49.8613 24.493 49.8136 24.2804 49.7183 24.0934C49.6248 23.9065 49.491 23.7589 49.3169 23.6508C49.1446 23.5426 48.9412 23.4886 48.7066 23.4886C48.4481 23.4886 48.2245 23.5527 48.0358 23.681C47.8488 23.8075 47.7049 23.9725 47.6041 24.1759C47.5033 24.3793 47.4529 24.5975 47.4529 24.8302V25.2041C47.4529 25.523 47.5079 25.7934 47.6179 26.0152C47.7297 26.2351 47.8845 26.4028 48.0825 26.5183C48.2804 26.6319 48.5105 26.6887 48.7726 26.6887C48.943 26.6887 49.097 26.6649 49.2344 26.6172C49.3737 26.5678 49.4938 26.4944 49.5946 26.3973C49.6954 26.2983 49.7733 26.1755 49.8283 26.0289L50.4551 26.2049C50.3891 26.4175 50.2782 26.6044 50.1225 26.7657C49.9667 26.9252 49.7742 27.0498 49.5451 27.1396C49.316 27.2276 49.0585 27.2716 48.7726 27.2716ZM52.5959 27.2826C52.3283 27.2826 52.0855 27.2322 51.8674 27.1314C51.6492 27.0287 51.476 26.8812 51.3477 26.6887C51.2194 26.4944 51.1553 26.2598 51.1553 25.9849C51.1553 25.743 51.2029 25.5469 51.2983 25.3966C51.3936 25.2444 51.5209 25.1253 51.6804 25.0392C51.8399 24.953 52.0158 24.8889 52.2083 24.8467C52.4025 24.8027 52.5977 24.7679 52.7939 24.7422C53.0505 24.7093 53.2585 24.6845 53.4179 24.668C53.5792 24.6497 53.6965 24.6194 53.7698 24.5773C53.845 24.5351 53.8826 24.4618 53.8826 24.3573V24.3354C53.8826 24.0641 53.8083 23.8533 53.6599 23.703C53.5132 23.5527 53.2906 23.4776 52.9918 23.4776C52.6821 23.4776 52.4392 23.5454 52.2632 23.681C52.0873 23.8167 51.9636 23.9615 51.8921 24.1154L51.2763 23.8955C51.3862 23.6389 51.5329 23.4391 51.7161 23.2961C51.9013 23.1513 52.1029 23.0505 52.321 22.9937C52.5409 22.9351 52.7572 22.9057 52.9698 22.9057C53.1054 22.9057 53.2612 22.9222 53.4372 22.9552C53.615 22.9864 53.7863 23.0514 53.9513 23.1504C54.1181 23.2494 54.2565 23.3988 54.3664 23.5985C54.4764 23.7983 54.5314 24.0659 54.5314 24.4013V27.1836H53.8826V26.6117H53.8496C53.8056 26.7034 53.7323 26.8014 53.6296 26.9059C53.527 27.0104 53.3904 27.0993 53.22 27.1726C53.0495 27.2459 52.8415 27.2826 52.5959 27.2826ZM52.6949 26.6997C52.9515 26.6997 53.1678 26.6493 53.3437 26.5485C53.5215 26.4477 53.6553 26.3176 53.7451 26.1581C53.8367 25.9987 53.8826 25.831 53.8826 25.655V25.0612C53.8551 25.0942 53.7946 25.1244 53.7011 25.1519C53.6095 25.1775 53.5032 25.2005 53.3822 25.2206C53.2631 25.2389 53.1467 25.2554 53.033 25.2701C52.9212 25.2829 52.8305 25.2939 52.7609 25.3031C52.5922 25.3251 52.4346 25.3608 52.288 25.4103C52.1432 25.458 52.0259 25.5304 51.9361 25.6275C51.8481 25.7228 51.8041 25.8529 51.8041 26.0179C51.8041 26.2433 51.8875 26.4138 52.0543 26.5293C52.2229 26.6429 52.4365 26.6997 52.6949 26.6997ZM56.2096 24.6433V27.1836H55.5608V22.9607H56.1876V23.6205H56.2426C56.3416 23.4061 56.4919 23.2338 56.6935 23.1037C56.8951 22.9717 57.1554 22.9057 57.4743 22.9057C57.7602 22.9057 58.0104 22.9644 58.2248 23.0817C58.4393 23.1972 58.6061 23.3731 58.7252 23.6095C58.8443 23.8442 58.9039 24.1411 58.9039 24.5003V27.1836H58.2551V24.5443C58.2551 24.2126 58.1689 23.9541 57.9967 23.769C57.8244 23.5821 57.5879 23.4886 57.2873 23.4886C57.0802 23.4886 56.8951 23.5335 56.732 23.6233C56.5707 23.7131 56.4433 23.8442 56.3498 24.0164C56.2564 24.1887 56.2096 24.3977 56.2096 24.6433Z" fill="#353FD7"/>
<path d="M36.4961 28.7232H59.4978V29.251H36.4961V28.7232Z" fill="#353FD7"/>
<path d="M25.2099 28.4782C27.6277 28.4782 29.5878 26.5181 29.5878 24.1003C29.5878 21.6825 27.6277 19.7224 25.2099 19.7224C22.7921 19.7224 20.832 21.6825 20.832 24.1003C20.832 26.5181 22.7921 28.4782 25.2099 28.4782Z" stroke="#353FD7" stroke-width="0.829493" stroke-linecap="round" stroke-linejoin="round"/>
<path d="M30.0486 28.939L29.127 28.0173" stroke="#353FD7" stroke-width="0.829493" stroke-linecap="round" stroke-linejoin="round"/>
<g clip-path="url(#clip0_1643_26037)">
<rect x="9" y="43" width="72" height="70" rx="8" fill="white"/>
<g clip-path="url(#clip1_1643_26037)">
<path d="M59.6641 55.3615C61.2357 56.0793 62.6582 57.0689 63.8923 58.303C68.3034 62.714 68.3034 69.8912 63.8923 74.3021C62.1762 76.0182 59.6565 76.7448 57.3167 76.199C56.9863 76.1218 56.5794 75.9983 56.1489 75.8009C57.2135 75.5812 58.2278 75.0593 59.0522 74.2349C61.7166 71.5703 61.7166 67.2348 59.0522 64.5702C55.9454 61.4635 50.2049 61.7172 46.517 65.1249C46.5026 65.1381 46.4887 65.1518 46.4747 65.1656C43.6923 67.948 42.0737 71.8977 42.0339 76.0023C41.9942 80.1336 43.5619 84.0939 46.3359 86.8677C49.7896 90.3214 54.3812 92.2233 59.2652 92.2233C64.1492 92.2233 68.7411 90.3214 72.1948 86.8679C74.7286 84.3339 78.0861 82.7627 81.6487 82.4433C82.4653 82.3701 83.0679 81.6488 82.9946 80.8324C82.9214 80.0159 82.2018 79.4132 81.3836 79.4866C77.1293 79.8679 73.1203 81.7437 70.0953 84.7687C67.2026 87.6616 63.3563 89.2547 59.2651 89.2547C55.174 89.2547 51.3277 87.6616 48.435 84.7687C46.2212 82.5551 44.97 79.3703 45.0024 76.0313C45.0346 72.7079 46.3282 69.5225 48.5528 67.286C51.0617 64.9865 54.9801 64.6969 56.9529 66.6695C58.4598 68.1766 58.4598 70.6288 56.9529 72.1358C55.8629 73.226 54.0894 73.2257 52.9997 72.1358C52.5118 71.6479 51.7521 71.5606 51.1664 71.9249C50.5805 72.2892 50.3226 73.0089 50.5444 73.6624C51.4818 76.4266 53.7045 78.4049 56.6422 79.0904C59.9735 79.8675 63.5556 78.8373 65.9915 76.4016C71.5599 70.8332 71.5599 61.7724 65.9915 56.204C64.5059 54.7187 62.7921 53.5266 60.8976 52.6613C60.152 52.3207 59.2711 52.6489 58.9306 53.3947C58.5901 54.1401 58.9185 55.0208 59.6641 55.3615Z" fill="#4D4D4D"/>
<path d="M8.19534 90.7689C7.39126 90.9286 6.86891 91.7099 7.02878 92.514C7.1692 93.2204 7.78922 93.7094 8.48316 93.7094C8.5789 93.7094 8.67642 93.7 8.77409 93.6806C18.9612 91.6565 27.3172 84.2702 30.5815 74.4042L32.1499 69.6635C34.5232 62.4897 40.2793 56.9762 47.5471 54.9147C48.3357 54.691 48.7938 53.8703 48.5701 53.0815C48.3464 52.2927 47.525 51.8353 46.7371 52.0585C38.8425 54.2978 32.528 60.1413 29.6657 67.7895C23.6552 72.5432 16.1505 75.1582 8.48479 75.1582C7.66512 75.1582 7.00043 75.8228 7.00043 76.6426C7.00043 77.4624 7.66498 78.127 8.48479 78.127C15.4135 78.127 22.2213 76.1619 28.0747 72.5294L27.763 73.4717C24.8339 82.3247 17.3361 88.9527 8.19534 90.7689Z" fill="#4D4D4D"/>
<path d="M35.3516 86.4838C35.3516 85.6639 34.6869 84.9994 33.8672 84.9994C33.0474 84.9994 32.3828 85.6639 32.3828 86.4838C32.3828 93.7956 38.3313 99.7441 45.6432 99.7441C46.4629 99.7441 47.1276 99.0796 47.1276 98.2598C47.1276 97.4399 46.4629 96.7754 45.6432 96.7754C39.9684 96.7755 35.3516 92.1587 35.3516 86.4838Z" fill="#4D4D4D"/>
<path d="M80.5556 90.0383C79.2599 90.9381 78.0326 91.9647 76.9079 93.0894C72.457 97.5404 66.5391 99.9917 60.2441 99.9916C59.4243 99.9916 58.7598 100.656 58.7598 101.476C58.7598 102.296 59.4243 102.96 60.2441 102.96H60.2444C67.3317 102.96 73.9957 100.2 79.0071 95.1886C80.0071 94.1884 81.098 93.276 82.249 92.4765C82.9223 92.0089 83.0891 91.084 82.6215 90.4107C82.1538 89.7374 81.229 89.5704 80.5556 90.0383Z" fill="#4D4D4D"/>
<path d="M82.5646 112.608C81.9851 112.028 81.0455 112.028 80.4653 112.608C76.0105 117.062 68.7618 117.063 64.3069 112.608C61.5881 109.889 57.9733 108.391 54.1285 108.391C50.2836 108.391 46.6688 109.889 43.95 112.608C39.4953 117.062 32.2465 117.063 27.7916 112.608C25.0729 109.889 21.458 108.391 17.6132 108.391C13.7684 108.391 10.1535 109.889 7.43473 112.608C6.85509 113.187 6.85509 114.127 7.43473 114.707C8.01453 115.287 8.95413 115.287 9.53407 114.707C13.9891 110.252 21.2379 110.252 25.6924 114.707C31.305 120.319 40.437 120.319 46.0495 114.707C50.5045 110.252 57.7533 110.252 62.2079 114.707C65.0141 117.513 68.7002 118.916 72.3863 118.916C76.0724 118.916 79.7586 117.513 82.5648 114.707C83.1443 114.127 83.1443 113.187 82.5646 112.608Z" fill="#4D4D4D"/>
<path d="M53.7578 54.0527C54.1482 54.0527 54.5312 53.8939 54.8071 53.6178C55.0832 53.3417 55.2422 52.9588 55.2422 52.5684C55.2422 52.178 55.0834 51.795 54.8071 51.5189C54.5312 51.2428 54.1482 51.084 53.7578 51.084C53.3658 51.084 52.9845 51.2428 52.7084 51.5189C52.4308 51.795 52.2734 52.178 52.2734 52.5684C52.2734 52.9588 52.4308 53.3417 52.7084 53.6178C52.9845 53.8941 53.3659 54.0527 53.7578 54.0527Z" fill="#4D4D4D"/>
</g>
</g>
<rect x="84" y="43" width="72" height="70" rx="8" fill="white"/>
<path d="M108.678 98.8013L108.678 98.8011V97.2877C108.678 92.3573 110.808 88.0653 113.953 85.8402C109.551 85.8929 105.818 89.5229 104.434 94.5713" stroke="#4D4D4D" stroke-width="1.685" stroke-miterlimit="10" stroke-linecap="round" stroke-linejoin="round"/>
<path d="M105.51 100.128C105.389 93.0876 100.926 87.4213 95.418 87.3553C98.5624 89.5804 100.693 93.8723 100.693 98.8028V101.918" stroke="#4D4D4D" stroke-width="1.685" stroke-miterlimit="10" stroke-linecap="round" stroke-linejoin="round"/>
<path d="M135.305 47V48.3564" stroke="#4D4D4D" stroke-width="1.685" stroke-miterlimit="10" stroke-linecap="round" stroke-linejoin="round"/>
<path d="M135.305 58.1562V68.9529" stroke="#4D4D4D" stroke-width="1.685" stroke-miterlimit="10" stroke-linecap="round" stroke-linejoin="round"/>
<path d="M133.582 55.1442V56.4347C133.582 57.3815 134.357 58.1563 135.304 58.1563C136.251 58.1563 137.025 57.3815 137.025 56.4347V50.0781C137.025 49.1312 136.251 48.3564 135.304 48.3564C134.357 48.3564 133.582 49.1312 133.582 50.0781V51.2125" stroke="#4D4D4D" stroke-width="1.685" stroke-miterlimit="10" stroke-linecap="round" stroke-linejoin="round"/>
<path d="M139.55 75.0055V71.6713C139.55 68.2008 140.605 65.0473 142.327 62.7076V60.6527C139.05 61.7554 136.418 64.8954 135.305 68.9546" stroke="#4D4D4D" stroke-width="1.685" stroke-miterlimit="10" stroke-linecap="round" stroke-linejoin="round"/>
<path d="M144.047 56.6203V55.2639" stroke="#4D4D4D" stroke-width="1.685" stroke-miterlimit="10" stroke-linecap="round" stroke-linejoin="round"/>
<path d="M144.047 77.8581V66.4202" stroke="#4D4D4D" stroke-width="1.685" stroke-miterlimit="10" stroke-linecap="round" stroke-linejoin="round"/>
<path d="M136.346 73.7552C135.961 67.5519 132.199 62.5687 127.417 61.8322C127.083 61.7808 126.893 62.1973 127.146 62.4213C129.651 64.6354 131.343 68.2498 131.539 72.3826" stroke="#4D4D4D" stroke-width="1.685" stroke-miterlimit="10" stroke-linecap="round" stroke-linejoin="round"/>
<path d="M106.156 77.589C112.907 78.5768 120.431 78.9426 123.113 82.6658" stroke="#4D4D4D" stroke-width="1.685" stroke-miterlimit="10" stroke-linecap="round" stroke-linejoin="round"/>
<path d="M101.778 62.4526C96.7915 64.5138 93.215 67.275 93.9828 70.8955C94.7442 74.4853 98.2972 76.0618 102.712 76.9916" stroke="#4D4D4D" stroke-width="1.685" stroke-miterlimit="10" stroke-linecap="round" stroke-linejoin="round"/>
<path d="M124.016 86.5975C122.601 94.389 103.565 101.01 98.7696 102.561C98.615 102.611 98.6588 102.841 98.8209 102.829C106.907 102.261 147.105 98.7119 146.997 84.3252C146.923 74.2924 131.71 72.5267 121.361 70.1389C106.47 66.7034 119.582 59.8353 124.017 57.7839C124.249 57.6764 124.149 57.3265 123.895 57.3574C120.628 57.7544 112.466 58.8978 105.477 61.1168" stroke="#4D4D4D" stroke-width="1.685" stroke-miterlimit="10" stroke-linecap="round" stroke-linejoin="round"/>
<path d="M104.434 83.7743V94.5695" stroke="#4D4D4D" stroke-width="1.685" stroke-miterlimit="10" stroke-linecap="round" stroke-linejoin="round"/>
<path d="M104.434 72.618V73.9746" stroke="#4D4D4D" stroke-width="1.685" stroke-miterlimit="10" stroke-linecap="round" stroke-linejoin="round"/>
<path d="M135.058 89.4058C137.915 87.9399 139.779 86.1072 139.76 83.8212C139.709 77.765 129.453 76.3563 122.475 74.9148" stroke="#4D4D4D" stroke-width="1.685" stroke-miterlimit="10" stroke-linecap="round" stroke-linejoin="round"/>
<path d="M144.048 66.4202C143.101 66.4202 142.326 65.6454 142.326 64.6986V58.3421C142.326 57.3952 143.101 56.6205 144.048 56.6205C144.995 56.6205 145.769 57.3952 145.769 58.3421V64.6986C145.769 65.6454 144.995 66.4202 144.048 66.4202Z" stroke="#4D4D4D" stroke-width="1.685" stroke-miterlimit="10" stroke-linecap="round" stroke-linejoin="round"/>
<path d="M104.435 83.7743C103.488 83.7743 102.713 82.9996 102.713 82.0527V75.6962C102.713 74.7494 103.488 73.9746 104.435 73.9746C105.381 73.9746 106.156 74.7494 106.156 75.6962V82.0527C106.156 82.9997 105.381 83.7743 104.435 83.7743Z" stroke="#4D4D4D" stroke-width="1.685" stroke-miterlimit="10" stroke-linecap="round" stroke-linejoin="round"/>
<rect x="159" y="43" width="72" height="70" rx="8" fill="white"/>
<path d="M214.276 96.2642C213.417 96.2642 212.934 95.9084 212.615 95.674C212.372 95.4952 212.281 95.4293 212.005 95.4293C211.728 95.4293 211.638 95.4952 211.394 95.674C211.075 95.9101 210.593 96.2642 209.733 96.2642C209.242 96.2642 208.845 95.8667 208.845 95.3755C208.845 94.8842 209.242 94.4867 209.733 94.4867C210.009 94.4867 210.1 94.4208 210.343 94.242C210.662 94.0077 211.145 93.6518 212.005 93.6518C212.865 93.6518 213.347 94.0076 213.667 94.242C213.91 94.4208 214 94.4867 214.276 94.4867C214.767 94.4867 215.165 94.8842 215.165 95.3755C215.165 95.8667 214.767 96.2642 214.276 96.2642ZM188.547 63.8765C188.547 63.3853 188.149 62.9878 187.658 62.9878C187.382 62.9878 187.291 62.921 187.049 62.743C186.729 62.5078 186.246 62.152 185.386 62.152C184.526 62.152 184.043 62.5078 183.723 62.743C183.481 62.921 183.39 62.9878 183.114 62.9878C182.622 62.9878 182.225 63.3853 182.225 63.8765C182.225 64.3678 182.622 64.7653 183.114 64.7653C183.974 64.7653 184.456 64.4094 184.777 64.1742C185.019 63.9963 185.11 63.9295 185.386 63.9295C185.662 63.9295 185.753 63.9963 185.995 64.1742C186.315 64.4094 186.798 64.7653 187.658 64.7653C188.149 64.7653 188.547 64.3678 188.547 63.8765ZM200.634 71.5775C200.634 71.0862 200.237 70.6887 199.745 70.6887C199.468 70.6887 199.377 70.6219 199.134 70.4431C198.815 70.2079 198.332 69.8529 197.473 69.8529C196.614 69.8529 196.131 70.2079 195.812 70.4431C195.569 70.6219 195.479 70.6887 195.201 70.6887C194.925 70.6887 194.835 70.6219 194.592 70.444C194.272 70.2088 193.789 69.8529 192.93 69.8529C192.07 69.8529 191.587 70.2088 191.267 70.444C191.025 70.6219 190.934 70.6887 190.658 70.6887C190.382 70.6887 190.29 70.6219 190.048 70.444C189.728 70.2088 189.246 69.8529 188.385 69.8529C187.526 69.8529 187.043 70.2088 186.723 70.444C186.481 70.6219 186.39 70.6887 186.114 70.6887C185.623 70.6887 185.225 71.0862 185.225 71.5775C185.225 72.0687 185.623 72.4662 186.114 72.4662C186.974 72.4662 187.458 72.1104 187.777 71.8752C188.019 71.6973 188.109 71.6304 188.385 71.6304C188.661 71.6304 188.753 71.6973 188.995 71.8752C189.315 72.1104 189.798 72.4662 190.658 72.4662C191.518 72.4662 192 72.1104 192.321 71.8752C192.563 71.6973 192.654 71.6304 192.93 71.6304C193.206 71.6304 193.296 71.6973 193.538 71.8752C193.858 72.1104 194.342 72.4662 195.201 72.4662C196.062 72.4662 196.545 72.1104 196.864 71.8752C197.107 71.6973 197.197 71.6304 197.473 71.6304C197.749 71.6304 197.84 71.6973 198.083 71.8752C198.402 72.1104 198.884 72.4662 199.745 72.4662C200.237 72.4662 200.634 72.0687 200.634 71.5775ZM207.435 86.4881C207.435 85.9969 207.038 85.5994 206.546 85.5994C206.269 85.5994 206.178 85.5334 205.935 85.3546C205.616 85.1185 205.133 84.7644 204.274 84.7644C203.413 84.7644 202.931 85.1203 202.611 85.3546C202.368 85.5334 202.278 85.5994 202.002 85.5994C201.726 85.5994 201.636 85.5334 201.393 85.3546C201.073 85.1203 200.591 84.7644 199.73 84.7644C198.871 84.7644 198.388 85.1185 198.069 85.3546C197.826 85.5334 197.735 85.5994 197.458 85.5994C196.966 85.5994 196.569 85.9969 196.569 86.4881C196.569 86.9793 196.966 87.3768 197.458 87.3768C198.319 87.3768 198.801 87.021 199.121 86.7867C199.364 86.6079 199.454 86.5419 199.73 86.5419C200.008 86.5419 200.098 86.6079 200.341 86.7867C200.66 87.0227 201.143 87.3768 202.002 87.3768C202.861 87.3768 203.344 87.0227 203.663 86.7867C203.906 86.6079 203.996 86.5419 204.274 86.5419C204.55 86.5419 204.64 86.6079 204.883 86.7867C205.203 87.021 205.685 87.3768 206.546 87.3768C207.038 87.3768 207.435 86.9793 207.435 86.4881ZM194.79 93.2422C194.79 92.7509 194.392 92.3534 193.901 92.3534C193.624 92.3534 193.534 92.2875 193.291 92.1087C192.971 91.8743 192.489 91.5185 191.63 91.5185C190.77 91.5185 190.287 91.8743 189.968 92.1087C189.725 92.2875 189.634 92.3534 189.357 92.3534C189.081 92.3534 188.99 92.2875 188.747 92.1087C188.428 91.8743 187.945 91.5185 187.085 91.5185C186.225 91.5185 185.743 91.8743 185.422 92.1087C185.18 92.2875 185.09 92.3534 184.814 92.3534C184.323 92.3534 183.925 92.7509 183.925 93.2422C183.925 93.7334 184.323 94.1309 184.814 94.1309C185.673 94.1309 186.156 93.7751 186.475 93.5407C186.718 93.3619 186.808 93.296 187.085 93.296C187.362 93.296 187.452 93.3619 187.695 93.5407C188.015 93.775 188.498 94.1309 189.357 94.1309C190.217 94.1309 190.7 93.7751 191.02 93.5407C191.263 93.3619 191.353 93.296 191.63 93.296C191.906 93.296 191.996 93.3619 192.238 93.5407C192.558 93.775 193.041 94.1309 193.901 94.1309C194.392 94.1309 194.79 93.7334 194.79 93.2422ZM227 89.9008C227 90.8909 226.86 91.9409 226.56 93.0308C224.11 102.011 214.24 106.011 194.55 106.011C179.38 106.011 174.87 101.201 173.76 97.1608C173.06 94.6208 174.38 92.2108 175.55 90.0808C176.51 88.3508 177.41 86.7108 177.02 85.4208C176.78 84.6108 176.03 83.8808 174.74 83.2009C174.729 83.1952 174.719 83.1888 174.708 83.1831C174.448 83.3255 174.177 83.4504 173.9 83.5633V88.5408C173.9 89.7208 172.94 90.6808 171.76 90.6808H170.08C168.9 90.6808 167.94 89.7208 167.94 88.5408V83.563C165.047 82.3827 163 79.5427 163 76.2312C163 72.2256 166.2 64.6322 170.618 64.293C172.827 61.138 176.102 58.8223 180.43 57.4008L180.66 57.3209C182.87 56.5908 189.59 54.3608 200.62 55.4608C204.662 55.8607 207.728 56.7368 209.822 58.0697C211.024 54.2029 213.705 49.9891 217.053 49.9891C221.629 49.9891 224.974 57.8611 224.974 61.9584C224.974 65.2726 222.925 68.1133 220.03 69.2927V74.2708C220.03 75.4509 219.07 76.4108 217.89 76.4108H216.22C215.04 76.4108 214.07 75.4509 214.07 74.2708V69.29C213.34 68.9916 212.663 68.5895 212.061 68.0984C211.917 68.3971 211.771 68.6885 211.63 68.9708C211.03 70.1508 210.51 71.1809 210.53 72.1909C210.57 74.4608 211.77 77.5408 220.75 81.3009C224.83 83.0109 227 86.0508 227 89.9008ZM218.25 69.7778C217.859 69.8375 217.461 69.8781 217.053 69.8781C216.643 69.8781 216.243 69.8371 215.85 69.7767V74.2708C215.85 74.4708 216.02 74.6309 216.22 74.6309H217.89C218.09 74.6309 218.25 74.4708 218.25 74.2708V69.7778ZM210.912 61.9584C210.912 65.345 213.667 68.1006 217.053 68.1006C220.44 68.1006 223.196 65.345 223.196 61.9584C223.196 58.2151 220.16 51.7666 217.053 51.7666C213.946 51.7666 210.912 58.2151 210.912 61.9584ZM170.921 82.3725C174.307 82.3725 177.063 79.6177 177.063 76.2312C177.063 72.4879 174.028 66.0384 170.921 66.0384C167.813 66.0384 164.777 72.4879 164.777 76.2312C164.777 79.6177 167.533 82.3725 170.921 82.3725ZM172.12 84.0492C171.728 84.1092 171.329 84.15 170.921 84.15C170.511 84.15 170.113 84.1091 169.72 84.049V88.5408C169.72 88.7408 169.88 88.9108 170.08 88.9108H171.76C171.96 88.9108 172.12 88.7408 172.12 88.5408L172.12 84.0492ZM220.07 82.9409C216.19 81.3209 213.38 79.6808 211.53 77.9308C209.68 76.1808 208.78 74.3008 208.75 72.2208C208.72 70.7708 209.39 69.4509 210.04 68.1708C210.282 67.6931 210.515 67.2028 210.729 66.7038C209.733 65.3795 209.134 63.7396 209.134 61.9584C209.134 61.3555 209.215 60.6656 209.353 59.9363C207.572 58.5503 204.632 57.6456 200.55 57.2408C198.46 57.0308 196.53 56.9409 194.77 56.9409C187.45 56.9409 182.93 58.4409 181.22 59.0109L180.99 59.0908C177.333 60.2946 174.551 62.1216 172.578 64.6093C176.282 66.175 178.84 72.6472 178.84 76.2312C178.84 78.5298 177.849 80.5967 176.279 82.0447C177.585 82.8691 178.396 83.8092 178.72 84.9108C179.32 86.9208 178.2 88.9608 177.11 90.9409C176.06 92.8608 174.96 94.8508 175.47 96.6909C176.83 101.631 183.43 104.231 194.55 104.231C213.3 104.231 222.64 100.641 224.84 92.5709C225.54 90.0109 225.84 85.3608 220.07 82.9409Z" fill="#4D4D4D"/>
<defs>
<clipPath id="clip0_1643_26037">
<rect x="9" y="43" width="72" height="70" rx="8" fill="white"/>
</clipPath>
<clipPath id="clip1_1643_26037">
<rect width="76" height="76" fill="white" transform="translate(7 47)"/>
</clipPath>
</defs>
</svg>
