<svg enable-background="new 0 0 192 192" height="192" viewBox="0 0 192 192" width="192" xmlns="http://www.w3.org/2000/svg" xmlns:xlink="http://www.w3.org/1999/xlink"><radialGradient id="a" cx="96" cy="96" gradientUnits="userSpaceOnUse" r="76"><stop offset="0" stop-color="#fff" stop-opacity=".1"/><stop offset="1" stop-color="#fff" stop-opacity="0"/></radialGradient><path d="m0 0h192v192h-192z" fill="none"/><path d="m51 141-26-26c-3.08-3.17-5-7.63-5-12 0-2.02 1.14-5.18 2-7l24-50z" fill="#01579b"/><path d="m140 51-26-26c-2.27-2.28-7-5-11-5-3.44 0-6.81.69-9 2l-48 24z" fill="#40c4ff"/><path d="m82 172h63v-27l-47-15-43 15z" fill="#40c4ff"/><path d="m46 127c0 8.02 1.01 9.99 5 14l4 4h90l-44-50-55-49z" fill="#29b6f6"/><path d="m126 46h-80l99 99h27v-62l-32-32c-4.49-4.51-8.49-5-14-5z" fill="#01579b"/><path d="m52 142c-4-4.02-5-7.97-5-15v-80l-1-1v81c0 7.03 0 8.98 6 15l3 3z" fill="#fff" opacity=".2"/><path d="m171 82v62h-27l1 1h27v-62z" fill="#263238" opacity=".2"/><path d="m140 51c-4.96-4.96-9.02-5-15-5h-79l1 1h78c2.99 0 10.52-.5 15 4z" fill="#fff" opacity=".2"/><path d="m171 82-31-31-26-26c-2.27-2.28-7-5-11-5-3.44 0-6.81.69-9 2l-48 24-24 50c-.86 1.82-2 4.98-2 7 0 4.37 1.92 8.83 5 12l23.96 23.79c.57.7 1.25 1.42 2.04 2.21l1 1 3 3 26 26 1 1h62 1v-27h27v-.07-61.93z" fill="url(#a)" opacity=".2"/></svg>