<svg fill="none" height="89" viewBox="0 0 89 89" width="89" xmlns="http://www.w3.org/2000/svg"><path d="m88.0903 24.401c-.0052-.886-.015-1.7716-.0394-2.6586-.0517-1.9295-.1657-3.8765-.5087-5.7854-.348-1.9386-.9168-3.7412-1.8133-5.5022-.8801-1.72939-2.0306-3.31196-3.403-4.68434-1.372-1.37238-2.9546-2.5227-4.6848-3.40321-1.7595-.89549-3.5623-1.464197-5.4991-1.812187-1.91-.343985-3.857-.4573113-5.788-.5095247-.8866-.02403-1.7723-.0341166-2.6586-.03960497-1.052-.00593333-2.1047-.00593333-3.1564-.00593333h-23.3203-9.6611c-1.0528 0-2.1043 0-3.156.00608167-.8866.00548833-1.7733.01557503-2.6585.03960503-.4827.0130533-.9664.0299633-1.4505.0532516-1.4518.0700137-2.906.1983217-4.3377.4562737-1.4526.261066-2.83.646138-4.1701 1.200168-.4466.18452-.8892.38804-1.3292.61187-1.29759.66038-2.51244 1.47251-3.61738 2.4162-.36831.31462-.72446.64377-1.0674.98687-1.37268 1.37238-2.52315 2.95494-3.40322 4.68438-.89652 1.761-1.464639 3.5635-1.812925 5.5021-.34265 1.9089-.4565701 3.8559-.5084868 5.7855-.0243267.887-.0345617 1.7725-.04034667 2.6585-.006675 1.0523-.005785 2.1047-.005785 3.1567v14.3615 18.6195c0 1.0531-.00103833 2.1044.005785 3.1575.00578497.886.01601997 1.7715.04034667 2.6571.0519167 1.9305.1656888 3.878.5084868 5.786.348286 1.938.916405 3.7422 1.812925 5.5027.88007 1.7299 2.03054 3.312 3.40322 4.6838 1.37163 1.373 2.95465 2.5231 4.68498 3.4042 1.7597.8957 3.5623 1.4637 5.4996 1.8116 1.9087.3436 3.8572.4578 5.7878.5094.8853.0236 1.772.0341 2.6586.0392 1.0517.0075 2.1032.0065 3.1559.0065h32.9813c1.0517 0 2.1044.001 3.1563-.0065.8863-.0051 1.772-.0156 2.6586-.0392 1.931-.0516 3.878-.166 5.7879-.5094 1.9368-.3479 3.7397-.9161 5.4992-1.8116 1.7301-.8809 3.3127-2.0312 4.6848-3.4042 1.3724-1.3719 2.523-2.9539 3.4029-4.6838.8965-1.7605 1.4654-3.5646 1.8134-5.5027.3429-1.908.457-3.8555.5086-5.786.0243-.8856.0341-1.771.0395-2.6571.0068-1.0531.0062-2.1044.0062-3.1575v-32.981c.0002-1.052.0006-2.1044-.0061-3.1565z" fill="#f05138"/><path d="m69.8066 54.3801c-.0021-.0027-.004-.0046-.0063-.0071.0975-.3317.198-.6613.2833-1.0013 3.6565-14.5677-5.2674-31.7906-20.3685-40.859 6.6176 8.971 9.5436 19.8371 6.9439 29.3396-.2318.8476-.5105 1.661-.8186 2.4516-.3344-.2196-.7556-.469-1.3214-.7809 0 0-15.0215-9.2749-31.3025-25.6798-.4272-.4306 8.6817 13.0192 19.0192 23.9409-4.8704-2.7334-18.4435-12.609-27.0361-20.4735 1.0557 1.7606 2.3113 3.4559 3.6915 5.088 7.1757 9.1001 16.5336 20.3282 27.7448 28.9501-7.8771 4.8205-19.0076 5.1954-30.0898.005-2.741-1.2845-5.3179-2.8345-7.7032-4.5955 4.691 7.5035 11.9159 13.9773 20.7093 17.7567 10.4864 4.5065 20.9144 4.201 28.6811.0739l-.0061.0089c.0355-.0224.0806-.0469.1173-.0696.319-.1715.6355-.3461.9451-.5304 3.7316-1.937 11.1023-3.9021 15.0585 3.7955.9689 1.8839 3.0278-8.0996-4.5415-17.4131z" fill="#fff"/></svg>