<svg xmlns="http://www.w3.org/2000/svg" xmlns:xlink="http://www.w3.org/1999/xlink" width="1920" height="1080" viewBox="0 0 1920 1080">
  <defs>
    <clipPath id="clip-Web_1920_1">
      <rect width="1920" height="1080"/>
    </clipPath>
  </defs>
  <g id="Web_1920_1" data-name="Web 1920 – 1" clip-path="url(#clip-Web_1920_1)">
    <rect width="1920" height="1080" fill="#fff"/>
    <g id="typesense_logo_1_" data-name="typesense_logo (1)" transform="translate(142 473)">
      <path id="Path_27" data-name="Path 27" d="M36.478,38.485a19.875,19.875,0,0,1,.4,3.889,19.263,19.263,0,0,1-.4,3.755h0l-16.97-.134V91.049q0,5.632,5.211,5.632H34.875a11.93,11.93,0,0,1,.935,4.559,8.5,8.5,0,0,1-.267,2.816,97.723,97.723,0,0,1-12.694.8q-12.961,0-12.961-11.13h0V45.994L.4,46.128A19.276,19.276,0,0,1,0,42.373a19.888,19.888,0,0,1,.4-3.889h0l9.487.134V24.539q0-3.621,1.069-5.1,1.069-1.609,4.142-1.609h3.608l.8.8V38.753Z" fill="#0300b0"/>
      <path id="Path_28" data-name="Path 28" d="M101.135,39.155,82.83,102.045q-5.078,17.3-10.823,24.4t-17.237,7.107a32.346,32.346,0,0,1-10.823-1.743,10.194,10.194,0,0,1,2.138-7.241,26.1,26.1,0,0,0,8.819,1.475q7.082,0,10.823-4.827T72.541,106.2h0l.4-1.341a10.523,10.523,0,0,1-5.345-1.609,10.245,10.245,0,0,1-2.94-4.961h0l-18.707-59a18.183,18.183,0,0,1,5.879-1.743q3.875,0,5.211,4.693h0L67.6,75.9q.535,1.609,6.147,20.918a1.237,1.237,0,0,0,1.336.939h0l16.3-59.269a15.8,15.8,0,0,1,4.543-.536,13.319,13.319,0,0,1,4.944.8h0Z" fill="#0300b0"/>
      <path id="Path_29" data-name="Path 29" d="M126.81,99.9v26.55q0,3.62-1.069,5.1-1.069,1.609-4.276,1.609h-3.608l-.8-.8V38.887l.8-.8h3.474q3.207,0,4.276,1.743,1.2,1.609,1.2,5.364h0v.67q8.017-8.984,19.108-8.984,11.358,0,17.1,9.253,5.746,9.118,5.746,25.344a44.1,44.1,0,0,1-2.138,14.214,33.749,33.749,0,0,1-5.478,10.727,25.032,25.032,0,0,1-7.75,6.7,19.557,19.557,0,0,1-9.086,2.28A31.14,31.14,0,0,1,126.81,99.9Zm0-43.58V90.781q8.151,6.034,15.366,6.034t11.892-6.436q4.677-6.436,4.677-19.443a45.249,45.249,0,0,0-1.2-11.13,26.22,26.22,0,0,0-2.94-7.912,12.5,12.5,0,0,0-4.409-4.693,9.19,9.19,0,0,0-5.211-1.609,19.8,19.8,0,0,0-10.155,2.816A23.413,23.413,0,0,0,126.81,56.319Z" fill="#0300b0"/>
      <path id="Path_30" data-name="Path 30" d="M236.427,74.422H195.005q.668,22.8,17.237,22.8,9.086,0,19.375-5.632a11.416,11.416,0,0,1,3.608,6.839,42.492,42.492,0,0,1-24.586,7.509,25.687,25.687,0,0,1-11.892-2.548,23.566,23.566,0,0,1-8.151-7.241,33.979,33.979,0,0,1-4.543-11,60.808,60.808,0,0,1-1.47-13.812,52.41,52.41,0,0,1,1.737-13.946,33.413,33.413,0,0,1,5.345-10.862,25.153,25.153,0,0,1,8.285-7.107,24.145,24.145,0,0,1,11.224-2.548,25.287,25.287,0,0,1,10.957,2.28,21.419,21.419,0,0,1,8.151,6.034,25.19,25.19,0,0,1,5.078,9.118A35.52,35.52,0,0,1,237.1,65.571a40.3,40.3,0,0,1-.267,4.693Q236.695,72.41,236.427,74.422Zm-41.422-7.643h32.069V65.035q0-9.252-3.875-14.884t-11.625-5.632a13.761,13.761,0,0,0-11.892,6.034Q195.54,56.587,195.005,66.778Z" fill="#0300b0"/>
      <path id="Path_31" data-name="Path 31" d="M250.182,99.631a18.869,18.869,0,0,1,1.6-6.436,18.6,18.6,0,0,1,3.608-5.632q10.556,5.766,18.574,5.766a12.789,12.789,0,0,0,7.081-1.743,5.312,5.312,0,0,0,2.807-4.693q0-4.693-7.216-7.509h0l-7.483-2.816Q252.319,70.4,252.319,56.855a20.2,20.2,0,0,1,1.738-8.582,19.4,19.4,0,0,1,5.077-6.57,23.178,23.178,0,0,1,7.884-4.291,32.771,32.771,0,0,1,10.154-1.475,43.573,43.573,0,0,1,5.612.4,53.916,53.916,0,0,1,6.413,1.207,61.68,61.68,0,0,1,6.147,1.609,35.4,35.4,0,0,1,5.077,2.011,20.11,20.11,0,0,1-1.336,6.973,11.608,11.608,0,0,1-3.608,5.364q-10.556-4.693-18.3-4.693a8.065,8.065,0,0,0-5.479,1.743,5.224,5.224,0,0,0-2,4.291q0,4.157,6.682,6.57h0l8.151,2.95q8.817,3.084,13.095,8.448a19.423,19.423,0,0,1,4.276,12.471,18.729,18.729,0,0,1-7.083,15.286Q287.727,106.2,274.5,106.2A47.762,47.762,0,0,1,250.182,99.631Z" fill="#0300b0"/>
      <path id="Path_32" data-name="Path 32" d="M367.288,76.7H330.41q.4,7.375,3.34,11.666,3.075,4.157,10.556,4.157,7.75,0,17.773-4.559a19.3,19.3,0,0,1,4.944,10.593q-10.69,7.643-25.654,7.643-14.164,0-21.514-8.716-7.216-8.85-7.214-26.148a51.809,51.809,0,0,1,1.871-14.482,31.679,31.679,0,0,1,5.476-11.13,24.68,24.68,0,0,1,8.818-7.241A26.744,26.744,0,0,1,340.7,35.937a31.4,31.4,0,0,1,12.025,2.146,23.9,23.9,0,0,1,14.164,14.884,33.633,33.633,0,0,1,1.871,11.4,50.116,50.116,0,0,1-.4,6.436Q367.959,73.751,367.288,76.7ZM341.5,48.542q-10.422,0-11.224,15.823h22.179V62.755q0-6.437-2.672-10.325T341.5,48.542Z" fill="#0300b0"/>
      <path id="Path_33" data-name="Path 33" d="M440.52,59.537V88.769q0,8.582,2.8,12.739a15.059,15.059,0,0,1-10.287,3.755q-5.746,0-7.884-2.548-2.138-2.682-2.139-8.314h0V63.158q0-6.034-1.469-8.448T416.066,52.3q-7.082,0-13.228,6.437h0v45.592a31.024,31.024,0,0,1-4.276.536q-2.138.134-4.409.134t-4.542-.134a30.848,30.848,0,0,1-4.143-.536h0V37.948l.8-.939h6.682q7.485,0,9.353,8.045,9.754-8.448,19.375-8.448t14.164,6.3Q440.517,49.078,440.52,59.537Z" fill="#0300b0"/>
      <path id="Path_34" data-name="Path 34" d="M454.536,99.631a18.869,18.869,0,0,1,1.6-6.436,18.6,18.6,0,0,1,3.608-5.632q10.556,5.766,18.574,5.766a12.789,12.789,0,0,0,7.081-1.743,5.312,5.312,0,0,0,2.807-4.693q0-4.693-7.216-7.509h0l-7.483-2.816Q456.673,70.4,456.673,56.855a20.2,20.2,0,0,1,1.738-8.582,19.4,19.4,0,0,1,5.077-6.57,23.178,23.178,0,0,1,7.884-4.291,32.771,32.771,0,0,1,10.154-1.475,43.573,43.573,0,0,1,5.612.4,53.919,53.919,0,0,1,6.413,1.207,61.682,61.682,0,0,1,6.147,1.609,35.4,35.4,0,0,1,5.077,2.011,20.11,20.11,0,0,1-1.336,6.973,11.608,11.608,0,0,1-3.608,5.364q-10.556-4.693-18.3-4.693a8.065,8.065,0,0,0-5.479,1.743,5.224,5.224,0,0,0-2,4.291q0,4.157,6.682,6.57h0l8.151,2.95q8.817,3.084,13.095,8.448a19.423,19.423,0,0,1,4.276,12.471,18.729,18.729,0,0,1-7.083,15.286q-7.082,5.632-20.309,5.632A47.762,47.762,0,0,1,454.536,99.631Z" fill="#0300b0"/>
      <path id="Path_35" data-name="Path 35" d="M571.643,76.7H534.764q.4,7.375,3.34,11.666,3.075,4.157,10.556,4.157,7.75,0,17.773-4.559a19.3,19.3,0,0,1,4.944,10.593q-10.69,7.643-25.654,7.643-14.164,0-21.514-8.716-7.216-8.85-7.214-26.148a51.81,51.81,0,0,1,1.871-14.482,31.679,31.679,0,0,1,5.477-11.13,24.667,24.667,0,0,1,8.821-7.241,26.726,26.726,0,0,1,11.892-2.548,31.394,31.394,0,0,1,12.025,2.146,23.9,23.9,0,0,1,14.164,14.884,33.632,33.632,0,0,1,1.871,11.4,49.685,49.685,0,0,1-.4,6.436Q572.313,73.751,571.643,76.7Zm-25.788-28.16q-10.422,0-11.224,15.823h22.182V62.755q0-6.437-2.674-10.325T545.855,48.542Z" fill="#0300b0"/>
      <path id="Path_36" data-name="Path 36" d="M592.36,123.1V.4a23.215,23.215,0,0,1,4.545-.4,28.358,28.358,0,0,1,4.942.4h0V123.1a28.364,28.364,0,0,1-4.942.4A23.22,23.22,0,0,1,592.36,123.1Z" fill="#0300b0"/>
    </g>
    <path id="Path_37" data-name="Path 37" d="M0,0,253,1" transform="translate(848.5 539.5)" fill="#080808" stroke="#000" stroke-linecap="square" stroke-width="3"/>
    <g id="Polygon_1" data-name="Polygon 1" transform="matrix(-0.017, -1, 1, -0.017, 825.957, 565.889)" fill="#030303">
      <path d="M 51.1336555480957 44.5 L 0.8663458228111267 44.5 L 25.9999828338623 0.999441921710968 L 51.1336555480957 44.5 Z" stroke="none"/>
      <path d="M 25.99998664855957 1.998893737792969 L 1.732700347900391 44 L 50.26731109619141 44 L 25.99998664855957 1.998893737792969 M 25.9999828338623 0 L 52 45 L 3.814697265625e-06 45 L 25.9999828338623 0 Z" stroke="none" fill="#707070"/>
    </g>
    <g id="mongodb" transform="translate(1183 439.797)">
      <path id="Path_38" data-name="Path 38" d="M476.713,60.463c-.46.092-.922,1.107-.922,1.66-.092,3.692-.184,13.474-.184,20.118a.684.684,0,0,0,.553.554c1.384.092,4.706.184,7.567.184a19.753,19.753,0,0,0,7.568-1.106c3.321-1.662,4.89-5.261,4.89-9.23,0-8.95-6.275-12.365-15.6-12.365a14.8,14.8,0,0,0-3.876.185Zm23.81,41.25c0-9.136-6.737-14.212-18.918-14.212-.554,0-4.43-.092-5.353.092-.277.093-.645.278-.645.555,0,6.551-.093,16.98.184,21.04.184,1.753,1.477,4.245,3.046,4.983,1.66.923,5.444,1.107,8.028,1.107,7.29,0,13.658-4.06,13.658-13.565ZM457.889,55.388c.922,0,3.69.276,10.8.276,6.737,0,12.089-.184,18.641-.184,8.028,0,19.1,2.86,19.1,14.857,0,5.906-4.153,10.613-9.6,12.92-.276.092-.276.276,0,.368,7.751,1.939,14.581,6.737,14.581,15.78,0,8.86-5.537,14.489-13.566,18-4.891,2.122-10.981,2.86-17.164,2.86-4.707,0-17.349-.553-24.362-.368-.738-.278.646-3.6,1.291-4.153a17.225,17.225,0,0,0,4.707-.739c2.492-.645,2.768-1.384,3.137-5.167.185-3.23.185-14.674.185-22.794,0-11.166.093-18.733,0-22.424-.092-2.86-1.107-3.784-3.137-4.338-1.57-.276-4.153-.646-6.276-.922-.462-.462,1.107-3.6,1.662-3.968Zm-53.248,57.4c2.216,1.752,6.553,2.49,10.429,2.49,4.983,0,9.966-.921,14.765-5.26,4.891-4.428,8.3-11.257,8.3-22.146,0-10.429-3.968-18.919-12.089-23.9-4.614-2.862-10.52-4.06-17.349-4.06a13.829,13.829,0,0,0-5.167.645,2.712,2.712,0,0,0-.923,1.476c-.185,1.846-.185,16.057-.185,24.363,0,8.582,0,20.579.185,21.963a5.722,5.722,0,0,0,2.03,4.43Zm-20.948-57.4c1.754,0,8.49.277,11.72.277,5.815,0,9.967-.276,20.948-.276,9.228,0,16.98,2.491,22.517,7.2,6.736,5.814,10.244,13.843,10.244,23.624,0,13.935-6.368,21.964-12.736,26.578-6.366,4.706-14.672,7.474-26.484,7.474-6.275,0-17.072-.184-26.024-.277h-.092c-.461-.83.738-4.06,1.476-4.152a14.71,14.71,0,0,0,4.246-.83c1.937-.739,2.307-1.754,2.584-5.168.276-6.368.184-14.027.184-22.7,0-6.182.092-18.272-.093-22.148-.276-3.229-1.66-4.06-4.429-4.614-1.384-.276-3.23-.646-5.813-.922-.37-.647,1.291-3.507,1.752-4.06Z" fill="#8e714e" fill-rule="evenodd"/>
      <path id="Path_39" data-name="Path 39" d="M272.033,116.385a18.56,18.56,0,0,1-6-1.568,2.812,2.812,0,0,1-.739-1.477c-.184-3.23-.184-12.458-.184-18.64,0-4.984-.83-9.321-2.953-12.366A12.6,12.6,0,0,0,251.454,76.8c-4.06,0-9.505,2.768-14.027,6.644-.092.092-.83.739-.738-.277,0-1.015.185-3.045.277-4.43a2.392,2.392,0,0,0-.646-1.937c-2.953,1.476-11.258,3.414-14.3,3.69-2.214.463-2.768,2.585-.46,3.323h.092a20.476,20.476,0,0,1,5.443,2.4,2.87,2.87,0,0,1,.831,2.584c.092,6.92.092,17.533-.184,23.347-.092,2.307-.738,3.137-2.4,3.506l.185-.092a36.437,36.437,0,0,1-3.876.738c-.554.554-.554,3.507,0,4.153,1.015,0,6.367-.277,10.8-.277,6.09,0,9.228.277,10.8.277a6.008,6.008,0,0,0,.462-4.153,17.085,17.085,0,0,1-4.245-.646c-1.661-.37-2.123-1.2-2.216-3.137-.183-4.892-.183-15.227-.183-22.24a4.45,4.45,0,0,1,1.106-3.415,13.962,13.962,0,0,1,8.583-3.137,9.541,9.541,0,0,1,6.367,2.123,9.075,9.075,0,0,1,2.953,5.813c.461,3.968.277,11.812.277,18.641,0,3.691-.277,4.614-1.66,5.075a17.564,17.564,0,0,1-4.246.83c-.646.647-.461,3.508,0,4.154,2.676,0,5.814-.277,10.428-.277,5.721,0,9.413.277,10.89.277a6.437,6.437,0,0,0,.276-3.969ZM297.6,81.135c-4.89,0-7.936,3.783-7.936,9.688,0,6,2.676,12.92,10.243,12.92,1.292,0,3.692-.554,4.8-1.846,1.754-1.66,2.954-4.983,2.954-8.49,0-7.659-3.784-12.273-10.059-12.273Zm-.646,40.787a7.932,7.932,0,0,0-3.968,1.016c-3.876,2.49-5.629,4.89-5.629,7.752a8.162,8.162,0,0,0,3.23,6.643c2.676,2.307,6.367,3.415,11.073,3.415,9.413,0,13.566-5.076,13.566-10.058,0-3.508-1.754-5.815-5.352-7.106-2.584-1.108-7.29-1.662-12.92-1.662Zm.646,23.994c-5.629,0-9.69-1.2-13.2-3.876a12.163,12.163,0,0,1-4.891-9.136,7.07,7.07,0,0,1,1.846-4.614c1.014-1.108,3.23-3.23,8.49-6.829.184-.092.276-.184.276-.37a.611.611,0,0,0-.369-.46c-4.337-1.661-5.629-4.338-6-5.814v-.185c-.091-.554-.276-1.107.555-1.661.646-.461,1.569-1.015,2.583-1.66a37.908,37.908,0,0,0,4.245-2.77.675.675,0,0,0,.185-.553.61.61,0,0,0-.37-.461c-6.458-2.123-9.688-6.922-9.688-14.12a14.011,14.011,0,0,1,5.9-11.627c2.584-2.03,9.044-4.522,13.289-4.522h.277c4.337.092,6.736,1.015,10.15,2.215a17.082,17.082,0,0,0,6,.922c3.6,0,5.167-1.107,6.458-2.4a5.011,5.011,0,0,1,.37,1.845,6.969,6.969,0,0,1-1.2,4.245,5.241,5.241,0,0,1-4.06,1.754h-.462a20.562,20.562,0,0,1-2.4-.37l-.368.185c-.092.185,0,.369.092.646l.093.185a34.063,34.063,0,0,1,.553,3.968c0,7.567-3.045,10.888-6.275,13.38a21.251,21.251,0,0,1-10.8,4.153,11.622,11.622,0,0,0-1.292.092c-.461,0-1.107.093-1.2.093H296.3c-.738.184-2.583,1.107-2.583,2.675,0,1.384.83,3.046,4.8,3.323.83.092,1.66.092,2.584.185,5.26.368,11.812.83,14.857,1.845a10.341,10.341,0,0,1,6.921,9.874c0,6.83-4.89,13.2-13.011,17.164a29.686,29.686,0,0,1-12.274,2.677ZM350.2,81.6a8.57,8.57,0,0,0-4.983,1.383c-3.6,2.215-5.444,6.645-5.444,13.1,0,12.09,6.09,20.58,14.765,20.58a9.39,9.39,0,0,0,6.367-2.215c2.676-2.216,4.061-6.645,4.061-12.828,0-12-6-20.025-14.765-20.025Zm1.662,39.5c-15.688,0-21.317-11.535-21.317-22.332,0-7.567,3.045-13.381,9.135-17.534a27.776,27.776,0,0,1,14.12-4.152c12,0,20.394,8.582,20.394,20.948,0,8.4-3.322,15.041-9.69,19.1a25.59,25.59,0,0,1-12.643,3.968h0ZM187.411,81.6a8.574,8.574,0,0,0-4.984,1.384c-3.6,2.215-5.444,6.645-5.444,13.1,0,12.09,6.09,20.58,14.765,20.58a9.394,9.394,0,0,0,6.368-2.215c2.675-2.216,4.06-6.645,4.06-12.828,0-12-5.906-20.025-14.765-20.025Zm1.661,39.5c-15.688,0-21.317-11.535-21.317-22.332,0-7.567,3.045-13.381,9.135-17.534a27.776,27.776,0,0,1,14.12-4.152c12,0,20.394,8.582,20.394,20.948,0,8.4-3.322,15.041-9.69,19.1a25,25,0,0,1-12.642,3.968Zm-105.478-.923a3.944,3.944,0,0,1-.277-2.122,3.118,3.118,0,0,1,.277-1.384,34.04,34.04,0,0,0,4.06-.831c1.846-.462,2.584-1.476,2.676-3.783.278-5.537.278-16.058.185-23.348v-.185A2.8,2.8,0,0,0,89.5,85.932a20.85,20.85,0,0,0-5.537-2.4c-.83-.275-1.384-.737-1.292-1.29,0-.554.554-1.2,1.754-1.385a67.517,67.517,0,0,0,14.118-3.6A2.283,2.283,0,0,1,99,78.735l-.092,1.014c-.093,1.016-.185,2.216-.185,3.415a.714.714,0,0,0,.738.646,1.3,1.3,0,0,0,.554-.185c5.906-4.614,11.258-6.275,14.026-6.275,4.523,0,8.03,2.123,10.706,6.552a.7.7,0,0,0,.646.37.657.657,0,0,0,.553-.277c5.445-4.153,10.89-6.645,14.488-6.645,8.582,0,13.658,6.368,13.658,17.165,0,3.045,0,7.013-.092,10.613,0,3.229-.092,6.182-.092,8.305a2.9,2.9,0,0,0,1.66,2.214,19.7,19.7,0,0,0,5.353,1.292h.092a7.4,7.4,0,0,1-.553,3.507,22.678,22.678,0,0,1-2.307-.092q-3.5-.183-7.014-.185c-5.721,0-8.674.092-11.536.277a9,9,0,0,1,0-3.507,28.653,28.653,0,0,0,3.508-.83c1.846-.554,2.307-1.385,2.4-3.784,0-1.753.368-16.7-.186-20.3A9.1,9.1,0,0,0,135.917,84a16.365,16.365,0,0,0-9.412,3.6,1.646,1.646,0,0,0-.37.923v.093a42.5,42.5,0,0,1,.37,7.567v6c0,4.153-.093,8.029,0,10.981a2.7,2.7,0,0,0,2.215,2.862c.554.091.922.184,1.384.276.83.185,1.661.37,2.953.646a4.981,4.981,0,0,1-.092,2.584,1.77,1.77,0,0,1-.37.923c-3.137-.092-6.367-.185-11.073-.185-1.384,0-3.784.093-5.814.093-1.662,0-3.23.092-4.152.092a4.868,4.868,0,0,1-.278-1.846,2.874,2.874,0,0,1,.37-1.661,6.24,6.24,0,0,1,1.292-.184c1.106-.185,2.03-.37,2.952-.554,1.57-.461,2.123-1.292,2.215-3.322.277-4.614.554-17.81-.092-21.133-1.107-5.352-4.152-8.028-9.044-8.028a16.932,16.932,0,0,0-9.412,3.6,2.98,2.98,0,0,0-.831,2.121v5.445c0,6.644,0,14.95.092,18.549a2.862,2.862,0,0,0,2.584,2.86,19.324,19.324,0,0,0,2.123.37l1.66.276a7.739,7.739,0,0,1-.276,3.507c-.923,0-2.03-.092-3.323-.092-1.937-.093-4.429-.185-7.2-.185-3.23,0-5.537.092-7.383.185a22.294,22.294,0,0,0-3.414-.185Z" fill="#442d22" fill-rule="evenodd"/>
      <path id="Path_40" data-name="Path 40" d="M35.053,142.317l-3.783-1.293s.462-19.286-6.46-20.67c-4.613-5.353.74-227.013,17.35-.739,0,0-5.722,2.86-6.737,7.752-1.108,4.8-.37,14.95-.37,14.95Z" fill="#fff" fill-rule="evenodd"/>
      <path id="Path_41" data-name="Path 41" d="M35.053,142.317l-3.783-1.293s.462-19.286-6.46-20.67c-4.613-5.353.74-227.013,17.35-.739,0,0-5.722,2.86-6.737,7.752-1.108,4.8-.37,14.95-.37,14.95Z" fill="#a6a385" fill-rule="evenodd"/>
      <path id="Path_42" data-name="Path 42" d="M37.084,123.676s33.13-21.779,25.377-67.09c-7.474-32.943-25.1-43.74-27.038-47.893A46.586,46.586,0,0,1,31.27.573l1.385,91.634c0,.093-2.861,28.054,4.43,31.47" fill="#fff" fill-rule="evenodd"/>
      <path id="Path_43" data-name="Path 43" d="M37.084,123.676s33.13-21.779,25.377-67.09c-7.474-32.943-25.1-43.74-27.038-47.893A46.586,46.586,0,0,1,31.27.573l1.385,91.634c0,.093-2.861,28.054,4.43,31.47" fill="#499d4a" fill-rule="evenodd"/>
      <path id="Path_44" data-name="Path 44" d="M29.333,124.875S-1.767,103.65.079,66.277C1.832,28.9,23.8,10.539,28.04,7.217,30.809,4.264,30.9,3.156,31.086.2c1.938,4.153,1.569,62.106,1.845,68.934C33.761,95.437,31.455,119.893,29.333,124.875Z" fill="#fff" fill-rule="evenodd"/>
      <path id="Path_45" data-name="Path 45" d="M29.333,124.875S-1.767,103.65.079,66.277C1.832,28.9,23.8,10.539,28.04,7.217,30.809,4.264,30.9,3.156,31.086.2c1.938,4.153,1.569,62.106,1.845,68.934C33.761,95.437,31.455,119.893,29.333,124.875Z" fill="#58aa50" fill-rule="evenodd"/>
    </g>
  </g>
</svg>
