<svg xmlns="http://www.w3.org/2000/svg" width="40" height="40" viewBox="0 0 40 40" fill="none">
  <g clip-path="url(#clip0_1605_74943)">
    <path d="M13.3333 22.8069C13.7333 22.8069 14.1249 22.8005 14.5144 22.7949C16.0086 21.7233 17.8851 21.3308 19.6835 21.7135C21.2083 19.3534 23.8177 17.9183 26.6274 17.8946H26.6667V13.2363C23.0814 15.0602 13.8182 15.0876 13.3333 15.0876C12.8484 15.0876 3.58526 15.0602 0 13.2363V20.6798C0.350877 21.4497 5.06667 22.8069 13.3333 22.8069ZM2.10526 15.0876C2.49283 15.0876 2.80702 15.4017 2.80702 15.7893C2.80702 16.1769 2.49283 16.4911 2.10526 16.4911C1.71769 16.4911 1.40351 16.1769 1.40351 15.7893C1.40351 15.4017 1.71769 15.0876 2.10526 15.0876ZM1.40351 18.5963C1.40351 18.2088 1.71769 17.8946 2.10526 17.8946C2.49283 17.8946 2.80702 18.2088 2.80702 18.5963V19.9998C2.80702 20.3874 2.49283 20.7016 2.10526 20.7016C1.71769 20.7016 1.40351 20.3874 1.40351 19.9998V18.5963Z" fill="black"/>
    <path d="M13.3333 13.6841C21.6175 13.6841 26.334 12.3205 26.6667 11.5521V4.11353C23.0814 5.93738 13.8182 5.96475 13.3333 5.96475C12.8484 5.96475 3.58526 5.93738 0 4.11353V11.5788C0.305263 12.3128 5.02667 13.6841 13.3333 13.6841ZM18.8681 10.3395C20.7273 10.2041 22.573 9.92258 24.3881 9.49739C24.7627 9.40408 25.1423 9.63089 25.2377 10.005C25.333 10.3791 25.1083 10.76 24.7347 10.8574C22.8451 11.3023 20.9234 11.5977 18.9874 11.7409H18.927C18.5394 11.7572 18.2121 11.4562 18.1958 11.0686C18.1795 10.681 18.4805 10.3537 18.8681 10.3374V10.3395ZM2.10526 5.96475C2.49283 5.96475 2.80702 6.27894 2.80702 6.66651C2.80702 7.05408 2.49283 7.36826 2.10526 7.36826C1.71769 7.36826 1.40351 7.05408 1.40351 6.66651C1.40351 6.27894 1.71769 5.96475 2.10526 5.96475ZM1.40351 9.47353C1.40351 9.08596 1.71769 8.77177 2.10526 8.77177C2.49283 8.77177 2.80702 9.08596 2.80702 9.47353V10.877C2.80702 11.2646 2.49283 11.5788 2.10526 11.5788C1.71769 11.5788 1.40351 11.2646 1.40351 10.877V9.47353Z" fill="black"/>
    <path d="M13.3333 4.56136C21.5193 4.56136 26.2246 3.22802 26.6554 2.45609C26.2246 1.68416 21.5193 0.35083 13.3333 0.35083C5.05263 0.35083 0.332632 1.71434 0 2.48276V2.49609C0.332632 3.19785 5.05263 4.56136 13.3333 4.56136Z" fill="black"/>
    <path d="M11.4688 27.4384C11.7223 26.2571 12.2489 25.1516 13.0063 24.2104C11.2596 24.1921 3.27018 24.023 0 22.3591V30.5037C0.140351 30.7886 1.50316 31.644 5.90667 32.197C6.59636 29.612 8.80819 27.7197 11.4688 27.4384ZM2.80702 29.1226C2.80702 29.5102 2.49283 29.8244 2.10526 29.8244C1.71769 29.8244 1.40351 29.5102 1.40351 29.1226V27.7191C1.40351 27.3316 1.71769 27.0174 2.10526 27.0174C2.49283 27.0174 2.80702 27.3316 2.80702 27.7191V29.1226ZM2.10526 25.6139C1.71769 25.6139 1.40351 25.2997 1.40351 24.9121C1.40351 24.5245 1.71769 24.2104 2.10526 24.2104C2.49283 24.2104 2.80702 24.5245 2.80702 24.9121C2.80702 25.2997 2.49283 25.6139 2.10526 25.6139Z" fill="black"/>
    <path d="M34.292 26.5493C33.9932 26.4958 33.7627 26.2562 33.7207 25.9556C33.1874 22.1606 30.1383 19.2981 26.6274 19.2981C24.1264 19.3322 21.8328 20.6959 20.6085 22.877C20.4443 23.1548 20.1119 23.2848 19.8028 23.1921C19.3212 23.0474 18.8209 22.9739 18.3179 22.9739C15.56 22.9739 13.1685 25.2279 12.7551 28.2167C12.7071 28.5637 12.4107 28.8221 12.0604 28.8223H12.0471H11.946C9.22811 28.8209 7.01758 31.2497 7.01758 34.2349C7.01758 37.2202 9.22811 39.649 11.946 39.649H33.3242C36.6407 39.649 39.3383 36.6918 39.3383 33.0525C39.3383 29.8069 37.2162 27.07 34.292 26.5493Z" fill="black"/>
  </g>
  <defs>
    <clipPath id="clip0_1605_74943">
      <rect width="40" height="40" fill="white"/>
    </clipPath>
  </defs>
</svg>