<svg xmlns="http://www.w3.org/2000/svg" width="200" height="200" viewBox="0 0 200 200" fill="none">
  <path d="M187.116 85.1266C186.265 76.6866 179.068 70.8036 171.213 69.3338C165.751 68.3118 159.497 69.3526 154.502 70.9686C155.791 60.7026 151.498 49.7624 143.342 43.3198C135.16 36.8852 121.899 33.0833 111.366 37.4952C106.615 27.438 96.8429 19.7164 85.9094 17.5519C72.3623 14.8627 57.9229 20.8267 50.687 30.8518C43.9496 38.4776 40.8118 48.43 41.3864 57.9263C40.2834 58.0082 39.1841 58.134 38.0977 58.3448C27.8372 58.5925 18.022 65.7386 14.2505 75.4007C10.0753 86.0974 12.9706 98.9116 20.5212 107.563C27.2797 115.306 37.3348 119.74 47.6044 120.564C44.8318 159.635 39.9012 177.005 72.055 181.358C93.3793 184.244 115.543 184.018 135.855 176.913C137.32 176.401 138.825 175.82 139.902 174.703C140.979 173.585 141.498 171.779 140.701 170.448C139.515 168.469 136.721 168.846 134.428 169.597C136.867 167.202 138.228 164.143 138.228 160.858C138.228 143.676 138.228 135.514 138.228 123.205C153.499 122.485 173.103 115.852 182.203 104.313C186.491 98.8762 188.797 91.7432 187.116 85.1266ZM85.1121 21.5813C95.4276 23.6254 104.575 31.2559 108.416 41.0215C108.864 42.1631 110.214 42.668 111.308 42.0757C120.458 37.1046 133.33 40.6737 140.799 46.5492C148.7 52.7885 152.403 63.9293 149.803 73.6361C149.363 75.2829 151.017 76.7359 152.597 76.0574C177.482 65.4145 192.329 84.9765 176.918 99.9345C165.773 110.273 148.394 112.963 138.228 114.813C138.198 100.254 138.098 101.946 138.218 100.619C138.781 94.4026 134.756 91.3179 129.057 88.8356C117.233 83.6719 103.439 83.0753 94.0912 83.0753C82.3069 83.0753 58.9744 85.0984 51.3191 94.1278C49.6164 96.1786 48.8587 98.6148 49.6469 101.17V102.572C49.0089 105.786 48.5228 109.854 48.1554 113.784C43.4621 112.478 38.7333 110.923 34.0459 109.129C22.7218 104.784 15.9822 91.2463 19.3293 79.5677C22.6844 67.8971 35.571 60.0016 47.4931 62.3293C48.9993 62.6053 50.224 61.2619 49.885 59.8384C47.1867 48.4675 49.5305 37.5675 56.1604 30.6807C63.4204 23.109 74.7846 19.5345 85.1121 21.5813ZM134.118 146.736C108.294 156.479 79.79 156.824 53.7565 147.699V128.035C80.1076 139.698 108.353 138.562 134.118 128.097V146.736ZM134.118 123.66C107.011 135.125 78.5464 135.102 53.7565 123.548V106.382C69.1482 117.847 116.749 118.609 134.101 105.22C134.134 106.626 134.11 104.468 134.118 123.66ZM94.0912 111.058C73.2837 111.058 58.4159 106.248 54.4655 101.472C54.1578 101.111 53.921 100.758 53.7538 100.407C53.7364 100.065 53.6347 99.7437 53.4675 99.4628C53.312 98.188 54.2038 96.8955 55.141 96.0435C64.5889 87.0786 105.685 83.1135 127.413 92.6028C130.615 93.9993 134.07 95.7813 134.162 99.2434C131.309 104.257 116.018 111.058 94.0912 111.058ZM129.681 168.141C115.834 176.833 71.0764 177.483 59.2546 169.173C56.6059 167.311 53.7565 163.852 53.7565 160.649V152.025C80.0549 160.895 108.234 160.485 134.118 151.098V160.858C134.118 163.718 132.501 166.372 129.681 168.141Z" fill="black"/>
  <path d="M64.4731 40.2215C68.6068 37.5166 73.622 36.0798 78.5437 36.2136C81.3556 36.1947 81.2897 32.1726 78.6453 32.104C72.8475 31.9542 67.047 33.6264 62.223 36.7808C61.2732 37.4042 61.007 38.6777 61.6291 39.6275C62.2539 40.5839 63.5368 40.836 64.4731 40.2215Z" fill="black"/>
  <path d="M117.882 52.7349C123.42 53.797 128.427 57.5856 130.953 62.6289C131.313 63.3486 132.038 63.7633 132.791 63.7633C134.316 63.7633 135.31 62.1519 134.626 60.7882C131.542 54.6264 125.421 49.9951 118.655 48.7002C117.541 48.4674 116.462 49.2166 116.25 50.3322C116.037 51.4453 116.767 52.5235 117.882 52.7349Z" fill="black"/>
  <path d="M161.513 23.0876C160.562 22.4749 159.291 22.7451 158.672 23.6976C155.653 28.3583 153.12 33.3508 151.144 38.5333C150.632 39.8802 151.625 41.3212 153.064 41.3212C153.891 41.3212 154.672 40.8182 154.984 39.9995C156.858 35.0846 159.259 30.3489 162.121 25.929C162.737 24.9765 162.466 23.7056 161.513 23.0876Z" fill="black"/>
  <path d="M167.886 34.4746L160.709 42.132C159.934 42.9587 159.976 44.259 160.804 45.0349C161.627 45.8076 162.924 45.7749 163.709 44.9413L170.886 37.2839C171.662 36.4572 171.619 35.1569 170.791 34.381C169.964 33.6024 168.664 33.6479 167.886 34.4746Z" fill="black"/>
  <path d="M167.233 52.7725C167.737 53.7632 168.959 54.1944 169.995 53.6742L179.626 48.7833C180.638 48.2696 181.042 47.0335 180.529 46.0195C180.016 45.0108 178.774 44.6095 177.766 45.1179L168.136 50.0087C167.123 50.5224 166.719 51.7585 167.233 52.7725Z" fill="black"/>
</svg>