<svg xmlns="http://www.w3.org/2000/svg" width="40" height="40" viewBox="0 0 40 40" fill="none">
  <path d="M39.608 16.4891C39.5016 16.4052 38.4882 15.6381 36.3494 15.6381C35.7839 15.6381 35.224 15.6885 34.6642 15.7837C34.2499 12.9506 31.9095 11.5677 31.8031 11.5061L31.232 11.1758L30.8569 11.7189C30.3866 12.4523 30.0395 13.2586 29.8379 14.1041C29.4572 15.7221 29.6867 17.2395 30.5098 18.5384C29.5188 19.0927 27.9231 19.227 27.6039 19.2382H1.24993C0.56126 19.2382 0.00141632 19.7981 0.00141632 20.4812C-0.0265524 22.7879 0.359776 25.0834 1.15478 27.2502C2.06181 29.6298 3.4111 31.3822 5.16915 32.4572C7.13993 33.6609 10.337 34.3496 13.965 34.3496C15.6055 34.3552 17.2404 34.2041 18.8473 33.9073C21.0868 33.4985 23.2424 32.7147 25.2188 31.5893C26.8481 30.643 28.3206 29.4393 29.5692 28.0284C31.6576 25.6657 32.9006 23.0342 33.8244 20.6938C33.9476 20.6938 34.0707 20.6938 34.1939 20.6938C36.4783 20.6938 37.8836 19.7812 38.6618 19.0141C39.1769 18.527 39.58 17.928 39.8376 17.2673L39.9999 16.7858L39.608 16.4891Z" fill="black"/>
  <path d="M3.69078 18.4656H7.22367C7.39164 18.4656 7.53164 18.3256 7.53164 18.1577V15.0111C7.53164 14.8431 7.39727 14.7031 7.22367 14.7031H3.69078C3.52281 14.7031 3.38281 14.8431 3.38281 15.0111V18.1577C3.38281 18.3256 3.52281 18.4656 3.69078 18.4656Z" fill="black"/>
  <path d="M8.55602 18.4656H12.0889C12.2569 18.4656 12.3969 18.3256 12.3969 18.1577V15.0111C12.3969 14.8431 12.2625 14.7031 12.0889 14.7031H8.55602C8.38242 14.7031 8.24805 14.8431 8.24805 15.0111V18.1577C8.24805 18.3256 8.38805 18.4656 8.55602 18.4656Z" fill="black"/>
  <path d="M13.4994 18.4656H17.0323C17.2002 18.4656 17.3402 18.3256 17.3402 18.1577V15.0111C17.3402 14.8431 17.2059 14.7031 17.0323 14.7031H13.4994C13.3314 14.7031 13.1914 14.8431 13.1914 15.0111V18.1577C13.1914 18.3256 13.3258 18.4656 13.4994 18.4656Z" fill="black"/>
  <path d="M18.3822 18.4656H21.9151C22.083 18.4656 22.223 18.3256 22.223 18.1577V15.0111C22.223 14.8375 22.083 14.7031 21.9151 14.7031H18.3822C18.2142 14.7031 18.0742 14.8431 18.0742 15.0111V18.1577C18.0742 18.3256 18.2086 18.4656 18.3822 18.4656Z" fill="black"/>
  <path d="M8.55602 13.9417H12.0889C12.2569 13.9417 12.3969 13.8017 12.3969 13.6337V10.4872C12.3969 10.3192 12.2569 10.1792 12.0889 10.1792H8.55602C8.38805 10.1792 8.24805 10.3192 8.24805 10.4872V13.6337C8.24805 13.8018 8.38805 13.9417 8.55602 13.9417Z" fill="black"/>
  <path d="M13.4994 13.9417H17.0323C17.2002 13.9417 17.3402 13.8017 17.3402 13.6337V10.4872C17.3402 10.3192 17.2002 10.1792 17.0323 10.1792H13.4994C13.3314 10.1792 13.1914 10.3192 13.1914 10.4872V13.6337C13.1914 13.8018 13.3258 13.9417 13.4994 13.9417Z" fill="black"/>
  <path d="M18.3822 13.9417H21.9151C22.0887 13.9417 22.223 13.8017 22.223 13.6337V10.4872C22.223 10.3192 22.083 10.1792 21.9151 10.1792H18.3822C18.2142 10.1792 18.0742 10.3192 18.0742 10.4872V13.6337C18.0742 13.8018 18.2086 13.9417 18.3822 13.9417Z" fill="black"/>
  <path d="M18.3822 9.4124H21.9151C22.083 9.4124 22.223 9.2724 22.223 9.10443V5.95787C22.223 5.7899 22.083 5.6499 21.9151 5.6499H18.3822C18.2142 5.6499 18.0742 5.7899 18.0742 5.95787V9.10443C18.0742 9.27803 18.2086 9.4124 18.3822 9.4124Z" fill="black"/>
  <path d="M23.3041 18.4656H26.837C27.0049 18.4656 27.1449 18.3256 27.1449 18.1577V15.0111C27.1449 14.8375 27.0049 14.7031 26.837 14.7031H23.3041C23.1361 14.7031 22.9961 14.8431 22.9961 15.0111V18.1577C22.9961 18.3256 23.1361 18.4656 23.3041 18.4656Z" fill="black"/>
</svg>