<svg xmlns="http://www.w3.org/2000/svg" width="40" height="40" viewBox="0 0 40 40" fill="none">
  <g clip-path="url(#clip0_1605_74916)">
    <path d="M36.7107 33.4919C36.5475 33.306 36.3166 33.1238 36.0191 32.9451C35.9742 32.9159 35.8516 32.8451 35.6515 32.734C35.4509 32.6222 35.2909 32.5256 35.1713 32.4435C35.0525 32.3616 34.8962 32.2204 34.7025 32.0194C34.5094 31.8188 34.3569 31.6064 34.2451 31.3832C34.1335 31.1603 34.0256 30.8591 33.9213 30.4794C33.8169 30.0998 33.7581 29.6795 33.7428 29.2182C33.5344 29.3961 33.4193 29.7496 33.3969 30.2782C33.3745 30.8064 33.4863 31.3454 33.7319 31.896C33.9772 32.4469 34.3456 32.8034 34.8365 32.9675C35.3125 33.1315 35.6956 33.3059 35.9861 33.4919C36.2759 33.6781 36.4623 33.8897 36.5443 34.1278C36.6261 34.3665 36.488 34.623 36.1312 34.898C35.7737 35.1736 35.201 35.4449 34.4125 35.7136C33.3263 36.0852 32.5561 36.4017 32.102 36.6617C31.6483 36.9223 30.9828 37.4172 30.1046 38.146C29.5091 38.6371 28.8769 38.9015 28.207 38.9387C27.5379 38.9762 26.9943 38.7306 26.578 38.2025C26.1612 37.6744 26.0269 36.9269 26.1759 35.9592C26.4586 34.0993 26.4517 32.6484 26.1542 31.6069C25.9161 30.7885 25.8636 30.0667 25.998 29.4417C26.1318 28.8174 26.3399 28.453 26.623 28.3486C26.9049 28.244 27.2105 28.4675 27.5379 29.0178C27.567 29.0921 27.6344 29.2372 27.7382 29.4531C27.8423 29.6687 27.9277 29.8217 27.9953 29.9105C28.0622 29.9999 28.1626 30.1152 28.2966 30.2568C28.4304 30.3985 28.5987 30.4986 28.799 30.5585C28.9997 30.6179 29.2339 30.655 29.5022 30.6698C30.0081 30.6845 30.4615 30.5805 30.8636 30.3573C31.2652 30.1342 31.567 29.8849 31.7676 29.6096C31.9682 29.3341 32.1694 29.0703 32.3701 28.8172C32.5707 28.5638 32.7458 28.4225 32.8948 28.3926C33.0582 28.3634 33.2072 28.1996 33.3412 27.9016C33.4751 27.6042 33.5644 27.1913 33.6091 26.6632C33.654 26.1348 33.6166 25.5061 33.4977 24.7773C33.2744 23.4822 32.8314 22.0614 32.1694 20.5139C31.507 18.9662 30.7672 17.7535 29.9486 16.8755C28.4756 15.3133 27.4865 13.6914 26.9801 12.0098C26.4597 10.2392 26.2368 8.647 26.311 7.23331C26.3855 6.22138 26.1659 5.12392 25.6528 3.94086C25.1397 2.75796 24.4585 1.85399 23.6104 1.22903C23.0748 0.827436 22.4124 0.518712 21.6242 0.302785C20.8355 0.0868587 20.0467 -0.0132869 19.258 0.00141046C18.291 0.00141046 17.517 0.157531 16.9369 0.470164C15.7465 1.11013 14.9581 1.88753 14.5709 2.80267C14.1838 3.71766 14.0056 4.84483 14.0351 6.18409C14.0949 9.13037 14.2137 11.4368 14.3924 13.1032C14.1839 13.8771 13.2615 15.3277 11.6246 17.4555C11.3268 17.7533 11.0366 18.155 10.7538 18.6609C10.4712 19.1669 10.2479 19.6209 10.0843 20.0223C9.92046 20.4239 9.70109 21.0042 9.42583 21.7633C9.15041 22.522 8.95348 23.0579 8.83433 23.3701C8.7302 23.6384 8.56642 23.9504 8.34338 24.3081C8.1201 24.6649 7.94115 25.0149 7.80755 25.3565C7.67394 25.6987 7.59936 26.0855 7.58451 26.5172C7.56965 26.8446 7.58451 27.1274 7.62923 27.3652C7.68856 27.7229 7.80043 27.8342 7.9639 27.7005C8.63381 27.1945 9.47453 27.492 10.4862 28.5935C11.2005 29.3672 12.4579 31.1678 14.2584 33.9951C14.4072 34.2479 14.5558 34.5194 14.7046 34.8103C14.8538 35.1001 14.9947 35.4866 15.1288 35.9703C15.2627 36.4546 15.3186 36.8894 15.2962 37.2764C15.2737 37.6636 15.1028 38.0208 14.7828 38.3476C14.4628 38.6749 13.9829 38.8831 13.3432 38.9724C13.0007 39.017 12.5882 38.9876 12.1044 38.883C11.6207 38.7789 11.0069 38.6079 10.263 38.3698C9.51901 38.132 8.96856 37.968 8.61137 37.8787C8.09086 37.7594 7.3506 37.6076 6.39066 37.4212C5.43079 37.2349 4.80193 37.0974 4.50439 37.0081C3.9985 36.8743 3.72331 36.6811 3.67875 36.4278C3.63403 36.2194 3.73817 35.8625 3.99123 35.3569C4.24444 34.8509 4.3707 34.486 4.3707 34.2632C4.3854 34.0992 4.37805 33.936 4.34819 33.7721C4.31864 33.6083 4.28518 33.4817 4.24788 33.3924C4.21067 33.3033 4.14743 33.1693 4.05807 32.9905C3.96871 32.8121 3.9093 32.6778 3.87951 32.589C3.61183 31.9637 3.57454 31.5391 3.76795 31.3163C3.90171 31.1228 4.2217 31.0485 4.72758 31.0934C5.48645 31.1678 6.1039 31.0559 6.58016 30.7582C7.36858 30.2673 7.60694 29.4786 7.29431 28.3921C7.29431 28.898 7.20496 29.2771 7.0264 29.5304C6.84784 29.7833 6.53521 30.0438 6.08897 30.3119C5.83614 30.4607 5.38951 30.5498 4.74986 30.5801C4.11014 30.6098 3.68587 30.7141 3.4776 30.8925C3.32891 31.0265 3.25088 31.2275 3.24338 31.4953C3.23603 31.7637 3.26973 32.0346 3.34399 32.3102C3.41826 32.5855 3.49277 32.9014 3.56704 33.2587C3.64154 33.616 3.67109 33.9139 3.65639 34.1517C3.64154 34.3152 3.50723 34.721 3.2544 35.3677C3.00158 36.0151 2.94951 36.51 3.09828 36.8519C3.17279 37.016 3.29904 37.1612 3.47768 37.2875C3.65616 37.414 3.90539 37.5219 4.22529 37.6115C4.54496 37.7009 4.83899 37.7715 5.10698 37.8234C5.37466 37.875 5.74663 37.9424 6.22273 38.0238C6.69891 38.1053 7.07831 38.1765 7.36108 38.2356C8.31344 38.4293 9.39956 38.7492 10.6198 39.1955C11.84 39.642 12.6657 39.8723 13.0972 39.8871C13.5139 39.9018 13.9118 39.8165 14.2914 39.6303C14.6708 39.4446 14.9943 39.2325 15.2623 38.9943C15.5299 38.7562 15.928 38.5328 16.4561 38.3247C16.9846 38.1163 17.576 38.0048 18.2308 37.9898C18.5284 37.9751 18.9599 37.9564 19.5253 37.9342C20.0907 37.9116 20.5147 37.9007 20.7975 37.9007C22.0771 37.9007 23.0442 37.9079 23.6989 37.9228C24.1454 37.9381 24.495 38.0085 24.7481 38.1351C25.0009 38.2613 25.1649 38.4066 25.2391 38.57C25.3134 38.7341 25.4368 38.9234 25.608 39.1393C25.7787 39.355 25.9981 39.5299 26.2656 39.6637C26.8308 39.9318 27.4933 40.0396 28.2523 39.9874C29.0111 39.9355 29.5173 39.7903 29.77 39.5522C30.1866 39.1506 30.7482 38.6742 31.455 38.1238C32.1618 37.5735 32.7986 37.1567 33.3636 36.8739C33.4824 36.8139 33.6833 36.7174 33.9661 36.5833C34.2486 36.4493 34.4865 36.3343 34.6799 36.2372C34.8734 36.1404 35.108 36.0175 35.3827 35.8688C35.6582 35.7198 35.8814 35.5823 36.0526 35.4557C36.2237 35.3291 36.3982 35.1844 36.5769 35.0204C36.7554 34.8569 36.8707 34.6932 36.9232 34.5295C36.9745 34.3658 36.9938 34.1984 36.9788 34.0273C36.9636 33.8566 36.8747 33.6784 36.7107 33.4919ZM24.7476 11.9195C24.792 11.89 24.822 11.8787 24.8367 11.8861C24.8517 11.8936 24.8814 11.9234 24.9258 11.9754C24.9708 12.0275 25.0112 12.076 25.0489 12.1207C25.0858 12.1649 25.1377 12.2247 25.2046 12.299C25.2714 12.3735 25.3421 12.4329 25.4162 12.4776C25.506 12.537 25.6136 12.5782 25.7402 12.6004C25.8667 12.6226 25.9635 12.6598 26.0308 12.7118C26.098 12.7638 26.1464 12.8493 26.1756 12.9685C26.2049 13.1324 26.1801 13.2808 26.0982 13.4147C26.0158 13.5488 25.9083 13.6085 25.774 13.5935C25.5062 13.5339 25.2159 13.2997 24.9037 12.8904C24.5916 12.4812 24.5392 12.1576 24.7476 11.9195ZM21.9797 3.2486C22.0538 3.15189 22.0985 3.07379 22.1132 3.01438C22.1429 2.92479 22.1467 2.83191 22.1245 2.73521C22.1023 2.6385 22.1095 2.54179 22.1467 2.44509C22.1841 2.34838 22.2697 2.29256 22.4037 2.27771C22.5376 2.27771 22.7162 2.38943 22.9394 2.61254C22.9838 2.64241 23.0545 2.68705 23.1507 2.74646C23.2476 2.80603 23.3145 2.85802 23.3516 2.90258C23.3888 2.94699 23.4073 2.98459 23.4073 3.01414C23.3776 3.08841 23.3107 3.14095 23.2069 3.1705C23.1032 3.20005 22.991 3.21522 22.8722 3.21522C22.7535 3.21522 22.686 3.22257 22.6714 3.23742C22.5523 3.28214 22.4408 3.34898 22.3364 3.43818C22.2323 3.52754 22.1505 3.59446 22.0911 3.6391C22.0311 3.68366 21.9718 3.68366 21.9124 3.6391C21.853 3.54974 21.8305 3.48649 21.8455 3.44944C21.8606 3.41238 21.9053 3.3453 21.9797 3.2486ZM11.1769 19.9552C11.2807 19.8363 11.3554 19.7396 11.4 19.6651C11.4446 19.5906 11.4854 19.4902 11.5227 19.3638C11.5599 19.2372 11.5934 19.1441 11.6232 19.0847C11.6531 19.0249 11.6978 19.0027 11.7572 19.0175C11.7868 19.0102 11.809 19.0249 11.8244 19.0621C11.8391 19.0994 11.8466 19.118 11.8466 19.118V19.185C11.8466 19.2076 11.8428 19.2371 11.8353 19.2744C11.8278 19.3119 11.8166 19.3453 11.8019 19.3749C11.7868 19.4048 11.772 19.4495 11.7572 19.5089C11.7424 19.5683 11.7277 19.6204 11.7125 19.665C11.6531 19.8141 11.5599 19.9477 11.4337 20.0669C11.3071 20.1859 11.214 20.238 11.1545 20.2231C11.0652 20.1935 11.0729 20.1039 11.1769 19.9552ZM25.7736 33.7266C25.7439 34.2025 25.6433 34.8724 25.4721 35.7355C25.3009 36.5983 25.1929 37.1713 25.1481 37.4538C24.8356 37.4386 24.6572 37.3233 24.6125 37.1076C24.5681 36.8917 24.6125 36.613 24.7465 36.2705C25.0737 35.2731 25.2444 34.5888 25.2596 34.2171C25.2899 33.5325 25.2152 33.1456 25.037 33.0565C24.8726 32.9375 24.6199 33.1609 24.2777 33.7259C23.6225 34.7974 22.3059 35.4442 20.327 35.6679C18.5417 35.9061 17.3067 35.6382 16.622 34.864C16.4732 34.7599 16.3245 34.7415 16.1758 34.8086C16.027 34.875 15.9303 34.9461 15.8856 35.0199C15.871 35.0499 15.8856 35.0944 15.9304 35.154C15.975 35.2137 16.0457 35.3027 16.1424 35.4218C16.2391 35.5414 16.3172 35.66 16.3766 35.7795C16.9572 36.791 16.9052 37.4754 16.2205 37.8326C16.2205 37.1486 16.1684 36.6239 16.0644 36.2595C15.9602 35.8949 15.752 35.4933 15.4394 35.054C15.1271 34.6152 14.9113 34.284 14.7924 34.0609C15.2386 34.0165 15.5772 33.8452 15.8079 33.5475C16.0386 33.25 16.1426 32.9301 16.1204 32.5879C16.0981 32.2455 15.968 31.9626 15.7298 31.7395C15.5959 31.6058 14.9038 31.0365 13.654 30.032C12.4042 29.0277 11.6304 28.3543 11.3329 28.0122C11.2731 27.9525 11.0948 27.8037 10.7971 27.5656C10.4993 27.3276 10.3132 27.1194 10.239 26.9407C9.55435 25.4385 9.48008 24.2028 10.0157 23.236L10.1049 23.1245C10.1791 23.1098 10.1867 23.2435 10.1271 23.5264C10.0379 23.9432 10.0082 24.3595 10.0379 24.7763C10.0973 25.714 10.3652 26.4131 10.8413 26.874C11.1539 27.1871 11.3696 27.1646 11.4887 26.8074C11.5781 26.6881 11.6189 26.2493 11.6114 25.49C11.6042 24.7315 11.6153 24.2181 11.6451 23.95C11.7642 23.102 12.1176 22.0527 12.7053 20.8033C13.293 19.5533 13.7582 18.8836 14.1004 18.7944C13.8325 18.3628 13.7469 17.8941 13.8437 17.3881C13.9403 16.8822 14.0968 16.4504 14.3124 16.0935C14.5279 15.7365 14.7477 15.3237 14.9707 14.8549C15.1939 14.3861 15.3055 13.9657 15.3055 13.5937C15.3055 13.4897 15.3132 13.4152 15.328 13.3706C15.3726 13.2367 15.5586 13.4003 15.886 13.8615C16.5109 14.7842 16.9797 15.3274 17.2922 15.4911C17.6196 15.6694 17.9839 15.662 18.3858 15.4686C18.7874 15.2751 19.2822 14.9552 19.8701 14.5089C20.4576 14.0627 20.9598 13.7352 21.3765 13.5271C21.4215 13.512 21.4919 13.4785 21.589 13.4265C21.6853 13.3747 21.7597 13.3373 21.8116 13.3148C21.8633 13.2926 21.9304 13.2592 22.0125 13.2145C22.0938 13.1698 22.157 13.1326 22.2017 13.1027C22.2463 13.0728 22.2911 13.0393 22.3355 13.0021C22.3798 12.9648 22.4095 12.9279 22.4248 12.8906C22.4398 12.8534 22.4473 12.82 22.4473 12.7901C22.4173 12.6561 22.3542 12.5742 22.2573 12.5446C22.1605 12.5149 22.0305 12.5334 21.8667 12.6005C21.703 12.6675 21.5205 12.7569 21.3199 12.8684C21.1193 12.9799 20.8961 13.1064 20.6505 13.2478C20.4051 13.3893 20.1558 13.5193 19.903 13.6385C19.6501 13.7576 19.3821 13.8618 19.0994 13.9511C18.8167 14.0402 18.5488 14.0925 18.2959 14.1074C17.671 14.1223 17.1727 13.9589 16.8007 13.6164C16.5627 13.393 16.4363 13.2517 16.4212 13.1923C16.4062 13.1329 16.4733 13.1181 16.622 13.1476C17.4258 13.2518 18.0134 13.2665 18.3855 13.1923C18.7723 13.1329 19.293 12.9616 19.9478 12.6789C20.0819 12.6194 20.42 12.4742 20.9637 12.2436C21.5065 12.0133 21.9271 11.8532 22.2246 11.7639C22.4036 11.7191 22.5264 11.6486 22.5933 11.5518C22.6599 11.4551 22.6824 11.3658 22.6599 11.2839C22.6378 11.2022 22.5893 11.139 22.5152 11.0944C22.3511 11.005 22.2024 11.0646 22.069 11.2729C21.9943 11.4068 21.8378 11.5372 21.5999 11.6636C21.3621 11.7902 21.1422 11.8868 20.9415 11.9537C20.7406 12.0205 20.484 12.0987 20.1713 12.1879C19.8587 12.2773 19.6879 12.3293 19.658 12.3442C18.8397 12.597 18.0808 12.7087 17.3813 12.6789C17.0539 12.6642 16.7899 12.6156 16.5892 12.5338C16.3883 12.4521 16.2504 12.3554 16.1762 12.2436C16.1017 12.1322 15.9828 11.9908 15.8191 11.8196C15.6553 11.6484 15.4692 11.5034 15.261 11.3842C15.1122 11.3099 15.0563 11.176 15.0936 10.9826C15.1308 10.7891 15.2462 10.5881 15.4396 10.3798C15.4544 10.3648 15.607 10.272 15.8971 10.1008C16.1872 9.92958 16.3918 9.7547 16.5111 9.57614C16.6447 9.36788 16.8755 9.15195 17.2028 8.92868C17.2176 8.86926 17.2289 8.70563 17.2362 8.4378C17.2436 8.17012 17.173 7.87992 17.0242 7.56745C16.8755 7.25481 16.6744 7.09877 16.4215 7.09877C16.0643 7.08392 15.8114 7.18797 15.6626 7.41125C15.5138 7.63421 15.4471 7.90963 15.4618 8.23696C15.4769 8.51957 15.5476 8.76865 15.6739 8.98457C15.8004 9.2005 15.9158 9.30846 16.02 9.30846C16.1835 9.29337 16.2356 9.35271 16.1761 9.48679C16.0869 9.65065 15.9677 9.75501 15.819 9.79942C15.7145 9.82897 15.5991 9.72867 15.4729 9.49804C15.3463 9.26742 15.2497 8.98856 15.1828 8.66107C15.1159 8.33374 15.0896 8.05848 15.1047 7.83505C15.1343 7.3738 15.2569 6.93108 15.4729 6.50697C15.6888 6.08293 15.9975 5.87826 16.3991 5.89296C16.8158 5.90805 17.1509 6.16119 17.4037 6.65206C17.6569 7.14302 17.7758 7.81292 17.761 8.661C17.8057 8.76521 17.9209 8.80242 18.1071 8.77255C18.2927 8.74269 18.5385 8.73886 18.8434 8.7613C19.1482 8.7835 19.3677 8.86152 19.5017 8.99552C19.5168 8.99552 19.5242 8.88372 19.5242 8.66068C19.2563 6.78606 19.9184 5.78906 21.5107 5.66992C21.7483 5.71463 21.9492 5.77053 22.1127 5.8373C22.2769 5.90414 22.4511 6.01601 22.6373 6.17213C22.8238 6.32825 22.9794 6.55512 23.106 6.8529C23.2326 7.15084 23.3331 7.52281 23.4074 7.96904V8.79476C23.4074 9.27086 23.3103 9.53877 23.1169 9.59835C22.8047 9.7024 22.5818 9.6988 22.448 9.58709C22.314 9.47529 22.3285 9.27836 22.4924 8.9956C22.6411 8.62363 22.6114 8.19177 22.403 7.70082C22.1949 7.20994 21.8152 6.98666 21.2649 7.03138C20.8928 7.04631 20.6249 7.24723 20.4612 7.63398C20.2975 8.02088 20.2382 8.40035 20.2828 8.7724C20.3275 9.14437 20.4091 9.33778 20.5285 9.35256C20.6176 9.36764 20.8821 9.48655 21.321 9.70983C21.7605 9.93302 22.0914 10.0669 22.3143 10.1115C22.8946 10.2303 23.2252 10.4164 23.3074 10.6695C23.3892 10.9227 23.3558 11.2908 23.2071 11.7743C23.0581 12.2582 23.0136 12.6559 23.0735 12.9685C23.133 13.2962 23.2447 13.5935 23.4085 13.8613C23.5722 14.1294 23.7466 14.3747 23.9329 14.598C24.1188 14.8208 24.3379 15.2378 24.5915 15.8477C24.8441 16.458 25.0747 17.2242 25.2828 18.1468C25.2975 18.1616 25.3532 18.2137 25.4501 18.303C25.5469 18.3922 25.6433 18.5038 25.7404 18.6377C25.8375 18.7717 25.9526 18.9539 26.0866 19.1846C26.2204 19.4153 26.3659 19.7539 26.5221 20.2004C26.6778 20.6467 26.8234 21.1604 26.9571 21.7404C27.1209 22.4253 27.2064 23.2206 27.2139 24.1289C27.2215 25.0364 27.2808 25.6577 27.3926 25.9926C27.5045 26.3278 27.7908 26.4653 28.252 26.4057C28.8323 26.376 29.2047 26.0635 29.3676 25.4683C29.8588 23.7421 29.4575 21.6735 28.1627 19.2633C27.6715 18.3258 27.2477 17.7082 26.8903 17.4107C27.4109 17.7083 27.9468 18.2661 28.4977 19.0847C29.0483 19.9033 29.3976 20.6698 29.5464 21.3836C29.5609 21.4582 29.6021 21.6555 29.6689 21.975C29.7358 22.295 29.7732 22.4812 29.7802 22.5332C29.7874 22.5853 29.8177 22.7378 29.8694 22.9907C29.9217 23.2437 29.9475 23.4075 29.9475 23.4818C29.9475 23.5565 29.9547 23.7015 29.9699 23.9171C29.9851 24.1327 29.9812 24.3002 29.9586 24.4193C29.9362 24.5386 29.9142 24.6986 29.8918 24.899C29.8694 25.0999 29.8324 25.2934 29.7802 25.4796C29.7289 25.6655 29.6729 25.8705 29.6133 26.0934C30.4314 26.4505 30.8407 26.7627 30.8407 27.0308C30.5285 26.7777 30.0817 26.6105 29.5012 26.5294C28.9205 26.4473 28.3818 26.5254 27.8831 26.7635C27.3844 27.0016 27.1276 27.3957 27.1126 27.946C26.577 27.946 26.1974 28.0798 25.9745 28.3482C25.6472 28.7348 25.4763 29.2591 25.4614 29.9216C25.4465 30.5834 25.5018 31.3055 25.6283 32.0862C25.7554 32.8673 25.8036 33.4138 25.7736 33.7266ZM16.4219 7.85725C16.3772 7.84255 16.34 7.7976 16.3105 7.72333C16.3105 7.58973 16.3772 7.53727 16.5112 7.56721C16.6006 7.59676 16.6863 7.70848 16.768 7.90189C16.8498 8.0953 16.8684 8.31858 16.8239 8.57156C16.8239 8.6162 16.8017 8.63871 16.7567 8.63832C16.5928 8.63832 16.5334 8.48963 16.5781 8.19209C16.6226 7.96889 16.5706 7.85725 16.4219 7.85725ZM22.2028 8.2146L22.1584 8.28144C22.0396 8.35571 21.9805 8.37064 21.9805 8.32616C21.9206 7.92417 21.7867 7.69355 21.5786 7.63398L21.4893 7.58941C21.3849 7.50006 21.4368 7.44799 21.6449 7.43314C21.6896 7.4182 21.7565 7.44041 21.8458 7.49998C21.9352 7.55963 22.017 7.65266 22.0915 7.77915C22.1656 7.9058 22.2028 8.05066 22.2028 8.2146Z" fill="black"/>
    <path d="M17.002 9.50883C17.002 9.59819 17.0394 9.6354 17.1138 9.62062C17.1732 9.62062 17.2362 9.54987 17.3033 9.40853C17.3703 9.26749 17.4858 9.18939 17.6493 9.17431V9.17407H17.426C17.1434 9.21871 17.002 9.33027 17.002 9.50883Z" fill="black"/>
    <path d="M18.9434 9.24115C19.0921 9.19644 19.2225 9.23021 19.3341 9.34177C19.4455 9.45317 19.5313 9.50172 19.5908 9.48663C19.6798 9.44223 19.7022 9.37507 19.6576 9.28587C19.5386 9.09238 19.3006 9.07753 18.9434 9.24115Z" fill="black"/>
  </g>
  <defs>
    <clipPath id="clip0_1605_74916">
      <rect width="40" height="40" fill="white"/>
    </clipPath>
  </defs>
</svg>