<svg xmlns="http://www.w3.org/2000/svg" width="40" height="40" viewBox="0 0 40 40" fill="none">
  <path d="M30.9163 21.2519C30.8642 16.1831 35.0491 13.7573 35.2346 13.6356C32.8842 10.2013 29.2267 9.72894 27.9197 9.67677C24.81 9.35798 21.8452 11.5084 20.2628 11.5084C18.6862 11.5084 16.246 9.72024 13.6638 9.76661C10.2672 9.81878 7.14007 11.7431 5.3896 14.7804C1.86258 20.9012 4.48539 29.9666 7.92257 34.9369C9.60348 37.3655 11.609 40.0927 14.2376 39.997C16.7706 39.8956 17.7269 38.3567 20.7903 38.3567C23.8536 38.3567 24.7143 39.997 27.3922 39.9477C30.1194 39.8956 31.8437 37.4698 33.5102 35.0354C35.4403 32.2155 36.2344 29.4826 36.2837 29.3464C36.2199 29.3116 30.9714 27.3032 30.9163 21.2519Z" fill="black"/>
  <path d="M25.8802 6.38748C27.2742 4.69787 28.219 2.34459 27.961 0C25.9468 0.0811477 23.5153 1.33604 22.0691 3.02855C20.7737 4.52688 19.6463 6.91784 19.9477 9.21606C22.1909 9.39284 24.4862 8.07419 25.8802 6.38748Z" fill="black"/>
</svg>