<svg xmlns="http://www.w3.org/2000/svg" width="200" height="200" viewBox="0 0 200 200" fill="none">
  <path d="M50.8122 131.913C51.4108 131.732 51.9353 131.363 52.308 130.86C52.6807 130.358 52.882 129.749 52.882 129.123C52.882 128.498 52.6807 127.889 52.308 127.386C51.9353 126.884 51.4108 126.515 50.8122 126.333C41.125 125.951 31.4261 126.687 21.9073 128.525C21.3657 128.691 20.9008 129.045 20.5955 129.522C20.2903 129.999 20.1644 130.57 20.2403 131.131C20.3163 131.693 20.5892 132.209 21.0103 132.588C21.4315 132.967 21.9735 133.184 22.5399 133.201C31.9477 132.706 41.4578 132.55 50.8122 131.913Z" fill="black"/>
  <path d="M19.1392 147.257C19.2113 147.827 19.4885 148.35 19.9188 148.73C20.3491 149.11 20.903 149.32 21.477 149.321C28.2955 148.787 35.142 148.709 41.9709 149.085C42.8648 149.072 43.7176 148.708 44.345 148.071C44.9724 147.434 45.3241 146.576 45.324 145.682C45.324 144.788 44.9723 143.93 44.3448 143.293C43.7174 142.656 42.8646 142.292 41.9707 142.279C38.0338 141.968 18.6715 141.854 19.1392 147.257Z" fill="black"/>
  <path d="M191.95 33.3967C190.947 31.5025 189.397 29.9541 187.502 28.953C185.607 27.9519 183.454 27.5446 181.324 27.784C175.007 27.7183 168.57 28.4992 162.267 28.8808C156.442 28.9293 150.636 29.5602 144.937 30.7642C146.842 17.746 139.863 17.1644 129.214 19.3284C117.824 21.0481 106.169 21.2701 94.8455 23.0321C94.2637 23.213 93.7649 23.594 93.4374 24.1078C93.1099 24.6215 92.9751 25.2346 93.0568 25.8384C93.1385 26.4421 93.4314 26.9973 93.8837 27.4055C94.3359 27.8138 94.9181 28.0486 95.527 28.0683C99.449 28.101 103.365 27.7635 107.224 27.0604C117.03 25.9965 126.871 25.3263 136.7 24.5153C137.976 24.4174 139.271 23.934 139.757 25.3309C140.324 27.9527 140.224 30.6751 139.466 33.2481C138.237 41.3958 130.654 40.6267 124.252 40.8935C116.722 40.8793 108.773 42.7885 101.4 40.9483C97.928 39.6677 96.9548 35.0958 96.6924 31.813C96.6805 31.4811 96.5402 31.1667 96.3011 30.9361C96.062 30.7054 95.7428 30.5766 95.4107 30.5766C95.0785 30.5766 94.7593 30.7054 94.5202 30.9361C94.2811 31.1667 94.1409 31.4811 94.1289 31.813C94.0995 32.4718 94.0648 33.1215 94.0349 33.7665C79.1435 31.3402 58.3451 38.3717 58.1455 56.109C58.3863 61.6814 58.5271 67.3338 58.8258 72.8542C58.9573 73.2914 59.2124 73.6812 59.5603 73.9768C59.9083 74.2724 60.3342 74.4611 60.7869 74.5202C61.2395 74.5794 61.6997 74.5064 62.1119 74.3102C62.524 74.1139 62.8707 73.8027 63.1102 73.414C65.3736 68.8807 63.6948 63.5267 63.7131 58.6769C62.5456 41.0498 81.1058 39.6099 94.1273 37.7951C94.3072 39.3508 94.868 40.8382 95.7601 42.1253C88.537 38.339 78.2198 42.4448 77.6964 51.2058C77.3477 58.4234 76.7381 72.4644 76.8257 78.8918C54.4415 77.843 32.0112 79.3922 9.98379 83.5083C5.80023 84.2651 7.5937 90.5632 11.7363 89.8649C18.0097 88.8071 24.3017 87.9719 30.6064 87.2909C28.6016 92.3445 28.206 99.1263 32.974 102.774C37.9034 106.192 44.342 104.539 49.9351 104.4C53.224 104.186 56.5203 104.021 59.8062 103.774C69.9423 103.281 72.0068 93.3409 70.0939 85.0287C74.9578 84.9629 79.8742 84.8581 84.7309 85.1822C87.1052 85.3439 88.5868 85.1713 89.0293 87.6341C89.1004 109.67 93.1762 132.1 89.48 154.089C88.6274 158.752 86.3829 159.837 81.78 160.011C66.1897 160.458 50.5941 160.775 35.004 161.248C29.453 161.404 15.0157 163.975 11.6077 157.798C10.6632 155.282 10.3581 152.571 10.7198 149.909C10.6828 141.681 11.3956 133.483 11.9018 125.278C12.549 114.365 12.3988 103.42 11.4524 92.5289C11.1649 89.3154 6.10867 89.2852 6.39873 92.5289C7.41748 103.913 7.32061 115.356 7.36823 126.775C7.39111 132.253 7.45367 137.741 7.31101 143.217C7.18601 148.019 6.18623 153.605 7.4882 158.312C9.6887 166.269 18.8018 167.057 25.6488 167.042C39.969 167.006 54.2913 166.727 68.6105 166.564C61.8753 175.311 74.0482 182.504 82.1315 181.549C105.289 181.026 128.438 180.112 151.578 178.807C161.382 177.704 171.794 179.377 181.071 175.568C190.986 171.989 190.782 164.658 191.461 155.57C192.445 143.784 192.752 131.9 193.06 120.08C193.672 96.6407 193.811 73.2015 193.302 49.759C193.192 44.6976 194.14 38.1347 191.95 33.3967ZM63.2112 97.3953C59.6675 100.726 54.025 99.2554 49.5729 99.9628C38.0705 100.859 31.2883 102.544 33.1451 87.882C33.1608 87.732 33.1463 87.5803 33.1025 87.4359C33.0587 87.2916 32.9864 87.1574 32.8899 87.0414C43.418 85.9743 53.9856 85.3789 64.5837 85.1285C65.3541 89.0492 66.0087 94.0586 63.2112 97.3953ZM86.5024 79.9114C84.4595 79.6164 82.395 79.3907 80.3226 79.1941C81.2483 71.2063 80.27 62.9589 81.0351 54.8965C80.8637 49.0021 83.9517 46.3062 89.725 46.2128C91.661 46.0268 97.8128 46.6028 96.9068 43.5011C103.233 48.6761 112.527 45.9625 120.076 46.1506C127.351 45.4914 136.838 47.1935 141.828 40.6487C148.71 41.7368 155.659 42.3531 162.626 42.4931C165.987 42.6302 169.954 41.7566 172.564 44.1894C175.05 46.5063 173.5 51.5318 173.279 54.7287C171.936 83.5863 171.267 112.48 169.178 141.306C168.918 147.177 169.606 153.112 162.823 154.832C140.933 157.671 118.868 158.94 96.7974 158.628C96.4298 158.589 96.0582 158.628 95.7069 158.743C95.3557 158.859 95.0328 159.047 94.7594 159.295C99.3973 140.375 97.0226 120.415 95.9682 101.166C95.8107 96.0549 95.2727 90.9628 94.3589 85.9318C93.8749 84.2146 92.8481 82.7001 91.4319 81.615C90.0158 80.5298 88.2864 79.9321 86.5024 79.9114ZM187.136 106.176C186.914 115.705 186.424 125.233 185.852 134.747C184.785 145.873 186.031 157.822 182.325 168.47C181.374 170.849 180.651 171.464 177.827 171.638C147.755 171.643 117.649 171.53 87.5719 172.387C85.4444 172.445 73.5758 174.208 74.6618 169.531C74.7777 169 74.7681 168.45 74.634 167.923C74.4998 167.396 74.2447 166.908 73.8889 166.497C80.6741 166.073 90.0923 168.144 93.9867 160.939C93.928 161.366 93.9542 161.801 94.0638 162.218C94.1734 162.635 94.3642 163.026 94.6253 163.369C94.8865 163.712 95.2127 164.001 95.5854 164.217C95.9582 164.434 96.37 164.575 96.7974 164.633C112.843 167.768 129.323 166.516 145.528 165.253C156.775 164.192 174.631 164.741 176.429 150.034C177.853 133.957 176.311 117.662 176.946 101.527C177.29 84.901 178.417 68.2384 178.153 51.6088C178.42 48.4526 177.796 45.2848 176.352 42.4656C175.542 41.4696 174.529 40.6574 173.381 40.0832C172.233 39.509 170.975 39.1859 169.693 39.1353C161.145 37.4205 152.422 36.7421 143.713 37.1147C144.048 36.1473 144.309 35.1557 144.493 34.1486C153.191 35.6508 162.713 34.181 171.459 33.7219C175.046 33.5337 180.401 32.2523 183.86 33.5453C188.436 35.2558 186.998 43.4816 187.086 47.4407C187.521 67.0154 187.592 86.6011 187.136 106.176Z" fill="black"/>
  <path d="M89.6973 54.4067C89.7387 54.4067 89.7784 54.3903 89.8078 54.361C89.8371 54.3317 89.8535 54.2919 89.8535 54.2505C89.8535 54.2091 89.8371 54.1693 89.8078 54.14C89.7784 54.1107 89.7387 54.0942 89.6973 54.0942C89.6558 54.0942 89.6161 54.1107 89.5868 54.14C89.5575 54.1693 89.541 54.2091 89.541 54.2505C89.541 54.2919 89.5575 54.3317 89.5868 54.361C89.6161 54.3903 89.6558 54.4067 89.6973 54.4067Z" fill="black"/>
  <path d="M103.88 73.218C107.94 73.8799 112.058 74.1142 116.167 73.9171C120.311 74.1715 124.471 74.0359 128.59 73.512C129.178 73.3307 129.693 72.9657 130.058 72.4705C130.424 71.9752 130.621 71.3758 130.621 70.7601C130.621 70.1445 130.424 69.5451 130.058 69.0498C129.693 68.5546 129.178 68.1896 128.59 68.0083C124.465 67.5423 120.305 67.4727 116.167 67.8006C112.051 67.6832 107.934 67.9838 103.88 68.6978C103.396 68.8467 102.974 69.1465 102.673 69.5533C102.373 69.96 102.211 70.4523 102.211 70.9579C102.211 71.4635 102.373 71.9558 102.673 72.3626C102.974 72.7694 103.396 73.0692 103.88 73.218Z" fill="black"/>
  <path d="M142.322 75.3682C148.108 78.8799 152.632 72.2234 156.459 69.2003C159.133 67.0522 161.582 64.639 163.77 61.9975C164.076 61.4516 164.195 60.8206 164.11 60.2006C164.024 59.5806 163.738 59.0056 163.296 58.563C162.853 58.1204 162.278 57.8346 161.658 57.7491C161.038 57.6636 160.407 57.783 159.861 58.0892C156.902 61.1748 154.257 64.547 151.965 68.1562C150.796 69.8299 149.706 71.9089 147.66 72.6043C144.88 71.0971 142.525 68.9119 140.815 66.2515C140.502 65.9566 140.102 65.7709 139.675 65.7219C139.248 65.6729 138.816 65.7634 138.444 65.9798C138.073 66.1962 137.781 66.5269 137.612 66.9226C137.444 67.3184 137.408 67.758 137.51 68.1758C138.174 71.0837 139.887 73.6445 142.322 75.3682Z" fill="black"/>
  <path d="M103.88 102.994C107.94 103.649 112.058 103.883 116.167 103.693C120.311 103.947 124.471 103.811 128.59 103.287C129.178 103.106 129.693 102.741 130.058 102.246C130.424 101.75 130.621 101.151 130.621 100.535C130.621 99.9198 130.424 99.3204 130.058 98.8251C129.693 98.3299 129.178 97.9649 128.59 97.7836C124.465 97.3176 120.305 97.2481 116.167 97.5761C112.051 97.4586 107.934 97.7592 103.88 98.4733C103.396 98.6222 102.974 98.922 102.673 99.3287C102.373 99.7355 102.211 100.228 102.211 100.733C102.211 101.239 102.373 101.731 102.673 102.138C102.974 102.545 103.396 102.845 103.88 102.994Z" fill="black"/>
  <path d="M142.322 105.141C148.108 108.653 152.633 101.996 156.459 98.9734C159.133 96.8252 161.582 94.412 163.77 91.7705C164.076 91.2246 164.196 90.5936 164.11 89.9736C164.024 89.3535 163.738 88.7785 163.296 88.3359C162.853 87.8934 162.278 87.6076 161.658 87.5221C161.038 87.4365 160.407 87.556 159.861 87.8622C156.902 90.9477 154.257 94.32 151.965 97.9291C150.796 99.6026 149.706 101.682 147.66 102.377C144.88 100.87 142.525 98.6849 140.815 96.0245C140.502 95.7296 140.102 95.5438 139.675 95.4949C139.248 95.4459 138.816 95.5364 138.444 95.7528C138.072 95.9692 137.781 96.3 137.612 96.6957C137.444 97.0915 137.408 97.5311 137.51 97.949C138.174 100.857 139.887 103.418 142.322 105.141Z" fill="black"/>
  <path d="M103.88 132.766C107.94 133.422 112.058 133.656 116.167 133.466C120.311 133.72 124.471 133.584 128.59 133.06C129.178 132.879 129.693 132.514 130.058 132.019C130.424 131.524 130.621 130.924 130.621 130.309C130.621 129.693 130.424 129.094 130.058 128.598C129.693 128.103 129.178 127.738 128.59 127.557C124.465 127.091 120.305 127.021 116.167 127.349C112.051 127.232 107.934 127.532 103.88 128.246C103.396 128.395 102.974 128.695 102.673 129.102C102.373 129.508 102.211 130.001 102.211 130.506C102.211 131.012 102.373 131.504 102.673 131.911C102.974 132.318 103.396 132.618 103.88 132.766Z" fill="black"/>
  <path d="M142.322 134.917C148.11 138.429 152.637 131.767 156.459 128.749C159.133 126.6 161.582 124.187 163.77 121.546C164.076 121 164.196 120.369 164.11 119.749C164.024 119.129 163.738 118.554 163.296 118.111C162.853 117.669 162.278 117.383 161.658 117.297C161.038 117.212 160.407 117.331 159.861 117.638C156.902 120.723 154.257 124.095 151.965 127.705C150.796 129.378 149.706 131.457 147.66 132.153C144.88 130.645 142.525 128.46 140.815 125.8C140.502 125.505 140.102 125.319 139.675 125.27C139.248 125.221 138.816 125.312 138.444 125.528C138.073 125.744 137.781 126.075 137.612 126.471C137.444 126.867 137.408 127.306 137.51 127.724C138.174 130.632 139.887 133.193 142.322 134.917Z" fill="black"/>
</svg>