<svg width="56" height="56" viewBox="0 0 56 56" fill="none" xmlns="http://www.w3.org/2000/svg">
<rect width="56" height="56" rx="28" fill="#FAFAFA"/>
<g clip-path="url(#clip0_1643_26941)">
<path d="M27.998 12.334C19.164 12.334 12 19.526 12 28.398C12 35.494 16.584 41.514 22.944 43.64C23.744 43.788 24.036 43.292 24.036 42.866C24.036 42.484 24.022 41.474 24.014 40.134C19.564 41.104 18.624 37.98 18.624 37.98C17.898 36.124 16.848 35.63 16.848 35.63C15.394 34.634 16.956 34.654 16.956 34.654C18.562 34.768 19.406 36.31 19.406 36.31C20.834 38.764 23.152 38.056 24.064 37.644C24.208 36.606 24.622 35.898 25.08 35.496C21.528 35.09 17.792 33.712 17.792 27.558C17.792 25.804 18.416 24.37 19.44 23.246C19.274 22.84 18.726 21.206 19.596 18.996C19.596 18.996 20.94 18.564 23.996 20.642C25.272 20.286 26.64 20.108 28.002 20.102C29.36 20.11 30.73 20.286 32.008 20.644C35.062 18.566 36.404 18.998 36.404 18.998C37.276 21.21 36.728 22.842 36.564 23.248C37.59 24.372 38.208 25.806 38.208 27.56C38.208 33.73 34.468 35.088 30.904 35.486C31.478 35.982 31.99 36.962 31.99 38.46C31.99 40.608 31.97 42.34 31.97 42.866C31.97 43.296 32.258 43.796 33.07 43.638C39.42 41.51 44 35.492 44 28.398C44 19.526 36.836 12.334 27.998 12.334Z" fill="#343ED7"/>
</g>
<defs>
<clipPath id="clip0_1643_26941">
<rect width="32" height="32" fill="white" transform="translate(12 12)"/>
</clipPath>
</defs>
</svg>
