<svg width="56" height="56" viewBox="0 0 56 56" fill="none" xmlns="http://www.w3.org/2000/svg">
<rect width="56" height="56" rx="28" fill="#FAFAFA"/>
<g clip-path="url(#clip0_1643_26955)">
<path d="M23.791 28.8672C21.935 28.8672 20.4297 30.3725 20.4297 32.2285V40.6365C20.4297 42.4925 21.935 43.9979 23.791 43.9979C25.647 43.9979 27.1524 42.4925 27.1524 40.6365V32.2285C27.151 30.3725 25.6457 28.8672 23.791 28.8672Z" fill="#E91E63"/>
<path d="M12.0254 32.2292C12.0254 34.0866 13.5321 35.5932 15.3894 35.5932C17.2467 35.5932 18.7534 34.0866 18.7534 32.2292V28.8652H15.3921C15.3907 28.8652 15.3907 28.8652 15.3894 28.8652C13.5321 28.8652 12.0254 30.3719 12.0254 32.2292Z" fill="#E91E63"/>
<path d="M23.7938 11.998C23.7924 11.998 23.7911 11.998 23.7898 11.998C21.9324 11.998 20.4258 13.5047 20.4258 15.362C20.4258 17.2194 21.9324 18.726 23.7898 18.726H27.1511V15.362C27.1511 15.3607 27.1511 15.358 27.1511 15.3554C27.1498 13.5007 25.6471 11.998 23.7938 11.998Z" fill="#00BCD4"/>
<path d="M15.366 27.1596H23.79C25.6473 27.1596 27.154 25.653 27.154 23.7956C27.154 21.9383 25.6473 20.4316 23.79 20.4316H15.366C13.5086 20.4316 12.002 21.9383 12.002 23.7956C12.002 25.653 13.5086 27.1596 15.366 27.1596Z" fill="#00BCD4"/>
<path d="M40.6093 20.4316C38.7546 20.4316 37.252 21.9343 37.252 23.789V23.7956V27.1596H40.6133C42.4706 27.1596 43.9773 25.653 43.9773 23.7956C43.9773 21.9383 42.4706 20.4316 40.6133 20.4316C40.612 20.4316 40.6106 20.4316 40.6093 20.4316Z" fill="#4CAF50"/>
<path d="M28.8555 15.3633V23.7966C28.8555 25.6526 30.3608 27.158 32.2168 27.158C34.0728 27.158 35.5781 25.6526 35.5781 23.7966V15.3633C35.5781 13.5073 34.0728 12.002 32.2168 12.002C30.3608 12.002 28.8555 13.5073 28.8555 15.3633Z" fill="#4CAF50"/>
<path d="M35.5781 40.6348C35.5781 38.7788 34.0728 37.2734 32.2168 37.2734H28.8555V40.6374C28.8568 42.4921 30.3608 43.9961 32.2168 43.9961C34.0728 43.9961 35.5781 42.4908 35.5781 40.6348Z" fill="#FF9800"/>
<path d="M40.6396 28.8652H32.2156C30.3582 28.8652 28.8516 30.3719 28.8516 32.2292C28.8516 34.0866 30.3582 35.5932 32.2156 35.5932H40.6396C42.4969 35.5932 44.0036 34.0866 44.0036 32.2292C44.0036 30.3719 42.4969 28.8652 40.6396 28.8652Z" fill="#FF9800"/>
</g>
<defs>
<clipPath id="clip0_1643_26955">
<rect width="32" height="32" fill="white" transform="translate(12 12)"/>
</clipPath>
</defs>
</svg>
