<svg xmlns="http://www.w3.org/2000/svg" width="24" height="24" viewBox="0 0 24 24" fill="none">
  <g clip-path="url(#clip0_1765_6081)">
    <path d="M23.827 13.4461C23.8243 13.4413 23.822 13.4362 23.8191 13.4315C23.7057 13.2455 23.5462 13.0941 23.3587 12.9941L21.2918 11.8832C21.4828 11.4328 21.5885 10.9378 21.5885 10.4185C21.5885 10.1054 21.5499 9.79406 21.4738 9.49312C21.4262 9.30487 21.235 9.19078 21.0468 9.23845C20.8586 9.28603 20.7446 9.47723 20.7922 9.66543C20.854 9.91012 20.8854 10.1635 20.8854 10.4185C20.8854 12.1065 19.512 13.4799 17.824 13.4799C16.1359 13.4799 14.7626 12.1065 14.7626 10.4185C14.7626 8.73042 16.1359 7.35708 17.824 7.35708C18.6814 7.35708 19.5052 7.72026 20.0841 8.3535C20.2151 8.49679 20.4375 8.50678 20.5808 8.37576C20.7241 8.24479 20.7341 8.02237 20.6031 7.87908C19.8913 7.10048 18.8783 6.65395 17.824 6.65395C15.7482 6.65395 14.0595 8.34272 14.0595 10.4185C14.0595 10.9377 14.1652 11.4328 14.3561 11.8832L12.3516 12.9606V6.69689L17.4721 4.08633V5.32879C17.4721 5.52295 17.6295 5.68036 17.8237 5.68036C18.0178 5.68036 18.1752 5.52295 18.1752 5.32879V4.04461C18.1752 3.81539 18.1127 3.59119 17.9945 3.39628C17.8818 3.21051 17.7225 3.05887 17.534 2.95795L12.5559 0.283638C12.2108 0.0979196 11.7982 0.0965134 11.4516 0.279607C11.4512 0.279795 11.4509 0.279982 11.4505 0.28017C11.4484 0.281248 11.4462 0.28242 11.4441 0.283545L6.46617 2.95776C6.11456 3.14203 5.82937 3.56362 5.8245 4.04465L5.82464 10.2084L0.642234 12.9936C0.289828 13.1772 0.00459375 13.601 0 14.0807V20.0914C0 20.5604 0.254438 20.9813 0.663891 21.1899L5.64277 23.7281C5.92495 23.8719 6.33487 23.913 6.70894 23.7281L8.53153 22.7992C8.7045 22.711 8.77327 22.4993 8.68509 22.3263C8.59688 22.1533 8.38514 22.0846 8.21222 22.1728L6.52777 23.0313V16.7332L11.6484 14.1225V20.4214L9.7058 21.4115C9.53283 21.4997 9.46406 21.7114 9.55223 21.8844C9.64041 22.0574 9.85209 22.1261 10.0251 22.038L12 21.0314L17.2905 23.7278C17.4535 23.8113 17.636 23.8556 17.8186 23.8564C17.8204 23.8565 17.8222 23.8567 17.824 23.8567C18.0081 23.8567 18.1925 23.8122 18.3571 23.7282L23.336 21.1899C23.7456 20.9813 24 20.5604 24 20.0914V14.0807C24 13.8568 23.94 13.6379 23.827 13.4461ZM6.52777 10.2083L6.52763 4.08628L11.6484 6.69689V12.9606L6.52777 10.2083ZM14.6903 12.5018C15.3658 13.5144 16.518 14.183 17.8239 14.183C19.1298 14.183 20.2821 13.5144 20.9575 12.5018L22.89 13.5404L17.8237 16.1232L12.7579 13.5405L14.6903 12.5018ZM11.7743 0.90431C11.7759 0.903466 11.7775 0.902576 11.7792 0.901732C11.9183 0.82781 12.084 0.828232 12.2229 0.902904L17.0654 3.50442L12 6.08686L6.93431 3.50442L11.7743 0.90431ZM6.1762 10.8176L11.2421 13.5405L6.17625 16.1232L1.10995 13.5404L6.1762 10.8176ZM5.8245 23.0315L0.983109 20.5634C0.813047 20.4768 0.703125 20.2915 0.703125 20.0914V14.1223L5.8245 16.7332V23.0315ZM12.3516 20.4214V14.1225L17.4722 16.7332V23.0313L12.3516 20.4214ZM23.2969 20.0914C23.2969 20.2915 23.187 20.4768 23.0168 20.5635L18.1755 23.0316V16.7332L23.2969 14.1223V20.0914Z" fill="#353FD7"/>
    <path d="M19.1093 9.26646L17.3442 11.1221L16.4616 10.3045C16.3192 10.1725 16.0968 10.181 15.9648 10.3234C15.8328 10.4658 15.8413 10.6882 15.9837 10.8202L17.1208 11.8738C17.1883 11.9364 17.2741 11.9675 17.3596 11.9675C17.4526 11.9675 17.5453 11.9308 17.6144 11.8582L19.6188 9.7511C19.7526 9.61043 19.747 9.38787 19.6063 9.25409C19.4657 9.12026 19.2432 9.12579 19.1093 9.26646Z" fill="#353FD7"/>
  </g>
  <defs>
    <clipPath id="clip0_1765_6081">
      <rect width="24" height="24" fill="white"/>
    </clipPath>
  </defs>
</svg>