<svg xmlns="http://www.w3.org/2000/svg" width="24" height="24" viewBox="0 0 24 24" fill="none">
  <g clip-path="url(#clip0_1765_6072)">
    <path d="M22.1153 5.91089H15.9951C15.6205 5.9129 15.2618 6.06244 14.9967 6.32711C14.7316 6.59177 14.5815 6.95024 14.5789 7.32483L14.5742 7.94184L14.5249 7.94236C14.035 7.94523 13.5661 8.14172 13.2205 8.48896C12.8749 8.83619 12.6806 9.30601 12.6801 9.79593C12.6795 10.2858 12.8727 10.7561 13.2175 11.1041C13.5623 11.4522 14.0308 11.6497 14.5206 11.6537L14.5478 11.6542L14.529 14.3984H12.1431C12.1543 14.246 12.1469 14.0928 12.1211 13.9422C12.0534 13.5433 11.8566 13.1776 11.5609 12.9015C11.2652 12.6253 10.8869 12.4539 10.4843 12.4137C10.2284 12.3875 9.96983 12.4158 9.72561 12.4967C9.48139 12.5776 9.25706 12.7093 9.06735 12.8831C8.87564 13.0577 8.72247 13.2704 8.61764 13.5076C8.5128 13.7448 8.45862 14.0013 8.45854 14.2606C8.45854 14.3065 8.46026 14.3524 8.4637 14.3984H7.21214C6.8356 14.3999 6.47504 14.5507 6.20953 14.8177C5.94403 15.0847 5.79528 15.4461 5.7959 15.8226V22.0484C5.79528 22.4249 5.94403 22.7863 6.20953 23.0533C6.47504 23.3203 6.8356 23.4711 7.21214 23.4726H14.5363L22.0568 23.5312H22.0681C22.4394 23.5319 22.7958 23.3855 23.0594 23.124C23.1933 22.9924 23.2999 22.8356 23.3728 22.6626C23.4457 22.4896 23.4835 22.3039 23.484 22.1161L23.5298 14.9851H23.5316V7.33509C23.5322 6.95855 23.3834 6.59714 23.1179 6.33014C22.8524 6.06314 22.4918 5.91237 22.1153 5.91089ZM14.4641 22.9101H7.21256C6.98516 22.9088 6.76756 22.8173 6.60751 22.6558C6.44746 22.4942 6.35802 22.2758 6.35882 22.0484V15.8227C6.35802 15.5953 6.44746 15.3769 6.60751 15.2154C6.76756 15.0538 6.98516 14.9624 7.21256 14.961H8.65579C8.71319 14.9611 8.7699 14.9486 8.8219 14.9243C8.87389 14.9 8.91989 14.8645 8.95663 14.8204C8.9941 14.7756 9.02121 14.7231 9.03606 14.6667C9.0509 14.6102 9.0531 14.5511 9.04251 14.4937C9.003 14.2768 9.0193 14.0533 9.08987 13.8444C9.16045 13.6355 9.28298 13.448 9.44596 13.2995C9.57788 13.1788 9.73383 13.0874 9.90357 13.0312C10.0733 12.9751 10.253 12.9555 10.4309 12.9736C10.7105 13.0019 10.9732 13.1212 11.1785 13.3132C11.3837 13.5053 11.5202 13.7595 11.567 14.0367C11.593 14.1877 11.5924 14.342 11.5652 14.4928C11.5547 14.5503 11.5569 14.6093 11.5718 14.6658C11.5866 14.7223 11.6138 14.7749 11.6512 14.8197C11.6881 14.864 11.7342 14.8996 11.7864 14.924C11.8386 14.9484 11.8955 14.961 11.9531 14.961H14.5253L14.509 17.0844C14.0276 17.0451 13.5501 17.1964 13.1791 17.5057C12.8081 17.8149 12.5733 18.2575 12.5253 18.7381C12.4984 18.9968 12.5258 19.2583 12.6057 19.5058C12.6855 19.7533 12.8161 19.9815 12.9891 20.1757C13.1601 20.3667 13.3691 20.52 13.6026 20.6257C13.8362 20.7315 14.0892 20.7873 14.3456 20.7898C14.3904 20.7901 14.4356 20.7888 14.4806 20.7859L14.4641 22.9101ZM22.9215 22.1126C22.9213 22.2264 22.8984 22.3389 22.8542 22.4438C22.8101 22.5487 22.7456 22.6437 22.6644 22.7235C22.5059 22.8809 22.2914 22.9691 22.068 22.9687H22.0612L15.0266 22.914L15.0443 20.5987C15.0447 20.5408 15.0324 20.4835 15.0081 20.4309C14.9839 20.3783 14.9483 20.3317 14.904 20.2944C14.8597 20.2571 14.8078 20.23 14.7518 20.2151C14.6958 20.2001 14.6373 20.1977 14.5803 20.208C14.5042 20.2216 14.4271 20.2281 14.3498 20.2273C14.1702 20.2261 13.9927 20.1875 13.8288 20.1139C13.6649 20.0404 13.5182 19.9335 13.3979 19.8C13.2776 19.6666 13.1864 19.5096 13.1302 19.339C13.0739 19.1684 13.0539 18.9879 13.0712 18.8091C13.0886 18.6303 13.143 18.4571 13.2311 18.3005C13.3191 18.1439 13.4388 18.0074 13.5825 17.8996C13.7262 17.7918 13.8908 17.7152 14.0658 17.6745C14.2408 17.6339 14.4223 17.6302 14.5988 17.6636C14.6558 17.6747 14.7145 17.6731 14.7708 17.6589C14.8271 17.6448 14.8796 17.6184 14.9246 17.5817C14.9695 17.5449 15.0058 17.4987 15.0309 17.4464C15.056 17.394 15.0692 17.3368 15.0697 17.2787L15.0875 14.9633L17.4682 14.9825C17.4567 15.1358 17.464 15.2899 17.4899 15.4414C17.5576 15.8403 17.7544 16.2059 18.0502 16.4821C18.3459 16.7582 18.7241 16.9296 19.1267 16.9698C19.1883 16.9757 19.2495 16.9787 19.3104 16.9787C19.7669 16.9798 20.2072 16.8091 20.5437 16.5006C20.7354 16.3259 20.8886 16.1132 20.9934 15.876C21.0982 15.6388 21.1524 15.3823 21.1525 15.123C21.1525 15.0772 21.1508 15.0311 21.1474 14.9852H22.9671L22.9215 22.1126ZM22.9691 14.4226H20.9556C20.8982 14.4225 20.8415 14.4351 20.7895 14.4594C20.7375 14.4837 20.6915 14.5191 20.6548 14.5632C20.6174 14.608 20.5903 14.6604 20.5755 14.7169C20.5607 14.7733 20.5585 14.8322 20.5691 14.8896C20.6086 15.1066 20.5923 15.33 20.5217 15.5389C20.4511 15.7478 20.3286 15.9353 20.1656 16.0839C20.0337 16.2046 19.8778 16.296 19.7081 16.3522C19.5383 16.4083 19.3586 16.4279 19.1808 16.4097C18.9011 16.3815 18.6385 16.2622 18.4332 16.0701C18.2279 15.8781 18.0914 15.624 18.0446 15.3468C18.0185 15.1955 18.0192 15.0408 18.0465 14.8897C18.0571 14.8325 18.0549 14.7737 18.0403 14.7174C18.0256 14.6611 17.9988 14.6087 17.9617 14.5639C17.9251 14.5197 17.8793 14.484 17.8275 14.4594C17.7756 14.4348 17.719 14.4219 17.6616 14.4215L15.0915 14.4008L15.1121 11.3793C15.1121 11.3742 15.1117 11.3693 15.1115 11.3643C15.1115 11.3601 15.1115 11.3559 15.1109 11.3518C15.1104 11.3467 15.1095 11.3416 15.1088 11.3366C15.1082 11.3323 15.1078 11.328 15.107 11.3238C15.106 11.3189 15.1046 11.3141 15.1034 11.3092C15.1023 11.3044 15.1015 11.3009 15.1004 11.2968C15.0989 11.2921 15.0971 11.2875 15.0957 11.2828C15.0942 11.2781 15.093 11.2747 15.0914 11.2708C15.0897 11.2668 15.0874 11.2621 15.0854 11.2578C15.0833 11.2535 15.0818 11.2499 15.0798 11.246C15.0778 11.2422 15.0751 11.238 15.0727 11.234C15.0703 11.2299 15.0684 11.2263 15.0659 11.2227C15.0635 11.219 15.0607 11.2153 15.0579 11.2117C15.0552 11.208 15.0528 11.2043 15.05 11.2008C15.0472 11.1973 15.0442 11.1942 15.0413 11.1909C15.0384 11.1877 15.0352 11.1839 15.0319 11.1806C15.0286 11.1773 15.0257 11.1748 15.0225 11.1719C15.0194 11.169 15.0157 11.1653 15.012 11.1622C15.0084 11.1591 15.0055 11.1572 15.0023 11.1547C14.9991 11.1522 14.9946 11.1486 14.9906 11.1458C14.9865 11.143 14.9836 11.1414 14.9802 11.1393C14.9759 11.1366 14.9719 11.1339 14.9676 11.1315C14.9632 11.129 14.9601 11.1277 14.9563 11.1259C14.9526 11.124 14.9476 11.1212 14.9431 11.1194C14.9385 11.1175 14.9351 11.1163 14.9311 11.1147C14.9271 11.113 14.922 11.1111 14.9174 11.1096C14.9127 11.1081 14.909 11.1072 14.9047 11.1061C14.9004 11.105 14.8953 11.1034 14.8906 11.1023C14.8859 11.1013 14.8818 11.1008 14.8773 11.1001C14.8729 11.0993 14.8679 11.0983 14.8628 11.0977C14.8576 11.0972 14.8534 11.0971 14.8487 11.0969C14.844 11.0966 14.8397 11.096 14.8351 11.096L14.5249 11.0913C14.1838 11.088 13.8578 10.9501 13.6179 10.7076C13.378 10.4651 13.2436 10.1376 13.244 9.79653C13.2444 9.45542 13.3796 9.12829 13.62 8.88635C13.8605 8.64442 14.1868 8.50728 14.5279 8.50481L14.8564 8.50134C14.8603 8.50134 14.8641 8.50083 14.868 8.50064C14.8732 8.50036 14.8784 8.50022 14.8836 8.49965C14.888 8.49919 14.8923 8.49834 14.8966 8.49769C14.9009 8.49703 14.9065 8.49628 14.9114 8.49529C14.9162 8.49431 14.9202 8.49304 14.9247 8.49187C14.9291 8.4907 14.9337 8.48967 14.9381 8.48826C14.9425 8.48686 14.9471 8.48503 14.9516 8.48358C14.9561 8.48212 14.9598 8.48067 14.9638 8.47889C14.9677 8.47711 14.9726 8.47472 14.9771 8.47256C14.9808 8.47073 14.9846 8.469 14.9882 8.46703C14.9926 8.46464 14.9968 8.46192 15.001 8.4593C15.0044 8.45719 15.0079 8.45522 15.0112 8.45297C15.0154 8.45011 15.0193 8.44701 15.0233 8.44397C15.0264 8.44158 15.0297 8.43928 15.0327 8.43675C15.0365 8.43361 15.04 8.43019 15.0437 8.42681C15.0466 8.42409 15.0497 8.42142 15.0526 8.41856C15.0554 8.4157 15.0591 8.41148 15.0623 8.40792C15.0655 8.40436 15.068 8.40178 15.0707 8.39854C15.0734 8.39531 15.0764 8.39105 15.0792 8.38725C15.082 8.38345 15.0844 8.38045 15.0868 8.37684C15.0892 8.37323 15.0915 8.36897 15.0941 8.36498C15.0967 8.361 15.0988 8.35753 15.1008 8.35369C15.1028 8.34984 15.1049 8.34539 15.1069 8.34122C15.1089 8.33705 15.1108 8.33325 15.1125 8.32912C15.1143 8.325 15.1159 8.3204 15.1172 8.316C15.1186 8.31159 15.1204 8.30765 15.1219 8.30339C15.1235 8.29912 15.1244 8.29401 15.1256 8.28933C15.1268 8.28464 15.1279 8.28075 15.1288 8.27634C15.1296 8.27194 15.1304 8.26673 15.1311 8.26195C15.1319 8.25717 15.1326 8.25304 15.133 8.2485C15.1335 8.24395 15.1336 8.23865 15.1338 8.23373C15.1338 8.22994 15.1345 8.22619 15.1345 8.22234L15.141 7.32876C15.1422 7.10254 15.2325 6.88589 15.3923 6.72576C15.5521 6.56563 15.7686 6.47492 15.9948 6.4733H22.1153C22.3427 6.47461 22.5604 6.5661 22.7204 6.7277C22.8805 6.88929 22.9699 7.10778 22.9691 7.33523V14.4226Z" fill="#353FD7"/>
    <path d="M21.5576 12.0593C21.483 12.0593 21.4115 12.089 21.3587 12.1417C21.306 12.1944 21.2764 12.266 21.2764 12.3406V12.9245C21.2764 12.9991 21.306 13.0707 21.3587 13.1234C21.4115 13.1762 21.483 13.2058 21.5576 13.2058C21.6322 13.2058 21.7037 13.1762 21.7565 13.1234C21.8092 13.0707 21.8389 12.9991 21.8389 12.9245V12.3406C21.8389 12.266 21.8092 12.1944 21.7565 12.1417C21.7037 12.089 21.6322 12.0593 21.5576 12.0593Z" fill="#353FD7"/>
    <path d="M21.5576 7.59229C21.483 7.59229 21.4115 7.62192 21.3587 7.67466C21.306 7.72741 21.2764 7.79894 21.2764 7.87354V10.9313C21.2764 11.0059 21.306 11.0775 21.3587 11.1302C21.4115 11.183 21.483 11.2126 21.5576 11.2126C21.6322 11.2126 21.7037 11.183 21.7565 11.1302C21.8092 11.0775 21.8389 11.0059 21.8389 10.9313V7.87354C21.8389 7.79894 21.8092 7.72741 21.7565 7.67466C21.7037 7.62192 21.6322 7.59229 21.5576 7.59229Z" fill="#353FD7"/>
    <path d="M21.665 22.0776C21.7396 22.0776 21.8112 22.048 21.8639 21.9952C21.9167 21.9425 21.9463 21.871 21.9463 21.7964V21.2124C21.9463 21.1378 21.9167 21.0663 21.8639 21.0135C21.8112 20.9608 21.7396 20.9312 21.665 20.9312C21.5904 20.9312 21.5189 20.9608 21.4662 21.0135C21.4134 21.0663 21.3838 21.1378 21.3838 21.2124V21.7964C21.3838 21.871 21.4134 21.9425 21.4662 21.9952C21.5189 22.048 21.5904 22.0776 21.665 22.0776Z" fill="#353FD7"/>
    <path d="M21.665 20.0842C21.7396 20.0842 21.8112 20.0546 21.8639 20.0018C21.9167 19.9491 21.9463 19.8776 21.9463 19.803V16.7454C21.9463 16.6708 21.9167 16.5992 21.8639 16.5465C21.8112 16.4937 21.7396 16.4641 21.665 16.4641C21.5904 16.4641 21.5189 16.4937 21.4662 16.5465C21.4134 16.5992 21.3838 16.6708 21.3838 16.7454V19.803C21.3838 19.8776 21.4134 19.9491 21.4662 20.0018C21.5189 20.0546 21.5904 20.0842 21.665 20.0842Z" fill="#353FD7"/>
    <path d="M7.35096 12.134C7.59299 12.1343 7.83106 12.0726 8.04246 11.9547C8.25386 11.8369 8.43154 11.6668 8.55855 11.4608L9.23327 10.3651C9.26248 10.3178 9.28139 10.2649 9.28876 10.2098C9.29613 10.1547 9.29179 10.0987 9.27604 10.0454C9.26029 9.99208 9.23347 9.9427 9.19734 9.90047C9.16121 9.85824 9.11657 9.8241 9.06635 9.80029C8.7558 9.6544 8.51564 9.39152 8.39834 9.06908C8.28105 8.74665 8.29617 8.3909 8.44039 8.07958C8.58462 7.76826 8.84622 7.52669 9.16802 7.40768C9.48983 7.28867 9.84565 7.30188 10.1577 7.44445C10.2486 7.48746 10.3341 7.54075 10.4128 7.60326C10.4565 7.63823 10.5071 7.66354 10.5612 7.67751C10.6154 7.69148 10.6719 7.69379 10.727 7.68428C10.7821 7.67478 10.8346 7.65368 10.8809 7.62237C10.9273 7.59107 10.9665 7.55029 10.9959 7.50271L11.8168 6.16959C12.0154 5.84707 12.0779 5.45887 11.9905 5.09031C11.903 4.72176 11.6728 4.403 11.3504 4.20412L10.0493 3.40541C10.33 3.01159 10.4465 2.52396 10.3741 2.04575C10.3017 1.56754 10.046 1.13629 9.66119 0.843273C9.45633 0.686302 9.22043 0.574675 8.96915 0.515793C8.71786 0.456912 8.45694 0.452123 8.20366 0.501742C7.95012 0.550892 7.7097 0.652618 7.49788 0.800365C7.28606 0.948112 7.10755 1.1386 6.97385 1.35955C6.9505 1.39809 6.92863 1.43751 6.90822 1.47782L5.84088 0.822695C5.68201 0.725239 5.50541 0.660208 5.32127 0.631352C5.13714 0.602497 4.94911 0.610389 4.76804 0.654574C4.58697 0.698758 4.41644 0.77836 4.26629 0.888787C4.11615 0.999214 3.98935 1.13828 3.89322 1.29796L0.67563 6.61391C0.480918 6.93644 0.421277 7.32275 0.509652 7.68899C0.598027 8.05522 0.827285 8.37182 1.14766 8.57006L2.07007 9.13616C2.11475 9.16353 2.16467 9.18123 2.21661 9.18813C2.26855 9.19502 2.32136 9.19095 2.37164 9.17618C2.42191 9.16141 2.46853 9.13627 2.50849 9.10238C2.54845 9.06849 2.58087 9.0266 2.60365 8.97941C2.67297 8.83573 2.77165 8.70817 2.89331 8.60497C3.01498 8.50177 3.15692 8.42523 3.31 8.38027C3.46307 8.33532 3.62386 8.32296 3.78201 8.34398C3.94016 8.365 4.09214 8.41894 4.22815 8.50233C4.36416 8.58571 4.48118 8.69668 4.57166 8.82808C4.66214 8.95947 4.72407 9.10838 4.75345 9.26519C4.78283 9.422 4.77901 9.58322 4.74224 9.73846C4.70547 9.8937 4.63656 10.0395 4.53996 10.1665C4.50804 10.2081 4.48522 10.256 4.47297 10.3071C4.46073 10.3581 4.45934 10.4112 4.46888 10.4628C4.47843 10.5144 4.49871 10.5634 4.5284 10.6067C4.55809 10.65 4.59654 10.6865 4.64125 10.714L6.61661 11.9263C6.83743 12.0622 7.09166 12.1341 7.35096 12.134ZM5.33191 9.36491C5.30853 9.00698 5.1728 8.66554 4.94405 8.38925C4.7153 8.11295 4.4052 7.91588 4.05792 7.82611C3.71063 7.73634 3.34387 7.75845 3.00988 7.88928C2.6759 8.02011 2.39171 8.253 2.1978 8.55477L1.4419 8.09071C1.24786 7.97045 1.1091 7.77851 1.05573 7.55656C1.00237 7.33461 1.0387 7.10057 1.15685 6.90524L4.37421 1.5892C4.43194 1.49297 4.50817 1.40914 4.59849 1.34255C4.68881 1.27596 4.79143 1.22793 4.90042 1.20123C5.00941 1.17454 5.12261 1.1697 5.23349 1.18701C5.34436 1.20432 5.4507 1.24344 5.54636 1.30209L6.77918 2.05846C6.82824 2.08872 6.88339 2.10774 6.94068 2.11415C6.99796 2.12056 7.05595 2.1142 7.11049 2.09554C7.16568 2.07676 7.21603 2.046 7.25794 2.00549C7.29985 1.96497 7.33229 1.91568 7.35293 1.86116C7.43065 1.65634 7.55935 1.47473 7.72686 1.33354C7.89437 1.19235 8.09514 1.09624 8.31016 1.0543C8.48616 1.01994 8.66746 1.0234 8.84202 1.06444C9.01658 1.10549 9.18042 1.18319 9.32266 1.29238C9.46467 1.40094 9.58276 1.53762 9.66954 1.69389C9.75632 1.85016 9.80993 2.02266 9.82701 2.20059C9.84409 2.37852 9.82427 2.55806 9.7688 2.72799C9.71333 2.89791 9.6234 3.05456 9.50463 3.18815C9.46647 3.231 9.4382 3.28172 9.42182 3.33672C9.40544 3.39171 9.40135 3.44963 9.40985 3.50638C9.41827 3.56377 9.4392 3.6186 9.47115 3.66699C9.50311 3.71539 9.54531 3.75618 9.59477 3.78646L11.0565 4.68355C11.2516 4.8043 11.3909 4.99753 11.4437 5.22085C11.4965 5.44416 11.4585 5.6793 11.3381 5.87465L10.6115 7.05435C10.5433 7.01048 10.4724 6.97104 10.3991 6.93627C10.0179 6.75749 9.58714 6.71417 9.178 6.81349C8.76886 6.91281 8.40588 7.14881 8.1491 7.48246C7.98958 7.68984 7.87537 7.92839 7.81385 8.18269C7.75233 8.43699 7.74487 8.70136 7.79196 8.95872C7.83905 9.21608 7.93964 9.46069 8.08722 9.67673C8.2348 9.89277 8.42608 10.0754 8.64869 10.2129C8.65291 10.2155 8.65713 10.218 8.66135 10.2206L8.07954 11.1655C7.96151 11.3573 7.77229 11.4947 7.55328 11.5474C7.33427 11.6001 7.10329 11.5639 6.9109 11.4467L5.1018 10.3365C5.27357 10.0428 5.3537 9.70448 5.33191 9.36491Z" fill="#353FD7"/>
  </g>
  <defs>
    <clipPath id="clip0_1765_6072">
      <rect width="24" height="24" fill="white"/>
    </clipPath>
  </defs>
</svg>