<svg xmlns="http://www.w3.org/2000/svg" width="24" height="24" viewBox="0 0 24 24" fill="none">
  <g clip-path="url(#clip0_1765_6096)">
    <path d="M20.8293 13.8162C20.2253 13.8162 19.6845 14.0919 19.326 14.524L17.0741 13.2625C17.2108 12.9615 17.3144 12.6409 17.3777 12.3041C17.4136 12.1133 17.2879 11.9295 17.0971 11.8936C16.9065 11.8579 16.7225 11.9833 16.6867 12.1742C16.3768 13.8231 14.9325 15.02 13.2525 15.02C11.3252 15.02 9.75717 13.4519 9.75717 11.5246C9.75717 9.59728 11.3252 8.02925 13.2525 8.02925C14.8638 8.02925 16.2589 9.12046 16.6452 10.6829C16.6919 10.8714 16.8827 10.9864 17.0709 10.9398C17.2594 10.8932 17.3744 10.7026 17.3278 10.5141C17.0954 9.57417 16.5591 8.77626 15.8386 8.21375L18.2899 4.46676C18.5861 4.60256 18.9149 4.67892 19.2615 4.67892C20.5515 4.67892 21.601 3.62943 21.601 2.33946C21.601 1.04949 20.5515 0 19.2614 0C17.9714 0 16.922 1.04949 16.922 2.33946C16.922 3.03073 17.2236 3.65268 17.7018 4.08131L15.2498 7.82937C14.652 7.50678 13.9702 7.32612 13.2524 7.32612C12.1927 7.32612 11.2236 7.72095 10.484 8.37102L7.43346 5.43394C7.79201 4.95436 7.9992 4.36279 7.9992 3.73621C7.9992 2.17258 6.72705 0.900431 5.16337 0.900431C3.59975 0.900431 2.3276 2.17258 2.3276 3.73621C2.3276 4.93988 3.09087 6.01562 4.22699 6.41298C4.41037 6.47725 4.61081 6.3805 4.67493 6.19722C4.73906 6.01393 4.64249 5.8134 4.45916 5.74928C3.60477 5.4504 3.03073 4.64137 3.03073 3.73616C3.03073 2.5602 3.98741 1.60352 5.16337 1.60352C6.33934 1.60352 7.29607 2.5602 7.29607 3.73616C7.29607 4.64142 6.72203 5.4504 5.86758 5.74928C5.68435 5.81335 5.58769 6.01393 5.65182 6.19722C5.71608 6.38092 5.91704 6.47697 6.09976 6.41298C6.41303 6.30339 6.6978 6.142 6.94619 5.94081L9.99619 8.87737C9.40743 9.60019 9.0539 10.5218 9.0539 11.5246C9.0539 11.6614 9.06069 11.7967 9.07354 11.9302L4.99734 12.6745C4.71764 11.9376 4.00461 11.4123 3.17084 11.4123C2.09388 11.4123 1.21777 12.2884 1.21777 13.3654C1.21777 14.4423 2.09388 15.3184 3.17084 15.3184C4.24752 15.3184 5.12353 14.4427 5.12395 13.3661L9.19968 12.6219C9.47812 13.6491 10.1374 14.5211 11.0162 15.0764L9.22865 18.5264C8.92405 18.4137 8.59499 18.352 8.25176 18.352C6.69456 18.352 5.42775 19.6188 5.42775 21.1759C5.42775 22.7331 6.69456 23.9999 8.25176 23.9999C9.80892 23.9999 11.0757 22.7331 11.0757 21.1759C11.0757 20.2127 10.5907 19.361 9.85228 18.8511L11.6399 15.4008C12.1367 15.6083 12.6814 15.723 13.2524 15.723C14.6819 15.723 15.9687 15.0009 16.7304 13.8758L18.9817 15.1371C18.9137 15.3354 18.8762 15.5479 18.8762 15.7691C18.8762 16.8461 19.7523 17.7222 20.8292 17.7222C21.9062 17.7222 22.7823 16.8461 22.7823 15.7691C22.7823 14.6922 21.9063 13.8162 20.8293 13.8162ZM17.6251 2.33946C17.6251 1.4372 18.3592 0.703132 19.2614 0.703132C20.1637 0.703132 20.8978 1.4372 20.8978 2.33946C20.8978 3.24172 20.1637 3.97579 19.2614 3.97579C18.3592 3.97579 17.6251 3.24172 17.6251 2.33946ZM3.17098 14.6154C2.48177 14.6154 1.92105 14.0547 1.92105 13.3655C1.92105 12.6762 2.48177 12.1155 3.17098 12.1155C3.86024 12.1155 4.42096 12.6762 4.42096 13.3655C4.42096 14.0547 3.86024 14.6154 3.17098 14.6154ZM10.3726 21.176C10.3726 22.3454 9.42121 23.2969 8.25181 23.2969C7.08236 23.2969 6.13093 22.3454 6.13093 21.176C6.13093 20.0066 7.08236 19.0552 8.25181 19.0552C9.42121 19.0552 10.3726 20.0066 10.3726 21.176ZM20.8293 17.0192C20.1401 17.0192 19.5794 16.4584 19.5794 15.7692C19.5794 15.08 20.1401 14.5193 20.8293 14.5193C21.5185 14.5193 22.0793 15.08 22.0793 15.7692C22.0793 16.4584 21.5185 17.0192 20.8293 17.0192Z" fill="#353FD7"/>
  </g>
  <defs>
    <clipPath id="clip0_1765_6096">
      <rect width="24" height="24" fill="white"/>
    </clipPath>
  </defs>
</svg>