<svg xmlns="http://www.w3.org/2000/svg" width="24" height="24" viewBox="0 0 24 24" fill="none">
  <g clip-path="url(#clip0_1765_6046)">
    <path d="M19.8179 7.58509H18.0728V5.72579C18.0728 4.66033 17.6719 3.64534 16.944 2.86792C16.8086 2.72336 16.5817 2.71595 16.4373 2.85128C16.2928 2.98661 16.2853 3.21344 16.4206 3.3579C17.0237 4.00201 17.3558 4.84295 17.3558 5.72579V7.58509H10.0615C7.75552 7.58509 5.87944 9.46122 5.87944 11.7672V13.0496H5.31797C5.09461 13.0496 4.88456 13.1366 4.72655 13.2946L2.82398 15.1972V13.2833C2.82398 12.9901 2.667 12.7145 2.4142 12.5642C1.3673 11.9418 0.716906 10.8 0.716906 9.5845V5.72579C0.716906 3.81508 2.27138 2.26061 4.18209 2.26061H13.8907C14.3385 2.26061 14.7741 2.34465 15.1854 2.5105C15.369 2.58442 15.5779 2.49564 15.6519 2.31208C15.7259 2.12847 15.6371 1.91959 15.4535 1.84558C14.9566 1.64523 14.4308 1.5437 13.8907 1.5437H4.18209C1.87608 1.5437 0 3.41978 0 5.72579V9.5845C0 11.0516 0.784688 12.4295 2.04783 13.1805C2.08439 13.2022 2.10708 13.2416 2.10708 13.2833V15.3703C2.10708 15.6322 2.26341 15.8661 2.50538 15.9664C2.66686 16.044 2.99658 16.0328 3.20855 15.8266L5.23345 13.8016C5.25605 13.779 5.28605 13.7666 5.31797 13.7666H5.87944V15.6259C5.87944 16.1904 5.99006 16.7381 6.20822 17.2539C6.28533 17.4362 6.49566 17.5214 6.678 17.4444C6.86034 17.3673 6.94561 17.157 6.86855 16.9746C6.68798 16.5477 6.59639 16.0939 6.59639 15.6259V11.7673C6.59639 9.85651 8.15086 8.30204 10.0616 8.30204H19.8179C21.7286 8.30204 23.2831 9.85651 23.2831 11.7673V15.6259C23.2831 16.8462 22.6591 17.9537 21.614 18.5887C21.3676 18.7384 21.2146 19.0115 21.2146 19.3015V21.6394L18.9113 19.336C18.7533 19.1781 18.5432 19.0911 18.3198 19.0911H10.0615C9.19195 19.0911 8.36044 18.7676 7.72008 18.1804C7.5742 18.0467 7.34747 18.0564 7.21359 18.2023C7.07977 18.3482 7.08956 18.5749 7.23548 18.7088C8.00841 19.4177 9.012 19.808 10.0615 19.808H18.3197C18.3512 19.808 18.382 19.8208 18.4042 19.843L20.8299 22.2688C21.0173 22.4127 21.2003 22.524 21.5331 22.4086C21.775 22.3083 21.9314 22.0744 21.9314 21.8125V19.3015C21.9314 19.2602 21.9524 19.2219 21.9861 19.2014C23.2472 18.4353 24 17.0987 24 15.6259V11.7672C24 9.46122 22.1239 7.58509 19.8179 7.58509Z" fill="#353FD7"/>
    <path d="M13.9278 16.1337C13.7176 15.8367 13.3347 15.6376 12.898 15.6376C12.2357 15.6376 11.6971 16.0953 11.6971 16.658C11.6971 17.2206 12.2358 17.6783 12.898 17.6783C13.479 17.6783 13.9649 17.3258 14.0753 16.8593C14.604 16.6366 15.0203 16.1929 15.2009 15.6315C15.7244 15.5123 16.1164 15.0433 16.1164 14.4842V13.1916C16.1164 12.6518 15.7511 12.1961 15.2548 12.0579C15.138 11.338 14.7842 10.6774 14.2418 10.1781C13.6366 9.62101 12.85 9.31421 12.027 9.31421C10.4074 9.31421 9.05275 10.4808 8.79883 12.058C8.3027 12.1963 7.9375 12.6519 7.9375 13.1916V14.4841C7.9375 15.1331 8.46545 15.661 9.11439 15.661C9.76333 15.661 10.2913 15.1331 10.2913 14.4841V13.1916C10.2913 12.6856 9.97023 12.2531 9.52117 12.0872C9.75358 10.8996 10.7917 10.0311 12.027 10.0311C13.2466 10.0311 14.2978 10.9148 14.5318 12.0876C14.0832 12.2537 13.7627 12.6859 13.7627 13.1916V14.4841C13.7627 14.9625 14.0496 15.3748 14.4603 15.5587C14.3464 15.8035 14.1589 16.0036 13.9278 16.1337ZM12.898 16.9614C12.6127 16.9614 12.414 16.8016 12.414 16.658C12.414 16.5145 12.6127 16.3546 12.898 16.3546C13.1832 16.3546 13.382 16.5145 13.382 16.658C13.382 16.8016 13.1831 16.9614 12.898 16.9614ZM9.57437 14.4842C9.57437 14.7379 9.36803 14.9442 9.11439 14.9442C8.86075 14.9442 8.65441 14.7379 8.65441 14.4842V13.1917C8.65441 12.938 8.86075 12.7317 9.11439 12.7317C9.36803 12.7317 9.57437 12.938 9.57437 13.1917V14.4842ZM14.4796 13.1917C14.4796 12.938 14.6859 12.7317 14.9395 12.7317C15.1932 12.7317 15.3995 12.938 15.3995 13.1917V14.4842C15.3995 14.7379 15.1932 14.9442 14.9395 14.9442C14.6859 14.9442 14.4796 14.7379 14.4796 14.4842V13.1917Z" fill="#353FD7"/>
    <path d="M17.0479 11.3458H19.9031C20.1011 11.3458 20.2616 11.1854 20.2616 10.9874C20.2616 10.7894 20.1011 10.6289 19.9031 10.6289H17.0479C16.85 10.6289 16.6895 10.7894 16.6895 10.9874C16.6895 11.1854 16.85 11.3458 17.0479 11.3458Z" fill="#353FD7"/>
    <path d="M17.0479 12.9505H19.2495C19.4474 12.9505 19.6079 12.7901 19.6079 12.5921C19.6079 12.3941 19.4474 12.2336 19.2495 12.2336H17.0479C16.85 12.2336 16.6895 12.3941 16.6895 12.5921C16.6895 12.7901 16.85 12.9505 17.0479 12.9505Z" fill="#353FD7"/>
    <path d="M3.52661 6.7666C3.82176 6.7666 4.06103 6.52733 4.06103 6.23218C4.06103 5.93702 3.82176 5.69775 3.52661 5.69775C3.23146 5.69775 2.99219 5.93702 2.99219 6.23218C2.99219 6.52733 3.23146 6.7666 3.52661 6.7666Z" fill="#353FD7"/>
    <path d="M5.14477 6.7666C5.43993 6.7666 5.6792 6.52733 5.6792 6.23218C5.6792 5.93702 5.43993 5.69775 5.14477 5.69775C4.84962 5.69775 4.61035 5.93702 4.61035 6.23218C4.61035 6.52733 4.84962 6.7666 5.14477 6.7666Z" fill="#353FD7"/>
    <path d="M6.75415 6.7666C7.0493 6.7666 7.28857 6.52733 7.28857 6.23218C7.28857 5.93702 7.0493 5.69775 6.75415 5.69775C6.459 5.69775 6.21973 5.93702 6.21973 6.23218C6.21973 6.52733 6.459 6.7666 6.75415 6.7666Z" fill="#353FD7"/>
  </g>
  <defs>
    <clipPath id="clip0_1765_6046">
      <rect width="24" height="24" fill="white"/>
    </clipPath>
  </defs>
</svg>