<svg xmlns="http://www.w3.org/2000/svg" width="32" height="18" viewBox="0 0 32 18" fill="none">
  <path d="M29.0039 6.99552L25.6438 2.38715C24.548 0.884899 22.8062 -0.000488281 20.9484 -0.000488281H5.91129C2.70357 -0.000488281 0.105469 2.59762 0.105469 5.80533V11.6111C0.105469 14.8189 2.70357 17.417 5.91129 17.417H20.9484C22.8062 17.417 24.548 16.5316 25.6438 15.0293L29.0039 10.421C29.7514 9.39768 29.7514 8.0188 29.0039 6.99552ZM23.9021 10.8854C22.6974 10.8854 21.7249 9.91295 21.7249 8.70824C21.7249 7.50353 22.6974 6.53106 23.9021 6.53106C25.1068 6.53106 26.0792 7.50353 26.0792 8.70824C26.0792 9.91295 25.1068 10.8854 23.9021 10.8854Z" fill="black"/>
  <path d="M29.6311 7.56844C29.5585 7.64101 29.4787 7.71358 29.4061 7.7789C28.3901 8.72235 27.2942 9.3755 26.2564 9.67305C26.0968 9.71659 25.9444 9.75288 25.792 9.78191C25.5452 9.82545 25.313 9.84722 25.088 9.84722C24.355 9.84722 23.7382 9.61499 23.281 9.16504C22.7512 8.64252 22.5189 7.85873 22.6278 6.94431C22.9834 6.68305 23.4261 6.53065 23.8978 6.53065C23.9849 6.53065 24.0647 6.53791 24.1518 6.55242C24.1518 6.61774 24.1446 6.68305 24.1301 6.74837C24.043 7.11849 23.9486 7.78616 24.3042 8.13451C24.5945 8.41754 25.1606 8.4756 25.8573 8.27965C25.9081 8.26514 25.9661 8.25062 26.0169 8.22885C26.8515 7.95308 27.7732 7.35798 28.5642 6.58145L28.6441 6.50162C30.306 4.79616 30.8285 2.87299 30.1971 2.24886C29.6601 1.70456 28.0054 2.02388 26.4234 3.36648C26.4088 3.38099 26.3943 3.38825 26.3798 3.39551L25.6396 2.38675C25.6033 2.33595 25.5597 2.28515 25.5235 2.23435C27.6426 0.456313 30.0375 0.0281347 31.2277 1.21833C32.5557 2.55367 31.859 5.34046 29.6311 7.56844Z" fill="white"/>
  <path d="M29.4579 8.01951C29.4383 7.93968 29.4339 7.85768 29.4071 7.7793C28.391 8.72274 27.2952 9.3759 26.2574 9.67345C26.0977 9.71699 25.9453 9.75327 25.7929 9.7823C25.7313 9.89189 25.6572 9.99276 25.5781 10.0893C25.6507 10.0799 25.7175 10.0828 25.7929 10.0697C25.9453 10.0407 26.0977 10.0044 26.2574 9.96083C27.2952 9.66328 28.391 9.01013 29.4071 8.06668C29.423 8.05217 29.4404 8.03475 29.4579 8.01951Z" fill="#2A2A2A"/>
  <path d="M25.8851 10.3264C25.9932 10.1399 26.0622 9.92871 26.1094 9.70809C26.0041 9.73421 25.8982 9.76252 25.7944 9.78211C25.4243 10.4425 24.7131 10.8852 23.9002 10.8852C22.9096 10.8852 22.0859 10.2234 21.8203 9.31982C21.8566 10.4926 22.8095 11.4295 23.991 11.4295C24.8038 11.4295 25.515 10.9868 25.8851 10.3264Z" fill="#2A2A2A"/>
  <path d="M7.60766 5.44029C7.20705 5.44029 6.88193 5.76541 6.88193 6.16601V8.81782L4.71708 5.74799C4.53493 5.48891 4.2069 5.37787 3.90427 5.47439C3.60309 5.56946 3.39844 5.8496 3.39844 6.16601V11.1068C3.39844 11.5074 3.72356 11.8325 4.12416 11.8325C4.52477 11.8325 4.84989 11.5074 4.84989 11.1068V8.45496L7.01474 11.5248C7.15335 11.7215 7.37687 11.8325 7.60766 11.8325C7.68095 11.8325 7.75498 11.8216 7.82683 11.7984C8.12873 11.7026 8.33338 11.4232 8.33338 11.1068V6.16601C8.33338 5.76469 8.00898 5.44029 7.60766 5.44029Z" fill="#CFFC75"/>
  <path d="M12.1455 10.3795H10.4444V9.36056H11.9103C12.3109 9.36056 12.6361 9.03543 12.6361 8.63483C12.6361 8.23423 12.3109 7.9091 11.9103 7.9091H10.4451V6.89091H12.0315C12.4321 6.89091 12.7573 6.56578 12.7573 6.16518C12.7573 5.76458 12.4321 5.43945 12.0315 5.43945H9.71791C9.31731 5.44018 8.99219 5.76458 8.99219 6.16518C8.99219 6.18187 8.99291 6.19929 8.99364 6.21598L8.99219 11.1052C8.99219 11.2982 9.06911 11.4826 9.20555 11.619C9.34199 11.7555 9.52705 11.8317 9.71937 11.8317H12.1447C12.5453 11.8317 12.8705 11.5065 12.8705 11.1059C12.8705 10.7053 12.5461 10.3795 12.1455 10.3795Z" fill="#CFFC75"/>
  <path d="M20.202 5.49598C19.8195 5.39655 19.4182 5.62879 19.3181 6.01778L18.6337 8.67757L17.617 5.90602C17.5117 5.62008 17.2396 5.43066 16.9362 5.43066C16.6329 5.43066 16.36 5.62081 16.2555 5.90602L15.238 8.67757L14.5537 6.01778C14.4535 5.62951 14.0602 5.3951 13.6697 5.49598C13.2815 5.59613 13.0485 5.99165 13.1479 6.37992L14.4136 11.2967C14.4927 11.6044 14.7627 11.825 15.0798 11.8403C15.3919 11.8555 15.6873 11.6639 15.7976 11.3657L16.9362 8.26245L18.0749 11.3657C18.1801 11.6523 18.453 11.841 18.7556 11.841C18.768 11.841 18.7796 11.841 18.7919 11.8403C19.1098 11.825 19.3798 11.6044 19.4589 11.2967L20.7245 6.37992C20.8247 5.99093 20.5903 5.5954 20.202 5.49598Z" fill="#CFFC75"/>
</svg>