<svg xmlns="http://www.w3.org/2000/svg" width="24" height="24" viewBox="0 0 24 24" fill="none">
  <path d="M3.2002 1.6001H7.6002V2.4001H3.2002V1.6001Z" fill="#353FD7"/>
  <path d="M3.6002 8.7999H7.2002C7.421 8.7999 7.6002 8.6207 7.6002 8.3999V6.7999C7.6002 6.5791 7.421 6.3999 7.2002 6.3999H3.6002C3.3794 6.3999 3.2002 6.5791 3.2002 6.7999V8.3999C3.2002 8.6207 3.3794 8.7999 3.6002 8.7999ZM4.0002 7.1999H6.8002V7.9999H4.0002V7.1999Z" fill="#353FD7"/>
  <path d="M8.80039 8.7999H17.2004C17.4212 8.7999 17.6004 8.6207 17.6004 8.3999V6.7999C17.6004 6.5791 17.4212 6.3999 17.2004 6.3999H8.80039C8.57959 6.3999 8.40039 6.5791 8.40039 6.7999V8.3999C8.40039 8.6207 8.57959 8.7999 8.80039 8.7999ZM9.20039 7.1999H16.8004V7.9999H9.20039V7.1999Z" fill="#353FD7"/>
  <path d="M3.6002 5.59995H7.2002C7.421 5.59995 7.6002 5.42075 7.6002 5.19995V3.59995C7.6002 3.37915 7.421 3.19995 7.2002 3.19995H3.6002C3.3794 3.19995 3.2002 3.37915 3.2002 3.59995V5.19995C3.2002 5.42075 3.3794 5.59995 3.6002 5.59995ZM4.0002 3.99995H6.8002V4.79995H4.0002V3.99995Z" fill="#353FD7"/>
  <path d="M8.80039 5.59995H17.2004C17.4212 5.59995 17.6004 5.42075 17.6004 5.19995V3.59995C17.6004 3.37915 17.4212 3.19995 17.2004 3.19995H8.80039C8.57959 3.19995 8.40039 3.37915 8.40039 3.59995V5.19995C8.40039 5.42075 8.57959 5.59995 8.80039 5.59995ZM9.20039 3.99995H16.8004V4.79995H9.20039V3.99995Z" fill="#353FD7"/>
  <path d="M3.2002 9.6001H8.0002V10.4001H3.2002V9.6001Z" fill="#353FD7"/>
  <path d="M21.5068 8.174C20.8168 7.9336 20.0612 8.302 19.822 8.9928L19.518 9.8688L19.1996 10.7892V0.4C19.1996 0.1792 19.0204 0 18.7996 0H1.99961C1.77881 0 1.59961 0.1792 1.59961 0.4V23.6C1.59961 23.8212 1.77881 24 1.99961 24H18.7996C19.0204 24 19.1996 23.8212 19.1996 23.6V18.8988L22.0256 10.7348C22.0256 10.7344 22.026 10.734 22.026 10.7336L22.324 9.8632C22.3748 9.722 22.3996 9.578 22.3996 9.424C22.3996 8.86 22.0404 8.3576 21.5068 8.174ZM20.8444 8.9532C20.9692 8.892 21.1112 8.8836 21.2456 8.9304C21.4572 9.0032 21.5996 9.2016 21.5996 9.424C21.5996 9.4852 21.5908 9.5388 21.5692 9.5984L21.3992 10.0952L20.902 9.924L20.4048 9.7528L20.5776 9.2552C20.624 9.1216 20.7184 9.0144 20.8444 8.9532ZM16.7996 17.7268L16.5668 18.4H3.99961V12H16.7996V17.7268ZM18.3996 23.2H2.39961V0.8H18.3996V13.1008L17.5996 15.4136V11.6C17.5996 11.3792 17.4204 11.2 17.1996 11.2H3.59961C3.37881 11.2 3.19961 11.3792 3.19961 11.6V18.8C3.19961 19.0212 3.37881 19.2 3.59961 19.2H16.2904L15.9892 20.0736C15.9644 20.1452 15.968 20.2172 15.9828 20.286L15.9756 20.2876L16.3464 22.0476C16.3752 22.1852 16.4744 22.2972 16.6072 22.3432C16.6496 22.358 16.694 22.3652 16.738 22.3652C16.8304 22.3652 16.9216 22.3332 16.9948 22.272L18.3736 21.1164L18.37 21.112C18.3796 21.104 18.3908 21.0984 18.3996 21.0896V23.2ZM16.904 20.8124L17.3196 20.956L16.992 21.2304L16.904 20.8124ZM17.8684 20.2992L16.876 19.9564L20.1432 10.5084L21.1388 10.8516L17.8684 20.2992Z" fill="#353FD7"/>
  <path d="M3.59961 20H12.3996V20.8H3.59961V20Z" fill="#353FD7"/>
</svg>