<svg xmlns="http://www.w3.org/2000/svg" width="24" height="24" viewBox="0 0 24 24" fill="none">
  <g clip-path="url(#clip0_1765_6087)">
    <path d="M12.3135 13.0981C12.2691 13.0885 12.2235 13.0868 12.1786 13.0935C11.7278 13.041 11.3878 12.6597 11.387 12.206C11.387 11.9886 11.2107 11.8124 10.9933 11.8124C10.7759 11.8124 10.5997 11.9886 10.5997 12.206C10.6008 12.9636 11.1075 13.6271 11.8379 13.8276V14.2213C11.8379 14.4387 12.0142 14.6149 12.2316 14.6149C12.449 14.6149 12.6253 14.4387 12.6253 14.2213V13.8514C13.4684 13.675 14.0414 12.8898 13.9528 12.033C13.864 11.1763 13.1422 10.5252 12.2808 10.525C11.7872 10.525 11.387 10.1248 11.387 9.63122C11.387 9.13759 11.7872 8.73739 12.2808 8.73739C12.7744 8.73739 13.1746 9.13759 13.1746 9.63122C13.1746 9.84862 13.3509 10.0249 13.5683 10.0249C13.7857 10.0249 13.962 9.84862 13.962 9.63122C13.9608 8.83581 13.4036 8.14977 12.6253 7.98561V7.62731C12.6253 7.40991 12.449 7.23364 12.2316 7.23364C12.0142 7.23364 11.8379 7.40991 11.8379 7.62731V8.00964C11.0256 8.23146 10.5028 9.02015 10.6146 9.85477C10.7265 10.6894 11.4387 11.3124 12.2808 11.3122C12.7679 11.3122 13.1652 11.7022 13.1741 12.1891C13.1831 12.676 12.8002 13.0804 12.3135 13.0981Z" fill="#353FD7"/>
    <path d="M6.57227 10.9488C6.57227 14.1016 9.12804 16.6574 12.2809 16.6574C15.4337 16.6574 17.9894 14.1016 17.9894 10.9488C17.9894 7.79601 15.4337 5.24023 12.2809 5.24023C9.12958 5.24369 6.57592 7.79755 6.57227 10.9488ZM12.2809 6.02757C14.9989 6.02757 17.2021 8.23081 17.2021 10.9488C17.2021 13.6668 14.9989 15.8701 12.2809 15.8701C9.56285 15.8701 7.3596 13.6668 7.3596 10.9488C7.36268 8.23216 9.56419 6.03065 12.2809 6.02757Z" fill="#353FD7"/>
    <path d="M19.9303 17.6281L16.8465 19.0851C16.4207 18.2931 15.604 17.7891 14.7052 17.7638L11.8584 17.6855C11.4076 17.6727 10.9653 17.5585 10.5645 17.3514L10.2749 17.2013C8.79167 16.4282 7.02381 16.4301 5.54217 17.2063L5.56024 16.5501C5.5662 16.3327 5.39493 16.1516 5.17753 16.1456L2.05585 16.0597C1.83845 16.0538 1.65757 16.225 1.65161 16.4424L1.46304 23.2928C1.45708 23.5102 1.62835 23.6913 1.84575 23.6973L4.96743 23.7832H4.97819C5.19156 23.7832 5.3661 23.6134 5.37186 23.4003L5.3809 23.0725L6.19188 22.6383C6.5102 22.467 6.88234 22.4263 7.23007 22.5247L12.0729 23.8839C12.0813 23.8864 12.0898 23.8883 12.0985 23.8902C12.4485 23.9635 12.8053 24.0002 13.1628 24C13.9201 24.0004 14.6686 23.8372 15.357 23.5212C15.3739 23.5135 15.3902 23.5045 15.4058 23.4943L22.4275 18.9525C22.6024 18.8392 22.6589 18.6095 22.5564 18.4281C22.0351 17.5031 20.8789 17.1508 19.9303 17.6281ZM2.26095 22.9211L2.4278 16.8576L4.76233 16.9218L4.59548 22.9855L2.26095 22.9211ZM15.0023 22.818C14.1471 23.204 13.192 23.3105 12.2728 23.1227L7.44305 21.767C6.89945 21.6134 6.31759 21.677 5.82031 21.9444L5.40589 22.1664L5.5168 18.1349C6.83005 17.2615 8.5143 17.1717 9.9129 17.9004L10.2026 18.0506C10.7089 18.312 11.2673 18.4561 11.8368 18.4727L14.6838 18.5509C15.4835 18.574 16.1626 19.1433 16.3248 19.9268L12.0842 19.8098C11.8668 19.8038 11.6859 19.9753 11.6798 20.1925C11.6738 20.4099 11.8453 20.591 12.0625 20.5969L16.7423 20.7257H16.7533C16.9665 20.7255 17.1408 20.5558 17.1466 20.3428C17.1514 20.1717 17.1387 20.0005 17.1085 19.8321L20.2715 18.3375C20.2746 18.3362 20.2777 18.3347 20.2807 18.3331C20.7294 18.1061 21.2718 18.182 21.6409 18.5236L15.0023 22.818Z" fill="#353FD7"/>
    <path d="M12.6741 4.13353V0.393669C12.6741 0.176267 12.4978 0 12.2804 0C12.063 0 11.8867 0.176267 11.8867 0.393669V4.13353C11.8867 4.35093 12.063 4.5272 12.2804 4.5272C12.4978 4.5272 12.6741 4.35093 12.6741 4.13353Z" fill="#353FD7"/>
    <path d="M15.6272 4.13344V2.36193C15.6272 2.14453 15.4509 1.96826 15.2335 1.96826C15.0161 1.96826 14.8398 2.14453 14.8398 2.36193V4.13344C14.8398 4.35085 15.0161 4.52711 15.2335 4.52711C15.4509 4.52711 15.6272 4.35085 15.6272 4.13344Z" fill="#353FD7"/>
    <path d="M9.72191 4.13344V2.36193C9.72191 2.14453 9.54564 1.96826 9.32824 1.96826C9.11084 1.96826 8.93457 2.14453 8.93457 2.36193V4.13344C8.93457 4.35085 9.11084 4.52711 9.32824 4.52711C9.54564 4.52711 9.72191 4.35085 9.72191 4.13344Z" fill="#353FD7"/>
  </g>
  <defs>
    <clipPath id="clip0_1765_6087">
      <rect width="24" height="24" fill="white"/>
    </clipPath>
  </defs>
</svg>