<svg xmlns="http://www.w3.org/2000/svg" width="24" height="24" viewBox="0 0 24 24" fill="none">
  <path d="M19.4578 13.2858C18.9717 13.0757 18.4293 13.0879 17.9486 13.2942C16.8719 12.6065 15.0815 13.2699 15.0658 14.6302C15.059 15.7752 14.6216 16.9415 13.8846 17.8272C12.7959 18.1956 11.5685 18.1328 10.5197 17.6631C11.6361 16.9844 13.0366 16.0566 13.3146 14.7865C13.7158 13.3355 12.662 11.7462 11.1305 12.0247C10.6636 12.1073 10.2772 12.3549 10.0428 12.7218C9.35144 13.801 8.18579 14.7052 6.87952 15.1875C6.50195 14.335 5.9823 13.871 5.39453 13.871C4.05493 13.871 3.33203 16.1895 3.33203 18.371C3.33203 20.5525 4.05493 22.871 5.39453 22.871C5.73145 22.871 6.19836 22.7164 6.62573 22.0375C12.1579 25.2049 19.5163 21.8843 20.6325 15.5855C20.8076 14.6118 20.3136 13.6447 19.4578 13.2858ZM15.8158 14.6342C15.8672 13.9628 16.6417 13.6517 17.1966 13.8088C16.9749 14.0433 16.8028 14.3251 16.7141 14.6415C16.4467 15.5961 15.9352 16.4185 15.2702 17.0139C15.6173 16.2621 15.8109 15.4442 15.8158 14.6342ZM19.8943 15.453C18.863 21.3928 11.7125 24.4082 6.68429 21.1987C6.50301 21.0786 6.23673 21.1563 6.1471 21.3534C5.91529 21.8342 5.63404 22.121 5.39453 22.121C4.84632 22.121 4.08203 20.6942 4.08203 18.371C4.08203 16.0477 4.84632 14.621 5.39453 14.621C5.69776 14.621 6.05701 15.0773 6.31006 15.7833C6.37745 15.9719 6.58069 16.0737 6.77405 16.0148C8.39893 15.512 9.82056 14.4591 10.6746 13.1261C10.9483 12.6792 11.7195 12.6371 12.1097 12.9536C12.5532 13.292 12.7502 13.9691 12.588 14.5997C12.2613 15.8365 10.6831 16.7424 9.56792 17.2973C9.29157 17.3977 9.2501 17.8063 9.50196 17.9594C12.5266 19.901 16.4863 18.4508 17.4362 14.8436C17.9626 13.288 20.1656 13.7445 19.8943 15.453Z" fill="#353FD7"/>
  <path d="M6.33204 9.37108H6.85133C6.9026 9.50951 6.96009 9.64592 7.02271 9.77996L6.65138 10.1485C6.21339 10.5873 6.21339 11.3012 6.65211 11.7405L7.71119 12.7959C8.12849 13.2371 8.88819 13.2374 9.30457 12.7973C9.30457 12.7974 9.73157 12.3707 9.73157 12.3707C10.09 12.3 10.1339 11.7883 9.7931 11.6531C9.64588 11.564 9.45545 11.5861 9.33314 11.7084L8.77247 12.2689C8.6323 12.4159 8.38346 12.4158 8.24293 12.2665L7.18201 11.2096C7.03589 11.0633 7.03589 10.8249 7.18128 10.6796L7.74378 10.1209C8.06376 9.78756 7.52607 9.275 7.47727 8.88419C7.42847 8.72765 7.28345 8.62109 7.11939 8.62109H6.33204C6.12513 8.62109 5.95704 8.45281 5.95704 8.24609V6.74609C5.95704 6.53936 6.12513 6.37109 6.33204 6.37109H7.11939C7.28345 6.37109 7.42847 6.26452 7.47718 6.10796C7.52653 5.71616 8.06344 5.20603 7.74383 4.87127C7.74378 4.87127 7.18238 4.31371 7.18238 4.31371C7.0359 4.16723 7.0359 3.92882 7.18201 3.78253L8.24329 2.72124C8.38465 2.57952 8.63368 2.5808 8.77357 2.72033L9.3324 3.28283C9.44922 3.40056 9.6294 3.42748 9.77479 3.3493C10.0322 3.21197 10.2919 3.1032 10.5691 3.01659C10.7255 2.96771 10.832 2.82269 10.832 2.65862V1.87109C10.832 1.66436 11.0001 1.49609 11.207 1.49609H12.707C12.9139 1.49609 13.082 1.66436 13.082 1.87109V2.65862C13.082 2.82269 13.1886 2.96771 13.345 3.01659C13.6222 3.1032 13.8818 3.21197 14.1393 3.3493C14.2847 3.42749 14.4648 3.40057 14.5817 3.28283L15.1401 2.72106C15.2804 2.58025 15.5291 2.5797 15.6708 2.72124L16.7321 3.78253C16.8782 3.92883 16.8782 4.16723 16.7328 4.31261L16.1703 4.87127C15.8514 5.20718 16.387 5.71511 16.4368 6.10796C16.4856 6.26452 16.6306 6.37109 16.7947 6.37109H17.582C17.7889 6.37109 17.957 6.53936 17.957 6.74609V8.24609C17.957 8.45281 17.7889 8.62109 17.582 8.62109H16.7947C16.6306 8.62109 16.4856 8.72765 16.4369 8.88421C16.3875 9.27601 15.8506 9.78614 16.1702 10.1209C16.1703 10.1209 16.7317 10.6785 16.7317 10.6785C16.8782 10.8249 16.8782 11.0633 16.7324 11.2091L15.6689 12.2687C15.5287 12.4157 15.2803 12.4159 15.1398 12.2671L14.5809 11.7084C14.4634 11.5909 14.2832 11.5645 14.1382 11.6434C13.8348 11.8778 13.0508 11.8739 13.1956 12.4234C13.3806 12.9008 13.9265 12.5607 14.2422 12.43L14.6077 12.7955C15.0244 13.2371 15.7844 13.2374 16.2007 12.7977C16.2007 12.7977 17.2623 11.7399 17.2623 11.7399C17.7007 11.3012 17.7007 10.5873 17.2616 10.1475L16.8914 9.77996C16.954 9.64593 17.0115 9.50952 17.0628 9.37109H17.582C18.2024 9.37109 18.707 8.86645 18.707 8.24609V6.74609C18.707 6.12573 18.2024 5.62109 17.582 5.62109H17.0628C17.0115 5.48285 16.954 5.34625 16.8914 5.21222L17.2627 4.84363C17.7007 4.40491 17.7007 3.69098 17.2623 3.25226L16.2011 2.19098C15.7759 1.76617 15.0343 1.76562 14.6088 2.19189L14.2411 2.56195C14.1071 2.49914 13.9705 2.44202 13.832 2.39056V1.87109C13.832 1.25073 13.3274 0.746094 12.707 0.746094H11.207C10.5867 0.746094 10.082 1.25073 10.082 1.87109V2.39056C9.94361 2.44202 9.80701 2.49914 9.67298 2.56195L9.30494 2.19116C8.88013 1.76599 8.13782 1.7658 7.71302 2.19098L6.65174 3.25226C6.21338 3.69098 6.21338 4.40491 6.65247 4.84472L7.02271 5.21222C6.96008 5.34625 6.90259 5.48285 6.85132 5.62109H6.33203C5.71167 5.62109 5.20703 6.12573 5.20703 6.74609V8.24609C5.20703 8.86645 5.71168 9.37108 6.33204 9.37108Z" fill="#353FD7"/>
  <path d="M15.7072 7.49609C15.7072 5.42828 14.0248 3.74609 11.9572 3.74609C6.98229 3.95213 6.98376 11.0408 11.9572 11.2461C14.0248 11.2461 15.7072 9.5639 15.7072 7.49609ZM14.9311 7.12109H13.8233C13.7818 6.20522 13.5894 5.40473 13.2923 4.81353C14.1707 5.25255 14.8039 6.10806 14.9311 7.12109ZM8.98322 7.87109H10.0911C10.1325 8.78696 10.325 9.58746 10.6221 10.1787C9.74366 9.73964 9.11044 8.88412 8.98322 7.87109ZM10.0911 7.12109H8.98322C9.11044 6.10806 9.74366 5.25255 10.6221 4.81353C10.325 5.40473 10.1325 6.20522 10.0911 7.12109ZM11.9572 10.4961C11.5305 10.4961 10.9255 9.48487 10.8425 7.87109H13.0718C12.9889 9.48487 12.3838 10.4961 11.9572 10.4961ZM10.8425 7.12109C10.9255 5.50731 11.5305 4.49609 11.9572 4.49609C12.3838 4.49609 12.9889 5.50731 13.0718 7.12109H10.8425ZM13.2923 10.1787C13.5894 9.58745 13.7818 8.78696 13.8233 7.87109H14.9311C14.8039 8.88413 14.1707 9.73964 13.2923 10.1787Z" fill="#353FD7"/>
</svg>