<svg xmlns="http://www.w3.org/2000/svg" width="24" height="24" viewBox="0 0 24 24" fill="none">
  <g clip-path="url(#clip0_1765_6030)">
    <path fill-rule="evenodd" clip-rule="evenodd" d="M8.2217 14.6812H13.3052C13.5143 14.6812 13.6841 14.5114 13.6841 14.3023C13.6841 14.0931 13.5143 13.9233 13.3052 13.9233H8.2217C8.01254 13.9233 7.84277 14.0931 7.84277 14.3023C7.84277 14.5114 8.0125 14.6812 8.2217 14.6812Z" fill="#353FD7"/>
    <path fill-rule="evenodd" clip-rule="evenodd" d="M11.4209 14.3023V23.4255C11.4209 23.6347 11.5907 23.8045 11.7998 23.8045C12.0087 23.8045 12.1788 23.6347 12.1788 23.4255V14.3023C12.1788 14.0931 12.0087 13.9233 11.7998 13.9233C11.5907 13.9233 11.4209 14.0931 11.4209 14.3023Z" fill="#353FD7"/>
    <path fill-rule="evenodd" clip-rule="evenodd" d="M3.3054 0.195557C1.83054 0.195557 0.632812 1.39329 0.632812 2.86838C0.632812 4.34347 1.83054 5.54096 3.3054 5.54096C4.78053 5.54096 5.97826 4.34351 5.97826 2.86838C5.97826 1.39325 4.78053 0.195557 3.3054 0.195557ZM3.3054 0.953451C4.36241 0.953451 5.22037 1.81141 5.22037 2.86838C5.22037 3.92515 4.36241 4.78307 3.3054 4.78307C2.24862 4.78307 1.39071 3.92515 1.39071 2.86838C1.39071 1.81137 2.24866 0.953451 3.3054 0.953451Z" fill="#353FD7"/>
    <path fill-rule="evenodd" clip-rule="evenodd" d="M20.6943 0.195557C19.2192 0.195557 18.0215 1.39329 18.0215 2.86838C18.0215 4.34347 19.2192 5.54096 20.6943 5.54096C22.1692 5.54096 23.3669 4.34351 23.3669 2.86838C23.3669 1.39325 22.1692 0.195557 20.6943 0.195557ZM20.6943 0.953451C21.7511 0.953451 22.609 1.81141 22.609 2.86838C22.609 3.92515 21.7511 4.78307 20.6943 4.78307C19.6373 4.78307 18.7794 3.92515 18.7794 2.86838C18.7794 1.81137 19.6373 0.953451 20.6943 0.953451Z" fill="#353FD7"/>
    <path fill-rule="evenodd" clip-rule="evenodd" d="M5.39395 10.9785C5.4566 11.1049 5.58647 11.189 5.73325 11.189L5.87397 11.1617L9.3633 9.7669C9.90038 9.55243 10.5105 9.8139 10.7253 10.351C10.9397 10.8878 10.678 11.4979 10.1412 11.7127L5.53293 13.5546C5.09258 13.7307 4.59389 13.5882 4.3117 13.2183C4.21318 13.0892 4.04314 13.0372 3.88906 13.0892C3.73522 13.1413 3.63163 13.2858 3.63163 13.4482V15.3513C3.63163 15.5438 3.77588 15.7055 3.96689 15.7277L7.0341 16.0819C7.7589 16.1655 8.30609 16.7794 8.30609 17.5093V23.4254C8.30609 23.6346 8.47586 23.8044 8.68502 23.8044C8.89422 23.8044 9.06395 23.6346 9.06395 23.4254V17.5093C9.06395 16.3944 8.22826 15.4569 7.12096 15.3291L4.38949 15.0136V14.2223C4.82655 14.4232 5.3399 14.4479 5.81409 14.2585L10.4226 12.4165C11.3477 12.0464 11.7987 10.995 11.4289 10.0696C11.059 9.14417 10.0075 8.69324 9.08217 9.0631L5.8899 10.3391L4.05605 7.33763C3.79712 6.91373 3.37496 6.61536 2.88915 6.51253C2.87425 6.50951 2.85935 6.50623 2.84418 6.50317C2.33511 6.39554 1.80432 6.51276 1.38799 6.82476C0.971651 7.13703 0.710182 7.61348 0.670752 8.13238C0.447921 11.0644 0.00103034 16.9406 0.00103034 16.9406C0.000237771 16.9502 0 16.9598 0 16.9695C0 18.0831 0.833942 19.0198 1.9397 19.1491L4.67442 19.5023V23.4254C4.67442 23.6346 4.84419 23.8043 5.05334 23.8043C5.2625 23.8043 5.43227 23.6346 5.43227 23.4254V19.1691C5.43227 18.9784 5.2908 18.8177 5.10181 18.7932L2.02981 18.3968C1.31008 18.3137 0.765622 17.7079 0.757815 16.9849C0.757815 16.9828 1.42627 8.18976 1.42627 8.18976C1.44925 7.88886 1.60083 7.61226 1.84237 7.43135C2.08414 7.25021 2.39186 7.18225 2.68741 7.24466L2.73211 7.25402C3.01406 7.31366 3.25885 7.48695 3.40916 7.73277C3.98239 8.67105 5.14421 10.5729 5.37085 10.944C5.37854 10.9561 5.38611 10.9677 5.39395 10.9785Z" fill="#353FD7"/>
    <path fill-rule="evenodd" clip-rule="evenodd" d="M2.38566 11.53L3.60336 13.5235C4.06238 14.2749 4.99662 14.5856 5.8144 14.2587C6.00866 14.1811 6.10341 13.9603 6.02562 13.7663C5.94806 13.572 5.72725 13.4773 5.53323 13.5548C5.0588 13.7446 4.51664 13.5644 4.2501 13.1284L3.03244 11.1349C2.9233 10.9565 2.68985 10.9002 2.51152 11.0091C2.33311 11.1183 2.27652 11.3517 2.38566 11.53Z" fill="#353FD7"/>
    <path fill-rule="evenodd" clip-rule="evenodd" d="M17.7593 10.9134L14.09 11.4323C13.1033 11.5718 12.4156 12.4863 12.5551 13.4731C12.6945 14.4596 13.609 15.1475 14.5958 15.008L19.1086 14.3696C19.2842 14.3449 19.4529 14.2949 19.6103 14.2223V15.0136L16.8789 15.3291C15.7716 15.4569 14.9359 16.3944 14.9359 17.5093V23.4254C14.9359 23.6346 15.1056 23.8043 15.3148 23.8043C15.524 23.8043 15.6937 23.6346 15.6937 23.4254V17.5093C15.6937 16.7794 16.2409 16.1655 16.9657 16.0819L20.0319 15.7277H20.0311C20.2209 15.707 20.3681 15.5463 20.3681 15.3513V13.448C20.3681 13.2855 20.2646 13.1413 20.1107 13.0892C19.9569 13.0369 19.7868 13.089 19.6881 13.2181C19.5221 13.4354 19.2763 13.5806 19.0024 13.6193L14.4897 14.2574C13.9169 14.3385 13.3864 13.9393 13.3056 13.3666C13.2245 12.7942 13.6236 12.2637 14.1961 12.1825L18.0414 11.6389L17.9894 11.6424L18.3127 11.461L20.3631 8.10481C20.6253 7.67583 21.1056 7.42954 21.607 7.46742C21.6141 7.46794 21.621 7.46841 21.628 7.46893C22.3036 7.51997 22.8348 8.06716 22.8657 8.7437L23.2418 16.9775C23.2378 17.7035 22.6921 18.3131 21.9698 18.3968L18.9617 18.7441C18.7725 18.7659 18.629 18.9248 18.6265 19.1153L18.5673 23.4201C18.5646 23.6293 18.732 23.8013 18.941 23.8043C19.1502 23.8071 19.3222 23.6397 19.3252 23.4305L19.3796 19.4586L22.0567 19.1496C23.164 19.0217 23.9997 18.084 23.9997 16.9694C23.9997 16.9636 23.9995 16.9578 23.9992 16.9519C23.9992 16.9519 23.7481 11.4537 23.6228 8.7091C23.5742 7.64956 22.7426 6.79291 21.6851 6.71329C21.678 6.71278 21.6709 6.71203 21.6641 6.71151C20.879 6.65238 20.1268 7.03789 19.7163 7.70967L17.7593 10.9134Z" fill="#353FD7"/>
    <path fill-rule="evenodd" clip-rule="evenodd" d="M15.5791 1.33238C15.5791 1.031 15.4593 0.741716 15.2461 0.528515C15.0329 0.315274 14.7439 0.195557 14.4423 0.195557H9.15542C8.52738 0.195557 8.01855 0.704624 8.01855 1.33238V6.14855C8.01855 6.39611 8.16304 6.62096 8.38841 6.72352C8.61374 6.82608 8.87825 6.78744 9.06494 6.62472C9.42949 6.30718 9.94311 5.8595 10.2293 5.60992C10.2985 5.5498 10.387 5.51671 10.4784 5.51671H14.4422C14.7439 5.51671 15.0329 5.39695 15.2461 5.18375C15.4593 4.97051 15.579 4.68126 15.579 4.37989V1.33238H15.5791ZM8.77645 5.87091V1.33238C8.77645 1.12322 8.94598 0.953451 9.15538 0.953451H14.4422C14.5428 0.953451 14.6392 0.993357 14.7103 1.06461C14.7812 1.13558 14.8212 1.23184 14.8212 1.33238V4.37989C14.8212 4.48043 14.7813 4.57668 14.7103 4.64766C14.6393 4.71891 14.5428 4.75882 14.4422 4.75882H10.4785C10.2038 4.75882 9.93859 4.85809 9.73142 5.03847L8.77645 5.87091Z" fill="#353FD7"/>
    <path fill-rule="evenodd" clip-rule="evenodd" d="M10.1113 2.54301H13.5451C13.7543 2.54301 13.924 2.37324 13.924 2.16408C13.924 1.95492 13.7543 1.78516 13.5451 1.78516H10.1113C9.90219 1.78516 9.73242 1.95492 9.73242 2.16408C9.73242 2.37324 9.90215 2.54301 10.1113 2.54301Z" fill="#353FD7"/>
    <path fill-rule="evenodd" clip-rule="evenodd" d="M10.1113 3.92485H11.7997C12.0086 3.92485 12.1786 3.75508 12.1786 3.54592C12.1786 3.33672 12.0086 3.16699 11.7997 3.16699H10.1113C9.90219 3.16699 9.73242 3.33676 9.73242 3.54592C9.73238 3.75508 9.90215 3.92485 10.1113 3.92485Z" fill="#353FD7"/>
    <path fill-rule="evenodd" clip-rule="evenodd" d="M17.9704 14.531L19.109 14.3698C19.6433 14.2943 20.1157 13.9838 20.3971 13.5235L21.6148 11.53C21.7239 11.3516 21.6673 11.1182 21.489 11.0091C21.3106 10.9002 21.0772 10.9565 20.9681 11.1349L19.7504 13.1284C19.5872 13.3954 19.3128 13.5756 19.0028 13.6195L17.8642 13.7805C17.6571 13.8098 17.5126 14.0018 17.5419 14.2089C17.5712 14.4158 17.7632 14.5603 17.9704 14.531Z" fill="#353FD7"/>
  </g>
  <defs>
    <clipPath id="clip0_1765_6030">
      <rect width="24" height="24" fill="white"/>
    </clipPath>
  </defs>
</svg>