<svg fill="none" height="32" viewBox="0 0 32 32" width="32" xmlns="http://www.w3.org/2000/svg"><g fill="#262626"><path d="m27.2498 11.3399h-22.49979c-.2075 0-.37501.1675-.37501.375v12.6074c0 .0025.00125.005.00125.0088v6.2924c0 .2075.16875.375.37501.375h22.49764c.2075 0 .375-.1675.375-.375v-6.2963c0-.0025.0012-.0037.0012-.005v-12.6073c0-.2063-.1675-.3751-.375-.3751zm-.375 12.6074h-21.75004v-5.5501h21.75004zm-21.75004-11.8576h21.75004v5.5562l-21.75004.0012zm.00125 18.1587v-5.5513h21.74749v5.5513z"/><path d="m23.733 14.4961h-11.7799c-.2075 0-.375.1675-.375.375s.1675.375.375.375h11.7799c.2075 0 .375-.1675.375-.375s-.1675-.375-.375-.375z"/><path d="m9.00782 13.7031c-.63751 0-1.15626.525-1.15626 1.17s.51875 1.17 1.15626 1.17c.6375 0 1.15628-.525 1.15628-1.17s-.51878-1.17-1.15628-1.17zm0 1.59c-.22375 0-.40624-.1887-.40624-.42 0-.2312.1825-.42.40624-.42s.40624.1888.40624.42c0 .2313-.1825.42-.40624.42z"/><path d="m11.9531 21.5469h11.7799c.2075 0 .375-.1675.375-.375s-.1675-.375-.375-.375h-11.7799c-.2075 0-.375.1675-.375.375s.1675.375.375.375z"/><path d="m9.00782 22.3439c.6375 0 1.15628-.525 1.15628-1.17s-.51878-1.17-1.15628-1.17c-.63751 0-1.15626.525-1.15626 1.17s.51875 1.17 1.15626 1.17zm0-1.59c.22375 0 .40624.1887.40624.42 0 .2312-.1825.42-.40624.42s-.40624-.1888-.40624-.42c0-.2313.18125-.42.40624-.42z"/><path d="m23.733 27.0977h-11.7799c-.2075 0-.375.1675-.375.375s.1675.375.375.375h11.7799c.2075 0 .375-.1675.375-.375 0-.2063-.1675-.375-.375-.375z"/><path d="m9.00782 26.3047c-.63751 0-1.15626.525-1.15626 1.17s.51875 1.17 1.15626 1.17c.6375 0 1.15628-.525 1.15628-1.17s-.51878-1.17-1.15628-1.17zm0 1.5913c-.22375 0-.40624-.1888-.40624-.42 0-.2313.1825-.42.40624-.42s.40624.1887.40624.42c0 .2312-.1825.42-.40624.42z"/><path d="m9.22239 8.11291h2.94871v1.88624c0 .20755.1675.37505.375.37505s.375-.1675.375-.37505v-2.26124c0-.2075-.1675-.37501-.375-.37501h-2.3512l6.0589-5.48256 6.0576 5.48384h-2.8625c-.2075 0-.3751.1675-.3751.37501v2.26121c0 .2075.1675.375.3751.375.2075 0 .375-.1675.375-.375v-1.88621h3.4598c.155 0 .2938-.095.35-.24.0563-.14499.0163-.30874-.0987-.41251l-7.0288-6.36512c-.1425-.128747-.36-.128747-.5038 0l-7.03133 6.36384c-.115.10375-.15375.2675-.09875.41251.05625.145.195.24.35001.24z"/></g></svg>