<svg fill="none" height="25" viewBox="0 0 25 25" width="25" xmlns="http://www.w3.org/2000/svg"><path d="m23.746 6.6299c0 .14551-.1182.2627-.2627.2627l-21.97451.00097c-.1455 0-.2627-.11816-.2627-.2627v-.94629c0-.14551.11817-.2627.2627-.2627h21.97451c.1455 0 .2627.11816.2627.2627l-.001.94529zm-2.629 3.25975c0-.14551-.1182-.2627-.2627-.2627h-16.71776c-.1455 0-.2627.11816-.2627.2627v.94625c0 .1456.11817.2627.2627.2627h16.71676c.1455 0 .2627-.1181.2627-.2627zm-2.629 4.20595c0-.1455-.1182-.2627-.2627-.2627h-11.46001c-.1455 0-.2627.1182-.2627.2627v.9463c0 .1456.11817.2627.2627.2627h11.46001c.1455 0 .2627-.1181.2627-.2627zm-2.628 4.205c0-.1455-.1182-.2627-.2627-.2627h-6.20401c-.1455 0-.2627.1182-.2627.2627v.9463c0 .1456.11817.2627.2627.2627h6.20301c.1455 0 .2627-.1181.2627-.2627z" fill="#262626"/></svg>