<svg fill="none" height="50" viewBox="0 0 40 50" width="40" xmlns="http://www.w3.org/2000/svg"><path d="m38.7249 6.68112c1.4865 3.0695-3.0309 3.39768-2.7992 4.76838.4247 2.471.1351 6.139-.1931 9.749-.5598 6.1197 4.0155 20.7722-5.5212 26.6602-1.7954 1.1197-6.0618 1.7375-10.2703 1.834h-.0193-.0193c-4.2085-.0965-9.054-.7143-10.84941-1.834-9.517371-5.888-4.94208-20.5405-5.48262-26.6602-.34749-3.61-.63707-7.278-.19305-9.749.23166-1.3707-4.285716-1.67958-2.799229-4.76838 1.274129-2.64479 4.420849-.30888 5.212359-1.139 4.03475-4.18919 8.93825-5.308876 12.79925-5.405401h2.1235c3.8417.19305 8.7452 1.235521 12.7993 5.405401.7915.83012 3.9189-1.50579 5.2123 1.139zm-20.9073 16.04248c-.1738.0772-.4633 1.9691.4247 2.0656.5984.0579 2.2394.251 2.6255 0 .7529-.4826.6756-1.6409.2509-1.9305-.7143-.4633-3.1081-.2316-3.3011-.1351zm-4.9035-14.16989c-1.9884-.23166-5.32819 1.62159-5.83012 5.55989-.54054 4.0926 4.28572 8.1467 8.91892 4.0926 2.4903-2.1815 3.3591-8.8996-3.0888-9.65249zm13.4363 0c-6.4479.75289-5.5792 7.47099-3.0888 9.65249 4.6332 4.0541 9.4595 0 8.9189-4.0926-.4826-3.9383-3.8224-5.79155-5.8301-5.55989z" fill="#8cc5e7"/><path d="m19.6512 18.7296c1.2162-.1738 4.1312 1.2162 3.9382 2.8571-.2317 1.9112-7.5097 2.1622-7.8958-.1158-.2316-1.39.8688-2.278 3.9576-2.7413zm16.4285 15.3861c-.5984-.0193-.9845-.8109-.9845-1.2935 0-.8687.1158-1.8919.7529-2.3359 1.3127-.9073 2.3552 3.6487.2316 3.6294zm-32.87642 0c-2.12355.0193-1.08108-4.5367.23166-3.6294.63706.444.7529 1.4672.7529 2.3359 0 .4826-.3861 1.2742-.98456 1.2935zm28.84172 13.9961c.3861.5598.4054.9459-.2124 1.2355-2.3552 1.0811-4.4594-.3668-3.6679-.7722 1.6795-.8494 2.722-2.1814 3.8803-.4633zm-24.80697.193c1.1583-1.7181 2.20077-.3861 3.88027.4634.7915.4054-1.3127 1.8532-3.66792.7722-.61776-.2896-.59845-.6757-.21235-1.2356z" fill="#b8937f"/><path d="m35.1152 7.14251c.0965-.4054 1.1004-.59845 1.6602.09653.6757.83011-.9845 1.96911-1.0618 1.50579-.193-1.25483-.7143-1.19691-.5984-1.60232zm-30.94597 0c.11583.40541-.40541.34749-.59846 1.60232-.07722.46332-1.73745-.67568-1.06178-1.50579.54054-.69498 1.54441-.50193 1.66024-.09653zm22.62547 9.40159c-1.2154 0-2.2008-.9854-2.2008-2.2008 0-1.2155.9854-2.2008 2.2008-2.2008 1.2155 0 2.2008.9853 2.2008 2.2008 0 1.2154-.9853 2.2008-2.2008 2.2008zm-.5791-2.4518c.3838 0 .6949-.3111.6949-.695 0-.3838-.3111-.6949-.6949-.6949-.3839 0-.695.3111-.695.6949 0 .3839.3111.695.695.695zm-8.5522 5.5599c.2317-.8881 1.0425-1.1776 1.6989-1.1969 1.6795-.0387 2.3166.8687 2.3745 1.583.1158 1.2162-4.5946 1.5058-4.0734-.3861zm-5.1737-3.1081c-1.2155 0-2.2008-.9854-2.2008-2.2008 0-1.2155.9853-2.2008 2.2008-2.2008 1.2154 0 2.2008.9853 2.2008 2.2008 0 1.2154-.9854 2.2008-2.2008 2.2008zm.5791-2.4518c.3839 0 .695-.3111.695-.695 0-.3838-.3111-.6949-.695-.6949-.3838 0-.6949.3111-.6949.6949 0 .3839.3111.695.6949.695z" fill="#000"/></svg>