<svg fill="#ffd000" height="100pt" viewBox="0 0 100 100" width="100pt" xmlns="http://www.w3.org/2000/svg"><path d="m87.5 75v-12.5c0-1.7266-1.3984-3.125-3.125-3.125s-3.125 1.3984-3.125 3.125v12.5c0 .82812-.32812 1.625-.91406 2.2109-.58594.58594-1.3828.91406-2.2109.91406h-56.25c-1.7266 0-3.125-1.3984-3.125-3.125v-12.5c0-1.7266-1.3984-3.125-3.125-3.125s-3.125 1.3984-3.125 3.125v12.5c0 5.1758 4.1992 9.375 9.375 9.375h56.25c5.1758 0 9.375-4.1992 9.375-9.375zm-19.938-16.312-15.625 12.5c-1.1367.89844-2.7383.89844-3.875 0l-15.625-12.5c-1.1797-1.1133-1.3125-2.9453-.30078-4.2188 1.0078-1.2695 2.8242-1.5547 4.1758-.65625l10.562 8.4375v-43.5c0-1.7266 1.3984-3.125 3.125-3.125s3.125 1.3984 3.125 3.125v43.5l10.562-8.4375c.63672-.60156 1.4961-.90625 2.3672-.84375.875.0625 1.6797.48828 2.2227 1.1719.54688.68359.77734 1.5664.64062 2.4297-.13281.86719-.625 1.6328-1.3555 2.1172z"/></svg>