<?xml version="1.0" encoding="UTF-8"?>
<svg fill="#FFD000" width="100pt" height="100pt" version="1.1" viewBox="0 0 100 100" xmlns="http://www.w3.org/2000/svg">
 <path d="m76.219 16.668h-19.969c-1.1523 0-2.082-0.93359-2.082-2.0859 0-1.1484 0.92969-2.082 2.082-2.082h25c1.1523 0 2.082 0.93359 2.082 2.082v25c0 1.1523-0.92969 2.0859-2.082 2.0859s-2.082-0.93359-2.082-2.0859v-19.969l-38.113 38.109c-0.8125 0.8125-2.1328 0.8125-2.9453 0s-0.8125-2.1328 0-2.9453zm-9.5508 58.332v-31.25c0-1.1523 0.92969-2.082 2.082-2.082s2.082 0.92969 2.082 2.082v33.332c0 1.1523-0.92969 2.0859-2.082 2.0859h-50c-1.1523 0-2.082-0.93359-2.082-2.0859v-50c0-1.1484 0.92969-2.082 2.082-2.082h33.332c1.1523 0 2.0859 0.93359 2.0859 2.082 0 1.1523-0.93359 2.0859-2.0859 2.0859h-31.25v45.832z"/>
</svg>
