<svg fill="none" height="32" viewBox="0 0 64 32" width="64" xmlns="http://www.w3.org/2000/svg"><g fill="#8993be"><path d="m12.9109 10.9782c.7008-.0881 1.4121-.0365 2.0928.1519.6807.1885 1.3173.5099 1.8731.9458.3586.5524.5872 1.1789.6687 1.8323.0815.6535.0137 1.317-.1983 1.9405-.1859 1.5349-.9282 2.9483-2.0863 3.9727-1.3966.8996-3.0476 1.3215-4.7046 1.2023h-3.1818l1.95455-10.025zm-12.727306 20.1955h5.227276l1.23863-6.3637h4.4705c1.6469.042 3.2905-.1704 4.8727-.6295 1.2994-.429 2.4872-1.1417 3.4773-2.0864 1.7122-1.5397 2.8663-3.6032 3.2818-5.8682.3279-1.1273.3857-2.316.1685-3.4698s-.7031-2.2402-1.4185-3.17108c-.8625-.85472-1.9012-1.51088-3.0435-1.92266s-2.3607-.56926-3.5702-.46143h-10.02951z"/><path d="m26.5835.824219h5.1887l-1.2569 6.363641h4.6159c2.1207-.22205 4.2513.31684 6.0114 1.52045.5824.66203.9805 1.46549 1.1544 2.32989s.1175 1.7594-.1635 2.5951l-2.1682 11.1568h-5.25l2.0637-10.6068c.1436-.4047.1948-.8364.15-1.2634-.0449-.4271-.1846-.8387-.4091-1.2048-.7523-.5398-1.6822-.7722-2.6-.65h-4.1432l-2.6705 13.7364h-5.2z"/><path d="m53.6765 10.9796c.7008-.0881 1.4121-.0365 2.0928.1519s1.3174.5099 1.8731.9458c.3586.5523.5872 1.1788.6687 1.8323s.0137 1.3169-.1982 1.9404c-.186 1.5349-.9283 2.9484-2.0864 3.9728-1.3992.9015-3.0536 1.3235-4.7136 1.2022h-3.1796l1.95-10.0363zm-12.7273 20.1954h5.2273l1.2386-6.3636h4.4728c1.6499.0429 3.2966-.1695 4.8818-.6296 1.2994-.429 2.4872-1.1416 3.4773-2.0863 1.708-1.5414 2.858-3.6047 3.2704-5.8682.328-1.1273.3857-2.316.1685-3.4698-.2171-1.1538-.7031-2.2402-1.4185-3.17111-.8628-.85319-1.9014-1.5079-3.0432-1.91849-1.1419-.41058-2.3596-.56715-3.5682-.45878h-10.0454z"/></g></svg>