<svg fill="none" height="50" viewBox="0 0 50 50" width="50" xmlns="http://www.w3.org/2000/svg" xmlns:xlink="http://www.w3.org/1999/xlink"><linearGradient id="a" gradientUnits="userSpaceOnUse" x1="4.82087" x2="29.6352" y1="4.4924" y2="28.9632"><stop offset="0" stop-color="#387eb8"/><stop offset="1" stop-color="#366994"/></linearGradient><linearGradient id="b" gradientUnits="userSpaceOnUse" x1="19.993" x2="46.6362" y1="20.2683" y2="45.3565"><stop offset="0" stop-color="#ffe052"/><stop offset="1" stop-color="#ffc331"/></linearGradient><path d="m24.7874.0117188c-12.6626.0000009-11.8719 5.5127812-11.8719 5.5127812l.0142 5.7112h12.0835v1.7148h-16.88309s-8.1027662-.9226-8.1027662 11.9042c-.000001 12.8267 7.0722762 12.3718 7.0722762 12.3718h4.22078v-5.9521s-.2275-7.1 6.9593-7.1h11.9848s6.7335.1093 6.7335-6.5331v-10.98307s1.0223-6.6465112-12.2106-6.6465112zm-6.6629 3.8405212c1.2022 0 2.1739.9755 2.1739 2.18244s-.9717 2.18244-2.1739 2.18244c-1.2023 0-2.1739-.9755-2.1739-2.18244-.0001-1.20694.9716-2.18244 2.1739-2.18244z" fill="url(#a)"/><path d="m25.1469 49.8262c12.6626 0 11.8718-5.5128 11.8718-5.5128l-.0141-5.7112h-12.0836v-1.7147h16.8832s8.1027.9225 8.1027-11.9043c0-12.8267-7.0723-12.3718-7.0723-12.3718h-4.2207v5.9521s.2275 7.1-6.9594 7.1h-11.9847s-6.7335-.1093-6.7335 6.5331v10.9831s-1.0223 6.6465 12.2106 6.6465zm6.6629-3.8405c-1.2022 0-2.1739-.9755-2.1739-2.1825 0-1.2069.9717-2.1824 2.1739-2.1824s2.1739.9755 2.1739 2.1824c0 1.207-.9717 2.1825-2.1739 2.1825z" fill="url(#b)"/></svg>