<svg fill="none" height="44" viewBox="0 0 44 44" width="44" xmlns="http://www.w3.org/2000/svg" xmlns:xlink="http://www.w3.org/1999/xlink"><linearGradient id="a" gradientUnits="userSpaceOnUse" x1="38.4456" x2="29.2609" y1="47.765" y2="31.2832"><stop offset="0" stop-color="#fb7655"/><stop offset=".41" stop-color="#e42b1e"/><stop offset=".99" stop-color="#900"/><stop offset="1" stop-color="#900"/></linearGradient><linearGradient id="b"><stop offset="0" stop-color="#871101"/><stop offset=".99" stop-color="#911209"/><stop offset="1" stop-color="#911209"/></linearGradient><linearGradient id="c" gradientUnits="userSpaceOnUse" x1="43.1486" x2="30.1956" xlink:href="#b" y1="34.08" y2="31.5286"/><linearGradient id="d" gradientUnits="userSpaceOnUse" x1="-1364270" x2="-1364270" xlink:href="#b" y1="14335.2" y2="14315.2"/><linearGradient id="e" gradientUnits="userSpaceOnUse" x1="8.70183" x2="12.5373" y1="28.3253" y2="39.6323"><stop offset="0" stop-color="#fff"/><stop offset=".23" stop-color="#e57252"/><stop offset=".46" stop-color="#de3b20"/><stop offset=".99" stop-color="#a60003"/><stop offset="1" stop-color="#a60003"/></linearGradient><linearGradient id="f" gradientUnits="userSpaceOnUse" x1="21.4594" x2="22.1365" y1="17.0274" y2="29.2111"><stop offset="0" stop-color="#fff"/><stop offset=".23" stop-color="#e4714e"/><stop offset=".56" stop-color="#be1a0d"/><stop offset=".99" stop-color="#a80d00"/><stop offset="1" stop-color="#a80d00"/></linearGradient><linearGradient id="g" gradientUnits="userSpaceOnUse" x1="32.742" x2="33.7033" y1="5.61753" y2="14.4389"><stop offset="0" stop-color="#fff"/><stop offset=".18" stop-color="#e46342"/><stop offset=".4" stop-color="#c82410"/><stop offset=".99" stop-color="#a80d00"/><stop offset="1" stop-color="#a80d00"/></linearGradient><linearGradient id="h" gradientUnits="userSpaceOnUse" x1="26.2445" x2="27.6742" y1="2.89496" y2="-3.21813"><stop offset="0" stop-color="#fff"/><stop offset=".54" stop-color="#c81f11"/><stop offset=".99" stop-color="#bf0905"/><stop offset="1" stop-color="#bf0905"/></linearGradient><linearGradient id="i" gradientUnits="userSpaceOnUse" x1="1.09794" x2="4.9009" y1="25.3497" y2="27.7857"><stop offset="0" stop-color="#fff"/><stop offset=".31" stop-color="#de4024"/><stop offset=".99" stop-color="#bf190b"/><stop offset="1" stop-color="#bf190b"/></linearGradient><linearGradient id="j" gradientUnits="userSpaceOnUse" x1="-3.76196" x2="30.0447" y1="34.3406" y2="-.749803"><stop offset="0" stop-color="#bd0012"/><stop offset=".07" stop-color="#fff"/><stop offset=".17" stop-color="#fff"/><stop offset=".27" stop-color="#c82f1c"/><stop offset=".33" stop-color="#820c01"/><stop offset=".46" stop-color="#a31601"/><stop offset=".72" stop-color="#b31301"/><stop offset=".99" stop-color="#e82609"/><stop offset="1" stop-color="#e82609"/></linearGradient><linearGradient id="k" gradientUnits="userSpaceOnUse" x1="21.9346" x2="12.2651" y1="38.1961" y2="34.0722"><stop offset="0" stop-color="#8c0c01"/><stop offset=".54" stop-color="#990c00"/><stop offset=".99" stop-color="#a80d0e"/><stop offset="1" stop-color="#a80d0e"/></linearGradient><linearGradient id="l" gradientUnits="userSpaceOnUse" x1="39.6262" x2="29.7294" y1="25.5253" y2="18.5622"><stop offset="0" stop-color="#7e110b"/><stop offset=".99" stop-color="#9e0c00"/><stop offset="1" stop-color="#9e0c00"/></linearGradient><linearGradient id="m" gradientUnits="userSpaceOnUse" x1="42.8758" x2="38.1455" y1="10.6318" y2="5.89779"><stop offset="0" stop-color="#79130d"/><stop offset=".99" stop-color="#9e120b"/><stop offset="1" stop-color="#9e120b"/></linearGradient><radialGradient id="n" cx="0" cy="0" gradientTransform="matrix(11.0572 0 0 5.77777 31.9911 17.5792)" gradientUnits="userSpaceOnUse" r="1"><stop offset="0" stop-color="#a80d00"/><stop offset=".99" stop-color="#7e0e08"/><stop offset="1" stop-color="#7e0e08"/></radialGradient><radialGradient id="o" cx="0" cy="0" gradientTransform="matrix(14.7673 0 0 11.4957 16.6713 32.2922)" gradientUnits="userSpaceOnUse" r="1"><stop offset="0" stop-color="#a30c00"/><stop offset=".99" stop-color="#800e08"/><stop offset="1" stop-color="#800e08"/></radialGradient><linearGradient id="p" gradientUnits="userSpaceOnUse" x1="5.87185" x2="-2.38353" y1="43.7126" y2="36.8129"><stop offset="0" stop-color="#8b2114"/><stop offset=".43" stop-color="#9e100a"/><stop offset=".99" stop-color="#b3100c"/><stop offset="1" stop-color="#b3100c"/></linearGradient><linearGradient id="q" gradientUnits="userSpaceOnUse" x1="34.4447" x2="36.7791" y1="2.40435" y2="8.32629"><stop offset="0" stop-color="#b31000"/><stop offset=".44" stop-color="#910f08"/><stop offset=".99" stop-color="#791c12"/><stop offset="1" stop-color="#791c12"/></linearGradient><path d="m34.0172 28.9828-24.97814 14.8313 32.34374-2.1875 2.4891-32.61879z" fill="url(#a)"/><path d="m41.4375 41.5961-2.7797-19.1859-7.5719 10z" fill="url(#c)"/><path d="m41.4773 41.5984-20.3656-1.5984-11.95936 3.7734z" fill="url(#d)"/><path d="m9.18203 43.7766 5.08747-16.6672-11.19528 2.3906z" fill="url(#e)"/><path d="m31.082 32.4688-4.6875-18.336-13.3906 12.5547z" fill="url(#f)"/><path d="m42.8156 14.3852-12.6562-10.34223-3.5266 11.40623z" fill="url(#g)"/><path d="m36.893.357031-7.4485 4.115629-4.6984-4.171879z" fill="url(#h)"/><path d="m.125 35.0937 3.125-5.6906-2.528125-6.7781z" fill="url(#i)"/><path d="m.550781 22.4086 2.540629 7.2031 11.03439-2.475 12.5969-11.7015 3.5562-11.29848-5.5984-3.953126-9.5172 3.562496c-3 2.78282-8.81877 8.30621-9.02814 8.40781-.20938.1016-3.84219 6.975-5.584379 10.2531z" fill="#fff"/><path d="m9.46754 9.46909c6.49846-6.44218 14.87346-10.249997 18.09066-7.00156 3.2172 3.24844-.1938 11.12657-6.6922 17.56877-6.4985 6.4422-14.77346 10.4531-17.98596 7.2094-3.212496-3.2438.08907-11.3407 6.5875-17.77661z" fill="url(#j)"/><path d="m9.17578 43.7734 5.04842-16.7187 16.7641 5.3859c-6.061 5.6844-12.8031 10.4891-21.81252 11.3344z" fill="url(#k)"/><path d="m26.7437 15.3984 4.3032 17.0469c5.0625-5.3234 9.6078-11.0469 11.8328-18.125l-16.1375 1.0797z" fill="url(#l)"/><path d="m42.8375 14.4023c1.7187-5.19839 2.1203-12.65621-6.0016-14.039019l-6.664 3.679689 12.6656 10.35783z" fill="url(#m)"/><path d="m.125 35.0195c.239062 8.5782 6.42813 8.7063 9.0625 8.7813l-6.09375-14.2188z" fill="#9e1209"/><path d="m26.7734 15.425c3.8907 2.3922 11.7329 7.1875 11.8907 7.2828 1.8292-2.5296 3.2132-5.353 4.0922-8.3484l-15.9829 1.0672z" fill="url(#n)"/><path d="m14.2188 27.0469 6.7484 13.0187c3.6758-2.0473 7.0361-4.6156 9.9766-7.625l-16.7188-5.3937z" fill="url(#o)"/><path d="m3.07344 29.5966-.95625 11.3859c1.80469 2.4641 4.28594 2.6782 6.88906 2.486-1.88281-4.6875-5.64687-14.0625-5.9375-13.8719z" fill="url(#p)"/><path d="m30.1367 4.07656 13.4063 1.875c-.7157-3.03125-2.9125-4.987497-6.6578-5.599998l-6.7485 3.718748z" fill="url(#q)"/></svg>