<svg fill="none" height="47" viewBox="0 0 47 47" width="47" xmlns="http://www.w3.org/2000/svg"><path d="m9.88668 29.6191c0 2.723-2.20079 4.9238-4.92381 4.9238-2.72301 0-4.9238075-2.2008-4.9238075-4.9238s2.2007975-4.9238 4.9238075-4.9238h4.92381zm2.46192 0c0-2.723 2.2008-4.9238 4.9238-4.9238s4.9238 2.2008 4.9238 4.9238v12.3095c0 2.7231-2.2008 4.9239-4.9238 4.9239s-4.9238-2.2008-4.9238-4.9239z" fill="#e01e5a"/><path d="m17.2706 9.84762c-2.723 0-4.9238-2.20079-4.9238-4.92381s2.2008-4.92381 4.9238-4.92381c2.7231 0 4.9238 2.20079 4.9238 4.92381v4.92381zm0 2.49918c2.7231 0 4.9238 2.2008 4.9238 4.9238 0 2.7231-2.2007 4.9238-4.9238 4.9238h-12.34679c-2.72302 0-4.92381-2.2007-4.92381-4.9238 0-2.723 2.20079-4.9238 4.92381-4.9238z" fill="#36c5f0"/><path d="m37.0048 17.2706c0-2.723 2.2008-4.9238 4.9238-4.9238 2.7231 0 4.9239 2.2008 4.9239 4.9238 0 2.7231-2.2008 4.9238-4.9239 4.9238h-4.9238zm-2.4619 0c0 2.7231-2.2008 4.9238-4.9238 4.9238s-4.9238-2.2007-4.9238-4.9238v-12.34679c0-2.72302 2.2008-4.92381 4.9238-4.92381s4.9238 2.20079 4.9238 4.92381z" fill="#2eb67d"/><path d="m29.6191 37.0048c2.723 0 4.9238 2.2008 4.9238 4.9238 0 2.7231-2.2008 4.9239-4.9238 4.9239s-4.9238-2.2008-4.9238-4.9239v-4.9238zm0-2.4619c-2.723 0-4.9238-2.2008-4.9238-4.9238s2.2008-4.9238 4.9238-4.9238h12.3468c2.7231 0 4.9239 2.2008 4.9239 4.9238s-2.2008 4.9238-4.9239 4.9238z" fill="#ecb22e"/></svg>