<svg width="86" height="68" viewBox="0 0 86 68" fill="none" xmlns="http://www.w3.org/2000/svg">
<path d="M69.8276 52.7918C52.5656 48.259 45.7502 40.5482 43.0712 34.8788C40.1369 28.6676 41.3486 23.5958 41.4025 23.3828L42.5674 23.6711C42.5556 23.7203 41.4072 28.6024 44.1916 34.4381C47.897 42.2027 56.8666 48.1493 70.132 51.6317L69.8276 52.7918Z" fill="#FFD000"/>
<path d="M61.5555 53.6366L61.5391 52.4366L69.6391 52.3405L64.8297 46.1461L65.7789 45.4102L72.0669 53.5102L61.5555 53.6366Z" fill="#FFD000"/>
<path d="M0.140625 1.99231C0.140625 1.41631 2.20463 1.12831 6.33263 1.12831C7.28063 1.12831 8.49863 1.17031 9.98663 1.25431C11.4746 1.32631 12.2426 1.43431 12.2906 1.57831C12.2666 2.11831 11.7686 2.38831 10.7966 2.38831C10.5206 2.38831 10.0586 2.35831 9.41063 2.29831C8.76263 2.23831 8.20463 2.20831 7.73663 2.20831C7.28063 2.20831 7.05263 2.31031 7.05263 2.51431C7.05263 5.09431 6.99263 8.94031 6.87263 14.0523C6.62063 14.2323 6.24863 14.3223 5.75663 14.3223C5.74463 13.7943 5.73863 13.1643 5.73863 12.4323L5.82863 4.65631C5.82863 3.72031 5.81663 2.93431 5.79263 2.29831C5.54063 2.27431 5.21063 2.26231 4.80263 2.26231C4.40663 2.26231 3.78263 2.29831 2.93063 2.37031C2.07863 2.43031 1.47863 2.46031 1.13063 2.46031C0.470625 2.46031 0.140625 2.30431 0.140625 1.99231Z" fill="#FFD000"/>
<path d="M12.6225 12.2343L12.6765 13.2603C12.6765 13.5243 12.5985 13.7103 12.4425 13.8183C12.2985 13.9143 12.1485 13.9623 11.9925 13.9623C11.8485 13.9623 11.6985 13.9383 11.5425 13.8903C11.2785 12.4983 11.0745 10.7643 10.9305 8.68831C10.7985 6.61231 10.7205 5.43631 10.6965 5.16031C10.8765 4.99231 11.0625 4.90831 11.2545 4.90831C11.4585 4.90831 11.6385 4.93231 11.7945 4.98031C11.8425 5.32831 11.8785 6.09631 11.9025 7.28431C11.9265 8.47231 11.9565 9.21631 11.9925 9.51631C12.1605 8.50831 12.4605 7.56631 12.8925 6.69031C13.1325 6.19831 13.4445 5.80831 13.8285 5.52031C14.2245 5.22031 14.6445 5.07031 15.0885 5.07031C15.5445 5.07031 15.9585 5.27431 16.3305 5.68231C16.7145 6.07831 16.9065 6.43831 16.9065 6.76231C16.9065 6.88231 16.8345 6.97831 16.6905 7.05031C16.5465 7.11031 16.3845 7.14031 16.2045 7.14031C16.0365 7.14031 15.9045 7.07431 15.8085 6.94231C15.7125 6.81031 15.6465 6.66631 15.6105 6.51031C15.5745 6.34231 15.4965 6.19231 15.3765 6.06031C15.2565 5.92831 15.0945 5.86231 14.8905 5.86231C14.3505 5.86231 13.8885 6.34831 13.5045 7.32031C12.9165 8.77231 12.6225 10.4103 12.6225 12.2343Z" fill="#FFD000"/>
<path d="M22.3324 6.43831C22.3324 5.57431 22.6084 5.14231 23.1604 5.14231C23.2684 5.14231 23.3764 5.15431 23.4844 5.17831C23.4844 5.32231 23.4844 5.71231 23.4844 6.34831C23.4844 6.98431 23.5684 8.25631 23.7364 10.1643C23.9044 12.0723 23.9884 13.5003 23.9884 14.4483C23.9884 15.9603 23.7244 17.0043 23.1964 17.5803C22.6684 18.1563 21.7684 18.4443 20.4964 18.4443C19.2364 18.4443 18.0484 18.0363 16.9324 17.2203C17.1484 16.9563 17.4304 16.8243 17.7784 16.8243C17.9104 16.8363 18.1204 16.9263 18.4084 17.0943C19.2604 17.5983 19.9684 17.8503 20.5324 17.8503C21.3724 17.8503 21.9664 17.5863 22.3144 17.0583C22.6624 16.5303 22.8364 15.6423 22.8364 14.3943C22.8364 14.0943 22.8064 13.0143 22.7464 11.1543C22.7344 11.1903 22.6924 11.3463 22.6204 11.6223C22.5484 11.8863 22.4944 12.0603 22.4584 12.1443C22.4224 12.2283 22.3564 12.3843 22.2604 12.6123C22.1764 12.8403 22.0864 13.0023 21.9904 13.0983C21.8944 13.1943 21.7684 13.3083 21.6124 13.4403C21.3484 13.6803 21.0124 13.8003 20.6044 13.8003C20.2084 13.8003 19.8904 13.7463 19.6504 13.6383C19.4104 13.5303 19.2064 13.3623 19.0384 13.1343C18.8824 12.9063 18.7384 12.6663 18.6064 12.4143C18.4864 12.1623 18.3904 11.8443 18.3184 11.4603C18.2464 11.0643 18.1864 10.7043 18.1384 10.3803C18.1024 10.0563 18.0724 9.66031 18.0484 9.19231C18.0364 8.72431 18.0244 8.33431 18.0124 8.02231C18.0124 7.71031 18.0124 7.31431 18.0124 6.83431V5.75431C18.1324 5.55031 18.3484 5.44831 18.6604 5.44831C19.0924 5.44831 19.3084 5.60431 19.3084 5.91631L19.2004 7.66231C19.2004 9.18631 19.3624 10.5003 19.6864 11.6043C20.0104 12.7083 20.3464 13.2603 20.6944 13.2603C20.9584 13.2603 21.1924 13.1163 21.3964 12.8283C21.6004 12.5403 21.7564 12.1383 21.8644 11.6223C21.9724 11.0943 22.0624 10.5963 22.1344 10.1283C22.2064 9.66031 22.2544 9.11431 22.2784 8.49031C22.3144 7.54231 22.3324 6.85831 22.3324 6.43831Z" fill="#FFD000"/>
<path d="M31.3318 0.750312C31.3198 1.02631 31.3138 1.33231 31.3138 1.66831C31.3138 2.00431 31.3318 2.35231 31.3678 2.71231C31.1998 2.90431 30.9718 3.00031 30.6838 3.00031C30.3238 3.00031 30.1438 2.71231 30.1438 2.13631C30.1438 2.11231 30.1438 2.02231 30.1438 1.86631C30.1438 1.71031 30.1438 1.57231 30.1438 1.45231C30.1558 1.32031 30.1798 1.17031 30.2158 1.00231C30.2998 0.714312 30.4858 0.570312 30.7738 0.570312C31.0618 0.570312 31.2478 0.630312 31.3318 0.750312ZM30.1798 9.57031C30.1798 7.21831 30.2998 5.86231 30.5398 5.50231C30.6238 5.37031 30.7258 5.30431 30.8458 5.30431C30.9658 5.30431 31.1638 5.37031 31.4398 5.50231C31.3798 6.52231 31.3498 7.63231 31.3498 8.83231C31.3498 8.83231 31.3618 10.1583 31.3858 12.8103C31.3858 13.1823 31.3018 13.4463 31.1338 13.6023C30.9778 13.7463 30.8278 13.8183 30.6838 13.8183C30.5518 13.8183 30.4138 13.7823 30.2698 13.7103C30.2098 12.1503 30.1798 10.7703 30.1798 9.57031Z" fill="#FFD000"/>
<path d="M33.6753 6.45631C33.1353 6.45631 32.7693 6.32431 32.5773 6.06031C32.5773 5.86831 32.6553 5.71831 32.8113 5.61031C32.9793 5.50231 33.1593 5.43631 33.3513 5.41231C33.5433 5.37631 33.8553 5.34631 34.2873 5.32231C34.3233 4.99831 34.3413 4.58431 34.3413 4.08031C34.3533 3.56431 34.3653 3.12631 34.3773 2.76631C34.4133 1.81831 34.5573 1.23631 34.8093 1.02031C34.9173 0.924313 35.0313 0.876313 35.1513 0.876313C35.2833 0.876313 35.3973 0.888313 35.4933 0.912312C35.5293 1.77631 35.5473 2.29831 35.5473 2.47831L35.4393 5.17831C35.4633 5.19031 35.5293 5.19631 35.6373 5.19631L36.9333 5.14231C37.8693 5.14231 38.3373 5.28631 38.3373 5.57431C38.3373 5.98231 38.1693 6.22231 37.8333 6.29431C37.6773 6.33031 37.4913 6.34831 37.2753 6.34831C37.0713 6.34831 36.8013 6.32431 36.4653 6.27631C36.1413 6.21631 35.9073 6.18631 35.7633 6.18631C35.6193 6.18631 35.5233 6.19231 35.4753 6.20431C35.4393 6.55231 35.4213 6.90031 35.4213 7.24831C35.4213 7.58431 35.4273 8.01031 35.4393 8.52631C35.4633 9.03031 35.5113 9.63631 35.5833 10.3443C35.6673 11.0523 35.8413 11.6643 36.1053 12.1803C36.3693 12.6843 36.7053 12.9363 37.1133 12.9363C37.3173 12.9363 37.5573 12.8583 37.8333 12.7023C38.1093 12.5343 38.3193 12.4503 38.4633 12.4503C38.6193 12.4503 38.7513 12.4863 38.8593 12.5583C38.9793 12.6183 39.0393 12.6903 39.0393 12.7743C39.0393 13.0263 38.7813 13.2723 38.2653 13.5123C37.7613 13.7403 37.3293 13.8543 36.9693 13.8543C35.6493 13.8543 34.8273 12.6063 34.5033 10.1103C34.4073 9.39031 34.3353 8.15431 34.2873 6.40231C34.0953 6.43831 33.8913 6.45631 33.6753 6.45631Z" fill="#FFD000"/>
<path d="M44.781 6.52831C45.393 5.59231 46.275 5.12431 47.427 5.12431C48.579 5.12431 49.497 5.59231 50.181 6.52831C50.877 7.46431 51.225 8.53231 51.225 9.73231C51.225 10.9203 50.847 11.9283 50.091 12.7563C49.335 13.5843 48.375 13.9983 47.211 13.9983C46.047 13.9983 45.201 13.6743 44.673 13.0263C44.145 12.3663 43.881 11.4423 43.881 10.2543C43.881 8.70631 44.181 7.46431 44.781 6.52831ZM45.573 7.48231C45.417 7.95031 45.297 8.41831 45.213 8.88631C45.141 9.35431 45.105 9.79231 45.105 10.2003C45.105 10.5963 45.135 10.9623 45.195 11.2983C45.255 11.6223 45.357 11.9463 45.501 12.2703C45.645 12.5823 45.861 12.8343 46.149 13.0263C46.437 13.2063 46.779 13.2963 47.175 13.2963C47.979 13.2963 48.651 12.9663 49.191 12.3063C49.743 11.6463 50.019 10.8483 50.019 9.91231C50.019 8.97631 49.767 8.07031 49.263 7.19431C48.771 6.30631 48.165 5.86231 47.445 5.86231C47.013 5.86231 46.635 6.01231 46.311 6.31231C45.987 6.61231 45.741 7.00231 45.573 7.48231Z" fill="#FFD000"/>
<path d="M54.4693 5.55631C54.1573 6.14431 54.0013 7.02031 54.0013 8.18431C54.0013 9.93631 54.3313 11.3343 54.9913 12.3783C55.3753 12.9903 55.8313 13.2963 56.3593 13.2963C56.8993 13.2963 57.3313 13.0143 57.6553 12.4503C58.0393 11.7543 58.2313 10.7943 58.2313 9.57031C58.2313 8.03431 58.0153 6.90031 57.5833 6.16831C57.3913 5.82031 57.2773 5.56831 57.2413 5.41231C57.2173 5.25631 57.2593 5.14231 57.3673 5.07031C57.4753 4.99831 57.6553 4.96231 57.9073 4.96231C58.6393 4.96231 59.1193 5.71831 59.3473 7.23031C59.4193 7.65031 59.4553 8.07031 59.4553 8.49031C59.4553 9.58231 59.2393 10.6743 58.8073 11.7663C58.1953 13.2663 57.2293 14.0163 55.9093 14.0163C55.2133 14.0163 54.6193 13.7583 54.1273 13.2423C53.2033 12.2583 52.7413 10.7763 52.7413 8.79631C52.7413 7.93231 52.8013 7.27231 52.9213 6.81631C53.0413 6.36031 53.1433 6.06631 53.2273 5.93431C53.3113 5.79031 53.4133 5.65831 53.5333 5.53831C53.6533 5.41831 53.7853 5.37031 53.9293 5.39431C54.0853 5.41831 54.2653 5.47231 54.4693 5.55631Z" fill="#FFD000"/>
<path d="M61.2554 6.45631C60.7154 6.45631 60.3494 6.32431 60.1574 6.06031C60.1574 5.86831 60.2354 5.71831 60.3914 5.61031C60.5594 5.50231 60.7394 5.43631 60.9314 5.41231C61.1234 5.37631 61.4354 5.34631 61.8674 5.32231C61.9034 4.99831 61.9214 4.58431 61.9214 4.08031C61.9334 3.56431 61.9454 3.12631 61.9574 2.76631C61.9934 1.81831 62.1374 1.23631 62.3894 1.02031C62.4974 0.924313 62.6114 0.876313 62.7314 0.876313C62.8634 0.876313 62.9774 0.888313 63.0734 0.912312C63.1094 1.77631 63.1274 2.29831 63.1274 2.47831L63.0194 5.17831C63.0434 5.19031 63.1094 5.19631 63.2174 5.19631L64.5134 5.14231C65.4494 5.14231 65.9174 5.28631 65.9174 5.57431C65.9174 5.98231 65.7494 6.22231 65.4134 6.29431C65.2574 6.33031 65.0714 6.34831 64.8554 6.34831C64.6514 6.34831 64.3814 6.32431 64.0454 6.27631C63.7214 6.21631 63.4874 6.18631 63.3434 6.18631C63.1994 6.18631 63.1034 6.19231 63.0554 6.20431C63.0194 6.55231 63.0014 6.90031 63.0014 7.24831C63.0014 7.58431 63.0074 8.01031 63.0194 8.52631C63.0434 9.03031 63.0914 9.63631 63.1634 10.3443C63.2474 11.0523 63.4214 11.6643 63.6854 12.1803C63.9494 12.6843 64.2854 12.9363 64.6934 12.9363C64.8974 12.9363 65.1374 12.8583 65.4134 12.7023C65.6894 12.5343 65.8994 12.4503 66.0434 12.4503C66.1994 12.4503 66.3314 12.4863 66.4394 12.5583C66.5594 12.6183 66.6194 12.6903 66.6194 12.7743C66.6194 13.0263 66.3614 13.2723 65.8454 13.5123C65.3414 13.7403 64.9094 13.8543 64.5494 13.8543C63.2294 13.8543 62.4074 12.6063 62.0834 10.1103C61.9874 9.39031 61.9154 8.15431 61.8674 6.40231C61.6754 6.43831 61.4714 6.45631 61.2554 6.45631Z" fill="#FFD000"/>
</svg>
