<svg fill="none" height="25" viewBox="0 0 25 25" width="25" xmlns="http://www.w3.org/2000/svg" xmlns:xlink="http://www.w3.org/1999/xlink"><clipPath id="a"><path d="m0 0h25v25h-25z"/></clipPath><g clip-path="url(#a)"><path d="m16.9355 12.1065h7.6593c.2129 0 .4043.17.4043.3828v12.1065c0 .2129-.1914.4043-.4043.4043h-24.1905c-.234375 0-.4043-.1914-.4043-.4043v-16.12795c0-.21289.169922-.4043.4043-.4043h7.65925v-7.65925c0-.234375.19141-.4043.4043-.4043h8.06345c.2129 0 .4043.169923.4043.4043zm-8.87195 12.085v-15.3192h-7.255v15.3192zm8.06345 0v-23.3827h-7.25495v23.3827zm8.0635-11.2977h-7.255v11.2977h7.255z" fill="#262626"/></g></svg>