<svg fill="none" height="32" viewBox="0 0 32 32" width="32" xmlns="http://www.w3.org/2000/svg" xmlns:xlink="http://www.w3.org/1999/xlink"><clipPath id="a"><path d="m0 0h32v32h-32z"/></clipPath><g clip-path="url(#a)" fill="#262626"><path d="m5.33203 12.7977h1.06624s0-2.1338 1.06624-2.1338h3.19999v9.6s0 1.0662-1.06623 1.0662h-1.06624v1.0663h6.39997v-1.0663h-1.0662c-1.0662 0-1.0662-1.0662-1.0662-1.0662v-9.6h3.2c1.0662 0 1.0662 2.1338 1.0662 2.1338h1.0662v-3.20004h-12.79997z"/><path d="m1.06627 5.33311h1.06749v-1.06749h-2.13376v2.13376h1.06624z"/><path d="m2.13373 26.6639h-1.06749v-1.0662h-1.06624v2.1337h2.13376z"/><path d="m0 8.53125h1.06624v2.13375h-1.06624z"/><path d="m0 12.8008h1.06624v2.1337h-1.06624z"/><path d="m0 17.0664h1.06624v2.1338h-1.06624z"/><path d="m0 21.332h1.06624v2.1338h-1.06624z"/><path d="m23.4645 4.26562h-2.1325v1.06749h1.0663v1.06624h1.0662z"/><path d="m22.3984 12.8008h1.0663v2.1337h-1.0663z"/><path d="m22.3984 8.53125h1.0663v2.13375h-1.0663z"/><path d="m4.26562 26.6641h2.13376v1.0662h-2.13376z"/><path d="m8.53516 26.6641h2.13374v1.0662h-2.13374z"/><path d="m12.8008 26.6641h2.1337v1.0662h-2.1337z"/><path d="m4.26562 4.26562h2.13376v1.06624h-2.13376z"/><path d="m8.53516 4.26562h2.13374v1.06624h-2.13374z"/><path d="m12.8008 4.26562h2.1337v1.06624h-2.1337z"/><path d="m17.0664 4.26562h2.1338v1.06624h-2.1338z"/><path d="m24 16c-4.4189 0-8 3.5811-8 8s3.5811 8 8 8 8-3.5811 8-8-3.5811-8-8-8zm0 14.9338c-3.8288 0-6.9338-3.1038-6.9338-6.9338 0-3.8288 3.1038-6.9338 6.9338-6.9338 3.8288 0 6.9338 3.1038 6.9338 6.9338 0 3.8288-3.105 6.9338-6.9338 6.9338z"/><path d="m22.4928 25.8853-2.2625-2.2637-.7537.755 3.0162 3.0162 6.0336-6.0336-.7537-.7537z"/></g></svg>