<svg width="24" height="24" viewBox="0 0 24 24" fill="none" xmlns="http://www.w3.org/2000/svg">
<g clip-path="url(#clip0_1643_26230)">
<path d="M6.20121 15.9983C6.13707 15.9983 6.07438 15.9792 6.02106 15.9436C5.96774 15.908 5.92618 15.8573 5.90164 15.7981C5.8771 15.7388 5.87067 15.6736 5.88318 15.6107C5.89569 15.5478 5.92657 15.49 5.97191 15.4447L6.64975 14.7668C6.71092 14.7077 6.79284 14.6751 6.87788 14.6758C6.96292 14.6765 7.04426 14.7106 7.10439 14.7708C7.16453 14.8309 7.19863 14.9123 7.19937 14.9973C7.20011 15.0823 7.16742 15.1642 7.10834 15.2254L6.43051 15.9033C6.3697 15.9641 6.28722 15.9983 6.20121 15.9983Z" fill="black"/>
<path d="M1.08972 23.2613C1.00682 23.2614 0.927007 23.2298 0.866689 23.1729C0.806371 23.116 0.770126 23.0382 0.7654 22.9554L0.648968 20.9187C0.646356 20.873 0.653414 20.8274 0.669678 20.7847C0.685943 20.742 0.711047 20.7032 0.743346 20.6709L4.35308 17.0612C4.41424 17.0021 4.49617 16.9694 4.58121 16.9701C4.66624 16.9709 4.74759 17.005 4.80772 17.0651C4.86785 17.1252 4.90196 17.2066 4.9027 17.2916C4.90344 17.3767 4.87075 17.4586 4.81167 17.5197L1.3054 21.0267L1.39491 22.599L4.08064 22.4822L4.25383 20.9608C4.26174 20.8915 4.29179 20.8266 4.33952 20.7757C4.38726 20.7248 4.45013 20.6907 4.51881 20.6783L6.25459 20.3657L6.78681 18.0828C6.80082 18.0226 6.83174 17.9677 6.87593 17.9244C6.92011 17.8812 6.97572 17.8515 7.03621 17.8389L8.99448 17.4306L10.2947 16.1303C10.3436 16.0815 10.4068 16.0495 10.4751 16.039C10.5434 16.0286 10.6133 16.0402 10.6745 16.0723C11.5368 16.5221 12.5069 16.7242 13.4771 16.6562C14.4473 16.5882 15.3797 16.2526 16.1708 15.6868C16.9619 15.121 17.5808 14.3471 17.9587 13.451C18.3366 12.5548 18.4589 11.5714 18.3119 10.61C18.1649 9.64859 17.7543 8.74671 17.1258 8.00444C16.4974 7.26218 15.6755 6.70856 14.7515 6.40504C13.8275 6.10152 12.8374 6.05996 11.8912 6.28497C10.945 6.50998 10.0796 6.99277 9.39113 7.67975C8.96968 8.09962 8.62385 8.58907 8.36886 9.12656C8.32881 9.19859 8.26284 9.25267 8.18436 9.27781C8.10587 9.30296 8.02076 9.29728 7.9463 9.26194C7.87185 9.22659 7.81365 9.16423 7.78353 9.08751C7.7534 9.0108 7.7536 8.9255 7.7841 8.84894C8.07122 8.24429 8.46037 7.69364 8.93448 7.22115C9.70077 6.45489 10.6628 5.9138 11.7156 5.65692C12.7684 5.40003 13.8715 5.43723 14.9046 5.76443C15.9377 6.09164 16.8611 6.69629 17.574 7.51243C18.287 8.32856 18.7621 9.32482 18.9475 10.3925C19.1329 11.4602 19.0216 12.5583 18.6256 13.567C18.2295 14.5758 17.5641 15.4564 16.7018 16.1128C15.8396 16.7691 14.8136 17.1761 13.7358 17.2892C12.6581 17.4024 11.5699 17.2174 10.5902 16.7543L9.38691 17.9576C9.34255 18.0021 9.28621 18.0327 9.22475 18.0458L7.37416 18.4317L6.83837 20.7218C6.82391 20.7836 6.79161 20.8399 6.74549 20.8835C6.69937 20.9271 6.64145 20.9563 6.57891 20.9673L4.87167 21.2732L4.69459 22.8299C4.68585 22.9067 4.64997 22.9778 4.59342 23.0305C4.53688 23.0832 4.46337 23.114 4.38616 23.1173L1.10399 23.26L1.08972 23.2613Z" fill="black"/>
<path d="M7.68896 13.079C7.61261 13.0791 7.53868 13.0522 7.48019 13.0031C7.42169 12.9541 7.38238 12.886 7.36918 12.8108C7.25972 12.3594 7.20269 11.8969 7.19923 11.4324C7.19889 11.3898 7.20695 11.3475 7.22295 11.308C7.23896 11.2685 7.26259 11.2325 7.2925 11.2022C7.32241 11.1718 7.35801 11.1476 7.39727 11.1311C7.43652 11.1145 7.47866 11.1058 7.52128 11.1055H7.52355C7.60918 11.1055 7.69133 11.1393 7.75209 11.1997C7.81284 11.26 7.84728 11.3419 7.84788 11.4275C7.8509 11.8482 7.90326 12.2671 8.00388 12.6755C8.01592 12.7234 8.01688 12.7734 8.00668 12.8217C7.99648 12.87 7.97539 12.9153 7.94502 12.9542C7.91465 12.9931 7.87579 13.0246 7.83142 13.0462C7.78704 13.0678 7.73832 13.079 7.68896 13.079Z" fill="black"/>
<path d="M14.5993 11.8574C14.1707 11.8571 13.7555 11.7082 13.4244 11.4362C13.0933 11.1641 12.8668 10.7856 12.7834 10.3652C12.7001 9.94485 12.765 9.50858 12.9673 9.13073C13.1695 8.75289 13.4965 8.45684 13.8925 8.29302C14.2885 8.12921 14.729 8.10776 15.1391 8.23234C15.5491 8.35692 15.9033 8.61981 16.1413 8.97623C16.3793 9.33265 16.4863 9.76055 16.4442 10.187C16.402 10.6135 16.2133 11.0122 15.9102 11.3152C15.7382 11.4874 15.5338 11.624 15.3088 11.717C15.0839 11.8101 14.8427 11.8578 14.5993 11.8574ZM14.5993 8.79937C14.3207 8.7996 14.0508 8.8964 13.8356 9.07328C13.6204 9.25016 13.4732 9.49618 13.419 9.76944C13.3649 10.0427 13.4071 10.3263 13.5386 10.5719C13.67 10.8175 13.8826 11.0099 14.14 11.1164C14.3974 11.2228 14.6838 11.2368 14.9503 11.1558C15.2169 11.0748 15.4471 10.9039 15.6018 10.6723C15.7565 10.4406 15.826 10.1624 15.7987 9.88523C15.7713 9.60801 15.6486 9.34885 15.4516 9.15191C15.3398 9.03991 15.2069 8.95111 15.0606 8.89061C14.9144 8.83011 14.7576 8.7991 14.5993 8.79937Z" fill="black"/>
<path d="M17.9127 11.6124C16.6293 11.6106 15.3875 11.1571 14.4051 10.3313C14.343 10.2749 14.3052 10.1967 14.2996 10.113C14.294 10.0293 14.3211 9.94667 14.3751 9.88249C14.4291 9.81832 14.5059 9.77757 14.5893 9.7688C14.6727 9.76003 14.7563 9.78392 14.8225 9.83545C15.3473 10.2771 15.9606 10.6011 16.6211 10.7857C17.2817 10.9703 17.9741 11.0113 18.6518 10.9057C19.5432 10.7667 20.3772 10.3788 21.0579 9.78676C21.7385 9.19467 22.2382 8.42242 22.4994 7.55889C22.7605 6.69536 22.7726 5.77564 22.5341 4.90558C22.2956 4.03551 21.8163 3.25046 21.1513 2.64077C20.4864 2.03108 19.6628 1.62153 18.7754 1.45925C17.8879 1.29697 16.9727 1.38856 16.135 1.72347C15.2973 2.05838 14.5712 2.62301 14.0403 3.35237C13.5093 4.08174 13.1951 4.9462 13.1337 5.84626C13.128 5.93228 13.0884 6.0125 13.0235 6.06928C12.9586 6.12606 12.8739 6.15474 12.7878 6.14902C12.7018 6.1433 12.6216 6.10365 12.5648 6.03878C12.5081 5.97391 12.4794 5.88915 12.4851 5.80313C12.5548 4.78144 12.9115 3.80018 13.5142 2.97225C14.1169 2.14433 14.9411 1.50338 15.892 1.12316C16.8429 0.742938 17.8818 0.638888 18.8891 0.822982C19.8965 1.00708 20.8315 1.47184 21.5864 2.16378C22.3413 2.85573 22.8856 3.74676 23.1565 4.73433C23.4274 5.72191 23.4141 6.76592 23.1179 7.74622C22.8217 8.72653 22.2548 9.60331 21.4824 10.2757C20.71 10.9481 19.7635 11.3887 18.7517 11.5469C18.4742 11.5907 18.1936 11.6126 17.9127 11.6124Z" fill="black"/>
</g>
<defs>
<clipPath id="clip0_1643_26230">
<rect width="24" height="24" fill="white"/>
</clipPath>
</defs>
</svg>
