<svg width="240" height="203" viewBox="0 0 240 203" fill="none" xmlns="http://www.w3.org/2000/svg">
<rect width="240" height="202.396" fill="#F1F1F1"/>
<rect x="8" y="9" width="152" height="31" rx="8" fill="white"/>
<path d="M20.3739 22.1579V21.5531H24.5968V22.1579H22.8262V27.1836H22.1444V22.1579H20.3739ZM26.0551 24.6433V27.1836H25.4062V21.5531H26.0551V23.6205H26.1101C26.209 23.4024 26.3575 23.2292 26.5554 23.1009C26.7552 22.9708 27.021 22.9057 27.3527 22.9057C27.6405 22.9057 27.8925 22.9635 28.1088 23.0789C28.325 23.1926 28.4928 23.3676 28.6119 23.604C28.7329 23.8387 28.7933 24.1374 28.7933 24.5003V27.1836H28.1445V24.5443C28.1445 24.2089 28.0575 23.9495 27.8833 23.7663C27.711 23.5811 27.4719 23.4886 27.1658 23.4886C26.9532 23.4886 26.7625 23.5335 26.5939 23.6233C26.4271 23.7131 26.2952 23.8442 26.198 24.0164C26.1027 24.1887 26.0551 24.3977 26.0551 24.6433ZM31.541 27.2716C31.1598 27.2716 30.8253 27.1808 30.5376 26.9994C30.2516 26.8179 30.028 26.5641 29.8667 26.2378C29.7073 25.9116 29.6275 25.5304 29.6275 25.0942C29.6275 24.6543 29.7073 24.2703 29.8667 23.9422C30.028 23.6141 30.2516 23.3594 30.5376 23.1779C30.8253 22.9965 31.1598 22.9057 31.541 22.9057C31.9223 22.9057 32.2558 22.9965 32.5418 23.1779C32.8295 23.3594 33.0531 23.6141 33.2126 23.9422C33.3739 24.2703 33.4545 24.6543 33.4545 25.0942C33.4545 25.5304 33.3739 25.9116 33.2126 26.2378C33.0531 26.5641 32.8295 26.8179 32.5418 26.9994C32.2558 27.1808 31.9223 27.2716 31.541 27.2716ZM31.541 26.6887C31.8306 26.6887 32.0689 26.6145 32.2558 26.466C32.4428 26.3176 32.5812 26.1224 32.671 25.8804C32.7608 25.6385 32.8057 25.3764 32.8057 25.0942C32.8057 24.8119 32.7608 24.5489 32.671 24.3051C32.5812 24.0613 32.4428 23.8643 32.2558 23.714C32.0689 23.5637 31.8306 23.4886 31.541 23.4886C31.2514 23.4886 31.0132 23.5637 30.8262 23.714C30.6393 23.8643 30.5009 24.0613 30.4111 24.3051C30.3213 24.5489 30.2764 24.8119 30.2764 25.0942C30.2764 25.3764 30.3213 25.6385 30.4111 25.8804C30.5009 26.1224 30.6393 26.3176 30.8262 26.466C31.0132 26.6145 31.2514 26.6887 31.541 26.6887ZM34.2901 27.1836V22.9607H34.9169V23.6205H34.9719C35.0599 23.3951 35.202 23.2201 35.3981 23.0954C35.5942 22.969 35.8297 22.9057 36.1046 22.9057C36.3832 22.9057 36.6151 22.969 36.8002 23.0954C36.9871 23.2201 37.1329 23.3951 37.2373 23.6205H37.2813C37.3895 23.4024 37.5517 23.2292 37.7679 23.1009C37.9842 22.9708 38.2436 22.9057 38.546 22.9057C38.9235 22.9057 39.2324 23.024 39.4725 23.2604C39.7126 23.495 39.8326 23.8606 39.8326 24.3573V27.1836H39.1838V24.3573C39.1838 24.0458 39.0986 23.8231 38.9281 23.6893C38.7577 23.5555 38.557 23.4886 38.326 23.4886C38.0291 23.4886 37.7991 23.5784 37.636 23.758C37.4728 23.9358 37.3913 24.1612 37.3913 24.4343V27.1836H36.7315V24.2914C36.7315 24.0513 36.6536 23.8579 36.4978 23.7113C36.342 23.5628 36.1413 23.4886 35.8957 23.4886C35.7271 23.4886 35.5694 23.5335 35.4228 23.6233C35.278 23.7131 35.1607 23.8377 35.0709 23.9972C34.9829 24.1548 34.9389 24.3372 34.9389 24.5443V27.1836H34.2901ZM42.1068 27.2826C41.8392 27.2826 41.5963 27.2322 41.3782 27.1314C41.1601 27.0287 40.9869 26.8812 40.8586 26.6887C40.7303 26.4944 40.6662 26.2598 40.6662 25.9849C40.6662 25.743 40.7138 25.5469 40.8091 25.3966C40.9044 25.2444 41.0318 25.1253 41.1913 25.0392C41.3507 24.953 41.5267 24.8889 41.7191 24.8467C41.9134 24.8027 42.1086 24.7679 42.3047 24.7422C42.5613 24.7093 42.7693 24.6845 42.9288 24.668C43.0901 24.6497 43.2074 24.6194 43.2807 24.5773C43.3559 24.5351 43.3934 24.4618 43.3934 24.3573V24.3354C43.3934 24.0641 43.3192 23.8533 43.1707 23.703C43.0241 23.5527 42.8014 23.4776 42.5027 23.4776C42.1929 23.4776 41.9501 23.5454 41.7741 23.681C41.5982 23.8167 41.4744 23.9615 41.403 24.1154L40.7871 23.8955C40.8971 23.6389 41.0437 23.4391 41.227 23.2961C41.4121 23.1513 41.6137 23.0505 41.8318 22.9937C42.0518 22.9351 42.2681 22.9057 42.4807 22.9057C42.6163 22.9057 42.7721 22.9222 42.948 22.9552C43.1258 22.9864 43.2972 23.0514 43.4622 23.1504C43.6289 23.2494 43.7673 23.3988 43.8773 23.5985C43.9873 23.7983 44.0423 24.0659 44.0423 24.4013V27.1836H43.3934V26.6117H43.3604C43.3164 26.7034 43.2431 26.8014 43.1405 26.9059C43.0379 27.0104 42.9013 27.0993 42.7309 27.1726C42.5604 27.2459 42.3524 27.2826 42.1068 27.2826ZM42.2057 26.6997C42.4623 26.6997 42.6786 26.6493 42.8546 26.5485C43.0324 26.4477 43.1662 26.3176 43.256 26.1581C43.3476 25.9987 43.3934 25.831 43.3934 25.655V25.0612C43.3659 25.0942 43.3055 25.1244 43.212 25.1519C43.1203 25.1775 43.014 25.2005 42.8931 25.2206C42.7739 25.2389 42.6575 25.2554 42.5439 25.2701C42.4321 25.2829 42.3414 25.2939 42.2717 25.3031C42.1031 25.3251 41.9455 25.3608 41.7989 25.4103C41.6541 25.458 41.5368 25.5304 41.4469 25.6275C41.359 25.7228 41.315 25.8529 41.315 26.0179C41.315 26.2433 41.3984 26.4138 41.5652 26.5293C41.7338 26.6429 41.9473 26.6997 42.2057 26.6997ZM48.0629 23.9065L47.48 24.0714C47.4434 23.9743 47.3893 23.8799 47.3178 23.7882C47.2482 23.6948 47.1529 23.6178 47.0319 23.5573C46.9109 23.4968 46.756 23.4666 46.5673 23.4666C46.3088 23.4666 46.0935 23.5262 45.9212 23.6453C45.7507 23.7626 45.6655 23.912 45.6655 24.0934C45.6655 24.2547 45.7242 24.3821 45.8415 24.4756C45.9588 24.569 46.142 24.6469 46.3913 24.7093L47.0181 24.8632C47.3957 24.9549 47.6771 25.0951 47.8622 25.2839C48.0473 25.4708 48.1398 25.7118 48.1398 26.0069C48.1398 26.2488 48.0702 26.4651 47.9309 26.6557C47.7934 26.8464 47.601 26.9966 47.3536 27.1066C47.1061 27.2166 46.8184 27.2716 46.4903 27.2716C46.0596 27.2716 45.7031 27.1781 45.4208 26.9911C45.1386 26.8042 44.9599 26.5311 44.8847 26.1719L45.5005 26.0179C45.5592 26.2452 45.6701 26.4156 45.8332 26.5293C45.9982 26.6429 46.2135 26.6997 46.4793 26.6997C46.7817 26.6997 47.0218 26.6356 47.1996 26.5073C47.3792 26.3771 47.469 26.2214 47.469 26.0399C47.469 25.8933 47.4177 25.7705 47.3151 25.6715C47.2124 25.5707 47.0548 25.4955 46.8422 25.4461L46.1384 25.2811C45.7516 25.1895 45.4676 25.0474 45.2861 24.855C45.1065 24.6607 45.0167 24.4178 45.0167 24.1264C45.0167 23.8881 45.0836 23.6774 45.2174 23.4941C45.353 23.3108 45.5372 23.1669 45.77 23.0624C46.0046 22.958 46.2703 22.9057 46.5673 22.9057C46.9852 22.9057 47.3132 22.9974 47.5515 23.1807C47.7916 23.3639 47.9621 23.6059 48.0629 23.9065Z" fill="#353FD7"/>
<path d="M53.2277 21.5531H53.9095V25.578C53.9095 25.9373 53.8435 26.2424 53.7115 26.4935C53.5796 26.7446 53.3935 26.9352 53.1534 27.0654C52.9133 27.1955 52.6302 27.2606 52.3039 27.2606C51.996 27.2606 51.722 27.2047 51.4819 27.0929C51.2418 26.9792 51.053 26.8179 50.9155 26.609C50.7781 26.4001 50.7093 26.1517 50.7093 25.8639H51.3802C51.3802 26.0234 51.4196 26.1627 51.4984 26.2818C51.579 26.3991 51.689 26.4908 51.8283 26.5568C51.9676 26.6227 52.1261 26.6557 52.3039 26.6557C52.5 26.6557 52.6668 26.6145 52.8043 26.532C52.9417 26.4495 53.0462 26.3286 53.1177 26.1691C53.191 26.0078 53.2277 25.8108 53.2277 25.578V21.5531ZM56.8036 27.2716C56.3967 27.2716 56.0457 27.1818 55.7506 27.0021C55.4574 26.8207 55.231 26.5678 55.0715 26.2433C54.9139 25.9171 54.8351 25.5377 54.8351 25.1051C54.8351 24.6726 54.9139 24.2914 55.0715 23.9615C55.231 23.6297 55.4528 23.3713 55.7369 23.1862C56.0228 22.9992 56.3564 22.9057 56.7376 22.9057C56.9575 22.9057 57.1747 22.9424 57.3892 23.0157C57.6036 23.089 57.7988 23.2082 57.9748 23.3731C58.1507 23.5362 58.2909 23.7525 58.3954 24.0219C58.4999 24.2914 58.5521 24.6231 58.5521 25.0172V25.2921H55.297V24.7312H57.8923C57.8923 24.493 57.8446 24.2804 57.7493 24.0934C57.6559 23.9065 57.5221 23.7589 57.3479 23.6508C57.1756 23.5426 56.9722 23.4886 56.7376 23.4886C56.4792 23.4886 56.2556 23.5527 56.0668 23.681C55.8798 23.8075 55.736 23.9725 55.6351 24.1759C55.5343 24.3793 55.4839 24.5975 55.4839 24.8302V25.2041C55.4839 25.523 55.5389 25.7934 55.6489 26.0152C55.7607 26.2351 55.9156 26.4028 56.1135 26.5183C56.3115 26.6319 56.5415 26.6887 56.8036 26.6887C56.974 26.6887 57.128 26.6649 57.2655 26.6172C57.4048 26.5678 57.5248 26.4944 57.6256 26.3973C57.7264 26.2983 57.8043 26.1755 57.8593 26.0289L58.4861 26.2049C58.4202 26.4175 58.3093 26.6044 58.1535 26.7657C57.9977 26.9252 57.8052 27.0498 57.5761 27.1396C57.347 27.2276 57.0895 27.2716 56.8036 27.2716ZM61.2648 22.9607V23.5106H58.9884V22.9607H61.2648ZM59.6702 27.1836V22.3779C59.6702 22.1359 59.727 21.9343 59.8406 21.773C59.9543 21.6117 60.1018 21.4908 60.2833 21.4101C60.4647 21.3295 60.6563 21.2892 60.8579 21.2892C61.0173 21.2892 61.1475 21.302 61.2483 21.3277C61.3491 21.3533 61.4242 21.3771 61.4737 21.3991L61.2868 21.96C61.2538 21.949 61.2079 21.9352 61.1493 21.9187C61.0925 21.9023 61.0173 21.894 60.9239 21.894C60.7094 21.894 60.5545 21.9481 60.4592 22.0562C60.3658 22.1643 60.319 22.3229 60.319 22.5318V27.1836H59.6702ZM63.8997 22.9607V23.5106H61.6234V22.9607H63.8997ZM62.3052 27.1836V22.3779C62.3052 22.1359 62.362 21.9343 62.4756 21.773C62.5893 21.6117 62.7368 21.4908 62.9183 21.4101C63.0997 21.3295 63.2912 21.2892 63.4929 21.2892C63.6523 21.2892 63.7824 21.302 63.8832 21.3277C63.9841 21.3533 64.0592 21.3771 64.1087 21.3991L63.9217 21.96C63.8887 21.949 63.8429 21.9352 63.7843 21.9187C63.7275 21.9023 63.6523 21.894 63.5588 21.894C63.3444 21.894 63.1895 21.9481 63.0942 22.0562C63.0007 22.1643 62.954 22.3229 62.954 22.5318V27.1836H62.3052ZM66.2509 27.2716C65.844 27.2716 65.493 27.1818 65.1979 27.0021C64.9046 26.8207 64.6783 26.5678 64.5188 26.2433C64.3612 25.9171 64.2824 25.5377 64.2824 25.1051C64.2824 24.6726 64.3612 24.2914 64.5188 23.9615C64.6783 23.6297 64.9001 23.3713 65.1841 23.1862C65.4701 22.9992 65.8036 22.9057 66.1849 22.9057C66.4048 22.9057 66.622 22.9424 66.8365 23.0157C67.0509 23.089 67.2461 23.2082 67.422 23.3731C67.598 23.5362 67.7382 23.7525 67.8427 24.0219C67.9472 24.2914 67.9994 24.6231 67.9994 25.0172V25.2921H64.7443V24.7312H67.3396C67.3396 24.493 67.2919 24.2804 67.1966 24.0934C67.1031 23.9065 66.9693 23.7589 66.7952 23.6508C66.6229 23.5426 66.4195 23.4886 66.1849 23.4886C65.9264 23.4886 65.7028 23.5527 65.5141 23.681C65.3271 23.8075 65.1832 23.9725 65.0824 24.1759C64.9816 24.3793 64.9312 24.5975 64.9312 24.8302V25.2041C64.9312 25.523 64.9862 25.7934 65.0962 26.0152C65.208 26.2351 65.3628 26.4028 65.5608 26.5183C65.7587 26.6319 65.9888 26.6887 66.2509 26.6887C66.4213 26.6887 66.5753 26.6649 66.7127 26.6172C66.852 26.5678 66.9721 26.4944 67.0729 26.3973C67.1737 26.2983 67.2516 26.1755 67.3066 26.0289L67.9334 26.2049C67.8674 26.4175 67.7565 26.6044 67.6007 26.7657C67.445 26.9252 67.2525 27.0498 67.0234 27.1396C66.7943 27.2276 66.5368 27.2716 66.2509 27.2716ZM68.8315 27.1836V22.9607H69.4584V23.5985H69.5024C69.5793 23.3896 69.7186 23.2201 69.9203 23.0899C70.1219 22.9598 70.3491 22.8947 70.6021 22.8947C70.6497 22.8947 70.7093 22.8957 70.7808 22.8975C70.8523 22.8993 70.9063 22.9021 70.943 22.9057V23.5656C70.921 23.5601 70.8706 23.5518 70.7918 23.5408C70.7148 23.528 70.6332 23.5216 70.5471 23.5216C70.3418 23.5216 70.1585 23.5646 69.9972 23.6508C69.8378 23.7351 69.7113 23.8524 69.6178 24.0027C69.5262 24.1512 69.4804 24.3207 69.4804 24.5113V27.1836H68.8315ZM74.5484 23.9065L73.9656 24.0714C73.9289 23.9743 73.8749 23.8799 73.8034 23.7882C73.7338 23.6948 73.6384 23.6178 73.5175 23.5573C73.3965 23.4968 73.2416 23.4666 73.0528 23.4666C72.7944 23.4666 72.5791 23.5262 72.4068 23.6453C72.2363 23.7626 72.1511 23.912 72.1511 24.0934C72.1511 24.2547 72.2097 24.3821 72.327 24.4756C72.4443 24.569 72.6276 24.6469 72.8769 24.7093L73.5037 24.8632C73.8813 24.9549 74.1626 25.0951 74.3478 25.2839C74.5329 25.4708 74.6254 25.7118 74.6254 26.0069C74.6254 26.2488 74.5558 26.4651 74.4165 26.6557C74.279 26.8464 74.0866 26.9966 73.8391 27.1066C73.5917 27.2166 73.3039 27.2716 72.9759 27.2716C72.5452 27.2716 72.1887 27.1781 71.9064 26.9911C71.6241 26.8042 71.4454 26.5311 71.3703 26.1719L71.9861 26.0179C72.0448 26.2452 72.1557 26.4156 72.3188 26.5293C72.4838 26.6429 72.6991 26.6997 72.9649 26.6997C73.2673 26.6997 73.5074 26.6356 73.6852 26.5073C73.8648 26.3771 73.9546 26.2214 73.9546 26.0399C73.9546 25.8933 73.9033 25.7705 73.8006 25.6715C73.698 25.5707 73.5404 25.4955 73.3278 25.4461L72.624 25.2811C72.2372 25.1895 71.9531 25.0474 71.7717 24.855C71.5921 24.6607 71.5023 24.4178 71.5023 24.1264C71.5023 23.8881 71.5692 23.6774 71.703 23.4941C71.8386 23.3108 72.0228 23.1669 72.2556 23.0624C72.4902 22.958 72.7559 22.9057 73.0528 22.9057C73.4707 22.9057 73.7988 22.9974 74.0371 23.1807C74.2772 23.3639 74.4476 23.6059 74.5484 23.9065ZM77.1628 27.2716C76.7816 27.2716 76.4471 27.1808 76.1593 26.9994C75.8734 26.8179 75.6498 26.5641 75.4885 26.2378C75.329 25.9116 75.2493 25.5304 75.2493 25.0942C75.2493 24.6543 75.329 24.2703 75.4885 23.9422C75.6498 23.6141 75.8734 23.3594 76.1593 23.1779C76.4471 22.9965 76.7816 22.9057 77.1628 22.9057C77.544 22.9057 77.8776 22.9965 78.1635 23.1779C78.4513 23.3594 78.6749 23.6141 78.8344 23.9422C78.9957 24.2703 79.0763 24.6543 79.0763 25.0942C79.0763 25.5304 78.9957 25.9116 78.8344 26.2378C78.6749 26.5641 78.4513 26.8179 78.1635 26.9994C77.8776 27.1808 77.544 27.2716 77.1628 27.2716ZM77.1628 26.6887C77.4524 26.6887 77.6907 26.6145 77.8776 26.466C78.0646 26.3176 78.2029 26.1224 78.2928 25.8804C78.3826 25.6385 78.4275 25.3764 78.4275 25.0942C78.4275 24.8119 78.3826 24.5489 78.2928 24.3051C78.2029 24.0613 78.0646 23.8643 77.8776 23.714C77.6907 23.5637 77.4524 23.4886 77.1628 23.4886C76.8732 23.4886 76.6349 23.5637 76.448 23.714C76.261 23.8643 76.1227 24.0613 76.0329 24.3051C75.9431 24.5489 75.8981 24.8119 75.8981 25.0942C75.8981 25.3764 75.9431 25.6385 76.0329 25.8804C76.1227 26.1224 76.261 26.3176 76.448 26.466C76.6349 26.6145 76.8732 26.6887 77.1628 26.6887ZM80.5607 24.6433V27.1836H79.9119V22.9607H80.5387V23.6205H80.5937C80.6927 23.4061 80.843 23.2338 81.0446 23.1037C81.2462 22.9717 81.5065 22.9057 81.8254 22.9057C82.1113 22.9057 82.3615 22.9644 82.5759 23.0817C82.7904 23.1972 82.9572 23.3731 83.0763 23.6095C83.1954 23.8442 83.255 24.1411 83.255 24.5003V27.1836H82.6062V24.5443C82.6062 24.2126 82.52 23.9541 82.3477 23.769C82.1754 23.5821 81.939 23.4886 81.6384 23.4886C81.4313 23.4886 81.2462 23.5335 81.0831 23.6233C80.9218 23.7131 80.7944 23.8442 80.7009 24.0164C80.6074 24.1887 80.5607 24.3977 80.5607 24.6433ZM84.7586 27.2276C84.623 27.2276 84.5066 27.179 84.4095 27.0819C84.3124 26.9847 84.2638 26.8683 84.2638 26.7327C84.2638 26.5971 84.3124 26.4807 84.4095 26.3836C84.5066 26.2864 84.623 26.2378 84.7586 26.2378C84.8943 26.2378 85.0107 26.2864 85.1078 26.3836C85.2049 26.4807 85.2535 26.5971 85.2535 26.7327C85.2535 26.8225 85.2306 26.905 85.1848 26.9801C85.1408 27.0553 85.0812 27.1158 85.0061 27.1616C84.9328 27.2056 84.8503 27.2276 84.7586 27.2276ZM84.7586 24.0934C84.623 24.0934 84.5066 24.0448 84.4095 23.9477C84.3124 23.8506 84.2638 23.7342 84.2638 23.5985C84.2638 23.4629 84.3124 23.3465 84.4095 23.2494C84.5066 23.1523 84.623 23.1037 84.7586 23.1037C84.8943 23.1037 85.0107 23.1523 85.1078 23.2494C85.2049 23.3465 85.2535 23.4629 85.2535 23.5985C85.2535 23.6884 85.2306 23.7708 85.1848 23.846C85.1408 23.9211 85.0812 23.9816 85.0061 24.0274C84.9328 24.0714 84.8503 24.0934 84.7586 24.0934ZM88.0656 22.1579V21.5531H92.2885V22.1579H90.518V27.1836H89.8362V22.1579H88.0656ZM93.7468 24.6433V27.1836H93.098V21.5531H93.7468V23.6205H93.8018C93.9008 23.4024 94.0492 23.2292 94.2472 23.1009C94.4469 22.9708 94.7127 22.9057 95.0445 22.9057C95.3322 22.9057 95.5842 22.9635 95.8005 23.0789C96.0168 23.1926 96.1845 23.3676 96.3036 23.604C96.4246 23.8387 96.4851 24.1374 96.4851 24.5003V27.1836H95.8362V24.5443C95.8362 24.2089 95.7492 23.9495 95.5751 23.7663C95.4028 23.5811 95.1636 23.4886 94.8575 23.4886C94.6449 23.4886 94.4543 23.5335 94.2857 23.6233C94.1189 23.7131 93.9869 23.8442 93.8898 24.0164C93.7945 24.1887 93.7468 24.3977 93.7468 24.6433ZM99.2878 27.2716C98.8809 27.2716 98.5299 27.1818 98.2348 27.0021C97.9415 26.8207 97.7152 26.5678 97.5557 26.2433C97.3981 25.9171 97.3193 25.5377 97.3193 25.1051C97.3193 24.6726 97.3981 24.2914 97.5557 23.9615C97.7152 23.6297 97.9369 23.3713 98.221 23.1862C98.507 22.9992 98.8405 22.9057 99.2218 22.9057C99.4417 22.9057 99.6589 22.9424 99.8733 23.0157C100.088 23.089 100.283 23.2082 100.459 23.3731C100.635 23.5362 100.775 23.7525 100.88 24.0219C100.984 24.2914 101.036 24.6231 101.036 25.0172V25.2921H97.7812V24.7312H100.376C100.376 24.493 100.329 24.2804 100.234 24.0934C100.14 23.9065 100.006 23.7589 99.8321 23.6508C99.6598 23.5426 99.4564 23.4886 99.2218 23.4886C98.9633 23.4886 98.7397 23.5527 98.551 23.681C98.364 23.8075 98.2201 23.9725 98.1193 24.1759C98.0185 24.3793 97.9681 24.5975 97.9681 24.8302V25.2041C97.9681 25.523 98.0231 25.7934 98.1331 26.0152C98.2449 26.2351 98.3997 26.4028 98.5977 26.5183C98.7956 26.6319 99.0257 26.6887 99.2878 26.6887C99.4582 26.6887 99.6122 26.6649 99.7496 26.6172C99.8889 26.5678 100.009 26.4944 100.11 26.3973C100.211 26.2983 100.288 26.1755 100.343 26.0289L100.97 26.2049C100.904 26.4175 100.793 26.6044 100.638 26.7657C100.482 26.9252 100.289 27.0498 100.06 27.1396C99.8312 27.2276 99.5737 27.2716 99.2878 27.2716ZM104.21 27.1836H103.495L105.563 21.5531H106.266L108.334 27.1836H107.619L105.936 22.4439H105.892L104.21 27.1836ZM104.474 24.9842H107.355V25.589H104.474V24.9842ZM108.968 27.1836V22.9607H109.595V23.5985H109.639C109.716 23.3896 109.855 23.2201 110.057 23.0899C110.258 22.9598 110.486 22.8947 110.739 22.8947C110.786 22.8947 110.846 22.8957 110.917 22.8975C110.989 22.8993 111.043 22.9021 111.079 22.9057V23.5656C111.057 23.5601 111.007 23.5518 110.928 23.5408C110.851 23.528 110.77 23.5216 110.684 23.5216C110.478 23.5216 110.295 23.5646 110.134 23.6508C109.974 23.7351 109.848 23.8524 109.754 24.0027C109.663 24.1512 109.617 24.3207 109.617 24.5113V27.1836H108.968ZM113.795 22.9607V23.5106H111.606V22.9607H113.795ZM112.244 21.949H112.893V25.9739C112.893 26.1572 112.92 26.2947 112.973 26.3863C113.028 26.4761 113.097 26.5366 113.182 26.5678C113.268 26.5971 113.359 26.6117 113.454 26.6117C113.525 26.6117 113.584 26.6081 113.63 26.6007C113.676 26.5916 113.712 26.5843 113.74 26.5788L113.872 27.1616C113.828 27.1781 113.766 27.1946 113.688 27.2111C113.609 27.2294 113.509 27.2386 113.388 27.2386C113.205 27.2386 113.025 27.1992 112.849 27.1204C112.675 27.0415 112.53 26.9215 112.415 26.7602C112.301 26.5989 112.244 26.3955 112.244 26.1499V21.949ZM118.354 27.2716C117.973 27.2716 117.638 27.1808 117.351 26.9994C117.065 26.8179 116.841 26.5641 116.68 26.2378C116.52 25.9116 116.441 25.5304 116.441 25.0942C116.441 24.6543 116.52 24.2703 116.68 23.9422C116.841 23.6141 117.065 23.3594 117.351 23.1779C117.638 22.9965 117.973 22.9057 118.354 22.9057C118.735 22.9057 119.069 22.9965 119.355 23.1779C119.643 23.3594 119.866 23.6141 120.026 23.9422C120.187 24.2703 120.268 24.6543 120.268 25.0942C120.268 25.5304 120.187 25.9116 120.026 26.2378C119.866 26.5641 119.643 26.8179 119.355 26.9994C119.069 27.1808 118.735 27.2716 118.354 27.2716ZM118.354 26.6887C118.644 26.6887 118.882 26.6145 119.069 26.466C119.256 26.3176 119.394 26.1224 119.484 25.8804C119.574 25.6385 119.619 25.3764 119.619 25.0942C119.619 24.8119 119.574 24.5489 119.484 24.3051C119.394 24.0613 119.256 23.8643 119.069 23.714C118.882 23.5637 118.644 23.4886 118.354 23.4886C118.065 23.4886 117.826 23.5637 117.639 23.714C117.452 23.8643 117.314 24.0613 117.224 24.3051C117.134 24.5489 117.089 24.8119 117.089 25.0942C117.089 25.3764 117.134 25.6385 117.224 25.8804C117.314 26.1224 117.452 26.3176 117.639 26.466C117.826 26.6145 118.065 26.6887 118.354 26.6887ZM122.984 22.9607V23.5106H120.707V22.9607H122.984ZM121.389 27.1836V22.3779C121.389 22.1359 121.446 21.9343 121.56 21.773C121.673 21.6117 121.821 21.4908 122.002 21.4101C122.184 21.3295 122.375 21.2892 122.577 21.2892C122.736 21.2892 122.866 21.302 122.967 21.3277C123.068 21.3533 123.143 21.3771 123.193 21.3991L123.006 21.96C122.973 21.949 122.927 21.9352 122.868 21.9187C122.811 21.9023 122.736 21.894 122.643 21.894C122.428 21.894 122.273 21.9481 122.178 22.0562C122.085 22.1643 122.038 22.3229 122.038 22.5318V27.1836H121.389ZM125.849 27.1836V21.5531H127.751C128.193 21.5531 128.554 21.6328 128.834 21.7923C129.117 21.9499 129.326 22.1634 129.461 22.4329C129.597 22.7023 129.665 23.0029 129.665 23.3346C129.665 23.6664 129.597 23.9679 129.461 24.2391C129.327 24.5104 129.12 24.7267 128.84 24.888C128.56 25.0474 128.2 25.1271 127.762 25.1271H126.399V24.5223H127.74C128.043 24.5223 128.286 24.4701 128.469 24.3656C128.652 24.2611 128.785 24.12 128.867 23.9422C128.952 23.7626 128.994 23.5601 128.994 23.3346C128.994 23.1092 128.952 22.9076 128.867 22.7298C128.785 22.552 128.651 22.4127 128.466 22.3119C128.281 22.2093 128.035 22.1579 127.729 22.1579H126.531V27.1836H125.849ZM132.19 27.2716C131.809 27.2716 131.475 27.1808 131.187 26.9994C130.901 26.8179 130.677 26.5641 130.516 26.2378C130.357 25.9116 130.277 25.5304 130.277 25.0942C130.277 24.6543 130.357 24.2703 130.516 23.9422C130.677 23.6141 130.901 23.3594 131.187 23.1779C131.475 22.9965 131.809 22.9057 132.19 22.9057C132.572 22.9057 132.905 22.9965 133.191 23.1779C133.479 23.3594 133.703 23.6141 133.862 23.9422C134.023 24.2703 134.104 24.6543 134.104 25.0942C134.104 25.5304 134.023 25.9116 133.862 26.2378C133.703 26.5641 133.479 26.8179 133.191 26.9994C132.905 27.1808 132.572 27.2716 132.19 27.2716ZM132.19 26.6887C132.48 26.6887 132.718 26.6145 132.905 26.466C133.092 26.3176 133.231 26.1224 133.32 25.8804C133.41 25.6385 133.455 25.3764 133.455 25.0942C133.455 24.8119 133.41 24.5489 133.32 24.3051C133.231 24.0613 133.092 23.8643 132.905 23.714C132.718 23.5637 132.48 23.4886 132.19 23.4886C131.901 23.4886 131.663 23.5637 131.476 23.714C131.289 23.8643 131.15 24.0613 131.06 24.3051C130.971 24.5489 130.926 24.8119 130.926 25.0942C130.926 25.3764 130.971 25.6385 131.06 25.8804C131.15 26.1224 131.289 26.3176 131.476 26.466C131.663 26.6145 131.901 26.6887 132.19 26.6887ZM135.753 27.1836L134.466 22.9607H135.148L136.061 26.1939H136.105L137.006 22.9607H137.699L138.59 26.1829H138.634L139.547 22.9607H140.228L138.942 27.1836H138.304L137.38 23.9395H137.314L136.39 27.1836H135.753ZM142.558 27.2716C142.151 27.2716 141.8 27.1818 141.505 27.0021C141.212 26.8207 140.986 26.5678 140.826 26.2433C140.669 25.9171 140.59 25.5377 140.59 25.1051C140.59 24.6726 140.669 24.2914 140.826 23.9615C140.986 23.6297 141.207 23.3713 141.492 23.1862C141.777 22.9992 142.111 22.9057 142.492 22.9057C142.712 22.9057 142.929 22.9424 143.144 23.0157C143.358 23.089 143.553 23.2082 143.729 23.3731C143.905 23.5362 144.046 23.7525 144.15 24.0219C144.255 24.2914 144.307 24.6231 144.307 25.0172V25.2921H141.052V24.7312H143.647C143.647 24.493 143.599 24.2804 143.504 24.0934C143.41 23.9065 143.277 23.7589 143.103 23.6508C142.93 23.5426 142.727 23.4886 142.492 23.4886C142.234 23.4886 142.01 23.5527 141.821 23.681C141.634 23.8075 141.491 23.9725 141.39 24.1759C141.289 24.3793 141.239 24.5975 141.239 24.8302V25.2041C141.239 25.523 141.294 25.7934 141.404 26.0152C141.515 26.2351 141.67 26.4028 141.868 26.5183C142.066 26.6319 142.296 26.6887 142.558 26.6887C142.729 26.6887 142.883 26.6649 143.02 26.6172C143.159 26.5678 143.279 26.4944 143.38 26.3973C143.481 26.2983 143.559 26.1755 143.614 26.0289L144.241 26.2049C144.175 26.4175 144.064 26.6044 143.908 26.7657C143.752 26.9252 143.56 27.0498 143.331 27.1396C143.102 27.2276 142.844 27.2716 142.558 27.2716ZM145.139 27.1836V22.9607H145.766V23.5985H145.81C145.887 23.3896 146.026 23.2201 146.228 23.0899C146.429 22.9598 146.656 22.8947 146.909 22.8947C146.957 22.8947 147.017 22.8957 147.088 22.8975C147.16 22.8993 147.214 22.9021 147.25 22.9057V23.5656C147.228 23.5601 147.178 23.5518 147.099 23.5408C147.022 23.528 146.941 23.5216 146.854 23.5216C146.649 23.5216 146.466 23.5646 146.305 23.6508C146.145 23.7351 146.019 23.8524 145.925 24.0027C145.834 24.1512 145.788 24.3207 145.788 24.5113V27.1836H145.139Z" fill="#4D4D4D"/>
<rect x="8" y="43" width="164" height="31" rx="8" fill="white"/>
<path d="M25.1466 55.8402V61.4707H24.4868L21.4186 57.0499H21.3636V61.4707H20.6818V55.8402H21.3416L24.4208 60.272H24.4758V55.8402H25.1466ZM28.9294 59.7442V57.2478H29.5783V61.4707H28.9294V60.7559H28.8854C28.7865 60.9703 28.6325 61.1527 28.4236 61.303C28.2146 61.4515 27.9507 61.5257 27.6318 61.5257C27.3678 61.5257 27.1332 61.468 26.928 61.3525C26.7227 61.2352 26.5614 61.0592 26.4441 60.8246C26.3268 60.5882 26.2681 60.2904 26.2681 59.9311V57.2478H26.917V59.8871C26.917 60.195 27.0031 60.4406 27.1754 60.6239C27.3495 60.8072 27.5713 60.8989 27.8407 60.8989C28.002 60.8989 28.166 60.8576 28.3328 60.7751C28.5015 60.6927 28.6426 60.5662 28.7562 60.3957C28.8717 60.2253 28.9294 60.0081 28.9294 59.7442ZM32.4483 57.2478V57.7977H30.2599V57.2478H32.4483ZM30.8977 56.2361H31.5465V60.261C31.5465 60.4443 31.5731 60.5818 31.6263 60.6734C31.6812 60.7632 31.7509 60.8237 31.8352 60.8549C31.9214 60.8842 32.0121 60.8989 32.1074 60.8989C32.1789 60.8989 32.2375 60.8952 32.2833 60.8879C32.3292 60.8787 32.3658 60.8714 32.3933 60.8659L32.5253 61.4487C32.4813 61.4652 32.4199 61.4817 32.3411 61.4982C32.2623 61.5165 32.1624 61.5257 32.0414 61.5257C31.8581 61.5257 31.6785 61.4863 31.5025 61.4075C31.3284 61.3287 31.1836 61.2086 31.0682 61.0473C30.9545 60.886 30.8977 60.6826 30.8977 60.437V56.2361ZM34.9946 61.5587C34.5877 61.5587 34.2367 61.4689 33.9416 61.2893C33.6484 61.1078 33.422 60.8549 33.2626 60.5305C33.1049 60.2042 33.0261 59.8248 33.0261 59.3923C33.0261 58.9597 33.1049 58.5785 33.2626 58.2486C33.422 57.9168 33.6438 57.6584 33.9279 57.4733C34.2138 57.2863 34.5474 57.1928 34.9286 57.1928C35.1486 57.1928 35.3658 57.2295 35.5802 57.3028C35.7946 57.3761 35.9898 57.4953 36.1658 57.6602C36.3418 57.8233 36.482 58.0396 36.5864 58.309C36.6909 58.5785 36.7431 58.9102 36.7431 59.3043V59.5792H33.488V59.0184H36.0833C36.0833 58.7801 36.0357 58.5675 35.9404 58.3805C35.8469 58.1936 35.7131 58.046 35.539 57.9379C35.3667 57.8298 35.1632 57.7757 34.9286 57.7757C34.6702 57.7757 34.4466 57.8398 34.2578 57.9681C34.0709 58.0946 33.927 58.2596 33.8262 58.463C33.7254 58.6665 33.675 58.8846 33.675 59.1173V59.4912C33.675 59.8101 33.7299 60.0805 33.8399 60.3023C33.9517 60.5222 34.1066 60.6899 34.3045 60.8054C34.5025 60.919 34.7325 60.9758 34.9946 60.9758C35.1651 60.9758 35.319 60.952 35.4565 60.9044C35.5958 60.8549 35.7158 60.7816 35.8166 60.6844C35.9174 60.5854 35.9953 60.4626 36.0503 60.316L36.6772 60.492C36.6112 60.7046 36.5003 60.8915 36.3445 61.0528C36.1887 61.2123 35.9963 61.3369 35.7672 61.4267C35.5381 61.5147 35.2805 61.5587 34.9946 61.5587ZM38.2241 55.8402V61.4707H37.5753V55.8402H38.2241ZM39.9065 55.8402V61.4707H39.2577V55.8402H39.9065ZM42.1827 61.5697C41.9151 61.5697 41.6722 61.5193 41.4541 61.4185C41.236 61.3158 41.0628 61.1683 40.9345 60.9758C40.8062 60.7816 40.7421 60.5469 40.7421 60.272C40.7421 60.0301 40.7897 59.834 40.885 59.6837C40.9803 59.5316 41.1077 59.4124 41.2672 59.3263C41.4266 59.2401 41.6026 59.176 41.795 59.1338C41.9893 59.0898 42.1845 59.055 42.3806 59.0294C42.6372 58.9964 42.8453 58.9716 43.0047 58.9551C43.166 58.9368 43.2833 58.9066 43.3566 58.8644C43.4318 58.8222 43.4693 58.7489 43.4693 58.6445V58.6225C43.4693 58.3512 43.3951 58.1404 43.2466 57.9901C43.1 57.8398 42.8773 57.7647 42.5786 57.7647C42.2688 57.7647 42.026 57.8325 41.85 57.9681C41.6741 58.1038 41.5503 58.2486 41.4789 58.4025L40.863 58.1826C40.973 57.926 41.1196 57.7262 41.3029 57.5832C41.488 57.4384 41.6896 57.3376 41.9078 57.2808C42.1277 57.2222 42.344 57.1928 42.5566 57.1928C42.6922 57.1928 42.848 57.2093 43.024 57.2423C43.2017 57.2735 43.3731 57.3386 43.5381 57.4375C43.7049 57.5365 43.8432 57.6859 43.9532 57.8857C44.0632 58.0854 44.1182 58.353 44.1182 58.6884V61.4707H43.4693V60.8989H43.4363C43.3924 60.9905 43.319 61.0886 43.2164 61.193C43.1138 61.2975 42.9772 61.3864 42.8068 61.4597C42.6363 61.533 42.4283 61.5697 42.1827 61.5697ZM42.2817 60.9868C42.5383 60.9868 42.7545 60.9364 42.9305 60.8356C43.1083 60.7348 43.2421 60.6047 43.3319 60.4452C43.4235 60.2858 43.4693 60.1181 43.4693 59.9421V59.3483C43.4418 59.3813 43.3814 59.4115 43.2879 59.439C43.1962 59.4647 43.0899 59.4876 42.969 59.5077C42.8498 59.5261 42.7334 59.5426 42.6198 59.5572C42.508 59.57 42.4173 59.581 42.3476 59.5902C42.179 59.6122 42.0214 59.6479 41.8748 59.6974C41.73 59.7451 41.6127 59.8175 41.5229 59.9146C41.4349 60.0099 41.3909 60.1401 41.3909 60.305C41.3909 60.5305 41.4743 60.7009 41.6411 60.8164C41.8097 60.93 42.0232 60.9868 42.2817 60.9868ZM47.2581 61.4707V55.8402H47.9399V58.3475H50.9421V55.8402H51.624V61.4707H50.9421V58.9524H47.9399V61.4707H47.2581ZM54.4617 61.5587C54.0805 61.5587 53.746 61.468 53.4582 61.2865C53.1723 61.1051 52.9487 60.8512 52.7874 60.525C52.6279 60.1987 52.5482 59.8175 52.5482 59.3813C52.5482 58.9414 52.6279 58.5574 52.7874 58.2293C52.9487 57.9012 53.1723 57.6465 53.4582 57.465C53.746 57.2836 54.0805 57.1928 54.4617 57.1928C54.8429 57.1928 55.1765 57.2836 55.4624 57.465C55.7502 57.6465 55.9738 57.9012 56.1333 58.2293C56.2945 58.5574 56.3752 58.9414 56.3752 59.3813C56.3752 59.8175 56.2945 60.1987 56.1333 60.525C55.9738 60.8512 55.7502 61.1051 55.4624 61.2865C55.1765 61.468 54.8429 61.5587 54.4617 61.5587ZM54.4617 60.9758C54.7513 60.9758 54.9896 60.9016 55.1765 60.7531C55.3635 60.6047 55.5018 60.4095 55.5916 60.1676C55.6815 59.9256 55.7264 59.6635 55.7264 59.3813C55.7264 59.099 55.6815 58.836 55.5916 58.5922C55.5018 58.3485 55.3635 58.1514 55.1765 58.0011C54.9896 57.8508 54.7513 57.7757 54.4617 57.7757C54.1721 57.7757 53.9338 57.8508 53.7469 58.0011C53.5599 58.1514 53.4216 58.3485 53.3318 58.5922C53.2419 58.836 53.197 59.099 53.197 59.3813C53.197 59.6635 53.2419 59.9256 53.3318 60.1676C53.4216 60.4095 53.5599 60.6047 53.7469 60.7531C53.9338 60.9016 54.1721 60.9758 54.4617 60.9758ZM59.0473 57.2478V57.7977H56.8589V57.2478H59.0473ZM57.4967 56.2361H58.1455V60.261C58.1455 60.4443 58.1721 60.5818 58.2253 60.6734C58.2802 60.7632 58.3499 60.8237 58.4342 60.8549C58.5203 60.8842 58.6111 60.8989 58.7064 60.8989C58.7779 60.8989 58.8365 60.8952 58.8823 60.8879C58.9282 60.8787 58.9648 60.8714 58.9923 60.8659L59.1243 61.4487C59.0803 61.4652 59.0189 61.4817 58.9401 61.4982C58.8613 61.5165 58.7614 61.5257 58.6404 61.5257C58.4571 61.5257 58.2775 61.4863 58.1015 61.4075C57.9274 61.3287 57.7826 61.2086 57.6672 61.0473C57.5535 60.886 57.4967 60.6826 57.4967 60.437V56.2361ZM66.5098 57.5997H65.828C65.7876 57.4036 65.7171 57.2313 65.6163 57.0829C65.5173 56.9344 65.3963 56.8098 65.2534 56.709C65.1122 56.6063 64.9555 56.5294 64.7832 56.478C64.611 56.4267 64.4313 56.4011 64.2444 56.4011C63.9035 56.4011 63.5946 56.4872 63.3179 56.6595C63.043 56.8318 62.8239 57.0856 62.6608 57.421C62.4995 57.7564 62.4189 58.1679 62.4189 58.6555C62.4189 59.143 62.4995 59.5545 62.6608 59.8899C62.8239 60.2253 63.043 60.4791 63.3179 60.6514C63.5946 60.8237 63.9035 60.9099 64.2444 60.9099C64.4313 60.9099 64.611 60.8842 64.7832 60.8329C64.9555 60.7816 65.1122 60.7055 65.2534 60.6047C65.3963 60.502 65.5173 60.3765 65.6163 60.228C65.7171 60.0777 65.7876 59.9055 65.828 59.7112H66.5098C66.4585 59.9989 66.365 60.2564 66.2294 60.4837C66.0937 60.711 65.9251 60.9044 65.7235 61.0638C65.5219 61.2214 65.2955 61.3415 65.0444 61.424C64.7952 61.5064 64.5285 61.5477 64.2444 61.5477C63.7642 61.5477 63.3371 61.4304 62.9632 61.1958C62.5893 60.9612 62.2952 60.6276 62.0807 60.195C61.8663 59.7625 61.7591 59.2493 61.7591 58.6555C61.7591 58.0616 61.8663 57.5484 62.0807 57.1159C62.2952 56.6833 62.5893 56.3497 62.9632 56.1151C63.3371 55.8805 63.7642 55.7632 64.2444 55.7632C64.5285 55.7632 64.7952 55.8045 65.0444 55.8869C65.2955 55.9694 65.5219 56.0904 65.7235 56.2498C65.9251 56.4075 66.0937 56.5999 66.2294 56.8272C66.365 57.0526 66.4585 57.3101 66.5098 57.5997ZM68.0176 58.9304V61.4707H67.3687V55.8402H68.0176V57.9077H68.0726C68.1715 57.6895 68.32 57.5163 68.5179 57.388C68.7177 57.2579 68.9835 57.1928 69.3152 57.1928C69.603 57.1928 69.855 57.2506 70.0713 57.366C70.2875 57.4797 70.4553 57.6547 70.5744 57.8912C70.6954 58.1258 70.7558 58.4245 70.7558 58.7874V61.4707H70.107V58.8314C70.107 58.496 70.0199 58.2366 69.8458 58.0534C69.6735 57.8682 69.4344 57.7757 69.1283 57.7757C68.9157 57.7757 68.725 57.8206 68.5564 57.9104C68.3896 58.0002 68.2577 58.1313 68.1605 58.3035C68.0652 58.4758 68.0176 58.6848 68.0176 58.9304ZM73.5035 61.5587C73.1223 61.5587 72.7878 61.468 72.5001 61.2865C72.2141 61.1051 71.9905 60.8512 71.8292 60.525C71.6698 60.1987 71.59 59.8175 71.59 59.3813C71.59 58.9414 71.6698 58.5574 71.8292 58.2293C71.9905 57.9012 72.2141 57.6465 72.5001 57.465C72.7878 57.2836 73.1223 57.1928 73.5035 57.1928C73.8848 57.1928 74.2183 57.2836 74.5043 57.465C74.792 57.6465 75.0156 57.9012 75.1751 58.2293C75.3364 58.5574 75.417 58.9414 75.417 59.3813C75.417 59.8175 75.3364 60.1987 75.1751 60.525C75.0156 60.8512 74.792 61.1051 74.5043 61.2865C74.2183 61.468 73.8848 61.5587 73.5035 61.5587ZM73.5035 60.9758C73.7931 60.9758 74.0314 60.9016 74.2183 60.7531C74.4053 60.6047 74.5437 60.4095 74.6335 60.1676C74.7233 59.9256 74.7682 59.6635 74.7682 59.3813C74.7682 59.099 74.7233 58.836 74.6335 58.5922C74.5437 58.3485 74.4053 58.1514 74.2183 58.0011C74.0314 57.8508 73.7931 57.7757 73.5035 57.7757C73.2139 57.7757 72.9757 57.8508 72.7887 58.0011C72.6018 58.1514 72.4634 58.3485 72.3736 58.5922C72.2838 58.836 72.2389 59.099 72.2389 59.3813C72.2389 59.6635 72.2838 59.9256 72.3736 60.1676C72.4634 60.4095 72.6018 60.6047 72.7887 60.7531C72.9757 60.9016 73.2139 60.9758 73.5035 60.9758ZM77.9682 61.5587C77.5723 61.5587 77.2313 61.4652 76.9454 61.2783C76.6595 61.0913 76.4396 60.8338 76.2856 60.5057C76.1316 60.1776 76.0547 59.8028 76.0547 59.3813C76.0547 58.9524 76.1335 58.5739 76.2911 58.2458C76.4506 57.9159 76.6723 57.6584 76.9564 57.4733C77.2423 57.2863 77.5759 57.1928 77.9572 57.1928C78.2541 57.1928 78.5217 57.2478 78.7599 57.3578C78.9982 57.4678 79.1934 57.6217 79.3455 57.8197C79.4977 58.0176 79.5921 58.2486 79.6287 58.5125H78.9799C78.9304 58.32 78.8204 58.1496 78.65 58.0011C78.4813 57.8508 78.2541 57.7757 77.9682 57.7757C77.7152 57.7757 77.4934 57.8417 77.3028 57.9736C77.114 58.1038 76.9665 58.288 76.8602 58.5262C76.7557 58.7627 76.7035 59.0404 76.7035 59.3593C76.7035 59.6855 76.7548 59.9696 76.8574 60.2115C76.9619 60.4535 77.1085 60.6413 77.2973 60.7751C77.4879 60.9089 77.7116 60.9758 77.9682 60.9758C78.1368 60.9758 78.2898 60.9465 78.4273 60.8879C78.5647 60.8292 78.6811 60.7449 78.7764 60.6349C78.8717 60.525 78.9396 60.393 78.9799 60.239H79.6287C79.5921 60.4883 79.5013 60.7128 79.3565 60.9126C79.2136 61.1105 79.0239 61.2682 78.7874 61.3855C78.5528 61.5009 78.2797 61.5587 77.9682 61.5587ZM82.1379 61.5587C81.7567 61.5587 81.4222 61.468 81.1344 61.2865C80.8485 61.1051 80.6249 60.8512 80.4636 60.525C80.3041 60.1987 80.2244 59.8175 80.2244 59.3813C80.2244 58.9414 80.3041 58.5574 80.4636 58.2293C80.6249 57.9012 80.8485 57.6465 81.1344 57.465C81.4222 57.2836 81.7567 57.1928 82.1379 57.1928C82.5191 57.1928 82.8527 57.2836 83.1386 57.465C83.4264 57.6465 83.65 57.9012 83.8095 58.2293C83.9708 58.5574 84.0514 58.9414 84.0514 59.3813C84.0514 59.8175 83.9708 60.1987 83.8095 60.525C83.65 60.8512 83.4264 61.1051 83.1386 61.2865C82.8527 61.468 82.5191 61.5587 82.1379 61.5587ZM82.1379 60.9758C82.4275 60.9758 82.6658 60.9016 82.8527 60.7531C83.0397 60.6047 83.178 60.4095 83.2679 60.1676C83.3577 59.9256 83.4026 59.6635 83.4026 59.3813C83.4026 59.099 83.3577 58.836 83.2679 58.5922C83.178 58.3485 83.0397 58.1514 82.8527 58.0011C82.6658 57.8508 82.4275 57.7757 82.1379 57.7757C81.8483 57.7757 81.6101 57.8508 81.4231 58.0011C81.2362 58.1514 81.0978 58.3485 81.008 58.5922C80.9182 58.836 80.8732 59.099 80.8732 59.3813C80.8732 59.6635 80.9182 59.9256 81.008 60.1676C81.0978 60.4095 81.2362 60.6047 81.4231 60.7531C81.6101 60.9016 81.8483 60.9758 82.1379 60.9758ZM85.5358 55.8402V61.4707H84.887V55.8402H85.5358ZM87.812 61.5697C87.5444 61.5697 87.3016 61.5193 87.0835 61.4185C86.8653 61.3158 86.6921 61.1683 86.5638 60.9758C86.4355 60.7816 86.3714 60.5469 86.3714 60.272C86.3714 60.0301 86.4191 59.834 86.5144 59.6837C86.6097 59.5316 86.737 59.4124 86.8965 59.3263C87.056 59.2401 87.2319 59.176 87.4244 59.1338C87.6186 59.0898 87.8138 59.055 88.01 59.0294C88.2666 58.9964 88.4746 58.9716 88.634 58.9551C88.7953 58.9368 88.9126 58.9066 88.9859 58.8644C89.0611 58.8222 89.0987 58.7489 89.0987 58.6445V58.6225C89.0987 58.3512 89.0244 58.1404 88.876 57.9901C88.7294 57.8398 88.5067 57.7647 88.2079 57.7647C87.8982 57.7647 87.6553 57.8325 87.4794 57.9681C87.3034 58.1038 87.1797 58.2486 87.1082 58.4025L86.4924 58.1826C86.6023 57.926 86.749 57.7262 86.9322 57.5832C87.1174 57.4384 87.319 57.3376 87.5371 57.2808C87.757 57.2222 87.9733 57.1928 88.1859 57.1928C88.3215 57.1928 88.4773 57.2093 88.6533 57.2423C88.8311 57.2735 89.0024 57.3386 89.1674 57.4375C89.3342 57.5365 89.4726 57.6859 89.5825 57.8857C89.6925 58.0854 89.7475 58.353 89.7475 58.6884V61.4707H89.0987V60.8989H89.0657C89.0217 60.9905 88.9484 61.0886 88.8457 61.193C88.7431 61.2975 88.6066 61.3864 88.4361 61.4597C88.2656 61.533 88.0576 61.5697 87.812 61.5697ZM87.911 60.9868C88.1676 60.9868 88.3839 60.9364 88.5598 60.8356C88.7376 60.7348 88.8714 60.6047 88.9612 60.4452C89.0528 60.2858 89.0987 60.1181 89.0987 59.9421V59.3483C89.0712 59.3813 89.0107 59.4115 88.9172 59.439C88.8256 59.4647 88.7193 59.4876 88.5983 59.5077C88.4792 59.5261 88.3628 59.5426 88.2491 59.5572C88.1373 59.57 88.0466 59.581 87.977 59.5902C87.8083 59.6122 87.6507 59.6479 87.5041 59.6974C87.3593 59.7451 87.242 59.8175 87.1522 59.9146C87.0642 60.0099 87.0202 60.1401 87.0202 60.305C87.0202 60.5305 87.1036 60.7009 87.2704 60.8164C87.439 60.93 87.6526 60.9868 87.911 60.9868ZM92.6134 57.2478V57.7977H90.425V57.2478H92.6134ZM91.0628 56.2361H91.7117V60.261C91.7117 60.4443 91.7382 60.5818 91.7914 60.6734C91.8464 60.7632 91.916 60.8237 92.0003 60.8549C92.0865 60.8842 92.1772 60.8989 92.2725 60.8989C92.344 60.8989 92.4026 60.8952 92.4485 60.8879C92.4943 60.8787 92.5309 60.8714 92.5584 60.8659L92.6904 61.4487C92.6464 61.4652 92.585 61.4817 92.5062 61.4982C92.4274 61.5165 92.3275 61.5257 92.2065 61.5257C92.0232 61.5257 91.8436 61.4863 91.6677 61.4075C91.4935 61.3287 91.3487 61.2086 91.2333 61.0473C91.1196 60.886 91.0628 60.6826 91.0628 60.437V56.2361ZM95.1597 61.5587C94.7528 61.5587 94.4018 61.4689 94.1068 61.2893C93.8135 61.1078 93.5871 60.8549 93.4277 60.5305C93.2701 60.2042 93.1913 59.8248 93.1913 59.3923C93.1913 58.9597 93.2701 58.5785 93.4277 58.2486C93.5871 57.9168 93.8089 57.6584 94.093 57.4733C94.3789 57.2863 94.7125 57.1928 95.0937 57.1928C95.3137 57.1928 95.5309 57.2295 95.7453 57.3028C95.9598 57.3761 96.155 57.4953 96.3309 57.6602C96.5069 57.8233 96.6471 58.0396 96.7516 58.309C96.856 58.5785 96.9083 58.9102 96.9083 59.3043V59.5792H93.6531V59.0184H96.2484C96.2484 58.7801 96.2008 58.5675 96.1055 58.3805C96.012 58.1936 95.8782 58.046 95.7041 57.9379C95.5318 57.8298 95.3283 57.7757 95.0937 57.7757C94.8353 57.7757 94.6117 57.8398 94.4229 57.9681C94.236 58.0946 94.0921 58.2596 93.9913 58.463C93.8905 58.6665 93.8401 58.8846 93.8401 59.1173V59.4912C93.8401 59.8101 93.8951 60.0805 94.005 60.3023C94.1168 60.5222 94.2717 60.6899 94.4697 60.8054C94.6676 60.919 94.8976 60.9758 95.1597 60.9758C95.3302 60.9758 95.4841 60.952 95.6216 60.9044C95.7609 60.8549 95.881 60.7816 95.9818 60.6844C96.0826 60.5854 96.1605 60.4626 96.2154 60.316L96.8423 60.492C96.7763 60.7046 96.6654 60.8915 96.5096 61.0528C96.3538 61.2123 96.1614 61.3369 95.9323 61.4267C95.7032 61.5147 95.4457 61.5587 95.1597 61.5587ZM99.851 61.4707V55.8402H101.819C102.212 55.8402 102.535 55.908 102.79 56.0437C103.045 56.1774 103.234 56.358 103.359 56.5853C103.484 56.8107 103.546 57.0609 103.546 57.3358C103.546 57.5777 103.503 57.7775 103.417 57.9351C103.332 58.0928 103.221 58.2174 103.081 58.309C102.944 58.4007 102.795 58.4685 102.633 58.5125V58.5675C102.806 58.5785 102.979 58.639 103.153 58.7489C103.327 58.8589 103.473 59.0165 103.59 59.2218C103.707 59.4271 103.766 59.6782 103.766 59.9751C103.766 60.2574 103.702 60.5112 103.573 60.7366C103.445 60.9621 103.243 61.1408 102.966 61.2728C102.689 61.4047 102.329 61.4707 101.885 61.4707H99.851ZM100.533 60.8659H101.885C102.331 60.8659 102.647 60.7797 102.834 60.6074C103.023 60.4333 103.117 60.2225 103.117 59.9751C103.117 59.7845 103.069 59.6085 102.971 59.4472C102.874 59.2841 102.736 59.154 102.556 59.0568C102.377 58.9579 102.164 58.9084 101.918 58.9084H100.533V60.8659ZM100.533 58.3145H101.797C102.003 58.3145 102.188 58.2742 102.353 58.1936C102.52 58.1129 102.652 57.9993 102.749 57.8527C102.848 57.706 102.897 57.5338 102.897 57.3358C102.897 57.0884 102.811 56.8785 102.639 56.7062C102.466 56.5321 102.193 56.445 101.819 56.445H100.533V58.3145ZM105.061 63.0543C104.951 63.0543 104.853 63.0451 104.767 63.0268C104.681 63.0103 104.621 62.9938 104.588 62.9773L104.753 62.4055C104.911 62.4458 105.05 62.4604 105.171 62.4494C105.292 62.4384 105.399 62.3844 105.493 62.2872C105.588 62.1919 105.675 62.0371 105.754 61.8226L105.875 61.4927L104.314 57.2478H105.017L106.183 60.6129H106.227L107.393 57.2478H108.097L106.304 62.0865C106.223 62.3046 106.123 62.4852 106.004 62.6281C105.885 62.7729 105.747 62.8802 105.589 62.9498C105.433 63.0195 105.257 63.0543 105.061 63.0543ZM110.909 61.4707V55.8402H112.811C113.253 55.8402 113.614 55.9199 113.894 56.0794C114.177 56.237 114.386 56.4505 114.521 56.72C114.657 56.9894 114.725 57.29 114.725 57.6217C114.725 57.9535 114.657 58.255 114.521 58.5262C114.387 58.7975 114.18 59.0138 113.9 59.1751C113.619 59.3345 113.26 59.4143 112.822 59.4143H111.458V58.8094H112.8C113.103 58.8094 113.345 58.7572 113.529 58.6527C113.712 58.5482 113.845 58.4071 113.927 58.2293C114.012 58.0497 114.054 57.8472 114.054 57.6217C114.054 57.3963 114.012 57.1947 113.927 57.0169C113.845 56.8391 113.711 56.6998 113.526 56.599C113.341 56.4964 113.095 56.445 112.789 56.445H111.59V61.4707H110.909ZM116.823 61.5697C116.555 61.5697 116.312 61.5193 116.094 61.4185C115.876 61.3158 115.703 61.1683 115.575 60.9758C115.446 60.7816 115.382 60.5469 115.382 60.272C115.382 60.0301 115.43 59.834 115.525 59.6837C115.62 59.5316 115.748 59.4124 115.907 59.3263C116.067 59.2401 116.243 59.176 116.435 59.1338C116.629 59.0898 116.825 59.055 117.021 59.0294C117.277 58.9964 117.485 58.9716 117.645 58.9551C117.806 58.9368 117.923 58.9066 117.997 58.8644C118.072 58.8222 118.109 58.7489 118.109 58.6445V58.6225C118.109 58.3512 118.035 58.1404 117.887 57.9901C117.74 57.8398 117.517 57.7647 117.219 57.7647C116.909 57.7647 116.666 57.8325 116.49 57.9681C116.314 58.1038 116.19 58.2486 116.119 58.4025L115.503 58.1826C115.613 57.926 115.76 57.7262 115.943 57.5832C116.128 57.4384 116.33 57.3376 116.548 57.2808C116.768 57.2222 116.984 57.1928 117.197 57.1928C117.332 57.1928 117.488 57.2093 117.664 57.2423C117.842 57.2735 118.013 57.3386 118.178 57.4375C118.345 57.5365 118.483 57.6859 118.593 57.8857C118.703 58.0854 118.758 58.353 118.758 58.6884V61.4707H118.109V60.8989H118.076C118.032 60.9905 117.959 61.0886 117.857 61.193C117.754 61.2975 117.617 61.3864 117.447 61.4597C117.276 61.533 117.068 61.5697 116.823 61.5697ZM116.922 60.9868C117.178 60.9868 117.395 60.9364 117.571 60.8356C117.748 60.7348 117.882 60.6047 117.972 60.4452C118.064 60.2858 118.109 60.1181 118.109 59.9421V59.3483C118.082 59.3813 118.021 59.4115 117.928 59.439C117.836 59.4647 117.73 59.4876 117.609 59.5077C117.49 59.5261 117.374 59.5426 117.26 59.5572C117.148 59.57 117.057 59.581 116.988 59.5902C116.819 59.6122 116.662 59.6479 116.515 59.6974C116.37 59.7451 116.253 59.8175 116.163 59.9146C116.075 60.0099 116.031 60.1401 116.031 60.305C116.031 60.5305 116.114 60.7009 116.281 60.8164C116.45 60.93 116.663 60.9868 116.922 60.9868ZM119.788 61.4707V57.2478H120.415V57.8857H120.459C120.535 57.6767 120.675 57.5072 120.876 57.377C121.078 57.2469 121.305 57.1818 121.558 57.1818C121.606 57.1818 121.665 57.1828 121.737 57.1846C121.808 57.1864 121.862 57.1892 121.899 57.1928V57.8527C121.877 57.8472 121.827 57.8389 121.748 57.8279C121.671 57.8151 121.589 57.8087 121.503 57.8087C121.298 57.8087 121.115 57.8518 120.953 57.9379C120.794 58.0222 120.667 58.1395 120.574 58.2898C120.482 58.4383 120.437 58.6078 120.437 58.7984V61.4707H119.788ZM122.513 61.4707V57.2478H123.162V61.4707H122.513ZM122.843 56.544C122.717 56.544 122.608 56.5009 122.516 56.4148C122.426 56.3287 122.381 56.2251 122.381 56.1041C122.381 55.9832 122.426 55.8796 122.516 55.7935C122.608 55.7073 122.717 55.6643 122.843 55.6643C122.97 55.6643 123.078 55.7073 123.168 55.7935C123.259 55.8796 123.305 55.9832 123.305 56.1041C123.305 56.2251 123.259 56.3287 123.168 56.4148C123.078 56.5009 122.97 56.544 122.843 56.544ZM127.187 58.1936L126.604 58.3585C126.567 58.2614 126.513 58.167 126.442 58.0754C126.372 57.9819 126.277 57.9049 126.156 57.8444C126.035 57.7839 125.88 57.7537 125.691 57.7537C125.433 57.7537 125.218 57.8133 125.045 57.9324C124.875 58.0497 124.79 58.1991 124.79 58.3805C124.79 58.5418 124.848 58.6692 124.966 58.7627C125.083 58.8562 125.266 58.934 125.515 58.9964L126.142 59.1503C126.52 59.242 126.801 59.3822 126.986 59.571C127.171 59.7579 127.264 59.9989 127.264 60.294C127.264 60.536 127.194 60.7522 127.055 60.9428C126.918 61.1335 126.725 61.2838 126.478 61.3937C126.23 61.5037 125.942 61.5587 125.614 61.5587C125.184 61.5587 124.827 61.4652 124.545 61.2783C124.263 61.0913 124.084 60.8182 124.009 60.459L124.625 60.305C124.683 60.5323 124.794 60.7027 124.957 60.8164C125.122 60.93 125.338 60.9868 125.603 60.9868C125.906 60.9868 126.146 60.9227 126.324 60.7944C126.503 60.6643 126.593 60.5085 126.593 60.327C126.593 60.1804 126.542 60.0576 126.439 59.9586C126.337 59.8578 126.179 59.7827 125.966 59.7332L125.262 59.5682C124.876 59.4766 124.592 59.3345 124.41 59.1421C124.231 58.9478 124.141 58.7049 124.141 58.4135C124.141 58.1752 124.208 57.9645 124.341 57.7812C124.477 57.5979 124.661 57.454 124.894 57.3496C125.129 57.2451 125.394 57.1928 125.691 57.1928C126.109 57.1928 126.437 57.2845 126.676 57.4678C126.916 57.6511 127.086 57.893 127.187 58.1936ZM134.727 57.5997H134.045C134.005 57.4036 133.934 57.2313 133.834 57.0829C133.735 56.9344 133.614 56.8098 133.471 56.709C133.33 56.6063 133.173 56.5294 133.001 56.478C132.828 56.4267 132.649 56.4011 132.462 56.4011C132.121 56.4011 131.812 56.4872 131.535 56.6595C131.26 56.8318 131.041 57.0856 130.878 57.421C130.717 57.7564 130.636 58.1679 130.636 58.6555C130.636 59.143 130.717 59.5545 130.878 59.8899C131.041 60.2253 131.26 60.4791 131.535 60.6514C131.812 60.8237 132.121 60.9099 132.462 60.9099C132.649 60.9099 132.828 60.8842 133.001 60.8329C133.173 60.7816 133.33 60.7055 133.471 60.6047C133.614 60.502 133.735 60.3765 133.834 60.228C133.934 60.0777 134.005 59.9055 134.045 59.7112H134.727C134.676 59.9989 134.582 60.2564 134.447 60.4837C134.311 60.711 134.142 60.9044 133.941 61.0638C133.739 61.2214 133.513 61.3415 133.262 61.424C133.012 61.5064 132.746 61.5477 132.462 61.5477C131.982 61.5477 131.554 61.4304 131.181 61.1958C130.807 60.9612 130.512 60.6276 130.298 60.195C130.084 59.7625 129.976 59.2493 129.976 58.6555C129.976 58.0616 130.084 57.5484 130.298 57.1159C130.512 56.6833 130.807 56.3497 131.181 56.1151C131.554 55.8805 131.982 55.7632 132.462 55.7632C132.746 55.7632 133.012 55.8045 133.262 55.8869C133.513 55.9694 133.739 56.0904 133.941 56.2498C134.142 56.4075 134.311 56.5999 134.447 56.8272C134.582 57.0526 134.676 57.3101 134.727 57.5997ZM135.586 61.4707V57.2478H136.213V57.8857H136.257C136.334 57.6767 136.473 57.5072 136.675 57.377C136.876 57.2469 137.104 57.1818 137.357 57.1818C137.404 57.1818 137.464 57.1828 137.535 57.1846C137.607 57.1864 137.661 57.1892 137.698 57.1928V57.8527C137.676 57.8472 137.625 57.8389 137.546 57.8279C137.469 57.8151 137.388 57.8087 137.302 57.8087C137.096 57.8087 136.913 57.8518 136.752 57.9379C136.592 58.0222 136.466 58.1395 136.372 58.2898C136.281 58.4383 136.235 58.6078 136.235 58.7984V61.4707H135.586ZM139.954 61.5587C139.547 61.5587 139.196 61.4689 138.901 61.2893C138.608 61.1078 138.381 60.8549 138.222 60.5305C138.064 60.2042 137.985 59.8248 137.985 59.3923C137.985 58.9597 138.064 58.5785 138.222 58.2486C138.381 57.9168 138.603 57.6584 138.887 57.4733C139.173 57.2863 139.507 57.1928 139.888 57.1928C140.108 57.1928 140.325 57.2295 140.539 57.3028C140.754 57.3761 140.949 57.4953 141.125 57.6602C141.301 57.8233 141.441 58.0396 141.546 58.309C141.65 58.5785 141.702 58.9102 141.702 59.3043V59.5792H138.447V59.0184H141.042C141.042 58.7801 140.995 58.5675 140.9 58.3805C140.806 58.1936 140.672 58.046 140.498 57.9379C140.326 57.8298 140.122 57.7757 139.888 57.7757C139.629 57.7757 139.406 57.8398 139.217 57.9681C139.03 58.0946 138.886 58.2596 138.785 58.463C138.685 58.6665 138.634 58.8846 138.634 59.1173V59.4912C138.634 59.8101 138.689 60.0805 138.799 60.3023C138.911 60.5222 139.066 60.6899 139.264 60.8054C139.462 60.919 139.692 60.9758 139.954 60.9758C140.124 60.9758 140.278 60.952 140.416 60.9044C140.555 60.8549 140.675 60.7816 140.776 60.6844C140.877 60.5854 140.955 60.4626 141.009 60.316L141.636 60.492C141.57 60.7046 141.459 60.8915 141.304 61.0528C141.148 61.2123 140.955 61.3369 140.726 61.4267C140.497 61.5147 140.24 61.5587 139.954 61.5587ZM142.534 63.0543V57.2478H143.161V57.9187H143.238C143.286 57.8453 143.352 57.7519 143.436 57.6382C143.522 57.5228 143.645 57.4201 143.805 57.3303C143.966 57.2387 144.184 57.1928 144.459 57.1928C144.815 57.1928 145.128 57.2817 145.399 57.4595C145.67 57.6373 145.882 57.8893 146.034 58.2156C146.186 58.5418 146.262 58.9267 146.262 59.3703C146.262 59.8175 146.186 60.2051 146.034 60.5332C145.882 60.8594 145.671 61.1124 145.402 61.292C145.133 61.4698 144.822 61.5587 144.47 61.5587C144.199 61.5587 143.981 61.5138 143.818 61.424C143.655 61.3323 143.53 61.2288 143.442 61.1133C143.354 60.996 143.286 60.8989 143.238 60.8219H143.183V63.0543H142.534ZM143.172 59.3593C143.172 59.6782 143.219 59.9595 143.313 60.2033C143.406 60.4452 143.543 60.6349 143.722 60.7724C143.902 60.908 144.122 60.9758 144.382 60.9758C144.653 60.9758 144.88 60.9044 145.061 60.7614C145.244 60.6166 145.382 60.4223 145.473 60.1785C145.567 59.9329 145.614 59.6599 145.614 59.3593C145.614 59.0623 145.568 58.7948 145.476 58.5565C145.386 58.3164 145.25 58.1267 145.067 57.9874C144.885 57.8463 144.657 57.7757 144.382 57.7757C144.118 57.7757 143.896 57.8426 143.717 57.9764C143.537 58.1083 143.401 58.2935 143.31 58.5317C143.218 58.7682 143.172 59.044 143.172 59.3593ZM148.868 61.5587C148.461 61.5587 148.11 61.4689 147.815 61.2893C147.522 61.1078 147.295 60.8549 147.136 60.5305C146.978 60.2042 146.899 59.8248 146.899 59.3923C146.899 58.9597 146.978 58.5785 147.136 58.2486C147.295 57.9168 147.517 57.6584 147.801 57.4733C148.087 57.2863 148.421 57.1928 148.802 57.1928C149.022 57.1928 149.239 57.2295 149.453 57.3028C149.668 57.3761 149.863 57.4953 150.039 57.6602C150.215 57.8233 150.355 58.0396 150.46 58.309C150.564 58.5785 150.616 58.9102 150.616 59.3043V59.5792H147.361V59.0184H149.957C149.957 58.7801 149.909 58.5675 149.814 58.3805C149.72 58.1936 149.586 58.046 149.412 57.9379C149.24 57.8298 149.037 57.7757 148.802 57.7757C148.543 57.7757 148.32 57.8398 148.131 57.9681C147.944 58.0946 147.8 58.2596 147.699 58.463C147.599 58.6665 147.548 58.8846 147.548 59.1173V59.4912C147.548 59.8101 147.603 60.0805 147.713 60.3023C147.825 60.5222 147.98 60.6899 148.178 60.8054C148.376 60.919 148.606 60.9758 148.868 60.9758C149.038 60.9758 149.192 60.952 149.33 60.9044C149.469 60.8549 149.589 60.7816 149.69 60.6844C149.791 60.5854 149.869 60.4626 149.924 60.316L150.55 60.492C150.484 60.7046 150.374 60.8915 150.218 61.0528C150.062 61.2123 149.87 61.3369 149.64 61.4267C149.411 61.5147 149.154 61.5587 148.868 61.5587ZM151.449 61.4707V57.2478H152.075V57.8857H152.119C152.196 57.6767 152.336 57.5072 152.537 57.377C152.739 57.2469 152.966 57.1818 153.219 57.1818C153.267 57.1818 153.326 57.1828 153.398 57.1846C153.469 57.1864 153.523 57.1892 153.56 57.1928V57.8527C153.538 57.8472 153.488 57.8389 153.409 57.8279C153.332 57.8151 153.25 57.8087 153.164 57.8087C152.959 57.8087 152.776 57.8518 152.614 57.9379C152.455 58.0222 152.328 58.1395 152.235 58.2898C152.143 58.4383 152.097 58.6078 152.097 58.7984V61.4707H151.449ZM154.174 61.4707V57.2478H154.823V61.4707H154.174ZM154.504 56.544C154.378 56.544 154.269 56.5009 154.177 56.4148C154.087 56.3287 154.042 56.2251 154.042 56.1041C154.042 55.9832 154.087 55.8796 154.177 55.7935C154.269 55.7073 154.378 55.6643 154.504 55.6643C154.631 55.6643 154.739 55.7073 154.829 55.7935C154.92 55.8796 154.966 55.9832 154.966 56.1041C154.966 56.2251 154.92 56.3287 154.829 56.4148C154.739 56.5009 154.631 56.544 154.504 56.544ZM157.627 61.5587C157.22 61.5587 156.869 61.4689 156.574 61.2893C156.281 61.1078 156.055 60.8549 155.895 60.5305C155.738 60.2042 155.659 59.8248 155.659 59.3923C155.659 58.9597 155.738 58.5785 155.895 58.2486C156.055 57.9168 156.276 57.6584 156.56 57.4733C156.846 57.2863 157.18 57.1928 157.561 57.1928C157.781 57.1928 157.998 57.2295 158.213 57.3028C158.427 57.3761 158.622 57.4953 158.798 57.6602C158.974 57.8233 159.115 58.0396 159.219 58.309C159.323 58.5785 159.376 58.9102 159.376 59.3043V59.5792H156.121V59.0184H158.716C158.716 58.7801 158.668 58.5675 158.573 58.3805C158.479 58.1936 158.346 58.046 158.172 57.9379C157.999 57.8298 157.796 57.7757 157.561 57.7757C157.303 57.7757 157.079 57.8398 156.89 57.9681C156.703 58.0946 156.56 58.2596 156.459 58.463C156.358 58.6665 156.308 58.8846 156.308 59.1173V59.4912C156.308 59.8101 156.363 60.0805 156.472 60.3023C156.584 60.5222 156.739 60.6899 156.937 60.8054C157.135 60.919 157.365 60.9758 157.627 60.9758C157.798 60.9758 157.952 60.952 158.089 60.9044C158.228 60.8549 158.348 60.7816 158.449 60.6844C158.55 60.5854 158.628 60.4626 158.683 60.316L159.31 60.492C159.244 60.7046 159.133 60.8915 158.977 61.0528C158.821 61.2123 158.629 61.3369 158.4 61.4267C158.171 61.5147 157.913 61.5587 157.627 61.5587Z" fill="#4D4D4D"/>
<rect x="8" y="77" width="152" height="31" rx="8" fill="white"/>
<path d="M20.3739 90.7302V90.1254H24.5968V90.7302H22.8262V95.7559H22.1444V90.7302H20.3739ZM26.0551 93.2155V95.7559H25.4062V90.1254H26.0551V92.1928H26.1101C26.209 91.9747 26.3575 91.8015 26.5554 91.6732C26.7552 91.5431 27.021 91.478 27.3527 91.478C27.6405 91.478 27.8925 91.5357 28.1088 91.6512C28.325 91.7648 28.4928 91.9399 28.6119 92.1763C28.7329 92.4109 28.7933 92.7097 28.7933 93.0726V95.7559H28.1445V93.1166C28.1445 92.7812 28.0575 92.5218 27.8833 92.3385C27.711 92.1534 27.4719 92.0608 27.1658 92.0608C26.9532 92.0608 26.7625 92.1057 26.5939 92.1956C26.4271 92.2854 26.2952 92.4164 26.198 92.5887C26.1027 92.761 26.0551 92.9699 26.0551 93.2155ZM31.541 95.8438C31.1598 95.8438 30.8253 95.7531 30.5376 95.5717C30.2516 95.3902 30.028 95.1364 29.8667 94.8101C29.7073 94.4839 29.6275 94.1026 29.6275 93.6664C29.6275 93.2265 29.7073 92.8426 29.8667 92.5145C30.028 92.1864 30.2516 91.9316 30.5376 91.7502C30.8253 91.5687 31.1598 91.478 31.541 91.478C31.9223 91.478 32.2558 91.5687 32.5418 91.7502C32.8295 91.9316 33.0531 92.1864 33.2126 92.5145C33.3739 92.8426 33.4545 93.2265 33.4545 93.6664C33.4545 94.1026 33.3739 94.4839 33.2126 94.8101C33.0531 95.1364 32.8295 95.3902 32.5418 95.5717C32.2558 95.7531 31.9223 95.8438 31.541 95.8438ZM31.541 95.261C31.8306 95.261 32.0689 95.1868 32.2558 95.0383C32.4428 94.8898 32.5812 94.6946 32.671 94.4527C32.7608 94.2108 32.8057 93.9487 32.8057 93.6664C32.8057 93.3842 32.7608 93.1211 32.671 92.8774C32.5812 92.6336 32.4428 92.4366 32.2558 92.2863C32.0689 92.136 31.8306 92.0608 31.541 92.0608C31.2514 92.0608 31.0132 92.136 30.8262 92.2863C30.6393 92.4366 30.5009 92.6336 30.4111 92.8774C30.3213 93.1211 30.2764 93.3842 30.2764 93.6664C30.2764 93.9487 30.3213 94.2108 30.4111 94.4527C30.5009 94.6946 30.6393 94.8898 30.8262 95.0383C31.0132 95.1868 31.2514 95.261 31.541 95.261ZM34.2901 95.7559V91.533H34.9169V92.1928H34.9719C35.0599 91.9674 35.202 91.7923 35.3981 91.6677C35.5942 91.5412 35.8297 91.478 36.1046 91.478C36.3832 91.478 36.6151 91.5412 36.8002 91.6677C36.9871 91.7923 37.1329 91.9674 37.2373 92.1928H37.2813C37.3895 91.9747 37.5517 91.8015 37.7679 91.6732C37.9842 91.5431 38.2436 91.478 38.546 91.478C38.9235 91.478 39.2324 91.5962 39.4725 91.8327C39.7126 92.0673 39.8326 92.4329 39.8326 92.9296V95.7559H39.1838V92.9296C39.1838 92.618 39.0986 92.3953 38.9281 92.2615C38.7577 92.1277 38.557 92.0608 38.326 92.0608C38.0291 92.0608 37.7991 92.1507 37.636 92.3303C37.4728 92.5081 37.3913 92.7335 37.3913 93.0066V95.7559H36.7315V92.8636C36.7315 92.6235 36.6536 92.4302 36.4978 92.2835C36.342 92.1351 36.1413 92.0608 35.8957 92.0608C35.7271 92.0608 35.5694 92.1057 35.4228 92.1956C35.278 92.2854 35.1607 92.41 35.0709 92.5695C34.9829 92.7271 34.9389 92.9095 34.9389 93.1166V95.7559H34.2901ZM42.1068 95.8548C41.8392 95.8548 41.5963 95.8044 41.3782 95.7036C41.1601 95.601 40.9869 95.4534 40.8586 95.261C40.7303 95.0667 40.6662 94.8321 40.6662 94.5572C40.6662 94.3152 40.7138 94.1191 40.8091 93.9688C40.9044 93.8167 41.0318 93.6976 41.1913 93.6114C41.3507 93.5253 41.5267 93.4611 41.7191 93.419C41.9134 93.375 42.1086 93.3402 42.3047 93.3145C42.5613 93.2815 42.7693 93.2568 42.9288 93.2403C43.0901 93.222 43.2074 93.1917 43.2807 93.1496C43.3559 93.1074 43.3934 93.0341 43.3934 92.9296V92.9076C43.3934 92.6364 43.3192 92.4256 43.1707 92.2753C43.0241 92.125 42.8014 92.0498 42.5027 92.0498C42.1929 92.0498 41.9501 92.1177 41.7741 92.2533C41.5982 92.3889 41.4744 92.5337 41.403 92.6877L40.7871 92.4677C40.8971 92.2111 41.0437 92.0114 41.227 91.8684C41.4121 91.7236 41.6137 91.6228 41.8318 91.566C42.0518 91.5073 42.2681 91.478 42.4807 91.478C42.6163 91.478 42.7721 91.4945 42.948 91.5275C43.1258 91.5586 43.2972 91.6237 43.4622 91.7227C43.6289 91.8217 43.7673 91.971 43.8773 92.1708C43.9873 92.3706 44.0423 92.6382 44.0423 92.9736V95.7559H43.3934V95.184H43.3604C43.3164 95.2757 43.2431 95.3737 43.1405 95.4782C43.0379 95.5827 42.9013 95.6715 42.7309 95.7449C42.5604 95.8182 42.3524 95.8548 42.1068 95.8548ZM42.2057 95.272C42.4623 95.272 42.6786 95.2216 42.8546 95.1208C43.0324 95.02 43.1662 94.8898 43.256 94.7304C43.3476 94.5709 43.3934 94.4032 43.3934 94.2273V93.6334C43.3659 93.6664 43.3055 93.6967 43.212 93.7242C43.1203 93.7498 43.014 93.7727 42.8931 93.7929C42.7739 93.8112 42.6575 93.8277 42.5439 93.8424C42.4321 93.8552 42.3414 93.8662 42.2717 93.8754C42.1031 93.8974 41.9455 93.9331 41.7989 93.9826C41.6541 94.0302 41.5368 94.1026 41.4469 94.1998C41.359 94.2951 41.315 94.4252 41.315 94.5902C41.315 94.8156 41.3984 94.9861 41.5652 95.1015C41.7338 95.2152 41.9473 95.272 42.2057 95.272ZM48.0629 92.4787L47.48 92.6437C47.4434 92.5465 47.3893 92.4522 47.3178 92.3605C47.2482 92.267 47.1529 92.1901 47.0319 92.1296C46.9109 92.0691 46.756 92.0389 46.5673 92.0389C46.3088 92.0389 46.0935 92.0984 45.9212 92.2176C45.7507 92.3349 45.6655 92.4842 45.6655 92.6657C45.6655 92.827 45.7242 92.9544 45.8415 93.0478C45.9588 93.1413 46.142 93.2192 46.3913 93.2815L47.0181 93.4355C47.3957 93.5271 47.6771 93.6673 47.8622 93.8561C48.0473 94.0431 48.1398 94.2841 48.1398 94.5792C48.1398 94.8211 48.0702 95.0374 47.9309 95.228C47.7934 95.4186 47.601 95.5689 47.3536 95.6789C47.1061 95.7889 46.8184 95.8438 46.4903 95.8438C46.0596 95.8438 45.7031 95.7504 45.4208 95.5634C45.1386 95.3765 44.9599 95.1034 44.8847 94.7441L45.5005 94.5902C45.5592 94.8174 45.6701 94.9879 45.8332 95.1015C45.9982 95.2152 46.2135 95.272 46.4793 95.272C46.7817 95.272 47.0218 95.2078 47.1996 95.0795C47.3792 94.9494 47.469 94.7936 47.469 94.6122C47.469 94.4655 47.4177 94.3427 47.3151 94.2438C47.2124 94.143 47.0548 94.0678 46.8422 94.0183L46.1384 93.8534C45.7516 93.7617 45.4676 93.6197 45.2861 93.4272C45.1065 93.2329 45.0167 92.9901 45.0167 92.6987C45.0167 92.4604 45.0836 92.2496 45.2174 92.0663C45.353 91.8831 45.5372 91.7392 45.77 91.6347C46.0046 91.5302 46.2703 91.478 46.5673 91.478C46.9852 91.478 47.3132 91.5696 47.5515 91.7529C47.7916 91.9362 47.9621 92.1781 48.0629 92.4787Z" fill="#353FD7"/>
<path d="M53.2277 90.1254H53.9095V94.1503C53.9095 94.5095 53.8435 94.8147 53.7115 95.0658C53.5796 95.3169 53.3935 95.5075 53.1534 95.6376C52.9133 95.7678 52.6302 95.8328 52.3039 95.8328C51.996 95.8328 51.722 95.7769 51.4819 95.6651C51.2418 95.5515 51.053 95.3902 50.9155 95.1813C50.7781 94.9723 50.7093 94.724 50.7093 94.4362H51.3802C51.3802 94.5957 51.4196 94.735 51.4984 94.8541C51.579 94.9714 51.689 95.063 51.8283 95.129C51.9676 95.195 52.1261 95.228 52.3039 95.228C52.5 95.228 52.6668 95.1868 52.8043 95.1043C52.9417 95.0218 53.0462 94.9008 53.1177 94.7414C53.191 94.5801 53.2277 94.3831 53.2277 94.1503V90.1254ZM56.8036 95.8438C56.3967 95.8438 56.0457 95.754 55.7506 95.5744C55.4574 95.393 55.231 95.14 55.0715 94.8156C54.9139 94.4894 54.8351 94.11 54.8351 93.6774C54.8351 93.2449 54.9139 92.8636 55.0715 92.5337C55.231 92.202 55.4528 91.9435 55.7369 91.7584C56.0228 91.5715 56.3564 91.478 56.7376 91.478C56.9575 91.478 57.1747 91.5147 57.3892 91.588C57.6036 91.6613 57.7988 91.7804 57.9748 91.9454C58.1507 92.1085 58.2909 92.3248 58.3954 92.5942C58.4999 92.8636 58.5521 93.1954 58.5521 93.5894V93.8644H55.297V93.3035H57.8923C57.8923 93.0652 57.8446 92.8526 57.7493 92.6657C57.6559 92.4787 57.5221 92.3312 57.3479 92.2231C57.1756 92.1149 56.9722 92.0608 56.7376 92.0608C56.4792 92.0608 56.2556 92.125 56.0668 92.2533C55.8798 92.3798 55.736 92.5447 55.6351 92.7482C55.5343 92.9516 55.4839 93.1697 55.4839 93.4025V93.7764C55.4839 94.0953 55.5389 94.3656 55.6489 94.5874C55.7607 94.8074 55.9156 94.9751 56.1135 95.0905C56.3115 95.2042 56.5415 95.261 56.8036 95.261C56.974 95.261 57.128 95.2372 57.2655 95.1895C57.4048 95.14 57.5248 95.0667 57.6256 94.9696C57.7264 94.8706 57.8043 94.7478 57.8593 94.6012L58.4861 94.7771C58.4202 94.9897 58.3093 95.1767 58.1535 95.338C57.9977 95.4974 57.8052 95.6221 57.5761 95.7119C57.347 95.7998 57.0895 95.8438 56.8036 95.8438ZM61.2648 91.533V92.0828H58.9884V91.533H61.2648ZM59.6702 95.7559V90.9501C59.6702 90.7082 59.727 90.5066 59.8406 90.3453C59.9543 90.184 60.1018 90.063 60.2833 89.9824C60.4647 89.9018 60.6563 89.8614 60.8579 89.8614C61.0173 89.8614 61.1475 89.8743 61.2483 89.8999C61.3491 89.9256 61.4242 89.9494 61.4737 89.9714L61.2868 90.5323C61.2538 90.5213 61.2079 90.5075 61.1493 90.491C61.0925 90.4745 61.0173 90.4663 60.9239 90.4663C60.7094 90.4663 60.5545 90.5203 60.4592 90.6285C60.3658 90.7366 60.319 90.8952 60.319 91.1041V95.7559H59.6702ZM63.8997 91.533V92.0828H61.6234V91.533H63.8997ZM62.3052 95.7559V90.9501C62.3052 90.7082 62.362 90.5066 62.4756 90.3453C62.5893 90.184 62.7368 90.063 62.9183 89.9824C63.0997 89.9018 63.2912 89.8614 63.4929 89.8614C63.6523 89.8614 63.7824 89.8743 63.8832 89.8999C63.9841 89.9256 64.0592 89.9494 64.1087 89.9714L63.9217 90.5323C63.8887 90.5213 63.8429 90.5075 63.7843 90.491C63.7275 90.4745 63.6523 90.4663 63.5588 90.4663C63.3444 90.4663 63.1895 90.5203 63.0942 90.6285C63.0007 90.7366 62.954 90.8952 62.954 91.1041V95.7559H62.3052ZM66.2509 95.8438C65.844 95.8438 65.493 95.754 65.1979 95.5744C64.9046 95.393 64.6783 95.14 64.5188 94.8156C64.3612 94.4894 64.2824 94.11 64.2824 93.6774C64.2824 93.2449 64.3612 92.8636 64.5188 92.5337C64.6783 92.202 64.9001 91.9435 65.1841 91.7584C65.4701 91.5715 65.8036 91.478 66.1849 91.478C66.4048 91.478 66.622 91.5147 66.8365 91.588C67.0509 91.6613 67.2461 91.7804 67.422 91.9454C67.598 92.1085 67.7382 92.3248 67.8427 92.5942C67.9472 92.8636 67.9994 93.1954 67.9994 93.5894V93.8644H64.7443V93.3035H67.3396C67.3396 93.0652 67.2919 92.8526 67.1966 92.6657C67.1031 92.4787 66.9693 92.3312 66.7952 92.2231C66.6229 92.1149 66.4195 92.0608 66.1849 92.0608C65.9264 92.0608 65.7028 92.125 65.5141 92.2533C65.3271 92.3798 65.1832 92.5447 65.0824 92.7482C64.9816 92.9516 64.9312 93.1697 64.9312 93.4025V93.7764C64.9312 94.0953 64.9862 94.3656 65.0962 94.5874C65.208 94.8074 65.3628 94.9751 65.5608 95.0905C65.7587 95.2042 65.9888 95.261 66.2509 95.261C66.4213 95.261 66.5753 95.2372 66.7127 95.1895C66.852 95.14 66.9721 95.0667 67.0729 94.9696C67.1737 94.8706 67.2516 94.7478 67.3066 94.6012L67.9334 94.7771C67.8674 94.9897 67.7565 95.1767 67.6007 95.338C67.445 95.4974 67.2525 95.6221 67.0234 95.7119C66.7943 95.7998 66.5368 95.8438 66.2509 95.8438ZM68.8315 95.7559V91.533H69.4584V92.1708H69.5024C69.5793 91.9619 69.7186 91.7923 69.9203 91.6622C70.1219 91.5321 70.3491 91.467 70.6021 91.467C70.6497 91.467 70.7093 91.4679 70.7808 91.4698C70.8523 91.4716 70.9063 91.4743 70.943 91.478V92.1378C70.921 92.1323 70.8706 92.1241 70.7918 92.1131C70.7148 92.1003 70.6332 92.0938 70.5471 92.0938C70.3418 92.0938 70.1585 92.1369 69.9972 92.2231C69.8378 92.3074 69.7113 92.4247 69.6178 92.575C69.5262 92.7234 69.4804 92.893 69.4804 93.0836V95.7559H68.8315ZM74.5484 92.4787L73.9656 92.6437C73.9289 92.5465 73.8749 92.4522 73.8034 92.3605C73.7338 92.267 73.6384 92.1901 73.5175 92.1296C73.3965 92.0691 73.2416 92.0389 73.0528 92.0389C72.7944 92.0389 72.5791 92.0984 72.4068 92.2176C72.2363 92.3349 72.1511 92.4842 72.1511 92.6657C72.1511 92.827 72.2097 92.9544 72.327 93.0478C72.4443 93.1413 72.6276 93.2192 72.8769 93.2815L73.5037 93.4355C73.8813 93.5271 74.1626 93.6673 74.3478 93.8561C74.5329 94.0431 74.6254 94.2841 74.6254 94.5792C74.6254 94.8211 74.5558 95.0374 74.4165 95.228C74.279 95.4186 74.0866 95.5689 73.8391 95.6789C73.5917 95.7889 73.3039 95.8438 72.9759 95.8438C72.5452 95.8438 72.1887 95.7504 71.9064 95.5634C71.6241 95.3765 71.4454 95.1034 71.3703 94.7441L71.9861 94.5902C72.0448 94.8174 72.1557 94.9879 72.3188 95.1015C72.4838 95.2152 72.6991 95.272 72.9649 95.272C73.2673 95.272 73.5074 95.2078 73.6852 95.0795C73.8648 94.9494 73.9546 94.7936 73.9546 94.6122C73.9546 94.4655 73.9033 94.3427 73.8006 94.2438C73.698 94.143 73.5404 94.0678 73.3278 94.0183L72.624 93.8534C72.2372 93.7617 71.9531 93.6197 71.7717 93.4272C71.5921 93.2329 71.5023 92.9901 71.5023 92.6987C71.5023 92.4604 71.5692 92.2496 71.703 92.0663C71.8386 91.8831 72.0228 91.7392 72.2556 91.6347C72.4902 91.5302 72.7559 91.478 73.0528 91.478C73.4707 91.478 73.7988 91.5696 74.0371 91.7529C74.2772 91.9362 74.4476 92.1781 74.5484 92.4787ZM77.1628 95.8438C76.7816 95.8438 76.4471 95.7531 76.1593 95.5717C75.8734 95.3902 75.6498 95.1364 75.4885 94.8101C75.329 94.4839 75.2493 94.1026 75.2493 93.6664C75.2493 93.2265 75.329 92.8426 75.4885 92.5145C75.6498 92.1864 75.8734 91.9316 76.1593 91.7502C76.4471 91.5687 76.7816 91.478 77.1628 91.478C77.544 91.478 77.8776 91.5687 78.1635 91.7502C78.4513 91.9316 78.6749 92.1864 78.8344 92.5145C78.9957 92.8426 79.0763 93.2265 79.0763 93.6664C79.0763 94.1026 78.9957 94.4839 78.8344 94.8101C78.6749 95.1364 78.4513 95.3902 78.1635 95.5717C77.8776 95.7531 77.544 95.8438 77.1628 95.8438ZM77.1628 95.261C77.4524 95.261 77.6907 95.1868 77.8776 95.0383C78.0646 94.8898 78.2029 94.6946 78.2928 94.4527C78.3826 94.2108 78.4275 93.9487 78.4275 93.6664C78.4275 93.3842 78.3826 93.1211 78.2928 92.8774C78.2029 92.6336 78.0646 92.4366 77.8776 92.2863C77.6907 92.136 77.4524 92.0608 77.1628 92.0608C76.8732 92.0608 76.6349 92.136 76.448 92.2863C76.261 92.4366 76.1227 92.6336 76.0329 92.8774C75.9431 93.1211 75.8981 93.3842 75.8981 93.6664C75.8981 93.9487 75.9431 94.2108 76.0329 94.4527C76.1227 94.6946 76.261 94.8898 76.448 95.0383C76.6349 95.1868 76.8732 95.261 77.1628 95.261ZM80.5607 93.2155V95.7559H79.9119V91.533H80.5387V92.1928H80.5937C80.6927 91.9784 80.843 91.8061 81.0446 91.6759C81.2462 91.544 81.5065 91.478 81.8254 91.478C82.1113 91.478 82.3615 91.5367 82.5759 91.654C82.7904 91.7694 82.9572 91.9454 83.0763 92.1818C83.1954 92.4164 83.255 92.7133 83.255 93.0726V95.7559H82.6062V93.1166C82.6062 92.7848 82.52 92.5264 82.3477 92.3413C82.1754 92.1543 81.939 92.0608 81.6384 92.0608C81.4313 92.0608 81.2462 92.1057 81.0831 92.1956C80.9218 92.2854 80.7944 92.4164 80.7009 92.5887C80.6074 92.761 80.5607 92.9699 80.5607 93.2155ZM84.7586 95.7998C84.623 95.7998 84.5066 95.7513 84.4095 95.6541C84.3124 95.557 84.2638 95.4406 84.2638 95.305C84.2638 95.1693 84.3124 95.053 84.4095 94.9558C84.5066 94.8587 84.623 94.8101 84.7586 94.8101C84.8943 94.8101 85.0107 94.8587 85.1078 94.9558C85.2049 95.053 85.2535 95.1693 85.2535 95.305C85.2535 95.3948 85.2306 95.4773 85.1848 95.5524C85.1408 95.6276 85.0812 95.688 85.0061 95.7339C84.9328 95.7779 84.8503 95.7998 84.7586 95.7998ZM84.7586 92.6657C84.623 92.6657 84.5066 92.6171 84.4095 92.52C84.3124 92.4228 84.2638 92.3064 84.2638 92.1708C84.2638 92.0352 84.3124 91.9188 84.4095 91.8217C84.5066 91.7245 84.623 91.6759 84.7586 91.6759C84.8943 91.6759 85.0107 91.7245 85.1078 91.8217C85.2049 91.9188 85.2535 92.0352 85.2535 92.1708C85.2535 92.2606 85.2306 92.3431 85.1848 92.4182C85.1408 92.4934 85.0812 92.5539 85.0061 92.5997C84.9328 92.6437 84.8503 92.6657 84.7586 92.6657ZM88.0656 90.7302V90.1254H92.2885V90.7302H90.518V95.7559H89.8362V90.7302H88.0656ZM93.7468 93.2155V95.7559H93.098V90.1254H93.7468V92.1928H93.8018C93.9008 91.9747 94.0492 91.8015 94.2472 91.6732C94.4469 91.5431 94.7127 91.478 95.0445 91.478C95.3322 91.478 95.5842 91.5357 95.8005 91.6512C96.0168 91.7648 96.1845 91.9399 96.3036 92.1763C96.4246 92.4109 96.4851 92.7097 96.4851 93.0726V95.7559H95.8362V93.1166C95.8362 92.7812 95.7492 92.5218 95.5751 92.3385C95.4028 92.1534 95.1636 92.0608 94.8575 92.0608C94.6449 92.0608 94.4543 92.1057 94.2857 92.1956C94.1189 92.2854 93.9869 92.4164 93.8898 92.5887C93.7945 92.761 93.7468 92.9699 93.7468 93.2155ZM99.2878 95.8438C98.8809 95.8438 98.5299 95.754 98.2348 95.5744C97.9415 95.393 97.7152 95.14 97.5557 94.8156C97.3981 94.4894 97.3193 94.11 97.3193 93.6774C97.3193 93.2449 97.3981 92.8636 97.5557 92.5337C97.7152 92.202 97.9369 91.9435 98.221 91.7584C98.507 91.5715 98.8405 91.478 99.2218 91.478C99.4417 91.478 99.6589 91.5147 99.8733 91.588C100.088 91.6613 100.283 91.7804 100.459 91.9454C100.635 92.1085 100.775 92.3248 100.88 92.5942C100.984 92.8636 101.036 93.1954 101.036 93.5894V93.8644H97.7812V93.3035H100.376C100.376 93.0652 100.329 92.8526 100.234 92.6657C100.14 92.4787 100.006 92.3312 99.8321 92.2231C99.6598 92.1149 99.4564 92.0608 99.2218 92.0608C98.9633 92.0608 98.7397 92.125 98.551 92.2533C98.364 92.3798 98.2201 92.5447 98.1193 92.7482C98.0185 92.9516 97.9681 93.1697 97.9681 93.4025V93.7764C97.9681 94.0953 98.0231 94.3656 98.1331 94.5874C98.2449 94.8074 98.3997 94.9751 98.5977 95.0905C98.7956 95.2042 99.0257 95.261 99.2878 95.261C99.4582 95.261 99.6122 95.2372 99.7496 95.1895C99.8889 95.14 100.009 95.0667 100.11 94.9696C100.211 94.8706 100.288 94.7478 100.343 94.6012L100.97 94.7771C100.904 94.9897 100.793 95.1767 100.638 95.338C100.482 95.4974 100.289 95.6221 100.06 95.7119C99.8312 95.7998 99.5737 95.8438 99.2878 95.8438ZM104.21 95.7559H103.495L105.563 90.1254H106.266L108.334 95.7559H107.619L105.936 91.0161H105.892L104.21 95.7559ZM104.474 93.5564H107.355V94.1613H104.474V93.5564ZM108.968 95.7559V91.533H109.595V92.1708H109.639C109.716 91.9619 109.855 91.7923 110.057 91.6622C110.258 91.5321 110.486 91.467 110.739 91.467C110.786 91.467 110.846 91.4679 110.917 91.4698C110.989 91.4716 111.043 91.4743 111.079 91.478V92.1378C111.057 92.1323 111.007 92.1241 110.928 92.1131C110.851 92.1003 110.77 92.0938 110.684 92.0938C110.478 92.0938 110.295 92.1369 110.134 92.2231C109.974 92.3074 109.848 92.4247 109.754 92.575C109.663 92.7234 109.617 92.893 109.617 93.0836V95.7559H108.968ZM113.795 91.533V92.0828H111.606V91.533H113.795ZM112.244 90.5213H112.893V94.5462C112.893 94.7295 112.92 94.8669 112.973 94.9586C113.028 95.0484 113.097 95.1089 113.182 95.14C113.268 95.1693 113.359 95.184 113.454 95.184C113.525 95.184 113.584 95.1803 113.63 95.173C113.676 95.1639 113.712 95.1565 113.74 95.151L113.872 95.7339C113.828 95.7504 113.766 95.7669 113.688 95.7834C113.609 95.8017 113.509 95.8108 113.388 95.8108C113.205 95.8108 113.025 95.7714 112.849 95.6926C112.675 95.6138 112.53 95.4938 112.415 95.3325C112.301 95.1712 112.244 94.9677 112.244 94.7221V90.5213ZM118.354 95.8438C117.973 95.8438 117.638 95.7531 117.351 95.5717C117.065 95.3902 116.841 95.1364 116.68 94.8101C116.52 94.4839 116.441 94.1026 116.441 93.6664C116.441 93.2265 116.52 92.8426 116.68 92.5145C116.841 92.1864 117.065 91.9316 117.351 91.7502C117.638 91.5687 117.973 91.478 118.354 91.478C118.735 91.478 119.069 91.5687 119.355 91.7502C119.643 91.9316 119.866 92.1864 120.026 92.5145C120.187 92.8426 120.268 93.2265 120.268 93.6664C120.268 94.1026 120.187 94.4839 120.026 94.8101C119.866 95.1364 119.643 95.3902 119.355 95.5717C119.069 95.7531 118.735 95.8438 118.354 95.8438ZM118.354 95.261C118.644 95.261 118.882 95.1868 119.069 95.0383C119.256 94.8898 119.394 94.6946 119.484 94.4527C119.574 94.2108 119.619 93.9487 119.619 93.6664C119.619 93.3842 119.574 93.1211 119.484 92.8774C119.394 92.6336 119.256 92.4366 119.069 92.2863C118.882 92.136 118.644 92.0608 118.354 92.0608C118.065 92.0608 117.826 92.136 117.639 92.2863C117.452 92.4366 117.314 92.6336 117.224 92.8774C117.134 93.1211 117.089 93.3842 117.089 93.6664C117.089 93.9487 117.134 94.2108 117.224 94.4527C117.314 94.6946 117.452 94.8898 117.639 95.0383C117.826 95.1868 118.065 95.261 118.354 95.261ZM122.984 91.533V92.0828H120.707V91.533H122.984ZM121.389 95.7559V90.9501C121.389 90.7082 121.446 90.5066 121.56 90.3453C121.673 90.184 121.821 90.063 122.002 89.9824C122.184 89.9018 122.375 89.8614 122.577 89.8614C122.736 89.8614 122.866 89.8743 122.967 89.8999C123.068 89.9256 123.143 89.9494 123.193 89.9714L123.006 90.5323C122.973 90.5213 122.927 90.5075 122.868 90.491C122.811 90.4745 122.736 90.4663 122.643 90.4663C122.428 90.4663 122.273 90.5203 122.178 90.6285C122.085 90.7366 122.038 90.8952 122.038 91.1041V95.7559H121.389ZM125.849 95.7559V90.1254H127.751C128.193 90.1254 128.554 90.2051 128.834 90.3645C129.117 90.5222 129.326 90.7357 129.461 91.0051C129.597 91.2746 129.665 91.5751 129.665 91.9069C129.665 92.2386 129.597 92.5401 129.461 92.8114C129.327 93.0827 129.12 93.2989 128.84 93.4602C128.56 93.6197 128.2 93.6994 127.762 93.6994H126.399V93.0946H127.74C128.043 93.0946 128.286 93.0423 128.469 92.9379C128.652 92.8334 128.785 92.6923 128.867 92.5145C128.952 92.3349 128.994 92.1323 128.994 91.9069C128.994 91.6814 128.952 91.4798 128.867 91.302C128.785 91.1243 128.651 90.985 128.466 90.8842C128.281 90.7815 128.035 90.7302 127.729 90.7302H126.531V95.7559H125.849ZM132.19 95.8438C131.809 95.8438 131.475 95.7531 131.187 95.5717C130.901 95.3902 130.677 95.1364 130.516 94.8101C130.357 94.4839 130.277 94.1026 130.277 93.6664C130.277 93.2265 130.357 92.8426 130.516 92.5145C130.677 92.1864 130.901 91.9316 131.187 91.7502C131.475 91.5687 131.809 91.478 132.19 91.478C132.572 91.478 132.905 91.5687 133.191 91.7502C133.479 91.9316 133.703 92.1864 133.862 92.5145C134.023 92.8426 134.104 93.2265 134.104 93.6664C134.104 94.1026 134.023 94.4839 133.862 94.8101C133.703 95.1364 133.479 95.3902 133.191 95.5717C132.905 95.7531 132.572 95.8438 132.19 95.8438ZM132.19 95.261C132.48 95.261 132.718 95.1868 132.905 95.0383C133.092 94.8898 133.231 94.6946 133.32 94.4527C133.41 94.2108 133.455 93.9487 133.455 93.6664C133.455 93.3842 133.41 93.1211 133.32 92.8774C133.231 92.6336 133.092 92.4366 132.905 92.2863C132.718 92.136 132.48 92.0608 132.19 92.0608C131.901 92.0608 131.663 92.136 131.476 92.2863C131.289 92.4366 131.15 92.6336 131.06 92.8774C130.971 93.1211 130.926 93.3842 130.926 93.6664C130.926 93.9487 130.971 94.2108 131.06 94.4527C131.15 94.6946 131.289 94.8898 131.476 95.0383C131.663 95.1868 131.901 95.261 132.19 95.261ZM135.753 95.7559L134.466 91.533H135.148L136.061 94.7661H136.105L137.006 91.533H137.699L138.59 94.7551H138.634L139.547 91.533H140.228L138.942 95.7559H138.304L137.38 92.5117H137.314L136.39 95.7559H135.753ZM142.558 95.8438C142.151 95.8438 141.8 95.754 141.505 95.5744C141.212 95.393 140.986 95.14 140.826 94.8156C140.669 94.4894 140.59 94.11 140.59 93.6774C140.59 93.2449 140.669 92.8636 140.826 92.5337C140.986 92.202 141.207 91.9435 141.492 91.7584C141.777 91.5715 142.111 91.478 142.492 91.478C142.712 91.478 142.929 91.5147 143.144 91.588C143.358 91.6613 143.553 91.7804 143.729 91.9454C143.905 92.1085 144.046 92.3248 144.15 92.5942C144.255 92.8636 144.307 93.1954 144.307 93.5894V93.8644H141.052V93.3035H143.647C143.647 93.0652 143.599 92.8526 143.504 92.6657C143.41 92.4787 143.277 92.3312 143.103 92.2231C142.93 92.1149 142.727 92.0608 142.492 92.0608C142.234 92.0608 142.01 92.125 141.821 92.2533C141.634 92.3798 141.491 92.5447 141.39 92.7482C141.289 92.9516 141.239 93.1697 141.239 93.4025V93.7764C141.239 94.0953 141.294 94.3656 141.404 94.5874C141.515 94.8074 141.67 94.9751 141.868 95.0905C142.066 95.2042 142.296 95.261 142.558 95.261C142.729 95.261 142.883 95.2372 143.02 95.1895C143.159 95.14 143.279 95.0667 143.38 94.9696C143.481 94.8706 143.559 94.7478 143.614 94.6012L144.241 94.7771C144.175 94.9897 144.064 95.1767 143.908 95.338C143.752 95.4974 143.56 95.6221 143.331 95.7119C143.102 95.7998 142.844 95.8438 142.558 95.8438ZM145.139 95.7559V91.533H145.766V92.1708H145.81C145.887 91.9619 146.026 91.7923 146.228 91.6622C146.429 91.5321 146.656 91.467 146.909 91.467C146.957 91.467 147.017 91.4679 147.088 91.4698C147.16 91.4716 147.214 91.4743 147.25 91.478V92.1378C147.228 92.1323 147.178 92.1241 147.099 92.1131C147.022 92.1003 146.941 92.0938 146.854 92.0938C146.649 92.0938 146.466 92.1369 146.305 92.2231C146.145 92.3074 146.019 92.4247 145.925 92.575C145.834 92.7234 145.788 92.893 145.788 93.0836V95.7559H145.139Z" fill="#4D4D4D"/>
</svg>
