<svg width="240" height="203" viewBox="0 0 240 203" fill="none" xmlns="http://www.w3.org/2000/svg">
<rect width="240" height="202.396" fill="#F1F1F1"/>
<rect x="134" y="35" width="98" height="25" rx="8" fill="white"/>
<path d="M147.328 50H145.59V44.3695H147.405C147.951 44.3695 148.418 44.4822 148.807 44.7077C149.195 44.9313 149.493 45.2529 149.7 45.6727C149.907 46.0905 150.011 46.5909 150.011 47.1738C150.011 47.7603 149.906 48.2652 149.697 48.6886C149.488 49.1102 149.184 49.4346 148.785 49.6618C148.385 49.8873 147.899 50 147.328 50ZM146.272 49.3952H147.284C147.749 49.3952 148.135 49.3054 148.441 49.1257C148.747 48.9461 148.975 48.6904 149.126 48.3587C149.276 48.0269 149.351 47.632 149.351 47.1738C149.351 46.7192 149.277 46.3279 149.128 45.9998C148.98 45.6699 148.758 45.417 148.463 45.241C148.168 45.0632 147.8 44.9743 147.361 44.9743H146.272V49.3952ZM152.154 50.099C151.887 50.099 151.644 50.0486 151.426 49.9478C151.208 49.8451 151.035 49.6976 150.906 49.5051C150.778 49.3109 150.714 49.0762 150.714 48.8013C150.714 48.5594 150.761 48.3633 150.857 48.213C150.952 48.0609 151.079 47.9417 151.239 47.8556C151.398 47.7694 151.574 47.7053 151.767 47.6631C151.961 47.6191 152.156 47.5843 152.352 47.5587C152.609 47.5257 152.817 47.5009 152.976 47.4844C153.138 47.4661 153.255 47.4359 153.328 47.3937C153.403 47.3515 153.441 47.2782 153.441 47.1738V47.1518C153.441 46.8805 153.367 46.6697 153.218 46.5194C153.072 46.3691 152.849 46.294 152.55 46.294C152.241 46.294 151.998 46.3618 151.822 46.4974C151.646 46.6331 151.522 46.7779 151.451 46.9318L150.835 46.7119C150.945 46.4553 151.091 46.2555 151.275 46.1125C151.46 45.9677 151.661 45.8669 151.879 45.8101C152.099 45.7515 152.316 45.7221 152.528 45.7221C152.664 45.7221 152.82 45.7386 152.996 45.7716C153.173 45.8028 153.345 45.8679 153.51 45.9668C153.677 46.0658 153.815 46.2152 153.925 46.415C154.035 46.6147 154.09 46.8823 154.09 47.2177V50H153.441V49.4282H153.408C153.364 49.5198 153.291 49.6179 153.188 49.7223C153.085 49.8268 152.949 49.9157 152.778 49.989C152.608 50.0623 152.4 50.099 152.154 50.099ZM152.253 49.5161C152.51 49.5161 152.726 49.4657 152.902 49.3649C153.08 49.2641 153.214 49.134 153.304 48.9745C153.395 48.8151 153.441 48.6474 153.441 48.4714V47.8776C153.414 47.9106 153.353 47.9408 153.26 47.9683C153.168 47.994 153.062 48.0169 152.941 48.037C152.822 48.0554 152.705 48.0718 152.592 48.0865C152.48 48.0993 152.389 48.1103 152.319 48.1195C152.151 48.1415 151.993 48.1772 151.846 48.2267C151.702 48.2744 151.584 48.3468 151.495 48.4439C151.407 48.5392 151.363 48.6694 151.363 48.8343C151.363 49.0598 151.446 49.2302 151.613 49.3457C151.781 49.4593 151.995 49.5161 152.253 49.5161ZM156.956 45.7771V46.327H154.767V45.7771H156.956ZM155.405 44.7654H156.054V48.7903C156.054 48.9736 156.081 49.1111 156.134 49.2027C156.189 49.2925 156.258 49.353 156.343 49.3842C156.429 49.4135 156.52 49.4282 156.615 49.4282C156.686 49.4282 156.745 49.4245 156.791 49.4172C156.837 49.408 156.873 49.4007 156.901 49.3952L157.033 49.978C156.989 49.9945 156.927 50.011 156.849 50.0275C156.77 50.0458 156.67 50.055 156.549 50.055C156.366 50.055 156.186 50.0156 156.01 49.9368C155.836 49.858 155.691 49.7379 155.576 49.5766C155.462 49.4153 155.405 49.2119 155.405 48.9663V44.7654ZM159.02 50.099C158.752 50.099 158.509 50.0486 158.291 49.9478C158.073 49.8451 157.9 49.6976 157.771 49.5051C157.643 49.3109 157.579 49.0762 157.579 48.8013C157.579 48.5594 157.627 48.3633 157.722 48.213C157.817 48.0609 157.945 47.9417 158.104 47.8556C158.264 47.7694 158.44 47.7053 158.632 47.6631C158.826 47.6191 159.021 47.5843 159.218 47.5587C159.474 47.5257 159.682 47.5009 159.842 47.4844C160.003 47.4661 160.12 47.4359 160.194 47.3937C160.269 47.3515 160.306 47.2782 160.306 47.1738V47.1518C160.306 46.8805 160.232 46.6697 160.084 46.5194C159.937 46.3691 159.714 46.294 159.416 46.294C159.106 46.294 158.863 46.3618 158.687 46.4974C158.511 46.6331 158.387 46.7779 158.316 46.9318L157.7 46.7119C157.81 46.4553 157.957 46.2555 158.14 46.1125C158.325 45.9677 158.527 45.8669 158.745 45.8101C158.965 45.7515 159.181 45.7221 159.394 45.7221C159.529 45.7221 159.685 45.7386 159.861 45.7716C160.039 45.8028 160.21 45.8679 160.375 45.9668C160.542 46.0658 160.68 46.2152 160.79 46.415C160.9 46.6147 160.955 46.8823 160.955 47.2177V50H160.306V49.4282H160.273C160.229 49.5198 160.156 49.6179 160.053 49.7223C159.951 49.8268 159.814 49.9157 159.644 49.989C159.473 50.0623 159.265 50.099 159.02 50.099ZM159.119 49.5161C159.375 49.5161 159.591 49.4657 159.767 49.3649C159.945 49.2641 160.079 49.134 160.169 48.9745C160.26 48.8151 160.306 48.6474 160.306 48.4714V47.8776C160.279 47.9106 160.218 47.9408 160.125 47.9683C160.033 47.994 159.927 48.0169 159.806 48.037C159.687 48.0554 159.57 48.0718 159.457 48.0865C159.345 48.0993 159.254 48.1103 159.185 48.1195C159.016 48.1415 158.858 48.1772 158.712 48.2267C158.567 48.2744 158.45 48.3468 158.36 48.4439C158.272 48.5392 158.228 48.6694 158.228 48.8343C158.228 49.0598 158.311 49.2302 158.478 49.3457C158.647 49.4593 158.86 49.5161 159.119 49.5161Z" fill="#4D4D4D"/>
<path d="M168.56 44.3695V50H167.9L164.832 45.5792H164.777V50H164.095V44.3695H164.755L167.834 48.8013H167.889V44.3695H168.56ZM171.397 50.088C171.016 50.088 170.681 49.9973 170.393 49.8158C170.108 49.6343 169.884 49.3805 169.723 49.0543C169.563 48.728 169.483 48.3468 169.483 47.9106C169.483 47.4707 169.563 47.0867 169.723 46.7586C169.884 46.4305 170.108 46.1758 170.393 45.9943C170.681 45.8129 171.016 45.7221 171.397 45.7221C171.778 45.7221 172.112 45.8129 172.398 45.9943C172.685 46.1758 172.909 46.4305 173.068 46.7586C173.23 47.0867 173.31 47.4707 173.31 47.9106C173.31 48.3468 173.23 48.728 173.068 49.0543C172.909 49.3805 172.685 49.6343 172.398 49.8158C172.112 49.9973 171.778 50.088 171.397 50.088ZM171.397 49.5051C171.687 49.5051 171.925 49.4309 172.112 49.2824C172.299 49.134 172.437 48.9388 172.527 48.6968C172.617 48.4549 172.662 48.1928 172.662 47.9106C172.662 47.6283 172.617 47.3653 172.527 47.1215C172.437 46.8777 172.299 46.6807 172.112 46.5304C171.925 46.3801 171.687 46.305 171.397 46.305C171.107 46.305 170.869 46.3801 170.682 46.5304C170.495 46.6807 170.357 46.8777 170.267 47.1215C170.177 47.3653 170.132 47.6283 170.132 47.9106C170.132 48.1928 170.177 48.4549 170.267 48.6968C170.357 48.9388 170.495 49.134 170.682 49.2824C170.869 49.4309 171.107 49.5051 171.397 49.5051ZM175.741 50.088C175.389 50.088 175.078 49.9991 174.809 49.8213C174.539 49.6417 174.328 49.3887 174.176 49.0625C174.024 48.7344 173.948 48.3468 173.948 47.8996C173.948 47.456 174.024 47.0711 174.176 46.7449C174.328 46.4186 174.54 46.1666 174.811 45.9888C175.083 45.811 175.396 45.7221 175.752 45.7221C176.026 45.7221 176.244 45.768 176.403 45.8596C176.564 45.9494 176.687 46.0521 176.772 46.1675C176.858 46.2812 176.925 46.3746 176.972 46.4479H177.027V44.3695H177.676V50H177.049V49.3512H176.972C176.925 49.4282 176.857 49.5253 176.769 49.6426C176.681 49.7581 176.555 49.8616 176.392 49.9533C176.229 50.0431 176.012 50.088 175.741 50.088ZM175.829 49.5051C176.089 49.5051 176.309 49.4373 176.488 49.3017C176.668 49.1642 176.805 48.9745 176.898 48.7326C176.991 48.4888 177.038 48.2075 177.038 47.8886C177.038 47.5733 176.992 47.2975 176.901 47.061C176.809 46.8228 176.673 46.6376 176.494 46.5057C176.314 46.3719 176.092 46.305 175.829 46.305C175.554 46.305 175.325 46.3755 175.141 46.5167C174.96 46.656 174.823 46.8457 174.732 47.0858C174.642 47.324 174.597 47.5916 174.597 47.8886C174.597 48.1891 174.643 48.4622 174.734 48.7078C174.828 48.9516 174.965 49.1459 175.147 49.2907C175.33 49.4337 175.557 49.5051 175.829 49.5051ZM180.57 50.088C180.163 50.088 179.812 49.9982 179.517 49.8185C179.224 49.6371 178.998 49.3842 178.838 49.0598C178.68 48.7335 178.602 48.3541 178.602 47.9216C178.602 47.489 178.68 47.1078 178.838 46.7779C178.998 46.4461 179.219 46.1877 179.503 46.0026C179.789 45.8156 180.123 45.7221 180.504 45.7221C180.724 45.7221 180.941 45.7588 181.156 45.8321C181.37 45.9054 181.565 46.0246 181.741 46.1895C181.917 46.3526 182.058 46.5689 182.162 46.8383C182.266 47.1078 182.319 47.4395 182.319 47.8336V48.1085H179.064V47.5477H181.659C181.659 47.3094 181.611 47.0968 181.516 46.9098C181.422 46.7229 181.289 46.5753 181.115 46.4672C180.942 46.3591 180.739 46.305 180.504 46.305C180.246 46.305 180.022 46.3691 179.833 46.4974C179.646 46.6239 179.503 46.7889 179.402 46.9923C179.301 47.1957 179.251 47.4139 179.251 47.6466V48.0205C179.251 48.3394 179.305 48.6098 179.415 48.8316C179.527 49.0515 179.682 49.2192 179.88 49.3347C180.078 49.4483 180.308 49.5051 180.57 49.5051C180.741 49.5051 180.895 49.4813 181.032 49.4337C181.171 49.3842 181.291 49.3109 181.392 49.2137C181.493 49.1147 181.571 48.9919 181.626 48.8453L182.253 49.0213C182.187 49.2339 182.076 49.4208 181.92 49.5821C181.764 49.7416 181.572 49.8662 181.343 49.956C181.114 50.044 180.856 50.088 180.57 50.088Z" fill="#353FD7"/>
<rect x="8" y="8" width="79" height="79" rx="8" fill="white"/>
<g clip-path="url(#clip0_1643_26475)">
<path d="M47.0004 42.702C42.8331 42.702 38.9053 42.0987 35.9401 41.0039C32.7546 39.8269 31 38.1745 31 36.3513C31 34.5281 32.7546 32.8751 35.9401 31.698C38.9053 30.6033 42.8331 30 47.0004 30C51.1676 30 55.0947 30.6033 58.0592 31.698C61.2468 32.8751 62.9993 34.5274 62.9993 36.3513C62.9993 38.1752 61.2468 39.8269 58.0592 41.0039C55.0947 42.0987 51.1669 42.702 47.0004 42.702ZM47.0004 31.4062C38.4059 31.4062 32.4167 34.012 32.4167 36.3513C32.4167 38.6906 38.4059 41.2957 47.0004 41.2957C55.5948 41.2957 61.5833 38.6899 61.5833 36.3513C61.5833 34.0127 55.5941 31.4062 47.0004 31.4062Z" fill="black"/>
<path d="M47.0004 50.468C42.8331 50.468 38.9053 49.8647 35.9401 48.7699C32.7546 47.5929 31 45.9405 31 44.1166C31 43.9302 31.0746 43.7513 31.2075 43.6195C31.3403 43.4876 31.5205 43.4135 31.7084 43.4135C31.8962 43.4135 32.0764 43.4876 32.2092 43.6195C32.3421 43.7513 32.4167 43.9302 32.4167 44.1166C32.4167 46.4531 38.4059 49.0617 47.0004 49.0617C55.5948 49.0617 61.5833 46.4531 61.5833 44.1166C61.5833 43.9302 61.6579 43.7513 61.7908 43.6195C61.9236 43.4876 62.1038 43.4135 62.2916 43.4135C62.4795 43.4135 62.6597 43.4876 62.7925 43.6195C62.9254 43.7513 63 43.9302 63 44.1166C63 45.9405 61.2461 47.5929 58.0599 48.7699C55.0947 49.8647 51.1669 50.468 47.0004 50.468Z" fill="black"/>
<path d="M47.0004 58.234C42.8331 58.234 38.9053 57.6307 35.9401 56.5359C32.7546 55.3589 31 53.7065 31 51.8826C31 51.6961 31.0746 51.5173 31.2075 51.3854C31.3403 51.2536 31.5205 51.1795 31.7084 51.1795C31.8962 51.1795 32.0764 51.2536 32.2092 51.3854C32.3421 51.5173 32.4167 51.6961 32.4167 51.8826C32.4167 54.2219 38.4059 56.8277 47.0004 56.8277C55.5948 56.8277 61.5833 54.2219 61.5833 51.8826C61.5833 51.6961 61.6579 51.5173 61.7908 51.3854C61.9236 51.2536 62.1038 51.1795 62.2916 51.1795C62.4795 51.1795 62.6597 51.2536 62.7925 51.3854C62.9254 51.5173 63 51.6961 63 51.8826C63 53.7065 61.2461 55.3589 58.0599 56.5359C55.0947 57.6328 51.1669 58.234 47.0004 58.234Z" fill="black"/>
<path d="M47.0004 66C42.8331 66 38.9053 65.3967 35.9401 64.3012C32.7546 63.1249 31 61.4726 31 59.6487V36.3513C31 36.1648 31.0746 35.986 31.2075 35.8541C31.3403 35.7223 31.5205 35.6482 31.7084 35.6482C31.8962 35.6482 32.0764 35.7223 32.2092 35.8541C32.3421 35.986 32.4167 36.1648 32.4167 36.3513V59.6487C32.4167 61.988 38.4059 64.5937 47.0004 64.5937C55.5948 64.5937 61.5833 61.988 61.5833 59.6487V36.3513C61.5833 36.1648 61.6579 35.986 61.7908 35.8541C61.9236 35.7223 62.1038 35.6482 62.2916 35.6482C62.4795 35.6482 62.6597 35.7223 62.7925 35.8541C62.9254 35.986 63 36.1648 63 36.3513V59.6487C63 61.4726 61.2461 63.1249 58.0599 64.3012C55.0947 65.3967 51.1669 66 47.0004 66Z" fill="black"/>
<path d="M58.7357 44.8205C58.6893 44.8204 58.643 44.8156 58.5976 44.8064C58.5522 44.7973 58.5078 44.7839 58.4651 44.7663C58.4222 44.7489 58.3811 44.7272 58.3426 44.7016C58.2648 44.6507 58.1983 44.5847 58.147 44.5076C58.1216 44.4691 58.0998 44.4284 58.0819 44.3859C58.0642 44.3435 58.0506 44.2995 58.0415 44.2545C58.0226 44.1638 58.0226 44.0702 58.0415 43.9795C58.0593 43.8889 58.0951 43.8027 58.1468 43.7259C58.1984 43.6491 58.265 43.5833 58.3426 43.5324C58.3811 43.5068 58.4222 43.4851 58.4651 43.4677C58.5078 43.4501 58.5522 43.4367 58.5976 43.4276C58.689 43.4093 58.7831 43.4093 58.8745 43.4276C59.0115 43.4551 59.1373 43.5218 59.2365 43.6195C59.2693 43.6526 59.2989 43.6887 59.325 43.7271C59.3765 43.8036 59.4124 43.8894 59.4306 43.9795C59.4485 44.0703 59.4485 44.1637 59.4306 44.2545C59.4214 44.2995 59.4079 44.3435 59.3902 44.3859C59.3723 44.4284 59.3505 44.4691 59.325 44.5076C59.2991 44.546 59.2694 44.5818 59.2365 44.6145C59.2037 44.6471 59.1676 44.6763 59.1288 44.7016C59.0904 44.727 59.0496 44.7487 59.007 44.7663C58.9642 44.7838 58.9199 44.7972 58.8745 44.8064C58.8288 44.8156 58.7823 44.8203 58.7357 44.8205Z" fill="black"/>
<path d="M55.89 45.5264C55.8436 45.5263 55.7973 45.5216 55.7519 45.5123C55.7065 45.5033 55.6622 45.4898 55.6194 45.4723C55.5765 45.4548 55.5355 45.4331 55.4969 45.4076C55.4581 45.3822 55.422 45.353 55.3892 45.3204C55.3231 45.2551 55.2709 45.1774 55.2355 45.0919C55.2178 45.0494 55.2043 45.0054 55.1951 44.9604C55.1858 44.9141 55.1813 44.867 55.1817 44.8198C55.1814 44.7725 55.1859 44.7254 55.1951 44.6791C55.2045 44.6342 55.218 44.5901 55.2355 44.5476C55.2712 44.4624 55.3234 44.385 55.3892 44.3198C55.422 44.287 55.4581 44.2575 55.4969 44.2319C55.5355 44.2064 55.5765 44.1847 55.6194 44.1673C55.6622 44.1497 55.7065 44.1362 55.7519 44.1272C55.8431 44.1089 55.937 44.1089 56.0281 44.1272C56.0735 44.1362 56.1179 44.1497 56.1606 44.1673C56.2035 44.1847 56.2446 44.2064 56.2832 44.2319C56.3607 44.2834 56.4271 44.3496 56.4787 44.4267C56.5042 44.4648 56.5261 44.5053 56.5438 44.5476C56.5617 44.59 56.5752 44.6341 56.5842 44.6791C56.5937 44.7254 56.5984 44.7725 56.5984 44.8198C56.5985 44.867 56.5937 44.9141 56.5842 44.9604C56.5754 45.0055 56.5619 45.0495 56.5438 45.0919C56.5261 45.1344 56.5043 45.1751 56.4787 45.2135C56.4274 45.2906 56.3609 45.3567 56.2832 45.4076C56.2446 45.4331 56.2035 45.4548 56.1606 45.4723C56.1179 45.4898 56.0735 45.5033 56.0281 45.5123C55.9827 45.5216 55.9364 45.5263 55.89 45.5264Z" fill="black"/>
<path d="M53.0471 46.2323C52.9996 46.2324 52.9521 46.2277 52.9055 46.2183C52.8601 46.2091 52.8158 46.1957 52.773 46.1782C52.6431 46.1257 52.5323 46.0355 52.455 45.9194C52.4292 45.8811 52.4074 45.8404 52.3898 45.7978C52.3721 45.7554 52.3586 45.7113 52.3494 45.6663C52.3403 45.6212 52.3358 45.5752 52.3359 45.5292C52.3357 45.482 52.3402 45.4349 52.3494 45.3886C52.3599 45.3437 52.3746 45.2999 52.3933 45.2578C52.429 45.1727 52.481 45.0954 52.5463 45.03C52.5797 44.9975 52.616 44.968 52.6547 44.9421C52.6931 44.9167 52.7339 44.895 52.7765 44.8774C52.8193 44.8599 52.8637 44.8465 52.909 44.8373C53.0004 44.819 53.0946 44.819 53.186 44.8373C53.2313 44.8464 53.2757 44.8598 53.3184 44.8774C53.3612 44.8952 53.4022 44.9168 53.441 44.9421C53.4795 44.968 53.5155 44.9975 53.5487 45.03C53.5815 45.0625 53.611 45.0983 53.6365 45.1368C53.6621 45.175 53.6839 45.2155 53.7017 45.2578C53.7192 45.3003 53.7327 45.3443 53.742 45.3893C53.7515 45.4356 53.7563 45.4827 53.7562 45.5299C53.7561 45.576 53.7513 45.6219 53.742 45.667C53.7329 45.712 53.7194 45.7561 53.7017 45.7985C53.6841 45.8411 53.6622 45.8818 53.6365 45.9201C53.611 45.9586 53.5815 45.9945 53.5487 46.027C53.5157 46.0595 53.4797 46.0887 53.441 46.1142C53.4022 46.1395 53.3612 46.1611 53.3184 46.1789C53.2757 46.1965 53.2313 46.2099 53.186 46.219C53.1403 46.228 53.0938 46.2324 53.0471 46.2323Z" fill="black"/>
<path d="M58.7357 52.5858C58.6893 52.5859 58.6431 52.5814 58.5976 52.5724C58.5522 52.5634 58.5079 52.5499 58.4651 52.5324C58.4222 52.5149 58.3812 52.4932 58.3426 52.4677C58.3037 52.4421 58.2677 52.4127 58.2349 52.3798C58.1024 52.2477 58.0278 52.0691 58.0273 51.8827C58.0273 51.8354 58.032 51.7883 58.0415 51.7421C58.0507 51.697 58.0642 51.653 58.0819 51.6106C58.0998 51.5681 58.1216 51.5274 58.1471 51.4889C58.1727 51.4505 58.2022 51.4147 58.2349 51.3821C58.2677 51.3494 58.3038 51.3202 58.3426 51.2949C58.3812 51.2693 58.4222 51.2477 58.4651 51.2302C58.5079 51.2126 58.5522 51.1992 58.5976 51.1901C58.689 51.1718 58.7831 51.1718 58.8745 51.1901C58.9654 51.2082 59.0518 51.2438 59.1288 51.2949C59.1676 51.3202 59.2037 51.3494 59.2365 51.3821C59.2693 51.4149 59.2989 51.4507 59.3251 51.4889C59.3505 51.5274 59.3723 51.5681 59.3902 51.6106C59.4079 51.653 59.4215 51.697 59.4306 51.7421C59.4399 51.7884 59.4444 51.8355 59.4441 51.8827C59.4436 52.0691 59.369 52.2477 59.2365 52.3798C59.2037 52.4127 59.1677 52.4421 59.1288 52.4677C59.0518 52.5188 58.9654 52.5544 58.8745 52.5724C58.8288 52.5814 58.7823 52.5859 58.7357 52.5858Z" fill="black"/>
<path d="M55.89 53.2917C55.8436 53.2918 55.7974 53.2873 55.7519 53.2783C55.7065 53.2693 55.6622 53.2558 55.6194 53.2383C55.5765 53.2208 55.5354 53.1991 55.4969 53.1736C55.4581 53.1482 55.422 53.119 55.3892 53.0864C55.3564 53.0535 55.3268 53.0177 55.3006 52.9795C55.2752 52.941 55.2534 52.9003 55.2355 52.8579C55.2178 52.8154 55.2042 52.7714 55.1951 52.7264C55.1772 52.6356 55.1772 52.5422 55.1951 52.4515C55.2042 52.4064 55.2178 52.3624 55.2355 52.32C55.2534 52.2775 55.2752 52.2368 55.3006 52.1983C55.3268 52.1601 55.3564 52.1243 55.3892 52.0915C55.422 52.0588 55.4581 52.0296 55.4969 52.0043C55.5354 51.9787 55.5765 51.9571 55.6194 51.9396C55.6622 51.922 55.7065 51.9086 55.7519 51.8995C55.843 51.8812 55.937 51.8812 56.0281 51.8995C56.0735 51.9086 56.1178 51.922 56.1606 51.9396C56.2035 51.9571 56.2446 51.9787 56.2831 52.0043C56.3219 52.0296 56.358 52.0588 56.3908 52.0915C56.4235 52.1241 56.453 52.1599 56.4786 52.1983C56.5041 52.2368 56.5259 52.2775 56.5438 52.32C56.5618 52.3623 56.5754 52.4064 56.5842 52.4515C56.6031 52.5421 56.6031 52.6357 56.5842 52.7264C56.5754 52.7715 56.5618 52.8156 56.5438 52.8579C56.5259 52.9003 56.5041 52.941 56.4786 52.9795C56.453 53.0179 56.4235 53.0537 56.3908 53.0864C56.358 53.119 56.3219 53.1482 56.2831 53.1736C56.2446 53.1991 56.2035 53.2208 56.1606 53.2383C56.1178 53.2558 56.0735 53.2693 56.0281 53.2783C55.9827 53.2873 55.9364 53.2918 55.89 53.2917Z" fill="black"/>
<path d="M53.0471 53.9977C52.9996 53.998 52.9521 53.9935 52.9055 53.9843C52.8601 53.9751 52.8158 53.9617 52.773 53.9442C52.6872 53.9086 52.6091 53.857 52.5428 53.7923C52.4772 53.7269 52.4252 53.6492 52.3898 53.5638C52.3721 53.5214 52.3585 53.4774 52.3494 53.4323C52.3404 53.3872 52.3359 53.3413 52.3359 53.2952C52.3363 53.1088 52.4106 52.9299 52.5428 52.7974C52.5761 52.7651 52.6124 52.736 52.6512 52.7102C52.6896 52.6848 52.7304 52.6632 52.773 52.6455C52.8158 52.6281 52.8601 52.6146 52.9055 52.6055C53.0429 52.5778 53.1856 52.5914 53.3152 52.6447C53.4447 52.6979 53.5554 52.7883 53.6329 52.9043C53.6584 52.9428 53.6802 52.9835 53.6981 53.0259C53.7158 53.0684 53.7293 53.1124 53.7385 53.1574C53.7574 53.2481 53.7574 53.3417 53.7385 53.4323C53.7293 53.4774 53.7158 53.5214 53.6981 53.5638C53.6802 53.6063 53.6584 53.647 53.6329 53.6855C53.5817 53.7626 53.5151 53.8286 53.4374 53.8795C53.3987 53.9048 53.3577 53.9264 53.3149 53.9442C53.2721 53.9618 53.2278 53.9752 53.1824 53.9843C53.1379 53.9931 53.0926 53.9976 53.0471 53.9977Z" fill="black"/>
<path d="M58.7357 60.3518C58.6893 60.3519 58.6431 60.3474 58.5976 60.3384C58.5522 60.3294 58.5079 60.3159 58.4651 60.2984C58.4222 60.2811 58.3812 60.2597 58.3426 60.2344C58.3039 60.2086 58.2678 60.1791 58.2349 60.1465C58.202 60.1139 58.1726 60.0781 58.1471 60.0396C58.1215 60.0015 58.0997 59.961 58.0819 59.9187C58.0643 59.8762 58.0508 59.8322 58.0415 59.7872C58.032 59.7409 58.0273 59.6938 58.0273 59.6466C58.0275 59.6005 58.0322 59.5546 58.0415 59.5094C58.0507 59.4644 58.0642 59.4204 58.0819 59.378C58.0995 59.3354 58.1213 59.2946 58.1471 59.2563C58.1983 59.1792 58.2648 59.1132 58.3426 59.0623C58.3811 59.0367 58.4222 59.015 58.4651 58.9976C58.5079 58.98 58.5522 58.9666 58.5976 58.9575C58.689 58.9392 58.7831 58.9392 58.8745 58.9575C58.9199 58.9667 58.9642 58.9801 59.007 58.9976C59.0496 59.0152 59.0904 59.0369 59.1288 59.0623C59.1676 59.0876 59.2037 59.1168 59.2365 59.1494C59.2694 59.1822 59.2991 59.218 59.3251 59.2563C59.3508 59.2946 59.3726 59.3354 59.3902 59.378C59.4079 59.4204 59.4215 59.4644 59.4306 59.5094C59.4397 59.5546 59.4442 59.6005 59.4441 59.6466C59.4443 59.6938 59.4398 59.7409 59.4306 59.7872C59.4214 59.8322 59.4078 59.8762 59.3902 59.9187C59.3459 60.0257 59.2756 60.1202 59.1856 60.1938C59.0957 60.2674 58.9888 60.3178 58.8745 60.3405C58.8287 60.3488 58.7822 60.3526 58.7357 60.3518Z" fill="black"/>
<path d="M55.89 61.0578C55.8436 61.0579 55.7973 61.0534 55.7519 61.0444C55.7065 61.0353 55.6621 61.0219 55.6194 61.0043C55.5765 60.9868 55.5354 60.9652 55.4969 60.9396C55.4193 60.888 55.3527 60.8218 55.3006 60.7449C55.2756 60.7065 55.254 60.6661 55.2362 60.6239C55.2182 60.5816 55.2046 60.5375 55.1958 60.4924C55.1863 60.4462 55.1816 60.399 55.1816 60.3518C55.1818 60.3058 55.1865 60.2598 55.1958 60.2147C55.2046 60.1696 55.2182 60.1255 55.2362 60.0832C55.2538 60.0408 55.2754 60.0001 55.3006 59.9616C55.3266 59.9232 55.3563 59.8874 55.3892 59.8547C55.422 59.8221 55.4581 59.7928 55.4969 59.7675C55.5354 59.742 55.5765 59.7203 55.6194 59.7028C55.6621 59.6853 55.7065 59.6718 55.7519 59.6628C55.843 59.6445 55.937 59.6445 56.0281 59.6628C56.0735 59.6718 56.1178 59.6853 56.1606 59.7028C56.2035 59.7203 56.2445 59.742 56.2831 59.7675C56.3219 59.7928 56.358 59.8221 56.3908 59.8547C56.4235 59.8874 56.453 59.9232 56.4786 59.9616C56.5044 59.9999 56.5262 60.0406 56.5438 60.0832C56.5618 60.1255 56.5754 60.1696 56.5842 60.2147C56.5935 60.2598 56.5982 60.3058 56.5984 60.3518C56.5984 60.399 56.5937 60.4462 56.5842 60.4924C56.5754 60.5375 56.5618 60.5816 56.5438 60.6239C56.526 60.6662 56.5042 60.7067 56.4786 60.7449C56.4531 60.7834 56.4237 60.8192 56.3908 60.8517C56.3578 60.8844 56.3218 60.9138 56.2831 60.9396C56.2445 60.9652 56.2035 60.9868 56.1606 61.0043C56.1178 61.0219 56.0735 61.0353 56.0281 61.0444C55.9826 61.0534 55.9364 61.0579 55.89 61.0578Z" fill="black"/>
<path d="M53.0471 61.7644C52.9995 61.7644 52.9521 61.7597 52.9055 61.7503C52.8601 61.7411 52.8158 61.7277 52.773 61.7102C52.6436 61.657 52.533 61.5668 52.4552 61.4512C52.3774 61.3356 52.3359 61.1996 52.3359 61.0606C52.3359 61.0145 52.3404 60.9686 52.3494 60.9234C52.3585 60.8784 52.3721 60.8344 52.3898 60.792C52.4252 60.7066 52.4772 60.6289 52.5428 60.5634C52.6091 60.4988 52.6872 60.4472 52.773 60.4116C52.8158 60.3941 52.8601 60.3807 52.9055 60.3715C52.9969 60.3532 53.091 60.3532 53.1824 60.3715C53.2278 60.3806 53.2721 60.394 53.3149 60.4116C53.3577 60.4293 53.3987 60.451 53.4374 60.4763C53.5151 60.5272 53.5817 60.5932 53.6329 60.6703C53.6584 60.7088 53.6802 60.7495 53.6981 60.792C53.7158 60.8344 53.7293 60.8784 53.7385 60.9234C53.7477 60.9686 53.7525 61.0145 53.7527 61.0606C53.7527 61.1763 53.7239 61.2902 53.6689 61.3923C53.6139 61.4943 53.5344 61.5813 53.4374 61.6456C53.3987 61.6708 53.3577 61.6925 53.3149 61.7102C53.2721 61.7278 53.2278 61.7412 53.1824 61.7503C53.1379 61.7594 53.0926 61.7641 53.0471 61.7644Z" fill="black"/>
</g>
<rect x="134" y="62" width="98" height="25" rx="8" fill="white"/>
<path d="M147.328 77H145.59V71.3695H147.405C147.951 71.3695 148.418 71.4822 148.807 71.7077C149.195 71.9313 149.493 72.2529 149.7 72.6727C149.907 73.0905 150.011 73.5909 150.011 74.1738C150.011 74.7603 149.906 75.2652 149.697 75.6886C149.488 76.1102 149.184 76.4346 148.785 76.6618C148.385 76.8873 147.899 77 147.328 77ZM146.272 76.3952H147.284C147.749 76.3952 148.135 76.3054 148.441 76.1257C148.747 75.9461 148.975 75.6904 149.126 75.3587C149.276 75.0269 149.351 74.632 149.351 74.1738C149.351 73.7192 149.277 73.3279 149.128 72.9998C148.98 72.6699 148.758 72.417 148.463 72.241C148.168 72.0632 147.8 71.9743 147.361 71.9743H146.272V76.3952ZM152.154 77.099C151.887 77.099 151.644 77.0486 151.426 76.9478C151.208 76.8451 151.035 76.6976 150.906 76.5051C150.778 76.3109 150.714 76.0762 150.714 75.8013C150.714 75.5594 150.761 75.3633 150.857 75.213C150.952 75.0609 151.079 74.9417 151.239 74.8556C151.398 74.7694 151.574 74.7053 151.767 74.6631C151.961 74.6191 152.156 74.5843 152.352 74.5587C152.609 74.5257 152.817 74.5009 152.976 74.4844C153.138 74.4661 153.255 74.4359 153.328 74.3937C153.403 74.3515 153.441 74.2782 153.441 74.1738V74.1518C153.441 73.8805 153.367 73.6697 153.218 73.5194C153.072 73.3691 152.849 73.294 152.55 73.294C152.241 73.294 151.998 73.3618 151.822 73.4974C151.646 73.6331 151.522 73.7779 151.451 73.9318L150.835 73.7119C150.945 73.4553 151.091 73.2555 151.275 73.1125C151.46 72.9677 151.661 72.8669 151.879 72.8101C152.099 72.7515 152.316 72.7221 152.528 72.7221C152.664 72.7221 152.82 72.7386 152.996 72.7716C153.173 72.8028 153.345 72.8679 153.51 72.9668C153.677 73.0658 153.815 73.2152 153.925 73.415C154.035 73.6147 154.09 73.8823 154.09 74.2177V77H153.441V76.4282H153.408C153.364 76.5198 153.291 76.6179 153.188 76.7223C153.085 76.8268 152.949 76.9157 152.778 76.989C152.608 77.0623 152.4 77.099 152.154 77.099ZM152.253 76.5161C152.51 76.5161 152.726 76.4657 152.902 76.3649C153.08 76.2641 153.214 76.134 153.304 75.9745C153.395 75.8151 153.441 75.6474 153.441 75.4714V74.8776C153.414 74.9106 153.353 74.9408 153.26 74.9683C153.168 74.994 153.062 75.0169 152.941 75.037C152.822 75.0554 152.705 75.0718 152.592 75.0865C152.48 75.0993 152.389 75.1103 152.319 75.1195C152.151 75.1415 151.993 75.1772 151.846 75.2267C151.702 75.2744 151.584 75.3468 151.495 75.4439C151.407 75.5392 151.363 75.6694 151.363 75.8343C151.363 76.0598 151.446 76.2302 151.613 76.3457C151.781 76.4593 151.995 76.5161 152.253 76.5161ZM156.956 72.7771V73.327H154.767V72.7771H156.956ZM155.405 71.7654H156.054V75.7903C156.054 75.9736 156.081 76.1111 156.134 76.2027C156.189 76.2925 156.258 76.353 156.343 76.3842C156.429 76.4135 156.52 76.4282 156.615 76.4282C156.686 76.4282 156.745 76.4245 156.791 76.4172C156.837 76.408 156.873 76.4007 156.901 76.3952L157.033 76.978C156.989 76.9945 156.927 77.011 156.849 77.0275C156.77 77.0458 156.67 77.055 156.549 77.055C156.366 77.055 156.186 77.0156 156.01 76.9368C155.836 76.858 155.691 76.7379 155.576 76.5766C155.462 76.4153 155.405 76.2119 155.405 75.9663V71.7654ZM159.02 77.099C158.752 77.099 158.509 77.0486 158.291 76.9478C158.073 76.8451 157.9 76.6976 157.771 76.5051C157.643 76.3109 157.579 76.0762 157.579 75.8013C157.579 75.5594 157.627 75.3633 157.722 75.213C157.817 75.0609 157.945 74.9417 158.104 74.8556C158.264 74.7694 158.44 74.7053 158.632 74.6631C158.826 74.6191 159.021 74.5843 159.218 74.5587C159.474 74.5257 159.682 74.5009 159.842 74.4844C160.003 74.4661 160.12 74.4359 160.194 74.3937C160.269 74.3515 160.306 74.2782 160.306 74.1738V74.1518C160.306 73.8805 160.232 73.6697 160.084 73.5194C159.937 73.3691 159.714 73.294 159.416 73.294C159.106 73.294 158.863 73.3618 158.687 73.4974C158.511 73.6331 158.387 73.7779 158.316 73.9318L157.7 73.7119C157.81 73.4553 157.957 73.2555 158.14 73.1125C158.325 72.9677 158.527 72.8669 158.745 72.8101C158.965 72.7515 159.181 72.7221 159.394 72.7221C159.529 72.7221 159.685 72.7386 159.861 72.7716C160.039 72.8028 160.21 72.8679 160.375 72.9668C160.542 73.0658 160.68 73.2152 160.79 73.415C160.9 73.6147 160.955 73.8823 160.955 74.2177V77H160.306V76.4282H160.273C160.229 76.5198 160.156 76.6179 160.053 76.7223C159.951 76.8268 159.814 76.9157 159.644 76.989C159.473 77.0623 159.265 77.099 159.02 77.099ZM159.119 76.5161C159.375 76.5161 159.591 76.4657 159.767 76.3649C159.945 76.2641 160.079 76.134 160.169 75.9745C160.26 75.8151 160.306 75.6474 160.306 75.4714V74.8776C160.279 74.9106 160.218 74.9408 160.125 74.9683C160.033 74.994 159.927 75.0169 159.806 75.037C159.687 75.0554 159.57 75.0718 159.457 75.0865C159.345 75.0993 159.254 75.1103 159.185 75.1195C159.016 75.1415 158.858 75.1772 158.712 75.2267C158.567 75.2744 158.45 75.3468 158.36 75.4439C158.272 75.5392 158.228 75.6694 158.228 75.8343C158.228 76.0598 158.311 76.2302 158.478 76.3457C158.647 76.4593 158.86 76.5161 159.119 76.5161Z" fill="#4D4D4D"/>
<path d="M168.56 71.3695V77H167.9L164.832 72.5792H164.777V77H164.095V71.3695H164.755L167.834 75.8013H167.889V71.3695H168.56ZM171.397 77.088C171.016 77.088 170.681 76.9973 170.393 76.8158C170.108 76.6343 169.884 76.3805 169.723 76.0543C169.563 75.728 169.483 75.3468 169.483 74.9106C169.483 74.4707 169.563 74.0867 169.723 73.7586C169.884 73.4305 170.108 73.1758 170.393 72.9943C170.681 72.8129 171.016 72.7221 171.397 72.7221C171.778 72.7221 172.112 72.8129 172.398 72.9943C172.685 73.1758 172.909 73.4305 173.068 73.7586C173.23 74.0867 173.31 74.4707 173.31 74.9106C173.31 75.3468 173.23 75.728 173.068 76.0543C172.909 76.3805 172.685 76.6343 172.398 76.8158C172.112 76.9973 171.778 77.088 171.397 77.088ZM171.397 76.5051C171.687 76.5051 171.925 76.4309 172.112 76.2824C172.299 76.134 172.437 75.9388 172.527 75.6968C172.617 75.4549 172.662 75.1928 172.662 74.9106C172.662 74.6283 172.617 74.3653 172.527 74.1215C172.437 73.8777 172.299 73.6807 172.112 73.5304C171.925 73.3801 171.687 73.305 171.397 73.305C171.107 73.305 170.869 73.3801 170.682 73.5304C170.495 73.6807 170.357 73.8777 170.267 74.1215C170.177 74.3653 170.132 74.6283 170.132 74.9106C170.132 75.1928 170.177 75.4549 170.267 75.6968C170.357 75.9388 170.495 76.134 170.682 76.2824C170.869 76.4309 171.107 76.5051 171.397 76.5051ZM175.741 77.088C175.389 77.088 175.078 76.9991 174.809 76.8213C174.539 76.6417 174.328 76.3887 174.176 76.0625C174.024 75.7344 173.948 75.3468 173.948 74.8996C173.948 74.456 174.024 74.0711 174.176 73.7449C174.328 73.4186 174.54 73.1666 174.811 72.9888C175.083 72.811 175.396 72.7221 175.752 72.7221C176.026 72.7221 176.244 72.768 176.403 72.8596C176.564 72.9494 176.687 73.0521 176.772 73.1675C176.858 73.2812 176.925 73.3746 176.972 73.4479H177.027V71.3695H177.676V77H177.049V76.3512H176.972C176.925 76.4282 176.857 76.5253 176.769 76.6426C176.681 76.7581 176.555 76.8616 176.392 76.9533C176.229 77.0431 176.012 77.088 175.741 77.088ZM175.829 76.5051C176.089 76.5051 176.309 76.4373 176.488 76.3017C176.668 76.1642 176.805 75.9745 176.898 75.7326C176.991 75.4888 177.038 75.2075 177.038 74.8886C177.038 74.5733 176.992 74.2975 176.901 74.061C176.809 73.8228 176.673 73.6376 176.494 73.5057C176.314 73.3719 176.092 73.305 175.829 73.305C175.554 73.305 175.325 73.3755 175.141 73.5167C174.96 73.656 174.823 73.8457 174.732 74.0858C174.642 74.324 174.597 74.5916 174.597 74.8886C174.597 75.1891 174.643 75.4622 174.734 75.7078C174.828 75.9516 174.965 76.1459 175.147 76.2907C175.33 76.4337 175.557 76.5051 175.829 76.5051ZM180.57 77.088C180.163 77.088 179.812 76.9982 179.517 76.8185C179.224 76.6371 178.998 76.3842 178.838 76.0598C178.68 75.7335 178.602 75.3541 178.602 74.9216C178.602 74.489 178.68 74.1078 178.838 73.7779C178.998 73.4461 179.219 73.1877 179.503 73.0026C179.789 72.8156 180.123 72.7221 180.504 72.7221C180.724 72.7221 180.941 72.7588 181.156 72.8321C181.37 72.9054 181.565 73.0246 181.741 73.1895C181.917 73.3526 182.058 73.5689 182.162 73.8383C182.266 74.1078 182.319 74.4395 182.319 74.8336V75.1085H179.064V74.5477H181.659C181.659 74.3094 181.611 74.0968 181.516 73.9098C181.422 73.7229 181.289 73.5753 181.115 73.4672C180.942 73.3591 180.739 73.305 180.504 73.305C180.246 73.305 180.022 73.3691 179.833 73.4974C179.646 73.6239 179.503 73.7889 179.402 73.9923C179.301 74.1957 179.251 74.4139 179.251 74.6466V75.0205C179.251 75.3394 179.305 75.6098 179.415 75.8316C179.527 76.0515 179.682 76.2192 179.88 76.3347C180.078 76.4483 180.308 76.5051 180.57 76.5051C180.741 76.5051 180.895 76.4813 181.032 76.4337C181.171 76.3842 181.291 76.3109 181.392 76.2137C181.493 76.1147 181.571 75.9919 181.626 75.8453L182.253 76.0213C182.187 76.2339 182.076 76.4208 181.92 76.5821C181.764 76.7416 181.572 76.8662 181.343 76.956C181.114 77.044 180.856 77.088 180.57 77.088Z" fill="#353FD7"/>
<rect x="134" y="8" width="98" height="25" rx="8" fill="white"/>
<path d="M147.328 23H145.59V17.3695H147.405C147.951 17.3695 148.418 17.4822 148.807 17.7077C149.195 17.9313 149.493 18.2529 149.7 18.6727C149.907 19.0905 150.011 19.5909 150.011 20.1738C150.011 20.7603 149.906 21.2652 149.697 21.6886C149.488 22.1102 149.184 22.4346 148.785 22.6618C148.385 22.8873 147.899 23 147.328 23ZM146.272 22.3952H147.284C147.749 22.3952 148.135 22.3054 148.441 22.1257C148.747 21.9461 148.975 21.6904 149.126 21.3587C149.276 21.0269 149.351 20.632 149.351 20.1738C149.351 19.7192 149.277 19.3279 149.128 18.9998C148.98 18.6699 148.758 18.417 148.463 18.241C148.168 18.0632 147.8 17.9743 147.361 17.9743H146.272V22.3952ZM152.154 23.099C151.887 23.099 151.644 23.0486 151.426 22.9478C151.208 22.8451 151.035 22.6976 150.906 22.5051C150.778 22.3109 150.714 22.0762 150.714 21.8013C150.714 21.5594 150.761 21.3633 150.857 21.213C150.952 21.0609 151.079 20.9417 151.239 20.8556C151.398 20.7694 151.574 20.7053 151.767 20.6631C151.961 20.6191 152.156 20.5843 152.352 20.5587C152.609 20.5257 152.817 20.5009 152.976 20.4844C153.138 20.4661 153.255 20.4359 153.328 20.3937C153.403 20.3515 153.441 20.2782 153.441 20.1738V20.1518C153.441 19.8805 153.367 19.6697 153.218 19.5194C153.072 19.3691 152.849 19.294 152.55 19.294C152.241 19.294 151.998 19.3618 151.822 19.4974C151.646 19.6331 151.522 19.7779 151.451 19.9318L150.835 19.7119C150.945 19.4553 151.091 19.2555 151.275 19.1125C151.46 18.9677 151.661 18.8669 151.879 18.8101C152.099 18.7515 152.316 18.7221 152.528 18.7221C152.664 18.7221 152.82 18.7386 152.996 18.7716C153.173 18.8028 153.345 18.8679 153.51 18.9668C153.677 19.0658 153.815 19.2152 153.925 19.415C154.035 19.6147 154.09 19.8823 154.09 20.2177V23H153.441V22.4282H153.408C153.364 22.5198 153.291 22.6179 153.188 22.7223C153.085 22.8268 152.949 22.9157 152.778 22.989C152.608 23.0623 152.4 23.099 152.154 23.099ZM152.253 22.5161C152.51 22.5161 152.726 22.4657 152.902 22.3649C153.08 22.2641 153.214 22.134 153.304 21.9745C153.395 21.8151 153.441 21.6474 153.441 21.4714V20.8776C153.414 20.9106 153.353 20.9408 153.26 20.9683C153.168 20.994 153.062 21.0169 152.941 21.037C152.822 21.0554 152.705 21.0718 152.592 21.0865C152.48 21.0993 152.389 21.1103 152.319 21.1195C152.151 21.1415 151.993 21.1772 151.846 21.2267C151.702 21.2744 151.584 21.3468 151.495 21.4439C151.407 21.5392 151.363 21.6694 151.363 21.8343C151.363 22.0598 151.446 22.2302 151.613 22.3457C151.781 22.4593 151.995 22.5161 152.253 22.5161ZM156.956 18.7771V19.327H154.767V18.7771H156.956ZM155.405 17.7654H156.054V21.7903C156.054 21.9736 156.081 22.1111 156.134 22.2027C156.189 22.2925 156.258 22.353 156.343 22.3842C156.429 22.4135 156.52 22.4282 156.615 22.4282C156.686 22.4282 156.745 22.4245 156.791 22.4172C156.837 22.408 156.873 22.4007 156.901 22.3952L157.033 22.978C156.989 22.9945 156.927 23.011 156.849 23.0275C156.77 23.0458 156.67 23.055 156.549 23.055C156.366 23.055 156.186 23.0156 156.01 22.9368C155.836 22.858 155.691 22.7379 155.576 22.5766C155.462 22.4153 155.405 22.2119 155.405 21.9663V17.7654ZM159.02 23.099C158.752 23.099 158.509 23.0486 158.291 22.9478C158.073 22.8451 157.9 22.6976 157.771 22.5051C157.643 22.3109 157.579 22.0762 157.579 21.8013C157.579 21.5594 157.627 21.3633 157.722 21.213C157.817 21.0609 157.945 20.9417 158.104 20.8556C158.264 20.7694 158.44 20.7053 158.632 20.6631C158.826 20.6191 159.021 20.5843 159.218 20.5587C159.474 20.5257 159.682 20.5009 159.842 20.4844C160.003 20.4661 160.12 20.4359 160.194 20.3937C160.269 20.3515 160.306 20.2782 160.306 20.1738V20.1518C160.306 19.8805 160.232 19.6697 160.084 19.5194C159.937 19.3691 159.714 19.294 159.416 19.294C159.106 19.294 158.863 19.3618 158.687 19.4974C158.511 19.6331 158.387 19.7779 158.316 19.9318L157.7 19.7119C157.81 19.4553 157.957 19.2555 158.14 19.1125C158.325 18.9677 158.527 18.8669 158.745 18.8101C158.965 18.7515 159.181 18.7221 159.394 18.7221C159.529 18.7221 159.685 18.7386 159.861 18.7716C160.039 18.8028 160.21 18.8679 160.375 18.9668C160.542 19.0658 160.68 19.2152 160.79 19.415C160.9 19.6147 160.955 19.8823 160.955 20.2177V23H160.306V22.4282H160.273C160.229 22.5198 160.156 22.6179 160.053 22.7223C159.951 22.8268 159.814 22.9157 159.644 22.989C159.473 23.0623 159.265 23.099 159.02 23.099ZM159.119 22.5161C159.375 22.5161 159.591 22.4657 159.767 22.3649C159.945 22.2641 160.079 22.134 160.169 21.9745C160.26 21.8151 160.306 21.6474 160.306 21.4714V20.8776C160.279 20.9106 160.218 20.9408 160.125 20.9683C160.033 20.994 159.927 21.0169 159.806 21.037C159.687 21.0554 159.57 21.0718 159.457 21.0865C159.345 21.0993 159.254 21.1103 159.185 21.1195C159.016 21.1415 158.858 21.1772 158.712 21.2267C158.567 21.2744 158.45 21.3468 158.36 21.4439C158.272 21.5392 158.228 21.6694 158.228 21.8343C158.228 22.0598 158.311 22.2302 158.478 22.3457C158.647 22.4593 158.86 22.5161 159.119 22.5161Z" fill="#4D4D4D"/>
<path d="M168.56 17.3695V23H167.9L164.832 18.5792H164.777V23H164.095V17.3695H164.755L167.834 21.8013H167.889V17.3695H168.56ZM171.397 23.088C171.016 23.088 170.681 22.9973 170.393 22.8158C170.108 22.6343 169.884 22.3805 169.723 22.0543C169.563 21.728 169.483 21.3468 169.483 20.9106C169.483 20.4707 169.563 20.0867 169.723 19.7586C169.884 19.4305 170.108 19.1758 170.393 18.9943C170.681 18.8129 171.016 18.7221 171.397 18.7221C171.778 18.7221 172.112 18.8129 172.398 18.9943C172.685 19.1758 172.909 19.4305 173.068 19.7586C173.23 20.0867 173.31 20.4707 173.31 20.9106C173.31 21.3468 173.23 21.728 173.068 22.0543C172.909 22.3805 172.685 22.6343 172.398 22.8158C172.112 22.9973 171.778 23.088 171.397 23.088ZM171.397 22.5051C171.687 22.5051 171.925 22.4309 172.112 22.2824C172.299 22.134 172.437 21.9388 172.527 21.6968C172.617 21.4549 172.662 21.1928 172.662 20.9106C172.662 20.6283 172.617 20.3653 172.527 20.1215C172.437 19.8777 172.299 19.6807 172.112 19.5304C171.925 19.3801 171.687 19.305 171.397 19.305C171.107 19.305 170.869 19.3801 170.682 19.5304C170.495 19.6807 170.357 19.8777 170.267 20.1215C170.177 20.3653 170.132 20.6283 170.132 20.9106C170.132 21.1928 170.177 21.4549 170.267 21.6968C170.357 21.9388 170.495 22.134 170.682 22.2824C170.869 22.4309 171.107 22.5051 171.397 22.5051ZM175.741 23.088C175.389 23.088 175.078 22.9991 174.809 22.8213C174.539 22.6417 174.328 22.3887 174.176 22.0625C174.024 21.7344 173.948 21.3468 173.948 20.8996C173.948 20.456 174.024 20.0711 174.176 19.7449C174.328 19.4186 174.54 19.1666 174.811 18.9888C175.083 18.811 175.396 18.7221 175.752 18.7221C176.026 18.7221 176.244 18.768 176.403 18.8596C176.564 18.9494 176.687 19.0521 176.772 19.1675C176.858 19.2812 176.925 19.3746 176.972 19.4479H177.027V17.3695H177.676V23H177.049V22.3512H176.972C176.925 22.4282 176.857 22.5253 176.769 22.6426C176.681 22.7581 176.555 22.8616 176.392 22.9533C176.229 23.0431 176.012 23.088 175.741 23.088ZM175.829 22.5051C176.089 22.5051 176.309 22.4373 176.488 22.3017C176.668 22.1642 176.805 21.9745 176.898 21.7326C176.991 21.4888 177.038 21.2075 177.038 20.8886C177.038 20.5733 176.992 20.2975 176.901 20.061C176.809 19.8228 176.673 19.6376 176.494 19.5057C176.314 19.3719 176.092 19.305 175.829 19.305C175.554 19.305 175.325 19.3755 175.141 19.5167C174.96 19.656 174.823 19.8457 174.732 20.0858C174.642 20.324 174.597 20.5916 174.597 20.8886C174.597 21.1891 174.643 21.4622 174.734 21.7078C174.828 21.9516 174.965 22.1459 175.147 22.2907C175.33 22.4337 175.557 22.5051 175.829 22.5051ZM180.57 23.088C180.163 23.088 179.812 22.9982 179.517 22.8185C179.224 22.6371 178.998 22.3842 178.838 22.0598C178.68 21.7335 178.602 21.3541 178.602 20.9216C178.602 20.489 178.68 20.1078 178.838 19.7779C178.998 19.4461 179.219 19.1877 179.503 19.0026C179.789 18.8156 180.123 18.7221 180.504 18.7221C180.724 18.7221 180.941 18.7588 181.156 18.8321C181.37 18.9054 181.565 19.0246 181.741 19.1895C181.917 19.3526 182.058 19.5689 182.162 19.8383C182.266 20.1078 182.319 20.4395 182.319 20.8336V21.1085H179.064V20.5477H181.659C181.659 20.3094 181.611 20.0968 181.516 19.9098C181.422 19.7229 181.289 19.5753 181.115 19.4672C180.942 19.3591 180.739 19.305 180.504 19.305C180.246 19.305 180.022 19.3691 179.833 19.4974C179.646 19.6239 179.503 19.7889 179.402 19.9923C179.301 20.1957 179.251 20.4139 179.251 20.6466V21.0205C179.251 21.3394 179.305 21.6098 179.415 21.8316C179.527 22.0515 179.682 22.2192 179.88 22.3347C180.078 22.4483 180.308 22.5051 180.57 22.5051C180.741 22.5051 180.895 22.4813 181.032 22.4337C181.171 22.3842 181.291 22.3109 181.392 22.2137C181.493 22.1147 181.571 21.9919 181.626 21.8453L182.253 22.0213C182.187 22.2339 182.076 22.4208 181.92 22.5821C181.764 22.7416 181.572 22.8662 181.343 22.956C181.114 23.044 180.856 23.088 180.57 23.088Z" fill="#353FD7"/>
<path d="M125.854 47.3536C126.049 47.1583 126.049 46.8417 125.854 46.6464L122.672 43.4645C122.476 43.2692 122.16 43.2692 121.964 43.4645C121.769 43.6597 121.769 43.9763 121.964 44.1716L124.793 47L121.964 49.8284C121.769 50.0237 121.769 50.3403 121.964 50.5355C122.16 50.7308 122.476 50.7308 122.672 50.5355L125.854 47.3536ZM95.5 47.5H125.5V46.5H95.5V47.5Z" fill="black"/>
<path d="M126.999 20.535C127.018 20.2595 126.81 20.0206 126.535 20.0012L122.046 19.6862C121.771 19.6669 121.532 19.8745 121.512 20.15C121.493 20.4254 121.701 20.6644 121.976 20.6838L125.966 20.9638L125.686 24.954C125.667 25.2294 125.875 25.4684 126.15 25.4877C126.425 25.5071 126.664 25.2994 126.684 25.024L126.999 20.535ZM96.3279 47.3774L126.828 20.8774L126.172 20.1226L95.6721 46.6226L96.3279 47.3774Z" fill="black"/>
<path d="M125.999 72.4637C126.019 72.7391 125.812 72.9787 125.536 72.9987L121.048 73.3251C120.773 73.3451 120.533 73.1381 120.513 72.8627C120.493 72.5873 120.7 72.3478 120.976 72.3277L124.965 72.0376L124.675 68.0481C124.655 67.7727 124.862 67.5332 125.137 67.5132C125.413 67.4931 125.652 67.7002 125.672 67.9756L125.999 72.4637ZM96.327 46.6217L125.827 72.1217L125.173 72.8783L95.673 47.3783L96.327 46.6217Z" fill="black"/>
<circle cx="97" cy="47" r="2" fill="black"/>
<defs>
<clipPath id="clip0_1643_26475">
<rect width="32" height="36" fill="white" transform="translate(31 30)"/>
</clipPath>
</defs>
</svg>
