<svg width="24" height="24" viewBox="0 0 24 24" fill="none" xmlns="http://www.w3.org/2000/svg">
<g clip-path="url(#clip0_1643_26537)">
<path d="M22.5 2.25H21.75V1.5C21.75 1.30109 21.671 1.11032 21.5303 0.96967C21.3897 0.829018 21.1989 0.75 21 0.75H3C2.80109 0.75 2.61032 0.829018 2.46967 0.96967C2.32902 1.11032 2.25 1.30109 2.25 1.5V2.25H1.5C1.30109 2.25 1.11032 2.32902 0.96967 2.46967C0.829018 2.61032 0.75 2.80109 0.75 3C0.75 3.19891 0.829018 3.38968 0.96967 3.53033C1.11032 3.67098 1.30109 3.75 1.5 3.75H2.25V4.5C2.25 4.69891 2.32902 4.88968 2.46967 5.03033C2.61032 5.17098 2.80109 5.25 3 5.25H3.75V19.5C3.74985 19.6502 3.79482 19.797 3.87906 19.9214C3.96331 20.0457 4.08295 20.1419 4.2225 20.1975L11.7225 23.1975C11.9007 23.2685 12.0993 23.2685 12.2775 23.1975L19.7775 20.1975C19.917 20.1419 20.0367 20.0457 20.1209 19.9214C20.2052 19.797 20.2501 19.6502 20.25 19.5V5.25H21C21.1989 5.25 21.3897 5.17098 21.5303 5.03033C21.671 4.88968 21.75 4.69891 21.75 4.5V3.75H22.5C22.6989 3.75 22.8897 3.67098 23.0303 3.53033C23.171 3.38968 23.25 3.19891 23.25 3C23.25 2.80109 23.171 2.61032 23.0303 2.46967C22.8897 2.32902 22.6989 2.25 22.5 2.25ZM5.25 5.25H8.25V20.19L5.25 18.99V5.25ZM12 21.69L9.75 20.79V5.25H14.25V20.79L12 21.69ZM18.75 18.99L15.75 20.19V5.25H18.75V18.99ZM20.25 3.75H3.75V2.25H20.25V3.75Z" fill="black"/>
</g>
<defs>
<clipPath id="clip0_1643_26537">
<rect width="24" height="24" fill="white"/>
</clipPath>
</defs>
</svg>
