<svg width="240" height="203" viewBox="0 0 240 203" fill="none" xmlns="http://www.w3.org/2000/svg">
<rect width="240" height="202.396" fill="#F1F1F1"/>
<rect x="9" y="9" width="222" height="31" rx="8" fill="white"/>
<path d="M25.3408 24.3683C25.3408 24.9622 25.2335 25.4754 25.0191 25.9079C24.8046 26.3405 24.5105 26.6741 24.1366 26.9087C23.7627 27.1433 23.3356 27.2606 22.8554 27.2606C22.3752 27.2606 21.9482 27.1433 21.5743 26.9087C21.2004 26.6741 20.9062 26.3405 20.6917 25.9079C20.4773 25.4754 20.3701 24.9622 20.3701 24.3683C20.3701 23.7745 20.4773 23.2613 20.6917 22.8288C20.9062 22.3962 21.2004 22.0626 21.5743 21.828C21.9482 21.5934 22.3752 21.4761 22.8554 21.4761C23.3356 21.4761 23.7627 21.5934 24.1366 21.828C24.5105 22.0626 24.8046 22.3962 25.0191 22.8288C25.2335 23.2613 25.3408 23.7745 25.3408 24.3683ZM24.6809 24.3683C24.6809 23.8808 24.5994 23.4693 24.4362 23.1339C24.275 22.7985 24.0559 22.5447 23.7792 22.3724C23.5042 22.2001 23.1963 22.1139 22.8554 22.1139C22.5145 22.1139 22.2057 22.2001 21.9289 22.3724C21.654 22.5447 21.435 22.7985 21.2718 23.1339C21.1105 23.4693 21.0299 23.8808 21.0299 24.3683C21.0299 24.8559 21.1105 25.2674 21.2718 25.6028C21.435 25.9382 21.654 26.192 21.9289 26.3643C22.2057 26.5366 22.5145 26.6227 22.8554 26.6227C23.1963 26.6227 23.5042 26.5366 23.7792 26.3643C24.0559 26.192 24.275 25.9382 24.4362 25.6028C24.5994 25.2674 24.6809 24.8559 24.6809 24.3683ZM27.839 27.2716C27.4871 27.2716 27.1764 27.1827 26.907 27.0049C26.6375 26.8253 26.4268 26.5723 26.2746 26.2461C26.1225 25.918 26.0464 25.5304 26.0464 25.0832C26.0464 24.6396 26.1225 24.2547 26.2746 23.9285C26.4268 23.6022 26.6384 23.3502 26.9097 23.1724C27.181 22.9946 27.4944 22.9057 27.85 22.9057C28.1249 22.9057 28.3421 22.9516 28.5015 23.0432C28.6628 23.133 28.7856 23.2356 28.8699 23.3511C28.9561 23.4648 29.023 23.5582 29.0706 23.6315H29.1256V21.5531H29.7744V27.1836H29.1476V26.5348H29.0706C29.023 26.6117 28.9552 26.7089 28.8672 26.8262C28.7792 26.9417 28.6537 27.0452 28.4905 27.1369C28.3274 27.2267 28.1102 27.2716 27.839 27.2716ZM27.9269 26.6887C28.1872 26.6887 28.4071 26.6209 28.5868 26.4853C28.7664 26.3478 28.9029 26.1581 28.9964 25.9162C29.0899 25.6724 29.1366 25.3911 29.1366 25.0722C29.1366 24.7569 29.0908 24.4811 28.9991 24.2446C28.9075 24.0064 28.7719 23.8212 28.5923 23.6893C28.4126 23.5555 28.1909 23.4886 27.9269 23.4886C27.652 23.4886 27.4229 23.5591 27.2396 23.7003C27.0582 23.8396 26.9216 24.0293 26.83 24.2694C26.7402 24.5076 26.6953 24.7752 26.6953 25.0722C26.6953 25.3727 26.7411 25.6458 26.8327 25.8914C26.9262 26.1352 27.0637 26.3295 27.2451 26.4743C27.4284 26.6172 27.6557 26.6887 27.9269 26.6887ZM32.4926 27.2716C32.1407 27.2716 31.83 27.1827 31.5606 27.0049C31.2912 26.8253 31.0804 26.5723 30.9283 26.2461C30.7761 25.918 30.7001 25.5304 30.7001 25.0832C30.7001 24.6396 30.7761 24.2547 30.9283 23.9285C31.0804 23.6022 31.2921 23.3502 31.5633 23.1724C31.8346 22.9946 32.148 22.9057 32.5036 22.9057C32.7785 22.9057 32.9957 22.9516 33.1552 23.0432C33.3165 23.133 33.4393 23.2356 33.5236 23.3511C33.6097 23.4648 33.6766 23.5582 33.7243 23.6315H33.7792V21.5531H34.4281V27.1836H33.8012V26.5348H33.7243C33.6766 26.6117 33.6088 26.7089 33.5208 26.8262C33.4328 26.9417 33.3073 27.0452 33.1442 27.1369C32.981 27.2267 32.7638 27.2716 32.4926 27.2716ZM32.5806 26.6887C32.8408 26.6887 33.0608 26.6209 33.2404 26.4853C33.42 26.3478 33.5566 26.1581 33.65 25.9162C33.7435 25.6724 33.7902 25.3911 33.7902 25.0722C33.7902 24.7569 33.7444 24.4811 33.6528 24.2446C33.5611 24.0064 33.4255 23.8212 33.2459 23.6893C33.0663 23.5555 32.8445 23.4886 32.5806 23.4886C32.3056 23.4886 32.0765 23.5591 31.8932 23.7003C31.7118 23.8396 31.5752 24.0293 31.4836 24.2694C31.3938 24.5076 31.3489 24.7752 31.3489 25.0722C31.3489 25.3727 31.3947 25.6458 31.4864 25.8914C31.5798 26.1352 31.7173 26.3295 31.8987 26.4743C32.082 26.6172 32.3093 26.6887 32.5806 26.6887Z" fill="#4D4D4D"/>
<path d="M37.3543 22.1579V21.5531H41.5772V22.1579H39.8066V27.1836H39.1248V22.1579H37.3543ZM43.0354 24.6433V27.1836H42.3866V21.5531H43.0354V23.6205H43.0904C43.1894 23.4024 43.3379 23.2292 43.5358 23.1009C43.7356 22.9708 44.0014 22.9057 44.3331 22.9057C44.6209 22.9057 44.8729 22.9635 45.0891 23.0789C45.3054 23.1926 45.4731 23.3676 45.5923 23.604C45.7132 23.8387 45.7737 24.1374 45.7737 24.5003V27.1836H45.1249V24.5443C45.1249 24.2089 45.0378 23.9495 44.8637 23.7663C44.6914 23.5811 44.4522 23.4886 44.1462 23.4886C43.9335 23.4886 43.7429 23.5335 43.5743 23.6233C43.4075 23.7131 43.2755 23.8442 43.1784 24.0164C43.0831 24.1887 43.0354 24.3977 43.0354 24.6433ZM48.5214 27.2716C48.1402 27.2716 47.8057 27.1808 47.5179 26.9994C47.232 26.8179 47.0084 26.5641 46.8471 26.2378C46.6877 25.9116 46.6079 25.5304 46.6079 25.0942C46.6079 24.6543 46.6877 24.2703 46.8471 23.9422C47.0084 23.6141 47.232 23.3594 47.5179 23.1779C47.8057 22.9965 48.1402 22.9057 48.5214 22.9057C48.9026 22.9057 49.2362 22.9965 49.5221 23.1779C49.8099 23.3594 50.0335 23.6141 50.193 23.9422C50.3543 24.2703 50.4349 24.6543 50.4349 25.0942C50.4349 25.5304 50.3543 25.9116 50.193 26.2378C50.0335 26.5641 49.8099 26.8179 49.5221 26.9994C49.2362 27.1808 48.9026 27.2716 48.5214 27.2716ZM48.5214 26.6887C48.811 26.6887 49.0493 26.6145 49.2362 26.466C49.4232 26.3176 49.5616 26.1224 49.6514 25.8804C49.7412 25.6385 49.7861 25.3764 49.7861 25.0942C49.7861 24.8119 49.7412 24.5489 49.6514 24.3051C49.5616 24.0613 49.4232 23.8643 49.2362 23.714C49.0493 23.5637 48.811 23.4886 48.5214 23.4886C48.2318 23.4886 47.9936 23.5637 47.8066 23.714C47.6197 23.8643 47.4813 24.0613 47.3915 24.3051C47.3017 24.5489 47.2568 24.8119 47.2568 25.0942C47.2568 25.3764 47.3017 25.6385 47.3915 25.8804C47.4813 26.1224 47.6197 26.3176 47.8066 26.466C47.9936 26.6145 48.2318 26.6887 48.5214 26.6887ZM51.2705 27.1836V22.9607H51.8973V23.6205H51.9523C52.0403 23.3951 52.1823 23.2201 52.3784 23.0954C52.5746 22.969 52.8101 22.9057 53.085 22.9057C53.3636 22.9057 53.5955 22.969 53.7806 23.0954C53.9675 23.2201 54.1132 23.3951 54.2177 23.6205H54.2617C54.3698 23.4024 54.532 23.2292 54.7483 23.1009C54.9646 22.9708 55.2239 22.9057 55.5264 22.9057C55.9039 22.9057 56.2128 23.024 56.4529 23.2604C56.693 23.495 56.813 23.8606 56.813 24.3573V27.1836H56.1642V24.3573C56.1642 24.0458 56.079 23.8231 55.9085 23.6893C55.738 23.5555 55.5374 23.4886 55.3064 23.4886C55.0095 23.4886 54.7795 23.5784 54.6163 23.758C54.4532 23.9358 54.3717 24.1612 54.3717 24.4343V27.1836H53.7118V24.2914C53.7118 24.0513 53.6339 23.8579 53.4782 23.7113C53.3224 23.5628 53.1217 23.4886 52.8761 23.4886C52.7074 23.4886 52.5498 23.5335 52.4032 23.6233C52.2584 23.7131 52.1411 23.8377 52.0513 23.9972C51.9633 24.1548 51.9193 24.3372 51.9193 24.5443V27.1836H51.2705ZM59.0872 27.2826C58.8196 27.2826 58.5767 27.2322 58.3586 27.1314C58.1405 27.0287 57.9673 26.8812 57.839 26.6887C57.7107 26.4944 57.6465 26.2598 57.6465 25.9849C57.6465 25.743 57.6942 25.5469 57.7895 25.3966C57.8848 25.2444 58.0122 25.1253 58.1716 25.0392C58.3311 24.953 58.5071 24.8889 58.6995 24.8467C58.8938 24.8027 59.089 24.7679 59.2851 24.7422C59.5417 24.7093 59.7497 24.6845 59.9092 24.668C60.0705 24.6497 60.1878 24.6194 60.2611 24.5773C60.3362 24.5351 60.3738 24.4618 60.3738 24.3573V24.3354C60.3738 24.0641 60.2996 23.8533 60.1511 23.703C60.0045 23.5527 59.7818 23.4776 59.483 23.4776C59.1733 23.4776 58.9304 23.5454 58.7545 23.681C58.5785 23.8167 58.4548 23.9615 58.3833 24.1154L57.7675 23.8955C57.8775 23.6389 58.0241 23.4391 58.2074 23.2961C58.3925 23.1513 58.5941 23.0505 58.8122 22.9937C59.0322 22.9351 59.2484 22.9057 59.4611 22.9057C59.5967 22.9057 59.7525 22.9222 59.9284 22.9552C60.1062 22.9864 60.2776 23.0514 60.4425 23.1504C60.6093 23.2494 60.7477 23.3988 60.8577 23.5985C60.9676 23.7983 61.0226 24.0659 61.0226 24.4013V27.1836H60.3738V26.6117H60.3408C60.2968 26.7034 60.2235 26.8014 60.1209 26.9059C60.0182 27.0104 59.8817 27.0993 59.7112 27.1726C59.5408 27.2459 59.3328 27.2826 59.0872 27.2826ZM59.1861 26.6997C59.4427 26.6997 59.659 26.6493 59.835 26.5485C60.0127 26.4477 60.1465 26.3176 60.2363 26.1581C60.328 25.9987 60.3738 25.831 60.3738 25.655V25.0612C60.3463 25.0942 60.2858 25.1244 60.1924 25.1519C60.1007 25.1775 59.9944 25.2005 59.8734 25.2206C59.7543 25.2389 59.6379 25.2554 59.5243 25.2701C59.4125 25.2829 59.3218 25.2939 59.2521 25.3031C59.0835 25.3251 58.9259 25.3608 58.7792 25.4103C58.6344 25.458 58.5171 25.5304 58.4273 25.6275C58.3394 25.7228 58.2954 25.8529 58.2954 26.0179C58.2954 26.2433 58.3788 26.4138 58.5455 26.5293C58.7142 26.6429 58.9277 26.6997 59.1861 26.6997ZM65.0432 23.9065L64.4604 24.0714C64.4237 23.9743 64.3697 23.8799 64.2982 23.7882C64.2285 23.6948 64.1332 23.6178 64.0123 23.5573C63.8913 23.4968 63.7364 23.4666 63.5476 23.4666C63.2892 23.4666 63.0739 23.5262 62.9016 23.6453C62.7311 23.7626 62.6459 23.912 62.6459 24.0934C62.6459 24.2547 62.7045 24.3821 62.8218 24.4756C62.9391 24.569 63.1224 24.6469 63.3717 24.7093L63.9985 24.8632C64.3761 24.9549 64.6574 25.0951 64.8425 25.2839C65.0277 25.4708 65.1202 25.7118 65.1202 26.0069C65.1202 26.2488 65.0506 26.4651 64.9113 26.6557C64.7738 26.8464 64.5814 26.9966 64.3339 27.1066C64.0865 27.2166 63.7987 27.2716 63.4707 27.2716C63.0399 27.2716 62.6835 27.1781 62.4012 26.9911C62.1189 26.8042 61.9402 26.5311 61.8651 26.1719L62.4809 26.0179C62.5396 26.2452 62.6505 26.4156 62.8136 26.5293C62.9785 26.6429 63.1939 26.6997 63.4597 26.6997C63.7621 26.6997 64.0022 26.6356 64.18 26.5073C64.3596 26.3771 64.4494 26.2214 64.4494 26.0399C64.4494 25.8933 64.3981 25.7705 64.2954 25.6715C64.1928 25.5707 64.0352 25.4955 63.8226 25.4461L63.1188 25.2811C62.732 25.1895 62.4479 25.0474 62.2665 24.855C62.0869 24.6607 61.9971 24.4178 61.9971 24.1264C61.9971 23.8881 62.064 23.6774 62.1978 23.4941C62.3334 23.3108 62.5176 23.1669 62.7504 23.0624C62.985 22.958 63.2507 22.9057 63.5476 22.9057C63.9655 22.9057 64.2936 22.9974 64.5319 23.1807C64.772 23.3639 64.9424 23.6059 65.0432 23.9065Z" fill="#353FD7"/>
<path d="M214.793 24.2486L217.816 21.2256" stroke="#353FD7" stroke-width="0.829493" stroke-linecap="round" stroke-linejoin="round"/>
<path d="M218.111 22.7002V20.9307H216.342" stroke="#353FD7" stroke-width="0.829493" stroke-linecap="round" stroke-linejoin="round"/>
<path d="M214.054 20.9307H213.317C211.474 20.9307 210.736 21.668 210.736 23.5113V25.7233C210.736 27.5666 211.474 28.3039 213.317 28.3039H215.529C217.372 28.3039 218.11 27.5666 218.11 25.7233V24.986" stroke="#353FD7" stroke-width="0.829493" stroke-linecap="round" stroke-linejoin="round"/>
<rect x="26" y="43" width="188" height="31" rx="8" fill="white"/>
<path d="M42.1884 58.6555C42.1884 59.2493 42.0812 59.7625 41.8667 60.195C41.6523 60.6276 41.3581 60.9612 40.9842 61.1958C40.6103 61.4304 40.1833 61.5477 39.7031 61.5477C39.2229 61.5477 38.7958 61.4304 38.4219 61.1958C38.048 60.9612 37.7538 60.6276 37.5394 60.195C37.325 59.7625 37.2177 59.2493 37.2177 58.6555C37.2177 58.0616 37.325 57.5484 37.5394 57.1159C37.7538 56.6833 38.048 56.3497 38.4219 56.1151C38.7958 55.8805 39.2229 55.7632 39.7031 55.7632C40.1833 55.7632 40.6103 55.8805 40.9842 56.1151C41.3581 56.3497 41.6523 56.6833 41.8667 57.1159C42.0812 57.5484 42.1884 58.0616 42.1884 58.6555ZM41.5286 58.6555C41.5286 58.1679 41.447 57.7564 41.2839 57.421C41.1226 57.0856 40.9036 56.8318 40.6268 56.6595C40.3519 56.4872 40.044 56.4011 39.7031 56.4011C39.3622 56.4011 39.0533 56.4872 38.7766 56.6595C38.5016 56.8318 38.2826 57.0856 38.1195 57.421C37.9582 57.7564 37.8776 58.1679 37.8776 58.6555C37.8776 59.143 37.9582 59.5545 38.1195 59.8899C38.2826 60.2253 38.5016 60.4791 38.7766 60.6514C39.0533 60.8237 39.3622 60.9099 39.7031 60.9099C40.044 60.9099 40.3519 60.8237 40.6268 60.6514C40.9036 60.4791 41.1226 60.2253 41.2839 59.8899C41.447 59.5545 41.5286 59.143 41.5286 58.6555ZM44.6866 61.5587C44.3347 61.5587 44.024 61.4698 43.7546 61.292C43.4852 61.1124 43.2744 60.8594 43.1223 60.5332C42.9702 60.2051 42.8941 59.8175 42.8941 59.3703C42.8941 58.9267 42.9702 58.5418 43.1223 58.2156C43.2744 57.8893 43.4861 57.6373 43.7574 57.4595C44.0286 57.2817 44.342 57.1928 44.6976 57.1928C44.9725 57.1928 45.1897 57.2387 45.3492 57.3303C45.5105 57.4201 45.6333 57.5228 45.7176 57.6382C45.8037 57.7519 45.8706 57.8453 45.9183 57.9187H45.9733V55.8402H46.6221V61.4707H45.9953V60.8219H45.9183C45.8706 60.8989 45.8028 60.996 45.7148 61.1133C45.6269 61.2288 45.5013 61.3323 45.3382 61.424C45.1751 61.5138 44.9579 61.5587 44.6866 61.5587ZM44.7746 60.9758C45.0349 60.9758 45.2548 60.908 45.4344 60.7724C45.614 60.6349 45.7506 60.4452 45.8441 60.2033C45.9375 59.9595 45.9843 59.6782 45.9843 59.3593C45.9843 59.044 45.9384 58.7682 45.8468 58.5317C45.7552 58.2935 45.6195 58.1083 45.4399 57.9764C45.2603 57.8426 45.0385 57.7757 44.7746 57.7757C44.4997 57.7757 44.2706 57.8463 44.0873 57.9874C43.9058 58.1267 43.7693 58.3164 43.6776 58.5565C43.5878 58.7948 43.5429 59.0623 43.5429 59.3593C43.5429 59.6599 43.5887 59.9329 43.6804 60.1785C43.7739 60.4223 43.9113 60.6166 44.0928 60.7614C44.2761 60.9044 44.5033 60.9758 44.7746 60.9758ZM49.3402 61.5587C48.9883 61.5587 48.6777 61.4698 48.4082 61.292C48.1388 61.1124 47.928 60.8594 47.7759 60.5332C47.6238 60.2051 47.5477 59.8175 47.5477 59.3703C47.5477 58.9267 47.6238 58.5418 47.7759 58.2156C47.928 57.8893 48.1397 57.6373 48.411 57.4595C48.6823 57.2817 48.9957 57.1928 49.3512 57.1928C49.6262 57.1928 49.8434 57.2387 50.0028 57.3303C50.1641 57.4201 50.2869 57.5228 50.3712 57.6382C50.4574 57.7519 50.5243 57.8453 50.5719 57.9187H50.6269V55.8402H51.2757V61.4707H50.6489V60.8219H50.5719C50.5243 60.8989 50.4564 60.996 50.3685 61.1133C50.2805 61.2288 50.1549 61.3323 49.9918 61.424C49.8287 61.5138 49.6115 61.5587 49.3402 61.5587ZM49.4282 60.9758C49.6885 60.9758 49.9084 60.908 50.088 60.7724C50.2677 60.6349 50.4042 60.4452 50.4977 60.2033C50.5912 59.9595 50.6379 59.6782 50.6379 59.3593C50.6379 59.044 50.5921 58.7682 50.5004 58.5317C50.4088 58.2935 50.2732 58.1083 50.0935 57.9764C49.9139 57.8426 49.6921 57.7757 49.4282 57.7757C49.1533 57.7757 48.9242 57.8463 48.7409 57.9874C48.5595 58.1267 48.4229 58.3164 48.3313 58.5565C48.2415 58.7948 48.1965 59.0623 48.1965 59.3593C48.1965 59.6599 48.2424 59.9329 48.334 60.1785C48.4275 60.4223 48.565 60.6166 48.7464 60.7614C48.9297 60.9044 49.157 60.9758 49.4282 60.9758Z" fill="#4D4D4D"/>
<path d="M54.2019 56.445V55.8402H58.4248V56.445H56.6543V61.4707H55.9725V56.445H54.2019ZM59.8831 58.9304V61.4707H59.2343V55.8402H59.8831V57.9077H59.9381C60.0371 57.6895 60.1855 57.5163 60.3835 57.388C60.5832 57.2579 60.849 57.1928 61.1808 57.1928C61.4685 57.1928 61.7205 57.2506 61.9368 57.366C62.1531 57.4797 62.3208 57.6547 62.4399 57.8912C62.5609 58.1258 62.6214 58.4245 62.6214 58.7874V61.4707H61.9725V58.8314C61.9725 58.496 61.8855 58.2366 61.7114 58.0534C61.5391 57.8682 61.2999 57.7757 60.9938 57.7757C60.7812 57.7757 60.5906 57.8206 60.422 57.9104C60.2552 58.0002 60.1232 58.1313 60.0261 58.3035C59.9308 58.4758 59.8831 58.6848 59.8831 58.9304ZM65.3691 61.5587C64.9878 61.5587 64.6533 61.468 64.3656 61.2865C64.0797 61.1051 63.8561 60.8512 63.6948 60.525C63.5353 60.1987 63.4556 59.8175 63.4556 59.3813C63.4556 58.9414 63.5353 58.5574 63.6948 58.2293C63.8561 57.9012 64.0797 57.6465 64.3656 57.465C64.6533 57.2836 64.9878 57.1928 65.3691 57.1928C65.7503 57.1928 66.0839 57.2836 66.3698 57.465C66.6576 57.6465 66.8812 57.9012 67.0406 58.2293C67.2019 58.5574 67.2826 58.9414 67.2826 59.3813C67.2826 59.8175 67.2019 60.1987 67.0406 60.525C66.8812 60.8512 66.6576 61.1051 66.3698 61.2865C66.0839 61.468 65.7503 61.5587 65.3691 61.5587ZM65.3691 60.9758C65.6587 60.9758 65.8969 60.9016 66.0839 60.7531C66.2708 60.6047 66.4092 60.4095 66.499 60.1676C66.5888 59.9256 66.6337 59.6635 66.6337 59.3813C66.6337 59.099 66.5888 58.836 66.499 58.5922C66.4092 58.3485 66.2708 58.1514 66.0839 58.0011C65.8969 57.8508 65.6587 57.7757 65.3691 57.7757C65.0795 57.7757 64.8412 57.8508 64.6543 58.0011C64.4673 58.1514 64.3289 58.3485 64.2391 58.5922C64.1493 58.836 64.1044 59.099 64.1044 59.3813C64.1044 59.6635 64.1493 59.9256 64.2391 60.1676C64.3289 60.4095 64.4673 60.6047 64.6543 60.7531C64.8412 60.9016 65.0795 60.9758 65.3691 60.9758ZM68.1181 61.4707V57.2478H68.745V57.9077H68.8C68.8879 57.6822 69.03 57.5072 69.2261 57.3825C69.4222 57.2561 69.6577 57.1928 69.9327 57.1928C70.2113 57.1928 70.4431 57.2561 70.6282 57.3825C70.8152 57.5072 70.9609 57.6822 71.0654 57.9077H71.1093C71.2175 57.6895 71.3797 57.5163 71.596 57.388C71.8122 57.2579 72.0716 57.1928 72.374 57.1928C72.7516 57.1928 73.0604 57.3111 73.3005 57.5475C73.5406 57.7821 73.6607 58.1478 73.6607 58.6445V61.4707H73.0118V58.6445C73.0118 58.3329 72.9266 58.1102 72.7562 57.9764C72.5857 57.8426 72.385 57.7757 72.1541 57.7757C71.8572 57.7757 71.6271 57.8655 71.464 58.0451C71.3009 58.2229 71.2193 58.4483 71.2193 58.7214V61.4707H70.5595V58.5785C70.5595 58.3384 70.4816 58.145 70.3258 57.9984C70.17 57.8499 69.9693 57.7757 69.7237 57.7757C69.5551 57.7757 69.3975 57.8206 69.2508 57.9104C69.1061 58.0002 68.9887 58.1248 68.8989 58.2843C68.811 58.4419 68.767 58.6243 68.767 58.8314V61.4707H68.1181ZM75.9348 61.5697C75.6672 61.5697 75.4244 61.5193 75.2063 61.4185C74.9881 61.3158 74.8149 61.1683 74.6866 60.9758C74.5583 60.7816 74.4942 60.5469 74.4942 60.272C74.4942 60.0301 74.5418 59.834 74.6372 59.6837C74.7325 59.5316 74.8598 59.4124 75.0193 59.3263C75.1788 59.2401 75.3547 59.176 75.5472 59.1338C75.7414 59.0898 75.9366 59.055 76.1328 59.0294C76.3894 58.9964 76.5974 58.9716 76.7568 58.9551C76.9181 58.9368 77.0354 58.9066 77.1087 58.8644C77.1839 58.8222 77.2215 58.7489 77.2215 58.6445V58.6225C77.2215 58.3512 77.1472 58.1404 76.9988 57.9901C76.8521 57.8398 76.6295 57.7647 76.3307 57.7647C76.021 57.7647 75.7781 57.8325 75.6021 57.9681C75.4262 58.1038 75.3025 58.2486 75.231 58.4025L74.6152 58.1826C74.7251 57.926 74.8718 57.7262 75.055 57.5832C75.2402 57.4384 75.4418 57.3376 75.6599 57.2808C75.8798 57.2222 76.0961 57.1928 76.3087 57.1928C76.4443 57.1928 76.6001 57.2093 76.7761 57.2423C76.9539 57.2735 77.1252 57.3386 77.2902 57.4375C77.457 57.5365 77.5954 57.6859 77.7053 57.8857C77.8153 58.0854 77.8703 58.353 77.8703 58.6884V61.4707H77.2215V60.8989H77.1885C77.1445 60.9905 77.0712 61.0886 76.9685 61.193C76.8659 61.2975 76.7293 61.3864 76.5589 61.4597C76.3884 61.533 76.1804 61.5697 75.9348 61.5697ZM76.0338 60.9868C76.2904 60.9868 76.5067 60.9364 76.6826 60.8356C76.8604 60.7348 76.9942 60.6047 77.084 60.4452C77.1756 60.2858 77.2215 60.1181 77.2215 59.9421V59.3483C77.194 59.3813 77.1335 59.4115 77.04 59.439C76.9484 59.4647 76.8421 59.4876 76.7211 59.5077C76.602 59.5261 76.4856 59.5426 76.3719 59.5572C76.2601 59.57 76.1694 59.581 76.0998 59.5902C75.9311 59.6122 75.7735 59.6479 75.6269 59.6974C75.4821 59.7451 75.3648 59.8175 75.275 59.9146C75.187 60.0099 75.143 60.1401 75.143 60.305C75.143 60.5305 75.2264 60.7009 75.3932 60.8164C75.5618 60.93 75.7753 60.9868 76.0338 60.9868ZM81.8909 58.1936L81.3081 58.3585C81.2714 58.2614 81.2173 58.167 81.1459 58.0754C81.0762 57.9819 80.9809 57.9049 80.8599 57.8444C80.739 57.7839 80.5841 57.7537 80.3953 57.7537C80.1369 57.7537 79.9215 57.8133 79.7492 57.9324C79.5788 58.0497 79.4935 58.1991 79.4935 58.3805C79.4935 58.5418 79.5522 58.6692 79.6695 58.7627C79.7868 58.8562 79.9701 58.934 80.2193 58.9964L80.8462 59.1503C81.2237 59.242 81.5051 59.3822 81.6902 59.571C81.8753 59.7579 81.9679 59.9989 81.9679 60.294C81.9679 60.536 81.8982 60.7522 81.7589 60.9428C81.6215 61.1335 81.429 61.2838 81.1816 61.3937C80.9342 61.5037 80.6464 61.5587 80.3183 61.5587C79.8876 61.5587 79.5311 61.4652 79.2489 61.2783C78.9666 61.0913 78.7879 60.8182 78.7128 60.459L79.3286 60.305C79.3872 60.5323 79.4981 60.7027 79.6612 60.8164C79.8262 60.93 80.0416 60.9868 80.3073 60.9868C80.6097 60.9868 80.8498 60.9227 81.0276 60.7944C81.2073 60.6643 81.2971 60.5085 81.2971 60.327C81.2971 60.1804 81.2457 60.0576 81.1431 59.9586C81.0405 59.8578 80.8828 59.7827 80.6702 59.7332L79.9664 59.5682C79.5797 59.4766 79.2956 59.3345 79.1141 59.1421C78.9345 58.9478 78.8447 58.7049 78.8447 58.4135C78.8447 58.1752 78.9116 57.9645 79.0454 57.7812C79.181 57.5979 79.3652 57.454 79.598 57.3496C79.8326 57.2451 80.0984 57.1928 80.3953 57.1928C80.8132 57.1928 81.1413 57.2845 81.3795 57.4678C81.6196 57.6511 81.7901 57.893 81.8909 58.1936Z" fill="#353FD7"/>
<path d="M197.793 58.2486L200.816 55.2256" stroke="#4D4D4D" stroke-width="0.829493" stroke-linecap="round" stroke-linejoin="round"/>
<path d="M201.111 56.7002V54.9307H199.342" stroke="#4D4D4D" stroke-width="0.829493" stroke-linecap="round" stroke-linejoin="round"/>
<path d="M197.054 54.9307H196.317C194.474 54.9307 193.736 55.668 193.736 57.5113V59.7233C193.736 61.5666 194.474 62.3039 196.317 62.3039H198.529C200.372 62.3039 201.11 61.5666 201.11 59.7233V58.986" stroke="#4D4D4D" stroke-width="0.829493" stroke-linecap="round" stroke-linejoin="round"/>
<rect x="50" y="77" width="140" height="31" rx="8" fill="white"/>
<path d="M66.0361 92.9406C66.0361 93.5345 65.9288 94.0476 65.7144 94.4802C65.5 94.9128 65.2058 95.2463 64.8319 95.4809C64.458 95.7155 64.0309 95.8328 63.5507 95.8328C63.0705 95.8328 62.6435 95.7155 62.2696 95.4809C61.8957 95.2463 61.6015 94.9128 61.3871 94.4802C61.1726 94.0476 61.0654 93.5345 61.0654 92.9406C61.0654 92.3468 61.1726 91.8336 61.3871 91.401C61.6015 90.9685 61.8957 90.6349 62.2696 90.4003C62.6435 90.1657 63.0705 90.0484 63.5507 90.0484C64.0309 90.0484 64.458 90.1657 64.8319 90.4003C65.2058 90.6349 65.5 90.9685 65.7144 91.401C65.9288 91.8336 66.0361 92.3468 66.0361 92.9406ZM65.3762 92.9406C65.3762 92.4531 65.2947 92.0416 65.1316 91.7062C64.9703 91.3708 64.7512 91.1169 64.4745 90.9446C64.1996 90.7724 63.8916 90.6862 63.5507 90.6862C63.2098 90.6862 62.901 90.7724 62.6242 90.9446C62.3493 91.1169 62.1303 91.3708 61.9672 91.7062C61.8059 92.0416 61.7252 92.4531 61.7252 92.9406C61.7252 93.4281 61.8059 93.8396 61.9672 94.175C62.1303 94.5104 62.3493 94.7643 62.6242 94.9366C62.901 95.1089 63.2098 95.195 63.5507 95.195C63.8916 95.195 64.1996 95.1089 64.4745 94.9366C64.7512 94.7643 64.9703 94.5104 65.1316 94.175C65.2947 93.8396 65.3762 93.4281 65.3762 92.9406ZM68.5343 95.8438C68.1824 95.8438 67.8717 95.7549 67.6023 95.5772C67.3328 95.3975 67.1221 95.1446 66.9699 94.8184C66.8178 94.4903 66.7417 94.1026 66.7417 93.6554C66.7417 93.2119 66.8178 92.827 66.9699 92.5007C67.1221 92.1745 67.3338 91.9225 67.605 91.7447C67.8763 91.5669 68.1897 91.478 68.5453 91.478C68.8202 91.478 69.0374 91.5238 69.1968 91.6155C69.3581 91.7053 69.4809 91.8079 69.5652 91.9234C69.6514 92.037 69.7183 92.1305 69.7659 92.2038H69.8209V90.1254H70.4698V95.7559H69.8429V95.107H69.7659C69.7183 95.184 69.6505 95.2812 69.5625 95.3985C69.4745 95.5139 69.349 95.6175 69.1858 95.7091C69.0227 95.7989 68.8055 95.8438 68.5343 95.8438ZM68.6222 95.261C68.8825 95.261 69.1025 95.1932 69.2821 95.0575C69.4617 94.9201 69.5982 94.7304 69.6917 94.4884C69.7852 94.2447 69.8319 93.9633 69.8319 93.6444C69.8319 93.3292 69.7861 93.0533 69.6945 92.8169C69.6028 92.5786 69.4672 92.3935 69.2876 92.2615C69.108 92.1277 68.8862 92.0608 68.6222 92.0608C68.3473 92.0608 68.1182 92.1314 67.9349 92.2725C67.7535 92.4118 67.6169 92.6015 67.5253 92.8416C67.4355 93.0799 67.3906 93.3475 67.3906 93.6444C67.3906 93.945 67.4364 94.2181 67.528 94.4637C67.6215 94.7075 67.759 94.9018 67.9404 95.0465C68.1237 95.1895 68.351 95.261 68.6222 95.261ZM73.1879 95.8438C72.836 95.8438 72.5253 95.7549 72.2559 95.5772C71.9865 95.3975 71.7757 95.1446 71.6236 94.8184C71.4714 94.4903 71.3954 94.1026 71.3954 93.6554C71.3954 93.2119 71.4714 92.827 71.6236 92.5007C71.7757 92.1745 71.9874 91.9225 72.2586 91.7447C72.5299 91.5669 72.8433 91.478 73.1989 91.478C73.4738 91.478 73.691 91.5238 73.8505 91.6155C74.0118 91.7053 74.1346 91.8079 74.2189 91.9234C74.305 92.037 74.3719 92.1305 74.4196 92.2038H74.4746V90.1254H75.1234V95.7559H74.4966V95.107H74.4196C74.3719 95.184 74.3041 95.2812 74.2161 95.3985C74.1281 95.5139 74.0026 95.6175 73.8395 95.7091C73.6764 95.7989 73.4592 95.8438 73.1879 95.8438ZM73.2759 95.261C73.5361 95.261 73.7561 95.1932 73.9357 95.0575C74.1153 94.9201 74.2519 94.7304 74.3453 94.4884C74.4388 94.2447 74.4856 93.9633 74.4856 93.6444C74.4856 93.3292 74.4397 93.0533 74.3481 92.8169C74.2564 92.5786 74.1208 92.3935 73.9412 92.2615C73.7616 92.1277 73.5398 92.0608 73.2759 92.0608C73.0009 92.0608 72.7718 92.1314 72.5886 92.2725C72.4071 92.4118 72.2706 92.6015 72.1789 92.8416C72.0891 93.0799 72.0442 93.3475 72.0442 93.6444C72.0442 93.945 72.09 94.2181 72.1817 94.4637C72.2751 94.7075 72.4126 94.9018 72.5941 95.0465C72.7773 95.1895 73.0046 95.261 73.2759 95.261Z" fill="#4D4D4D"/>
<path d="M78.0496 90.7302V90.1254H82.2725V90.7302H80.5019V95.7559H79.8201V90.7302H78.0496ZM83.7308 93.2155V95.7559H83.0819V90.1254H83.7308V92.1928H83.7857C83.8847 91.9747 84.0332 91.8015 84.2311 91.6732C84.4309 91.5431 84.6967 91.478 85.0284 91.478C85.3162 91.478 85.5682 91.5357 85.7845 91.6512C86.0007 91.7648 86.1684 91.9399 86.2876 92.1763C86.4085 92.4109 86.469 92.7097 86.469 93.0726V95.7559H85.8202V93.1166C85.8202 92.7812 85.7331 92.5218 85.559 92.3385C85.3867 92.1534 85.1475 92.0608 84.8415 92.0608C84.6289 92.0608 84.4382 92.1057 84.2696 92.1956C84.1028 92.2854 83.9709 92.4164 83.8737 92.5887C83.7784 92.761 83.7308 92.9699 83.7308 93.2155ZM89.2167 95.8438C88.8355 95.8438 88.501 95.7531 88.2132 95.5717C87.9273 95.3902 87.7037 95.1364 87.5424 94.8101C87.383 94.4839 87.3032 94.1026 87.3032 93.6664C87.3032 93.2265 87.383 92.8426 87.5424 92.5145C87.7037 92.1864 87.9273 91.9316 88.2132 91.7502C88.501 91.5687 88.8355 91.478 89.2167 91.478C89.598 91.478 89.9315 91.5687 90.2175 91.7502C90.5052 91.9316 90.7288 92.1864 90.8883 92.5145C91.0496 92.8426 91.1302 93.2265 91.1302 93.6664C91.1302 94.1026 91.0496 94.4839 90.8883 94.8101C90.7288 95.1364 90.5052 95.3902 90.2175 95.5717C89.9315 95.7531 89.598 95.8438 89.2167 95.8438ZM89.2167 95.261C89.5063 95.261 89.7446 95.1868 89.9315 95.0383C90.1185 94.8898 90.2569 94.6946 90.3467 94.4527C90.4365 94.2108 90.4814 93.9487 90.4814 93.6664C90.4814 93.3842 90.4365 93.1211 90.3467 92.8774C90.2569 92.6336 90.1185 92.4366 89.9315 92.2863C89.7446 92.136 89.5063 92.0608 89.2167 92.0608C88.9271 92.0608 88.6889 92.136 88.5019 92.2863C88.315 92.4366 88.1766 92.6336 88.0868 92.8774C87.997 93.1211 87.9521 93.3842 87.9521 93.6664C87.9521 93.9487 87.997 94.2108 88.0868 94.4527C88.1766 94.6946 88.315 94.8898 88.5019 95.0383C88.6889 95.1868 88.9271 95.261 89.2167 95.261ZM91.9658 95.7559V91.533H92.5926V92.1928H92.6476C92.7356 91.9674 92.8776 91.7923 93.0738 91.6677C93.2699 91.5412 93.5054 91.478 93.7803 91.478C94.0589 91.478 94.2908 91.5412 94.4759 91.6677C94.6628 91.7923 94.8085 91.9674 94.913 92.1928H94.957C95.0651 91.9747 95.2274 91.8015 95.4436 91.6732C95.6599 91.5431 95.9192 91.478 96.2217 91.478C96.5992 91.478 96.9081 91.5962 97.1482 91.8327C97.3883 92.0673 97.5083 92.4329 97.5083 92.9296V95.7559H96.8595V92.9296C96.8595 92.618 96.7743 92.3953 96.6038 92.2615C96.4334 92.1277 96.2327 92.0608 96.0017 92.0608C95.7048 92.0608 95.4748 92.1507 95.3117 92.3303C95.1485 92.5081 95.067 92.7335 95.067 93.0066V95.7559H94.4072V92.8636C94.4072 92.6235 94.3293 92.4302 94.1735 92.2835C94.0177 92.1351 93.817 92.0608 93.5714 92.0608C93.4028 92.0608 93.2451 92.1057 93.0985 92.1956C92.9537 92.2854 92.8364 92.41 92.7466 92.5695C92.6586 92.7271 92.6146 92.9095 92.6146 93.1166V95.7559H91.9658ZM99.7825 95.8548C99.5149 95.8548 99.272 95.8044 99.0539 95.7036C98.8358 95.601 98.6626 95.4534 98.5343 95.261C98.406 95.0667 98.3418 94.8321 98.3418 94.5572C98.3418 94.3152 98.3895 94.1191 98.4848 93.9688C98.5801 93.8167 98.7075 93.6976 98.867 93.6114C99.0264 93.5253 99.2024 93.4611 99.3948 93.419C99.5891 93.375 99.7843 93.3402 99.9804 93.3145C100.237 93.2815 100.445 93.2568 100.604 93.2403C100.766 93.222 100.883 93.1917 100.956 93.1496C101.032 93.1074 101.069 93.0341 101.069 92.9296V92.9076C101.069 92.6364 100.995 92.4256 100.846 92.2753C100.7 92.125 100.477 92.0498 100.178 92.0498C99.8686 92.0498 99.6258 92.1177 99.4498 92.2533C99.2738 92.3889 99.1501 92.5337 99.0787 92.6877L98.4628 92.4677C98.5728 92.2111 98.7194 92.0114 98.9027 91.8684C99.0878 91.7236 99.2894 91.6228 99.5075 91.566C99.7275 91.5073 99.9438 91.478 100.156 91.478C100.292 91.478 100.448 91.4945 100.624 91.5275C100.802 91.5586 100.973 91.6237 101.138 91.7227C101.305 91.8217 101.443 91.971 101.553 92.1708C101.663 92.3706 101.718 92.6382 101.718 92.9736V95.7559H101.069V95.184H101.036C100.992 95.2757 100.919 95.3737 100.816 95.4782C100.714 95.5827 100.577 95.6715 100.407 95.7449C100.236 95.8182 100.028 95.8548 99.7825 95.8548ZM99.8814 95.272C100.138 95.272 100.354 95.2216 100.53 95.1208C100.708 95.02 100.842 94.8898 100.932 94.7304C101.023 94.5709 101.069 94.4032 101.069 94.2273V93.6334C101.042 93.6664 100.981 93.6967 100.888 93.7242C100.796 93.7498 100.69 93.7727 100.569 93.7929C100.45 93.8112 100.333 93.8277 100.22 93.8424C100.108 93.8552 100.017 93.8662 99.9474 93.8754C99.7788 93.8974 99.6212 93.9331 99.4745 93.9826C99.3298 94.0302 99.2124 94.1026 99.1226 94.1998C99.0347 94.2951 98.9907 94.4252 98.9907 94.5902C98.9907 94.8156 99.0741 94.9861 99.2409 95.1015C99.4095 95.2152 99.623 95.272 99.8814 95.272ZM105.739 92.4787L105.156 92.6437C105.119 92.5465 105.065 92.4522 104.994 92.3605C104.924 92.267 104.829 92.1901 104.708 92.1296C104.587 92.0691 104.432 92.0389 104.243 92.0389C103.985 92.0389 103.769 92.0984 103.597 92.2176C103.426 92.3349 103.341 92.4842 103.341 92.6657C103.341 92.827 103.4 92.9544 103.517 93.0478C103.634 93.1413 103.818 93.2192 104.067 93.2815L104.694 93.4355C105.071 93.5271 105.353 93.6673 105.538 93.8561C105.723 94.0431 105.816 94.2841 105.816 94.5792C105.816 94.8211 105.746 95.0374 105.607 95.228C105.469 95.4186 105.277 95.5689 105.029 95.6789C104.782 95.7889 104.494 95.8438 104.166 95.8438C103.735 95.8438 103.379 95.7504 103.097 95.5634C102.814 95.3765 102.636 95.1034 102.56 94.7441L103.176 94.5902C103.235 94.8174 103.346 94.9879 103.509 95.1015C103.674 95.2152 103.889 95.272 104.155 95.272C104.457 95.272 104.698 95.2078 104.875 95.0795C105.055 94.9494 105.145 94.7936 105.145 94.6122C105.145 94.4655 105.093 94.3427 104.991 94.2438C104.888 94.143 104.73 94.0678 104.518 94.0183L103.814 93.8534C103.427 93.7617 103.143 93.6197 102.962 93.4272C102.782 93.2329 102.692 92.9901 102.692 92.6987C102.692 92.4604 102.759 92.2496 102.893 92.0663C103.029 91.8831 103.213 91.7392 103.446 91.6347C103.68 91.5302 103.946 91.478 104.243 91.478C104.661 91.478 104.989 91.5696 105.227 91.7529C105.467 91.9362 105.638 92.1781 105.739 92.4787Z" fill="#353FD7"/>
<path d="M173.793 92.5357L176.816 89.5127" stroke="#4D4D4D" stroke-width="0.829493" stroke-linecap="round" stroke-linejoin="round"/>
<path d="M177.111 90.9874V89.2178H175.342" stroke="#4D4D4D" stroke-width="0.829493" stroke-linecap="round" stroke-linejoin="round"/>
<path d="M173.054 89.2178H172.317C170.474 89.2178 169.736 89.9551 169.736 91.7984V94.0104C169.736 95.8537 170.474 96.591 172.317 96.591H174.529C176.372 96.591 177.11 95.8537 177.11 94.0104V93.2731" stroke="#4D4D4D" stroke-width="0.829493" stroke-linecap="round" stroke-linejoin="round"/>
</svg>
