<svg width="28" height="28" viewBox="0 0 28 28" fill="none" xmlns="http://www.w3.org/2000/svg">
<path d="M25.375 13.125H24.4557C24.0326 8.03308 19.9669 3.96735 14.875 3.54433V2.625C14.875 2.14136 14.4836 1.75 14 1.75C13.5164 1.75 13.125 2.14136 13.125 2.625V3.54433C8.03308 3.96735 3.96735 8.03308 3.54433 13.125H2.625C2.14136 13.125 1.75 13.5164 1.75 14C1.75 14.4836 2.14136 14.875 2.625 14.875H3.54433C3.96735 19.9669 8.03308 24.0326 13.125 24.4557V25.375C13.125 25.8586 13.5164 26.25 14 26.25C14.4836 26.25 14.875 25.8586 14.875 25.375V24.4557C19.9669 24.0326 24.0326 19.9669 24.4557 14.875H25.375C25.8586 14.875 26.25 14.4836 26.25 14C26.25 13.5164 25.8586 13.125 25.375 13.125ZM14.875 22.7056V21.875C14.875 21.3914 14.4836 21 14 21C13.5164 21 13.125 21.3914 13.125 21.875V22.7056C8.99775 22.2938 5.70625 19.0023 5.29438 14.875H6.125C6.60864 14.875 7 14.4836 7 14C7 13.5164 6.60864 13.125 6.125 13.125H5.29438C5.70625 8.99775 8.99775 5.70625 13.125 5.29438V6.125C13.125 6.60864 13.5164 7 14 7C14.4836 7 14.875 6.60864 14.875 6.125V5.29438C19.0023 5.70625 22.2938 8.99775 22.7056 13.125H21.875C21.3914 13.125 21 13.5164 21 14C21 14.4836 21.3914 14.875 21.875 14.875H22.7056C22.2938 19.0023 19.0023 22.2938 14.875 22.7056Z" fill="black"/>
<path d="M14.0004 11.375C14.5282 11.375 15.0556 11.3983 15.573 11.4396C15.2462 9.20737 14.5334 7.875 14.0004 7.875C13.4674 7.875 12.7545 9.20737 12.4277 11.4396C12.9451 11.3983 13.4725 11.375 14.0004 11.375Z" fill="black"/>
<path d="M11.4396 15.575C11.3983 15.0576 11.375 14.5302 11.375 14.0023C11.375 13.4745 11.3983 12.9471 11.4396 12.4297C9.20726 12.7565 7.875 13.4693 7.875 14.0023C7.875 14.5353 9.20726 15.2482 11.4396 15.575Z" fill="black"/>
<path d="M12.3257 12.3257C12.2787 12.8482 12.25 13.4047 12.25 14C12.25 14.5953 12.2787 15.1518 12.3257 15.6743C12.8482 15.7214 13.4047 15.75 14 15.75C14.5953 15.75 15.1518 15.7214 15.6743 15.6743C15.7213 15.1518 15.75 14.5953 15.75 14C15.75 13.4047 15.7213 12.8482 15.6743 12.3257C15.1518 12.2786 14.5953 12.25 14 12.25C13.4047 12.25 12.8482 12.2786 12.3257 12.3257Z" fill="black"/>
<path d="M14.0004 16.6232C13.4725 16.6232 12.9451 16.5998 12.4277 16.5586C12.7545 18.7908 13.4674 20.1232 14.0004 20.1232C14.5334 20.1232 15.2462 18.7908 15.573 16.5586C15.0556 16.5998 14.5282 16.6232 14.0004 16.6232Z" fill="black"/>
<path d="M12.5521 8.05469C10.3347 8.59328 8.59328 10.3347 8.05469 12.5521C8.88605 12.0572 10.133 11.7146 11.5322 11.5322C11.7146 10.133 12.0572 8.88605 12.5521 8.05469Z" fill="black"/>
<path d="M15.4492 19.9467C17.6667 19.4081 19.4081 17.6667 19.9467 15.4492C19.1153 15.9441 17.8683 16.2868 16.4692 16.4692C16.2868 17.8683 15.9441 19.1153 15.4492 19.9467Z" fill="black"/>
<path d="M16.5605 12.4297C16.6018 12.9471 16.6251 13.4745 16.6251 14.0023C16.6251 14.5302 16.6018 15.0576 16.5605 15.575C18.7929 15.2482 20.1251 14.5353 20.1251 14.0023C20.1251 13.4693 18.7929 12.7565 16.5605 12.4297Z" fill="black"/>
<path d="M8.05469 15.4492C8.59328 17.6667 10.3347 19.4081 12.5521 19.9467C12.0572 19.1153 11.7146 17.8683 11.5322 16.4692C10.133 16.2868 8.88605 15.9441 8.05469 15.4492Z" fill="black"/>
<path d="M19.9447 12.5521C19.4061 10.3347 17.6647 8.59328 15.4473 8.05469C15.9422 8.88605 16.2848 10.133 16.4673 11.5322C17.8664 11.7146 19.1134 12.0572 19.9447 12.5521Z" fill="black"/>
</svg>
