<svg width="240" height="203" viewBox="0 0 240 203" fill="none" xmlns="http://www.w3.org/2000/svg">
<rect width="240" height="202.396" fill="#F1F1F1"/>
<rect x="9" y="9" width="222" height="31" rx="8" fill="white"/>
<path d="M36.8719 22.1579V21.5531H41.0948V22.1579H39.3243V27.1836H38.6425V22.1579H36.8719ZM43.7408 22.9607V23.5106H41.5524V22.9607H43.7408ZM42.1902 21.949H42.839V25.9739C42.839 26.1572 42.8656 26.2947 42.9188 26.3863C42.9738 26.4761 43.0434 26.5366 43.1277 26.5678C43.2139 26.5971 43.3046 26.6117 43.3999 26.6117C43.4714 26.6117 43.53 26.6081 43.5758 26.6007C43.6217 26.5916 43.6583 26.5843 43.6858 26.5788L43.8178 27.1616C43.7738 27.1781 43.7124 27.1946 43.6336 27.2111C43.5548 27.2294 43.4549 27.2386 43.3339 27.2386C43.1506 27.2386 42.971 27.1992 42.7951 27.1204C42.6209 27.0415 42.4761 26.9215 42.3607 26.7602C42.247 26.5989 42.1902 26.3955 42.1902 26.1499V21.949ZM46.2321 27.2716C45.8509 27.2716 45.5164 27.1808 45.2286 26.9994C44.9427 26.8179 44.7191 26.5641 44.5578 26.2378C44.3984 25.9116 44.3186 25.5304 44.3186 25.0942C44.3186 24.6543 44.3984 24.2703 44.5578 23.9422C44.7191 23.6141 44.9427 23.3594 45.2286 23.1779C45.5164 22.9965 45.8509 22.9057 46.2321 22.9057C46.6134 22.9057 46.9469 22.9965 47.2329 23.1779C47.5206 23.3594 47.7442 23.6141 47.9037 23.9422C48.065 24.2703 48.1456 24.6543 48.1456 25.0942C48.1456 25.5304 48.065 25.9116 47.9037 26.2378C47.7442 26.5641 47.5206 26.8179 47.2329 26.9994C46.9469 27.1808 46.6134 27.2716 46.2321 27.2716ZM46.2321 26.6887C46.5217 26.6887 46.76 26.6145 46.9469 26.466C47.1339 26.3176 47.2723 26.1224 47.3621 25.8804C47.4519 25.6385 47.4968 25.3764 47.4968 25.0942C47.4968 24.8119 47.4519 24.5489 47.3621 24.3051C47.2723 24.0613 47.1339 23.8643 46.9469 23.714C46.76 23.5637 46.5217 23.4886 46.2321 23.4886C45.9425 23.4886 45.7043 23.5637 45.5173 23.714C45.3304 23.8643 45.192 24.0613 45.1022 24.3051C45.0124 24.5489 44.9675 24.8119 44.9675 25.0942C44.9675 25.3764 45.0124 25.6385 45.1022 25.8804C45.192 26.1224 45.3304 26.3176 45.5173 26.466C45.7043 26.6145 45.9425 26.6887 46.2321 26.6887ZM48.9812 27.1836V22.9607H49.608V23.6205H49.663C49.751 23.3951 49.893 23.2201 50.0892 23.0954C50.2853 22.969 50.5208 22.9057 50.7957 22.9057C51.0743 22.9057 51.3062 22.969 51.4913 23.0954C51.6782 23.2201 51.8239 23.3951 51.9284 23.6205H51.9724C52.0805 23.4024 52.2428 23.2292 52.459 23.1009C52.6753 22.9708 52.9346 22.9057 53.2371 22.9057C53.6146 22.9057 53.9235 23.024 54.1636 23.2604C54.4037 23.495 54.5237 23.8606 54.5237 24.3573V27.1836H53.8749V24.3573C53.8749 24.0458 53.7897 23.8231 53.6192 23.6893C53.4488 23.5555 53.2481 23.4886 53.0171 23.4886C52.7202 23.4886 52.4902 23.5784 52.3271 23.758C52.1639 23.9358 52.0824 24.1612 52.0824 24.4343V27.1836H51.4226V24.2914C51.4226 24.0513 51.3447 23.8579 51.1889 23.7113C51.0331 23.5628 50.8324 23.4886 50.5868 23.4886C50.4182 23.4886 50.2605 23.5335 50.1139 23.6233C49.9691 23.7131 49.8518 23.8377 49.762 23.9972C49.674 24.1548 49.63 24.3372 49.63 24.5443V27.1836H48.9812Z" fill="#353FD7"/>
<path d="M25.206 28.4782C27.6238 28.4782 29.5839 26.5182 29.5839 24.1004C29.5839 21.6825 27.6238 19.7225 25.206 19.7225C22.7882 19.7225 20.8281 21.6825 20.8281 24.1004C20.8281 26.5182 22.7882 28.4782 25.206 28.4782Z" stroke="#353FD7" stroke-width="0.829493" stroke-linecap="round" stroke-linejoin="round"/>
<path d="M30.0447 28.9391L29.123 28.0174" stroke="#353FD7" stroke-width="0.829493" stroke-linecap="round" stroke-linejoin="round"/>
<rect x="25" y="43" width="206" height="31" rx="8" fill="white"/>
<path d="M41.9306 58.6555C41.9306 59.2493 41.8234 59.7625 41.6089 60.195C41.3945 60.6276 41.1003 60.9612 40.7264 61.1958C40.3525 61.4304 39.9255 61.5477 39.4453 61.5477C38.9651 61.5477 38.538 61.4304 38.1641 61.1958C37.7902 60.9612 37.496 60.6276 37.2816 60.195C37.0671 59.7625 36.9599 59.2493 36.9599 58.6555C36.9599 58.0616 37.0671 57.5484 37.2816 57.1159C37.496 56.6833 37.7902 56.3497 38.1641 56.1151C38.538 55.8805 38.9651 55.7632 39.4453 55.7632C39.9255 55.7632 40.3525 55.8805 40.7264 56.1151C41.1003 56.3497 41.3945 56.6833 41.6089 57.1159C41.8234 57.5484 41.9306 58.0616 41.9306 58.6555ZM41.2708 58.6555C41.2708 58.1679 41.1892 57.7564 41.0261 57.421C40.8648 57.0856 40.6458 56.8318 40.369 56.6595C40.0941 56.4872 39.7862 56.4011 39.4453 56.4011C39.1044 56.4011 38.7955 56.4872 38.5188 56.6595C38.2438 56.8318 38.0248 57.0856 37.8617 57.421C37.7004 57.7564 37.6197 58.1679 37.6197 58.6555C37.6197 59.143 37.7004 59.5545 37.8617 59.8899C38.0248 60.2253 38.2438 60.4791 38.5188 60.6514C38.7955 60.8237 39.1044 60.9099 39.4453 60.9099C39.7862 60.9099 40.0941 60.8237 40.369 60.6514C40.6458 60.4791 40.8648 60.2253 41.0261 59.8899C41.1892 59.5545 41.2708 59.143 41.2708 58.6555ZM44.4288 61.5587C44.0769 61.5587 43.7662 61.4698 43.4968 61.292C43.2274 61.1124 43.0166 60.8594 42.8645 60.5332C42.7123 60.2051 42.6363 59.8175 42.6363 59.3703C42.6363 58.9267 42.7123 58.5418 42.8645 58.2156C43.0166 57.8893 43.2283 57.6373 43.4995 57.4595C43.7708 57.2817 44.0842 57.1928 44.4398 57.1928C44.7147 57.1928 44.9319 57.2387 45.0914 57.3303C45.2527 57.4201 45.3755 57.5228 45.4598 57.6382C45.5459 57.7519 45.6128 57.8453 45.6605 57.9187H45.7155V55.8402H46.3643V61.4707H45.7375V60.8219H45.6605C45.6128 60.8989 45.545 60.996 45.457 61.1133C45.3691 61.2288 45.2435 61.3323 45.0804 61.424C44.9173 61.5138 44.7001 61.5587 44.4288 61.5587ZM44.5168 60.9758C44.777 60.9758 44.997 60.908 45.1766 60.7724C45.3562 60.6349 45.4928 60.4452 45.5862 60.2033C45.6797 59.9595 45.7265 59.6782 45.7265 59.3593C45.7265 59.044 45.6806 58.7682 45.589 58.5317C45.4974 58.2935 45.3617 58.1083 45.1821 57.9764C45.0025 57.8426 44.7807 57.7757 44.5168 57.7757C44.2419 57.7757 44.0127 57.8463 43.8295 57.9874C43.648 58.1267 43.5115 58.3164 43.4198 58.5565C43.33 58.7948 43.2851 59.0623 43.2851 59.3593C43.2851 59.6599 43.3309 59.9329 43.4226 60.1785C43.516 60.4223 43.6535 60.6166 43.835 60.7614C44.0182 60.9044 44.2455 60.9758 44.5168 60.9758ZM49.0824 61.5587C48.7305 61.5587 48.4199 61.4698 48.1504 61.292C47.881 61.1124 47.6702 60.8594 47.5181 60.5332C47.366 60.2051 47.2899 59.8175 47.2899 59.3703C47.2899 58.9267 47.366 58.5418 47.5181 58.2156C47.6702 57.8893 47.8819 57.6373 48.1532 57.4595C48.4244 57.2817 48.7379 57.1928 49.0934 57.1928C49.3684 57.1928 49.5855 57.2387 49.745 57.3303C49.9063 57.4201 50.0291 57.5228 50.1134 57.6382C50.1995 57.7519 50.2664 57.8453 50.3141 57.9187H50.3691V55.8402H51.0179V61.4707H50.3911V60.8219H50.3141C50.2664 60.8989 50.1986 60.996 50.1107 61.1133C50.0227 61.2288 49.8971 61.3323 49.734 61.424C49.5709 61.5138 49.3537 61.5587 49.0824 61.5587ZM49.1704 60.9758C49.4307 60.9758 49.6506 60.908 49.8302 60.7724C50.0099 60.6349 50.1464 60.4452 50.2399 60.2033C50.3333 59.9595 50.3801 59.6782 50.3801 59.3593C50.3801 59.044 50.3343 58.7682 50.2426 58.5317C50.151 58.2935 50.0153 58.1083 49.8357 57.9764C49.6561 57.8426 49.4343 57.7757 49.1704 57.7757C48.8955 57.7757 48.6664 57.8463 48.4831 57.9874C48.3016 58.1267 48.1651 58.3164 48.0734 58.5565C47.9836 58.7948 47.9387 59.0623 47.9387 59.3593C47.9387 59.6599 47.9846 59.9329 48.0762 60.1785C48.1697 60.4223 48.3071 60.6166 48.4886 60.7614C48.6719 60.9044 48.8991 60.9758 49.1704 60.9758Z" fill="#4D4D4D"/>
<path d="M53.9441 56.445V55.8402H58.167V56.445H56.3965V61.4707H55.7147V56.445H53.9441ZM59.6253 58.9304V61.4707H58.9765V55.8402H59.6253V57.9077H59.6803C59.7792 57.6895 59.9277 57.5163 60.1257 57.388C60.3254 57.2579 60.5912 57.1928 60.9229 57.1928C61.2107 57.1928 61.4627 57.2506 61.679 57.366C61.8953 57.4797 62.063 57.6547 62.1821 57.8912C62.3031 58.1258 62.3636 58.4245 62.3636 58.7874V61.4707H61.7147V58.8314C61.7147 58.496 61.6277 58.2366 61.4536 58.0534C61.2813 57.8682 61.0421 57.7757 60.736 57.7757C60.5234 57.7757 60.3328 57.8206 60.1641 57.9104C59.9974 58.0002 59.8654 58.1313 59.7683 58.3035C59.6729 58.4758 59.6253 58.6848 59.6253 58.9304ZM65.1113 61.5587C64.73 61.5587 64.3955 61.468 64.1078 61.2865C63.8219 61.1051 63.5982 60.8512 63.437 60.525C63.2775 60.1987 63.1978 59.8175 63.1978 59.3813C63.1978 58.9414 63.2775 58.5574 63.437 58.2293C63.5982 57.9012 63.8219 57.6465 64.1078 57.465C64.3955 57.2836 64.73 57.1928 65.1113 57.1928C65.4925 57.1928 65.8261 57.2836 66.112 57.465C66.3998 57.6465 66.6234 57.9012 66.7828 58.2293C66.9441 58.5574 67.0247 58.9414 67.0247 59.3813C67.0247 59.8175 66.9441 60.1987 66.7828 60.525C66.6234 60.8512 66.3998 61.1051 66.112 61.2865C65.8261 61.468 65.4925 61.5587 65.1113 61.5587ZM65.1113 60.9758C65.4008 60.9758 65.6391 60.9016 65.8261 60.7531C66.013 60.6047 66.1514 60.4095 66.2412 60.1676C66.331 59.9256 66.3759 59.6635 66.3759 59.3813C66.3759 59.099 66.331 58.836 66.2412 58.5922C66.1514 58.3485 66.013 58.1514 65.8261 58.0011C65.6391 57.8508 65.4008 57.7757 65.1113 57.7757C64.8217 57.7757 64.5834 57.8508 64.3965 58.0011C64.2095 58.1514 64.0711 58.3485 63.9813 58.5922C63.8915 58.836 63.8466 59.099 63.8466 59.3813C63.8466 59.6635 63.8915 59.9256 63.9813 60.1676C64.0711 60.4095 64.2095 60.6047 64.3965 60.7531C64.5834 60.9016 64.8217 60.9758 65.1113 60.9758ZM67.8603 61.4707V57.2478H68.4872V57.9077H68.5422C68.6301 57.6822 68.7722 57.5072 68.9683 57.3825C69.1644 57.2561 69.3999 57.1928 69.6749 57.1928C69.9534 57.1928 70.1853 57.2561 70.3704 57.3825C70.5574 57.5072 70.7031 57.6822 70.8075 57.9077H70.8515C70.9597 57.6895 71.1219 57.5163 71.3382 57.388C71.5544 57.2579 71.8138 57.1928 72.1162 57.1928C72.4938 57.1928 72.8026 57.3111 73.0427 57.5475C73.2828 57.7821 73.4029 58.1478 73.4029 58.6445V61.4707H72.754V58.6445C72.754 58.3329 72.6688 58.1102 72.4983 57.9764C72.3279 57.8426 72.1272 57.7757 71.8963 57.7757C71.5993 57.7757 71.3693 57.8655 71.2062 58.0451C71.0431 58.2229 70.9615 58.4483 70.9615 58.7214V61.4707H70.3017V58.5785C70.3017 58.3384 70.2238 58.145 70.068 57.9984C69.9122 57.8499 69.7115 57.7757 69.4659 57.7757C69.2973 57.7757 69.1397 57.8206 68.993 57.9104C68.8482 58.0002 68.7309 58.1248 68.6411 58.2843C68.5531 58.4419 68.5092 58.6243 68.5092 58.8314V61.4707H67.8603ZM75.677 61.5697C75.4094 61.5697 75.1665 61.5193 74.9484 61.4185C74.7303 61.3158 74.5571 61.1683 74.4288 60.9758C74.3005 60.7816 74.2364 60.5469 74.2364 60.272C74.2364 60.0301 74.284 59.834 74.3793 59.6837C74.4746 59.5316 74.602 59.4124 74.7615 59.3263C74.9209 59.2401 75.0969 59.176 75.2893 59.1338C75.4836 59.0898 75.6788 59.055 75.8749 59.0294C76.1315 58.9964 76.3396 58.9716 76.499 58.9551C76.6603 58.9368 76.7776 58.9066 76.8509 58.8644C76.9261 58.8222 76.9637 58.7489 76.9637 58.6445V58.6225C76.9637 58.3512 76.8894 58.1404 76.741 57.9901C76.5943 57.8398 76.3716 57.7647 76.0729 57.7647C75.7631 57.7647 75.5203 57.8325 75.3443 57.9681C75.1684 58.1038 75.0447 58.2486 74.9732 58.4025L74.3573 58.1826C74.4673 57.926 74.6139 57.7262 74.7972 57.5832C74.9823 57.4384 75.184 57.3376 75.4021 57.2808C75.622 57.2222 75.8383 57.1928 76.0509 57.1928C76.1865 57.1928 76.3423 57.2093 76.5183 57.2423C76.6961 57.2735 76.8674 57.3386 77.0324 57.4375C77.1992 57.5365 77.3376 57.6859 77.4475 57.8857C77.5575 58.0854 77.6125 58.353 77.6125 58.6884V61.4707H76.9637V60.8989H76.9307C76.8867 60.9905 76.8134 61.0886 76.7107 61.193C76.6081 61.2975 76.4715 61.3864 76.3011 61.4597C76.1306 61.533 75.9226 61.5697 75.677 61.5697ZM75.776 60.9868C76.0326 60.9868 76.2488 60.9364 76.4248 60.8356C76.6026 60.7348 76.7364 60.6047 76.8262 60.4452C76.9178 60.2858 76.9637 60.1181 76.9637 59.9421V59.3483C76.9362 59.3813 76.8757 59.4115 76.7822 59.439C76.6906 59.4647 76.5843 59.4876 76.4633 59.5077C76.3442 59.5261 76.2278 59.5426 76.1141 59.5572C76.0023 59.57 75.9116 59.581 75.842 59.5902C75.6733 59.6122 75.5157 59.6479 75.3691 59.6974C75.2243 59.7451 75.107 59.8175 75.0172 59.9146C74.9292 60.0099 74.8852 60.1401 74.8852 60.305C74.8852 60.5305 74.9686 60.7009 75.1354 60.8164C75.304 60.93 75.5175 60.9868 75.776 60.9868ZM81.6331 58.1936L81.0502 58.3585C81.0136 58.2614 80.9595 58.167 80.888 58.0754C80.8184 57.9819 80.7231 57.9049 80.6021 57.8444C80.4811 57.7839 80.3263 57.7537 80.1375 57.7537C79.8791 57.7537 79.6637 57.8133 79.4914 57.9324C79.321 58.0497 79.2357 58.1991 79.2357 58.3805C79.2357 58.5418 79.2944 58.6692 79.4117 58.7627C79.529 58.8562 79.7123 58.934 79.9615 58.9964L80.5884 59.1503C80.9659 59.242 81.2473 59.3822 81.4324 59.571C81.6175 59.7579 81.7101 59.9989 81.7101 60.294C81.7101 60.536 81.6404 60.7522 81.5011 60.9428C81.3637 61.1335 81.1712 61.2838 80.9238 61.3937C80.6763 61.5037 80.3886 61.5587 80.0605 61.5587C79.6298 61.5587 79.2733 61.4652 78.991 61.2783C78.7088 61.0913 78.5301 60.8182 78.4549 60.459L79.0708 60.305C79.1294 60.5323 79.2403 60.7027 79.4034 60.8164C79.5684 60.93 79.7837 60.9868 80.0495 60.9868C80.3519 60.9868 80.592 60.9227 80.7698 60.7944C80.9494 60.6643 81.0392 60.5085 81.0392 60.327C81.0392 60.1804 80.9879 60.0576 80.8853 59.9586C80.7827 59.8578 80.625 59.7827 80.4124 59.7332L79.7086 59.5682C79.3219 59.4766 79.0378 59.3345 78.8563 59.1421C78.6767 58.9478 78.5869 58.7049 78.5869 58.4135C78.5869 58.1752 78.6538 57.9645 78.7876 57.7812C78.9232 57.5979 79.1074 57.454 79.3402 57.3496C79.5748 57.2451 79.8406 57.1928 80.1375 57.1928C80.5554 57.1928 80.8835 57.2845 81.1217 57.4678C81.3618 57.6511 81.5323 57.893 81.6331 58.1936Z" fill="#353FD7"/>
<path d="M214.793 58.2486L217.816 55.2256" stroke="#4D4D4D" stroke-width="0.829493" stroke-linecap="round" stroke-linejoin="round"/>
<path d="M218.111 56.7002V54.9307H216.342" stroke="#4D4D4D" stroke-width="0.829493" stroke-linecap="round" stroke-linejoin="round"/>
<path d="M214.054 54.9307H213.317C211.474 54.9307 210.736 55.668 210.736 57.5113V59.7233C210.736 61.5666 211.474 62.3039 213.317 62.3039H215.529C217.372 62.3039 218.11 61.5666 218.11 59.7233V58.986" stroke="#4D4D4D" stroke-width="0.829493" stroke-linecap="round" stroke-linejoin="round"/>
<rect x="25" y="77" width="206" height="31" rx="8" fill="white"/>
<path d="M36.8719 90.7302V90.1254H41.0948V90.7302H39.3243V95.7559H38.6425V90.7302H36.8719ZM42.5531 93.2155V95.7559H41.9043V90.1254H42.5531V92.1928H42.6081C42.7071 91.9747 42.8555 91.8015 43.0535 91.6732C43.2533 91.5431 43.519 91.478 43.8508 91.478C44.1385 91.478 44.3905 91.5357 44.6068 91.6512C44.8231 91.7648 44.9908 91.9399 45.1099 92.1763C45.2309 92.4109 45.2914 92.7097 45.2914 93.0726V95.7559H44.6426V93.1166C44.6426 92.7812 44.5555 92.5218 44.3814 92.3385C44.2091 92.1534 43.9699 92.0608 43.6638 92.0608C43.4512 92.0608 43.2606 92.1057 43.092 92.1956C42.9252 92.2854 42.7932 92.4164 42.6961 92.5887C42.6008 92.761 42.5531 92.9699 42.5531 93.2155ZM48.0391 95.8438C47.6579 95.8438 47.3234 95.7531 47.0356 95.5717C46.7497 95.3902 46.5261 95.1364 46.3648 94.8101C46.2053 94.4839 46.1256 94.1026 46.1256 93.6664C46.1256 93.2265 46.2053 92.8426 46.3648 92.5145C46.5261 92.1864 46.7497 91.9316 47.0356 91.7502C47.3234 91.5687 47.6579 91.478 48.0391 91.478C48.4203 91.478 48.7539 91.5687 49.0398 91.7502C49.3276 91.9316 49.5512 92.1864 49.7106 92.5145C49.8719 92.8426 49.9526 93.2265 49.9526 93.6664C49.9526 94.1026 49.8719 94.4839 49.7106 94.8101C49.5512 95.1364 49.3276 95.3902 49.0398 95.5717C48.7539 95.7531 48.4203 95.8438 48.0391 95.8438ZM48.0391 95.261C48.3287 95.261 48.5669 95.1868 48.7539 95.0383C48.9408 94.8898 49.0792 94.6946 49.169 94.4527C49.2588 94.2108 49.3037 93.9487 49.3037 93.6664C49.3037 93.3842 49.2588 93.1211 49.169 92.8774C49.0792 92.6336 48.9408 92.4366 48.7539 92.2863C48.5669 92.136 48.3287 92.0608 48.0391 92.0608C47.7495 92.0608 47.5112 92.136 47.3243 92.2863C47.1373 92.4366 46.9989 92.6336 46.9091 92.8774C46.8193 93.1211 46.7744 93.3842 46.7744 93.6664C46.7744 93.9487 46.8193 94.2108 46.9091 94.4527C46.9989 94.6946 47.1373 94.8898 47.3243 95.0383C47.5112 95.1868 47.7495 95.261 48.0391 95.261ZM50.7882 95.7559V91.533H51.415V92.1928H51.47C51.558 91.9674 51.7 91.7923 51.8961 91.6677C52.0922 91.5412 52.3277 91.478 52.6027 91.478C52.8813 91.478 53.1131 91.5412 53.2982 91.6677C53.4852 91.7923 53.6309 91.9674 53.7354 92.1928H53.7794C53.8875 91.9747 54.0497 91.8015 54.266 91.6732C54.4823 91.5431 54.7416 91.478 55.044 91.478C55.4216 91.478 55.7304 91.5962 55.9705 91.8327C56.2106 92.0673 56.3307 92.4329 56.3307 92.9296V95.7559H55.6819V92.9296C55.6819 92.618 55.5966 92.3953 55.4262 92.2615C55.2557 92.1277 55.055 92.0608 54.8241 92.0608C54.5272 92.0608 54.2971 92.1507 54.134 92.3303C53.9709 92.5081 53.8893 92.7335 53.8893 93.0066V95.7559H53.2295V92.8636C53.2295 92.6235 53.1516 92.4302 52.9958 92.2835C52.84 92.1351 52.6393 92.0608 52.3937 92.0608C52.2251 92.0608 52.0675 92.1057 51.9209 92.1956C51.7761 92.2854 51.6588 92.41 51.569 92.5695C51.481 92.7271 51.437 92.9095 51.437 93.1166V95.7559H50.7882ZM58.6048 95.8548C58.3372 95.8548 58.0944 95.8044 57.8763 95.7036C57.6582 95.601 57.485 95.4534 57.3567 95.261C57.2284 95.0667 57.1642 94.8321 57.1642 94.5572C57.1642 94.3152 57.2119 94.1191 57.3072 93.9688C57.4025 93.8167 57.5299 93.6976 57.6893 93.6114C57.8488 93.5253 58.0247 93.4611 58.2172 93.419C58.4115 93.375 58.6067 93.3402 58.8028 93.3145C59.0594 93.2815 59.2674 93.2568 59.4268 93.2403C59.5881 93.222 59.7054 93.1917 59.7788 93.1496C59.8539 93.1074 59.8915 93.0341 59.8915 92.9296V92.9076C59.8915 92.6364 59.8172 92.4256 59.6688 92.2753C59.5222 92.125 59.2995 92.0498 59.0007 92.0498C58.691 92.0498 58.4481 92.1177 58.2722 92.2533C58.0962 92.3889 57.9725 92.5337 57.901 92.6877L57.2852 92.4677C57.3951 92.2111 57.5418 92.0114 57.7251 91.8684C57.9102 91.7236 58.1118 91.6228 58.3299 91.566C58.5498 91.5073 58.7661 91.478 58.9787 91.478C59.1143 91.478 59.2701 91.4945 59.4461 91.5275C59.6239 91.5586 59.7953 91.6237 59.9602 91.7227C60.127 91.8217 60.2654 91.971 60.3753 92.1708C60.4853 92.3706 60.5403 92.6382 60.5403 92.9736V95.7559H59.8915V95.184H59.8585C59.8145 95.2757 59.7412 95.3737 59.6385 95.4782C59.5359 95.5827 59.3994 95.6715 59.2289 95.7449C59.0584 95.8182 58.8504 95.8548 58.6048 95.8548ZM58.7038 95.272C58.9604 95.272 59.1767 95.2216 59.3526 95.1208C59.5304 95.02 59.6642 94.8898 59.754 94.7304C59.8457 94.5709 59.8915 94.4032 59.8915 94.2273V93.6334C59.864 93.6664 59.8035 93.6967 59.71 93.7242C59.6184 93.7498 59.5121 93.7727 59.3911 93.7929C59.272 93.8112 59.1556 93.8277 59.042 93.8424C58.9301 93.8552 58.8394 93.8662 58.7698 93.8754C58.6012 93.8974 58.4435 93.9331 58.2969 93.9826C58.1521 94.0302 58.0348 94.1026 57.945 94.1998C57.857 94.2951 57.813 94.4252 57.813 94.5902C57.813 94.8156 57.8964 94.9861 58.0632 95.1015C58.2318 95.2152 58.4454 95.272 58.7038 95.272ZM64.5609 92.4787L63.9781 92.6437C63.9414 92.5465 63.8873 92.4522 63.8159 92.3605C63.7462 92.267 63.6509 92.1901 63.5299 92.1296C63.409 92.0691 63.2541 92.0389 63.0653 92.0389C62.8069 92.0389 62.5915 92.0984 62.4192 92.2176C62.2488 92.3349 62.1636 92.4842 62.1636 92.6657C62.1636 92.827 62.2222 92.9544 62.3395 93.0478C62.4568 93.1413 62.6401 93.2192 62.8894 93.2815L63.5162 93.4355C63.8938 93.5271 64.1751 93.6673 64.3602 93.8561C64.5453 94.0431 64.6379 94.2841 64.6379 94.5792C64.6379 94.8211 64.5682 95.0374 64.4289 95.228C64.2915 95.4186 64.099 95.5689 63.8516 95.6789C63.6042 95.7889 63.3164 95.8438 62.9883 95.8438C62.5576 95.8438 62.2011 95.7504 61.9189 95.5634C61.6366 95.3765 61.4579 95.1034 61.3828 94.7441L61.9986 94.5902C62.0572 94.8174 62.1681 94.9879 62.3313 95.1015C62.4962 95.2152 62.7116 95.272 62.9773 95.272C63.2798 95.272 63.5199 95.2078 63.6976 95.0795C63.8773 94.9494 63.9671 94.7936 63.9671 94.6122C63.9671 94.4655 63.9158 94.3427 63.8131 94.2438C63.7105 94.143 63.5528 94.0678 63.3402 94.0183L62.6364 93.8534C62.2497 93.7617 61.9656 93.6197 61.7842 93.4272C61.6045 93.2329 61.5147 92.9901 61.5147 92.6987C61.5147 92.4604 61.5816 92.2496 61.7154 92.0663C61.8511 91.8831 62.0353 91.7392 62.268 91.6347C62.5026 91.5302 62.7684 91.478 63.0653 91.478C63.4832 91.478 63.8113 91.5696 64.0495 91.7529C64.2897 91.9362 64.4601 92.1781 64.5609 92.4787Z" fill="#353FD7"/>
<path d="M69.7257 90.1254H70.4075V94.1503C70.4075 94.5095 70.3415 94.8147 70.2096 95.0658C70.0776 95.3169 69.8916 95.5075 69.6515 95.6376C69.4114 95.7678 69.1282 95.8328 68.802 95.8328C68.494 95.8328 68.22 95.7769 67.9799 95.6651C67.7398 95.5515 67.551 95.3902 67.4136 95.1813C67.2761 94.9723 67.2074 94.724 67.2074 94.4362H67.8782C67.8782 94.5957 67.9176 94.735 67.9964 94.8541C68.0771 94.9714 68.187 95.063 68.3263 95.129C68.4656 95.195 68.6242 95.228 68.802 95.228C68.9981 95.228 69.1649 95.1868 69.3023 95.1043C69.4398 95.0218 69.5443 94.9008 69.6157 94.7414C69.6891 94.5801 69.7257 94.3831 69.7257 94.1503V90.1254ZM73.3016 95.8438C72.8947 95.8438 72.5437 95.754 72.2487 95.5744C71.9554 95.393 71.729 95.14 71.5696 94.8156C71.412 94.4894 71.3332 94.11 71.3332 93.6774C71.3332 93.2449 71.412 92.8636 71.5696 92.5337C71.729 92.202 71.9508 91.9435 72.2349 91.7584C72.5208 91.5715 72.8544 91.478 73.2356 91.478C73.4556 91.478 73.6728 91.5147 73.8872 91.588C74.1017 91.6613 74.2969 91.7804 74.4728 91.9454C74.6488 92.1085 74.789 92.3248 74.8935 92.5942C74.9979 92.8636 75.0502 93.1954 75.0502 93.5894V93.8644H71.795V93.3035H74.3903C74.3903 93.0652 74.3427 92.8526 74.2474 92.6657C74.1539 92.4787 74.0201 92.3312 73.846 92.2231C73.6737 92.1149 73.4703 92.0608 73.2356 92.0608C72.9772 92.0608 72.7536 92.125 72.5648 92.2533C72.3779 92.3798 72.234 92.5447 72.1332 92.7482C72.0324 92.9516 71.982 93.1697 71.982 93.4025V93.7764C71.982 94.0953 72.037 94.3656 72.1469 94.5874C72.2587 94.8074 72.4136 94.9751 72.6116 95.0905C72.8095 95.2042 73.0395 95.261 73.3016 95.261C73.4721 95.261 73.626 95.2372 73.7635 95.1895C73.9028 95.14 74.0229 95.0667 74.1237 94.9696C74.2245 94.8706 74.3024 94.7478 74.3573 94.6012L74.9842 94.7771C74.9182 94.9897 74.8073 95.1767 74.6515 95.338C74.4957 95.4974 74.3033 95.6221 74.0742 95.7119C73.8451 95.7998 73.5876 95.8438 73.3016 95.8438ZM77.7628 91.533V92.0828H75.4864V91.533H77.7628ZM76.1682 95.7559V90.9501C76.1682 90.7082 76.2251 90.5066 76.3387 90.3453C76.4523 90.184 76.5999 90.063 76.7813 89.9824C76.9628 89.9018 77.1543 89.8614 77.3559 89.8614C77.5154 89.8614 77.6455 89.8743 77.7463 89.8999C77.8471 89.9256 77.9223 89.9494 77.9718 89.9714L77.7848 90.5323C77.7518 90.5213 77.706 90.5075 77.6473 90.491C77.5905 90.4745 77.5154 90.4663 77.4219 90.4663C77.2075 90.4663 77.0526 90.5203 76.9573 90.6285C76.8638 90.7366 76.8171 90.8952 76.8171 91.1041V95.7559H76.1682ZM80.3978 91.533V92.0828H78.1214V91.533H80.3978ZM78.8032 95.7559V90.9501C78.8032 90.7082 78.86 90.5066 78.9737 90.3453C79.0873 90.184 79.2349 90.063 79.4163 89.9824C79.5978 89.9018 79.7893 89.8614 79.9909 89.8614C80.1504 89.8614 80.2805 89.8743 80.3813 89.8999C80.4821 89.9256 80.5572 89.9494 80.6067 89.9714L80.4198 90.5323C80.3868 90.5213 80.341 90.5075 80.2823 90.491C80.2255 90.4745 80.1504 90.4663 80.0569 90.4663C79.8424 90.4663 79.6876 90.5203 79.5923 90.6285C79.4988 90.7366 79.452 90.8952 79.452 91.1041V95.7559H78.8032ZM82.7489 95.8438C82.342 95.8438 81.991 95.754 81.6959 95.5744C81.4027 95.393 81.1763 95.14 81.0169 94.8156C80.8592 94.4894 80.7804 94.11 80.7804 93.6774C80.7804 93.2449 80.8592 92.8636 81.0169 92.5337C81.1763 92.202 81.3981 91.9435 81.6822 91.7584C81.9681 91.5715 82.3017 91.478 82.6829 91.478C82.9029 91.478 83.1201 91.5147 83.3345 91.588C83.5489 91.6613 83.7441 91.7804 83.9201 91.9454C84.096 92.1085 84.2363 92.3248 84.3407 92.5942C84.4452 92.8636 84.4974 93.1954 84.4974 93.5894V93.8644H81.2423V93.3035H83.8376C83.8376 93.0652 83.79 92.8526 83.6947 92.6657C83.6012 92.4787 83.4674 92.3312 83.2933 92.2231C83.121 92.1149 82.9175 92.0608 82.6829 92.0608C82.4245 92.0608 82.2009 92.125 82.0121 92.2533C81.8252 92.3798 81.6813 92.5447 81.5805 92.7482C81.4797 92.9516 81.4293 93.1697 81.4293 93.4025V93.7764C81.4293 94.0953 81.4842 94.3656 81.5942 94.5874C81.706 94.8074 81.8609 94.9751 82.0588 95.0905C82.2568 95.2042 82.4868 95.261 82.7489 95.261C82.9194 95.261 83.0733 95.2372 83.2108 95.1895C83.3501 95.14 83.4701 95.0667 83.5709 94.9696C83.6717 94.8706 83.7496 94.7478 83.8046 94.6012L84.4315 94.7771C84.3655 94.9897 84.2546 95.1767 84.0988 95.338C83.943 95.4974 83.7506 95.6221 83.5215 95.7119C83.2923 95.7998 83.0348 95.8438 82.7489 95.8438ZM85.3296 95.7559V91.533H85.9564V92.1708H86.0004C86.0774 91.9619 86.2167 91.7923 86.4183 91.6622C86.6199 91.5321 86.8472 91.467 87.1001 91.467C87.1478 91.467 87.2073 91.4679 87.2788 91.4698C87.3503 91.4716 87.4044 91.4743 87.441 91.478V92.1378C87.419 92.1323 87.3686 92.1241 87.2898 92.1131C87.2128 92.1003 87.1313 92.0938 87.0451 92.0938C86.8399 92.0938 86.6566 92.1369 86.4953 92.2231C86.3358 92.3074 86.2094 92.4247 86.1159 92.575C86.0242 92.7234 85.9784 92.893 85.9784 93.0836V95.7559H85.3296ZM91.0465 92.4787L90.4637 92.6437C90.427 92.5465 90.3729 92.4522 90.3014 92.3605C90.2318 92.267 90.1365 92.1901 90.0155 92.1296C89.8946 92.0691 89.7397 92.0389 89.5509 92.0389C89.2925 92.0389 89.0771 92.0984 88.9048 92.2176C88.7344 92.3349 88.6491 92.4842 88.6491 92.6657C88.6491 92.827 88.7078 92.9544 88.8251 93.0478C88.9424 93.1413 89.1257 93.2192 89.3749 93.2815L90.0018 93.4355C90.3793 93.5271 90.6607 93.6673 90.8458 93.8561C91.0309 94.0431 91.1235 94.2841 91.1235 94.5792C91.1235 94.8211 91.0538 95.0374 90.9145 95.228C90.7771 95.4186 90.5846 95.5689 90.3372 95.6789C90.0898 95.7889 89.802 95.8438 89.4739 95.8438C89.0432 95.8438 88.6867 95.7504 88.4045 95.5634C88.1222 95.3765 87.9435 95.1034 87.8683 94.7441L88.4842 94.5902C88.5428 94.8174 88.6537 94.9879 88.8168 95.1015C88.9818 95.2152 89.1972 95.272 89.4629 95.272C89.7653 95.272 90.0054 95.2078 90.1832 95.0795C90.3628 94.9494 90.4527 94.7936 90.4527 94.6122C90.4527 94.4655 90.4013 94.3427 90.2987 94.2438C90.1961 94.143 90.0384 94.0678 89.8258 94.0183L89.122 93.8534C88.7353 93.7617 88.4512 93.6197 88.2697 93.4272C88.0901 93.2329 88.0003 92.9901 88.0003 92.6987C88.0003 92.4604 88.0672 92.2496 88.201 92.0663C88.3366 91.8831 88.5208 91.7392 88.7536 91.6347C88.9882 91.5302 89.254 91.478 89.5509 91.478C89.9688 91.478 90.2969 91.5696 90.5351 91.7529C90.7752 91.9362 90.9457 92.1781 91.0465 92.4787ZM93.6609 95.8438C93.2796 95.8438 92.9451 95.7531 92.6574 95.5717C92.3714 95.3902 92.1478 95.1364 91.9866 94.8101C91.8271 94.4839 91.7474 94.1026 91.7474 93.6664C91.7474 93.2265 91.8271 92.8426 91.9866 92.5145C92.1478 92.1864 92.3714 91.9316 92.6574 91.7502C92.9451 91.5687 93.2796 91.478 93.6609 91.478C94.0421 91.478 94.3757 91.5687 94.6616 91.7502C94.9493 91.9316 95.173 92.1864 95.3324 92.5145C95.4937 92.8426 95.5743 93.2265 95.5743 93.6664C95.5743 94.1026 95.4937 94.4839 95.3324 94.8101C95.173 95.1364 94.9493 95.3902 94.6616 95.5717C94.3757 95.7531 94.0421 95.8438 93.6609 95.8438ZM93.6609 95.261C93.9504 95.261 94.1887 95.1868 94.3757 95.0383C94.5626 94.8898 94.701 94.6946 94.7908 94.4527C94.8806 94.2108 94.9255 93.9487 94.9255 93.6664C94.9255 93.3842 94.8806 93.1211 94.7908 92.8774C94.701 92.6336 94.5626 92.4366 94.3757 92.2863C94.1887 92.136 93.9504 92.0608 93.6609 92.0608C93.3713 92.0608 93.133 92.136 92.946 92.2863C92.7591 92.4366 92.6207 92.6336 92.5309 92.8774C92.4411 93.1211 92.3962 93.3842 92.3962 93.6664C92.3962 93.9487 92.4411 94.2108 92.5309 94.4527C92.6207 94.6946 92.7591 94.8898 92.946 95.0383C93.133 95.1868 93.3713 95.261 93.6609 95.261ZM97.0588 93.2155V95.7559H96.4099V91.533H97.0368V92.1928H97.0917C97.1907 91.9784 97.341 91.8061 97.5426 91.6759C97.7442 91.544 98.0045 91.478 98.3234 91.478C98.6093 91.478 98.8595 91.5367 99.074 91.654C99.2884 91.7694 99.4552 91.9454 99.5743 92.1818C99.6935 92.4164 99.753 92.7133 99.753 93.0726V95.7559H99.1042V93.1166C99.1042 92.7848 99.0181 92.5264 98.8458 92.3413C98.6735 92.1543 98.4371 92.0608 98.1365 92.0608C97.9294 92.0608 97.7442 92.1057 97.5811 92.1956C97.4198 92.2854 97.2924 92.4164 97.199 92.5887C97.1055 92.761 97.0588 92.9699 97.0588 93.2155ZM101.257 95.7998C101.121 95.7998 101.005 95.7513 100.908 95.6541C100.81 95.557 100.762 95.4406 100.762 95.305C100.762 95.1693 100.81 95.053 100.908 94.9558C101.005 94.8587 101.121 94.8101 101.257 94.8101C101.392 94.8101 101.509 94.8587 101.606 94.9558C101.703 95.053 101.752 95.1693 101.752 95.305C101.752 95.3948 101.729 95.4773 101.683 95.5524C101.639 95.6276 101.579 95.688 101.504 95.7339C101.431 95.7779 101.348 95.7998 101.257 95.7998ZM101.257 92.6657C101.121 92.6657 101.005 92.6171 100.908 92.52C100.81 92.4228 100.762 92.3064 100.762 92.1708C100.762 92.0352 100.81 91.9188 100.908 91.8217C101.005 91.7245 101.121 91.6759 101.257 91.6759C101.392 91.6759 101.509 91.7245 101.606 91.8217C101.703 91.9188 101.752 92.0352 101.752 92.1708C101.752 92.2606 101.729 92.3431 101.683 92.4182C101.639 92.4934 101.579 92.5539 101.504 92.5997C101.431 92.6437 101.348 92.6657 101.257 92.6657ZM104.564 90.7302V90.1254H108.787V90.7302H107.016V95.7559H106.334V90.7302H104.564ZM110.245 93.2155V95.7559H109.596V90.1254H110.245V92.1928H110.3C110.399 91.9747 110.547 91.8015 110.745 91.6732C110.945 91.5431 111.211 91.478 111.542 91.478C111.83 91.478 112.082 91.5357 112.299 91.6512C112.515 91.7648 112.683 91.9399 112.802 92.1763C112.923 92.4109 112.983 92.7097 112.983 93.0726V95.7559H112.334V93.1166C112.334 92.7812 112.247 92.5218 112.073 92.3385C111.901 92.1534 111.662 92.0608 111.356 92.0608C111.143 92.0608 110.952 92.1057 110.784 92.1956C110.617 92.2854 110.485 92.4164 110.388 92.5887C110.292 92.761 110.245 92.9699 110.245 93.2155ZM115.786 95.8438C115.379 95.8438 115.028 95.754 114.733 95.5744C114.44 95.393 114.213 95.14 114.054 94.8156C113.896 94.4894 113.817 94.11 113.817 93.6774C113.817 93.2449 113.896 92.8636 114.054 92.5337C114.213 92.202 114.435 91.9435 114.719 91.7584C115.005 91.5715 115.339 91.478 115.72 91.478C115.94 91.478 116.157 91.5147 116.371 91.588C116.586 91.6613 116.781 91.7804 116.957 91.9454C117.133 92.1085 117.273 92.3248 117.378 92.5942C117.482 92.8636 117.534 93.1954 117.534 93.5894V93.8644H114.279V93.3035H116.875C116.875 93.0652 116.827 92.8526 116.732 92.6657C116.638 92.4787 116.504 92.3312 116.33 92.2231C116.158 92.1149 115.954 92.0608 115.72 92.0608C115.461 92.0608 115.238 92.125 115.049 92.2533C114.862 92.3798 114.718 92.5447 114.617 92.7482C114.517 92.9516 114.466 93.1697 114.466 93.4025V93.7764C114.466 94.0953 114.521 94.3656 114.631 94.5874C114.743 94.8074 114.898 94.9751 115.096 95.0905C115.294 95.2042 115.524 95.261 115.786 95.261C115.956 95.261 116.11 95.2372 116.248 95.1895C116.387 95.14 116.507 95.0667 116.608 94.9696C116.709 94.8706 116.787 94.7478 116.842 94.6012L117.468 94.7771C117.402 94.9897 117.291 95.1767 117.136 95.338C116.98 95.4974 116.787 95.6221 116.558 95.7119C116.329 95.7998 116.072 95.8438 115.786 95.8438ZM120.708 95.7559H119.993L122.061 90.1254H122.764L124.832 95.7559H124.117L122.435 91.0161H122.391L120.708 95.7559ZM120.972 93.5564H123.853V94.1613H120.972V93.5564ZM125.466 95.7559V91.533H126.093V92.1708H126.137C126.214 91.9619 126.353 91.7923 126.555 91.6622C126.756 91.5321 126.984 91.467 127.237 91.467C127.284 91.467 127.344 91.4679 127.415 91.4698C127.487 91.4716 127.541 91.4743 127.578 91.478V92.1378C127.556 92.1323 127.505 92.1241 127.426 92.1131C127.349 92.1003 127.268 92.0938 127.182 92.0938C126.976 92.0938 126.793 92.1369 126.632 92.2231C126.472 92.3074 126.346 92.4247 126.252 92.575C126.161 92.7234 126.115 92.893 126.115 93.0836V95.7559H125.466ZM130.293 91.533V92.0828H128.104V91.533H130.293ZM128.742 90.5213H129.391V94.5462C129.391 94.7295 129.418 94.8669 129.471 94.9586C129.526 95.0484 129.596 95.1089 129.68 95.14C129.766 95.1693 129.857 95.184 129.952 95.184C130.023 95.184 130.082 95.1803 130.128 95.173C130.174 95.1639 130.21 95.1565 130.238 95.151L130.37 95.7339C130.326 95.7504 130.265 95.7669 130.186 95.7834C130.107 95.8017 130.007 95.8108 129.886 95.8108C129.703 95.8108 129.523 95.7714 129.347 95.6926C129.173 95.6138 129.028 95.4938 128.913 95.3325C128.799 95.1712 128.742 94.9677 128.742 94.7221V90.5213ZM134.852 95.8438C134.471 95.8438 134.136 95.7531 133.849 95.5717C133.563 95.3902 133.339 95.1364 133.178 94.8101C133.018 94.4839 132.939 94.1026 132.939 93.6664C132.939 93.2265 133.018 92.8426 133.178 92.5145C133.339 92.1864 133.563 91.9316 133.849 91.7502C134.136 91.5687 134.471 91.478 134.852 91.478C135.233 91.478 135.567 91.5687 135.853 91.7502C136.141 91.9316 136.364 92.1864 136.524 92.5145C136.685 92.8426 136.766 93.2265 136.766 93.6664C136.766 94.1026 136.685 94.4839 136.524 94.8101C136.364 95.1364 136.141 95.3902 135.853 95.5717C135.567 95.7531 135.233 95.8438 134.852 95.8438ZM134.852 95.261C135.142 95.261 135.38 95.1868 135.567 95.0383C135.754 94.8898 135.892 94.6946 135.982 94.4527C136.072 94.2108 136.117 93.9487 136.117 93.6664C136.117 93.3842 136.072 93.1211 135.982 92.8774C135.892 92.6336 135.754 92.4366 135.567 92.2863C135.38 92.136 135.142 92.0608 134.852 92.0608C134.563 92.0608 134.324 92.136 134.137 92.2863C133.95 92.4366 133.812 92.6336 133.722 92.8774C133.632 93.1211 133.588 93.3842 133.588 93.6664C133.588 93.9487 133.632 94.2108 133.722 94.4527C133.812 94.6946 133.95 94.8898 134.137 95.0383C134.324 95.1868 134.563 95.261 134.852 95.261ZM139.482 91.533V92.0828H137.205V91.533H139.482ZM137.887 95.7559V90.9501C137.887 90.7082 137.944 90.5066 138.058 90.3453C138.171 90.184 138.319 90.063 138.5 89.9824C138.682 89.9018 138.873 89.8614 139.075 89.8614C139.234 89.8614 139.364 89.8743 139.465 89.8999C139.566 89.9256 139.641 89.9494 139.691 89.9714L139.504 90.5323C139.471 90.5213 139.425 90.5075 139.366 90.491C139.309 90.4745 139.234 90.4663 139.141 90.4663C138.926 90.4663 138.772 90.5203 138.676 90.6285C138.583 90.7366 138.536 90.8952 138.536 91.1041V95.7559H137.887ZM142.347 95.7559V90.1254H144.249C144.691 90.1254 145.052 90.2051 145.332 90.3645C145.615 90.5222 145.824 90.7357 145.959 91.0051C146.095 91.2746 146.163 91.5751 146.163 91.9069C146.163 92.2386 146.095 92.5401 145.959 92.8114C145.826 93.0827 145.618 93.2989 145.338 93.4602C145.058 93.6197 144.698 93.6994 144.26 93.6994H142.897V93.0946H144.238C144.541 93.0946 144.784 93.0423 144.967 92.9379C145.15 92.8334 145.283 92.6923 145.365 92.5145C145.45 92.3349 145.492 92.1323 145.492 91.9069C145.492 91.6814 145.45 91.4798 145.365 91.302C145.283 91.1243 145.149 90.985 144.964 90.8842C144.779 90.7815 144.533 90.7302 144.227 90.7302H143.029V95.7559H142.347ZM148.688 95.8438C148.307 95.8438 147.973 95.7531 147.685 95.5717C147.399 95.3902 147.175 95.1364 147.014 94.8101C146.855 94.4839 146.775 94.1026 146.775 93.6664C146.775 93.2265 146.855 92.8426 147.014 92.5145C147.175 92.1864 147.399 91.9316 147.685 91.7502C147.973 91.5687 148.307 91.478 148.688 91.478C149.07 91.478 149.403 91.5687 149.689 91.7502C149.977 91.9316 150.201 92.1864 150.36 92.5145C150.521 92.8426 150.602 93.2265 150.602 93.6664C150.602 94.1026 150.521 94.4839 150.36 94.8101C150.201 95.1364 149.977 95.3902 149.689 95.5717C149.403 95.7531 149.07 95.8438 148.688 95.8438ZM148.688 95.261C148.978 95.261 149.216 95.1868 149.403 95.0383C149.59 94.8898 149.729 94.6946 149.818 94.4527C149.908 94.2108 149.953 93.9487 149.953 93.6664C149.953 93.3842 149.908 93.1211 149.818 92.8774C149.729 92.6336 149.59 92.4366 149.403 92.2863C149.216 92.136 148.978 92.0608 148.688 92.0608C148.399 92.0608 148.161 92.136 147.974 92.2863C147.787 92.4366 147.648 92.6336 147.559 92.8774C147.469 93.1211 147.424 93.3842 147.424 93.6664C147.424 93.9487 147.469 94.2108 147.559 94.4527C147.648 94.6946 147.787 94.8898 147.974 95.0383C148.161 95.1868 148.399 95.261 148.688 95.261ZM152.251 95.7559L150.964 91.533H151.646L152.559 94.7661H152.603L153.504 91.533H154.197L155.088 94.7551H155.132L156.045 91.533H156.726L155.44 95.7559H154.802L153.878 92.5117H153.812L152.888 95.7559H152.251ZM159.056 95.8438C158.649 95.8438 158.298 95.754 158.003 95.5744C157.71 95.393 157.484 95.14 157.324 94.8156C157.167 94.4894 157.088 94.11 157.088 93.6774C157.088 93.2449 157.167 92.8636 157.324 92.5337C157.484 92.202 157.705 91.9435 157.99 91.7584C158.275 91.5715 158.609 91.478 158.99 91.478C159.21 91.478 159.427 91.5147 159.642 91.588C159.856 91.6613 160.051 91.7804 160.227 91.9454C160.403 92.1085 160.544 92.3248 160.648 92.5942C160.753 92.8636 160.805 93.1954 160.805 93.5894V93.8644H157.55V93.3035H160.145C160.145 93.0652 160.097 92.8526 160.002 92.6657C159.909 92.4787 159.775 92.3312 159.601 92.2231C159.428 92.1149 159.225 92.0608 158.99 92.0608C158.732 92.0608 158.508 92.125 158.319 92.2533C158.133 92.3798 157.989 92.5447 157.888 92.7482C157.787 92.9516 157.737 93.1697 157.737 93.4025V93.7764C157.737 94.0953 157.792 94.3656 157.902 94.5874C158.013 94.8074 158.168 94.9751 158.366 95.0905C158.564 95.2042 158.794 95.261 159.056 95.261C159.227 95.261 159.381 95.2372 159.518 95.1895C159.657 95.14 159.777 95.0667 159.878 94.9696C159.979 94.8706 160.057 94.7478 160.112 94.6012L160.739 94.7771C160.673 94.9897 160.562 95.1767 160.406 95.338C160.25 95.4974 160.058 95.6221 159.829 95.7119C159.6 95.7998 159.342 95.8438 159.056 95.8438ZM161.637 95.7559V91.533H162.264V92.1708H162.308C162.385 91.9619 162.524 91.7923 162.726 91.6622C162.927 91.5321 163.155 91.467 163.407 91.467C163.455 91.467 163.515 91.4679 163.586 91.4698C163.658 91.4716 163.712 91.4743 163.748 91.478V92.1378C163.726 92.1323 163.676 92.1241 163.597 92.1131C163.52 92.1003 163.439 92.0938 163.352 92.0938C163.147 92.0938 162.964 92.1369 162.803 92.2231C162.643 92.3074 162.517 92.4247 162.423 92.575C162.332 92.7234 162.286 92.893 162.286 93.0836V95.7559H161.637Z" fill="#4D4D4D"/>
<path d="M214.793 92.5357L217.816 89.5127" stroke="#4D4D4D" stroke-width="0.829493" stroke-linecap="round" stroke-linejoin="round"/>
<path d="M218.111 90.9874V89.2178H216.342" stroke="#4D4D4D" stroke-width="0.829493" stroke-linecap="round" stroke-linejoin="round"/>
<path d="M214.054 89.2178H213.317C211.474 89.2178 210.736 89.9551 210.736 91.7984V94.0104C210.736 95.8537 211.474 96.591 213.317 96.591H215.529C217.372 96.591 218.11 95.8537 218.11 94.0104V93.2731" stroke="#4D4D4D" stroke-width="0.829493" stroke-linecap="round" stroke-linejoin="round"/>
<line x1="15.7609" y1="39.8164" x2="15.7609" y2="92.904" stroke="#4D4D4D" stroke-width="0.552995"/>
<line x1="25.4375" y1="58.8956" x2="15.4836" y2="58.8956" stroke="#4D4D4D" stroke-width="0.552995"/>
<line x1="25.4375" y1="92.6281" x2="15.4836" y2="92.6281" stroke="#4D4D4D" stroke-width="0.552995"/>
</svg>
