<svg width="30" height="30" viewBox="0 0 30 30" fill="none" xmlns="http://www.w3.org/2000/svg">
<path d="M24.7383 14.4844H18.8027V5.25586C18.8027 4.94531 18.5508 4.6875 18.2344 4.6875H11.7832C11.4727 4.6875 11.2148 4.93945 11.2148 5.25586V11.1152H5.25586C4.94531 11.1152 4.6875 11.3672 4.6875 11.6836V24.7441C4.6875 25.0547 4.93945 25.3125 5.25586 25.3125H11.6836C11.7012 25.3125 11.7188 25.3125 11.7363 25.3066C11.7539 25.3066 11.7715 25.3125 11.7891 25.3125H18.2461C18.2637 25.3125 18.2812 25.3125 18.2988 25.3066C18.3164 25.3066 18.334 25.3125 18.3516 25.3125H24.75C25.0605 25.3125 25.3184 25.0605 25.3184 24.7441V15.0527C25.3066 14.7363 25.0547 14.4844 24.7383 14.4844ZM11.2148 24.2812H5.71875V12.1406H11.2148V24.2812ZM12.2461 5.71875H17.7773V24.2754H12.2461V5.71875ZM24.2754 24.2812H18.8027V15.5156H24.2754V24.2812Z" fill="black"/>
<path d="M25.3068 7.35938C25.3126 7.64648 25.0841 7.88086 24.797 7.88086L23.0099 7.91016V9.79688C23.0099 10.084 22.7814 10.3125 22.4943 10.3125C22.2071 10.3125 21.9786 10.084 21.9786 9.79688V7.92773L20.2032 7.95703H20.1974C19.9161 7.95703 19.6876 7.72852 19.6818 7.44727C19.6759 7.16016 19.9044 6.92578 20.1915 6.92578L21.9786 6.89648V5.20313C21.9786 4.91602 22.2071 4.6875 22.4943 4.6875C22.7814 4.6875 23.0099 4.91602 23.0099 5.20313V6.87891L24.7853 6.84961H24.7911C25.0724 6.85547 25.3009 7.07812 25.3068 7.35938Z" fill="black"/>
</svg>
