<svg width="24" height="24" viewBox="0 0 24 24" fill="none" xmlns="http://www.w3.org/2000/svg">
<path d="M21.75 18H10.5C10.3011 18 10.1103 18.079 9.96967 18.2197C9.82902 18.3603 9.75 18.5511 9.75 18.75C9.75 18.9489 9.82902 19.1397 9.96967 19.2803C10.1103 19.421 10.3011 19.5 10.5 19.5H21.75C21.9489 19.5 22.1397 19.421 22.2803 19.2803C22.421 19.1397 22.5 18.9489 22.5 18.75C22.5 18.5511 22.421 18.3603 22.2803 18.2197C22.1397 18.079 21.9489 18 21.75 18Z" fill="black"/>
<path d="M21.75 11.25H10.5C10.3011 11.25 10.1103 11.329 9.96967 11.4697C9.82902 11.6103 9.75 11.8011 9.75 12C9.75 12.1989 9.82902 12.3897 9.96967 12.5303C10.1103 12.671 10.3011 12.75 10.5 12.75H21.75C21.9489 12.75 22.1397 12.671 22.2803 12.5303C22.421 12.3897 22.5 12.1989 22.5 12C22.5 11.8011 22.421 11.6103 22.2803 11.4697C22.1397 11.329 21.9489 11.25 21.75 11.25Z" fill="black"/>
<path d="M10.5 6H21.75C21.9489 6 22.1397 5.92098 22.2803 5.78033C22.421 5.63968 22.5 5.44891 22.5 5.25C22.5 5.05109 22.421 4.86032 22.2803 4.71967C22.1397 4.57902 21.9489 4.5 21.75 4.5H10.5C10.3011 4.5 10.1103 4.57902 9.96967 4.71967C9.82902 4.86032 9.75 5.05109 9.75 5.25C9.75 5.44891 9.82902 5.63968 9.96967 5.78033C10.1103 5.92098 10.3011 6 10.5 6Z" fill="black"/>
<path d="M6.20334 3.23588L3.88809 5.70263L2.74884 4.68863C2.67526 4.62313 2.58951 4.57277 2.49647 4.54041C2.40344 4.50805 2.30494 4.49434 2.2066 4.50005C2.10826 4.50576 2.01201 4.53079 1.92335 4.57369C1.83468 4.6166 1.75533 4.67655 1.68984 4.75013C1.62434 4.8237 1.57398 4.90945 1.54162 5.00249C1.50926 5.09553 1.49555 5.19403 1.50126 5.29236C1.5128 5.49096 1.60275 5.67685 1.75134 5.80913L3.43584 7.30913C3.58189 7.43906 3.77291 7.50683 3.96819 7.498C4.16348 7.48917 4.3476 7.40445 4.48134 7.26188L7.29684 4.26188C7.36729 4.19067 7.42276 4.10608 7.45998 4.01309C7.49721 3.9201 7.51543 3.82059 7.51356 3.72044C7.5117 3.62029 7.4898 3.52153 7.44915 3.42999C7.4085 3.33844 7.34992 3.25597 7.27687 3.18743C7.20383 3.1189 7.11779 3.06568 7.02385 3.03094C6.9299 2.9962 6.82995 2.98062 6.72988 2.98514C6.62982 2.98965 6.53168 3.01417 6.44124 3.05723C6.35081 3.1003 6.26991 3.16104 6.20334 3.23588Z" fill="black"/>
<path d="M6.20334 9.98588L3.88809 12.4526L2.74884 11.4386C2.60025 11.3064 2.4052 11.2385 2.2066 11.2501C2.008 11.2616 1.82212 11.3515 1.68984 11.5001C1.55756 11.6487 1.48973 11.8438 1.50126 12.0424C1.5128 12.241 1.60275 12.4268 1.75134 12.5591L3.43584 14.0591C3.58189 14.1891 3.77291 14.2568 3.96819 14.248C4.16348 14.2392 4.3476 14.1545 4.48134 14.0119L7.29684 11.0119C7.36729 10.9407 7.42276 10.8561 7.45999 10.7631C7.49721 10.6701 7.51543 10.5706 7.51357 10.4704C7.5117 10.3703 7.4898 10.2715 7.44915 10.18C7.4085 10.0884 7.34992 10.006 7.27688 9.93743C7.20383 9.8689 7.11779 9.81568 7.02385 9.78094C6.9299 9.7462 6.82995 9.73062 6.72989 9.73514C6.62982 9.73965 6.53168 9.76417 6.44124 9.80723C6.35081 9.8503 6.26992 9.91104 6.20334 9.98588Z" fill="black"/>
<path d="M6.20334 16.7381L3.88809 19.2049L2.74884 18.1909C2.60025 18.0586 2.4052 17.9908 2.2066 18.0023C2.008 18.0138 1.82212 18.1038 1.68984 18.2524C1.55756 18.401 1.48973 18.596 1.50126 18.7946C1.5128 18.9932 1.60275 19.1791 1.75134 19.3114L3.43584 20.8114C3.58189 20.9413 3.77291 21.0091 3.96819 21.0002C4.16348 20.9914 4.3476 20.9067 4.48134 20.7641L7.29684 17.7641C7.42676 17.6181 7.49453 17.4271 7.48572 17.2318C7.47691 17.0365 7.39221 16.8524 7.24966 16.7187C7.10712 16.5849 6.91799 16.5121 6.72255 16.5158C6.52712 16.5194 6.34082 16.5992 6.20334 16.7381Z" fill="black"/>
</svg>
