<svg width="240" height="203" viewBox="0 0 240 203" fill="none" xmlns="http://www.w3.org/2000/svg">
<rect width="240" height="202.396" fill="#F1F1F1"/>
<rect x="8.84766" y="8.84766" width="222.304" height="30.9677" rx="8" fill="white"/>
<path d="M37.1779 27.4609V21.8304H39.0804C39.5221 21.8304 39.8832 21.9102 40.1636 22.0696C40.4459 22.2272 40.6548 22.4408 40.7904 22.7102C40.9261 22.9796 40.9939 23.2802 40.9939 23.612C40.9939 23.9437 40.9261 24.2452 40.7904 24.5165C40.6567 24.7877 40.4495 25.004 40.1691 25.1653C39.8887 25.3248 39.5295 25.4045 39.0914 25.4045H37.7278V24.7996H39.0694C39.3718 24.7996 39.6147 24.7474 39.798 24.6429C39.9812 24.5385 40.1141 24.3973 40.1966 24.2196C40.2809 24.0399 40.3231 23.8374 40.3231 23.612C40.3231 23.3865 40.2809 23.1849 40.1966 23.0071C40.1141 22.8293 39.9803 22.69 39.7952 22.5892C39.6101 22.4866 39.3645 22.4353 39.0584 22.4353H37.8597V27.4609H37.1779ZM43.0921 27.5599C42.8245 27.5599 42.5816 27.5095 42.3635 27.4087C42.1454 27.3061 41.9722 27.1585 41.8439 26.9661C41.7156 26.7718 41.6515 26.5372 41.6515 26.2623C41.6515 26.0203 41.6991 25.8242 41.7944 25.6739C41.8897 25.5218 42.0171 25.4027 42.1766 25.3165C42.336 25.2304 42.512 25.1662 42.7044 25.1241C42.8987 25.0801 43.0939 25.0452 43.29 25.0196C43.5466 24.9866 43.7547 24.9619 43.9141 24.9454C44.0754 24.927 44.1927 24.8968 44.266 24.8546C44.3412 24.8125 44.3787 24.7392 44.3787 24.6347V24.6127C44.3787 24.3414 44.3045 24.1307 44.156 23.9804C44.0094 23.8301 43.7867 23.7549 43.488 23.7549C43.1782 23.7549 42.9354 23.8227 42.7594 23.9584C42.5835 24.094 42.4597 24.2388 42.3883 24.3928L41.7724 24.1728C41.8824 23.9162 42.029 23.7164 42.2123 23.5735C42.3974 23.4287 42.599 23.3279 42.8172 23.2711C43.0371 23.2124 43.2534 23.1831 43.466 23.1831C43.6016 23.1831 43.7574 23.1996 43.9334 23.2326C44.1111 23.2637 44.2825 23.3288 44.4475 23.4278C44.6143 23.5267 44.7526 23.6761 44.8626 23.8759C44.9726 24.0757 45.0276 24.3433 45.0276 24.6787V27.4609H44.3787V26.8891H44.3457C44.3018 26.9807 44.2284 27.0788 44.1258 27.1833C44.0232 27.2877 43.8866 27.3766 43.7162 27.4499C43.5457 27.5233 43.3377 27.5599 43.0921 27.5599ZM43.1911 26.9771C43.4477 26.9771 43.6639 26.9267 43.8399 26.8259C44.0177 26.7251 44.1515 26.5949 44.2413 26.4355C44.3329 26.276 44.3787 26.1083 44.3787 25.9323V25.3385C44.3512 25.3715 44.2908 25.4017 44.1973 25.4292C44.1056 25.4549 43.9993 25.4778 43.8784 25.498C43.7592 25.5163 43.6428 25.5328 43.5292 25.5474C43.4174 25.5603 43.3267 25.5713 43.257 25.5804C43.0884 25.6024 42.9308 25.6382 42.7842 25.6877C42.6394 25.7353 42.5221 25.8077 42.4323 25.9049C42.3443 26.0002 42.3003 26.1303 42.3003 26.2952C42.3003 26.5207 42.3837 26.6911 42.5505 26.8066C42.7191 26.9202 42.9326 26.9771 43.1911 26.9771ZM46.057 27.4609V23.2381H46.6838V23.8759H46.7278C46.8048 23.6669 46.9441 23.4974 47.1457 23.3673C47.3473 23.2371 47.5746 23.1721 47.8275 23.1721C47.8752 23.1721 47.9347 23.173 48.0062 23.1748C48.0777 23.1767 48.1318 23.1794 48.1684 23.1831V23.8429C48.1464 23.8374 48.096 23.8292 48.0172 23.8182C47.9402 23.8053 47.8587 23.7989 47.7725 23.7989C47.5672 23.7989 47.384 23.842 47.2227 23.9281C47.0632 24.0124 46.9367 24.1297 46.8433 24.28C46.7516 24.4285 46.7058 24.598 46.7058 24.7887V27.4609H46.057ZM48.7827 27.4609V23.2381H49.4315V27.4609H48.7827ZM49.1126 22.5343C48.9861 22.5343 48.8771 22.4912 48.7854 22.405C48.6956 22.3189 48.6507 22.2153 48.6507 22.0944C48.6507 21.9734 48.6956 21.8698 48.7854 21.7837C48.8771 21.6976 48.9861 21.6545 49.1126 21.6545C49.2391 21.6545 49.3472 21.6976 49.437 21.7837C49.5286 21.8698 49.5745 21.9734 49.5745 22.0944C49.5745 22.2153 49.5286 22.3189 49.437 22.405C49.3472 22.4912 49.2391 22.5343 49.1126 22.5343ZM53.4562 24.1838L52.8734 24.3488C52.8367 24.2516 52.7827 24.1572 52.7112 24.0656C52.6415 23.9721 52.5462 23.8951 52.4253 23.8347C52.3043 23.7742 52.1494 23.7439 51.9606 23.7439C51.7022 23.7439 51.4868 23.8035 51.3146 23.9226C51.1441 24.0399 51.0589 24.1893 51.0589 24.3708C51.0589 24.5321 51.1175 24.6594 51.2348 24.7529C51.3521 24.8464 51.5354 24.9243 51.7847 24.9866L52.4115 25.1406C52.7891 25.2322 53.0704 25.3724 53.2555 25.5612C53.4407 25.7481 53.5332 25.9892 53.5332 26.2843C53.5332 26.5262 53.4636 26.7425 53.3243 26.9331C53.1868 27.1237 52.9944 27.274 52.7469 27.384C52.4995 27.4939 52.2117 27.5489 51.8837 27.5489C51.4529 27.5489 51.0965 27.4554 50.8142 27.2685C50.5319 27.0815 50.3532 26.8084 50.2781 26.4492L50.8939 26.2952C50.9526 26.5225 51.0635 26.693 51.2266 26.8066C51.3915 26.9202 51.6069 26.9771 51.8727 26.9771C52.1751 26.9771 52.4152 26.9129 52.593 26.7846C52.7726 26.6545 52.8624 26.4987 52.8624 26.3172C52.8624 26.1706 52.8111 26.0478 52.7084 25.9488C52.6058 25.848 52.4482 25.7729 52.2356 25.7234L51.5318 25.5584C51.145 25.4668 50.8609 25.3248 50.6795 25.1323C50.4999 24.938 50.4101 24.6952 50.4101 24.4038C50.4101 24.1655 50.4769 23.9547 50.6107 23.7714C50.7464 23.5881 50.9306 23.4443 51.1633 23.3398C51.398 23.2353 51.6637 23.1831 51.9606 23.1831C52.3785 23.1831 52.7066 23.2747 52.9449 23.458C53.185 23.6413 53.3554 23.8832 53.4562 24.1838Z" fill="#353FD7"/>
<path d="M25.2099 28.4782C27.6277 28.4782 29.5878 26.5182 29.5878 24.1004C29.5878 21.6825 27.6277 19.7225 25.2099 19.7225C22.7921 19.7225 20.832 21.6825 20.832 24.1004C20.832 26.5182 22.7921 28.4782 25.2099 28.4782Z" stroke="#353FD7" stroke-width="0.829493" stroke-linecap="round" stroke-linejoin="round"/>
<path d="M30.0486 28.9391L29.127 28.0174" stroke="#353FD7" stroke-width="0.829493" stroke-linecap="round" stroke-linejoin="round"/>
<rect x="8.84766" y="43.1332" width="222.304" height="30.9677" rx="8" fill="white"/>
<path d="M216.031 58.247L219.054 55.224" stroke="#4D4D4D" stroke-width="0.829493" stroke-linecap="round" stroke-linejoin="round"/>
<path d="M219.35 56.6987V54.9291H217.58" stroke="#4D4D4D" stroke-width="0.829493" stroke-linecap="round" stroke-linejoin="round"/>
<path d="M215.295 54.9291H214.557C212.714 54.9291 211.977 55.6664 211.977 57.5097V59.7217C211.977 61.565 212.714 62.3023 214.557 62.3023H216.769C218.613 62.3023 219.35 61.565 219.35 59.7217V58.9844" stroke="#4D4D4D" stroke-width="0.829493" stroke-linecap="round" stroke-linejoin="round"/>
<path d="M41.6427 55.8386V61.4691H40.9829L37.9147 57.0483H37.8597V61.4691H37.1779V55.8386H37.8377L40.9169 60.2704H40.9719V55.8386H41.6427ZM45.4255 59.7426V57.2462H46.0743V61.4691H45.4255V60.7543H45.3815C45.2826 60.9687 45.1286 61.1511 44.9197 61.3014C44.7107 61.4499 44.4468 61.5241 44.1279 61.5241C43.8639 61.5241 43.6293 61.4664 43.4241 61.3509C43.2188 61.2336 43.0575 61.0576 42.9402 60.823C42.8229 60.5866 42.7642 60.2888 42.7642 59.9295V57.2462H43.4131V59.8855C43.4131 60.1935 43.4992 60.4391 43.6715 60.6223C43.8456 60.8056 44.0674 60.8973 44.3368 60.8973C44.4981 60.8973 44.6621 60.856 44.8289 60.7736C44.9976 60.6911 45.1387 60.5646 45.2523 60.3942C45.3678 60.2237 45.4255 60.0065 45.4255 59.7426ZM48.9444 57.2462V57.7961H46.756V57.2462H48.9444ZM47.3938 56.2345H48.0426V60.2594C48.0426 60.4427 48.0692 60.5802 48.1224 60.6718C48.1773 60.7616 48.247 60.8221 48.3313 60.8533C48.4174 60.8826 48.5082 60.8973 48.6035 60.8973C48.675 60.8973 48.7336 60.8936 48.7794 60.8863C48.8253 60.8771 48.8619 60.8698 48.8894 60.8643L49.0214 61.4471C48.9774 61.4636 48.916 61.4801 48.8372 61.4966C48.7584 61.5149 48.6585 61.5241 48.5375 61.5241C48.3542 61.5241 48.1746 61.4847 47.9986 61.4059C47.8245 61.3271 47.6797 61.207 47.5643 61.0457C47.4506 60.8844 47.3938 60.681 47.3938 60.4354V56.2345ZM51.4907 61.5571C51.0838 61.5571 50.7328 61.4673 50.4377 61.2877C50.1445 61.1062 49.9181 60.8533 49.7587 60.5289C49.601 60.2026 49.5222 59.8232 49.5222 59.3907C49.5222 58.9581 49.601 58.5769 49.7587 58.247C49.9181 57.9152 50.1399 57.6568 50.424 57.4717C50.7099 57.2847 51.0435 57.1913 51.4247 57.1913C51.6447 57.1913 51.8619 57.2279 52.0763 57.3012C52.2907 57.3745 52.4859 57.4937 52.6619 57.6586C52.8378 57.8218 52.9781 58.038 53.0825 58.3075C53.187 58.5769 53.2392 58.9086 53.2392 59.3027V59.5776H49.9841V59.0168H52.5794C52.5794 58.7785 52.5318 58.5659 52.4365 58.3789C52.343 58.192 52.2092 58.0444 52.0351 57.9363C51.8628 57.8282 51.6593 57.7741 51.4247 57.7741C51.1663 57.7741 50.9427 57.8383 50.7539 57.9666C50.567 58.093 50.4231 58.258 50.3223 58.4614C50.2215 58.6649 50.1711 58.883 50.1711 59.1157V59.4896C50.1711 59.8086 50.226 60.0789 50.336 60.3007C50.4478 60.5206 50.6027 60.6883 50.8006 60.8038C50.9986 60.9174 51.2286 60.9742 51.4907 60.9742C51.6612 60.9742 51.8151 60.9504 51.9526 60.9028C52.0919 60.8533 52.2119 60.78 52.3127 60.6828C52.4135 60.5839 52.4914 60.4611 52.5464 60.3144L53.1733 60.4904C53.1073 60.703 52.9964 60.8899 52.8406 61.0512C52.6848 61.2107 52.4924 61.3353 52.2632 61.4251C52.0341 61.5131 51.7766 61.5571 51.4907 61.5571ZM54.7202 55.8386V61.4691H54.0714V55.8386H54.7202ZM56.4026 55.8386V61.4691H55.7537V55.8386H56.4026ZM58.6788 61.5681C58.4112 61.5681 58.1683 61.5177 57.9502 61.4169C57.7321 61.3142 57.5589 61.1667 57.4306 60.9742C57.3023 60.78 57.2382 60.5454 57.2382 60.2704C57.2382 60.0285 57.2858 59.8324 57.3811 59.6821C57.4764 59.53 57.6038 59.4108 57.7633 59.3247C57.9227 59.2385 58.0987 59.1744 58.2911 59.1322C58.4854 59.0883 58.6806 59.0534 58.8767 59.0278C59.1333 58.9948 59.3413 58.97 59.5008 58.9535C59.6621 58.9352 59.7794 58.905 59.8527 58.8628C59.9279 58.8207 59.9654 58.7473 59.9654 58.6429V58.6209C59.9654 58.3496 59.8912 58.1388 59.7427 57.9885C59.5961 57.8383 59.3734 57.7631 59.0747 57.7631C58.7649 57.7631 58.5221 57.8309 58.3461 57.9666C58.1702 58.1022 58.0464 58.247 57.975 58.4009L57.3591 58.181C57.4691 57.9244 57.6157 57.7246 57.799 57.5817C57.9841 57.4369 58.1857 57.3361 58.4038 57.2792C58.6238 57.2206 58.8401 57.1913 59.0527 57.1913C59.1883 57.1913 59.3441 57.2078 59.52 57.2407C59.6978 57.2719 59.8692 57.337 60.0342 57.4359C60.2009 57.5349 60.3393 57.6843 60.4493 57.8841C60.5593 58.0839 60.6143 58.3514 60.6143 58.6869V61.4691H59.9654V60.8973H59.9324C59.8884 60.9889 59.8151 61.087 59.7125 61.1914C59.6099 61.2959 59.4733 61.3848 59.3029 61.4581C59.1324 61.5314 58.9244 61.5681 58.6788 61.5681ZM58.7777 60.9852C59.0343 60.9852 59.2506 60.9348 59.4266 60.834C59.6044 60.7332 59.7382 60.6031 59.828 60.4436C59.9196 60.2842 59.9654 60.1165 59.9654 59.9405V59.3467C59.9379 59.3797 59.8775 59.4099 59.784 59.4374C59.6923 59.4631 59.586 59.486 59.4651 59.5061C59.3459 59.5245 59.2295 59.541 59.1159 59.5556C59.0041 59.5685 58.9134 59.5795 58.8437 59.5886C58.6751 59.6106 58.5175 59.6464 58.3709 59.6958C58.2261 59.7435 58.1088 59.8159 58.0189 59.913C57.931 60.0083 57.887 60.1385 57.887 60.3034C57.887 60.5289 57.9704 60.6993 58.1372 60.8148C58.3058 60.9284 58.5193 60.9852 58.7777 60.9852ZM63.7542 61.4691V55.8386H64.436V58.3459H67.4382V55.8386H68.1201V61.4691H67.4382V58.9508H64.436V61.4691H63.7542ZM70.9578 61.5571C70.5766 61.5571 70.2421 61.4664 69.9543 61.2849C69.6684 61.1035 69.4448 60.8496 69.2835 60.5234C69.124 60.1971 69.0443 59.8159 69.0443 59.3797C69.0443 58.9398 69.124 58.5558 69.2835 58.2277C69.4448 57.8997 69.6684 57.6449 69.9543 57.4634C70.2421 57.282 70.5766 57.1913 70.9578 57.1913C71.339 57.1913 71.6726 57.282 71.9585 57.4634C72.2463 57.6449 72.4699 57.8997 72.6293 58.2277C72.7906 58.5558 72.8713 58.9398 72.8713 59.3797C72.8713 59.8159 72.7906 60.1971 72.6293 60.5234C72.4699 60.8496 72.2463 61.1035 71.9585 61.2849C71.6726 61.4664 71.339 61.5571 70.9578 61.5571ZM70.9578 60.9742C71.2474 60.9742 71.4857 60.9 71.6726 60.7516C71.8596 60.6031 71.9979 60.4079 72.0877 60.166C72.1776 59.924 72.2225 59.6619 72.2225 59.3797C72.2225 59.0974 72.1776 58.8344 72.0877 58.5906C71.9979 58.3469 71.8596 58.1498 71.6726 57.9995C71.4857 57.8492 71.2474 57.7741 70.9578 57.7741C70.6682 57.7741 70.4299 57.8492 70.243 57.9995C70.056 58.1498 69.9177 58.3469 69.8278 58.5906C69.738 58.8344 69.6931 59.0974 69.6931 59.3797C69.6931 59.6619 69.738 59.924 69.8278 60.166C69.9177 60.4079 70.056 60.6031 70.243 60.7516C70.4299 60.9 70.6682 60.9742 70.9578 60.9742ZM75.5434 57.2462V57.7961H73.355V57.2462H75.5434ZM73.9928 56.2345H74.6416V60.2594C74.6416 60.4427 74.6682 60.5802 74.7214 60.6718C74.7763 60.7616 74.846 60.8221 74.9303 60.8533C75.0164 60.8826 75.1072 60.8973 75.2025 60.8973C75.274 60.8973 75.3326 60.8936 75.3784 60.8863C75.4242 60.8771 75.4609 60.8698 75.4884 60.8643L75.6204 61.4471C75.5764 61.4636 75.515 61.4801 75.4362 61.4966C75.3573 61.5149 75.2575 61.5241 75.1365 61.5241C74.9532 61.5241 74.7736 61.4847 74.5976 61.4059C74.4235 61.3271 74.2787 61.207 74.1632 61.0457C74.0496 60.8844 73.9928 60.681 73.9928 60.4354V56.2345ZM83.0059 57.5981H82.3241C82.2837 57.402 82.2132 57.2297 82.1124 57.0813C82.0134 56.9328 81.8924 56.8082 81.7495 56.7074C81.6083 56.6047 81.4516 56.5278 81.2793 56.4764C81.1071 56.4251 80.9274 56.3995 80.7405 56.3995C80.3996 56.3995 80.0907 56.4856 79.814 56.6579C79.5391 56.8302 79.32 57.084 79.1569 57.4194C78.9956 57.7549 78.915 58.1663 78.915 58.6539C78.915 59.1414 78.9956 59.5529 79.1569 59.8883C79.32 60.2237 79.5391 60.4775 79.814 60.6498C80.0907 60.8221 80.3996 60.9083 80.7405 60.9083C80.9274 60.9083 81.1071 60.8826 81.2793 60.8313C81.4516 60.78 81.6083 60.7039 81.7495 60.6031C81.8924 60.5005 82.0134 60.3749 82.1124 60.2264C82.2132 60.0762 82.2837 59.9039 82.3241 59.7096H83.0059C82.9546 59.9973 82.8611 60.2549 82.7255 60.4821C82.5898 60.7094 82.4212 60.9028 82.2196 61.0622C82.018 61.2198 81.7916 61.3399 81.5405 61.4224C81.2913 61.5049 81.0246 61.5461 80.7405 61.5461C80.2603 61.5461 79.8332 61.4288 79.4593 61.1942C79.0854 60.9596 78.7913 60.626 78.5768 60.1935C78.3624 59.7609 78.2551 59.2477 78.2551 58.6539C78.2551 58.06 78.3624 57.5468 78.5768 57.1143C78.7913 56.6817 79.0854 56.3481 79.4593 56.1135C79.8332 55.8789 80.2603 55.7616 80.7405 55.7616C81.0246 55.7616 81.2913 55.8029 81.5405 55.8854C81.7916 55.9678 82.018 56.0888 82.2196 56.2483C82.4212 56.4059 82.5898 56.5983 82.7255 56.8256C82.8611 57.051 82.9546 57.3086 83.0059 57.5981ZM84.5137 58.9288V61.4691H83.8648V55.8386H84.5137V57.9061H84.5686C84.6676 57.688 84.8161 57.5148 85.014 57.3865C85.2138 57.2563 85.4796 57.1913 85.8113 57.1913C86.0991 57.1913 86.3511 57.249 86.5674 57.3645C86.7836 57.4781 86.9513 57.6531 87.0705 57.8896C87.1914 58.1242 87.2519 58.4229 87.2519 58.7858V61.4691H86.6031V58.8298C86.6031 58.4944 86.516 58.2351 86.3419 58.0518C86.1696 57.8667 85.9304 57.7741 85.6244 57.7741C85.4118 57.7741 85.2211 57.819 85.0525 57.9088C84.8857 57.9986 84.7538 58.1297 84.6566 58.302C84.5613 58.4742 84.5137 58.6832 84.5137 58.9288ZM89.9996 61.5571C89.6184 61.5571 89.2839 61.4664 88.9961 61.2849C88.7102 61.1035 88.4866 60.8496 88.3253 60.5234C88.1659 60.1971 88.0861 59.8159 88.0861 59.3797C88.0861 58.9398 88.1659 58.5558 88.3253 58.2277C88.4866 57.8997 88.7102 57.6449 88.9961 57.4634C89.2839 57.282 89.6184 57.1913 89.9996 57.1913C90.3809 57.1913 90.7144 57.282 91.0004 57.4634C91.2881 57.6449 91.5117 57.8997 91.6712 58.2277C91.8325 58.5558 91.9131 58.9398 91.9131 59.3797C91.9131 59.8159 91.8325 60.1971 91.6712 60.5234C91.5117 60.8496 91.2881 61.1035 91.0004 61.2849C90.7144 61.4664 90.3809 61.5571 89.9996 61.5571ZM89.9996 60.9742C90.2892 60.9742 90.5275 60.9 90.7144 60.7516C90.9014 60.6031 91.0398 60.4079 91.1296 60.166C91.2194 59.924 91.2643 59.6619 91.2643 59.3797C91.2643 59.0974 91.2194 58.8344 91.1296 58.5906C91.0398 58.3469 90.9014 58.1498 90.7144 57.9995C90.5275 57.8492 90.2892 57.7741 89.9996 57.7741C89.71 57.7741 89.4718 57.8492 89.2848 57.9995C89.0979 58.1498 88.9595 58.3469 88.8697 58.5906C88.7799 58.8344 88.735 59.0974 88.735 59.3797C88.735 59.6619 88.7799 59.924 88.8697 60.166C88.9595 60.4079 89.0979 60.6031 89.2848 60.7516C89.4718 60.9 89.71 60.9742 89.9996 60.9742ZM94.4642 61.5571C94.0684 61.5571 93.7274 61.4636 93.4415 61.2767C93.1556 61.0897 92.9357 60.8322 92.7817 60.5041C92.6277 60.176 92.5508 59.8012 92.5508 59.3797C92.5508 58.9508 92.6296 58.5723 92.7872 58.2442C92.9467 57.9143 93.1684 57.6568 93.4525 57.4717C93.7384 57.2847 94.072 57.1913 94.4532 57.1913C94.7502 57.1913 95.0178 57.2462 95.256 57.3562C95.4943 57.4662 95.6895 57.6201 95.8416 57.8181C95.9938 58.016 96.0881 58.247 96.1248 58.5109H95.476C95.4265 58.3185 95.3165 58.148 95.1461 57.9995C94.9774 57.8492 94.7502 57.7741 94.4642 57.7741C94.2113 57.7741 93.9895 57.8401 93.7989 57.972C93.6101 58.1022 93.4626 58.2864 93.3563 58.5247C93.2518 58.7611 93.1996 59.0388 93.1996 59.3577C93.1996 59.6839 93.2509 59.968 93.3535 60.21C93.458 60.4519 93.6046 60.6398 93.7934 60.7736C93.984 60.9073 94.2076 60.9742 94.4642 60.9742C94.6329 60.9742 94.7859 60.9449 94.9234 60.8863C95.0608 60.8276 95.1772 60.7433 95.2725 60.6333C95.3678 60.5234 95.4357 60.3914 95.476 60.2374H96.1248C96.0881 60.4867 95.9974 60.7112 95.8526 60.911C95.7097 61.109 95.52 61.2666 95.2835 61.3839C95.0489 61.4994 94.7758 61.5571 94.4642 61.5571ZM98.634 61.5571C98.2528 61.5571 97.9183 61.4664 97.6305 61.2849C97.3446 61.1035 97.121 60.8496 96.9597 60.5234C96.8002 60.1971 96.7205 59.8159 96.7205 59.3797C96.7205 58.9398 96.8002 58.5558 96.9597 58.2277C97.121 57.8997 97.3446 57.6449 97.6305 57.4634C97.9183 57.282 98.2528 57.1913 98.634 57.1913C99.0152 57.1913 99.3488 57.282 99.6347 57.4634C99.9225 57.6449 100.146 57.8997 100.306 58.2277C100.467 58.5558 100.547 58.9398 100.547 59.3797C100.547 59.8159 100.467 60.1971 100.306 60.5234C100.146 60.8496 99.9225 61.1035 99.6347 61.2849C99.3488 61.4664 99.0152 61.5571 98.634 61.5571ZM98.634 60.9742C98.9236 60.9742 99.1619 60.9 99.3488 60.7516C99.5358 60.6031 99.6741 60.4079 99.764 60.166C99.8538 59.924 99.8987 59.6619 99.8987 59.3797C99.8987 59.0974 99.8538 58.8344 99.764 58.5906C99.6741 58.3469 99.5358 58.1498 99.3488 57.9995C99.1619 57.8492 98.9236 57.7741 98.634 57.7741C98.3444 57.7741 98.1061 57.8492 97.9192 57.9995C97.7322 58.1498 97.5939 58.3469 97.5041 58.5906C97.4142 58.8344 97.3693 59.0974 97.3693 59.3797C97.3693 59.6619 97.4142 59.924 97.5041 60.166C97.5939 60.4079 97.7322 60.6031 97.9192 60.7516C98.1061 60.9 98.3444 60.9742 98.634 60.9742ZM102.032 55.8386V61.4691H101.383V55.8386H102.032ZM104.308 61.5681C104.041 61.5681 103.798 61.5177 103.58 61.4169C103.361 61.3142 103.188 61.1667 103.06 60.9742C102.932 60.78 102.867 60.5454 102.867 60.2704C102.867 60.0285 102.915 59.8324 103.01 59.6821C103.106 59.53 103.233 59.4108 103.393 59.3247C103.552 59.2385 103.728 59.1744 103.92 59.1322C104.115 59.0883 104.31 59.0534 104.506 59.0278C104.763 58.9948 104.971 58.97 105.13 58.9535C105.291 58.9352 105.409 58.905 105.482 58.8628C105.557 58.8207 105.595 58.7473 105.595 58.6429V58.6209C105.595 58.3496 105.521 58.1388 105.372 57.9885C105.225 57.8383 105.003 57.7631 104.704 57.7631C104.394 57.7631 104.151 57.8309 103.975 57.9666C103.799 58.1022 103.676 58.247 103.604 58.4009L102.988 58.181C103.098 57.9244 103.245 57.7246 103.428 57.5817C103.613 57.4369 103.815 57.3361 104.033 57.2792C104.253 57.2206 104.469 57.1913 104.682 57.1913C104.818 57.1913 104.973 57.2078 105.149 57.2407C105.327 57.2719 105.499 57.337 105.663 57.4359C105.83 57.5349 105.969 57.6843 106.079 57.8841C106.189 58.0839 106.244 58.3514 106.244 58.6869V61.4691H105.595V60.8973H105.562C105.518 60.9889 105.444 61.087 105.342 61.1914C105.239 61.2959 105.103 61.3848 104.932 61.4581C104.762 61.5314 104.554 61.5681 104.308 61.5681ZM104.407 60.9852C104.664 60.9852 104.88 60.9348 105.056 60.834C105.234 60.7332 105.367 60.6031 105.457 60.4436C105.549 60.2842 105.595 60.1165 105.595 59.9405V59.3467C105.567 59.3797 105.507 59.4099 105.413 59.4374C105.322 59.4631 105.215 59.486 105.094 59.5061C104.975 59.5245 104.859 59.541 104.745 59.5556C104.633 59.5685 104.543 59.5795 104.473 59.5886C104.304 59.6106 104.147 59.6464 104 59.6958C103.855 59.7435 103.738 59.8159 103.648 59.913C103.56 60.0083 103.516 60.1385 103.516 60.3034C103.516 60.5289 103.6 60.6993 103.767 60.8148C103.935 60.9284 104.149 60.9852 104.407 60.9852ZM109.11 57.2462V57.7961H106.921V57.2462H109.11ZM107.559 56.2345H108.208V60.2594C108.208 60.4427 108.234 60.5802 108.287 60.6718C108.342 60.7616 108.412 60.8221 108.496 60.8533C108.583 60.8826 108.673 60.8973 108.769 60.8973C108.84 60.8973 108.899 60.8936 108.945 60.8863C108.99 60.8771 109.027 60.8698 109.055 60.8643L109.186 61.4471C109.142 61.4636 109.081 61.4801 109.002 61.4966C108.923 61.5149 108.824 61.5241 108.703 61.5241C108.519 61.5241 108.34 61.4847 108.164 61.4059C107.99 61.3271 107.845 61.207 107.729 61.0457C107.616 60.8844 107.559 60.681 107.559 60.4354V56.2345ZM111.656 61.5571C111.249 61.5571 110.898 61.4673 110.603 61.2877C110.31 61.1062 110.083 60.8533 109.924 60.5289C109.766 60.2026 109.687 59.8232 109.687 59.3907C109.687 58.9581 109.766 58.5769 109.924 58.247C110.083 57.9152 110.305 57.6568 110.589 57.4717C110.875 57.2847 111.209 57.1913 111.59 57.1913C111.81 57.1913 112.027 57.2279 112.241 57.3012C112.456 57.3745 112.651 57.4937 112.827 57.6586C113.003 57.8218 113.143 58.038 113.248 58.3075C113.352 58.5769 113.404 58.9086 113.404 59.3027V59.5776H110.149V59.0168H112.745C112.745 58.7785 112.697 58.5659 112.602 58.3789C112.508 58.192 112.374 58.0444 112.2 57.9363C112.028 57.8282 111.824 57.7741 111.59 57.7741C111.331 57.7741 111.108 57.8383 110.919 57.9666C110.732 58.093 110.588 58.258 110.487 58.4614C110.387 58.6649 110.336 58.883 110.336 59.1157V59.4896C110.336 59.8086 110.391 60.0789 110.501 60.3007C110.613 60.5206 110.768 60.6883 110.966 60.8038C111.164 60.9174 111.394 60.9742 111.656 60.9742C111.826 60.9742 111.98 60.9504 112.118 60.9028C112.257 60.8533 112.377 60.78 112.478 60.6828C112.579 60.5839 112.657 60.4611 112.712 60.3144L113.338 60.4904C113.272 60.703 113.162 60.8899 113.006 61.0512C112.85 61.2107 112.657 61.3353 112.428 61.4251C112.199 61.5131 111.942 61.5571 111.656 61.5571ZM116.347 61.4691V55.8386H118.316C118.708 55.8386 119.031 55.9064 119.286 56.0421C119.541 56.1759 119.73 56.3564 119.855 56.5837C119.98 56.8091 120.042 57.0593 120.042 57.3342C120.042 57.5762 119.999 57.7759 119.913 57.9336C119.829 58.0912 119.717 58.2158 119.577 58.3075C119.44 58.3991 119.291 58.4669 119.129 58.5109V58.5659C119.302 58.5769 119.475 58.6374 119.649 58.7473C119.823 58.8573 119.969 59.0149 120.086 59.2202C120.203 59.4255 120.262 59.6766 120.262 59.9735C120.262 60.2558 120.198 60.5096 120.07 60.7351C119.941 60.9605 119.739 61.1392 119.462 61.2712C119.185 61.4031 118.825 61.4691 118.382 61.4691H116.347ZM117.029 60.8643H118.382C118.827 60.8643 119.143 60.7781 119.33 60.6058C119.519 60.4317 119.613 60.2209 119.613 59.9735C119.613 59.7829 119.565 59.6069 119.467 59.4457C119.37 59.2825 119.232 59.1524 119.052 59.0553C118.873 58.9563 118.66 58.9068 118.415 58.9068H117.029V60.8643ZM117.029 58.313H118.294C118.499 58.313 118.684 58.2726 118.849 58.192C119.016 58.1113 119.148 57.9977 119.245 57.8511C119.344 57.7045 119.393 57.5322 119.393 57.3342C119.393 57.0868 119.307 56.8769 119.135 56.7046C118.963 56.5305 118.689 56.4435 118.316 56.4435H117.029V58.313ZM121.557 63.0527C121.447 63.0527 121.349 63.0435 121.263 63.0252C121.177 63.0087 121.118 62.9922 121.085 62.9757L121.249 62.4039C121.407 62.4442 121.546 62.4589 121.667 62.4479C121.788 62.4369 121.896 62.3828 121.989 62.2856C122.084 62.1903 122.171 62.0355 122.25 61.821L122.371 61.4911L120.81 57.2462H121.513L122.679 60.6113H122.723L123.889 57.2462H124.593L122.8 62.085C122.719 62.3031 122.62 62.4836 122.5 62.6266C122.381 62.7714 122.243 62.8786 122.085 62.9482C121.929 63.0179 121.754 63.0527 121.557 63.0527ZM151.223 57.5981H150.541C150.501 57.402 150.431 57.2297 150.33 57.0813C150.231 56.9328 150.11 56.8082 149.967 56.7074C149.826 56.6047 149.669 56.5278 149.497 56.4764C149.324 56.4251 149.145 56.3995 148.958 56.3995C148.617 56.3995 148.308 56.4856 148.031 56.6579C147.756 56.8302 147.537 57.084 147.374 57.4194C147.213 57.7549 147.132 58.1663 147.132 58.6539C147.132 59.1414 147.213 59.5529 147.374 59.8883C147.537 60.2237 147.756 60.4775 148.031 60.6498C148.308 60.8221 148.617 60.9083 148.958 60.9083C149.145 60.9083 149.324 60.8826 149.497 60.8313C149.669 60.78 149.826 60.7039 149.967 60.6031C150.11 60.5005 150.231 60.3749 150.33 60.2264C150.431 60.0762 150.501 59.9039 150.541 59.7096H151.223C151.172 59.9973 151.078 60.2549 150.943 60.4821C150.807 60.7094 150.639 60.9028 150.437 61.0622C150.235 61.2198 150.009 61.3399 149.758 61.4224C149.509 61.5049 149.242 61.5461 148.958 61.5461C148.478 61.5461 148.051 61.4288 147.677 61.1942C147.303 60.9596 147.009 60.626 146.794 60.1935C146.58 59.7609 146.472 59.2477 146.472 58.6539C146.472 58.06 146.58 57.5468 146.794 57.1143C147.009 56.6817 147.303 56.3481 147.677 56.1135C148.051 55.8789 148.478 55.7616 148.958 55.7616C149.242 55.7616 149.509 55.8029 149.758 55.8854C150.009 55.9678 150.235 56.0888 150.437 56.2483C150.639 56.4059 150.807 56.5983 150.943 56.8256C151.078 57.051 151.172 57.3086 151.223 57.5981ZM152.082 61.4691V57.2462H152.709V57.8841H152.753C152.83 57.6751 152.969 57.5056 153.171 57.3755C153.372 57.2453 153.6 57.1803 153.853 57.1803C153.9 57.1803 153.96 57.1812 154.031 57.183C154.103 57.1848 154.157 57.1876 154.194 57.1913V57.8511C154.172 57.8456 154.121 57.8373 154.042 57.8263C153.965 57.8135 153.884 57.8071 153.798 57.8071C153.592 57.8071 153.409 57.8502 153.248 57.9363C153.088 58.0206 152.962 58.1379 152.868 58.2882C152.777 58.4367 152.731 58.6062 152.731 58.7968V61.4691H152.082ZM156.45 61.5571C156.043 61.5571 155.692 61.4673 155.397 61.2877C155.104 61.1062 154.877 60.8533 154.718 60.5289C154.56 60.2026 154.481 59.8232 154.481 59.3907C154.481 58.9581 154.56 58.5769 154.718 58.247C154.877 57.9152 155.099 57.6568 155.383 57.4717C155.669 57.2847 156.003 57.1913 156.384 57.1913C156.604 57.1913 156.821 57.2279 157.035 57.3012C157.25 57.3745 157.445 57.4937 157.621 57.6586C157.797 57.8218 157.937 58.038 158.042 58.3075C158.146 58.5769 158.198 58.9086 158.198 59.3027V59.5776H154.943V59.0168H157.539C157.539 58.7785 157.491 58.5659 157.396 58.3789C157.302 58.192 157.168 58.0444 156.994 57.9363C156.822 57.8282 156.618 57.7741 156.384 57.7741C156.125 57.7741 155.902 57.8383 155.713 57.9666C155.526 58.093 155.382 58.258 155.281 58.4614C155.181 58.6649 155.13 58.883 155.13 59.1157V59.4896C155.13 59.8086 155.185 60.0789 155.295 60.3007C155.407 60.5206 155.562 60.6883 155.76 60.8038C155.958 60.9174 156.188 60.9742 156.45 60.9742C156.62 60.9742 156.774 60.9504 156.912 60.9028C157.051 60.8533 157.171 60.78 157.272 60.6828C157.373 60.5839 157.451 60.4611 157.506 60.3144L158.132 60.4904C158.066 60.703 157.956 60.8899 157.8 61.0512C157.644 61.2107 157.452 61.3353 157.222 61.4251C156.993 61.5131 156.736 61.5571 156.45 61.5571ZM159.031 63.0527V57.2462H159.657V57.9171H159.734C159.782 57.8437 159.848 57.7503 159.932 57.6366C160.018 57.5212 160.141 57.4185 160.301 57.3287C160.462 57.2371 160.68 57.1913 160.955 57.1913C161.311 57.1913 161.624 57.2802 161.895 57.4579C162.167 57.6357 162.378 57.8877 162.53 58.214C162.682 58.5402 162.759 58.9251 162.759 59.3687C162.759 59.8159 162.682 60.2035 162.53 60.5316C162.378 60.8579 162.167 61.1108 161.898 61.2904C161.629 61.4682 161.318 61.5571 160.966 61.5571C160.695 61.5571 160.478 61.5122 160.314 61.4224C160.151 61.3307 160.026 61.2272 159.938 61.1117C159.85 60.9944 159.782 60.8973 159.734 60.8203H159.679V63.0527H159.031ZM159.668 59.3577C159.668 59.6766 159.715 59.9579 159.809 60.2017C159.902 60.4436 160.039 60.6333 160.218 60.7708C160.398 60.9064 160.618 60.9742 160.878 60.9742C161.149 60.9742 161.376 60.9028 161.557 60.7598C161.74 60.615 161.878 60.4207 161.97 60.177C162.063 59.9314 162.11 59.6583 162.11 59.3577C162.11 59.0608 162.064 58.7932 161.972 58.5549C161.882 58.3148 161.746 58.1251 161.563 57.9858C161.381 57.8447 161.153 57.7741 160.878 57.7741C160.614 57.7741 160.392 57.841 160.213 57.9748C160.033 58.1068 159.897 58.2919 159.806 58.5301C159.714 58.7666 159.668 59.0424 159.668 59.3577ZM165.364 61.5571C164.957 61.5571 164.606 61.4673 164.311 61.2877C164.018 61.1062 163.791 60.8533 163.632 60.5289C163.474 60.2026 163.396 59.8232 163.396 59.3907C163.396 58.9581 163.474 58.5769 163.632 58.247C163.791 57.9152 164.013 57.6568 164.297 57.4717C164.583 57.2847 164.917 57.1913 165.298 57.1913C165.518 57.1913 165.735 57.2279 165.95 57.3012C166.164 57.3745 166.359 57.4937 166.535 57.6586C166.711 57.8218 166.851 58.038 166.956 58.3075C167.06 58.5769 167.113 58.9086 167.113 59.3027V59.5776H163.857V59.0168H166.453C166.453 58.7785 166.405 58.5659 166.31 58.3789C166.216 58.192 166.082 58.0444 165.908 57.9363C165.736 57.8282 165.533 57.7741 165.298 57.7741C165.04 57.7741 164.816 57.8383 164.627 57.9666C164.44 58.093 164.296 58.258 164.196 58.4614C164.095 58.6649 164.044 58.883 164.044 59.1157V59.4896C164.044 59.8086 164.099 60.0789 164.209 60.3007C164.321 60.5206 164.476 60.6883 164.674 60.8038C164.872 60.9174 165.102 60.9742 165.364 60.9742C165.534 60.9742 165.688 60.9504 165.826 60.9028C165.965 60.8533 166.085 60.78 166.186 60.6828C166.287 60.5839 166.365 60.4611 166.42 60.3144L167.047 60.4904C166.981 60.703 166.87 60.8899 166.714 61.0512C166.558 61.2107 166.366 61.3353 166.137 61.4251C165.907 61.5131 165.65 61.5571 165.364 61.5571ZM167.945 61.4691V57.2462H168.572V57.8841H168.615C168.692 57.6751 168.832 57.5056 169.033 57.3755C169.235 57.2453 169.462 57.1803 169.715 57.1803C169.763 57.1803 169.822 57.1812 169.894 57.183C169.965 57.1848 170.019 57.1876 170.056 57.1913V57.8511C170.034 57.8456 169.984 57.8373 169.905 57.8263C169.828 57.8135 169.746 57.8071 169.66 57.8071C169.455 57.8071 169.272 57.8502 169.11 57.9363C168.951 58.0206 168.824 58.1379 168.731 58.2882C168.639 58.4367 168.593 58.6062 168.593 58.7968V61.4691H167.945ZM170.67 61.4691V57.2462H171.319V61.4691H170.67ZM171 56.5424C170.874 56.5424 170.765 56.4994 170.673 56.4132C170.583 56.3271 170.538 56.2235 170.538 56.1025C170.538 55.9816 170.583 55.878 170.673 55.7919C170.765 55.7057 170.874 55.6627 171 55.6627C171.127 55.6627 171.235 55.7057 171.325 55.7919C171.416 55.878 171.462 55.9816 171.462 56.1025C171.462 56.2235 171.416 56.3271 171.325 56.4132C171.235 56.4994 171.127 56.5424 171 56.5424ZM174.123 61.5571C173.716 61.5571 173.365 61.4673 173.07 61.2877C172.777 61.1062 172.551 60.8533 172.391 60.5289C172.234 60.2026 172.155 59.8232 172.155 59.3907C172.155 58.9581 172.234 58.5769 172.391 58.247C172.551 57.9152 172.772 57.6568 173.057 57.4717C173.342 57.2847 173.676 57.1913 174.057 57.1913C174.277 57.1913 174.494 57.2279 174.709 57.3012C174.923 57.3745 175.119 57.4937 175.294 57.6586C175.47 57.8218 175.611 58.038 175.715 58.3075C175.82 58.5769 175.872 58.9086 175.872 59.3027V59.5776H172.617V59.0168H175.212C175.212 58.7785 175.164 58.5659 175.069 58.3789C174.976 58.192 174.842 58.0444 174.668 57.9363C174.495 57.8282 174.292 57.7741 174.057 57.7741C173.799 57.7741 173.575 57.8383 173.386 57.9666C173.2 58.093 173.056 58.258 172.955 58.4614C172.854 58.6649 172.804 58.883 172.804 59.1157V59.4896C172.804 59.8086 172.859 60.0789 172.969 60.3007C173.08 60.5206 173.235 60.6883 173.433 60.8038C173.631 60.9174 173.861 60.9742 174.123 60.9742C174.294 60.9742 174.448 60.9504 174.585 60.9028C174.724 60.8533 174.844 60.78 174.945 60.6828C175.046 60.5839 175.124 60.4611 175.179 60.3144L175.806 60.4904C175.74 60.703 175.629 60.8899 175.473 61.0512C175.317 61.2107 175.125 61.3353 174.896 61.4251C174.667 61.5131 174.409 61.5571 174.123 61.5571Z" fill="#2D2D45"/>
<path d="M127.405 61.4691V55.8386H129.307C129.749 55.8386 130.11 55.9183 130.39 56.0778C130.673 56.2354 130.882 56.449 131.017 56.7184C131.153 56.9878 131.221 57.2884 131.221 57.6201C131.221 57.9519 131.153 58.2534 131.017 58.5247C130.883 58.7959 130.676 59.0122 130.396 59.1735C130.116 59.3329 129.756 59.4127 129.318 59.4127H127.955V58.8078H129.296C129.599 58.8078 129.841 58.7556 130.025 58.6511C130.208 58.5466 130.341 58.4055 130.423 58.2277C130.508 58.0481 130.55 57.8456 130.55 57.6201C130.55 57.3947 130.508 57.1931 130.423 57.0153C130.341 56.8375 130.207 56.6982 130.022 56.5974C129.837 56.4948 129.591 56.4435 129.285 56.4435H128.087V61.4691H127.405ZM133.319 61.5681C133.051 61.5681 132.808 61.5177 132.59 61.4169C132.372 61.3142 132.199 61.1667 132.071 60.9742C131.942 60.78 131.878 60.5454 131.878 60.2704C131.878 60.0285 131.926 59.8324 132.021 59.6821C132.117 59.53 132.244 59.4108 132.403 59.3247C132.563 59.2385 132.739 59.1744 132.931 59.1322C133.126 59.0883 133.321 59.0534 133.517 59.0278C133.773 58.9948 133.981 58.97 134.141 58.9535C134.302 58.9352 134.42 58.905 134.493 58.8628C134.568 58.8207 134.606 58.7473 134.606 58.6429V58.6209C134.606 58.3496 134.531 58.1388 134.383 57.9885C134.236 57.8383 134.014 57.7631 133.715 57.7631C133.405 57.7631 133.162 57.8309 132.986 57.9666C132.81 58.1022 132.687 58.247 132.615 58.4009L131.999 58.181C132.109 57.9244 132.256 57.7246 132.439 57.5817C132.624 57.4369 132.826 57.3361 133.044 57.2792C133.264 57.2206 133.48 57.1913 133.693 57.1913C133.828 57.1913 133.984 57.2078 134.16 57.2407C134.338 57.2719 134.509 57.337 134.674 57.4359C134.841 57.5349 134.979 57.6843 135.089 57.8841C135.199 58.0839 135.254 58.3514 135.254 58.6869V61.4691H134.606V60.8973H134.573C134.529 60.9889 134.455 61.087 134.353 61.1914C134.25 61.2959 134.113 61.3848 133.943 61.4581C133.773 61.5314 133.564 61.5681 133.319 61.5681ZM133.418 60.9852C133.674 60.9852 133.891 60.9348 134.067 60.834C134.244 60.7332 134.378 60.6031 134.468 60.4436C134.56 60.2842 134.606 60.1165 134.606 59.9405V59.3467C134.578 59.3797 134.518 59.4099 134.424 59.4374C134.332 59.4631 134.226 59.486 134.105 59.5061C133.986 59.5245 133.87 59.541 133.756 59.5556C133.644 59.5685 133.553 59.5795 133.484 59.5886C133.315 59.6106 133.158 59.6464 133.011 59.6958C132.866 59.7435 132.749 59.8159 132.659 59.913C132.571 60.0083 132.527 60.1385 132.527 60.3034C132.527 60.5289 132.61 60.6993 132.777 60.8148C132.946 60.9284 133.159 60.9852 133.418 60.9852ZM136.284 61.4691V57.2462H136.911V57.8841H136.955C137.032 57.6751 137.171 57.5056 137.372 57.3755C137.574 57.2453 137.801 57.1803 138.054 57.1803C138.102 57.1803 138.162 57.1812 138.233 57.183C138.304 57.1848 138.359 57.1876 138.395 57.1913V57.8511C138.373 57.8456 138.323 57.8373 138.244 57.8263C138.167 57.8135 138.085 57.8071 137.999 57.8071C137.794 57.8071 137.611 57.8502 137.449 57.9363C137.29 58.0206 137.164 58.1379 137.07 58.2882C136.978 58.4367 136.933 58.6062 136.933 58.7968V61.4691H136.284ZM139.009 61.4691V57.2462H139.658V61.4691H139.009ZM139.339 56.5424C139.213 56.5424 139.104 56.4994 139.012 56.4132C138.922 56.3271 138.878 56.2235 138.878 56.1025C138.878 55.9816 138.922 55.878 139.012 55.7919C139.104 55.7057 139.213 55.6627 139.339 55.6627C139.466 55.6627 139.574 55.7057 139.664 55.7919C139.755 55.878 139.801 55.9816 139.801 56.1025C139.801 56.2235 139.755 56.3271 139.664 56.4132C139.574 56.4994 139.466 56.5424 139.339 56.5424ZM143.683 58.192L143.1 58.3569C143.064 58.2598 143.009 58.1654 142.938 58.0738C142.868 57.9803 142.773 57.9033 142.652 57.8428C142.531 57.7823 142.376 57.7521 142.187 57.7521C141.929 57.7521 141.714 57.8117 141.541 57.9308C141.371 58.0481 141.286 58.1975 141.286 58.3789C141.286 58.5402 141.344 58.6676 141.462 58.7611C141.579 58.8546 141.762 58.9325 142.011 58.9948L142.638 59.1487C143.016 59.2404 143.297 59.3806 143.482 59.5694C143.667 59.7563 143.76 59.9973 143.76 60.2924C143.76 60.5344 143.69 60.7506 143.551 60.9413C143.414 61.1319 143.221 61.2822 142.974 61.3921C142.726 61.5021 142.439 61.5571 142.11 61.5571C141.68 61.5571 141.323 61.4636 141.041 61.2767C140.759 61.0897 140.58 60.8166 140.505 60.4574L141.121 60.3034C141.179 60.5307 141.29 60.7012 141.453 60.8148C141.618 60.9284 141.834 60.9852 142.099 60.9852C142.402 60.9852 142.642 60.9211 142.82 60.7928C142.999 60.6627 143.089 60.5069 143.089 60.3254C143.089 60.1788 143.038 60.056 142.935 59.957C142.833 59.8562 142.675 59.7811 142.462 59.7316L141.759 59.5666C141.372 59.475 141.088 59.3329 140.906 59.1405C140.727 58.9462 140.637 58.7034 140.637 58.4119C140.637 58.1737 140.704 57.9629 140.838 57.7796C140.973 57.5963 141.157 57.4524 141.39 57.348C141.625 57.2435 141.891 57.1913 142.187 57.1913C142.605 57.1913 142.933 57.2829 143.172 57.4662C143.412 57.6495 143.582 57.8914 143.683 58.192Z" fill="#353FD7"/>
<g clip-path="url(#clip0_1643_26305)">
<path d="M22.5184 63.4381C21.9896 63.4381 21.4919 63.2204 21.1498 62.8782C20.4032 62.1006 20.4032 60.8875 21.1498 60.1098L25.2557 55.9727C25.5046 55.7239 25.8156 55.5994 26.1267 55.5994C26.4689 55.5994 26.7799 55.7239 26.9977 55.9727C27.2465 56.2216 27.3709 56.5326 27.3709 56.8437C27.3709 57.1547 27.2465 57.4969 26.9977 57.7146L24.1981 60.5142L23.856 60.172L26.6555 57.3725C26.811 57.2169 26.8733 57.0303 26.8733 56.8126C26.8733 56.5948 26.7799 56.4082 26.6555 56.2527C26.5 56.0971 26.3133 56.0349 26.0956 56.0349C25.8779 56.0349 25.6912 56.1282 25.5357 56.2527L21.4608 60.4209C20.8698 61.0119 20.8698 61.9451 21.4608 62.5361C21.7408 62.816 22.114 62.9716 22.5184 62.9716C22.9228 62.9716 23.2961 62.816 23.576 62.5361L28.1175 57.9946C28.9574 57.1547 28.9574 55.7861 28.1175 54.9462C27.7131 54.5418 27.1532 54.3241 26.5933 54.3241C26.0023 54.3241 25.4735 54.5418 25.0691 54.9462L22.0207 57.9946L21.6786 57.6524L24.7269 54.5729C25.2246 54.0752 25.8779 53.7953 26.5933 53.7953C27.3087 53.7953 27.962 54.0752 28.4597 54.5729C29.4862 55.5994 29.4862 57.2792 28.4597 58.3057L23.8871 62.8471C23.5138 63.2204 23.0161 63.4381 22.5184 63.4381Z" fill="#353FD7"/>
</g>
<rect x="8.84766" y="77.4189" width="222.304" height="30.9677" rx="8" fill="white"/>
<path d="M216.031 92.5347L219.054 89.5117" stroke="#4D4D4D" stroke-width="0.829493" stroke-linecap="round" stroke-linejoin="round"/>
<path d="M219.35 90.9863V89.2167H217.58" stroke="#4D4D4D" stroke-width="0.829493" stroke-linecap="round" stroke-linejoin="round"/>
<path d="M215.295 89.2167H214.557C212.714 89.2167 211.977 89.9541 211.977 91.7974V94.0094C211.977 95.8527 212.714 96.59 214.557 96.59H216.769C218.613 96.59 219.35 95.8527 219.35 94.0094V93.272" stroke="#4D4D4D" stroke-width="0.829493" stroke-linecap="round" stroke-linejoin="round"/>
<path d="M42.2634 91.8839H41.5816C41.5413 91.6877 41.4707 91.5155 41.3699 91.367C41.2709 91.2185 41.1499 91.0939 41.007 90.9931C40.8658 90.8905 40.7091 90.8135 40.5369 90.7622C40.3646 90.7108 40.1849 90.6852 39.998 90.6852C39.6571 90.6852 39.3483 90.7713 39.0715 90.9436C38.7966 91.1159 38.5775 91.3697 38.4144 91.7052C38.2531 92.0406 38.1725 92.452 38.1725 92.9396C38.1725 93.4271 38.2531 93.8386 38.4144 94.174C38.5775 94.5094 38.7966 94.7633 39.0715 94.9355C39.3483 95.1078 39.6571 95.194 39.998 95.194C40.1849 95.194 40.3646 95.1683 40.5369 95.117C40.7091 95.0657 40.8658 94.9896 41.007 94.8888C41.1499 94.7862 41.2709 94.6606 41.3699 94.5122C41.4707 94.3619 41.5413 94.1896 41.5816 93.9953H42.2634C42.2121 94.283 42.1186 94.5406 41.983 94.7678C41.8473 94.9951 41.6787 95.1885 41.4771 95.3479C41.2755 95.5056 41.0491 95.6256 40.798 95.7081C40.5488 95.7906 40.2821 95.8318 39.998 95.8318C39.5178 95.8318 39.0907 95.7145 38.7168 95.4799C38.3429 95.2453 38.0488 94.9117 37.8343 94.4792C37.6199 94.0466 37.5127 93.5334 37.5127 92.9396C37.5127 92.3457 37.6199 91.8325 37.8343 91.4C38.0488 90.9674 38.3429 90.6339 38.7168 90.3993C39.0907 90.1646 39.5178 90.0473 39.998 90.0473C40.2821 90.0473 40.5488 90.0886 40.798 90.1711C41.0491 90.2535 41.2755 90.3745 41.4771 90.534C41.6787 90.6916 41.8473 90.884 41.983 91.1113C42.1186 91.3367 42.2121 91.5943 42.2634 91.8839ZM43.7712 93.2145V95.7548H43.1223V90.1243H43.7712V92.1918H43.8262C43.9251 91.9737 44.0736 91.8005 44.2715 91.6722C44.4713 91.542 44.7371 91.477 45.0688 91.477C45.3566 91.477 45.6086 91.5347 45.8249 91.6502C46.0411 91.7638 46.2089 91.9388 46.328 92.1753C46.449 92.4099 46.5094 92.7086 46.5094 93.0715V95.7548H45.8606V93.1155C45.8606 92.7801 45.7736 92.5208 45.5994 92.3375C45.4271 92.1524 45.188 92.0598 44.8819 92.0598C44.6693 92.0598 44.4786 92.1047 44.31 92.1945C44.1432 92.2843 44.0113 92.4154 43.9141 92.5877C43.8188 92.76 43.7712 92.9689 43.7712 93.2145ZM47.5416 95.7548V91.5319H48.1904V95.7548H47.5416ZM47.8715 90.8281C47.745 90.8281 47.636 90.7851 47.5443 90.6989C47.4545 90.6128 47.4096 90.5092 47.4096 90.3883C47.4096 90.2673 47.4545 90.1637 47.5443 90.0776C47.636 89.9914 47.745 89.9484 47.8715 89.9484C47.998 89.9484 48.1061 89.9914 48.1959 90.0776C48.2876 90.1637 48.3334 90.2673 48.3334 90.3883C48.3334 90.5092 48.2876 90.6128 48.1959 90.6989C48.1061 90.7851 47.998 90.8281 47.8715 90.8281ZM50.9395 95.8428C50.5436 95.8428 50.2027 95.7493 49.9168 95.5624C49.6308 95.3754 49.4109 95.1179 49.2569 94.7898C49.103 94.4617 49.026 94.0869 49.026 93.6654C49.026 93.2365 49.1048 92.858 49.2624 92.5299C49.4219 92.2 49.6437 91.9425 49.9278 91.7574C50.2137 91.5704 50.5473 91.477 50.9285 91.477C51.2254 91.477 51.493 91.5319 51.7313 91.6419C51.9696 91.7519 52.1648 91.9058 52.3169 92.1038C52.469 92.3017 52.5634 92.5327 52.6001 92.7966H51.9512C51.9017 92.6042 51.7918 92.4337 51.6213 92.2852C51.4527 92.135 51.2254 92.0598 50.9395 92.0598C50.6866 92.0598 50.4648 92.1258 50.2742 92.2578C50.0854 92.3879 49.9379 92.5721 49.8315 92.8104C49.7271 93.0468 49.6748 93.3245 49.6748 93.6434C49.6748 93.9696 49.7262 94.2537 49.8288 94.4957C49.9333 94.7376 50.0799 94.9255 50.2687 95.0593C50.4593 95.1931 50.6829 95.26 50.9395 95.26C51.1081 95.26 51.2612 95.2306 51.3986 95.172C51.5361 95.1133 51.6525 95.029 51.7478 94.919C51.8431 94.8091 51.9109 94.6771 51.9512 94.5232H52.6001C52.5634 94.7724 52.4727 94.9969 52.3279 95.1967C52.1849 95.3947 51.9952 95.5523 51.7588 95.6696C51.5242 95.7851 51.2511 95.8428 50.9395 95.8428ZM53.9986 94.2152L53.9876 93.4124H54.1195L55.967 91.5319H56.7698L54.8013 93.5224H54.7464L53.9986 94.2152ZM53.3937 95.7548V90.1243H54.0425V95.7548H53.3937ZM56.077 95.7548L54.4274 93.6654L54.8893 93.2145L56.9018 95.7548H56.077ZM59.0467 95.8428C58.6398 95.8428 58.2888 95.753 57.9937 95.5734C57.7005 95.3919 57.4741 95.139 57.3147 94.8146C57.157 94.4883 57.0782 94.1089 57.0782 93.6764C57.0782 93.2438 57.157 92.8626 57.3147 92.5327C57.4741 92.2009 57.6959 91.9425 57.98 91.7574C58.2659 91.5704 58.5995 91.477 58.9807 91.477C59.2007 91.477 59.4179 91.5136 59.6323 91.5869C59.8467 91.6602 60.0419 91.7794 60.2179 91.9443C60.3938 92.1075 60.5341 92.3237 60.6385 92.5932C60.743 92.8626 60.7952 93.1943 60.7952 93.5884V93.8633H57.5401V93.3025H60.1354C60.1354 93.0642 60.0878 92.8516 59.9925 92.6646C59.899 92.4777 59.7652 92.3302 59.5911 92.222C59.4188 92.1139 59.2153 92.0598 58.9807 92.0598C58.7223 92.0598 58.4987 92.124 58.3099 92.2523C58.1229 92.3787 57.9791 92.5437 57.8783 92.7471C57.7775 92.9506 57.7271 93.1687 57.7271 93.4014V93.7753C57.7271 94.0943 57.782 94.3646 57.892 94.5864C58.0038 94.8063 58.1587 94.974 58.3566 95.0895C58.5546 95.2031 58.7846 95.26 59.0467 95.26C59.2172 95.26 59.3711 95.2361 59.5086 95.1885C59.6479 95.139 59.7679 95.0657 59.8687 94.9685C59.9695 94.8696 60.0474 94.7468 60.1024 94.6001L60.7293 94.7761C60.6633 94.9887 60.5524 95.1756 60.3966 95.3369C60.2408 95.4964 60.0484 95.621 59.8192 95.7108C59.5901 95.7988 59.3326 95.8428 59.0467 95.8428ZM62.2762 93.2145V95.7548H61.6274V91.5319H62.2542V92.1918H62.3092C62.4082 91.9773 62.5585 91.805 62.7601 91.6749C62.9617 91.5429 63.222 91.477 63.5409 91.477C63.8268 91.477 64.077 91.5356 64.2914 91.6529C64.5059 91.7684 64.6727 91.9443 64.7918 92.1808C64.9109 92.4154 64.9705 92.7123 64.9705 93.0715V95.7548H64.3217V93.1155C64.3217 92.7838 64.2355 92.5253 64.0632 92.3402C63.8909 92.1533 63.6545 92.0598 63.3539 92.0598C63.1468 92.0598 62.9617 92.1047 62.7986 92.1945C62.6373 92.2843 62.5099 92.4154 62.4164 92.5877C62.3229 92.76 62.2762 92.9689 62.2762 93.2145ZM68.3428 95.7548H67.628L69.6954 90.1243H70.3992L72.4667 95.7548H71.7519L70.0693 91.0151H70.0253L68.3428 95.7548ZM68.6067 93.5554H71.4879V94.1602H68.6067V93.5554ZM75.2114 95.7548V90.1243H75.8932V95.15H78.5105V95.7548H75.2114ZM80.5661 95.8538C80.2985 95.8538 80.0557 95.8034 79.8376 95.7026C79.6195 95.5999 79.4463 95.4524 79.318 95.26C79.1897 95.0657 79.1255 94.8311 79.1255 94.5561C79.1255 94.3142 79.1732 94.1181 79.2685 93.9678C79.3638 93.8157 79.4912 93.6965 79.6506 93.6104C79.8101 93.5242 79.986 93.4601 80.1785 93.4179C80.3728 93.374 80.568 93.3391 80.7641 93.3135C81.0207 93.2805 81.2287 93.2557 81.3882 93.2392C81.5494 93.2209 81.6667 93.1907 81.7401 93.1485C81.8152 93.1064 81.8528 93.033 81.8528 92.9286V92.9066C81.8528 92.6353 81.7785 92.4245 81.6301 92.2742C81.4835 92.124 81.2608 92.0488 80.962 92.0488C80.6523 92.0488 80.4094 92.1166 80.2335 92.2523C80.0575 92.3879 79.9338 92.5327 79.8623 92.6866L79.2465 92.4667C79.3564 92.2101 79.5031 92.0103 79.6864 91.8674C79.8715 91.7226 80.0731 91.6218 80.2912 91.5649C80.5111 91.5063 80.7274 91.477 80.94 91.477C81.0757 91.477 81.2314 91.4935 81.4074 91.5264C81.5852 91.5576 81.7566 91.6227 81.9215 91.7216C82.0883 91.8206 82.2267 91.97 82.3366 92.1698C82.4466 92.3696 82.5016 92.6372 82.5016 92.9726V95.7548H81.8528V95.183H81.8198C81.7758 95.2746 81.7025 95.3727 81.5998 95.4771C81.4972 95.5816 81.3607 95.6705 81.1902 95.7438C81.0197 95.8171 80.8117 95.8538 80.5661 95.8538ZM80.6651 95.271C80.9217 95.271 81.138 95.2205 81.3139 95.1197C81.4917 95.0189 81.6255 94.8888 81.7153 94.7293C81.807 94.5699 81.8528 94.4022 81.8528 94.2262V93.6324C81.8253 93.6654 81.7648 93.6956 81.6713 93.7231C81.5797 93.7488 81.4734 93.7717 81.3524 93.7918C81.2333 93.8102 81.1169 93.8267 81.0033 93.8413C80.8915 93.8542 80.8007 93.8652 80.7311 93.8743C80.5625 93.8963 80.4048 93.9321 80.2582 93.9815C80.1134 94.0292 79.9961 94.1016 79.9063 94.1987C79.8183 94.294 79.7743 94.4242 79.7743 94.5891C79.7743 94.8146 79.8577 94.985 80.0245 95.1005C80.1931 95.2141 80.4067 95.271 80.6651 95.271ZM85.6416 95.7548V90.1243H87.5441C87.9858 90.1243 88.3468 90.2041 88.6273 90.3635C88.9095 90.5211 89.1185 90.7347 89.2541 91.0041C89.3897 91.2735 89.4576 91.5741 89.4576 91.9058C89.4576 92.2376 89.3897 92.5391 89.2541 92.8104C89.1203 93.0816 88.9132 93.2979 88.6328 93.4592C88.3523 93.6186 87.9931 93.6984 87.5551 93.6984H86.1914V93.0935H87.5331C87.8355 93.0935 88.0783 93.0413 88.2616 92.9368C88.4449 92.8324 88.5778 92.6912 88.6603 92.5134C88.7446 92.3338 88.7867 92.1313 88.7867 91.9058C88.7867 91.6804 88.7446 91.4788 88.6603 91.301C88.5778 91.1232 88.444 90.9839 88.2589 90.8831C88.0738 90.7805 87.8282 90.7292 87.5221 90.7292H86.3234V95.7548H85.6416ZM91.5557 95.8538C91.2881 95.8538 91.0453 95.8034 90.8272 95.7026C90.6091 95.5999 90.4359 95.4524 90.3076 95.26C90.1793 95.0657 90.1151 94.8311 90.1151 94.5561C90.1151 94.3142 90.1628 94.1181 90.2581 93.9678C90.3534 93.8157 90.4808 93.6965 90.6402 93.6104C90.7997 93.5242 90.9756 93.4601 91.1681 93.4179C91.3624 93.374 91.5576 93.3391 91.7537 93.3135C92.0103 93.2805 92.2183 93.2557 92.3778 93.2392C92.5391 93.2209 92.6564 93.1907 92.7297 93.1485C92.8048 93.1064 92.8424 93.033 92.8424 92.9286V92.9066C92.8424 92.6353 92.7682 92.4245 92.6197 92.2742C92.4731 92.124 92.2504 92.0488 91.9516 92.0488C91.6419 92.0488 91.399 92.1166 91.2231 92.2523C91.0471 92.3879 90.9234 92.5327 90.8519 92.6866L90.2361 92.4667C90.3461 92.2101 90.4927 92.0103 90.676 91.8674C90.8611 91.7226 91.0627 91.6218 91.2808 91.5649C91.5008 91.5063 91.717 91.477 91.9296 91.477C92.0653 91.477 92.2211 91.4935 92.397 91.5264C92.5748 91.5576 92.7462 91.6227 92.9111 91.7216C93.0779 91.8206 93.2163 91.97 93.3263 92.1698C93.4362 92.3696 93.4912 92.6372 93.4912 92.9726V95.7548H92.8424V95.183H92.8094C92.7654 95.2746 92.6921 95.3727 92.5895 95.4771C92.4868 95.5816 92.3503 95.6705 92.1798 95.7438C92.0094 95.8171 91.8013 95.8538 91.5557 95.8538ZM91.6547 95.271C91.9113 95.271 92.1276 95.2205 92.3035 95.1197C92.4813 95.0189 92.6151 94.8888 92.7049 94.7293C92.7966 94.5699 92.8424 94.4022 92.8424 94.2262V93.6324C92.8149 93.6654 92.7544 93.6956 92.6609 93.7231C92.5693 93.7488 92.463 93.7717 92.342 93.7918C92.2229 93.8102 92.1065 93.8267 91.9929 93.8413C91.8811 93.8542 91.7903 93.8652 91.7207 93.8743C91.5521 93.8963 91.3944 93.9321 91.2478 93.9815C91.103 94.0292 90.9857 94.1016 90.8959 94.1987C90.8079 94.294 90.7639 94.4242 90.7639 94.5891C90.7639 94.8146 90.8473 94.985 91.0141 95.1005C91.1828 95.2141 91.3963 95.271 91.6547 95.271ZM94.5206 95.7548V91.5319H95.1475V92.1698H95.1915C95.2684 91.9608 95.4077 91.7913 95.6093 91.6612C95.811 91.531 96.0382 91.466 96.2912 91.466C96.3388 91.466 96.3984 91.4669 96.4699 91.4687C96.5413 91.4705 96.5954 91.4733 96.6321 91.477V92.1368C96.6101 92.1313 96.5597 92.123 96.4809 92.112C96.4039 92.0992 96.3223 92.0928 96.2362 92.0928C96.0309 92.0928 95.8476 92.1359 95.6863 92.222C95.5269 92.3063 95.4004 92.4236 95.3069 92.5739C95.2153 92.7224 95.1695 92.8919 95.1695 93.0825V95.7548H94.5206ZM97.2463 95.7548V91.5319H97.8952V95.7548H97.2463ZM97.5762 90.8281C97.4498 90.8281 97.3407 90.7851 97.2491 90.6989C97.1593 90.6128 97.1144 90.5092 97.1144 90.3883C97.1144 90.2673 97.1593 90.1637 97.2491 90.0776C97.3407 89.9914 97.4498 89.9484 97.5762 89.9484C97.7027 89.9484 97.8109 89.9914 97.9007 90.0776C97.9923 90.1637 98.0381 90.2673 98.0381 90.3883C98.0381 90.5092 97.9923 90.6128 97.9007 90.6989C97.8109 90.7851 97.7027 90.8281 97.5762 90.8281ZM101.92 92.4777L101.337 92.6427C101.3 92.5455 101.246 92.4511 101.175 92.3595C101.105 92.266 101.01 92.189 100.889 92.1285C100.768 92.0681 100.613 92.0378 100.424 92.0378C100.166 92.0378 99.9505 92.0974 99.7782 92.2165C99.6078 92.3338 99.5225 92.4832 99.5225 92.6646C99.5225 92.8259 99.5812 92.9533 99.6985 93.0468C99.8158 93.1403 99.9991 93.2182 100.248 93.2805L100.875 93.4344C101.253 93.5261 101.534 93.6663 101.719 93.8551C101.904 94.042 101.997 94.283 101.997 94.5781C101.997 94.8201 101.927 95.0363 101.788 95.227C101.65 95.4176 101.458 95.5679 101.211 95.6778C100.963 95.7878 100.675 95.8428 100.347 95.8428C99.9166 95.8428 99.5601 95.7493 99.2778 95.5624C98.9956 95.3754 98.8169 95.1023 98.7417 94.7431L99.3576 94.5891C99.4162 94.8164 99.5271 94.9869 99.6902 95.1005C99.8552 95.2141 100.071 95.271 100.336 95.271C100.639 95.271 100.879 95.2068 101.057 95.0785C101.236 94.9484 101.326 94.7926 101.326 94.6111C101.326 94.4645 101.275 94.3417 101.172 94.2427C101.069 94.1419 100.912 94.0668 100.699 94.0173L99.9954 93.8523C99.6087 93.7607 99.3246 93.6186 99.1431 93.4262C98.9635 93.2319 98.8737 92.9891 98.8737 92.6976C98.8737 92.4594 98.9406 92.2486 99.0744 92.0653C99.21 91.882 99.3942 91.7381 99.627 91.6337C99.8616 91.5292 100.127 91.477 100.424 91.477C100.842 91.477 101.17 91.5686 101.409 91.7519C101.649 91.9352 101.819 92.1771 101.92 92.4777ZM104.929 95.7548V90.1243H106.832C107.272 90.1243 107.633 90.1995 107.915 90.3498C108.197 90.4982 108.406 90.7026 108.542 90.9628C108.677 91.2231 108.745 91.5191 108.745 91.8509C108.745 92.1826 108.677 92.4768 108.542 92.7334C108.406 92.99 108.198 93.1916 107.918 93.3382C107.637 93.483 107.279 93.5554 106.843 93.5554H105.303V92.9396H106.821C107.121 92.9396 107.363 92.8956 107.547 92.8076C107.732 92.7196 107.865 92.595 107.948 92.4337C108.032 92.2706 108.074 92.0763 108.074 91.8509C108.074 91.6254 108.032 91.4284 107.948 91.2598C107.864 91.0911 107.729 90.961 107.544 90.8694C107.359 90.7759 107.114 90.7292 106.81 90.7292H105.611V95.7548H104.929ZM107.58 93.2255L108.965 95.7548H108.173L106.81 93.2255H107.58ZM111.364 95.8428C110.957 95.8428 110.606 95.753 110.311 95.5734C110.018 95.3919 109.791 95.139 109.632 94.8146C109.474 94.4883 109.395 94.1089 109.395 93.6764C109.395 93.2438 109.474 92.8626 109.632 92.5327C109.791 92.2009 110.013 91.9425 110.297 91.7574C110.583 91.5704 110.917 91.477 111.298 91.477C111.518 91.477 111.735 91.5136 111.949 91.5869C112.164 91.6602 112.359 91.7794 112.535 91.9443C112.711 92.1075 112.851 92.3237 112.956 92.5932C113.06 92.8626 113.112 93.1943 113.112 93.5884V93.8633H109.857V93.3025H112.452C112.452 93.0642 112.405 92.8516 112.309 92.6646C112.216 92.4777 112.082 92.3302 111.908 92.222C111.736 92.1139 111.532 92.0598 111.298 92.0598C111.039 92.0598 110.816 92.124 110.627 92.2523C110.44 92.3787 110.296 92.5437 110.195 92.7471C110.094 92.9506 110.044 93.1687 110.044 93.4014V93.7753C110.044 94.0943 110.099 94.3646 110.209 94.5864C110.321 94.8063 110.476 94.974 110.674 95.0895C110.872 95.2031 111.102 95.26 111.364 95.26C111.534 95.26 111.688 95.2361 111.826 95.1885C111.965 95.139 112.085 95.0657 112.186 94.9685C112.287 94.8696 112.364 94.7468 112.419 94.6001L113.046 94.7761C112.98 94.9887 112.869 95.1756 112.714 95.3369C112.558 95.4964 112.365 95.621 112.136 95.7108C111.907 95.7988 111.65 95.8428 111.364 95.8428ZM115.66 95.8428C115.264 95.8428 114.923 95.7493 114.637 95.5624C114.351 95.3754 114.131 95.1179 113.977 94.7898C113.823 94.4617 113.746 94.0869 113.746 93.6654C113.746 93.2365 113.825 92.858 113.983 92.5299C114.142 92.2 114.364 91.9425 114.648 91.7574C114.934 91.5704 115.268 91.477 115.649 91.477C115.946 91.477 116.213 91.5319 116.452 91.6419C116.69 91.7519 116.885 91.9058 117.037 92.1038C117.189 92.3017 117.284 92.5327 117.321 92.7966H116.672C116.622 92.6042 116.512 92.4337 116.342 92.2852C116.173 92.135 115.946 92.0598 115.66 92.0598C115.407 92.0598 115.185 92.1258 114.995 92.2578C114.806 92.3879 114.658 92.5721 114.552 92.8104C114.448 93.0468 114.395 93.3245 114.395 93.6434C114.395 93.9696 114.447 94.2537 114.549 94.4957C114.654 94.7376 114.8 94.9255 114.989 95.0593C115.18 95.1931 115.403 95.26 115.66 95.26C115.829 95.26 115.982 95.2306 116.119 95.172C116.257 95.1133 116.373 95.029 116.468 94.919C116.564 94.8091 116.631 94.6771 116.672 94.5232H117.321C117.284 94.7724 117.193 94.9969 117.048 95.1967C116.905 95.3947 116.716 95.5523 116.479 95.6696C116.245 95.7851 115.972 95.8428 115.66 95.8428ZM118.114 95.7548V91.5319H118.763V95.7548H118.114ZM118.444 90.8281C118.318 90.8281 118.209 90.7851 118.117 90.6989C118.027 90.6128 117.982 90.5092 117.982 90.3883C117.982 90.2673 118.027 90.1637 118.117 90.0776C118.209 89.9914 118.318 89.9484 118.444 89.9484C118.571 89.9484 118.679 89.9914 118.768 90.0776C118.86 90.1637 118.906 90.2673 118.906 90.3883C118.906 90.5092 118.86 90.6128 118.768 90.6989C118.679 90.7851 118.571 90.8281 118.444 90.8281ZM119.797 97.3384V91.5319H120.423V92.2028H120.5C120.548 92.1295 120.614 92.036 120.698 91.9223C120.784 91.8069 120.907 91.7042 121.067 91.6144C121.228 91.5228 121.446 91.477 121.721 91.477C122.077 91.477 122.39 91.5659 122.661 91.7436C122.933 91.9214 123.144 92.1734 123.296 92.4997C123.448 92.8259 123.525 93.2108 123.525 93.6544C123.525 94.1016 123.448 94.4892 123.296 94.8173C123.144 95.1436 122.933 95.3965 122.664 95.5761C122.395 95.7539 122.084 95.8428 121.732 95.8428C121.461 95.8428 121.244 95.7979 121.08 95.7081C120.917 95.6164 120.792 95.5129 120.704 95.3974C120.616 95.2801 120.548 95.183 120.5 95.106H120.445V97.3384H119.797ZM120.434 93.6434C120.434 93.9623 120.481 94.2436 120.575 94.4874C120.668 94.7293 120.805 94.919 120.984 95.0565C121.164 95.1921 121.384 95.26 121.644 95.26C121.915 95.26 122.142 95.1885 122.323 95.0455C122.506 94.9007 122.644 94.7064 122.736 94.4627C122.829 94.2171 122.876 93.944 122.876 93.6434C122.876 93.3465 122.83 93.0789 122.738 92.8406C122.648 92.6005 122.512 92.4108 122.329 92.2715C122.147 92.1304 121.919 92.0598 121.644 92.0598C121.38 92.0598 121.158 92.1267 120.979 92.2605C120.799 92.3925 120.663 92.5776 120.572 92.8159C120.48 93.0523 120.434 93.3281 120.434 93.6434ZM126.13 95.8428C125.723 95.8428 125.372 95.753 125.077 95.5734C124.784 95.3919 124.557 95.139 124.398 94.8146C124.24 94.4883 124.161 94.1089 124.161 93.6764C124.161 93.2438 124.24 92.8626 124.398 92.5327C124.557 92.2009 124.779 91.9425 125.063 91.7574C125.349 91.5704 125.683 91.477 126.064 91.477C126.284 91.477 126.501 91.5136 126.716 91.5869C126.93 91.6602 127.125 91.7794 127.301 91.9443C127.477 92.1075 127.617 92.3237 127.722 92.5932C127.826 92.8626 127.878 93.1943 127.878 93.5884V93.8633H124.623V93.3025H127.219C127.219 93.0642 127.171 92.8516 127.076 92.6646C126.982 92.4777 126.848 92.3302 126.674 92.222C126.502 92.1139 126.299 92.0598 126.064 92.0598C125.806 92.0598 125.582 92.124 125.393 92.2523C125.206 92.3787 125.062 92.5437 124.962 92.7471C124.861 92.9506 124.81 93.1687 124.81 93.4014V93.7753C124.81 94.0943 124.865 94.3646 124.975 94.5864C125.087 94.8063 125.242 94.974 125.44 95.0895C125.638 95.2031 125.868 95.26 126.13 95.26C126.3 95.26 126.454 95.2361 126.592 95.1885C126.731 95.139 126.851 95.0657 126.952 94.9685C127.053 94.8696 127.131 94.7468 127.186 94.6001L127.813 94.7761C127.747 94.9887 127.636 95.1756 127.48 95.3369C127.324 95.4964 127.132 95.621 126.903 95.7108C126.673 95.7988 126.416 95.8428 126.13 95.8428Z" fill="#353FD7" fill-opacity="0.4"/>
<g clip-path="url(#clip1_1643_26305)">
<path d="M22.5184 97.4381C21.9896 97.4381 21.4919 97.2204 21.1498 96.8782C20.4032 96.1006 20.4032 94.8875 21.1498 94.1098L25.2557 89.9727C25.5046 89.7239 25.8156 89.5994 26.1267 89.5994C26.4689 89.5994 26.7799 89.7239 26.9977 89.9727C27.2465 90.2216 27.3709 90.5326 27.3709 90.8437C27.3709 91.1547 27.2465 91.4969 26.9977 91.7146L24.1981 94.5142L23.856 94.172L26.6555 91.3725C26.811 91.2169 26.8733 91.0303 26.8733 90.8126C26.8733 90.5948 26.7799 90.4082 26.6555 90.2527C26.5 90.0971 26.3133 90.0349 26.0956 90.0349C25.8779 90.0349 25.6912 90.1282 25.5357 90.2527L21.4608 94.4209C20.8698 95.0119 20.8698 95.9451 21.4608 96.5361C21.7408 96.816 22.114 96.9716 22.5184 96.9716C22.9228 96.9716 23.2961 96.816 23.576 96.5361L28.1175 91.9946C28.9574 91.1547 28.9574 89.7861 28.1175 88.9462C27.7131 88.5418 27.1532 88.3241 26.5933 88.3241C26.0023 88.3241 25.4735 88.5418 25.0691 88.9462L22.0207 91.9946L21.6786 91.6524L24.7269 88.5729C25.2246 88.0752 25.8779 87.7953 26.5933 87.7953C27.3087 87.7953 27.962 88.0752 28.4597 88.5729C29.4862 89.5994 29.4862 91.2792 28.4597 92.3057L23.8871 96.8471C23.5138 97.2204 23.0161 97.4381 22.5184 97.4381Z" fill="#353FD7" fill-opacity="0.4"/>
</g>
<defs>
<clipPath id="clip0_1643_26305">
<rect width="9.95392" height="9.95392" fill="white" transform="translate(19.9062 53.639)"/>
</clipPath>
<clipPath id="clip1_1643_26305">
<rect width="9.95392" height="9.95392" fill="white" transform="translate(19.9062 87.639)"/>
</clipPath>
</defs>
</svg>
