<svg width="240" height="203" viewBox="0 0 240 203" fill="none" xmlns="http://www.w3.org/2000/svg">
<rect width="240" height="202.396" fill="#F1F1F1"/>
<path d="M9.26253 15.5678H8.54912L10.6125 9.94834H11.315L13.3784 15.5678H12.6649L10.9857 10.8374H10.9418L9.26253 15.5678ZM9.52594 13.3727H12.4015V13.9764H9.52594V13.3727ZM14.0991 15.5678V9.94834H15.9979C16.4387 9.94834 16.7991 10.0279 17.079 10.1871C17.3607 10.3444 17.5692 10.5575 17.7046 10.8264C17.8399 11.0953 17.9076 11.3953 17.9076 11.7264C17.9076 12.0575 17.8399 12.3584 17.7046 12.6291C17.571 12.8998 17.3643 13.1157 17.0845 13.2767C16.8046 13.4358 16.4461 13.5154 16.0089 13.5154H14.6479V12.9117H15.9869C16.2887 12.9117 16.5311 12.8596 16.714 12.7553C16.897 12.6511 17.0296 12.5102 17.1119 12.3328C17.1961 12.1535 17.2381 11.9514 17.2381 11.7264C17.2381 11.5014 17.1961 11.3002 17.1119 11.1227C17.0296 10.9453 16.8961 10.8063 16.7113 10.7056C16.5265 10.6032 16.2814 10.552 15.9759 10.552H14.7796V15.5678H14.0991ZM19.5298 9.94834V15.5678H18.8493V9.94834H19.5298ZM22.7582 15.5678V9.94834H23.4387V12.7361H23.5046L26.0289 9.94834H26.918L24.5582 12.4837L26.918 15.5678H26.0948L24.1412 12.9556L23.4387 13.7459V15.5678H22.7582ZM29.0141 15.6556C28.608 15.6556 28.2577 15.566 27.9632 15.3867C27.6705 15.2056 27.4446 14.9532 27.2855 14.6294C27.1281 14.3038 27.0495 13.9251 27.0495 13.4934C27.0495 13.0617 27.1281 12.6812 27.2855 12.352C27.4446 12.0209 27.6659 11.763 27.9495 11.5782C28.2348 11.3916 28.5678 11.2983 28.9482 11.2983C29.1678 11.2983 29.3845 11.3349 29.5985 11.4081C29.8126 11.4813 30.0074 11.6002 30.183 11.7648C30.3586 11.9276 30.4985 12.1434 30.6028 12.4123C30.7071 12.6812 30.7592 13.0123 30.7592 13.4056V13.68H27.5105V13.1203H30.1007C30.1007 12.8825 30.0531 12.6703 29.958 12.4837C29.8647 12.2971 29.7312 12.1498 29.5574 12.0419C29.3854 11.934 29.1824 11.88 28.9482 11.88C28.6903 11.88 28.4672 11.9441 28.2787 12.0721C28.0922 12.1983 27.9486 12.363 27.848 12.566C27.7473 12.769 27.697 12.9867 27.697 13.219V13.5922C27.697 13.9105 27.7519 14.1803 27.8617 14.4017C27.9733 14.6212 28.1278 14.7885 28.3254 14.9038C28.5229 15.0172 28.7525 15.0739 29.0141 15.0739C29.1842 15.0739 29.3379 15.0501 29.4751 15.0026C29.6141 14.9532 29.7339 14.88 29.8345 14.7831C29.9351 14.6843 30.0129 14.5617 30.0678 14.4154L30.6934 14.591C30.6275 14.8032 30.5168 14.9898 30.3613 15.1507C30.2059 15.3099 30.0138 15.4343 29.7851 15.5239C29.5565 15.6117 29.2995 15.6556 29.0141 15.6556ZM31.8785 17.1483C31.7688 17.1483 31.6709 17.1391 31.5849 17.1208C31.499 17.1044 31.4395 17.0879 31.4066 17.0715L31.5712 16.5007C31.7285 16.541 31.8675 16.5556 31.9883 16.5446C32.109 16.5337 32.216 16.4797 32.3093 16.3827C32.4044 16.2876 32.4913 16.1331 32.57 15.919L32.6907 15.5898L31.1322 11.3532H31.8346L32.998 14.7117H33.0419L34.2053 11.3532H34.9078L33.1188 16.1824C33.0383 16.4001 32.9386 16.5803 32.8197 16.723C32.7008 16.8675 32.5627 16.9745 32.4054 17.044C32.2499 17.1135 32.0743 17.1483 31.8785 17.1483Z" fill="#353FD7"/>
<rect x="8" y="23" width="226" height="24" rx="8" fill="white"/>
<path d="M20.5927 38V33.7854H21.2402V38H20.5927ZM20.9219 33.083C20.7957 33.083 20.6869 33.04 20.5954 32.954C20.5058 32.868 20.461 32.7647 20.461 32.6439C20.461 32.5232 20.5058 32.4199 20.5954 32.3339C20.6869 32.2479 20.7957 32.2049 20.9219 32.2049C21.0482 32.2049 21.1561 32.2479 21.2457 32.3339C21.3372 32.4199 21.3829 32.5232 21.3829 32.6439C21.3829 32.7647 21.3372 32.868 21.2457 32.954C21.1561 33.04 21.0482 33.083 20.9219 33.083ZM23.512 38.0988C23.2449 38.0988 23.0025 38.0485 22.7848 37.9479C22.5672 37.8454 22.3943 37.6982 22.2663 37.5061C22.1382 37.3122 22.0742 37.0781 22.0742 36.8037C22.0742 36.5622 22.1217 36.3665 22.2169 36.2165C22.312 36.0646 22.4391 35.9457 22.5983 35.8598C22.7574 35.7738 22.933 35.7098 23.1251 35.6677C23.319 35.6238 23.5138 35.589 23.7095 35.5634C23.9656 35.5305 24.1733 35.5058 24.3324 35.4893C24.4934 35.4711 24.6104 35.4409 24.6836 35.3988C24.7586 35.3567 24.7961 35.2836 24.7961 35.1793V35.1573C24.7961 34.8866 24.722 34.6762 24.5739 34.5262C24.4275 34.3762 24.2053 34.3012 23.9071 34.3012C23.598 34.3012 23.3556 34.3689 23.18 34.5043C23.0044 34.6397 22.8809 34.7842 22.8095 34.9378L22.1949 34.7183C22.3047 34.4622 22.451 34.2628 22.6339 34.1201C22.8187 33.9756 23.0199 33.875 23.2376 33.8183C23.4571 33.7598 23.673 33.7305 23.8851 33.7305C24.0205 33.7305 24.176 33.747 24.3516 33.7799C24.529 33.811 24.7001 33.8759 24.8647 33.9747C25.0312 34.0735 25.1693 34.2226 25.279 34.422C25.3888 34.6214 25.4437 34.8884 25.4437 35.2232V38H24.7961V37.4293H24.7632C24.7193 37.5207 24.6461 37.6186 24.5437 37.7229C24.4412 37.8271 24.305 37.9159 24.1348 37.989C23.9647 38.0622 23.7571 38.0988 23.512 38.0988ZM23.6108 37.5171C23.8669 37.5171 24.0827 37.4668 24.2583 37.3662C24.4358 37.2656 24.5693 37.1357 24.6589 36.9765C24.7504 36.8174 24.7961 36.65 24.7961 36.4744V35.8817C24.7687 35.9146 24.7083 35.9448 24.615 35.9723C24.5236 35.9979 24.4175 36.0207 24.2967 36.0409C24.1778 36.0592 24.0617 36.0756 23.9483 36.0903C23.8367 36.1031 23.7461 36.114 23.6766 36.1232C23.5083 36.1451 23.351 36.1808 23.2047 36.2302C23.0602 36.2778 22.9431 36.35 22.8534 36.447C22.7656 36.5421 22.7217 36.672 22.7217 36.8366C22.7217 37.0616 22.805 37.2317 22.9714 37.347C23.1397 37.4604 23.3528 37.5171 23.6108 37.5171ZM28.3479 33.7854V34.3342H26.0759V33.7854H28.3479ZM26.7564 38V33.2037C26.7564 32.9622 26.8131 32.761 26.9265 32.6C27.04 32.4391 27.1872 32.3183 27.3683 32.2378C27.5494 32.1574 27.7406 32.1171 27.9418 32.1171C28.1009 32.1171 28.2308 32.1299 28.3314 32.1555C28.432 32.1811 28.507 32.2049 28.5564 32.2269L28.3698 32.7866C28.3369 32.7756 28.2912 32.7619 28.2326 32.7455C28.1759 32.729 28.1009 32.7208 28.0076 32.7208C27.7936 32.7208 27.639 32.7747 27.5439 32.8827C27.4506 32.9906 27.404 33.1488 27.404 33.3573V38H26.7564ZM33.0301 34.1366C32.9698 33.9519 32.8902 33.7863 32.7914 33.64C32.6945 33.4918 32.5783 33.3656 32.4429 33.2613C32.3094 33.157 32.1576 33.0775 31.9875 33.0226C31.8173 32.9677 31.6307 32.9403 31.4277 32.9403C31.0948 32.9403 30.792 33.0263 30.5195 33.1982C30.2469 33.3702 30.0301 33.6235 29.8692 33.9583C29.7082 34.293 29.6277 34.7037 29.6277 35.1903C29.6277 35.6768 29.7091 36.0875 29.8719 36.4223C30.0347 36.757 30.2551 37.0104 30.5332 37.1823C30.8112 37.3543 31.124 37.4402 31.4716 37.4402C31.7935 37.4402 32.0771 37.3717 32.3222 37.2345C32.5692 37.0954 32.7612 36.8997 32.8984 36.6473C33.0374 36.393 33.107 36.0939 33.107 35.75L33.3155 35.7939H31.6253V35.1903H33.7655V35.7939C33.7655 36.2567 33.6667 36.6592 33.4691 37.0012C33.2734 37.3433 33.0027 37.6085 32.657 37.797C32.3131 37.9835 31.9179 38.0768 31.4716 38.0768C30.974 38.0768 30.5369 37.9598 30.16 37.7256C29.785 37.4915 29.4923 37.1585 29.282 36.7268C29.0734 36.2951 28.9692 35.7829 28.9692 35.1903C28.9692 34.7458 29.0286 34.3461 29.1475 33.9912C29.2683 33.6345 29.4384 33.3308 29.6579 33.0802C29.8774 32.8296 30.1372 32.6375 30.4372 32.504C30.7372 32.3705 31.0673 32.3037 31.4277 32.3037C31.724 32.3037 32.0003 32.3485 32.2564 32.4381C32.5143 32.526 32.7438 32.6513 32.9451 32.8141C33.1481 32.975 33.3173 33.168 33.4527 33.393C33.588 33.6162 33.6813 33.8641 33.7326 34.1366H33.0301ZM35.3362 35.4647V38H34.6886V33.7854H35.3142V34.4439H35.3691C35.4679 34.2299 35.6179 34.058 35.8191 33.9281C36.0203 33.7964 36.2801 33.7305 36.5984 33.7305C36.8837 33.7305 37.1334 33.7891 37.3474 33.9061C37.5615 34.0214 37.7279 34.197 37.8468 34.433C37.9657 34.6671 38.0252 34.9634 38.0252 35.322V38H37.3776V35.3659C37.3776 35.0348 37.2916 34.7769 37.1197 34.5921C36.9477 34.4055 36.7118 34.3122 36.4118 34.3122C36.2051 34.3122 36.0203 34.357 35.8575 34.4467C35.6965 34.5363 35.5694 34.6671 35.4761 34.839C35.3828 35.011 35.3362 35.2195 35.3362 35.4647ZM40.2942 38.0988C40.0271 38.0988 39.7847 38.0485 39.567 37.9479C39.3494 37.8454 39.1765 37.6982 39.0484 37.5061C38.9204 37.3122 38.8564 37.0781 38.8564 36.8037C38.8564 36.5622 38.9039 36.3665 38.9991 36.2165C39.0942 36.0646 39.2213 35.9457 39.3805 35.8598C39.5396 35.7738 39.7152 35.7098 39.9073 35.6677C40.1012 35.6238 40.296 35.589 40.4917 35.5634C40.7478 35.5305 40.9554 35.5058 41.1146 35.4893C41.2756 35.4711 41.3926 35.4409 41.4658 35.3988C41.5408 35.3567 41.5783 35.2836 41.5783 35.1793V35.1573C41.5783 34.8866 41.5042 34.6762 41.3561 34.5262C41.2097 34.3762 40.9875 34.3012 40.6893 34.3012C40.3801 34.3012 40.1378 34.3689 39.9622 34.5043C39.7866 34.6397 39.6631 34.7842 39.5917 34.9378L38.9771 34.7183C39.0869 34.4622 39.2332 34.2628 39.4161 34.1201C39.6009 33.9756 39.8021 33.875 40.0198 33.8183C40.2393 33.7598 40.4551 33.7305 40.6673 33.7305C40.8027 33.7305 40.9582 33.747 41.1338 33.7799C41.3112 33.811 41.4823 33.8759 41.6469 33.9747C41.8134 34.0735 41.9515 34.2226 42.0612 34.422C42.171 34.6214 42.2259 34.8884 42.2259 35.2232V38H41.5783V37.4293H41.5454C41.5015 37.5207 41.4283 37.6186 41.3259 37.7229C41.2234 37.8271 41.0872 37.9159 40.917 37.989C40.7469 38.0622 40.5393 38.0988 40.2942 38.0988ZM40.393 37.5171C40.649 37.5171 40.8649 37.4668 41.0405 37.3662C41.2179 37.2656 41.3515 37.1357 41.4411 36.9765C41.5326 36.8174 41.5783 36.65 41.5783 36.4744V35.8817C41.5509 35.9146 41.4905 35.9448 41.3972 35.9723C41.3058 35.9979 41.1997 36.0207 41.0789 36.0409C40.96 36.0592 40.8439 36.0756 40.7304 36.0903C40.6189 36.1031 40.5283 36.114 40.4588 36.1232C40.2905 36.1451 40.1332 36.1808 39.9869 36.2302C39.8423 36.2778 39.7253 36.35 39.6356 36.447C39.5478 36.5421 39.5039 36.672 39.5039 36.8366C39.5039 37.0616 39.5872 37.2317 39.7536 37.347C39.9219 37.4604 40.135 37.5171 40.393 37.5171ZM44.2081 38L42.924 33.7854H43.6045L44.5154 37.0122H44.5593L45.4593 33.7854H46.1508L47.0398 37.0012H47.0837L47.9947 33.7854H48.6752L47.391 38H46.7545L45.8325 34.7622H45.7667L44.8447 38H44.2081ZM52.0328 36.2768V33.7854H52.6804V38H52.0328V37.2866H51.9889C51.8901 37.5006 51.7365 37.6826 51.5279 37.8326C51.3194 37.9808 51.056 38.0549 50.7377 38.0549C50.4743 38.0549 50.2401 37.9973 50.0353 37.882C49.8304 37.7649 49.6694 37.5893 49.5523 37.3552C49.4353 37.1192 49.3767 36.822 49.3767 36.4634V33.7854H50.0243V36.4195C50.0243 36.7268 50.1103 36.972 50.2822 37.1549C50.456 37.3378 50.6773 37.4293 50.9462 37.4293C51.1072 37.4293 51.2709 37.3881 51.4374 37.3058C51.6057 37.2235 51.7465 37.0973 51.8599 36.9271C51.9752 36.757 52.0328 36.5403 52.0328 36.2768ZM55.5887 33.7854V34.3342H53.3168V33.7854H55.5887ZM53.9972 38V33.2037C53.9972 32.9622 54.0539 32.761 54.1674 32.6C54.2808 32.4391 54.428 32.3183 54.6091 32.2378C54.7902 32.1574 54.9814 32.1171 55.1826 32.1171C55.3417 32.1171 55.4716 32.1299 55.5722 32.1555C55.6728 32.1811 55.7478 32.2049 55.7972 32.2269L55.6106 32.7866C55.5777 32.7756 55.532 32.7619 55.4734 32.7455C55.4167 32.729 55.3417 32.7208 55.2484 32.7208C55.0344 32.7208 54.8799 32.7747 54.7847 32.8827C54.6914 32.9906 54.6448 33.1488 54.6448 33.3573V38H53.9972ZM55.7161 36.8476V36.2878L58.1856 32.3805H58.5917V33.2476H58.3173L56.4514 36.2V36.2439H59.777V36.8476H55.7161ZM58.3612 38V36.6774V36.4168V32.3805H59.0087V38H58.3612ZM61.3093 35.4647V38H60.6617V33.7854H61.2873V34.4439H61.3422C61.441 34.2299 61.591 34.058 61.7922 33.9281C61.9934 33.7964 62.2532 33.7305 62.5715 33.7305C62.8569 33.7305 63.1065 33.7891 63.3206 33.9061C63.5346 34.0214 63.7011 34.197 63.82 34.433C63.9389 34.6671 63.9983 34.9634 63.9983 35.322V38H63.3507V35.3659C63.3507 35.0348 63.2648 34.7769 63.0928 34.5921C62.9209 34.4055 62.6849 34.3122 62.3849 34.3122C62.1782 34.3122 61.9934 34.357 61.8306 34.4467C61.6697 34.5363 61.5425 34.6671 61.4492 34.839C61.3559 35.011 61.3093 35.2195 61.3093 35.4647ZM66.9039 33.7854V34.3342H64.632V33.7854H66.9039ZM65.3124 38V33.2037C65.3124 32.9622 65.3691 32.761 65.4826 32.6C65.596 32.4391 65.7432 32.3183 65.9243 32.2378C66.1054 32.1574 66.2966 32.1171 66.4978 32.1171C66.6569 32.1171 66.7868 32.1299 66.8874 32.1555C66.988 32.1811 67.063 32.2049 67.1124 32.2269L66.9258 32.7866C66.8929 32.7756 66.8472 32.7619 66.7886 32.7455C66.7319 32.729 66.6569 32.7208 66.5636 32.7208C66.3496 32.7208 66.195 32.7747 66.0999 32.8827C66.0066 32.9906 65.96 33.1488 65.96 33.3573V38H65.3124ZM68.6118 38L67.3276 33.7854H68.0081L68.9191 37.0122H68.963L69.863 33.7854H70.5544L71.4435 37.0012H71.4874L72.3983 33.7854H73.0788L71.7947 38H71.1581L70.2361 34.7622H70.1703L69.2483 38H68.6118ZM75.0206 38.0988C74.7535 38.0988 74.5111 38.0485 74.2935 37.9479C74.0758 37.8454 73.9029 37.6982 73.7749 37.5061C73.6468 37.3122 73.5828 37.0781 73.5828 36.8037C73.5828 36.5622 73.6304 36.3665 73.7255 36.2165C73.8206 36.0646 73.9477 35.9457 74.1069 35.8598C74.266 35.7738 74.4416 35.7098 74.6337 35.6677C74.8276 35.6238 75.0224 35.589 75.2182 35.5634C75.4743 35.5305 75.6819 35.5058 75.841 35.4893C76.002 35.4711 76.1191 35.4409 76.1922 35.3988C76.2672 35.3567 76.3047 35.2836 76.3047 35.1793V35.1573C76.3047 34.8866 76.2306 34.6762 76.0825 34.5262C75.9361 34.3762 75.7139 34.3012 75.4157 34.3012C75.1066 34.3012 74.8642 34.3689 74.6886 34.5043C74.513 34.6397 74.3895 34.7842 74.3182 34.9378L73.7035 34.7183C73.8133 34.4622 73.9596 34.2628 74.1426 34.1201C74.3273 33.9756 74.5285 33.875 74.7462 33.8183C74.9657 33.7598 75.1816 33.7305 75.3938 33.7305C75.5291 33.7305 75.6846 33.747 75.8602 33.7799C76.0377 33.811 76.2087 33.8759 76.3733 33.9747C76.5398 34.0735 76.6779 34.2226 76.7877 34.422C76.8974 34.6214 76.9523 34.8884 76.9523 35.2232V38H76.3047V37.4293H76.2718C76.2279 37.5207 76.1547 37.6186 76.0523 37.7229C75.9499 37.8271 75.8136 37.9159 75.6435 37.989C75.4733 38.0622 75.2657 38.0988 75.0206 38.0988ZM75.1194 37.5171C75.3755 37.5171 75.5913 37.4668 75.7669 37.3662C75.9444 37.2656 76.0779 37.1357 76.1675 36.9765C76.259 36.8174 76.3047 36.65 76.3047 36.4744V35.8817C76.2773 35.9146 76.2169 35.9448 76.1236 35.9723C76.0322 35.9979 75.9261 36.0207 75.8053 36.0409C75.6864 36.0592 75.5703 36.0756 75.4569 36.0903C75.3453 36.1031 75.2547 36.114 75.1852 36.1232C75.0169 36.1451 74.8596 36.1808 74.7133 36.2302C74.5688 36.2778 74.4517 36.35 74.3621 36.447C74.2743 36.5421 74.2304 36.672 74.2304 36.8366C74.2304 37.0616 74.3136 37.2317 74.4801 37.347C74.6483 37.4604 74.8615 37.5171 75.1194 37.5171ZM77.4055 32.9842V32.3805H81.6201V32.9842H79.8531V38H79.1726V32.9842H77.4055ZM82.7463 32.3805L84.4146 37.111H84.4804L86.1487 32.3805H86.8621L84.7987 38H84.0963L82.0329 32.3805H82.7463ZM88.3429 38.0988C88.0759 38.0988 87.8335 38.0485 87.6158 37.9479C87.3981 37.8454 87.2253 37.6982 87.0972 37.5061C86.9692 37.3122 86.9052 37.0781 86.9052 36.8037C86.9052 36.5622 86.9527 36.3665 87.0478 36.2165C87.143 36.0646 87.2701 35.9457 87.4292 35.8598C87.5884 35.7738 87.764 35.7098 87.9561 35.6677C88.15 35.6238 88.3448 35.589 88.5405 35.5634C88.7966 35.5305 89.0042 35.5058 89.1634 35.4893C89.3243 35.4711 89.4414 35.4409 89.5146 35.3988C89.5896 35.3567 89.6271 35.2836 89.6271 35.1793V35.1573C89.6271 34.8866 89.553 34.6762 89.4048 34.5262C89.2585 34.3762 89.0362 34.3012 88.7381 34.3012C88.4289 34.3012 88.1865 34.3689 88.0109 34.5043C87.8353 34.6397 87.7119 34.7842 87.6405 34.9378L87.0259 34.7183C87.1356 34.4622 87.282 34.2628 87.4649 34.1201C87.6497 33.9756 87.8509 33.875 88.0686 33.8183C88.2881 33.7598 88.5039 33.7305 88.7161 33.7305C88.8515 33.7305 89.007 33.747 89.1826 33.7799C89.36 33.811 89.531 33.8759 89.6957 33.9747C89.8621 34.0735 90.0003 34.2226 90.11 34.422C90.2198 34.6214 90.2746 34.8884 90.2746 35.2232V38H89.6271V37.4293H89.5942C89.5503 37.5207 89.4771 37.6186 89.3746 37.7229C89.2722 37.8271 89.1359 37.9159 88.9658 37.989C88.7957 38.0622 88.5881 38.0988 88.3429 38.0988ZM88.4417 37.5171C88.6978 37.5171 88.9137 37.4668 89.0893 37.3662C89.2667 37.2656 89.4003 37.1357 89.4899 36.9765C89.5814 36.8174 89.6271 36.65 89.6271 36.4744V35.8817C89.5996 35.9146 89.5393 35.9448 89.446 35.9723C89.3545 35.9979 89.2484 36.0207 89.1277 36.0409C89.0088 36.0592 88.8926 36.0756 88.7792 36.0903C88.6676 36.1031 88.5771 36.114 88.5076 36.1232C88.3393 36.1451 88.182 36.1808 88.0356 36.2302C87.8911 36.2778 87.774 36.35 87.6844 36.447C87.5966 36.5421 87.5527 36.672 87.5527 36.8366C87.5527 37.0616 87.6359 37.2317 87.8024 37.347C87.9707 37.4604 88.1838 37.5171 88.4417 37.5171ZM92.2569 38L90.9728 33.7854H91.6532L92.5642 37.0122H92.6081L93.5081 33.7854H94.1996L95.0886 37.0012H95.1325L96.0435 33.7854H96.7239L95.4398 38H94.8032L93.8813 34.7622H93.8154L92.8935 38H92.2569ZM99.3901 32.3805V38H98.7096V33.0939H98.6767L97.3048 34.0049V33.3134L98.7096 32.3805H99.3901ZM101.466 36.4634L101.455 35.6622H101.587L103.431 33.7854H104.232L102.268 35.772H102.213L101.466 36.4634ZM100.863 38V32.3805H101.51V38H100.863ZM103.541 38L101.894 35.9146L102.355 35.4647L104.364 38H103.541ZM106.788 33.7854V34.3342H104.516V33.7854H106.788ZM105.196 38V33.2037C105.196 32.9622 105.253 32.761 105.367 32.6C105.48 32.4391 105.627 32.3183 105.808 32.2378C105.989 32.1574 106.181 32.1171 106.382 32.1171C106.541 32.1171 106.671 32.1299 106.771 32.1555C106.872 32.1811 106.947 32.2049 106.996 32.2269L106.81 32.7866C106.777 32.7756 106.731 32.7619 106.673 32.7455C106.616 32.729 106.541 32.7208 106.448 32.7208C106.234 32.7208 106.079 32.7747 105.984 32.8827C105.891 32.9906 105.844 33.1488 105.844 33.3573V38H105.196ZM109.134 38.0878C108.728 38.0878 108.378 37.9982 108.084 37.8189C107.791 37.6378 107.565 37.3854 107.406 37.0616C107.248 36.736 107.17 36.3573 107.17 35.9256C107.17 35.4939 107.248 35.1134 107.406 34.7842C107.565 34.4531 107.786 34.1951 108.07 34.0104C108.355 33.8238 108.688 33.7305 109.069 33.7305C109.288 33.7305 109.505 33.7671 109.719 33.8403C109.933 33.9134 110.128 34.0323 110.303 34.197C110.479 34.3598 110.619 34.5756 110.723 34.8445C110.827 35.1134 110.88 35.4445 110.88 35.8378V36.1122H107.631V35.5525H110.221C110.221 35.3147 110.173 35.1025 110.078 34.9159C109.985 34.7293 109.852 34.582 109.678 34.4741C109.506 34.3662 109.303 34.3122 109.069 34.3122C108.811 34.3122 108.588 34.3762 108.399 34.5043C108.213 34.6305 108.069 34.7951 107.968 34.9982C107.868 35.2012 107.817 35.4189 107.817 35.6512V36.0244C107.817 36.3427 107.872 36.6125 107.982 36.8338C108.094 37.0534 108.248 37.2207 108.446 37.336C108.643 37.4494 108.873 37.5061 109.134 37.5061C109.305 37.5061 109.458 37.4823 109.595 37.4348C109.734 37.3854 109.854 37.3122 109.955 37.2152C110.055 37.1165 110.133 36.9939 110.188 36.8476L110.814 37.0232C110.748 37.2354 110.637 37.422 110.482 37.5829C110.326 37.7421 110.134 37.8665 109.905 37.9561C109.677 38.0439 109.42 38.0878 109.134 38.0878ZM113.532 38.0768C113.119 38.0768 112.766 37.9643 112.476 37.7393C112.185 37.5125 111.963 37.1842 111.809 36.7543C111.655 36.3226 111.578 35.8012 111.578 35.1903C111.578 34.583 111.655 34.0644 111.809 33.6345C111.964 33.2028 112.188 32.8735 112.478 32.6467C112.771 32.418 113.122 32.3037 113.532 32.3037C113.942 32.3037 114.292 32.418 114.583 32.6467C114.876 32.8735 115.099 33.2028 115.252 33.6345C115.408 34.0644 115.486 34.583 115.486 35.1903C115.486 35.8012 115.409 36.3226 115.255 36.7543C115.102 37.1842 114.879 37.5125 114.588 37.7393C114.298 37.9643 113.945 38.0768 113.532 38.0768ZM113.532 37.4732C113.942 37.4732 114.26 37.2756 114.487 36.8805C114.714 36.4854 114.827 35.922 114.827 35.1903C114.827 34.7037 114.775 34.2894 114.671 33.9473C114.568 33.6052 114.42 33.3445 114.226 33.1653C114.034 32.986 113.803 32.8964 113.532 32.8964C113.126 32.8964 112.809 33.0967 112.58 33.4973C112.351 33.8961 112.237 34.4604 112.237 35.1903C112.237 35.6768 112.288 36.0903 112.391 36.4305C112.493 36.7707 112.64 37.0296 112.832 37.207C113.026 37.3845 113.259 37.4732 113.532 37.4732ZM116.385 33.7854H117.032V38.3073C117.032 38.5671 116.988 38.7921 116.898 38.9823C116.81 39.1726 116.677 39.3198 116.497 39.4241C116.32 39.5283 116.096 39.5805 115.825 39.5805C115.803 39.5805 115.781 39.5805 115.759 39.5805C115.737 39.5805 115.715 39.5805 115.693 39.5805V38.9768C115.715 38.9768 115.735 38.9768 115.754 38.9768C115.772 38.9768 115.792 38.9768 115.814 38.9768C116.012 38.9768 116.156 38.9183 116.248 38.8012C116.339 38.686 116.385 38.5213 116.385 38.3073V33.7854ZM116.703 33.083C116.577 33.083 116.468 33.04 116.377 32.954C116.287 32.868 116.242 32.7647 116.242 32.6439C116.242 32.5232 116.287 32.4199 116.377 32.3339C116.468 32.2479 116.577 32.2049 116.703 32.2049C116.829 32.2049 116.937 32.2479 117.027 32.3339C117.118 32.4199 117.164 32.5232 117.164 32.6439C117.164 32.7647 117.118 32.868 117.027 32.954C116.937 33.04 116.829 33.083 116.703 33.083ZM118.711 35.4647V38H118.064V33.7854H118.689V34.4439H118.744C118.843 34.2299 118.993 34.058 119.194 33.9281C119.396 33.7964 119.655 33.7305 119.974 33.7305C120.259 33.7305 120.509 33.7891 120.723 33.9061C120.937 34.0214 121.103 34.197 121.222 34.433C121.341 34.6671 121.4 34.9634 121.4 35.322V38H120.753V35.3659C120.753 35.0348 120.667 34.7769 120.495 34.5921C120.323 34.4055 120.087 34.3122 119.787 34.3122C119.58 34.3122 119.396 34.357 119.233 34.4467C119.072 34.5363 118.945 34.6671 118.851 34.839C118.758 35.011 118.711 35.2195 118.711 35.4647ZM123.384 38L122.1 33.7854H122.78L123.691 37.0122H123.735L124.635 33.7854H125.327L126.216 37.0012H126.26L127.171 33.7854H127.851L126.567 38H125.93L125.008 34.7622H124.943L124.021 38H123.384ZM128.64 38V32.3805H129.321V34.8829H132.317V32.3805H132.998V38H132.317V35.4866H129.321V38H128.64ZM134.721 36.4634L134.71 35.6622H134.842L136.686 33.7854H137.487L135.523 35.772H135.468L134.721 36.4634ZM134.118 38V32.3805H134.765V38H134.118ZM136.796 38L135.149 35.9146L135.61 35.4647L137.619 38H136.796ZM140.043 33.7854V34.3342H137.771V33.7854H140.043ZM138.451 38V33.2037C138.451 32.9622 138.508 32.761 138.622 32.6C138.735 32.4391 138.882 32.3183 139.063 32.2378C139.244 32.1574 139.436 32.1171 139.637 32.1171C139.796 32.1171 139.926 32.1299 140.026 32.1555C140.127 32.1811 140.202 32.2049 140.251 32.2269L140.065 32.7866C140.032 32.7756 139.986 32.7619 139.928 32.7455C139.871 32.729 139.796 32.7208 139.703 32.7208C139.489 32.7208 139.334 32.7747 139.239 32.8827C139.146 32.9906 139.099 33.1488 139.099 33.3573V38H138.451ZM142.324 39.6683C142.011 39.6683 141.742 39.628 141.517 39.5476C141.292 39.4689 141.104 39.3646 140.954 39.2347C140.806 39.1067 140.688 38.9695 140.6 38.8232L141.116 38.461C141.175 38.5378 141.249 38.6256 141.339 38.7244C141.428 38.825 141.551 38.9119 141.706 38.9851C141.864 39.0601 142.069 39.0976 142.324 39.0976C142.664 39.0976 142.945 39.0152 143.166 38.8506C143.387 38.686 143.498 38.428 143.498 38.0768V37.2207H143.443C143.396 37.2976 143.328 37.3927 143.24 37.5061C143.154 37.6177 143.03 37.7174 142.867 37.8052C142.706 37.8912 142.488 37.9341 142.214 37.9341C141.874 37.9341 141.568 37.8537 141.297 37.6927C141.028 37.5317 140.815 37.2976 140.658 36.9903C140.503 36.6829 140.425 36.3098 140.425 35.8707C140.425 35.439 140.501 35.0631 140.653 34.743C140.804 34.4211 141.016 34.1723 141.286 33.9967C141.557 33.8192 141.87 33.7305 142.225 33.7305C142.499 33.7305 142.717 33.7762 142.878 33.8677C143.041 33.9573 143.165 34.0598 143.251 34.175C143.339 34.2884 143.407 34.3817 143.454 34.4549H143.52V33.7854H144.146V38.1207C144.146 38.4829 144.063 38.7774 143.899 39.0043C143.736 39.2329 143.516 39.4003 143.24 39.5064C142.966 39.6143 142.66 39.6683 142.324 39.6683ZM142.302 37.3524C142.561 37.3524 142.781 37.293 142.96 37.1741C143.139 37.0552 143.276 36.8842 143.369 36.661C143.462 36.4378 143.509 36.1707 143.509 35.8598C143.509 35.5561 143.463 35.2881 143.372 35.0558C143.28 34.8235 143.145 34.6415 142.966 34.5098C142.786 34.3781 142.565 34.3122 142.302 34.3122C142.027 34.3122 141.799 34.3817 141.616 34.5208C141.435 34.6598 141.298 34.8464 141.207 35.0805C141.117 35.3147 141.072 35.5744 141.072 35.8598C141.072 36.1525 141.118 36.4113 141.21 36.6363C141.303 36.8595 141.44 37.0351 141.621 37.1631C141.804 37.2893 142.031 37.3524 142.302 37.3524ZM146.417 38.0988C146.15 38.0988 145.907 38.0485 145.689 37.9479C145.472 37.8454 145.299 37.6982 145.171 37.5061C145.043 37.3122 144.979 37.0781 144.979 36.8037C144.979 36.5622 145.026 36.3665 145.121 36.2165C145.217 36.0646 145.344 35.9457 145.503 35.8598C145.662 35.7738 145.838 35.7098 146.03 35.6677C146.224 35.6238 146.418 35.589 146.614 35.5634C146.87 35.5305 147.078 35.5058 147.237 35.4893C147.398 35.4711 147.515 35.4409 147.588 35.3988C147.663 35.3567 147.701 35.2836 147.701 35.1793V35.1573C147.701 34.8866 147.627 34.6762 147.478 34.5262C147.332 34.3762 147.11 34.3012 146.812 34.3012C146.503 34.3012 146.26 34.3689 146.085 34.5043C145.909 34.6397 145.786 34.7842 145.714 34.9378L145.1 34.7183C145.209 34.4622 145.356 34.2628 145.539 34.1201C145.723 33.9756 145.925 33.875 146.142 33.8183C146.362 33.7598 146.578 33.7305 146.79 33.7305C146.925 33.7305 147.081 33.747 147.256 33.7799C147.434 33.811 147.605 33.8759 147.769 33.9747C147.936 34.0735 148.074 34.2226 148.184 34.422C148.293 34.6214 148.348 34.8884 148.348 35.2232V38H147.701V37.4293H147.668C147.624 37.5207 147.551 37.6186 147.448 37.7229C147.346 37.8271 147.21 37.9159 147.039 37.989C146.869 38.0622 146.662 38.0988 146.417 38.0988ZM146.515 37.5171C146.771 37.5171 146.987 37.4668 147.163 37.3662C147.34 37.2656 147.474 37.1357 147.564 36.9765C147.655 36.8174 147.701 36.65 147.701 36.4744V35.8817C147.673 35.9146 147.613 35.9448 147.52 35.9723C147.428 35.9979 147.322 36.0207 147.201 36.0409C147.082 36.0592 146.966 36.0756 146.853 36.0903C146.741 36.1031 146.651 36.114 146.581 36.1232C146.413 36.1451 146.256 36.1808 146.109 36.2302C145.965 36.2778 145.848 36.35 145.758 36.447C145.67 36.5421 145.626 36.672 145.626 36.8366C145.626 37.0616 145.71 37.2317 145.876 37.347C146.044 37.4604 146.257 37.5171 146.515 37.5171ZM150.331 38L149.046 33.7854H149.727L150.638 37.0122H150.682L151.582 33.7854H152.273L153.162 37.0012H153.206L154.117 33.7854H154.798L153.513 38H152.877L151.955 34.7622H151.889L150.967 38H150.331ZM157.387 38.0768C157.025 38.0768 156.702 38.0146 156.418 37.8902C156.137 37.7659 155.913 37.593 155.746 37.3717C155.581 37.1485 155.492 36.8896 155.477 36.5951H156.169C156.183 36.7762 156.245 36.9326 156.355 37.0643C156.465 37.1942 156.609 37.2948 156.786 37.3662C156.963 37.4375 157.16 37.4732 157.376 37.4732C157.617 37.4732 157.831 37.4311 158.018 37.347C158.205 37.2628 158.351 37.1457 158.457 36.9957C158.563 36.8457 158.616 36.672 158.616 36.4744C158.616 36.2677 158.565 36.0857 158.463 35.9284C158.36 35.7692 158.21 35.6448 158.013 35.5552C157.815 35.4656 157.574 35.4207 157.288 35.4207H156.838V34.8171H157.288C157.511 34.8171 157.707 34.7769 157.875 34.6964C158.045 34.6159 158.178 34.5025 158.273 34.3561C158.37 34.2098 158.419 34.0378 158.419 33.8403C158.419 33.65 158.377 33.4845 158.292 33.3436C158.208 33.2028 158.089 33.093 157.936 33.0144C157.784 32.9357 157.605 32.8964 157.398 32.8964C157.204 32.8964 157.021 32.932 156.849 33.0034C156.679 33.0729 156.54 33.1744 156.432 33.308C156.324 33.4397 156.266 33.5988 156.256 33.7854H155.598C155.609 33.4909 155.698 33.233 155.864 33.0116C156.031 32.7885 156.248 32.6147 156.517 32.4903C156.788 32.3659 157.085 32.3037 157.409 32.3037C157.756 32.3037 158.055 32.3741 158.303 32.515C158.552 32.654 158.743 32.8378 158.877 33.0665C159.01 33.2952 159.077 33.5421 159.077 33.8073C159.077 34.1238 158.994 34.3936 158.827 34.6168C158.663 34.84 158.439 34.9945 158.155 35.0805V35.1244C158.51 35.1829 158.787 35.3339 158.987 35.5772C159.186 35.8186 159.286 36.1177 159.286 36.4744C159.286 36.7799 159.202 37.0543 159.036 37.2976C158.871 37.539 158.646 37.7293 158.361 37.8683C158.076 38.0073 157.751 38.0768 157.387 38.0768ZM160.253 38V37.5061L162.108 35.4756C162.326 35.2378 162.505 35.0311 162.646 34.8555C162.787 34.6781 162.891 34.5116 162.959 34.3561C163.028 34.1988 163.063 34.0342 163.063 33.8622C163.063 33.6647 163.016 33.4936 162.92 33.3491C162.827 33.2046 162.699 33.093 162.536 33.0144C162.374 32.9357 162.191 32.8964 161.988 32.8964C161.772 32.8964 161.583 32.9412 161.422 33.0308C161.263 33.1186 161.14 33.2421 161.052 33.4013C160.966 33.5604 160.923 33.747 160.923 33.961H160.275C160.275 33.6317 160.351 33.3427 160.503 33.0939C160.655 32.8452 160.862 32.6513 161.123 32.5122C161.387 32.3732 161.682 32.3037 162.01 32.3037C162.339 32.3037 162.631 32.3732 162.885 32.5122C163.139 32.6513 163.338 32.8388 163.483 33.0747C163.628 33.3107 163.7 33.5732 163.7 33.8622C163.7 34.0689 163.662 34.2711 163.587 34.4686C163.514 34.6644 163.386 34.8829 163.203 35.1244C163.022 35.364 162.77 35.6567 162.449 36.0025L161.186 37.3524V37.3963H163.799V38H160.253ZM164.876 38V32.3805H166.775C167.216 32.3805 167.576 32.4601 167.856 32.6192C168.138 32.7766 168.346 32.9897 168.481 33.2586C168.617 33.5275 168.685 33.8275 168.685 34.1586C168.685 34.4897 168.617 34.7906 168.481 35.0613C168.348 35.332 168.141 35.5479 167.861 35.7089C167.581 35.868 167.223 35.9476 166.786 35.9476H165.425V35.3439H166.764C167.066 35.3439 167.308 35.2918 167.491 35.1875C167.674 35.0833 167.806 34.9424 167.889 34.765C167.973 34.5857 168.015 34.3836 168.015 34.1586C168.015 33.9336 167.973 33.7323 167.889 33.5549C167.806 33.3775 167.673 33.2384 167.488 33.1378C167.303 33.0354 167.058 32.9842 166.753 32.9842H165.556V38H164.876ZM169.538 38V33.7854H170.164V34.4439H170.219C170.307 34.2189 170.448 34.0442 170.644 33.9198C170.84 33.7936 171.075 33.7305 171.349 33.7305C171.627 33.7305 171.859 33.7936 172.044 33.9198C172.23 34.0442 172.376 34.2189 172.48 34.4439H172.524C172.632 34.2262 172.794 34.0534 173.009 33.9253C173.225 33.7955 173.484 33.7305 173.786 33.7305C174.163 33.7305 174.471 33.8485 174.711 34.0845C174.95 34.3186 175.07 34.6836 175.07 35.1793V38H174.422V35.1793C174.422 34.8683 174.337 34.6461 174.167 34.5125C173.997 34.379 173.797 34.3122 173.566 34.3122C173.27 34.3122 173.04 34.4019 172.878 34.5811C172.715 34.7586 172.633 34.9836 172.633 35.2561V38H171.975V35.1134C171.975 34.8738 171.897 34.6808 171.742 34.5345C171.586 34.3863 171.386 34.3122 171.141 34.3122C170.972 34.3122 170.815 34.357 170.669 34.4467C170.524 34.5363 170.407 34.6607 170.318 34.8198C170.23 34.9772 170.186 35.1592 170.186 35.3659V38H169.538ZM177.691 38.0878C177.34 38.0878 177.03 37.9991 176.761 37.8216C176.492 37.6424 176.281 37.3899 176.13 37.0643C175.978 36.7369 175.902 36.35 175.902 35.9037C175.902 35.461 175.978 35.0768 176.13 34.7512C176.281 34.4256 176.493 34.1741 176.763 33.9967C177.034 33.8192 177.347 33.7305 177.702 33.7305C177.976 33.7305 178.193 33.7762 178.352 33.8677C178.513 33.9573 178.636 34.0598 178.72 34.175C178.806 34.2884 178.873 34.3817 178.92 34.4549H178.975V32.3805H179.623V38H178.997V37.3524H178.92C178.873 37.4293 178.805 37.5262 178.717 37.6433C178.629 37.7585 178.504 37.8619 178.341 37.9534C178.178 38.043 177.962 38.0878 177.691 38.0878ZM177.779 37.5061C178.038 37.5061 178.258 37.4384 178.437 37.3031C178.617 37.1659 178.753 36.9765 178.846 36.7351C178.939 36.4918 178.986 36.211 178.986 35.8927C178.986 35.5781 178.94 35.3028 178.849 35.0668C178.757 34.829 178.622 34.6442 178.443 34.5125C178.263 34.379 178.042 34.3122 177.779 34.3122C177.504 34.3122 177.276 34.3826 177.093 34.5235C176.912 34.6625 176.775 34.8519 176.684 35.0915C176.594 35.3293 176.549 35.5964 176.549 35.8927C176.549 36.1927 176.595 36.4653 176.687 36.7104C176.78 36.9537 176.917 37.1476 177.098 37.2921C177.281 37.4348 177.508 37.5061 177.779 37.5061Z" fill="#4D4D4D"/>
<rect x="8" y="50" width="226" height="24" rx="8" fill="white"/>
<path d="M24.039 60.7854L22.4805 65H21.8219L20.2634 60.7854H20.9658L22.1293 64.1439H22.1732L23.3366 60.7854H24.039ZM24.7392 65V60.7854H25.3648V61.422H25.4087C25.4855 61.2134 25.6245 61.0442 25.8258 60.9144C26.027 60.7845 26.2538 60.7195 26.5062 60.7195C26.5538 60.7195 26.6133 60.7205 26.6846 60.7223C26.7559 60.7241 26.8099 60.7269 26.8465 60.7305V61.389C26.8245 61.3836 26.7742 61.3753 26.6956 61.3644C26.6187 61.3515 26.5373 61.3451 26.4514 61.3451C26.2465 61.3451 26.0636 61.3881 25.9026 61.4741C25.7434 61.5583 25.6172 61.6753 25.5239 61.8253C25.4325 61.9735 25.3867 62.1427 25.3867 62.3329V65H24.7392ZM27.4486 65V64.5061L29.3034 62.4756C29.5211 62.2378 29.7004 62.0311 29.8412 61.8555C29.9821 61.6781 30.0864 61.5116 30.154 61.3561C30.2236 61.1988 30.2583 61.0342 30.2583 60.8622C30.2583 60.6647 30.2107 60.4936 30.1156 60.3491C30.0223 60.2046 29.8943 60.093 29.7315 60.0144C29.5687 59.9357 29.3858 59.8964 29.1827 59.8964C28.9669 59.8964 28.7784 59.9412 28.6175 60.0308C28.4583 60.1186 28.3348 60.2421 28.247 60.4013C28.1611 60.5604 28.1181 60.747 28.1181 60.961H27.4705C27.4705 60.6317 27.5464 60.3427 27.6983 60.0939C27.8501 59.8452 28.0568 59.6513 28.3184 59.5122C28.5818 59.3732 28.8772 59.3037 29.2047 59.3037C29.5339 59.3037 29.8257 59.3732 30.08 59.5122C30.3342 59.6513 30.5336 59.8388 30.6781 60.0747C30.8226 60.3107 30.8949 60.5732 30.8949 60.8622C30.8949 61.0689 30.8574 61.2711 30.7824 61.4686C30.7092 61.6644 30.5812 61.8829 30.3982 62.1244C30.2172 62.364 29.9656 62.6567 29.6437 63.0025L28.3815 64.3524V64.3963H30.9937V65H27.4486ZM32.6309 62.4647V65H31.9833V60.7854H32.6089V61.4439H32.6638C32.7626 61.2299 32.9126 61.058 33.1138 60.9281C33.315 60.7964 33.5748 60.7305 33.8931 60.7305C34.1784 60.7305 34.4281 60.7891 34.6422 60.9061C34.8562 61.0214 35.0226 61.197 35.1415 61.433C35.2604 61.6671 35.3199 61.9634 35.3199 62.322V65H34.6723V62.3659C34.6723 62.0348 34.5864 61.7769 34.4144 61.5921C34.2425 61.4055 34.0065 61.3122 33.7065 61.3122C33.4998 61.3122 33.315 61.357 33.1522 61.4467C32.9913 61.5363 32.8641 61.6671 32.7708 61.839C32.6775 62.011 32.6309 62.2195 32.6309 62.4647ZM36.3487 60.7854H36.9962V65.3073C36.9962 65.5671 36.9514 65.7921 36.8618 65.9823C36.774 66.1726 36.6404 66.3198 36.4612 66.4241C36.2837 66.5283 36.0596 66.5805 35.7889 66.5805C35.767 66.5805 35.745 66.5805 35.7231 66.5805C35.7011 66.5805 35.6792 66.5805 35.6572 66.5805V65.9768C35.6792 65.9768 35.6993 65.9768 35.7176 65.9768C35.7359 65.9768 35.756 65.9768 35.7779 65.9768C35.9755 65.9768 36.12 65.9183 36.2115 65.8012C36.3029 65.686 36.3487 65.5213 36.3487 65.3073V60.7854ZM36.667 60.083C36.5407 60.083 36.4319 60.04 36.3404 59.954C36.2508 59.868 36.206 59.7647 36.206 59.6439C36.206 59.5232 36.2508 59.4199 36.3404 59.3339C36.4319 59.2479 36.5407 59.2049 36.667 59.2049C36.7932 59.2049 36.9011 59.2479 36.9907 59.3339C37.0822 59.4199 37.1279 59.5232 37.1279 59.6439C37.1279 59.7647 37.0822 59.868 36.9907 59.954C36.9011 60.04 36.7932 60.083 36.667 60.083ZM39.268 65.0988C39.0009 65.0988 38.7585 65.0485 38.5408 64.9479C38.3232 64.8454 38.1503 64.6982 38.0222 64.5061C37.8942 64.3122 37.8302 64.0781 37.8302 63.8037C37.8302 63.5622 37.8777 63.3665 37.9728 63.2165C38.068 63.0646 38.1951 62.9457 38.3542 62.8598C38.5134 62.7738 38.689 62.7098 38.8811 62.6677C39.075 62.6238 39.2698 62.589 39.4655 62.5634C39.7216 62.5305 39.9292 62.5058 40.0884 62.4893C40.2494 62.4711 40.3664 62.4409 40.4396 62.3988C40.5146 62.3567 40.5521 62.2836 40.5521 62.1793V62.1573C40.5521 61.8866 40.478 61.6762 40.3298 61.5262C40.1835 61.3762 39.9612 61.3012 39.6631 61.3012C39.3539 61.3012 39.1116 61.3689 38.936 61.5043C38.7603 61.6397 38.6369 61.7842 38.5655 61.9378L37.9509 61.7183C38.0607 61.4622 38.207 61.2628 38.3899 61.1201C38.5747 60.9756 38.7759 60.875 38.9936 60.8183C39.2131 60.7598 39.4289 60.7305 39.6411 60.7305C39.7765 60.7305 39.932 60.747 40.1076 60.7799C40.285 60.811 40.4561 60.8759 40.6207 60.9747C40.7872 61.0735 40.9253 61.2226 41.035 61.422C41.1448 61.6214 41.1997 61.8884 41.1997 62.2232V65H40.5521V64.4293H40.5192C40.4753 64.5207 40.4021 64.6186 40.2997 64.7229C40.1972 64.8271 40.0609 64.9159 39.8908 64.989C39.7207 65.0622 39.5131 65.0988 39.268 65.0988ZM39.3667 64.5171C39.6228 64.5171 39.8387 64.4668 40.0143 64.3662C40.1917 64.2656 40.3253 64.1357 40.4149 63.9765C40.5064 63.8174 40.5521 63.65 40.5521 63.4744V62.8817C40.5247 62.9146 40.4643 62.9448 40.371 62.9723C40.2795 62.9979 40.1734 63.0207 40.0527 63.0409C39.9338 63.0592 39.8177 63.0756 39.7042 63.0903C39.5927 63.1031 39.5021 63.114 39.4326 63.1232C39.2643 63.1451 39.107 63.1808 38.9606 63.2302C38.8161 63.2778 38.6991 63.35 38.6094 63.447C38.5216 63.5421 38.4777 63.672 38.4777 63.8366C38.4777 64.0616 38.561 64.2317 38.7274 64.347C38.8957 64.4604 39.1088 64.5171 39.3667 64.5171ZM42.3149 65V59.3805H42.9624V61.4549H43.0173C43.0648 61.3817 43.1307 61.2884 43.2148 61.175C43.3008 61.0598 43.4234 60.9573 43.5825 60.8677C43.7435 60.7762 43.9612 60.7305 44.2356 60.7305C44.5904 60.7305 44.9032 60.8192 45.174 60.9967C45.4447 61.1741 45.656 61.4256 45.8078 61.7512C45.9596 62.0768 46.0356 62.461 46.0356 62.9037C46.0356 63.35 45.9596 63.7369 45.8078 64.0643C45.656 64.3899 45.4456 64.6424 45.1767 64.8216C44.9078 64.9991 44.5978 65.0878 44.2465 65.0878C43.9758 65.0878 43.759 65.043 43.5962 64.9534C43.4334 64.8619 43.3081 64.7585 43.2203 64.6433C43.1325 64.5262 43.0648 64.4293 43.0173 64.3524H42.9405V65H42.3149ZM42.9514 62.8927C42.9514 63.211 42.9981 63.4918 43.0914 63.7351C43.1847 63.9765 43.3209 64.1659 43.5002 64.3031C43.6795 64.4384 43.899 64.5061 44.1587 64.5061C44.4295 64.5061 44.6554 64.4348 44.8365 64.2921C45.0194 64.1476 45.1566 63.9537 45.2481 63.7104C45.3414 63.4653 45.388 63.1927 45.388 62.8927C45.388 62.5964 45.3423 62.3293 45.2508 62.0915C45.1612 61.8519 45.0249 61.6625 44.842 61.5235C44.6609 61.3826 44.4331 61.3122 44.1587 61.3122C43.8953 61.3122 43.674 61.379 43.4947 61.5125C43.3155 61.6442 43.1801 61.829 43.0886 62.0668C42.9972 62.3028 42.9514 62.5781 42.9514 62.8927ZM50.167 60.7854L48.6084 65H47.9499L46.3914 60.7854H47.0938L48.2572 64.1439H48.3011L49.4645 60.7854H50.167ZM51.5147 62.4647V65H50.8672V60.7854H51.4928V61.4439H51.5476C51.6464 61.2299 51.7964 61.058 51.9976 60.9281C52.1989 60.7964 52.4586 60.7305 52.7769 60.7305C53.0623 60.7305 53.312 60.7891 53.526 60.9061C53.74 61.0214 53.9065 61.197 54.0254 61.433C54.1443 61.6671 54.2037 61.9634 54.2037 62.322V65H53.5562V62.3659C53.5562 62.0348 53.4702 61.7769 53.2982 61.5921C53.1263 61.4055 52.8903 61.3122 52.5903 61.3122C52.3836 61.3122 52.1989 61.357 52.036 61.4467C51.8751 61.5363 51.7479 61.6671 51.6546 61.839C51.5614 62.011 51.5147 62.2195 51.5147 62.4647ZM55.3971 65L57.9105 60.0281V59.9842H55.013V59.3805H58.6129V60.0171L56.1105 65H55.3971ZM61.1618 65.0768C60.8399 65.0768 60.5499 65.0128 60.292 64.8848C60.0341 64.7567 59.8274 64.5811 59.6719 64.3579C59.5164 64.1348 59.4313 63.8805 59.4167 63.5951H60.0752C60.1008 63.8494 60.2161 64.0598 60.421 64.2262C60.6277 64.3909 60.8746 64.4732 61.1618 64.4732C61.3923 64.4732 61.5972 64.4192 61.7764 64.3113C61.9575 64.2034 62.0993 64.0552 62.2017 63.8668C62.306 63.6765 62.3581 63.4616 62.3581 63.222C62.3581 62.9768 62.3042 62.7582 62.1963 62.5662C62.0902 62.3723 61.9438 62.2195 61.7572 62.1079C61.5707 61.9964 61.3575 61.9397 61.1179 61.9378C60.946 61.936 60.7694 61.9625 60.5883 62.0174C60.4072 62.0704 60.2582 62.139 60.1411 62.2232L59.5045 62.1464L59.8448 59.3805H62.7642V59.9842H60.4155L60.2179 61.6415H60.2508C60.3661 61.55 60.5106 61.4741 60.6844 61.4137C60.8582 61.3534 61.0393 61.3232 61.2277 61.3232C61.5716 61.3232 61.878 61.4055 62.1469 61.5701C62.4176 61.7329 62.6298 61.9561 62.7835 62.2397C62.9389 62.5232 63.0167 62.847 63.0167 63.211C63.0167 63.5695 62.9362 63.8896 62.7752 64.1713C62.6161 64.4512 62.3966 64.6726 62.1167 64.8354C61.8368 64.9963 61.5185 65.0768 61.1618 65.0768ZM64.0509 65V59.3805H64.7314V61.8829H67.7277V59.3805H68.4082V65H67.7277V62.4866H64.7314V65H64.0509ZM69.616 65V59.3805H70.2636V61.4549H70.3185C70.366 61.3817 70.4319 61.2884 70.516 61.175C70.602 61.0598 70.7246 60.9573 70.8837 60.8677C71.0447 60.7762 71.2624 60.7305 71.5367 60.7305C71.8916 60.7305 72.2044 60.8192 72.4752 60.9967C72.7459 61.1741 72.9572 61.4256 73.109 61.7512C73.2608 62.0768 73.3367 62.461 73.3367 62.9037C73.3367 63.35 73.2608 63.7369 73.109 64.0643C72.9572 64.3899 72.7468 64.6424 72.4779 64.8216C72.209 64.9991 71.8989 65.0878 71.5477 65.0878C71.277 65.0878 71.0602 65.043 70.8974 64.9534C70.7346 64.8619 70.6093 64.7585 70.5215 64.6433C70.4337 64.5262 70.366 64.4293 70.3185 64.3524H70.2416V65H69.616ZM70.2526 62.8927C70.2526 63.211 70.2993 63.4918 70.3925 63.7351C70.4858 63.9765 70.6221 64.1659 70.8014 64.3031C70.9807 64.4384 71.2002 64.5061 71.4599 64.5061C71.7306 64.5061 71.9566 64.4348 72.1377 64.2921C72.3206 64.1476 72.4578 63.9537 72.5492 63.7104C72.6425 63.4653 72.6892 63.1927 72.6892 62.8927C72.6892 62.5964 72.6434 62.3293 72.552 62.0915C72.4623 61.8519 72.3261 61.6625 72.1431 61.5235C71.962 61.3826 71.7343 61.3122 71.4599 61.3122C71.1965 61.3122 70.9752 61.379 70.7959 61.5125C70.6166 61.6442 70.4813 61.829 70.3898 62.0668C70.2983 62.3028 70.2526 62.5781 70.2526 62.8927ZM75.413 65.0988C75.1459 65.0988 74.9035 65.0485 74.6858 64.9479C74.4682 64.8454 74.2953 64.6982 74.1673 64.5061C74.0392 64.3122 73.9752 64.0781 73.9752 63.8037C73.9752 63.5622 74.0227 63.3665 74.1179 63.2165C74.213 63.0646 74.3401 62.9457 74.4993 62.8598C74.6584 62.7738 74.834 62.7098 75.0261 62.6677C75.22 62.6238 75.4148 62.589 75.6105 62.5634C75.8666 62.5305 76.0742 62.5058 76.2334 62.4893C76.3944 62.4711 76.5114 62.4409 76.5846 62.3988C76.6596 62.3567 76.6971 62.2836 76.6971 62.1793V62.1573C76.6971 61.8866 76.623 61.6762 76.4749 61.5262C76.3285 61.3762 76.1063 61.3012 75.8081 61.3012C75.4989 61.3012 75.2566 61.3689 75.081 61.5043C74.9054 61.6397 74.7819 61.7842 74.7105 61.9378L74.0959 61.7183C74.2057 61.4622 74.352 61.2628 74.5349 61.1201C74.7197 60.9756 74.9209 60.875 75.1386 60.8183C75.3581 60.7598 75.5739 60.7305 75.7861 60.7305C75.9215 60.7305 76.077 60.747 76.2526 60.7799C76.43 60.811 76.6011 60.8759 76.7657 60.9747C76.9322 61.0735 77.0703 61.2226 77.18 61.422C77.2898 61.6214 77.3447 61.8884 77.3447 62.2232V65H76.6971V64.4293H76.6642C76.6203 64.5207 76.5471 64.6186 76.4447 64.7229C76.3422 64.8271 76.206 64.9159 76.0358 64.989C75.8657 65.0622 75.6581 65.0988 75.413 65.0988ZM75.5118 64.5171C75.7678 64.5171 75.9837 64.4668 76.1593 64.3662C76.3367 64.2656 76.4703 64.1357 76.5599 63.9765C76.6514 63.8174 76.6971 63.65 76.6971 63.4744V62.8817C76.6697 62.9146 76.6093 62.9448 76.516 62.9723C76.4246 62.9979 76.3185 63.0207 76.1977 63.0409C76.0788 63.0592 75.9627 63.0756 75.8493 63.0903C75.7377 63.1031 75.6471 63.114 75.5776 63.1232C75.4093 63.1451 75.252 63.1808 75.1057 63.2302C74.9611 63.2778 74.8441 63.35 74.7544 63.447C74.6666 63.5421 74.6227 63.672 74.6227 63.8366C74.6227 64.0616 74.706 64.2317 74.8724 64.347C75.0407 64.4604 75.2538 64.5171 75.5118 64.5171ZM78.3721 60.7854H79.0196V65.3073C79.0196 65.5671 78.9748 65.7921 78.8852 65.9823C78.7974 66.1726 78.6638 66.3198 78.4846 66.4241C78.3071 66.5283 78.083 66.5805 77.8123 66.5805C77.7904 66.5805 77.7684 66.5805 77.7465 66.5805C77.7245 66.5805 77.7026 66.5805 77.6806 66.5805V65.9768C77.7026 65.9768 77.7227 65.9768 77.741 65.9768C77.7593 65.9768 77.7794 65.9768 77.8013 65.9768C77.9989 65.9768 78.1434 65.9183 78.2349 65.8012C78.3263 65.686 78.3721 65.5213 78.3721 65.3073V60.7854ZM78.6904 60.083C78.5641 60.083 78.4553 60.04 78.3638 59.954C78.2742 59.868 78.2294 59.7647 78.2294 59.6439C78.2294 59.5232 78.2742 59.4199 78.3638 59.3339C78.4553 59.2479 78.5641 59.2049 78.6904 59.2049C78.8166 59.2049 78.9245 59.2479 79.0141 59.3339C79.1056 59.4199 79.1513 59.5232 79.1513 59.6439C79.1513 59.7647 79.1056 59.868 79.0141 59.954C78.9245 60.04 78.8166 60.083 78.6904 60.083ZM80.1389 65V59.3805H80.8194V64.3963H83.4316V65H80.1389ZM85.4831 65.0988C85.2161 65.0988 84.9737 65.0485 84.756 64.9479C84.5383 64.8454 84.3655 64.6982 84.2374 64.5061C84.1094 64.3122 84.0453 64.0781 84.0453 63.8037C84.0453 63.5622 84.0929 63.3665 84.188 63.2165C84.2831 63.0646 84.4103 62.9457 84.5694 62.8598C84.7286 62.7738 84.9042 62.7098 85.0962 62.6677C85.2901 62.6238 85.485 62.589 85.6807 62.5634C85.9368 62.5305 86.1444 62.5058 86.3036 62.4893C86.4645 62.4711 86.5816 62.4409 86.6548 62.3988C86.7298 62.3567 86.7673 62.2836 86.7673 62.1793V62.1573C86.7673 61.8866 86.6932 61.6762 86.545 61.5262C86.3987 61.3762 86.1764 61.3012 85.8783 61.3012C85.5691 61.3012 85.3267 61.3689 85.1511 61.5043C84.9755 61.6397 84.852 61.7842 84.7807 61.9378L84.1661 61.7183C84.2758 61.4622 84.4222 61.2628 84.6051 61.1201C84.7898 60.9756 84.9911 60.875 85.2087 60.8183C85.4283 60.7598 85.6441 60.7305 85.8563 60.7305C85.9917 60.7305 86.1472 60.747 86.3228 60.7799C86.5002 60.811 86.6712 60.8759 86.8359 60.9747C87.0023 61.0735 87.1404 61.2226 87.2502 61.422C87.3599 61.6214 87.4148 61.8884 87.4148 62.2232V65H86.7673V64.4293H86.7343C86.6904 64.5207 86.6173 64.6186 86.5148 64.7229C86.4124 64.8271 86.2761 64.9159 86.106 64.989C85.9359 65.0622 85.7283 65.0988 85.4831 65.0988ZM85.5819 64.5171C85.838 64.5171 86.0539 64.4668 86.2295 64.3662C86.4069 64.2656 86.5404 64.1357 86.6301 63.9765C86.7215 63.8174 86.7673 63.65 86.7673 63.4744V62.8817C86.7398 62.9146 86.6795 62.9448 86.5862 62.9723C86.4947 62.9979 86.3886 63.0207 86.2679 63.0409C86.149 63.0592 86.0328 63.0756 85.9194 63.0903C85.8078 63.1031 85.7173 63.114 85.6478 63.1232C85.4795 63.1451 85.3222 63.1808 85.1758 63.2302C85.0313 63.2778 84.9142 63.35 84.8246 63.447C84.7368 63.5421 84.6929 63.672 84.6929 63.8366C84.6929 64.0616 84.7761 64.2317 84.9426 64.347C85.1109 64.4604 85.324 64.5171 85.5819 64.5171ZM90.0337 65.0878C89.6825 65.0878 89.3724 64.9991 89.1035 64.8216C88.8346 64.6424 88.6242 64.3899 88.4724 64.0643C88.3206 63.7369 88.2447 63.35 88.2447 62.9037C88.2447 62.461 88.3206 62.0768 88.4724 61.7512C88.6242 61.4256 88.8355 61.1741 89.1062 60.9967C89.377 60.8192 89.6898 60.7305 90.0446 60.7305C90.319 60.7305 90.5358 60.7762 90.6949 60.8677C90.8559 60.9573 90.9785 61.0598 91.0626 61.175C91.1486 61.2884 91.2154 61.3817 91.2629 61.4549H91.3178V59.3805H91.9654V65H91.3398V64.3524H91.2629C91.2154 64.4293 91.1477 64.5262 91.0599 64.6433C90.9721 64.7585 90.8468 64.8619 90.684 64.9534C90.5212 65.043 90.3044 65.0878 90.0337 65.0878ZM90.1215 64.5061C90.3812 64.5061 90.6007 64.4384 90.78 64.3031C90.9593 64.1659 91.0956 63.9765 91.1888 63.7351C91.2821 63.4918 91.3288 63.211 91.3288 62.8927C91.3288 62.5781 91.2831 62.3028 91.1916 62.0668C91.1001 61.829 90.9648 61.6442 90.7855 61.5125C90.6062 61.379 90.3849 61.3122 90.1215 61.3122C89.8471 61.3122 89.6184 61.3826 89.4355 61.5235C89.2544 61.6625 89.1181 61.8519 89.0267 62.0915C88.937 62.3293 88.8922 62.5964 88.8922 62.8927C88.8922 63.1927 88.9379 63.4653 89.0294 63.7104C89.1227 63.9537 89.2599 64.1476 89.441 64.2921C89.6239 64.4348 89.8507 64.5061 90.1215 64.5061ZM94.0416 65L92.7575 60.7854H93.438L94.3489 64.0122H94.3928L95.2928 60.7854H95.9843L96.8733 64.0012H96.9172L97.8282 60.7854H98.5086L97.2245 65H96.5879L95.666 61.7622H95.6001L94.6782 65H94.0416ZM99.0675 63.8476V63.2878L101.537 59.3805H101.943V60.2476H101.669L99.8029 63.2V63.2439H103.128V63.8476H99.0675ZM101.713 65V63.6774V63.4168V59.3805H102.36V65H101.713ZM104.661 62.4647V65H104.013V60.7854H104.639V61.4439H104.694C104.792 61.2299 104.942 61.058 105.144 60.9281C105.345 60.7964 105.605 60.7305 105.923 60.7305C106.208 60.7305 106.458 60.7891 106.672 60.9061C106.886 61.0214 107.052 61.197 107.171 61.433C107.29 61.6671 107.35 61.9634 107.35 62.322V65H106.702V62.3659C106.702 62.0348 106.616 61.7769 106.444 61.5921C106.272 61.4055 106.036 61.3122 105.736 61.3122C105.53 61.3122 105.345 61.357 105.182 61.4467C105.021 61.5363 104.894 61.6671 104.801 61.839C104.707 62.011 104.661 62.2195 104.661 62.4647ZM108.379 60.7854H109.026V65.3073C109.026 65.5671 108.981 65.7921 108.892 65.9823C108.804 66.1726 108.67 66.3198 108.491 66.4241C108.314 66.5283 108.089 66.5805 107.819 66.5805C107.797 66.5805 107.775 66.5805 107.753 66.5805C107.731 66.5805 107.709 66.5805 107.687 66.5805V65.9768C107.709 65.9768 107.729 65.9768 107.747 65.9768C107.766 65.9768 107.786 65.9768 107.808 65.9768C108.005 65.9768 108.15 65.9183 108.241 65.8012C108.333 65.686 108.379 65.5213 108.379 65.3073V60.7854ZM108.697 60.083C108.571 60.083 108.462 60.04 108.37 59.954C108.281 59.868 108.236 59.7647 108.236 59.6439C108.236 59.5232 108.281 59.4199 108.37 59.3339C108.462 59.2479 108.571 59.2049 108.697 59.2049C108.823 59.2049 108.931 59.2479 109.021 59.3339C109.112 59.4199 109.158 59.5232 109.158 59.6439C109.158 59.7647 109.112 59.868 109.021 59.954C108.931 60.04 108.823 60.083 108.697 60.083ZM111.298 65.0988C111.031 65.0988 110.788 65.0485 110.571 64.9479C110.353 64.8454 110.18 64.6982 110.052 64.5061C109.924 64.3122 109.86 64.0781 109.86 63.8037C109.86 63.5622 109.908 63.3665 110.003 63.2165C110.098 63.0646 110.225 62.9457 110.384 62.8598C110.543 62.7738 110.719 62.7098 110.911 62.6677C111.105 62.6238 111.3 62.589 111.495 62.5634C111.751 62.5305 111.959 62.5058 112.118 62.4893C112.279 62.4711 112.396 62.4409 112.469 62.3988C112.544 62.3567 112.582 62.2836 112.582 62.1793V62.1573C112.582 61.8866 112.508 61.6762 112.36 61.5262C112.213 61.3762 111.991 61.3012 111.693 61.3012C111.384 61.3012 111.141 61.3689 110.966 61.5043C110.79 61.6397 110.667 61.7842 110.595 61.9378L109.981 61.7183C110.091 61.4622 110.237 61.2628 110.42 61.1201C110.605 60.9756 110.806 60.875 111.023 60.8183C111.243 60.7598 111.459 60.7305 111.671 60.7305C111.806 60.7305 111.962 60.747 112.137 60.7799C112.315 60.811 112.486 60.8759 112.651 60.9747C112.817 61.0735 112.955 61.2226 113.065 61.422C113.175 61.6214 113.23 61.8884 113.23 62.2232V65H112.582V64.4293H112.549C112.505 64.5207 112.432 64.6186 112.33 64.7229C112.227 64.8271 112.091 64.9159 111.921 64.989C111.751 65.0622 111.543 65.0988 111.298 65.0988ZM111.397 64.5171C111.653 64.5171 111.869 64.4668 112.044 64.3662C112.222 64.2656 112.355 64.1357 112.445 63.9765C112.536 63.8174 112.582 63.65 112.582 63.4744V62.8817C112.555 62.9146 112.494 62.9448 112.401 62.9723C112.309 62.9979 112.203 63.0207 112.083 63.0409C111.964 63.0592 111.848 63.0756 111.734 63.0903C111.623 63.1031 111.532 63.114 111.462 63.1232C111.294 63.1451 111.137 63.1808 110.99 63.2302C110.846 63.2778 110.729 63.35 110.639 63.447C110.551 63.5421 110.508 63.672 110.508 63.8366C110.508 64.0616 110.591 64.2317 110.757 64.347C110.926 64.4604 111.139 64.5171 111.397 64.5171ZM116.145 65.0768C115.782 65.0768 115.46 65.0146 115.176 64.8902C114.894 64.7659 114.67 64.593 114.504 64.3717C114.339 64.1485 114.25 63.8896 114.235 63.5951H114.926C114.941 63.7762 115.003 63.9326 115.113 64.0643C115.223 64.1942 115.366 64.2948 115.544 64.3662C115.721 64.4375 115.918 64.4732 116.134 64.4732C116.375 64.4732 116.589 64.4311 116.776 64.347C116.962 64.2628 117.109 64.1457 117.215 63.9957C117.321 63.8457 117.374 63.672 117.374 63.4744C117.374 63.2677 117.323 63.0857 117.22 62.9284C117.118 62.7692 116.968 62.6448 116.77 62.5552C116.573 62.4656 116.331 62.4207 116.046 62.4207H115.596V61.8171H116.046C116.269 61.8171 116.465 61.7769 116.633 61.6964C116.803 61.6159 116.936 61.5025 117.031 61.3561C117.128 61.2098 117.176 61.0378 117.176 60.8403C117.176 60.65 117.134 60.4845 117.05 60.3436C116.966 60.2028 116.847 60.093 116.693 60.0144C116.542 59.9357 116.362 59.8964 116.156 59.8964C115.962 59.8964 115.779 59.932 115.607 60.0034C115.437 60.0729 115.298 60.1744 115.19 60.308C115.082 60.4397 115.023 60.5988 115.014 60.7854H114.356C114.367 60.4909 114.455 60.233 114.622 60.0116C114.788 59.7885 115.006 59.6147 115.275 59.4903C115.546 59.3659 115.843 59.3037 116.167 59.3037C116.514 59.3037 116.812 59.3741 117.061 59.515C117.31 59.654 117.501 59.8378 117.635 60.0665C117.768 60.2952 117.835 60.5421 117.835 60.8073C117.835 61.1238 117.752 61.3936 117.585 61.6168C117.421 61.84 117.197 61.9945 116.913 62.0805V62.1244C117.268 62.1829 117.545 62.3339 117.744 62.5772C117.944 62.8186 118.043 63.1177 118.043 63.4744C118.043 63.7799 117.96 64.0543 117.794 64.2976C117.629 64.539 117.404 64.7293 117.119 64.8683C116.833 65.0073 116.509 65.0768 116.145 65.0768ZM119.626 63.4634L119.615 62.6622H119.747L121.59 60.7854H122.392L120.427 62.772H120.372L119.626 63.4634ZM119.022 65V59.3805H119.67V65H119.022ZM121.7 65L120.054 62.9146L120.515 62.4647L122.523 65H121.7ZM124.311 65.0988C124.044 65.0988 123.801 65.0485 123.584 64.9479C123.366 64.8454 123.193 64.6982 123.065 64.5061C122.937 64.3122 122.873 64.0781 122.873 63.8037C122.873 63.5622 122.921 63.3665 123.016 63.2165C123.111 63.0646 123.238 62.9457 123.397 62.8598C123.556 62.7738 123.732 62.7098 123.924 62.6677C124.118 62.6238 124.313 62.589 124.508 62.5634C124.764 62.5305 124.972 62.5058 125.131 62.4893C125.292 62.4711 125.409 62.4409 125.482 62.3988C125.557 62.3567 125.595 62.2836 125.595 62.1793V62.1573C125.595 61.8866 125.521 61.6762 125.373 61.5262C125.226 61.3762 125.004 61.3012 124.706 61.3012C124.397 61.3012 124.154 61.3689 123.979 61.5043C123.803 61.6397 123.68 61.7842 123.608 61.9378L122.994 61.7183C123.103 61.4622 123.25 61.2628 123.433 61.1201C123.618 60.9756 123.819 60.875 124.036 60.8183C124.256 60.7598 124.472 60.7305 124.684 60.7305C124.819 60.7305 124.975 60.747 125.15 60.7799C125.328 60.811 125.499 60.8759 125.664 60.9747C125.83 61.0735 125.968 61.2226 126.078 61.422C126.188 61.6214 126.242 61.8884 126.242 62.2232V65H125.595V64.4293H125.562C125.518 64.5207 125.445 64.6186 125.342 64.7229C125.24 64.8271 125.104 64.9159 124.934 64.989C124.764 65.0622 124.556 65.0988 124.311 65.0988ZM124.41 64.5171C124.666 64.5171 124.882 64.4668 125.057 64.3662C125.235 64.2656 125.368 64.1357 125.458 63.9765C125.549 63.8174 125.595 63.65 125.595 63.4744V62.8817C125.567 62.9146 125.507 62.9448 125.414 62.9723C125.322 62.9979 125.216 63.0207 125.096 63.0409C124.977 63.0592 124.86 63.0756 124.747 63.0903C124.635 63.1031 124.545 63.114 124.475 63.1232C124.307 63.1451 124.15 63.1808 124.003 63.2302C123.859 63.2778 123.742 63.35 123.652 63.447C123.564 63.5421 123.521 63.672 123.521 63.8366C123.521 64.0616 123.604 64.2317 123.77 64.347C123.939 64.4604 124.152 64.5171 124.41 64.5171ZM130.565 60.7854L129.007 65H128.348L126.79 60.7854H127.492L128.656 64.1439H128.699L129.863 60.7854H130.565ZM133.087 65H131.353V59.3805H133.164C133.709 59.3805 134.176 59.493 134.564 59.718C134.951 59.9412 135.249 60.2622 135.455 60.6811C135.662 61.0982 135.765 61.5976 135.765 62.1793C135.765 62.7646 135.661 63.2686 135.453 63.6912C135.244 64.1119 134.94 64.4357 134.542 64.6625C134.143 64.8875 133.658 65 133.087 65ZM132.034 64.3963H133.043C133.508 64.3963 133.893 64.3067 134.199 64.1274C134.504 63.9482 134.732 63.693 134.882 63.3619C135.032 63.0308 135.107 62.6366 135.107 62.1793C135.107 61.7256 135.033 61.3351 134.885 61.0076C134.736 60.6784 134.515 60.4259 134.221 60.2503C133.926 60.0729 133.559 59.9842 133.12 59.9842H132.034V64.3963ZM136.752 65V59.3805H138.717C139.108 59.3805 139.431 59.4482 139.686 59.5836C139.94 59.7171 140.129 59.8973 140.254 60.1241C140.378 60.3491 140.44 60.5988 140.44 60.8732C140.44 61.1147 140.397 61.314 140.311 61.4714C140.227 61.6287 140.115 61.7531 139.976 61.8445C139.839 61.936 139.69 62.0037 139.529 62.0476V62.1025C139.701 62.1134 139.874 62.1738 140.048 62.2836C140.222 62.3933 140.367 62.5506 140.484 62.7555C140.601 62.9604 140.66 63.211 140.66 63.5073C140.66 63.789 140.596 64.0424 140.468 64.2674C140.34 64.4924 140.137 64.6707 139.861 64.8024C139.585 64.9341 139.226 65 138.783 65H136.752ZM137.433 64.3963H138.783C139.227 64.3963 139.543 64.3104 139.729 64.1384C139.918 63.9646 140.012 63.7543 140.012 63.5073C140.012 63.3171 139.964 63.1415 139.867 62.9805C139.77 62.8177 139.632 62.6878 139.452 62.5909C139.273 62.4921 139.061 62.4427 138.816 62.4427H137.433V64.3963ZM137.433 61.85H138.695C138.9 61.85 139.085 61.8098 139.249 61.7293C139.416 61.6488 139.547 61.5354 139.644 61.389C139.743 61.2427 139.793 61.0708 139.793 60.8732C139.793 60.6262 139.707 60.4168 139.535 60.2449C139.363 60.0711 139.09 59.9842 138.717 59.9842H137.433V61.85ZM144.192 63.2768V60.7854H144.839V65H144.192V64.2866H144.148C144.049 64.5006 143.895 64.6826 143.687 64.8326C143.478 64.9808 143.215 65.0549 142.896 65.0549C142.633 65.0549 142.399 64.9973 142.194 64.882C141.989 64.7649 141.828 64.5893 141.711 64.3552C141.594 64.1192 141.535 63.822 141.535 63.4634V60.7854H142.183V63.4195C142.183 63.7268 142.269 63.972 142.441 64.1549C142.615 64.3378 142.836 64.4293 143.105 64.4293C143.266 64.4293 143.43 64.3881 143.596 64.3058C143.764 64.2235 143.905 64.0973 144.019 63.9271C144.134 63.757 144.192 63.5403 144.192 63.2768ZM146.518 62.4647V65H145.871V59.3805H146.518V61.4439H146.573C146.672 61.2262 146.82 61.0534 147.018 60.9253C147.217 60.7955 147.482 60.7305 147.813 60.7305C148.1 60.7305 148.352 60.7881 148.568 60.9034C148.784 61.0168 148.951 61.1915 149.07 61.4275C149.191 61.6616 149.251 61.9598 149.251 62.322V65H148.603V62.3659C148.603 62.0311 148.517 61.7723 148.343 61.5894C148.171 61.4046 147.932 61.3122 147.627 61.3122C147.414 61.3122 147.224 61.357 147.056 61.4467C146.889 61.5363 146.758 61.6671 146.661 61.839C146.566 62.011 146.518 62.2195 146.518 62.4647ZM152.158 60.7854V61.3342H149.886V60.7854H152.158ZM150.567 65V60.2037C150.567 59.9622 150.623 59.761 150.737 59.6C150.85 59.4391 150.997 59.3183 151.178 59.2378C151.36 59.1574 151.551 59.1171 151.752 59.1171C151.911 59.1171 152.041 59.1299 152.142 59.1555C152.242 59.1811 152.317 59.2049 152.367 59.2269L152.18 59.7866C152.147 59.7756 152.101 59.7619 152.043 59.7455C151.986 59.729 151.911 59.7208 151.818 59.7208C151.604 59.7208 151.449 59.7747 151.354 59.8827C151.261 59.9906 151.214 60.1488 151.214 60.3573V65H150.567ZM153.076 65L155.589 60.0281V59.9842H152.691V59.3805H156.291V60.0171L153.789 65H153.076ZM157.818 62.4647V65H157.171V59.3805H157.818V61.4439H157.873C157.972 61.2262 158.12 61.0534 158.318 60.9253C158.517 60.7955 158.782 60.7305 159.113 60.7305C159.401 60.7305 159.652 60.7881 159.868 60.9034C160.084 61.0168 160.251 61.1915 160.37 61.4275C160.491 61.6616 160.551 61.9598 160.551 62.322V65H159.904V62.3659C159.904 62.0311 159.817 61.7723 159.643 61.5894C159.471 61.4046 159.232 61.3122 158.927 61.3122C158.715 61.3122 158.524 61.357 158.356 61.4467C158.19 61.5363 158.058 61.6671 157.961 61.839C157.866 62.011 157.818 62.2195 157.818 62.4647ZM162.822 65.0988C162.554 65.0988 162.312 65.0485 162.094 64.9479C161.877 64.8454 161.704 64.6982 161.576 64.5061C161.448 64.3122 161.384 64.0781 161.384 63.8037C161.384 63.5622 161.431 63.3665 161.526 63.2165C161.622 63.0646 161.749 62.9457 161.908 62.8598C162.067 62.7738 162.243 62.7098 162.435 62.6677C162.629 62.6238 162.823 62.589 163.019 62.5634C163.275 62.5305 163.483 62.5058 163.642 62.4893C163.803 62.4711 163.92 62.4409 163.993 62.3988C164.068 62.3567 164.106 62.2836 164.106 62.1793V62.1573C164.106 61.8866 164.032 61.6762 163.883 61.5262C163.737 61.3762 163.515 61.3012 163.217 61.3012C162.907 61.3012 162.665 61.3689 162.49 61.5043C162.314 61.6397 162.19 61.7842 162.119 61.9378L161.504 61.7183C161.614 61.4622 161.761 61.2628 161.943 61.1201C162.128 60.9756 162.329 60.875 162.547 60.8183C162.767 60.7598 162.982 60.7305 163.195 60.7305C163.33 60.7305 163.486 60.747 163.661 60.7799C163.839 60.811 164.01 60.8759 164.174 60.9747C164.341 61.0735 164.479 61.2226 164.589 61.422C164.698 61.6214 164.753 61.8884 164.753 62.2232V65H164.106V64.4293H164.073C164.029 64.5207 163.956 64.6186 163.853 64.7229C163.751 64.8271 163.614 64.9159 163.444 64.989C163.274 65.0622 163.067 65.0988 162.822 65.0988ZM162.92 64.5171C163.176 64.5171 163.392 64.4668 163.568 64.3662C163.745 64.2656 163.879 64.1357 163.968 63.9765C164.06 63.8174 164.106 63.65 164.106 63.4744V62.8817C164.078 62.9146 164.018 62.9448 163.925 62.9723C163.833 62.9979 163.727 63.0207 163.606 63.0409C163.487 63.0592 163.371 63.0756 163.258 63.0903C163.146 63.1031 163.056 63.114 162.986 63.1232C162.818 63.1451 162.661 63.1808 162.514 63.2302C162.37 63.2778 162.253 63.35 162.163 63.447C162.075 63.5421 162.031 63.672 162.031 63.8366C162.031 64.0616 162.115 64.2317 162.281 64.347C162.449 64.4604 162.662 64.5171 162.92 64.5171ZM165.868 65V59.3805H166.516V61.4549H166.571C166.618 61.3817 166.684 61.2884 166.768 61.175C166.854 61.0598 166.977 60.9573 167.136 60.8677C167.297 60.7762 167.515 60.7305 167.789 60.7305C168.144 60.7305 168.457 60.8192 168.728 60.9967C168.998 61.1741 169.21 61.4256 169.361 61.7512C169.513 62.0768 169.589 62.461 169.589 62.9037C169.589 63.35 169.513 63.7369 169.361 64.0643C169.21 64.3899 168.999 64.6424 168.73 64.8216C168.461 64.9991 168.151 65.0878 167.8 65.0878C167.529 65.0878 167.313 65.043 167.15 64.9534C166.987 64.8619 166.862 64.7585 166.774 64.6433C166.686 64.5262 166.618 64.4293 166.571 64.3524H166.494V65H165.868ZM166.505 62.8927C166.505 63.211 166.552 63.4918 166.645 63.7351C166.738 63.9765 166.875 64.1659 167.054 64.3031C167.233 64.4384 167.453 64.5061 167.712 64.5061C167.983 64.5061 168.209 64.4348 168.39 64.2921C168.573 64.1476 168.71 63.9537 168.802 63.7104C168.895 63.4653 168.942 63.1927 168.942 62.8927C168.942 62.5964 168.896 62.3293 168.804 62.0915C168.715 61.8519 168.578 61.6625 168.396 61.5235C168.214 61.3826 167.987 61.3122 167.712 61.3122C167.449 61.3122 167.228 61.379 167.048 61.5125C166.869 61.6442 166.734 61.829 166.642 62.0668C166.551 62.3028 166.505 62.5781 166.505 62.8927ZM173.41 61.7293L172.829 61.8939C172.792 61.797 172.738 61.7028 172.667 61.6113C172.597 61.518 172.502 61.4412 172.382 61.3808C172.261 61.3205 172.106 61.2903 171.918 61.2903C171.66 61.2903 171.445 61.3497 171.273 61.4686C171.103 61.5857 171.018 61.7348 171.018 61.9159C171.018 62.0768 171.076 62.204 171.193 62.2973C171.31 62.3906 171.493 62.4683 171.742 62.5305L172.368 62.6842C172.745 62.7756 173.025 62.9156 173.21 63.104C173.395 63.2906 173.487 63.5311 173.487 63.8256C173.487 64.0671 173.418 64.2829 173.279 64.4732C173.142 64.6634 172.949 64.8134 172.703 64.9232C172.456 65.0329 172.168 65.0878 171.841 65.0878C171.411 65.0878 171.055 64.9945 170.774 64.8079C170.492 64.6213 170.314 64.3488 170.239 63.9903L170.853 63.8366C170.912 64.0634 171.022 64.2335 171.185 64.347C171.35 64.4604 171.565 64.5171 171.83 64.5171C172.132 64.5171 172.371 64.4531 172.549 64.325C172.728 64.1951 172.818 64.0396 172.818 63.8585C172.818 63.7122 172.767 63.5896 172.664 63.4909C172.562 63.3903 172.404 63.3153 172.192 63.2659L171.49 63.1012C171.104 63.0098 170.82 62.868 170.639 62.6759C170.46 62.482 170.37 62.2397 170.37 61.9488C170.37 61.711 170.437 61.5006 170.571 61.3177C170.706 61.1348 170.89 60.9912 171.122 60.8869C171.356 60.7827 171.621 60.7305 171.918 60.7305C172.335 60.7305 172.662 60.822 172.9 61.0049C173.14 61.1878 173.31 61.4293 173.41 61.7293ZM176.086 59.3037C176.316 59.3055 176.547 59.3494 176.777 59.4354C177.008 59.5214 177.218 59.6641 177.408 59.8635C177.598 60.061 177.751 60.3308 177.866 60.6729C177.982 61.015 178.039 61.4439 178.039 61.9598C178.039 62.4592 177.992 62.9028 177.897 63.2906C177.803 63.6765 177.668 64.0021 177.49 64.2674C177.315 64.5326 177.101 64.7338 176.848 64.871C176.598 65.0082 176.314 65.0768 175.998 65.0768C175.683 65.0768 175.402 65.0146 175.155 64.8902C174.91 64.764 174.709 64.5893 174.552 64.3662C174.396 64.1412 174.297 63.8805 174.253 63.5842H174.922C174.983 63.8421 175.102 64.0552 175.282 64.2235C175.463 64.3899 175.701 64.4732 175.998 64.4732C176.431 64.4732 176.773 64.2838 177.024 63.9052C177.276 63.5265 177.403 62.9915 177.403 62.3H177.359C177.256 62.4537 177.135 62.5863 176.994 62.6979C176.853 62.8095 176.697 62.8954 176.525 62.9558C176.353 63.0162 176.17 63.0464 175.976 63.0464C175.654 63.0464 175.358 62.9668 175.09 62.8076C174.822 62.6467 174.608 62.4262 174.447 62.1464C174.288 61.8647 174.209 61.5427 174.209 61.1805C174.209 60.8366 174.286 60.522 174.439 60.2366C174.595 59.9494 174.812 59.7208 175.092 59.5506C175.374 59.3805 175.705 59.2982 176.086 59.3037ZM176.086 59.9074C175.855 59.9074 175.647 59.965 175.463 60.0802C175.28 60.1936 175.134 60.3473 175.026 60.5412C174.92 60.7333 174.867 60.9464 174.867 61.1805C174.867 61.4147 174.918 61.6278 175.021 61.8198C175.125 62.0101 175.267 62.1619 175.446 62.2753C175.627 62.3869 175.833 62.4427 176.064 62.4427C176.237 62.4427 176.399 62.4089 176.549 62.3412C176.699 62.2717 176.83 62.1775 176.942 62.0586C177.055 61.9378 177.144 61.8015 177.208 61.6497C177.272 61.4961 177.304 61.336 177.304 61.1695C177.304 60.95 177.251 60.7442 177.145 60.5522C177.04 60.3601 176.896 60.2046 176.711 60.0857C176.528 59.9668 176.32 59.9074 176.086 59.9074Z" fill="#4D4D4D"/>
<rect x="8" y="77" width="226" height="24" rx="8" fill="white"/>
<path d="M21.1963 90.4634L21.1854 89.6622H21.3171L23.161 87.7854H23.9622L21.9975 89.772H21.9427L21.1963 90.4634ZM20.5927 92V86.3805H21.2402V92H20.5927ZM23.2707 92L21.6244 89.9146L22.0854 89.4647L24.0939 92H23.2707ZM26.4191 86.3037C26.6496 86.3055 26.8801 86.3494 27.1106 86.4354C27.3411 86.5214 27.5514 86.6641 27.7417 86.8635C27.9319 87.061 28.0847 87.3308 28.1999 87.6729C28.3151 88.015 28.3728 88.4439 28.3728 88.9598C28.3728 89.4592 28.3252 89.9028 28.2301 90.2906C28.1368 90.6765 28.0014 91.0021 27.824 91.2674C27.6484 91.5326 27.4344 91.7338 27.1819 91.871C26.9313 92.0082 26.6478 92.0768 26.3313 92.0768C26.0167 92.0768 25.7359 92.0146 25.4889 91.8902C25.2438 91.764 25.0426 91.5893 24.8853 91.3662C24.7298 91.1412 24.6301 90.8805 24.5862 90.5842H25.2557C25.3161 90.8421 25.4359 91.0552 25.6152 91.2235C25.7963 91.3899 26.035 91.4732 26.3313 91.4732C26.7649 91.4732 27.1069 91.2838 27.3575 90.9052C27.61 90.5265 27.7362 89.9915 27.7362 89.3H27.6923C27.5898 89.4537 27.4682 89.5863 27.3273 89.6979C27.1865 89.8095 27.0301 89.8954 26.8581 89.9558C26.6862 90.0162 26.5033 90.0464 26.3094 90.0464C25.9874 90.0464 25.692 89.9668 25.4231 89.8076C25.156 89.6467 24.942 89.4262 24.781 89.1464C24.6219 88.8647 24.5423 88.5427 24.5423 88.1805C24.5423 87.8366 24.6191 87.522 24.7728 87.2366C24.9283 86.9494 25.146 86.7208 25.4258 86.5506C25.7075 86.3805 26.0386 86.2982 26.4191 86.3037ZM26.4191 86.9074C26.1886 86.9074 25.981 86.965 25.7963 87.0802C25.6133 87.1936 25.4679 87.3473 25.36 87.5412C25.2539 87.7333 25.2008 87.9464 25.2008 88.1805C25.2008 88.4147 25.2521 88.6278 25.3545 88.8198C25.4588 89.0101 25.6005 89.1619 25.7798 89.2753C25.9609 89.3869 26.1667 89.4427 26.3972 89.4427C26.571 89.4427 26.7328 89.4089 26.8828 89.3412C27.0328 89.2717 27.1636 89.1775 27.2752 89.0586C27.3886 88.9378 27.4773 88.8015 27.5414 88.6497C27.6054 88.4961 27.6374 88.336 27.6374 88.1695C27.6374 87.95 27.5844 87.7442 27.4783 87.5522C27.374 87.3601 27.2295 87.2046 27.0447 87.0857C26.8618 86.9668 26.6533 86.9074 26.4191 86.9074ZM30.5485 92.0988C30.2814 92.0988 30.039 92.0485 29.8213 91.9479C29.6037 91.8454 29.4308 91.6982 29.3028 91.5061C29.1747 91.3122 29.1107 91.0781 29.1107 90.8037C29.1107 90.5622 29.1582 90.3665 29.2534 90.2165C29.3485 90.0646 29.4756 89.9457 29.6348 89.8598C29.7939 89.7738 29.9695 89.7098 30.1616 89.6677C30.3555 89.6238 30.5503 89.589 30.746 89.5634C31.0021 89.5305 31.2098 89.5058 31.3689 89.4893C31.5299 89.4711 31.6469 89.4409 31.7201 89.3988C31.7951 89.3567 31.8326 89.2836 31.8326 89.1793V89.1573C31.8326 88.8866 31.7585 88.6762 31.6104 88.5262C31.464 88.3762 31.2418 88.3012 30.9436 88.3012C30.6345 88.3012 30.3921 88.3689 30.2165 88.5043C30.0409 88.6397 29.9174 88.7842 29.846 88.9378L29.2314 88.7183C29.3412 88.4622 29.4875 88.2628 29.6704 88.1201C29.8552 87.9756 30.0564 87.875 30.2741 87.8183C30.4936 87.7598 30.7095 87.7305 30.9216 87.7305C31.057 87.7305 31.2125 87.747 31.3881 87.7799C31.5655 87.811 31.7366 87.8759 31.9012 87.9747C32.0677 88.0735 32.2058 88.2226 32.3155 88.422C32.4253 88.6214 32.4802 88.8884 32.4802 89.2232V92H31.8326V91.4293H31.7997C31.7558 91.5207 31.6826 91.6186 31.5802 91.7229C31.4777 91.8271 31.3415 91.9159 31.1713 91.989C31.0012 92.0622 30.7936 92.0988 30.5485 92.0988ZM30.6473 91.5171C30.9034 91.5171 31.1192 91.4668 31.2948 91.3662C31.4723 91.2656 31.6058 91.1357 31.6954 90.9765C31.7869 90.8174 31.8326 90.65 31.8326 90.4744V89.8817C31.8052 89.9146 31.7448 89.9448 31.6515 89.9723C31.5601 89.9979 31.454 90.0207 31.3332 90.0409C31.2143 90.0592 31.0982 90.0756 30.9848 90.0903C30.8732 90.1031 30.7826 90.114 30.7131 90.1232C30.5448 90.1451 30.3875 90.1808 30.2412 90.2302C30.0966 90.2778 29.9796 90.35 29.8899 90.447C29.8021 90.5421 29.7582 90.672 29.7582 90.8366C29.7582 91.0616 29.8415 91.2317 30.0079 91.347C30.1762 91.4604 30.3893 91.5171 30.6473 91.5171ZM35.3844 87.7854V88.3342H33.1124V87.7854H35.3844ZM33.7929 92V87.2037C33.7929 86.9622 33.8496 86.761 33.963 86.6C34.0765 86.4391 34.2237 86.3183 34.4048 86.2378C34.5859 86.1574 34.7771 86.1171 34.9783 86.1171C35.1374 86.1171 35.2673 86.1299 35.3679 86.1555C35.4685 86.1811 35.5435 86.2049 35.5929 86.2269L35.4063 86.7866C35.3734 86.7756 35.3277 86.7619 35.2691 86.7455C35.2124 86.729 35.1374 86.7208 35.0441 86.7208C34.8301 86.7208 34.6755 86.7747 34.5804 86.8827C34.4871 86.9906 34.4405 87.1488 34.4405 87.3573V92H33.7929ZM36.5545 93.5805C36.4447 93.5805 36.3468 93.5713 36.2609 93.553C36.1749 93.5366 36.1154 93.5201 36.0825 93.5036L36.2471 92.9329C36.4045 92.9732 36.5435 92.9878 36.6642 92.9768C36.7849 92.9658 36.892 92.9119 36.9852 92.8149C37.0804 92.7198 37.1673 92.5652 37.2459 92.3512L37.3666 92.022L35.8081 87.7854H36.5106L37.674 91.1439H37.7179L38.8813 87.7854H39.5837L37.7947 92.6146C37.7142 92.8323 37.6145 93.0125 37.4956 93.1552C37.3767 93.2997 37.2386 93.4067 37.0813 93.4762C36.9258 93.5457 36.7502 93.5805 36.5545 93.5805ZM42.1717 92.0768C41.8095 92.0768 41.4866 92.0146 41.2031 91.8902C40.9214 91.7659 40.6973 91.593 40.5308 91.3717C40.3662 91.1485 40.2766 90.8896 40.2619 90.5951H40.9534C40.968 90.7762 41.0302 90.9326 41.14 91.0643C41.2497 91.1942 41.3933 91.2948 41.5708 91.3662C41.7482 91.4375 41.9448 91.4732 42.1607 91.4732C42.4022 91.4732 42.6162 91.4311 42.8028 91.347C42.9894 91.2628 43.1357 91.1457 43.2418 90.9957C43.3479 90.8457 43.4009 90.672 43.4009 90.4744C43.4009 90.2677 43.3497 90.0857 43.2473 89.9284C43.1448 89.7692 42.9948 89.6448 42.7973 89.5552C42.5997 89.4656 42.3583 89.4207 42.0729 89.4207H41.6229V88.8171H42.0729C42.2961 88.8171 42.4918 88.7769 42.6601 88.6964C42.8302 88.6159 42.9628 88.5025 43.0579 88.3561C43.1549 88.2098 43.2034 88.0378 43.2034 87.8403C43.2034 87.65 43.1613 87.4845 43.0772 87.3436C42.993 87.2028 42.8741 87.093 42.7205 87.0144C42.5686 86.9357 42.3894 86.8964 42.1827 86.8964C41.9887 86.8964 41.8058 86.932 41.6339 87.0034C41.4638 87.0729 41.3247 87.1744 41.2168 87.308C41.1089 87.4397 41.0503 87.5988 41.0412 87.7854H40.3827C40.3936 87.4909 40.4824 87.233 40.6488 87.0116C40.8153 86.7885 41.033 86.6147 41.3019 86.4903C41.5726 86.3659 41.8698 86.3037 42.1936 86.3037C42.5412 86.3037 42.8394 86.3741 43.0881 86.515C43.3369 86.654 43.5281 86.8378 43.6616 87.0665C43.7951 87.2952 43.8619 87.5421 43.8619 87.8073C43.8619 88.1238 43.7787 88.3936 43.6122 88.6168C43.4476 88.84 43.2235 88.9945 42.94 89.0805V89.1244C43.2948 89.1829 43.572 89.3339 43.7714 89.5772C43.9707 89.8186 44.0704 90.1177 44.0704 90.4744C44.0704 90.7799 43.9872 91.0543 43.8207 91.2976C43.6561 91.539 43.4311 91.7293 43.1458 91.8683C42.8604 92.0073 42.5357 92.0768 42.1717 92.0768ZM45.1369 92V86.3805H45.7845V88.4549H45.8394C45.8869 88.3817 45.9528 88.2884 46.0369 88.175C46.1229 88.0598 46.2455 87.9573 46.4046 87.8677C46.5656 87.7762 46.7833 87.7305 47.0577 87.7305C47.4125 87.7305 47.7253 87.8192 47.9961 87.9967C48.2668 88.1741 48.4781 88.4256 48.6299 88.7512C48.7817 89.0768 48.8576 89.461 48.8576 89.9037C48.8576 90.35 48.7817 90.7369 48.6299 91.0643C48.4781 91.3899 48.2677 91.6424 47.9988 91.8216C47.7299 91.9991 47.4198 92.0878 47.0686 92.0878C46.7979 92.0878 46.5811 92.043 46.4183 91.9534C46.2555 91.8619 46.1302 91.7585 46.0424 91.6433C45.9546 91.5262 45.8869 91.4293 45.8394 91.3524H45.7625V92H45.1369ZM45.7735 89.8927C45.7735 90.211 45.8202 90.4918 45.9135 90.7351C46.0067 90.9765 46.143 91.1659 46.3223 91.3031C46.5016 91.4384 46.7211 91.5061 46.9808 91.5061C47.2516 91.5061 47.4775 91.4348 47.6586 91.2921C47.8415 91.1476 47.9787 90.9537 48.0701 90.7104C48.1634 90.4653 48.2101 90.1927 48.2101 89.8927C48.2101 89.5964 48.1644 89.3293 48.0729 89.0915C47.9833 88.8519 47.847 88.6625 47.6641 88.5235C47.483 88.3826 47.2552 88.3122 46.9808 88.3122C46.7174 88.3122 46.4961 88.379 46.3168 88.5125C46.1375 88.6442 46.0022 88.829 45.9107 89.0668C45.8192 89.3028 45.7735 89.5781 45.7735 89.8927ZM50.9339 92.0988C50.6668 92.0988 50.4244 92.0485 50.2068 91.9479C49.9891 91.8454 49.8162 91.6982 49.6882 91.5061C49.5601 91.3122 49.4961 91.0781 49.4961 90.8037C49.4961 90.5622 49.5436 90.3665 49.6388 90.2165C49.7339 90.0646 49.861 89.9457 50.0202 89.8598C50.1793 89.7738 50.3549 89.7098 50.547 89.6677C50.7409 89.6238 50.9357 89.589 51.1314 89.5634C51.3875 89.5305 51.5952 89.5058 51.7543 89.4893C51.9153 89.4711 52.0324 89.4409 52.1055 89.3988C52.1805 89.3567 52.218 89.2836 52.218 89.1793V89.1573C52.218 88.8866 52.1439 88.6762 51.9958 88.5262C51.8494 88.3762 51.6272 88.3012 51.329 88.3012C51.0199 88.3012 50.7775 88.3689 50.6019 88.5043C50.4263 88.6397 50.3028 88.7842 50.2314 88.9378L49.6168 88.7183C49.7266 88.4622 49.8729 88.2628 50.0558 88.1201C50.2406 87.9756 50.4418 87.875 50.6595 87.8183C50.879 87.7598 51.0949 87.7305 51.3071 87.7305C51.4424 87.7305 51.5979 87.747 51.7735 87.7799C51.9509 87.811 52.122 87.8759 52.2866 87.9747C52.4531 88.0735 52.5912 88.2226 52.7009 88.422C52.8107 88.6214 52.8656 88.8884 52.8656 89.2232V92H52.218V91.4293H52.1851C52.1412 91.5207 52.068 91.6186 51.9656 91.7229C51.8631 91.8271 51.7269 91.9159 51.5567 91.989C51.3866 92.0622 51.179 92.0988 50.9339 92.0988ZM51.0327 91.5171C51.2888 91.5171 51.5046 91.4668 51.6802 91.3662C51.8577 91.2656 51.9912 91.1357 52.0808 90.9765C52.1723 90.8174 52.218 90.65 52.218 90.4744V89.8817C52.1906 89.9146 52.1302 89.9448 52.0369 89.9723C51.9455 89.9979 51.8394 90.0207 51.7186 90.0409C51.5997 90.0592 51.4836 90.0756 51.3702 90.0903C51.2586 90.1031 51.168 90.114 51.0985 90.1232C50.9302 90.1451 50.7729 90.1808 50.6266 90.2302C50.4821 90.2778 50.365 90.35 50.2754 90.447C50.1875 90.5421 50.1436 90.672 50.1436 90.8366C50.1436 91.0616 50.2269 91.2317 50.3933 91.347C50.5616 91.4604 50.7747 91.5171 51.0327 91.5171ZM54.8478 92L53.5637 87.7854H54.2442L55.1552 91.0122H55.1991L56.0991 87.7854H56.7905L57.6795 91.0012H57.7234L58.6344 87.7854H59.3149L58.0307 92H57.3942L56.4722 88.7622H56.4064L55.4844 92H54.8478ZM63.9457 88.1366C63.8853 87.9519 63.8057 87.7863 63.707 87.64C63.61 87.4918 63.4939 87.3656 63.3585 87.2613C63.225 87.157 63.0731 87.0775 62.903 87.0226C62.7329 86.9677 62.5463 86.9403 62.3433 86.9403C62.0103 86.9403 61.7076 87.0263 61.435 87.1982C61.1625 87.3702 60.9457 87.6235 60.7847 87.9583C60.6238 88.293 60.5433 88.7037 60.5433 89.1903C60.5433 89.6768 60.6247 90.0875 60.7875 90.4223C60.9503 90.757 61.1707 91.0104 61.4487 91.1823C61.7268 91.3543 62.0396 91.4402 62.3872 91.4402C62.7091 91.4402 62.9926 91.3717 63.2378 91.2345C63.4847 91.0954 63.6768 90.8997 63.814 90.6473C63.953 90.393 64.0225 90.0939 64.0225 89.75L64.231 89.7939H62.5408V89.1903H64.681V89.7939C64.681 90.2567 64.5823 90.6592 64.3847 91.0012C64.189 91.3433 63.9182 91.6085 63.5725 91.797C63.2286 91.9835 62.8335 92.0768 62.3872 92.0768C61.8896 92.0768 61.4524 91.9598 61.0756 91.7256C60.7006 91.4915 60.4079 91.1585 60.1975 90.7268C59.989 90.2951 59.8847 89.7829 59.8847 89.1903C59.8847 88.7458 59.9442 88.3461 60.0631 87.9912C60.1838 87.6345 60.3539 87.3308 60.5734 87.0802C60.793 86.8296 61.0527 86.6375 61.3527 86.504C61.6527 86.3705 61.9829 86.3037 62.3433 86.3037C62.6396 86.3037 62.9158 86.3485 63.1719 86.4381C63.4298 86.526 63.6594 86.6513 63.8606 86.8141C64.0637 86.975 64.2329 87.168 64.3682 87.393C64.5036 87.6162 64.5969 87.8641 64.6481 88.1366H63.9457ZM70.148 86.3805V92H69.4895L66.4273 87.5878H66.3725V92H65.692V86.3805H66.3505L69.4237 90.8037H69.4785V86.3805H70.148ZM72.5076 92.0988C72.2405 92.0988 71.9981 92.0485 71.7805 91.9479C71.5628 91.8454 71.3899 91.6982 71.2619 91.5061C71.1338 91.3122 71.0698 91.0781 71.0698 90.8037C71.0698 90.5622 71.1174 90.3665 71.2125 90.2165C71.3076 90.0646 71.4347 89.9457 71.5939 89.8598C71.753 89.7738 71.9286 89.7098 72.1207 89.6677C72.3146 89.6238 72.5094 89.589 72.7051 89.5634C72.9612 89.5305 73.1689 89.5058 73.328 89.4893C73.489 89.4711 73.6061 89.4409 73.6792 89.3988C73.7542 89.3567 73.7917 89.2836 73.7917 89.1793V89.1573C73.7917 88.8866 73.7176 88.6762 73.5695 88.5262C73.4231 88.3762 73.2009 88.3012 72.9027 88.3012C72.5936 88.3012 72.3512 88.3689 72.1756 88.5043C72 88.6397 71.8765 88.7842 71.8052 88.9378L71.1905 88.7183C71.3003 88.4622 71.4466 88.2628 71.6295 88.1201C71.8143 87.9756 72.0155 87.875 72.2332 87.8183C72.4527 87.7598 72.6686 87.7305 72.8808 87.7305C73.0161 87.7305 73.1716 87.747 73.3472 87.7799C73.5247 87.811 73.6957 87.8759 73.8603 87.9747C74.0268 88.0735 74.1649 88.2226 74.2746 88.422C74.3844 88.6214 74.4393 88.8884 74.4393 89.2232V92H73.7917V91.4293H73.7588C73.7149 91.5207 73.6417 91.6186 73.5393 91.7229C73.4368 91.8271 73.3006 91.9159 73.1304 91.989C72.9603 92.0622 72.7527 92.0988 72.5076 92.0988ZM72.6064 91.5171C72.8625 91.5171 73.0783 91.4668 73.2539 91.3662C73.4314 91.2656 73.5649 91.1357 73.6545 90.9765C73.746 90.8174 73.7917 90.65 73.7917 90.4744V89.8817C73.7643 89.9146 73.7039 89.9448 73.6106 89.9723C73.5192 89.9979 73.4131 90.0207 73.2923 90.0409C73.1734 90.0592 73.0573 90.0756 72.9439 90.0903C72.8323 90.1031 72.7417 90.114 72.6722 90.1232C72.5039 90.1451 72.3466 90.1808 72.2003 90.2302C72.0558 90.2778 71.9387 90.35 71.8491 90.447C71.7612 90.5421 71.7173 90.672 71.7173 90.8366C71.7173 91.0616 71.8006 91.2317 71.967 91.347C72.1353 91.4604 72.3484 91.5171 72.6064 91.5171ZM77.3435 87.7854V88.3342H75.0716V87.7854H77.3435ZM75.752 92V87.2037C75.752 86.9622 75.8087 86.761 75.9222 86.6C76.0356 86.4391 76.1828 86.3183 76.3639 86.2378C76.545 86.1574 76.7362 86.1171 76.9374 86.1171C77.0965 86.1171 77.2264 86.1299 77.327 86.1555C77.4276 86.1811 77.5026 86.2049 77.552 86.2269L77.3654 86.7866C77.3325 86.7756 77.2868 86.7619 77.2282 86.7455C77.1715 86.729 77.0965 86.7208 77.0032 86.7208C76.7892 86.7208 76.6347 86.7747 76.5395 86.8827C76.4462 86.9906 76.3996 87.1488 76.3996 87.3573V92H75.752ZM79.9733 87.7854V88.3342H77.7014V87.7854H79.9733ZM78.3819 92V87.2037C78.3819 86.9622 78.4386 86.761 78.552 86.6C78.6654 86.4391 78.8126 86.3183 78.9937 86.2378C79.1748 86.1574 79.366 86.1171 79.5672 86.1171C79.7264 86.1171 79.8562 86.1299 79.9568 86.1555C80.0575 86.1811 80.1325 86.2049 80.1818 86.2269L79.9953 86.7866C79.9623 86.7756 79.9166 86.7619 79.8581 86.7455C79.8014 86.729 79.7264 86.7208 79.6331 86.7208C79.419 86.7208 79.2645 86.7747 79.1693 86.8827C79.0761 86.9906 79.0294 87.1488 79.0294 87.3573V92H78.3819ZM82.5812 92.0768C82.3507 92.0732 82.1202 92.0293 81.8897 91.9451C81.6592 91.861 81.4489 91.7192 81.2586 91.5198C81.0684 91.3186 80.9156 91.047 80.8004 90.7049C80.6852 90.361 80.6275 89.9293 80.6275 89.4098C80.6275 88.9122 80.6742 88.4714 80.7675 88.0872C80.8608 87.7012 80.9961 87.3766 81.1736 87.1131C81.351 86.8479 81.565 86.6467 81.8156 86.5095C82.0681 86.3723 82.3525 86.3037 82.669 86.3037C82.9836 86.3037 83.2635 86.3668 83.5086 86.493C83.7556 86.6174 83.9568 86.7912 84.1123 87.0144C84.2678 87.2375 84.3684 87.4945 84.4141 87.7854H83.7446C83.6824 87.533 83.5617 87.3235 83.3824 87.157C83.2031 86.9906 82.9653 86.9074 82.669 86.9074C82.2336 86.9074 81.8906 87.0967 81.64 87.4753C81.3912 87.854 81.2659 88.3854 81.2641 89.0695H81.308C81.4105 88.914 81.5321 88.7814 81.673 88.6717C81.8156 88.5601 81.9729 88.4741 82.1449 88.4137C82.3168 88.3534 82.4989 88.3232 82.6909 88.3232C83.0129 88.3232 83.3074 88.4037 83.5745 88.5647C83.8415 88.7238 84.0556 88.9442 84.2165 89.2259C84.3775 89.5058 84.458 89.8268 84.458 90.189C84.458 90.5366 84.3802 90.8549 84.2248 91.1439C84.0693 91.4311 83.8507 91.6598 83.569 91.8299C83.2891 91.9982 82.9598 92.0805 82.5812 92.0768ZM82.5812 91.4732C82.8117 91.4732 83.0184 91.4156 83.2013 91.3003C83.386 91.1851 83.5315 91.0305 83.6376 90.8366C83.7455 90.6427 83.7995 90.4268 83.7995 90.189C83.7995 89.9567 83.7473 89.7454 83.6431 89.5552C83.5406 89.3631 83.3989 89.2104 83.2178 89.097C83.0385 88.9836 82.8336 88.9269 82.6031 88.9269C82.4293 88.9269 82.2675 88.9616 82.1175 89.0311C81.9675 89.0988 81.8358 89.1921 81.7223 89.311C81.6108 89.4299 81.523 89.5662 81.4589 89.7198C81.3949 89.8717 81.3629 90.0317 81.3629 90.2C81.3629 90.4232 81.415 90.6317 81.5193 90.8256C81.6254 91.0195 81.7699 91.1759 81.9528 91.2948C82.1376 91.4137 82.347 91.4732 82.5812 91.4732ZM86.041 89.4647V92H85.3935V86.3805H86.041V88.4439H86.0959C86.1947 88.2262 86.3429 88.0534 86.5404 87.9253C86.7398 87.7955 87.005 87.7305 87.3361 87.7305C87.6233 87.7305 87.8749 87.7881 88.0907 87.9034C88.3066 88.0168 88.4739 88.1915 88.5928 88.4275C88.7136 88.6616 88.7739 88.9598 88.7739 89.322V92H88.1264V89.3659C88.1264 89.0311 88.0395 88.7723 87.8657 88.5894C87.6938 88.4046 87.455 88.3122 87.1496 88.3122C86.9374 88.3122 86.7471 88.357 86.5788 88.4467C86.4124 88.5363 86.2807 88.6671 86.1837 88.839C86.0886 89.011 86.041 89.2195 86.041 89.4647ZM91.0443 92.0988C90.7772 92.0988 90.5349 92.0485 90.3172 91.9479C90.0995 91.8454 89.9266 91.6982 89.7986 91.5061C89.6705 91.3122 89.6065 91.0781 89.6065 90.8037C89.6065 90.5622 89.6541 90.3665 89.7492 90.2165C89.8443 90.0646 89.9714 89.9457 90.1306 89.8598C90.2897 89.7738 90.4653 89.7098 90.6574 89.6677C90.8513 89.6238 91.0461 89.589 91.2419 89.5634C91.498 89.5305 91.7056 89.5058 91.8647 89.4893C92.0257 89.4711 92.1428 89.4409 92.2159 89.3988C92.2909 89.3567 92.3284 89.2836 92.3284 89.1793V89.1573C92.3284 88.8866 92.2544 88.6762 92.1062 88.5262C91.9598 88.3762 91.7376 88.3012 91.4394 88.3012C91.1303 88.3012 90.8879 88.3689 90.7123 88.5043C90.5367 88.6397 90.4132 88.7842 90.3419 88.9378L89.7272 88.7183C89.837 88.4622 89.9833 88.2628 90.1663 88.1201C90.351 87.9756 90.5522 87.875 90.7699 87.8183C90.9894 87.7598 91.2053 87.7305 91.4175 87.7305C91.5528 87.7305 91.7083 87.747 91.8839 87.7799C92.0614 87.811 92.2324 87.8759 92.397 87.9747C92.5635 88.0735 92.7016 88.2226 92.8114 88.422C92.9211 88.6214 92.976 88.8884 92.976 89.2232V92H92.3284V91.4293H92.2955C92.2516 91.5207 92.1784 91.6186 92.076 91.7229C91.9736 91.8271 91.8373 91.9159 91.6672 91.989C91.497 92.0622 91.2894 92.0988 91.0443 92.0988ZM91.1431 91.5171C91.3992 91.5171 91.615 91.4668 91.7906 91.3662C91.9681 91.2656 92.1016 91.1357 92.1912 90.9765C92.2827 90.8174 92.3284 90.65 92.3284 90.4744V89.8817C92.301 89.9146 92.2406 89.9448 92.1473 89.9723C92.0559 89.9979 91.9498 90.0207 91.8291 90.0409C91.7102 90.0592 91.594 90.0756 91.4806 90.0903C91.369 90.1031 91.2784 90.114 91.2089 90.1232C91.0406 90.1451 90.8833 90.1808 90.737 90.2302C90.5925 90.2778 90.4754 90.35 90.3858 90.447C90.298 90.5421 90.2541 90.672 90.2541 90.8366C90.2541 91.0616 90.3373 91.2317 90.5038 91.347C90.672 91.4604 90.8852 91.5171 91.1431 91.5171ZM94.7195 92L93.183 86.3805H93.8744L95.0488 90.9573H95.1037L96.3 86.3805H97.0683L98.2646 90.9573H98.3195L99.4939 86.3805H100.185L98.6488 92H97.9463L96.7061 87.522H96.6622L95.422 92H94.7195ZM100.879 92V86.3805H104.248V86.9842H101.559V88.8829H103.996V89.4866H101.559V92H100.879ZM105.171 87.7854H105.819V92.3073C105.819 92.5671 105.774 92.7921 105.684 92.9823C105.597 93.1726 105.463 93.3198 105.284 93.4241C105.106 93.5283 104.882 93.5805 104.612 93.5805C104.59 93.5805 104.568 93.5805 104.546 93.5805C104.524 93.5805 104.502 93.5805 104.48 93.5805V92.9768C104.502 92.9768 104.522 92.9768 104.54 92.9768C104.558 92.9768 104.579 92.9768 104.601 92.9768C104.798 92.9768 104.943 92.9183 105.034 92.8012C105.126 92.686 105.171 92.5213 105.171 92.3073V87.7854ZM105.49 87.083C105.363 87.083 105.255 87.04 105.163 86.954C105.073 86.868 105.029 86.7647 105.029 86.6439C105.029 86.5232 105.073 86.4199 105.163 86.3339C105.255 86.2479 105.363 86.2049 105.49 86.2049C105.616 86.2049 105.724 86.2479 105.813 86.3339C105.905 86.4199 105.951 86.5232 105.951 86.6439C105.951 86.7647 105.905 86.868 105.813 86.954C105.724 87.04 105.616 87.083 105.49 87.083ZM106.839 92V91.5061L108.694 89.4756C108.912 89.2378 109.091 89.0311 109.232 88.8555C109.373 88.6781 109.477 88.5116 109.545 88.3561C109.614 88.1988 109.649 88.0342 109.649 87.8622C109.649 87.6647 109.602 87.4936 109.506 87.3491C109.413 87.2046 109.285 87.093 109.122 87.0144C108.959 86.9357 108.777 86.8964 108.574 86.8964C108.358 86.8964 108.169 86.9412 108.008 87.0308C107.849 87.1186 107.726 87.2421 107.638 87.4013C107.552 87.5604 107.509 87.747 107.509 87.961H106.861C106.861 87.6317 106.937 87.3427 107.089 87.0939C107.241 86.8452 107.448 86.6513 107.709 86.5122C107.973 86.3732 108.268 86.3037 108.595 86.3037C108.925 86.3037 109.216 86.3732 109.471 86.5122C109.725 86.6513 109.924 86.8388 110.069 87.0747C110.213 87.3107 110.286 87.5732 110.286 87.8622C110.286 88.0689 110.248 88.2711 110.173 88.4686C110.1 88.6644 109.972 88.8829 109.789 89.1244C109.608 89.364 109.356 89.6567 109.034 90.0025L107.772 91.3524V91.3963H110.384V92H106.839ZM112.022 89.4647V92H111.374V87.7854H112V88.4439H112.055C112.153 88.2299 112.303 88.058 112.505 87.9281C112.706 87.7964 112.966 87.7305 113.284 87.7305C113.569 87.7305 113.819 87.7891 114.033 87.9061C114.247 88.0214 114.413 88.197 114.532 88.433C114.651 88.6671 114.711 88.9634 114.711 89.322V92H114.063V89.3659C114.063 89.0348 113.977 88.7769 113.805 88.5921C113.633 88.4055 113.397 88.3122 113.097 88.3122C112.891 88.3122 112.706 88.357 112.543 88.4467C112.382 88.5363 112.255 88.6671 112.162 88.839C112.068 89.011 112.022 89.2195 112.022 89.4647ZM116.98 92.0988C116.713 92.0988 116.47 92.0485 116.253 91.9479C116.035 91.8454 115.862 91.6982 115.734 91.5061C115.606 91.3122 115.542 91.0781 115.542 90.8037C115.542 90.5622 115.589 90.3665 115.685 90.2165C115.78 90.0646 115.907 89.9457 116.066 89.8598C116.225 89.7738 116.401 89.7098 116.593 89.6677C116.787 89.6238 116.982 89.589 117.177 89.5634C117.433 89.5305 117.641 89.5058 117.8 89.4893C117.961 89.4711 118.078 89.4409 118.151 89.3988C118.226 89.3567 118.264 89.2836 118.264 89.1793V89.1573C118.264 88.8866 118.19 88.6762 118.042 88.5262C117.895 88.3762 117.673 88.3012 117.375 88.3012C117.066 88.3012 116.823 88.3689 116.648 88.5043C116.472 88.6397 116.349 88.7842 116.277 88.9378L115.663 88.7183C115.772 88.4622 115.919 88.2628 116.102 88.1201C116.286 87.9756 116.488 87.875 116.705 87.8183C116.925 87.7598 117.141 87.7305 117.353 87.7305C117.488 87.7305 117.644 87.747 117.819 87.7799C117.997 87.811 118.168 87.8759 118.332 87.9747C118.499 88.0735 118.637 88.2226 118.747 88.422C118.857 88.6214 118.911 88.8884 118.911 89.2232V92H118.264V91.4293H118.231C118.187 91.5207 118.114 91.6186 118.011 91.7229C117.909 91.8271 117.773 91.9159 117.603 91.989C117.432 92.0622 117.225 92.0988 116.98 92.0988ZM117.078 91.5171C117.335 91.5171 117.55 91.4668 117.726 91.3662C117.903 91.2656 118.037 91.1357 118.127 90.9765C118.218 90.8174 118.264 90.65 118.264 90.4744V89.8817C118.236 89.9146 118.176 89.9448 118.083 89.9723C117.991 89.9979 117.885 90.0207 117.764 90.0409C117.646 90.0592 117.529 90.0756 117.416 90.0903C117.304 90.1031 117.214 90.114 117.144 90.1232C116.976 90.1451 116.819 90.1808 116.672 90.2302C116.528 90.2778 116.411 90.35 116.321 90.447C116.233 90.5421 116.189 90.672 116.189 90.8366C116.189 91.0616 116.273 91.2317 116.439 91.347C116.607 91.4604 116.821 91.5171 117.078 91.5171ZM121.816 87.7854V88.3342H119.544V87.7854H121.816ZM120.224 92V87.2037C120.224 86.9622 120.281 86.761 120.394 86.6C120.508 86.4391 120.655 86.3183 120.836 86.2378C121.017 86.1574 121.208 86.1171 121.41 86.1171C121.569 86.1171 121.699 86.1299 121.799 86.1555C121.9 86.1811 121.975 86.2049 122.024 86.2269L121.838 86.7866C121.805 86.7756 121.759 86.7619 121.7 86.7455C121.644 86.729 121.569 86.7208 121.475 86.7208C121.261 86.7208 121.107 86.7747 121.012 86.8827C120.918 86.9906 120.872 87.1488 120.872 87.3573V92H120.224ZM122.656 92V86.3805H124.555C124.996 86.3805 125.356 86.4601 125.636 86.6192C125.918 86.7766 126.127 86.9897 126.262 87.2586C126.397 87.5275 126.465 87.8275 126.465 88.1586C126.465 88.4897 126.397 88.7906 126.262 89.0613C126.128 89.332 125.922 89.5479 125.642 89.7089C125.362 89.868 125.003 89.9476 124.566 89.9476H123.205V89.3439H124.544C124.846 89.3439 125.088 89.2918 125.271 89.1875C125.454 89.0833 125.587 88.9424 125.669 88.765C125.753 88.5857 125.795 88.3836 125.795 88.1586C125.795 87.9336 125.753 87.7323 125.669 87.5549C125.587 87.3775 125.453 87.2384 125.269 87.1378C125.084 87.0354 124.839 86.9842 124.533 86.9842H123.337V92H122.656ZM129.141 92H127.407V86.3805H129.218C129.763 86.3805 130.229 86.493 130.617 86.718C131.005 86.9412 131.302 87.2622 131.509 87.6811C131.715 88.0982 131.819 88.5976 131.819 89.1793C131.819 89.7646 131.714 90.2686 131.506 90.6912C131.297 91.1119 130.994 91.4357 130.595 91.6625C130.196 91.8875 129.711 92 129.141 92ZM128.087 91.3963H129.097C129.561 91.3963 129.946 91.3067 130.252 91.1274C130.557 90.9482 130.785 90.693 130.935 90.3619C131.085 90.0308 131.16 89.6366 131.16 89.1793C131.16 88.7256 131.086 88.3351 130.938 88.0076C130.79 87.6784 130.568 87.4259 130.274 87.2503C129.979 87.0729 129.613 86.9842 129.174 86.9842H128.087V91.3963ZM133.365 89.4647V92H132.718V87.7854H133.343V88.4439H133.398C133.497 88.2299 133.647 88.058 133.848 87.9281C134.05 87.7964 134.309 87.7305 134.628 87.7305C134.913 87.7305 135.163 87.7891 135.377 87.9061C135.591 88.0214 135.757 88.197 135.876 88.433C135.995 88.6671 136.054 88.9634 136.054 89.322V92H135.407V89.3659C135.407 89.0348 135.321 88.7769 135.149 88.5921C134.977 88.4055 134.741 88.3122 134.441 88.3122C134.234 88.3122 134.05 88.357 133.887 88.4467C133.726 88.5363 133.599 88.6671 133.505 88.839C133.412 89.011 133.365 89.2195 133.365 89.4647ZM138.96 87.7854V88.3342H136.688V87.7854H138.96ZM137.369 92V87.2037C137.369 86.9622 137.425 86.761 137.539 86.6C137.652 86.4391 137.799 86.3183 137.98 86.2378C138.162 86.1574 138.353 86.1171 138.554 86.1171C138.713 86.1171 138.843 86.1299 138.944 86.1555C139.044 86.1811 139.119 86.2049 139.169 86.2269L138.982 86.7866C138.949 86.7756 138.903 86.7619 138.845 86.7455C138.788 86.729 138.713 86.7208 138.62 86.7208C138.406 86.7208 138.251 86.7747 138.156 86.8827C138.063 86.9906 138.016 87.1488 138.016 87.3573V92H137.369ZM141.601 92.0768C141.239 92.0768 140.916 92.0146 140.632 91.8902C140.35 91.7659 140.126 91.593 139.96 91.3717C139.795 91.1485 139.706 90.8896 139.691 90.5951H140.383C140.397 90.7762 140.459 90.9326 140.569 91.0643C140.679 91.1942 140.822 91.2948 141 91.3662C141.177 91.4375 141.374 91.4732 141.59 91.4732C141.831 91.4732 142.045 91.4311 142.232 91.347C142.418 91.2628 142.565 91.1457 142.671 90.9957C142.777 90.8457 142.83 90.672 142.83 90.4744C142.83 90.2677 142.779 90.0857 142.676 89.9284C142.574 89.7692 142.424 89.6448 142.226 89.5552C142.029 89.4656 141.787 89.4207 141.502 89.4207H141.052V88.8171H141.502C141.725 88.8171 141.921 88.7769 142.089 88.6964C142.259 88.6159 142.392 88.5025 142.487 88.3561C142.584 88.2098 142.632 88.0378 142.632 87.8403C142.632 87.65 142.59 87.4845 142.506 87.3436C142.422 87.2028 142.303 87.093 142.15 87.0144C141.998 86.9357 141.818 86.8964 141.612 86.8964C141.418 86.8964 141.235 86.932 141.063 87.0034C140.893 87.0729 140.754 87.1744 140.646 87.308C140.538 87.4397 140.479 87.5988 140.47 87.7854H139.812C139.823 87.4909 139.911 87.233 140.078 87.0116C140.244 86.7885 140.462 86.6147 140.731 86.4903C141.002 86.3659 141.299 86.3037 141.623 86.3037C141.97 86.3037 142.268 86.3741 142.517 86.515C142.766 86.654 142.957 86.8378 143.091 87.0665C143.224 87.2952 143.291 87.5421 143.291 87.8073C143.291 88.1238 143.208 88.3936 143.041 88.6168C142.877 88.84 142.653 88.9945 142.369 89.0805V89.1244C142.724 89.1829 143.001 89.3339 143.2 89.5772C143.4 89.8186 143.5 90.1177 143.5 90.4744C143.5 90.7799 143.416 91.0543 143.25 91.2976C143.085 91.539 142.86 91.7293 142.575 91.8683C142.29 92.0073 141.965 92.0768 141.601 92.0768ZM144.643 92L147.156 87.0281V86.9842H144.259V86.3805H147.859V87.0171L145.356 92H144.643ZM148.738 87.7854H149.385V92.3073C149.385 92.5671 149.341 92.7921 149.251 92.9823C149.163 93.1726 149.03 93.3198 148.85 93.4241C148.673 93.5283 148.449 93.5805 148.178 93.5805C148.156 93.5805 148.134 93.5805 148.112 93.5805C148.09 93.5805 148.068 93.5805 148.046 93.5805V92.9768C148.068 92.9768 148.089 92.9768 148.107 92.9768C148.125 92.9768 148.145 92.9768 148.167 92.9768C148.365 92.9768 148.509 92.9183 148.601 92.8012C148.692 92.686 148.738 92.5213 148.738 92.3073V87.7854ZM149.056 87.083C148.93 87.083 148.821 87.04 148.73 86.954C148.64 86.868 148.595 86.7647 148.595 86.6439C148.595 86.5232 148.64 86.4199 148.73 86.3339C148.821 86.2479 148.93 86.2049 149.056 86.2049C149.182 86.2049 149.29 86.2479 149.38 86.3339C149.471 86.4199 149.517 86.5232 149.517 86.6439C149.517 86.7647 149.471 86.868 149.38 86.954C149.29 87.04 149.182 87.083 149.056 87.083ZM151.065 89.4647V92H150.417V87.7854H151.043V88.4439H151.097C151.196 88.2299 151.346 88.058 151.547 87.9281C151.749 87.7964 152.008 87.7305 152.327 87.7305C152.612 87.7305 152.862 87.7891 153.076 87.9061C153.29 88.0214 153.456 88.197 153.575 88.433C153.694 88.6671 153.754 88.9634 153.754 89.322V92H153.106V89.3659C153.106 89.0348 153.02 88.7769 152.848 88.5921C152.676 88.4055 152.44 88.3122 152.14 88.3122C151.933 88.3122 151.749 88.357 151.586 88.4467C151.425 88.5363 151.298 88.6671 151.204 88.839C151.111 89.011 151.065 89.2195 151.065 89.4647ZM155.101 92H154.387L156.451 86.3805H157.153L159.216 92H158.503L156.824 87.2695H156.78L155.101 92ZM155.364 89.8049H158.24V90.4085H155.364V89.8049ZM161.726 87.7854V88.3342H159.454V87.7854H161.726ZM160.135 92V87.2037C160.135 86.9622 160.191 86.761 160.305 86.6C160.418 86.4391 160.566 86.3183 160.747 86.2378C160.928 86.1574 161.119 86.1171 161.32 86.1171C161.479 86.1171 161.609 86.1299 161.71 86.1555C161.81 86.1811 161.885 86.2049 161.935 86.2269L161.748 86.7866C161.715 86.7756 161.67 86.7619 161.611 86.7455C161.554 86.729 161.479 86.7208 161.386 86.7208C161.172 86.7208 161.017 86.7747 160.922 86.8827C160.829 86.9906 160.782 87.1488 160.782 87.3573V92H160.135ZM162.479 87.7854H163.127V92.3073C163.127 92.5671 163.082 92.7921 162.992 92.9823C162.905 93.1726 162.771 93.3198 162.592 93.4241C162.414 93.5283 162.19 93.5805 161.919 93.5805C161.898 93.5805 161.876 93.5805 161.854 93.5805C161.832 93.5805 161.81 93.5805 161.788 93.5805V92.9768C161.81 92.9768 161.83 92.9768 161.848 92.9768C161.866 92.9768 161.887 92.9768 161.908 92.9768C162.106 92.9768 162.251 92.9183 162.342 92.8012C162.433 92.686 162.479 92.5213 162.479 92.3073V87.7854ZM162.798 87.083C162.671 87.083 162.562 87.04 162.471 86.954C162.381 86.868 162.337 86.7647 162.337 86.6439C162.337 86.5232 162.381 86.4199 162.471 86.3339C162.562 86.2479 162.671 86.2049 162.798 86.2049C162.924 86.2049 163.032 86.2479 163.121 86.3339C163.213 86.4199 163.258 86.5232 163.258 86.6439C163.258 86.7647 163.213 86.868 163.121 86.954C163.032 87.04 162.924 87.083 162.798 87.083ZM163.939 86.9842V86.3805H168.153V86.9842H166.386V92H165.706V86.9842H163.939ZM169.126 92L171.639 87.0281V86.9842H168.742V86.3805H172.342V87.0171L169.839 92H169.126ZM175.897 88.7293L175.315 88.8939C175.279 88.797 175.225 88.7028 175.153 88.6113C175.084 88.518 174.989 88.4412 174.868 88.3808C174.747 88.3205 174.593 88.2903 174.404 88.2903C174.146 88.2903 173.931 88.3497 173.759 88.4686C173.589 88.5857 173.504 88.7348 173.504 88.9159C173.504 89.0768 173.563 89.204 173.68 89.2973C173.797 89.3906 173.98 89.4683 174.229 89.5305L174.854 89.6842C175.231 89.7756 175.512 89.9156 175.697 90.104C175.881 90.2906 175.974 90.5311 175.974 90.8256C175.974 91.0671 175.904 91.2829 175.765 91.4732C175.628 91.6634 175.436 91.8134 175.189 91.9232C174.942 92.0329 174.655 92.0878 174.327 92.0878C173.898 92.0878 173.542 91.9945 173.26 91.8079C172.978 91.6213 172.8 91.3488 172.725 90.9903L173.34 90.8366C173.398 91.0634 173.509 91.2335 173.672 91.347C173.836 91.4604 174.051 91.5171 174.316 91.5171C174.618 91.5171 174.858 91.4531 175.035 91.325C175.215 91.1951 175.304 91.0396 175.304 90.8585C175.304 90.7122 175.253 90.5896 175.151 90.4909C175.048 90.3903 174.891 90.3153 174.679 90.2659L173.976 90.1012C173.59 90.0098 173.307 89.868 173.126 89.6759C172.946 89.482 172.857 89.2397 172.857 88.9488C172.857 88.711 172.923 88.5006 173.057 88.3177C173.192 88.1348 173.376 87.9912 173.609 87.8869C173.843 87.7827 174.108 87.7305 174.404 87.7305C174.821 87.7305 175.149 87.822 175.387 88.0049C175.626 88.1878 175.796 88.4293 175.897 88.7293ZM178.034 92.0988C177.767 92.0988 177.525 92.0485 177.307 91.9479C177.089 91.8454 176.917 91.6982 176.788 91.5061C176.66 91.3122 176.596 91.0781 176.596 90.8037C176.596 90.5622 176.644 90.3665 176.739 90.2165C176.834 90.0646 176.961 89.9457 177.12 89.8598C177.28 89.7738 177.455 89.7098 177.647 89.6677C177.841 89.6238 178.036 89.589 178.232 89.5634C178.488 89.5305 178.695 89.5058 178.855 89.4893C179.016 89.4711 179.133 89.4409 179.206 89.3988C179.281 89.3567 179.318 89.2836 179.318 89.1793V89.1573C179.318 88.8866 179.244 88.6762 179.096 88.5262C178.95 88.3762 178.727 88.3012 178.429 88.3012C178.12 88.3012 177.878 88.3689 177.702 88.5043C177.527 88.6397 177.403 88.7842 177.332 88.9378L176.717 88.7183C176.827 88.4622 176.973 88.2628 177.156 88.1201C177.341 87.9756 177.542 87.875 177.76 87.8183C177.979 87.7598 178.195 87.7305 178.407 87.7305C178.543 87.7305 178.698 87.747 178.874 87.7799C179.051 87.811 179.222 87.8759 179.387 87.9747C179.553 88.0735 179.692 88.2226 179.801 88.422C179.911 88.6214 179.966 88.8884 179.966 89.2232V92H179.318V91.4293H179.285C179.242 91.5207 179.168 91.6186 179.066 91.7229C178.963 91.8271 178.827 91.9159 178.657 91.989C178.487 92.0622 178.279 92.0988 178.034 92.0988ZM178.133 91.5171C178.389 91.5171 178.605 91.4668 178.781 91.3662C178.958 91.2656 179.092 91.1357 179.181 90.9765C179.273 90.8174 179.318 90.65 179.318 90.4744V89.8817C179.291 89.9146 179.231 89.9448 179.137 89.9723C179.046 89.9979 178.94 90.0207 178.819 90.0409C178.7 90.0592 178.584 90.0756 178.47 90.0903C178.359 90.1031 178.268 90.114 178.199 90.1232C178.031 90.1451 177.873 90.1808 177.727 90.2302C177.582 90.2778 177.465 90.35 177.376 90.447C177.288 90.5421 177.244 90.672 177.244 90.8366C177.244 91.0616 177.327 91.2317 177.494 91.347C177.662 91.4604 177.875 91.5171 178.133 91.5171Z" fill="#4D4D4D"/>
</svg>
