<svg width="24" height="24" viewBox="0 0 24 24" fill="none" xmlns="http://www.w3.org/2000/svg">
<path d="M18.1487 6.5454L16.977 8.83318L18.3635 1.93011C18.4562 1.50207 18.369 1.05463 18.1223 0.692534C17.8756 0.330439 17.4911 0.0857449 17.0587 0.0152306C16.1992 -0.101805 15.396 0.467438 15.2219 1.31727L14.4848 4.558L13.7039 8.17584L13.6114 1.96692C13.5984 1.08302 12.8713 0.377143 11.9874 0.390147C11.1035 0.403151 10.3976 1.13027 10.4106 2.01417V9.01597L9.81039 7.75294C9.47595 7.03736 8.66824 6.67416 7.91108 6.89907L5.75884 7.53205C5.50096 7.61154 5.27678 7.77473 5.12201 7.9958L4.07529 9.48576C3.80294 9.8647 3.72125 10.3484 3.85404 10.7957C3.85605 10.8017 3.85953 10.8068 3.86118 10.8129C3.2619 10.8856 2.81061 11.3931 2.80859 11.9968V15.0956C2.80859 15.4179 2.93845 15.7267 3.16867 15.9524L7.0585 19.6277C7.18652 19.7537 7.28561 19.9061 7.34898 20.0743C7.41913 20.2477 7.50649 20.4138 7.60979 20.5699V22.7998C7.60979 23.4626 8.14717 24 8.81018 24H15.2118C15.8748 24 16.4122 23.4626 16.4122 22.7998V20.6087C16.764 20.1426 17.0191 19.6109 17.1624 19.0448C17.3895 18.1334 17.5474 17.2061 17.6349 16.2707C17.6889 15.8167 17.7441 15.3566 17.8157 14.8915C17.9457 14.0952 18.2034 13.3252 18.5791 12.6111L21.0533 7.88701C21.2454 7.49213 21.2667 7.03589 21.1123 6.62489C20.9577 6.21408 20.641 5.88477 20.2364 5.71443C19.4302 5.39501 18.5148 5.75931 18.1487 6.5454ZM8.30596 13.2576L7.45851 14.5175C7.34459 14.4754 7.23689 14.4181 7.13854 14.3467L6.56948 13.9174C6.46874 13.8417 6.4094 13.7232 6.4094 13.5972V13.1972C6.41032 12.6721 6.23742 12.1616 5.91782 11.7451C6.09016 11.6697 6.24713 11.5631 6.38101 11.4307L7.30484 10.4744C7.37407 10.4132 7.46968 10.3913 7.55851 10.4162C7.64752 10.4411 7.71767 10.5094 7.74496 10.5977L8.34168 12.9763C8.36714 13.071 8.3545 13.1721 8.30633 13.2576H8.30596ZM19.9238 6.45145C20.1278 6.5368 20.2873 6.70328 20.3639 6.91061C20.4401 7.11062 20.4311 7.33297 20.3388 7.52601L17.8693 12.2406C17.4534 13.0322 17.1682 13.886 17.025 14.7688C16.9519 15.2438 16.8955 15.713 16.8402 16.1756C16.7567 17.0713 16.6063 17.9594 16.3906 18.8327C16.1437 19.7297 15.6003 20.7992 14.4116 20.7992C14.1907 20.7992 14.0116 20.9783 14.0116 21.1994C14.0116 21.4203 14.1907 21.5994 14.4116 21.5994C14.8314 21.6012 15.2448 21.4952 15.612 21.2917V22.7998C15.612 23.0207 15.4329 23.1998 15.2118 23.1998H8.81018C8.58912 23.1998 8.40999 23.0207 8.40999 22.7998V21.316C8.78033 21.5089 9.19298 21.6062 9.61038 21.5994C9.83127 21.5994 10.0104 21.4203 10.0104 21.1994C10.0104 20.9783 9.83127 20.7992 9.61038 20.7992C8.92978 20.8457 8.30413 20.4254 8.08984 19.7777C7.98398 19.5014 7.81859 19.2515 7.60576 19.0458L3.72473 15.3786C3.64982 15.3035 3.60806 15.2016 3.60879 15.0956V11.9968C3.60715 11.7798 3.78023 11.6016 3.99726 11.5968C4.42365 11.5937 4.83373 11.7609 5.13648 12.0615C5.43905 12.3618 5.6092 12.7706 5.6092 13.1972V13.5972C5.61012 13.9749 5.78778 14.3302 6.08943 14.5575L6.65996 14.9857C6.9204 15.1753 7.21986 15.3044 7.53653 15.3637C7.54825 15.3665 7.55906 15.3685 7.5706 15.3705C8.05412 15.4558 8.5523 15.3804 8.98894 15.1557C9.11697 15.0917 9.20104 14.9644 9.20964 14.8218C9.21825 14.6791 9.15012 14.5425 9.03089 14.4637C8.91147 14.3848 8.75927 14.3756 8.63124 14.4395C8.56238 14.4727 8.49113 14.5007 8.41805 14.5236L8.97814 13.6924C9.14664 13.4199 9.19737 13.0906 9.11862 12.7798L8.52318 10.4056C8.40871 9.93009 7.98288 9.59528 7.49386 9.5962C7.20356 9.59345 6.92553 9.71159 6.72589 9.92221L5.80939 10.8697C5.54528 11.1283 5.12751 11.1424 4.84655 10.9023C4.56577 10.6622 4.51467 10.2473 4.72896 9.94639L5.77734 8.45387C5.82954 8.38024 5.90463 8.32603 5.99089 8.29947L8.13746 7.66814C8.51695 7.55513 8.92191 7.73664 9.09023 8.09507L10.2981 10.646C10.3952 10.8473 10.6181 10.9552 10.8362 10.9061C11.0542 10.8568 11.2095 10.6638 11.2108 10.4404V2.00703C11.2033 1.56508 11.5557 1.20079 11.9976 1.19346C12.4396 1.18595 12.8039 1.53816 12.8112 1.98011L12.9432 10.8226C12.9447 11.0774 13.1379 11.2904 13.3916 11.316C13.6453 11.3418 13.8775 11.1724 13.9303 10.923L15.2658 4.73364L16.0032 1.49292C16.0821 1.05628 16.4871 0.756272 16.9279 0.807921C17.1455 0.842354 17.3391 0.965434 17.4626 1.14786C17.5862 1.33028 17.6287 1.55574 17.58 1.77058L15.7367 10.9442C15.6884 11.1787 15.8199 11.4129 16.0453 11.4935C16.2708 11.5741 16.521 11.4763 16.6321 11.2642L18.8644 6.9031C19.0463 6.49998 19.5069 6.30364 19.9238 6.45145Z" fill="black"/>
<path d="M11.2656 13.2033C11.124 13.183 10.9824 13.2397 10.8941 13.352C10.8059 13.4645 10.7841 13.6156 10.8374 13.7482C10.8905 13.881 11.0104 13.9751 11.152 13.9954C11.8722 14.0987 13.8726 14.6196 14.4515 15.7788C14.5504 15.9764 14.7907 16.0568 14.9885 15.9579C15.1864 15.8592 15.2666 15.6187 15.1679 15.4211C14.284 13.6533 11.3879 13.2209 11.2656 13.2033Z" fill="black"/>
<path d="M10.9571 14.8248C10.8237 14.7682 10.6701 14.788 10.5554 14.8768C10.4409 14.9655 10.3833 15.1092 10.4049 15.2527C10.4265 15.3959 10.5237 15.5164 10.6595 15.5675C10.677 15.5746 12.4086 16.2964 12.4086 18.797C12.4086 19.0181 12.5877 19.1972 12.8088 19.1972C13.0296 19.1972 13.2088 19.0181 13.2088 18.797C13.2088 15.7607 11.0483 14.8616 10.9571 14.8248Z" fill="black"/>
</svg>
