<svg width="24" height="24" viewBox="0 0 24 24" fill="none" xmlns="http://www.w3.org/2000/svg">
<path d="M6.29844 23.6267C5.02344 23.6267 3.82344 23.1017 2.99844 22.2767C1.19844 20.4017 1.19844 17.4767 2.99844 15.6017L12.8984 5.62671C13.4984 5.02671 14.2484 4.72671 14.9984 4.72671C15.8234 4.72671 16.5734 5.02671 17.0984 5.62671C17.6984 6.22671 17.9984 6.97671 17.9984 7.72671C17.9984 8.47671 17.6984 9.30171 17.0984 9.82671L10.3484 16.5767L9.52344 15.7517L16.2734 9.00171C16.6484 8.62671 16.7984 8.17671 16.7984 7.65171C16.7984 7.12671 16.5734 6.67671 16.2734 6.30171C15.8984 5.92671 15.4484 5.77671 14.9234 5.77671C14.3984 5.77671 13.9484 6.00171 13.5734 6.30171L3.74844 16.3517C2.32344 17.7767 2.32344 20.0267 3.74844 21.4517C4.42344 22.1267 5.32344 22.5017 6.29844 22.5017C7.27344 22.5017 8.17344 22.1267 8.84844 21.4517L19.7984 10.5017C21.8234 8.47671 21.8234 5.17671 19.7984 3.15171C18.8234 2.17671 17.4734 1.65171 16.1234 1.65171C14.6984 1.65171 13.4234 2.17671 12.4484 3.15171L5.09844 10.5017L4.27344 9.67671L11.6234 2.25171C12.8234 1.05171 14.3984 0.376709 16.1234 0.376709C17.8484 0.376709 19.4234 1.05171 20.6234 2.25171C23.0984 4.72671 23.0984 8.77671 20.6234 11.2517L9.59844 22.2017C8.69844 23.1017 7.49844 23.6267 6.29844 23.6267Z" fill="black"/>
</svg>
