<svg width="24" height="24" viewBox="0 0 24 24" fill="none" xmlns="http://www.w3.org/2000/svg">
<path fill-rule="evenodd" clip-rule="evenodd" d="M7.8769 4.48438C7.8769 5.11556 7.36518 5.62723 6.73404 5.62723C6.10284 5.62723 5.59116 5.11556 5.59116 4.48438C5.59116 3.85319 6.10284 3.34152 6.73404 3.34152C7.36518 3.34152 7.8769 3.85319 7.8769 4.48438ZM6.82884 6.48216C6.8425 6.48154 6.8561 6.48074 6.86964 6.47988L7.8593 11.4282C7.34981 11.7253 7.00747 12.2776 7.00747 12.91C7.00747 13.384 7.19981 13.8131 7.51073 14.1234L6.01873 17.6047C5.92313 17.5751 5.82444 17.5526 5.7233 17.5375L6.82884 6.48216ZM8.31598 5.70824C8.45604 5.52742 8.56581 5.32192 8.6377 5.09938L16.106 6.69971C16.1407 6.85874 16.19 7.01222 16.2527 7.15874L12.4199 9.81222L8.31598 5.70824ZM8.7193 4.24026C8.59884 3.25084 7.75593 2.48438 6.73404 2.48438C5.62945 2.48438 4.73402 3.37981 4.73402 4.48438C4.73402 4.95156 4.89421 5.38134 5.16265 5.72176L2.2834 10.5205C2.22099 10.5122 2.15732 10.5079 2.09263 10.5079C1.30366 10.5079 0.664062 11.1475 0.664062 11.9365C0.664062 12.6817 1.23466 13.2936 1.96279 13.3592L3.9061 18.2175C3.60765 18.5669 3.42745 19.0203 3.42745 19.5158C3.42745 20.6204 4.32287 21.5158 5.42745 21.5158C6.3873 21.5158 7.18918 20.8397 7.38284 19.9377L15.1249 19.3847C15.3629 19.8425 15.8415 20.1552 16.3932 20.1552C17.1822 20.1552 17.8218 19.5156 17.8218 18.7266C17.8218 18.5479 17.7889 18.3769 17.729 18.2191L20.8779 15.0702C21.5158 15.3769 22.3043 15.2658 22.8331 14.737C23.5026 14.0675 23.5026 12.9821 22.8331 12.3126C22.4347 11.9141 21.8888 11.7529 21.3711 11.8287L19.8941 8.38222C20.6682 7.93902 21.1897 7.10496 21.1897 6.14908C21.1897 4.72891 20.0384 3.57764 18.6183 3.57764C17.3114 3.57764 16.2321 4.55269 16.0684 5.81502L8.7193 4.24026ZM5.83307 6.27045L3.06267 10.8877C3.34467 11.1487 3.52121 11.5219 3.52121 11.9365C3.52121 12.4636 3.23571 12.9241 2.81091 13.1716L4.61701 17.6868C4.69415 17.6526 4.77386 17.6231 4.85578 17.5987L5.98181 6.33811C5.93118 6.31754 5.88153 6.29496 5.83307 6.27045ZM20.3326 6.14908C20.3326 7.09582 19.5651 7.86336 18.6183 7.86336C17.6715 7.86336 16.904 7.09582 16.904 6.14908C16.904 5.2023 17.6715 4.43479 18.6183 4.43479C19.5651 4.43479 20.3326 5.2023 20.3326 6.14908ZM18.8829 8.70708L17.2338 17.5021L20.2211 14.5149C19.7466 13.8456 19.8091 12.9122 20.4087 12.3126C20.4636 12.2577 20.5212 12.2074 20.5812 12.1615L19.0882 8.67765C19.0206 8.69016 18.9522 8.69999 18.8829 8.70708ZM7.37953 19.0786C7.32998 18.8564 7.24341 18.6481 7.12667 18.4605L11.3521 15.2914L15.1376 18.0446C15.0562 18.1942 15.0007 18.36 14.9772 18.5359L7.37953 19.0786ZM7.00433 17.4808L8.25598 14.5603C8.4041 14.602 8.56033 14.6243 8.72175 14.6243C9.15433 14.6243 9.54947 14.4641 9.85107 14.1998L10.6268 14.7639L7.00433 17.4808ZM11.3443 14.2259L10.3348 13.4917C10.4003 13.3101 10.436 13.1142 10.436 12.91C10.436 12.6968 10.3971 12.4927 10.326 12.3044L12.3196 10.9241L13.3597 11.9641C13.1983 12.1955 13.1036 12.4769 13.1036 12.7805C13.1036 12.8215 13.1054 12.8623 13.1088 12.9025L11.3443 14.2259ZM14.5322 11.3519C14.3611 11.3519 14.197 11.3819 14.0448 11.4371L13.0359 10.4282L16.7167 7.88005C16.8245 7.99839 16.9432 8.10668 17.0713 8.20325L14.9494 11.4138C14.8174 11.3735 14.6774 11.3519 14.5322 11.3519ZM15.9608 12.7805C15.9608 12.4477 15.847 12.1415 15.6563 11.8987L17.8368 8.59959C17.8974 8.61891 17.959 8.63599 18.0214 8.65085L16.4082 17.2547L15.338 13.9602C15.714 13.7029 15.9608 13.2705 15.9608 12.7805ZM13.4526 13.7161C13.7116 14.0146 14.0923 14.2047 14.5176 14.2089L15.5063 17.2528L12.0695 14.7534L13.4526 13.7161ZM11.7036 10.3081L9.83204 11.6038C9.5329 11.3493 9.14524 11.1958 8.72175 11.1958C8.71015 11.1958 8.69855 11.1959 8.68701 11.1961L7.7109 6.31536L11.7036 10.3081ZM16.3932 19.298C16.7087 19.298 16.9646 19.0422 16.9646 18.7266C16.9646 18.411 16.7087 18.1552 16.3932 18.1552C16.0776 18.1552 15.8218 18.411 15.8218 18.7266C15.8218 19.0422 16.0776 19.298 16.3932 19.298ZM8.72175 13.7672C9.19513 13.7672 9.5789 13.3834 9.5789 12.91C9.5789 12.4366 9.19513 12.0529 8.72175 12.0529C8.24833 12.0529 7.86461 12.4366 7.86461 12.91C7.86461 13.3834 8.24833 13.7672 8.72175 13.7672ZM2.66406 11.9365C2.66406 12.252 2.40823 12.5079 2.09263 12.5079C1.77705 12.5079 1.52121 12.252 1.52121 11.9365C1.52121 11.6208 1.77705 11.365 2.09263 11.365C2.40823 11.365 2.66406 11.6208 2.66406 11.9365ZM14.5322 13.3519C14.8478 13.3519 15.1036 13.0961 15.1036 12.7805C15.1036 12.4649 14.8478 12.209 14.5322 12.209C14.2166 12.209 13.9608 12.4649 13.9608 12.7805C13.9608 13.0961 14.2166 13.3519 14.5322 13.3519ZM21.0148 14.1308C20.6801 13.7961 20.6801 13.2534 21.0148 12.9187C21.3496 12.5839 21.8923 12.5839 22.227 12.9187C22.5618 13.2534 22.5618 13.7961 22.227 14.1308C21.8923 14.4656 21.3496 14.4656 21.0148 14.1308ZM5.42745 20.6587C6.05861 20.6587 6.57033 20.147 6.57033 19.5158C6.57033 18.8846 6.05861 18.373 5.42745 18.373C4.79626 18.373 4.28459 18.8846 4.28459 19.5158C4.28459 20.147 4.79626 20.6587 5.42745 20.6587Z" fill="black"/>
</svg>
