<svg width="24" height="24" viewBox="0 0 24 24" fill="none" xmlns="http://www.w3.org/2000/svg">
<path d="M1.72787 15.4077C1.43051 15.6963 1.42318 16.1709 1.71176 16.4683L4.59604 19.4412C4.59622 19.4413 4.59649 19.4414 4.59668 19.4416C4.733 19.5827 4.92242 19.6719 5.13437 19.6719C5.34631 19.6719 5.53573 19.5827 5.67205 19.4416C5.67224 19.4414 5.67251 19.4413 5.6727 19.4412L8.55771 16.4683C8.84628 16.1709 8.83896 15.6963 8.54159 15.4077C8.24423 15.1191 7.76962 15.1265 7.48105 15.4238L5.88437 17.0694V5.08203C5.88437 4.66748 5.54892 4.33203 5.13437 4.33203C4.71981 4.33203 4.38437 4.66748 4.38437 5.08203V17.0691L2.78842 15.4238C2.49984 15.1265 2.02523 15.1191 1.72787 15.4077Z" fill="black"/>
<path d="M20.1602 9.69531C20.1602 9.28076 19.8247 8.94531 19.4102 8.94531H11.2715C10.8569 8.94531 10.5215 9.28076 10.5215 9.69531C10.5215 10.1099 10.8569 10.4453 11.2715 10.4453H19.4102C19.8247 10.4453 20.1602 10.1099 20.1602 9.69531Z" fill="black"/>
<path d="M17.8201 14.3047C17.8201 13.8901 17.4846 13.5547 17.0701 13.5547H11.2715C10.8569 13.5547 10.5215 13.8901 10.5215 14.3047C10.5215 14.7192 10.8569 15.0547 11.2715 15.0547H17.0701C17.4846 15.0547 17.8201 14.7192 17.8201 14.3047Z" fill="black"/>
<path d="M11.2715 18.168C10.8569 18.168 10.5215 18.5034 10.5215 18.918C10.5215 19.3325 10.8569 19.668 11.2715 19.668H14.73C15.1445 19.668 15.48 19.3325 15.48 18.918C15.48 18.5034 15.1445 18.168 14.73 18.168H11.2715Z" fill="black"/>
<path d="M21.7502 4.33203H11.2715C10.8569 4.33203 10.5215 4.66748 10.5215 5.08203C10.5215 5.49658 10.8569 5.83203 11.2715 5.83203H21.7502C22.1648 5.83203 22.5002 5.49658 22.5002 5.08203C22.5002 4.66748 22.1648 4.33203 21.7502 4.33203Z" fill="black"/>
</svg>
