<svg width="240" height="202" viewBox="0 0 240 202" fill="none" xmlns="http://www.w3.org/2000/svg">
<rect width="239.53" height="202" fill="#F1F1F1"/>
<rect x="8.83203" y="8.83008" width="221.869" height="30.9071" rx="8" fill="white"/>
<path d="M23.6247 23.2053C23.5918 22.9273 23.4583 22.7114 23.2241 22.5578C22.99 22.4041 22.7028 22.3273 22.3625 22.3273C22.1138 22.3273 21.8961 22.3675 21.7095 22.448C21.5247 22.5285 21.3802 22.6392 21.276 22.78C21.1735 22.9209 21.1223 23.0809 21.1223 23.2602C21.1223 23.4102 21.158 23.5392 21.2293 23.6471C21.3025 23.7532 21.3958 23.8419 21.5092 23.9132C21.6226 23.9828 21.7415 24.0404 21.8659 24.0861C21.9903 24.13 22.1046 24.1657 22.2089 24.1931L22.7796 24.3468C22.926 24.3852 23.0888 24.4382 23.268 24.5059C23.4491 24.5736 23.622 24.666 23.7866 24.783C23.9531 24.8983 24.0903 25.0465 24.1982 25.2276C24.3061 25.4087 24.3601 25.6309 24.3601 25.8943C24.3601 26.198 24.2805 26.4724 24.1214 26.7175C23.9641 26.9626 23.7336 27.1574 23.4299 27.3019C23.1281 27.4464 22.7613 27.5187 22.3296 27.5187C21.9272 27.5187 21.5787 27.4538 21.2842 27.3239C20.9915 27.194 20.761 27.0129 20.5927 26.7806C20.4263 26.5483 20.3321 26.2785 20.3101 25.9712H21.0125C21.0308 26.1833 21.1022 26.359 21.2266 26.498C21.3528 26.6352 21.5119 26.7376 21.704 26.8053C21.8979 26.8711 22.1064 26.9041 22.3296 26.9041C22.5894 26.9041 22.8226 26.862 23.0293 26.7779C23.236 26.6919 23.3997 26.573 23.5205 26.4211C23.6412 26.2675 23.7016 26.0882 23.7016 25.8833C23.7016 25.6968 23.6494 25.5449 23.5452 25.4279C23.4409 25.3108 23.3037 25.2157 23.1336 25.1425C22.9635 25.0693 22.7796 25.0053 22.5821 24.9504L21.8906 24.7529C21.4516 24.6266 21.104 24.4465 20.8479 24.2123C20.5918 23.9782 20.4638 23.6718 20.4638 23.2931C20.4638 22.9785 20.5488 22.7041 20.719 22.47C20.8909 22.234 21.1214 22.0511 21.4104 21.9212C21.7013 21.7895 22.026 21.7236 22.3845 21.7236C22.7467 21.7236 23.0686 21.7886 23.3503 21.9184C23.632 22.0465 23.8552 22.2221 24.0198 22.4453C24.1863 22.6684 24.2741 22.9218 24.2833 23.2053H23.6247ZM25.6536 29.0004C25.5439 29.0004 25.446 28.9913 25.36 28.973C25.2741 28.9565 25.2146 28.94 25.1817 28.9236L25.3463 28.3528C25.5036 28.3931 25.6427 28.4077 25.7634 28.3967C25.8841 28.3858 25.9911 28.3318 26.0844 28.2349C26.1795 28.1397 26.2664 27.9852 26.3451 27.7711L26.4658 27.4419L24.9073 23.2053H25.6097L26.7731 26.5638H26.817L27.9804 23.2053H28.6829L26.8939 28.0346C26.8134 28.2522 26.7137 28.4324 26.5948 28.5751C26.4759 28.7196 26.3378 28.8266 26.1805 28.8961C26.025 28.9656 25.8494 29.0004 25.6536 29.0004ZM30.0306 24.8846V27.4199H29.3831V23.2053H30.0087V23.8638H30.0636C30.1623 23.6498 30.3123 23.4779 30.5135 23.348C30.7148 23.2163 30.9745 23.1504 31.2928 23.1504C31.5782 23.1504 31.8279 23.209 32.0419 23.326C32.2559 23.4413 32.4224 23.6169 32.5413 23.8529C32.6602 24.087 32.7196 24.3834 32.7196 24.7419V27.4199H32.0721V24.7858C32.0721 24.4547 31.9861 24.1968 31.8141 24.012C31.6422 23.8254 31.4062 23.7321 31.1062 23.7321C30.8995 23.7321 30.7148 23.777 30.552 23.8666C30.391 23.9562 30.2639 24.087 30.1706 24.259C30.0773 24.4309 30.0306 24.6395 30.0306 24.8846ZM35.4606 27.5077C35.0801 27.5077 34.7463 27.4172 34.4591 27.2361C34.1737 27.055 33.9505 26.8016 33.7896 26.476C33.6304 26.1504 33.5508 25.7699 33.5508 25.3346C33.5508 24.8955 33.6304 24.5123 33.7896 24.1849C33.9505 23.8574 34.1737 23.6032 34.4591 23.4221C34.7463 23.241 35.0801 23.1504 35.4606 23.1504C35.8411 23.1504 36.174 23.241 36.4594 23.4221C36.7465 23.6032 36.9697 23.8574 37.1289 24.1849C37.2898 24.5123 37.3703 24.8955 37.3703 25.3346C37.3703 25.7699 37.2898 26.1504 37.1289 26.476C36.9697 26.8016 36.7465 27.055 36.4594 27.2361C36.174 27.4172 35.8411 27.5077 35.4606 27.5077ZM35.4606 26.926C35.7496 26.926 35.9874 26.8519 36.174 26.7038C36.3606 26.5556 36.4987 26.3608 36.5883 26.1193C36.6779 25.8779 36.7228 25.6163 36.7228 25.3346C36.7228 25.0529 36.6779 24.7904 36.5883 24.5471C36.4987 24.3038 36.3606 24.1071 36.174 23.9571C35.9874 23.8071 35.7496 23.7321 35.4606 23.7321C35.1716 23.7321 34.9338 23.8071 34.7472 23.9571C34.5606 24.1071 34.4225 24.3038 34.3328 24.5471C34.2432 24.7904 34.1984 25.0529 34.1984 25.3346C34.1984 25.6163 34.2432 25.8779 34.3328 26.1193C34.4225 26.3608 34.5606 26.5556 34.7472 26.7038C34.9338 26.8519 35.1716 26.926 35.4606 26.926ZM38.8518 24.8846V27.4199H38.2043V23.2053H38.8299V23.8638H38.8848C38.9835 23.6498 39.1335 23.4779 39.3347 23.348C39.536 23.2163 39.7957 23.1504 40.114 23.1504C40.3994 23.1504 40.6491 23.209 40.8631 23.326C41.0771 23.4413 41.2436 23.6169 41.3625 23.8529C41.4814 24.087 41.5408 24.3834 41.5408 24.7419V27.4199H40.8933V24.7858C40.8933 24.4547 40.8073 24.1968 40.6353 24.012C40.4634 23.8254 40.2274 23.7321 39.9274 23.7321C39.7207 23.7321 39.536 23.777 39.3732 23.8666C39.2122 23.9562 39.0851 24.087 38.9918 24.259C38.8985 24.4309 38.8518 24.6395 38.8518 24.8846ZM42.8358 29.0004C42.726 29.0004 42.6281 28.9913 42.5422 28.973C42.4562 28.9565 42.3967 28.94 42.3638 28.9236L42.5284 28.3528C42.6858 28.3931 42.8248 28.4077 42.9455 28.3967C43.0662 28.3858 43.1732 28.3318 43.2665 28.2349C43.3617 28.1397 43.4486 27.9852 43.5272 27.7711L43.6479 27.4419L42.0894 23.2053H42.7918L43.9553 26.5638H43.9992L45.1626 23.2053H45.865L44.076 28.0346C43.9955 28.2522 43.8958 28.4324 43.7769 28.5751C43.658 28.7196 43.5199 28.8266 43.3626 28.8961C43.2071 28.9656 43.0315 29.0004 42.8358 29.0004ZM46.5652 27.4199V23.2053H47.1908V23.8638H47.2457C47.3335 23.6389 47.4752 23.4642 47.671 23.3398C47.8667 23.2135 48.1018 23.1504 48.3761 23.1504C48.6542 23.1504 48.8856 23.2135 49.0703 23.3398C49.2569 23.4642 49.4024 23.6389 49.5066 23.8638H49.5505C49.6585 23.6462 49.8203 23.4733 50.0362 23.3453C50.252 23.2154 50.5109 23.1504 50.8127 23.1504C51.1895 23.1504 51.4978 23.2684 51.7374 23.5044C51.977 23.7385 52.0969 24.1035 52.0969 24.5992V27.4199H51.4493V24.5992C51.4493 24.2882 51.3642 24.066 51.1941 23.9324C51.024 23.7989 50.8237 23.7321 50.5932 23.7321C50.2969 23.7321 50.0673 23.8218 49.9045 24.001C49.7417 24.1785 49.6603 24.4035 49.6603 24.676V27.4199H49.0018V24.5334C49.0018 24.2937 48.924 24.1007 48.7685 23.9544C48.613 23.8062 48.4127 23.7321 48.1676 23.7321C47.9993 23.7321 47.842 23.777 47.6957 23.8666C47.5512 23.9562 47.4341 24.0806 47.3444 24.2398C47.2566 24.3971 47.2127 24.5791 47.2127 24.7858V27.4199H46.5652ZM56.1116 24.1492L55.5299 24.3138C55.4934 24.2169 55.4394 24.1227 55.3681 24.0312C55.2985 23.9379 55.2034 23.8611 55.0827 23.8007C54.962 23.7404 54.8074 23.7102 54.619 23.7102C54.361 23.7102 54.1461 23.7696 53.9742 23.8885C53.804 24.0056 53.719 24.1547 53.719 24.3358C53.719 24.4968 53.7775 24.6239 53.8946 24.7172C54.0117 24.8105 54.1946 24.8882 54.4434 24.9504L55.069 25.1041C55.4458 25.1955 55.7266 25.3355 55.9113 25.5239C56.0961 25.7105 56.1885 25.951 56.1885 26.2455C56.1885 26.487 56.119 26.7029 55.9799 26.8931C55.8427 27.0833 55.6507 27.2333 55.4037 27.3431C55.1568 27.4528 54.8696 27.5077 54.5421 27.5077C54.1123 27.5077 53.7565 27.4144 53.4748 27.2279C53.1931 27.0413 53.0147 26.7687 52.9397 26.4102L53.5543 26.2565C53.6129 26.4833 53.7236 26.6535 53.8864 26.7669C54.051 26.8803 54.2659 26.937 54.5312 26.937C54.833 26.937 55.0726 26.873 55.2501 26.7449C55.4293 26.615 55.519 26.4596 55.519 26.2785C55.519 26.1321 55.4677 26.0096 55.3653 25.9108C55.2629 25.8102 55.1056 25.7352 54.8934 25.6858L54.1909 25.5212C53.805 25.4297 53.5214 25.2879 53.3403 25.0959C53.1611 24.902 53.0714 24.6596 53.0714 24.3687C53.0714 24.1309 53.1382 23.9206 53.2717 23.7376C53.4071 23.5547 53.5909 23.4111 53.8232 23.3068C54.0574 23.2026 54.3226 23.1504 54.619 23.1504C55.036 23.1504 55.3635 23.2419 55.6013 23.4248C55.8409 23.6078 56.011 23.8492 56.1116 24.1492ZM60.9041 23.2053V23.7541H58.6322V23.2053H60.9041ZM59.3127 27.4199V22.6236C59.3127 22.3822 59.3694 22.1809 59.4828 22.02C59.5962 21.859 59.7435 21.7383 59.9246 21.6578C60.1057 21.5773 60.2968 21.537 60.498 21.537C60.6572 21.537 60.7871 21.5498 60.8877 21.5755C60.9883 21.6011 61.0633 21.6248 61.1127 21.6468L60.9261 22.2065C60.8932 22.1956 60.8474 22.1818 60.7889 22.1654C60.7322 22.1489 60.6572 22.1407 60.5639 22.1407C60.3499 22.1407 60.1953 22.1947 60.1002 22.3026C60.0069 22.4105 59.9602 22.5687 59.9602 22.7773V27.4199H59.3127ZM63.1958 27.5077C62.8153 27.5077 62.4815 27.4172 62.1943 27.2361C61.9089 27.055 61.6857 26.8016 61.5248 26.476C61.3656 26.1504 61.286 25.7699 61.286 25.3346C61.286 24.8955 61.3656 24.5123 61.5248 24.1849C61.6857 23.8574 61.9089 23.6032 62.1943 23.4221C62.4815 23.241 62.8153 23.1504 63.1958 23.1504C63.5763 23.1504 63.9092 23.241 64.1946 23.4221C64.4817 23.6032 64.7049 23.8574 64.8641 24.1849C65.025 24.5123 65.1055 24.8955 65.1055 25.3346C65.1055 25.7699 65.025 26.1504 64.8641 26.476C64.7049 26.8016 64.4817 27.055 64.1946 27.2361C63.9092 27.4172 63.5763 27.5077 63.1958 27.5077ZM63.1958 26.926C63.4848 26.926 63.7226 26.8519 63.9092 26.7038C64.0958 26.5556 64.2339 26.3608 64.3235 26.1193C64.4131 25.8779 64.458 25.6163 64.458 25.3346C64.458 25.0529 64.4131 24.7904 64.3235 24.5471C64.2339 24.3038 64.0958 24.1071 63.9092 23.9571C63.7226 23.8071 63.4848 23.7321 63.1958 23.7321C62.9068 23.7321 62.669 23.8071 62.4824 23.9571C62.2958 24.1071 62.1577 24.3038 62.068 24.5471C61.9784 24.7904 61.9336 25.0529 61.9336 25.3346C61.9336 25.6163 61.9784 25.8779 62.068 26.1193C62.1577 26.3608 62.2958 26.5556 62.4824 26.7038C62.669 26.8519 62.9068 26.926 63.1958 26.926ZM65.9395 27.4199V23.2053H66.5651V23.8419H66.609C66.6858 23.6334 66.8248 23.4642 67.026 23.3343C67.2273 23.2044 67.4541 23.1395 67.7065 23.1395C67.7541 23.1395 67.8135 23.1404 67.8849 23.1422C67.9562 23.144 68.0102 23.1468 68.0468 23.1504V23.809C68.0248 23.8035 67.9745 23.7953 67.8959 23.7843C67.819 23.7715 67.7376 23.7651 67.6517 23.7651C67.4468 23.7651 67.2639 23.8081 67.1029 23.894C66.9437 23.9782 66.8175 24.0952 66.7242 24.2452C66.6328 24.3934 66.587 24.5626 66.587 24.7529V27.4199H65.9395ZM74.6077 23.5565C74.5473 23.3718 74.4678 23.2062 74.369 23.0599C74.272 22.9117 74.1559 22.7855 74.0205 22.6812C73.887 22.577 73.7351 22.4974 73.565 22.4425C73.3949 22.3876 73.2083 22.3602 73.0053 22.3602C72.6723 22.3602 72.3696 22.4462 72.097 22.6181C71.8245 22.7901 71.6077 23.0434 71.4467 23.3782C71.2858 23.7129 71.2053 24.1236 71.2053 24.6102C71.2053 25.0968 71.2867 25.5074 71.4495 25.8422C71.6123 26.1769 71.8327 26.4303 72.1108 26.6022C72.3888 26.7742 72.7016 26.8602 73.0492 26.8602C73.3711 26.8602 73.6547 26.7916 73.8998 26.6544C74.1467 26.5154 74.3388 26.3196 74.476 26.0672C74.615 25.8129 74.6845 25.5138 74.6845 25.1699L74.8931 25.2138H73.2028V24.6102H75.3431V25.2138C75.3431 25.6766 75.2443 26.0791 75.0467 26.4211C74.851 26.7632 74.5803 27.0285 74.2345 27.2169C73.8906 27.4035 73.4955 27.4968 73.0492 27.4968C72.5516 27.4968 72.1144 27.3797 71.7376 27.1455C71.3626 26.9114 71.0699 26.5785 70.8596 26.1468C70.651 25.7151 70.5468 25.2029 70.5468 24.6102C70.5468 24.1657 70.6062 23.766 70.7251 23.4111C70.8458 23.0544 71.016 22.7507 71.2355 22.5001C71.455 22.2495 71.7147 22.0575 72.0147 21.9239C72.3147 21.7904 72.6449 21.7236 73.0053 21.7236C73.3016 21.7236 73.5778 21.7684 73.8339 21.8581C74.0919 21.9459 74.3214 22.0712 74.5226 22.234C74.7257 22.395 74.8949 22.5879 75.0303 22.8129C75.1656 23.0361 75.2589 23.284 75.3101 23.5565H74.6077ZM76.354 27.4199V21.8004H78.2528C78.6918 21.8004 79.0521 21.8754 79.3338 22.0254C79.6155 22.1736 79.8241 22.3776 79.9594 22.6373C80.0948 22.8971 80.1625 23.1925 80.1625 23.5236C80.1625 23.8547 80.0948 24.1483 79.9594 24.4044C79.8241 24.6605 79.6165 24.8617 79.3366 25.008C79.0567 25.1526 78.6991 25.2248 78.2637 25.2248H76.7272V24.6102H78.2418C78.5418 24.6102 78.7832 24.5663 78.9662 24.4785C79.1509 24.3907 79.2845 24.2663 79.3668 24.1053C79.4509 23.9425 79.493 23.7486 79.493 23.5236C79.493 23.2986 79.4509 23.102 79.3668 22.9337C79.2826 22.7654 79.1482 22.6355 78.9634 22.544C78.7787 22.4507 78.5345 22.4041 78.2308 22.4041H77.0345V27.4199H76.354ZM78.9991 24.8955L80.382 27.4199H79.5918L78.2308 24.8955H78.9991ZM81.3724 27.4199H80.659L82.7224 21.8004H83.4248L85.4882 27.4199H84.7748L83.0955 22.6895H83.0516L81.3724 27.4199ZM81.6358 25.2248H84.5114V25.8285H81.6358V25.2248ZM86.2089 27.4199V21.8004H88.1077C88.5486 21.8004 88.9089 21.88 89.1888 22.0392C89.4705 22.1965 89.679 22.4096 89.8144 22.6785C89.9498 22.9474 90.0175 23.2474 90.0175 23.5785C90.0175 23.9096 89.9498 24.2105 89.8144 24.4812C89.6809 24.752 89.4742 24.9678 89.1943 25.1288C88.9144 25.2879 88.5559 25.3675 88.1187 25.3675H86.7577V24.7638H88.0967C88.3986 24.7638 88.6409 24.7117 88.8239 24.6074C89.0068 24.5032 89.1394 24.3623 89.2217 24.1849C89.3059 24.0056 89.348 23.8035 89.348 23.5785C89.348 23.3535 89.3059 23.1523 89.2217 22.9748C89.1394 22.7974 89.0059 22.6584 88.8211 22.5578C88.6364 22.4553 88.3913 22.4041 88.0858 22.4041H86.8894V27.4199H86.2089ZM90.9591 27.4199V21.8004H91.6396V24.3029H94.6359V21.8004H95.3164V27.4199H94.6359V24.9065H91.6396V27.4199H90.9591ZM97.2047 21.8004V27.4199H96.5242V21.8004H97.2047ZM102.936 23.5565H102.256C102.216 23.3608 102.145 23.1889 102.045 23.0407C101.946 22.8925 101.825 22.7681 101.683 22.6675C101.542 22.5651 101.385 22.4882 101.213 22.437C101.041 22.3858 100.862 22.3602 100.675 22.3602C100.335 22.3602 100.027 22.4462 99.7508 22.6181C99.4764 22.7901 99.2578 23.0434 99.095 23.3782C98.934 23.7129 98.8536 24.1236 98.8536 24.6102C98.8536 25.0968 98.934 25.5074 99.095 25.8422C99.2578 26.1769 99.4764 26.4303 99.7508 26.6022C100.027 26.7742 100.335 26.8602 100.675 26.8602C100.862 26.8602 101.041 26.8346 101.213 26.7833C101.385 26.7321 101.542 26.6562 101.683 26.5556C101.825 26.4532 101.946 26.3279 102.045 26.1797C102.145 26.0297 102.216 25.8577 102.256 25.6638H102.936C102.885 25.951 102.792 26.208 102.657 26.4349C102.521 26.6617 102.353 26.8547 102.152 27.0138C101.95 27.1711 101.725 27.291 101.474 27.3733C101.225 27.4556 100.959 27.4968 100.675 27.4968C100.196 27.4968 99.77 27.3797 99.3968 27.1455C99.0237 26.9114 98.7301 26.5785 98.5161 26.1468C98.302 25.7151 98.195 25.2029 98.195 24.6102C98.195 24.0175 98.302 23.5053 98.5161 23.0736C98.7301 22.6419 99.0237 22.309 99.3968 22.0748C99.77 21.8407 100.196 21.7236 100.675 21.7236C100.959 21.7236 101.225 21.7648 101.474 21.8471C101.725 21.9294 101.95 22.0501 102.152 22.2093C102.353 22.3666 102.521 22.5587 102.657 22.7855C102.792 23.0105 102.885 23.2675 102.936 23.5565Z" fill="#353FD7"/>
<rect x="8.83203" y="43.0488" width="38.0382" height="19.0382" rx="9.51912" fill="white"/>
<path d="M18.1052 51.3532C18.0723 51.0752 17.9387 50.8593 17.7046 50.7056C17.4704 50.552 17.1833 50.4752 16.843 50.4752C16.5942 50.4752 16.3765 50.5154 16.19 50.5959C16.0052 50.6764 15.8607 50.7871 15.7564 50.9279C15.654 51.0688 15.6028 51.2288 15.6028 51.4081C15.6028 51.5581 15.6384 51.687 15.7098 51.795C15.783 51.9011 15.8762 51.9898 15.9897 52.0611C16.1031 52.1306 16.222 52.1883 16.3464 52.234C16.4708 52.2779 16.5851 52.3136 16.6894 52.341L17.2601 52.4947C17.4064 52.5331 17.5692 52.5861 17.7485 52.6538C17.9296 52.7215 18.1025 52.8139 18.2671 52.9309C18.4335 53.0462 18.5707 53.1944 18.6787 53.3754C18.7866 53.5565 18.8406 53.7788 18.8406 54.0422C18.8406 54.3459 18.761 54.6203 18.6018 54.8654C18.4445 55.1105 18.214 55.3053 17.9104 55.4498C17.6086 55.5943 17.2418 55.6666 16.8101 55.6666C16.4076 55.6666 16.0592 55.6017 15.7647 55.4718C15.472 55.3419 15.2415 55.1608 15.0732 54.9285C14.9067 54.6962 14.8125 54.4264 14.7906 54.119H15.493C15.5113 54.3312 15.5827 54.5068 15.707 54.6459C15.8333 54.7831 15.9924 54.8855 16.1845 54.9532C16.3784 55.019 16.5869 55.052 16.8101 55.052C17.0698 55.052 17.3031 55.0099 17.5098 54.9257C17.7165 54.8398 17.8802 54.7209 18.0009 54.569C18.1217 54.4154 18.182 54.2361 18.182 54.0312C18.182 53.8447 18.1299 53.6928 18.0256 53.5758C17.9214 53.4587 17.7842 53.3636 17.614 53.2904C17.4439 53.2172 17.2601 53.1532 17.0625 53.0983L16.3711 52.9008C15.932 52.7745 15.5845 52.5944 15.3284 52.3602C15.0723 52.1261 14.9442 51.8197 14.9442 51.441C14.9442 51.1264 15.0293 50.852 15.1994 50.6178C15.3714 50.3819 15.6019 50.1989 15.8909 50.0691C16.1817 49.9374 16.5064 49.8715 16.865 49.8715C17.2272 49.8715 17.5491 49.9364 17.8308 50.0663C18.1125 50.1944 18.3357 50.37 18.5003 50.5931C18.6668 50.8163 18.7546 51.0697 18.7637 51.3532H18.1052ZM20.1341 57.1483C20.0243 57.1483 19.9265 57.1391 19.8405 57.1208C19.7545 57.1044 19.6951 57.0879 19.6622 57.0715L19.8268 56.5007C19.9841 56.541 20.1231 56.5556 20.2439 56.5446C20.3646 56.5337 20.4716 56.4797 20.5649 56.3827C20.66 56.2876 20.7469 56.1331 20.8256 55.919L20.9463 55.5898L19.3878 51.3532H20.0902L21.2536 54.7117H21.2975L22.4609 51.3532H23.1634L21.3743 56.1824C21.2939 56.4001 21.1942 56.5803 21.0753 56.723C20.9564 56.8675 20.8182 56.9745 20.6609 57.044C20.5054 57.1135 20.3298 57.1483 20.1341 57.1483ZM26.8489 52.2971L26.2672 52.4617C26.2306 52.3648 26.1766 52.2706 26.1053 52.1791C26.0358 52.0858 25.9407 52.009 25.8199 51.9486C25.6992 51.8883 25.5446 51.8581 25.3562 51.8581C25.0983 51.8581 24.8833 51.9175 24.7114 52.0364C24.5413 52.1535 24.4562 52.3026 24.4562 52.4837C24.4562 52.6447 24.5148 52.7718 24.6318 52.8651C24.7489 52.9584 24.9318 53.0361 25.1806 53.0983L25.8062 53.252C26.183 53.3434 26.4638 53.4834 26.6486 53.6718C26.8333 53.8584 26.9257 54.0989 26.9257 54.3934C26.9257 54.6349 26.8562 54.8507 26.7172 55.041C26.58 55.2312 26.3879 55.3812 26.141 55.491C25.894 55.6007 25.6068 55.6556 25.2794 55.6556C24.8495 55.6556 24.4937 55.5623 24.212 55.3757C23.9303 55.1892 23.752 54.9166 23.677 54.5581L24.2916 54.4044C24.3501 54.6312 24.4608 54.8014 24.6236 54.9148C24.7882 55.0282 25.0032 55.0849 25.2684 55.0849C25.5702 55.0849 25.8099 55.0209 25.9873 54.8928C26.1666 54.7629 26.2562 54.6075 26.2562 54.4264C26.2562 54.28 26.205 54.1575 26.1025 54.0587C26.0001 53.9581 25.8428 53.8831 25.6306 53.8337L24.9282 53.669C24.5422 53.5776 24.2587 53.4358 24.0776 53.2437C23.8983 53.0498 23.8087 52.8075 23.8087 52.5166C23.8087 52.2788 23.8754 52.0684 24.009 51.8855C24.1443 51.7026 24.3282 51.559 24.5605 51.4547C24.7946 51.3505 25.0599 51.2983 25.3562 51.2983C25.7733 51.2983 26.1007 51.3898 26.3385 51.5727C26.5782 51.7556 26.7483 51.9971 26.8489 52.2971ZM29.5789 51.3532V51.902H27.3947V51.3532H29.5789ZM28.0313 50.3435H28.6789V54.3605C28.6789 54.5434 28.7054 54.6806 28.7584 54.7721C28.8133 54.8617 28.8828 54.9221 28.967 54.9532C29.0529 54.9824 29.1435 54.9971 29.2386 54.9971C29.31 54.9971 29.3685 54.9934 29.4142 54.9861C29.46 54.977 29.4965 54.9696 29.524 54.9642L29.6557 55.5459C29.6118 55.5623 29.5505 55.5788 29.4718 55.5952C29.3932 55.6135 29.2935 55.6227 29.1728 55.6227C28.9898 55.6227 28.8106 55.5834 28.635 55.5047C28.4612 55.426 28.3167 55.3062 28.2014 55.1453C28.088 54.9843 28.0313 54.7812 28.0313 54.5361V50.3435ZM32.1202 55.6556C31.7141 55.6556 31.3638 55.566 31.0693 55.3867C30.7766 55.2056 30.5507 54.9532 30.3915 54.6294C30.2342 54.3038 30.1556 53.9251 30.1556 53.4934C30.1556 53.0617 30.2342 52.6812 30.3915 52.352C30.5507 52.0209 30.772 51.763 31.0556 51.5782C31.3409 51.3916 31.6738 51.2983 32.0543 51.2983C32.2738 51.2983 32.4906 51.3349 32.7046 51.4081C32.9187 51.4813 33.1135 51.6002 33.2891 51.7648C33.4647 51.9276 33.6046 52.1434 33.7089 52.4123C33.8132 52.6812 33.8653 53.0123 33.8653 53.4056V53.68H30.6165V53.1203H33.2068C33.2068 52.8825 33.1592 52.6703 33.0641 52.4837C32.9708 52.2971 32.8373 52.1498 32.6635 52.0419C32.4915 51.934 32.2885 51.88 32.0543 51.88C31.7964 51.88 31.5732 51.9441 31.3848 52.0721C31.1982 52.1983 31.0546 52.363 30.954 52.566C30.8534 52.769 30.8031 52.9867 30.8031 53.219V53.5922C30.8031 53.9105 30.858 54.1803 30.9678 54.4017C31.0793 54.6212 31.2339 54.7885 31.4315 54.9038C31.629 55.0172 31.8586 55.0739 32.1202 55.0739C32.2903 55.0739 32.444 55.0501 32.5812 55.0026C32.7202 54.9532 32.84 54.88 32.9406 54.7831C33.0412 54.6843 33.119 54.5617 33.1738 54.4154L33.7994 54.591C33.7336 54.8032 33.6229 54.9898 33.4674 55.1507C33.3119 55.3099 33.1199 55.4343 32.8912 55.5239C32.6626 55.6117 32.4055 55.6556 32.1202 55.6556ZM34.6958 55.5678V51.3532H35.3214V52.0117H35.3763C35.4641 51.7867 35.6059 51.612 35.8016 51.4877C35.9973 51.3614 36.2324 51.2983 36.5068 51.2983C36.7848 51.2983 37.0162 51.3614 37.201 51.4877C37.3876 51.612 37.533 51.7867 37.6373 52.0117H37.6812C37.7891 51.7941 37.951 51.6212 38.1668 51.4931C38.3827 51.3633 38.6415 51.2983 38.9433 51.2983C39.3202 51.2983 39.6284 51.4163 39.868 51.6523C40.1077 51.8864 40.2275 52.2514 40.2275 52.7471V55.5678H39.5799V52.7471C39.5799 52.4361 39.4949 52.2139 39.3247 52.0803C39.1546 51.9468 38.9543 51.88 38.7238 51.88C38.4275 51.88 38.1979 51.9697 38.0351 52.1489C37.8723 52.3264 37.7909 52.5514 37.7909 52.8239V55.5678H37.1324V52.6812C37.1324 52.4416 37.0546 52.2486 36.8991 52.1023C36.7437 51.9541 36.5434 51.88 36.2982 51.88C36.1299 51.88 35.9726 51.9248 35.8263 52.0145C35.6818 52.1041 35.5647 52.2285 35.4751 52.3876C35.3873 52.545 35.3434 52.727 35.3434 52.9337V55.5678H34.6958Z" fill="#4D4D4D"/>
<rect x="50.1816" y="43.0488" width="27.0382" height="19.0382" rx="9.51912" fill="white"/>
<path d="M56.0743 50.552V49.9483H60.2889V50.552H58.5219V55.5678H57.8414V50.552H56.0743ZM60.6592 55.5678V51.3532H61.2848V51.9898H61.3287C61.4055 51.7813 61.5445 51.612 61.7458 51.4822C61.947 51.3523 62.1738 51.2874 62.4262 51.2874C62.4738 51.2874 62.5332 51.2883 62.6046 51.2901C62.6759 51.2919 62.7299 51.2947 62.7665 51.2983V51.9569C62.7445 51.9514 62.6942 51.9431 62.6156 51.9322C62.5387 51.9194 62.4573 51.913 62.3714 51.913C62.1665 51.913 61.9836 51.9559 61.8226 52.0419C61.6634 52.1261 61.5372 52.2431 61.4439 52.3931C61.3525 52.5413 61.3067 52.7105 61.3067 52.9008V55.5678H60.6592ZM64.6198 55.6666C64.3527 55.6666 64.1103 55.6163 63.8927 55.5157C63.675 55.4132 63.5021 55.266 63.3741 55.0739C63.246 54.88 63.182 54.6459 63.182 54.3715C63.182 54.13 63.2295 53.9343 63.3247 53.7843C63.4198 53.6325 63.5469 53.5136 63.7061 53.4276C63.8652 53.3416 64.0408 53.2776 64.2329 53.2355C64.4268 53.1916 64.6216 53.1569 64.8173 53.1312C65.0734 53.0983 65.2811 53.0736 65.4402 53.0572C65.6012 53.0389 65.7182 53.0087 65.7914 52.9666C65.8664 52.9245 65.9039 52.8514 65.9039 52.7471V52.7251C65.9039 52.4544 65.8298 52.2441 65.6817 52.0941C65.5353 51.9441 65.3131 51.8691 65.0149 51.8691C64.7058 51.8691 64.4634 51.9367 64.2878 52.0721C64.1122 52.2075 63.9887 52.352 63.9173 52.5056L63.3027 52.2861C63.4125 52.03 63.5588 51.8306 63.7417 51.688C63.9265 51.5434 64.1277 51.4428 64.3454 51.3861C64.5649 51.3276 64.7808 51.2983 64.9929 51.2983C65.1283 51.2983 65.2838 51.3148 65.4594 51.3477C65.6368 51.3788 65.8079 51.4438 65.9725 51.5425C66.139 51.6413 66.2771 51.7904 66.3868 51.9898C66.4966 52.1892 66.5515 52.4562 66.5515 52.791V55.5678H65.9039V54.9971H65.871C65.8271 55.0885 65.7539 55.1864 65.6515 55.2907C65.549 55.3949 65.4128 55.4837 65.2426 55.5568C65.0725 55.63 64.8649 55.6666 64.6198 55.6666ZM64.7186 55.0849C64.9747 55.0849 65.1905 55.0346 65.3661 54.934C65.5436 54.8334 65.6771 54.7035 65.7667 54.5443C65.8582 54.3852 65.9039 54.2178 65.9039 54.0422V53.4495C65.8765 53.4825 65.8161 53.5126 65.7228 53.5401C65.6314 53.5657 65.5253 53.5886 65.4045 53.6087C65.2856 53.627 65.1695 53.6434 65.0561 53.6581C64.9445 53.6709 64.8539 53.6818 64.7844 53.691C64.6161 53.7129 64.4588 53.7486 64.3125 53.798C64.168 53.8456 64.0509 53.9178 63.9612 54.0148C63.8734 54.1099 63.8295 54.2398 63.8295 54.4044C63.8295 54.6294 63.9128 54.7995 64.0792 54.9148C64.2475 55.0282 64.4606 55.0849 64.7186 55.0849ZM67.5789 57.1483V51.3532H68.2045V52.0227H68.2813C68.3289 51.9495 68.3947 51.8563 68.4789 51.7428C68.5648 51.6276 68.6874 51.5252 68.8465 51.4355C69.0075 51.3441 69.2252 51.2983 69.4996 51.2983C69.8545 51.2983 70.1673 51.387 70.438 51.5645C70.7087 51.7419 70.92 51.9934 71.0718 52.3191C71.2237 52.6447 71.2996 53.0288 71.2996 53.4715C71.2996 53.9178 71.2237 54.3047 71.0718 54.6321C70.92 54.9578 70.7096 55.2102 70.4407 55.3895C70.1718 55.5669 69.8618 55.6556 69.5106 55.6556C69.2398 55.6556 69.0231 55.6108 68.8603 55.5212C68.6975 55.4297 68.5722 55.3263 68.4843 55.2111C68.3965 55.094 68.3289 54.9971 68.2813 54.9203H68.2264V57.1483H67.5789ZM68.2154 53.4605C68.2154 53.7788 68.2621 54.0596 68.3554 54.3029C68.4487 54.5443 68.585 54.7337 68.7642 54.8709C68.9435 55.0062 69.163 55.0739 69.4228 55.0739C69.6935 55.0739 69.9194 55.0026 70.1005 54.8599C70.2834 54.7154 70.4206 54.5215 70.5121 54.2782C70.6054 54.0331 70.652 53.7605 70.652 53.4605C70.652 53.1642 70.6063 52.8971 70.5148 52.6593C70.4252 52.4197 70.2889 52.2303 70.106 52.0913C69.9249 51.9505 69.6971 51.88 69.4228 51.88C69.1593 51.88 68.938 51.9468 68.7587 52.0803C68.5795 52.212 68.4441 52.3968 68.3526 52.6346C68.2612 52.8706 68.2154 53.1459 68.2154 53.4605Z" fill="#4D4D4D"/>
<rect x="80.5312" y="43.0488" width="27.0382" height="19.0382" rx="9.51912" fill="white"/>
<path d="M86.7313 55.5678V49.9483H88.63C89.0709 49.9483 89.4312 50.0279 89.7111 50.1871C89.9928 50.3444 90.2014 50.5575 90.3367 50.8264C90.4721 51.0953 90.5398 51.3953 90.5398 51.7264C90.5398 52.0575 90.4721 52.3584 90.3367 52.6291C90.2032 52.8998 89.9965 53.1157 89.7166 53.2767C89.4367 53.4358 89.0782 53.5154 88.641 53.5154H87.28V52.9117H88.6191C88.9209 52.9117 89.1633 52.8596 89.3462 52.7553C89.5291 52.6511 89.6617 52.5102 89.744 52.3328C89.8282 52.1535 89.8703 51.9514 89.8703 51.7264C89.8703 51.5014 89.8282 51.3002 89.744 51.1227C89.6617 50.9453 89.5282 50.8063 89.3434 50.7056C89.1587 50.6032 88.9136 50.552 88.6081 50.552H87.4117V55.5678H86.7313ZM92.0412 49.9483V55.5678H91.3936V49.9483H92.0412ZM94.3129 55.6666C94.0458 55.6666 93.8035 55.6163 93.5858 55.5157C93.3681 55.4132 93.1952 55.266 93.0672 55.0739C92.9391 54.88 92.8751 54.6459 92.8751 54.3715C92.8751 54.13 92.9227 53.9343 93.0178 53.7843C93.1129 53.6325 93.2401 53.5136 93.3992 53.4276C93.5583 53.3416 93.734 53.2776 93.926 53.2355C94.1199 53.1916 94.3147 53.1569 94.5105 53.1312C94.7666 53.0983 94.9742 53.0736 95.1333 53.0572C95.2943 53.0389 95.4114 53.0087 95.4846 52.9666C95.5596 52.9245 95.5971 52.8514 95.5971 52.7471V52.7251C95.5971 52.4544 95.523 52.2441 95.3748 52.0941C95.2285 51.9441 95.0062 51.8691 94.708 51.8691C94.3989 51.8691 94.1565 51.9367 93.9809 52.0721C93.8053 52.2075 93.6818 52.352 93.6105 52.5056L92.9959 52.2861C93.1056 52.03 93.2519 51.8306 93.4349 51.688C93.6196 51.5434 93.8208 51.4428 94.0385 51.3861C94.258 51.3276 94.4739 51.2983 94.6861 51.2983C94.8214 51.2983 94.9769 51.3148 95.1525 51.3477C95.33 51.3788 95.501 51.4438 95.6657 51.5425C95.8321 51.6413 95.9702 51.7904 96.08 51.9898C96.1897 52.1892 96.2446 52.4562 96.2446 52.791V55.5678H95.5971V54.9971H95.5641C95.5202 55.0885 95.4471 55.1864 95.3446 55.2907C95.2422 55.3949 95.1059 55.4837 94.9358 55.5568C94.7657 55.63 94.558 55.6666 94.3129 55.6666ZM94.4117 55.0849C94.6678 55.0849 94.8836 55.0346 95.0593 54.934C95.2367 54.8334 95.3702 54.7035 95.4599 54.5443C95.5513 54.3852 95.5971 54.2178 95.5971 54.0422V53.4495C95.5696 53.4825 95.5092 53.5126 95.416 53.5401C95.3245 53.5657 95.2184 53.5886 95.0977 53.6087C94.9788 53.627 94.8626 53.6434 94.7492 53.6581C94.6376 53.6709 94.5471 53.6818 94.4775 53.691C94.3093 53.7129 94.1519 53.7486 94.0056 53.798C93.8611 53.8456 93.744 53.9178 93.6544 54.0148C93.5666 54.1099 93.5227 54.2398 93.5227 54.4044C93.5227 54.6294 93.6059 54.7995 93.7724 54.9148C93.9407 55.0282 94.1538 55.0849 94.4117 55.0849ZM97.9196 53.0325V55.5678H97.272V51.3532H97.8976V52.0117H97.9525C98.0513 51.7977 98.2013 51.6258 98.4025 51.4959C98.6037 51.3642 98.8635 51.2983 99.1817 51.2983C99.4671 51.2983 99.7168 51.3569 99.9308 51.4739C100.145 51.5892 100.311 51.7648 100.43 52.0008C100.549 52.2349 100.609 52.5312 100.609 52.8898V55.5678H99.961V52.9337C99.961 52.6026 99.875 52.3447 99.7031 52.1599C99.5311 51.9733 99.2952 51.88 98.9952 51.88C98.7885 51.88 98.6037 51.9248 98.4409 52.0145C98.2799 52.1041 98.1528 52.2349 98.0595 52.4069C97.9662 52.5788 97.9196 52.7873 97.9196 53.0325Z" fill="#4D4D4D"/>
<rect x="110.881" y="43.0488" width="40.0382" height="19.0382" rx="9.51912" fill="white"/>
<path d="M121.603 51.7044H120.922C120.882 51.5087 120.812 51.3367 120.711 51.1886C120.612 51.0404 120.492 50.916 120.349 50.8154C120.208 50.713 120.052 50.6361 119.88 50.5849C119.708 50.5337 119.528 50.5081 119.342 50.5081C119.002 50.5081 118.693 50.5941 118.417 50.766C118.143 50.938 117.924 51.1913 117.761 51.5261C117.6 51.8608 117.52 52.2715 117.52 52.7581C117.52 53.2447 117.6 53.6553 117.761 53.9901C117.924 54.3248 118.143 54.5782 118.417 54.7501C118.693 54.9221 119.002 55.0081 119.342 55.0081C119.528 55.0081 119.708 54.9824 119.88 54.9312C120.052 54.88 120.208 54.8041 120.349 54.7035C120.492 54.601 120.612 54.4757 120.711 54.3276C120.812 54.1776 120.882 54.0056 120.922 53.8117H121.603C121.552 54.0989 121.458 54.3559 121.323 54.5828C121.188 54.8096 121.019 55.0026 120.818 55.1617C120.617 55.319 120.391 55.4388 120.14 55.5212C119.892 55.6035 119.625 55.6446 119.342 55.6446C118.863 55.6446 118.436 55.5276 118.063 55.2934C117.69 55.0593 117.396 54.7264 117.182 54.2946C116.968 53.8629 116.861 53.3508 116.861 52.7581C116.861 52.1654 116.968 51.6532 117.182 51.2215C117.396 50.7898 117.69 50.4569 118.063 50.2227C118.436 49.9886 118.863 49.8715 119.342 49.8715C119.625 49.8715 119.892 49.9127 120.14 49.995C120.391 50.0773 120.617 50.198 120.818 50.3572C121.019 50.5145 121.188 50.7066 121.323 50.9334C121.458 51.1584 121.552 51.4154 121.603 51.7044ZM124.172 55.6556C123.792 55.6556 123.458 55.5651 123.171 55.384C122.885 55.2029 122.662 54.9495 122.501 54.6239C122.342 54.2983 122.263 53.9178 122.263 53.4825C122.263 53.0434 122.342 52.6602 122.501 52.3328C122.662 52.0053 122.885 51.7511 123.171 51.57C123.458 51.3889 123.792 51.2983 124.172 51.2983C124.553 51.2983 124.886 51.3889 125.171 51.57C125.458 51.7511 125.681 52.0053 125.841 52.3328C126.002 52.6602 126.082 53.0434 126.082 53.4825C126.082 53.9178 126.002 54.2983 125.841 54.6239C125.681 54.9495 125.458 55.2029 125.171 55.384C124.886 55.5651 124.553 55.6556 124.172 55.6556ZM124.172 55.0739C124.461 55.0739 124.699 54.9998 124.886 54.8517C125.072 54.7035 125.21 54.5087 125.3 54.2672C125.39 54.0257 125.434 53.7642 125.434 53.4825C125.434 53.2008 125.39 52.9383 125.3 52.695C125.21 52.4517 125.072 52.255 124.886 52.105C124.699 51.955 124.461 51.88 124.172 51.88C123.883 51.88 123.645 51.955 123.459 52.105C123.272 52.255 123.134 52.4517 123.045 52.695C122.955 52.9383 122.91 53.2008 122.91 53.4825C122.91 53.7642 122.955 54.0257 123.045 54.2672C123.134 54.5087 123.272 54.7035 123.459 54.8517C123.645 54.9998 123.883 55.0739 124.172 55.0739ZM127.563 53.0325V55.5678H126.916V51.3532H127.542V52.0117H127.596C127.695 51.7977 127.845 51.6258 128.046 51.4959C128.248 51.3642 128.507 51.2983 128.826 51.2983C129.111 51.2983 129.361 51.3569 129.575 51.4739C129.789 51.5892 129.955 51.7648 130.074 52.0008C130.193 52.2349 130.253 52.5312 130.253 52.8898V55.5678H129.605V52.9337C129.605 52.6026 129.519 52.3447 129.347 52.1599C129.175 51.9733 128.939 51.88 128.639 51.88C128.432 51.88 128.248 51.9248 128.085 52.0145C127.924 52.1041 127.797 52.2349 127.703 52.4069C127.61 52.5788 127.563 52.7873 127.563 53.0325ZM132.993 55.6556C132.598 55.6556 132.258 55.5623 131.973 55.3757C131.687 55.1892 131.468 54.9321 131.314 54.6047C131.161 54.2773 131.084 53.9032 131.084 53.4825C131.084 53.0544 131.162 52.6767 131.32 52.3492C131.479 52.02 131.7 51.763 131.984 51.5782C132.269 51.3916 132.602 51.2983 132.982 51.2983C133.279 51.2983 133.546 51.3532 133.784 51.463C134.021 51.5727 134.216 51.7264 134.368 51.9239C134.52 52.1215 134.614 52.352 134.651 52.6154H134.003C133.954 52.4233 133.844 52.2532 133.674 52.105C133.506 51.955 133.279 51.88 132.993 51.88C132.741 51.88 132.52 51.9459 132.329 52.0776C132.141 52.2075 131.994 52.3913 131.888 52.6291C131.783 52.8651 131.731 53.1422 131.731 53.4605C131.731 53.7861 131.782 54.0696 131.885 54.3111C131.989 54.5526 132.136 54.7401 132.324 54.8736C132.514 55.0071 132.737 55.0739 132.993 55.0739C133.162 55.0739 133.314 55.0446 133.452 54.9861C133.589 54.9276 133.705 54.8434 133.8 54.7337C133.895 54.6239 133.963 54.4922 134.003 54.3386H134.651C134.614 54.5873 134.524 54.8114 134.379 55.0108C134.236 55.2084 134.047 55.3657 133.811 55.4827C133.577 55.598 133.304 55.6556 132.993 55.6556ZM137.21 55.6556C136.804 55.6556 136.454 55.566 136.159 55.3867C135.866 55.2056 135.64 54.9532 135.481 54.6294C135.324 54.3038 135.245 53.9251 135.245 53.4934C135.245 53.0617 135.324 52.6812 135.481 52.352C135.64 52.0209 135.862 51.763 136.145 51.5782C136.431 51.3916 136.764 51.2983 137.144 51.2983C137.364 51.2983 137.58 51.3349 137.794 51.4081C138.008 51.4813 138.203 51.6002 138.379 51.7648C138.554 51.9276 138.694 52.1434 138.799 52.4123C138.903 52.6812 138.955 53.0123 138.955 53.4056V53.68H135.706V53.1203H138.296C138.296 52.8825 138.249 52.6703 138.154 52.4837C138.061 52.2971 137.927 52.1498 137.753 52.0419C137.581 51.934 137.378 51.88 137.144 51.88C136.886 51.88 136.663 51.9441 136.475 52.0721C136.288 52.1983 136.144 52.363 136.044 52.566C135.943 52.769 135.893 52.9867 135.893 53.219V53.5922C135.893 53.9105 135.948 54.1803 136.057 54.4017C136.169 54.6212 136.324 54.7885 136.521 54.9038C136.719 55.0172 136.948 55.0739 137.21 55.0739C137.38 55.0739 137.534 55.0501 137.671 55.0026C137.81 54.9532 137.93 54.88 138.03 54.7831C138.131 54.6843 138.209 54.5617 138.264 54.4154L138.889 54.591C138.823 54.8032 138.713 54.9898 138.557 55.1507C138.402 55.3099 138.21 55.4343 137.981 55.5239C137.752 55.6117 137.495 55.6556 137.21 55.6556ZM139.786 55.5678V51.3532H140.411V51.9898H140.455C140.532 51.7813 140.671 51.612 140.872 51.4822C141.073 51.3523 141.3 51.2874 141.553 51.2874C141.6 51.2874 141.66 51.2883 141.731 51.2901C141.802 51.2919 141.856 51.2947 141.893 51.2983V51.9569C141.871 51.9514 141.821 51.9431 141.742 51.9322C141.665 51.9194 141.584 51.913 141.498 51.913C141.293 51.913 141.11 51.9559 140.949 52.0419C140.79 52.1261 140.664 52.2431 140.57 52.3931C140.479 52.5413 140.433 52.7105 140.433 52.9008V55.5678H139.786ZM144.603 51.3532V51.902H142.419V51.3532H144.603ZM143.055 50.3435H143.703V54.3605C143.703 54.5434 143.729 54.6806 143.783 54.7721C143.837 54.8617 143.907 54.9221 143.991 54.9532C144.077 54.9824 144.168 54.9971 144.263 54.9971C144.334 54.9971 144.393 54.9934 144.438 54.9861C144.484 54.977 144.521 54.9696 144.548 54.9642L144.68 55.5459C144.636 55.5623 144.575 55.5788 144.496 55.5952C144.417 55.6135 144.318 55.6227 144.197 55.6227C144.014 55.6227 143.835 55.5834 143.659 55.5047C143.485 55.426 143.341 55.3062 143.225 55.1453C143.112 54.9843 143.055 54.7812 143.055 54.5361V50.3435Z" fill="#4D4D4D"/>
<rect x="8.83203" y="65.6777" width="45.0382" height="19.0382" rx="9.51912" fill="white"/>
<path d="M18.8735 74.3333C18.8131 74.1486 18.7335 73.983 18.6348 73.8367C18.5378 73.6885 18.4217 73.5623 18.2863 73.458C18.1528 73.3538 18.0009 73.2742 17.8308 73.2193C17.6607 73.1644 17.4741 73.137 17.2711 73.137C16.9381 73.137 16.6354 73.223 16.3628 73.3949C16.0903 73.5669 15.8735 73.8202 15.7125 74.155C15.5516 74.4897 15.4711 74.9004 15.4711 75.387C15.4711 75.8736 15.5525 76.2842 15.7153 76.619C15.8781 76.9537 16.0985 77.2071 16.3765 77.379C16.6546 77.551 16.9674 77.637 17.315 77.637C17.6369 77.637 17.9204 77.5684 18.1656 77.4312C18.4125 77.2921 18.6046 77.0964 18.7418 76.844C18.8808 76.5897 18.9503 76.2906 18.9503 75.9467L19.1588 75.9906H17.4686V75.387H19.6088V75.9906C19.6088 76.4534 19.5101 76.8559 19.3125 77.1979C19.1168 77.54 18.846 77.8053 18.5003 77.9937C18.1564 78.1803 17.7613 78.2735 17.315 78.2735C16.8174 78.2735 16.3802 78.1565 16.0034 77.9223C15.6284 77.6882 15.3357 77.3553 15.1253 76.9236C14.9168 76.4919 14.8125 75.9797 14.8125 75.387C14.8125 74.9425 14.872 74.5428 14.9909 74.1879C15.1116 73.8312 15.2817 73.5275 15.5012 73.2769C15.7208 73.0263 15.9805 72.8343 16.2805 72.7007C16.5805 72.5672 16.9107 72.5004 17.2711 72.5004C17.5674 72.5004 17.8436 72.5452 18.0997 72.6349C18.3576 72.7227 18.5872 72.848 18.7884 73.0108C18.9915 73.1718 19.1607 73.3647 19.296 73.5897C19.4314 73.8129 19.5247 74.0608 19.5759 74.3333H18.8735ZM20.532 78.1967V73.9821H21.1576V74.6187H21.2015C21.2783 74.4102 21.4173 74.241 21.6185 74.1111C21.8198 73.9812 22.0466 73.9163 22.299 73.9163C22.3466 73.9163 22.406 73.9172 22.4774 73.919C22.5487 73.9208 22.6027 73.9236 22.6393 73.9272V74.5858C22.6173 74.5803 22.567 74.572 22.4884 74.5611C22.4115 74.5483 22.3301 74.5419 22.2442 74.5419C22.0393 74.5419 21.8563 74.5849 21.6954 74.6708C21.5362 74.755 21.41 74.872 21.3167 75.022C21.2253 75.1702 21.1795 75.3394 21.1795 75.5297V78.1967H20.532ZM24.4926 78.2955C24.2255 78.2955 23.9831 78.2452 23.7654 78.1446C23.5478 78.0421 23.3749 77.8949 23.2468 77.7028C23.1188 77.5089 23.0548 77.2748 23.0548 77.0004C23.0548 76.7589 23.1023 76.5632 23.1975 76.4132C23.2926 76.2614 23.4197 76.1425 23.5789 76.0565C23.738 75.9705 23.9136 75.9065 24.1057 75.8644C24.2996 75.8205 24.4944 75.7858 24.6901 75.7601C24.9462 75.7272 25.1538 75.7025 25.313 75.6861C25.474 75.6678 25.591 75.6376 25.6642 75.5955C25.7392 75.5534 25.7767 75.4803 25.7767 75.376V75.3541C25.7767 75.0833 25.7026 74.873 25.5545 74.723C25.4081 74.573 25.1859 74.498 24.8877 74.498C24.5785 74.498 24.3362 74.5656 24.1606 74.701C23.985 74.8364 23.8615 74.9809 23.7901 75.1345L23.1755 74.915C23.2853 74.6589 23.4316 74.4595 23.6145 74.3169C23.7993 74.1724 24.0005 74.0717 24.2182 74.015C24.4377 73.9565 24.6535 73.9272 24.8657 73.9272C25.0011 73.9272 25.1566 73.9437 25.3322 73.9766C25.5096 74.0077 25.6807 74.0727 25.8453 74.1714C26.0118 74.2702 26.1499 74.4193 26.2596 74.6187C26.3694 74.8181 26.4243 75.0852 26.4243 75.4199V78.1967H25.7767V77.626H25.7438C25.6999 77.7175 25.6267 77.8153 25.5243 77.9196C25.4218 78.0239 25.2856 78.1126 25.1154 78.1857C24.9453 78.2589 24.7377 78.2955 24.4926 78.2955ZM24.5914 77.7138C24.8474 77.7138 25.0633 77.6635 25.2389 77.5629C25.4163 77.4623 25.5499 77.3324 25.6395 77.1732C25.731 77.0141 25.7767 76.8467 25.7767 76.6711V76.0784C25.7493 76.1114 25.6889 76.1415 25.5956 76.169C25.5041 76.1946 25.3981 76.2175 25.2773 76.2376C25.1584 76.2559 25.0423 76.2723 24.9288 76.287C24.8173 76.2998 24.7267 76.3108 24.6572 76.3199C24.4889 76.3419 24.3316 76.3775 24.1853 76.4269C24.0407 76.4745 23.9237 76.5467 23.834 76.6437C23.7462 76.7388 23.7023 76.8687 23.7023 77.0333C23.7023 77.2583 23.7856 77.4284 23.952 77.5437C24.1203 77.6571 24.3334 77.7138 24.5914 77.7138ZM27.4517 79.7772V73.9821H28.0773V74.6516H28.1541C28.2017 74.5784 28.2675 74.4852 28.3517 74.3717C28.4376 74.2565 28.5602 74.1541 28.7193 74.0644C28.8803 73.973 29.098 73.9272 29.3724 73.9272C29.7273 73.9272 30.0401 74.016 30.3108 74.1934C30.5815 74.3708 30.7928 74.6224 30.9446 74.948C31.0964 75.2736 31.1724 75.6577 31.1724 76.1004C31.1724 76.5467 31.0964 76.9336 30.9446 77.2611C30.7928 77.5867 30.5824 77.8391 30.3135 78.0184C30.0446 78.1958 29.7346 78.2845 29.3834 78.2845C29.1126 78.2845 28.8959 78.2397 28.7331 78.1501C28.5702 78.0586 28.4449 77.9553 28.3571 77.84C28.2693 77.7229 28.2017 77.626 28.1541 77.5492H28.0992V79.7772H27.4517ZM28.0882 76.0894C28.0882 76.4077 28.1349 76.6885 28.2282 76.9318C28.3215 77.1732 28.4577 77.3626 28.637 77.4998C28.8163 77.6351 29.0358 77.7028 29.2955 77.7028C29.5663 77.7028 29.7922 77.6315 29.9733 77.4888C30.1562 77.3443 30.2934 77.1504 30.3849 76.9071C30.4782 76.662 30.5248 76.3894 30.5248 76.0894C30.5248 75.7931 30.4791 75.526 30.3876 75.2882C30.298 75.0486 30.1617 74.8592 29.9788 74.7202C29.7977 74.5794 29.5699 74.5089 29.2955 74.5089C29.0321 74.5089 28.8108 74.5757 28.6315 74.7092C28.4523 74.8409 28.3169 75.0257 28.2254 75.2635C28.134 75.4995 28.0882 75.7748 28.0882 76.0894ZM32.6532 75.6614V78.1967H32.0056V72.5772H32.6532V74.6406H32.7081C32.8068 74.423 32.955 74.2501 33.1526 74.122C33.352 73.9922 33.6172 73.9272 33.9483 73.9272C34.2355 73.9272 34.487 73.9849 34.7029 74.1001C34.9187 74.2135 35.0861 74.3882 35.205 74.6242C35.3257 74.8583 35.3861 75.1565 35.3861 75.5187V78.1967H34.7385V75.5626C34.7385 75.2278 34.6516 74.969 34.4779 74.7861C34.3059 74.6013 34.0672 74.5089 33.7617 74.5089C33.5495 74.5089 33.3593 74.5538 33.191 74.6434C33.0245 74.733 32.8928 74.8638 32.7959 75.0358C32.7007 75.2077 32.6532 75.4162 32.6532 75.6614ZM36.4162 78.1967V73.9821H37.0638V78.1967H36.4162ZM36.7455 73.2797C36.6193 73.2797 36.5104 73.2367 36.419 73.1507C36.3293 73.0647 36.2845 72.9614 36.2845 72.8407C36.2845 72.7199 36.3293 72.6166 36.419 72.5306C36.5104 72.4446 36.6193 72.4016 36.7455 72.4016C36.8717 72.4016 36.9796 72.4446 37.0693 72.5306C37.1607 72.6166 37.2065 72.7199 37.2065 72.8407C37.2065 72.9614 37.1607 73.0647 37.0693 73.1507C36.9796 73.2367 36.8717 73.2797 36.7455 73.2797ZM39.8075 78.2845C39.4124 78.2845 39.0721 78.1912 38.7867 78.0046C38.5014 77.8181 38.2819 77.561 38.1282 77.2336C37.9746 76.9062 37.8977 76.5321 37.8977 76.1114C37.8977 75.6833 37.9764 75.3056 38.1337 74.9781C38.2928 74.6489 38.5142 74.3919 38.7977 74.2071C39.0831 74.0205 39.416 73.9272 39.7965 73.9272C40.0928 73.9272 40.3599 73.9821 40.5977 74.0919C40.8355 74.2016 41.0303 74.3553 41.1822 74.5528C41.334 74.7504 41.4282 74.9809 41.4648 75.2443H40.8172C40.7678 75.0522 40.6581 74.8821 40.488 74.7339C40.3197 74.5839 40.0928 74.5089 39.8075 74.5089C39.555 74.5089 39.3337 74.5748 39.1435 74.7065C38.955 74.8364 38.8078 75.0202 38.7017 75.258C38.5974 75.494 38.5453 75.7711 38.5453 76.0894C38.5453 76.415 38.5965 76.6986 38.6989 76.94C38.8032 77.1815 38.9496 77.369 39.138 77.5025C39.3282 77.636 39.5514 77.7028 39.8075 77.7028C39.9758 77.7028 40.1285 77.6735 40.2657 77.615C40.4029 77.5565 40.5191 77.4723 40.6142 77.3626C40.7093 77.2528 40.777 77.1211 40.8172 76.9675H41.4648C41.4282 77.2162 41.3376 77.4403 41.1931 77.6397C41.0505 77.8373 40.8611 77.9946 40.6252 78.1117C40.391 78.2269 40.1184 78.2845 39.8075 78.2845ZM43.4971 78.2955C43.23 78.2955 42.9877 78.2452 42.77 78.1446C42.5523 78.0421 42.3794 77.8949 42.2514 77.7028C42.1233 77.5089 42.0593 77.2748 42.0593 77.0004C42.0593 76.7589 42.1069 76.5632 42.202 76.4132C42.2971 76.2614 42.4243 76.1425 42.5834 76.0565C42.7426 75.9705 42.9182 75.9065 43.1102 75.8644C43.3041 75.8205 43.4989 75.7858 43.6947 75.7601C43.9508 75.7272 44.1584 75.7025 44.3175 75.6861C44.4785 75.6678 44.5956 75.6376 44.6688 75.5955C44.7438 75.5534 44.7813 75.4803 44.7813 75.376V75.3541C44.7813 75.0833 44.7072 74.873 44.559 74.723C44.4127 74.573 44.1904 74.498 43.8922 74.498C43.5831 74.498 43.3407 74.5656 43.1651 74.701C42.9895 74.8364 42.866 74.9809 42.7947 75.1345L42.1801 74.915C42.2898 74.6589 42.4362 74.4595 42.6191 74.3169C42.8038 74.1724 43.005 74.0717 43.2227 74.015C43.4422 73.9565 43.6581 73.9272 43.8703 73.9272C44.0057 73.9272 44.1611 73.9437 44.3367 73.9766C44.5142 74.0077 44.6852 74.0727 44.8499 74.1714C45.0163 74.2702 45.1544 74.4193 45.2642 74.6187C45.3739 74.8181 45.4288 75.0852 45.4288 75.4199V78.1967H44.7813V77.626H44.7483C44.7044 77.7175 44.6313 77.8153 44.5288 77.9196C44.4264 78.0239 44.2901 78.1126 44.12 78.1857C43.9499 78.2589 43.7422 78.2955 43.4971 78.2955ZM43.5959 77.7138C43.852 77.7138 44.0678 77.6635 44.2435 77.5629C44.4209 77.4623 44.5544 77.3324 44.6441 77.1732C44.7355 77.0141 44.7813 76.8467 44.7813 76.6711V76.0784C44.7538 76.1114 44.6935 76.1415 44.6002 76.169C44.5087 76.1946 44.4026 76.2175 44.2819 76.2376C44.163 76.2559 44.0468 76.2723 43.9334 76.287C43.8218 76.2998 43.7313 76.3108 43.6618 76.3199C43.4935 76.3419 43.3361 76.3775 43.1898 76.4269C43.0453 76.4745 42.9282 76.5467 42.8386 76.6437C42.7508 76.7388 42.7069 76.8687 42.7069 77.0333C42.7069 77.2583 42.7901 77.4284 42.9566 77.5437C43.1249 77.6571 43.338 77.7138 43.5959 77.7138ZM47.1038 72.5772V78.1967H46.4562V72.5772H47.1038Z" fill="#353FD7"/>
<rect x="57.1816" y="65.6777" width="37.0382" height="19.0382" rx="9.51912" fill="white"/>
<path d="M63.3817 78.1967V72.5772H66.7731V73.1809H64.0621V75.0797H66.5975V75.6833H64.0621V77.5931H66.817V78.1967H63.3817ZM68.2402 73.9821L69.2499 75.7053L70.2597 73.9821H71.006L69.6451 76.0894L71.006 78.1967H70.2597L69.2499 76.5614L68.2402 78.1967H67.4939L68.8329 76.0894L67.4939 73.9821H68.2402ZM71.7755 79.7772V73.9821H72.4011V74.6516H72.4779C72.5255 74.5784 72.5913 74.4852 72.6755 74.3717C72.7615 74.2565 72.884 74.1541 73.0432 74.0644C73.2041 73.973 73.4218 73.9272 73.6962 73.9272C74.0511 73.9272 74.3639 74.016 74.6346 74.1934C74.9054 74.3708 75.1166 74.6224 75.2685 74.948C75.4203 75.2736 75.4962 75.6577 75.4962 76.1004C75.4962 76.5467 75.4203 76.9336 75.2685 77.2611C75.1166 77.5867 74.9063 77.8391 74.6374 78.0184C74.3685 78.1958 74.0584 78.2845 73.7072 78.2845C73.4365 78.2845 73.2197 78.2397 73.0569 78.1501C72.8941 78.0586 72.7688 77.9553 72.681 77.84C72.5932 77.7229 72.5255 77.626 72.4779 77.5492H72.4231V79.7772H71.7755ZM72.4121 76.0894C72.4121 76.4077 72.4587 76.6885 72.552 76.9318C72.6453 77.1732 72.7816 77.3626 72.9609 77.4998C73.1401 77.6351 73.3596 77.7028 73.6194 77.7028C73.8901 77.7028 74.116 77.6315 74.2971 77.4888C74.4801 77.3443 74.6172 77.1504 74.7087 76.9071C74.802 76.662 74.8486 76.3894 74.8486 76.0894C74.8486 75.7931 74.8029 75.526 74.7115 75.2882C74.6218 75.0486 74.4855 74.8592 74.3026 74.7202C74.1215 74.5794 73.8938 74.5089 73.6194 74.5089C73.356 74.5089 73.1346 74.5757 72.9554 74.7092C72.7761 74.8409 72.6407 75.0257 72.5493 75.2635C72.4578 75.4995 72.4121 75.7748 72.4121 76.0894ZM76.977 72.5772V78.1967H76.3295V72.5772H76.977ZM78.0085 78.1967V73.9821H78.6561V78.1967H78.0085ZM78.3378 73.2797C78.2116 73.2797 78.1027 73.2367 78.0113 73.1507C77.9216 73.0647 77.8768 72.9614 77.8768 72.8407C77.8768 72.7199 77.9216 72.6166 78.0113 72.5306C78.1027 72.4446 78.2116 72.4016 78.3378 72.4016C78.464 72.4016 78.5719 72.4446 78.6616 72.5306C78.753 72.6166 78.7988 72.7199 78.7988 72.8407C78.7988 72.9614 78.753 73.0647 78.6616 73.1507C78.5719 73.2367 78.464 73.2797 78.3378 73.2797ZM81.3998 78.2845C81.0047 78.2845 80.6644 78.1912 80.3791 78.0046C80.0937 77.8181 79.8742 77.561 79.7205 77.2336C79.5669 76.9062 79.49 76.5321 79.49 76.1114C79.49 75.6833 79.5687 75.3056 79.726 74.9781C79.8852 74.6489 80.1065 74.3919 80.39 74.2071C80.6754 74.0205 81.0083 73.9272 81.3888 73.9272C81.6851 73.9272 81.9522 73.9821 82.19 74.0919C82.4278 74.2016 82.6226 74.3553 82.7745 74.5528C82.9263 74.7504 83.0205 74.9809 83.0571 75.2443H82.4095C82.3601 75.0522 82.2504 74.8821 82.0803 74.7339C81.912 74.5839 81.6851 74.5089 81.3998 74.5089C81.1473 74.5089 80.926 74.5748 80.7358 74.7065C80.5473 74.8364 80.4001 75.0202 80.294 75.258C80.1897 75.494 80.1376 75.7711 80.1376 76.0894C80.1376 76.415 80.1888 76.6986 80.2912 76.94C80.3955 77.1815 80.5419 77.369 80.7303 77.5025C80.9205 77.636 81.1437 77.7028 81.3998 77.7028C81.5681 77.7028 81.7208 77.6735 81.858 77.615C81.9952 77.5565 82.1114 77.4723 82.2065 77.3626C82.3016 77.2528 82.3693 77.1211 82.4095 76.9675H83.0571C83.0205 77.2162 82.9299 77.4403 82.7854 77.6397C82.6428 77.8373 82.4534 77.9946 82.2175 78.1117C81.9833 78.2269 81.7107 78.2845 81.3998 78.2845ZM83.8492 78.1967V73.9821H84.4967V78.1967H83.8492ZM84.1785 73.2797C84.0522 73.2797 83.9434 73.2367 83.8519 73.1507C83.7623 73.0647 83.7175 72.9614 83.7175 72.8407C83.7175 72.7199 83.7623 72.6166 83.8519 72.5306C83.9434 72.4446 84.0522 72.4016 84.1785 72.4016C84.3047 72.4016 84.4126 72.4446 84.5022 72.5306C84.5937 72.6166 84.6394 72.7199 84.6394 72.8407C84.6394 72.9614 84.5937 73.0647 84.5022 73.1507C84.4126 73.2367 84.3047 73.2797 84.1785 73.2797ZM87.3612 73.9821V74.5309H85.177V73.9821H87.3612ZM85.8136 72.9724H86.4612V76.9894C86.4612 77.1723 86.4877 77.3095 86.5407 77.401C86.5956 77.4906 86.6651 77.551 86.7493 77.5821C86.8353 77.6114 86.9258 77.626 87.0209 77.626C87.0923 77.626 87.1508 77.6223 87.1965 77.615C87.2423 77.6059 87.2788 77.5985 87.3063 77.5931L87.438 78.1748C87.3941 78.1912 87.3328 78.2077 87.2542 78.2242C87.1755 78.2424 87.0758 78.2516 86.9551 78.2516C86.7721 78.2516 86.5929 78.2123 86.4173 78.1336C86.2435 78.0549 86.099 77.9351 85.9837 77.7742C85.8703 77.6132 85.8136 77.4101 85.8136 77.165V72.9724Z" fill="#4D4D4D"/>
<rect x="97.5312" y="65.6777" width="42.0382" height="19.0382" rx="9.51912" fill="white"/>
<path d="M103.731 78.1967V72.5772H105.63C106.071 72.5772 106.431 72.6568 106.711 72.816C106.993 72.9733 107.201 73.1864 107.337 73.4553C107.472 73.7242 107.54 74.0242 107.54 74.3553C107.54 74.6864 107.472 74.9873 107.337 75.258C107.203 75.5287 106.996 75.7446 106.717 75.9056C106.437 76.0647 106.078 76.1443 105.641 76.1443H104.28V75.5406H105.619C105.921 75.5406 106.163 75.4885 106.346 75.3842C106.529 75.28 106.662 75.1391 106.744 74.9617C106.828 74.7824 106.87 74.5803 106.87 74.3553C106.87 74.1303 106.828 73.9291 106.744 73.7516C106.662 73.5742 106.528 73.4352 106.343 73.3346C106.159 73.2321 105.914 73.1809 105.608 73.1809H104.412V78.1967H103.731ZM109.041 72.5772V78.1967H108.394V72.5772H109.041ZM111.313 78.2955C111.046 78.2955 110.803 78.2452 110.586 78.1446C110.368 78.0421 110.195 77.8949 110.067 77.7028C109.939 77.5089 109.875 77.2748 109.875 77.0004C109.875 76.7589 109.923 76.5632 110.018 76.4132C110.113 76.2614 110.24 76.1425 110.399 76.0565C110.558 75.9705 110.734 75.9065 110.926 75.8644C111.12 75.8205 111.315 75.7858 111.51 75.7601C111.767 75.7272 111.974 75.7025 112.133 75.6861C112.294 75.6678 112.411 75.6376 112.485 75.5955C112.56 75.5534 112.597 75.4803 112.597 75.376V75.3541C112.597 75.0833 112.523 74.873 112.375 74.723C112.228 74.573 112.006 74.498 111.708 74.498C111.399 74.498 111.157 74.5656 110.981 74.701C110.805 74.8364 110.682 74.9809 110.61 75.1345L109.996 74.915C110.106 74.6589 110.252 74.4595 110.435 74.3169C110.62 74.1724 110.821 74.0717 111.039 74.015C111.258 73.9565 111.474 73.9272 111.686 73.9272C111.821 73.9272 111.977 73.9437 112.153 73.9766C112.33 74.0077 112.501 74.0727 112.666 74.1714C112.832 74.2702 112.97 74.4193 113.08 74.6187C113.19 74.8181 113.245 75.0852 113.245 75.4199V78.1967H112.597V77.626H112.564C112.52 77.7175 112.447 77.8153 112.345 77.9196C112.242 78.0239 112.106 78.1126 111.936 78.1857C111.766 78.2589 111.558 78.2955 111.313 78.2955ZM111.412 77.7138C111.668 77.7138 111.884 77.6635 112.059 77.5629C112.237 77.4623 112.37 77.3324 112.46 77.1732C112.551 77.0141 112.597 76.8467 112.597 76.6711V76.0784C112.57 76.1114 112.509 76.1415 112.416 76.169C112.324 76.1946 112.218 76.2175 112.098 76.2376C111.979 76.2559 111.863 76.2723 111.749 76.287C111.638 76.2998 111.547 76.3108 111.478 76.3199C111.309 76.3419 111.152 76.3775 111.006 76.4269C110.861 76.4745 110.744 76.5467 110.654 76.6437C110.567 76.7388 110.523 76.8687 110.523 77.0333C110.523 77.2583 110.606 77.4284 110.772 77.5437C110.941 77.6571 111.154 77.7138 111.412 77.7138ZM114.92 75.6614V78.1967H114.272V73.9821H114.898V74.6406H114.952C115.051 74.4266 115.201 74.2547 115.402 74.1248C115.604 73.9931 115.863 73.9272 116.182 73.9272C116.467 73.9272 116.717 73.9858 116.931 74.1028C117.145 74.2181 117.311 74.3937 117.43 74.6297C117.549 74.8638 117.609 75.1602 117.609 75.5187V78.1967H116.961V75.5626C116.961 75.2315 116.875 74.9736 116.703 74.7888C116.531 74.6022 116.295 74.5089 115.995 74.5089C115.788 74.5089 115.604 74.5538 115.441 74.6434C115.28 74.733 115.153 74.8638 115.059 75.0358C114.966 75.2077 114.92 75.4162 114.92 75.6614ZM119.285 75.6614V78.1967H118.637V73.9821H119.263V74.6406H119.318C119.417 74.4266 119.567 74.2547 119.768 74.1248C119.969 73.9931 120.229 73.9272 120.547 73.9272C120.832 73.9272 121.082 73.9858 121.296 74.1028C121.51 74.2181 121.677 74.3937 121.796 74.6297C121.914 74.8638 121.974 75.1602 121.974 75.5187V78.1967H121.326V75.5626C121.326 75.2315 121.24 74.9736 121.068 74.7888C120.896 74.6022 120.66 74.5089 120.36 74.5089C120.154 74.5089 119.969 74.5538 119.806 74.6434C119.645 74.733 119.518 74.8638 119.425 75.0358C119.332 75.2077 119.285 75.4162 119.285 75.6614ZM123.003 78.1967V73.9821H123.65V78.1967H123.003ZM123.332 73.2797C123.206 73.2797 123.097 73.2367 123.005 73.1507C122.916 73.0647 122.871 72.9614 122.871 72.8407C122.871 72.7199 122.916 72.6166 123.005 72.5306C123.097 72.4446 123.206 72.4016 123.332 72.4016C123.458 72.4016 123.566 72.4446 123.656 72.5306C123.747 72.6166 123.793 72.7199 123.793 72.8407C123.793 72.9614 123.747 73.0647 123.656 73.1507C123.566 73.2367 123.458 73.2797 123.332 73.2797ZM125.329 75.6614V78.1967H124.682V73.9821H125.307V74.6406H125.362C125.461 74.4266 125.611 74.2547 125.812 74.1248C126.013 73.9931 126.273 73.9272 126.591 73.9272C126.877 73.9272 127.127 73.9858 127.341 74.1028C127.555 74.2181 127.721 74.3937 127.84 74.6297C127.959 74.8638 128.018 75.1602 128.018 75.5187V78.1967H127.371V75.5626C127.371 75.2315 127.285 74.9736 127.113 74.7888C126.941 74.6022 126.705 74.5089 126.405 74.5089C126.198 74.5089 126.013 74.5538 125.851 74.6434C125.69 74.733 125.563 74.8638 125.469 75.0358C125.376 75.2077 125.329 75.4162 125.329 75.6614ZM130.748 79.865C130.435 79.865 130.167 79.8248 129.942 79.7443C129.717 79.6656 129.529 79.5613 129.379 79.4315C129.231 79.3034 129.113 79.1662 129.025 79.0199L129.541 78.6577C129.599 78.7345 129.674 78.8223 129.763 78.9211C129.853 79.0217 129.975 79.1086 130.131 79.1818C130.288 79.2568 130.494 79.2943 130.748 79.2943C131.088 79.2943 131.369 79.212 131.591 79.0473C131.812 78.8827 131.923 78.6248 131.923 78.2735V77.4175H131.868C131.82 77.4943 131.753 77.5894 131.665 77.7028C131.579 77.8144 131.454 77.9141 131.292 78.0019C131.131 78.0879 130.913 78.1309 130.638 78.1309C130.298 78.1309 129.993 78.0504 129.722 77.8894C129.453 77.7284 129.24 77.4943 129.083 77.187C128.927 76.8797 128.849 76.5065 128.849 76.0675C128.849 75.6358 128.925 75.2598 129.077 74.9397C129.229 74.6178 129.44 74.369 129.711 74.1934C129.982 74.016 130.295 73.9272 130.649 73.9272C130.924 73.9272 131.142 73.973 131.303 74.0644C131.465 74.1541 131.59 74.2565 131.676 74.3717C131.763 74.4852 131.831 74.5784 131.879 74.6516H131.945V73.9821H132.57V78.3174C132.57 78.6796 132.488 78.9741 132.323 79.201C132.16 79.4296 131.941 79.597 131.665 79.7031C131.39 79.811 131.085 79.865 130.748 79.865ZM130.726 77.5492C130.986 77.5492 131.206 77.4897 131.385 77.3708C131.564 77.2519 131.7 77.0809 131.794 76.8577C131.887 76.6345 131.934 76.3675 131.934 76.0565C131.934 75.7528 131.888 75.4848 131.796 75.2525C131.705 75.0202 131.57 74.8382 131.39 74.7065C131.211 74.5748 130.99 74.5089 130.726 74.5089C130.452 74.5089 130.223 74.5784 130.04 74.7175C129.859 74.8565 129.723 75.0431 129.631 75.2772C129.542 75.5114 129.497 75.7711 129.497 76.0565C129.497 76.3492 129.543 76.608 129.634 76.833C129.728 77.0562 129.865 77.2318 130.046 77.3598C130.229 77.4861 130.456 77.5492 130.726 77.5492Z" fill="#4D4D4D"/>
<rect x="8.83203" y="88.3047" width="57.0382" height="19.0382" rx="9.51912" fill="white"/>
<path d="M19.554 96.9603H18.8735C18.8332 96.7646 18.7628 96.5926 18.6622 96.4444C18.5634 96.2963 18.4427 96.1719 18.3 96.0713C18.1592 95.9688 18.0028 95.892 17.8308 95.8408C17.6589 95.7896 17.4796 95.7639 17.293 95.7639C16.9528 95.7639 16.6445 95.8499 16.3683 96.0219C16.0939 96.1938 15.8753 96.4472 15.7125 96.7819C15.5516 97.1167 15.4711 97.5274 15.4711 98.0139C15.4711 98.5005 15.5516 98.9112 15.7125 99.2459C15.8753 99.5807 16.0939 99.834 16.3683 100.006C16.6445 100.178 16.9528 100.264 17.293 100.264C17.4796 100.264 17.6589 100.238 17.8308 100.187C18.0028 100.136 18.1592 100.06 18.3 99.9593C18.4427 99.8569 18.5634 99.7316 18.6622 99.5834C18.7628 99.4334 18.8332 99.2615 18.8735 99.0676H19.554C19.5027 99.3548 19.4095 99.6118 19.2741 99.8386C19.1387 100.065 18.9704 100.258 18.7692 100.418C18.568 100.575 18.3421 100.695 18.0915 100.777C17.8427 100.859 17.5765 100.9 17.293 100.9C16.8137 100.9 16.3875 100.783 16.0144 100.549C15.6412 100.315 15.3476 99.9822 15.1336 99.5505C14.9195 99.1188 14.8125 98.6066 14.8125 98.0139C14.8125 97.4213 14.9195 96.9091 15.1336 96.4774C15.3476 96.0457 15.6412 95.7127 16.0144 95.4786C16.3875 95.2444 16.8137 95.1274 17.293 95.1274C17.5765 95.1274 17.8427 95.1685 18.0915 95.2508C18.3421 95.3332 18.568 95.4539 18.7692 95.613C18.9704 95.7704 19.1387 95.9624 19.2741 96.1893C19.4095 96.4142 19.5027 96.6713 19.554 96.9603ZM22.1234 100.911C21.7429 100.911 21.4091 100.821 21.1219 100.64C20.8365 100.459 20.6134 100.205 20.4524 99.8798C20.2933 99.5542 20.2137 99.1737 20.2137 98.7383C20.2137 98.2993 20.2933 97.9161 20.4524 97.5886C20.6134 97.2612 20.8365 97.0069 21.1219 96.8258C21.4091 96.6447 21.7429 96.5542 22.1234 96.5542C22.5039 96.5542 22.8368 96.6447 23.1222 96.8258C23.4094 97.0069 23.6326 97.2612 23.7917 97.5886C23.9527 97.9161 24.0332 98.2993 24.0332 98.7383C24.0332 99.1737 23.9527 99.5542 23.7917 99.8798C23.6326 100.205 23.4094 100.459 23.1222 100.64C22.8368 100.821 22.5039 100.911 22.1234 100.911ZM22.1234 100.33C22.4124 100.33 22.6502 100.256 22.8368 100.108C23.0234 99.9593 23.1615 99.7645 23.2512 99.5231C23.3408 99.2816 23.3856 99.02 23.3856 98.7383C23.3856 98.4566 23.3408 98.1941 23.2512 97.9508C23.1615 97.7075 23.0234 97.5109 22.8368 97.3609C22.6502 97.2109 22.4124 97.1359 22.1234 97.1359C21.8344 97.1359 21.5966 97.2109 21.41 97.3609C21.2234 97.5109 21.0853 97.7075 20.9957 97.9508C20.9061 98.1941 20.8612 98.4566 20.8612 98.7383C20.8612 99.02 20.9061 99.2816 20.9957 99.5231C21.0853 99.7645 21.2234 99.9593 21.41 100.108C21.5966 100.256 21.8344 100.33 22.1234 100.33ZM25.5147 98.2883V100.824H24.8671V96.6091H25.4927V97.2676H25.5476C25.6464 97.0536 25.7964 96.8816 25.9976 96.7517C26.1988 96.62 26.4586 96.5542 26.7769 96.5542C27.0622 96.5542 27.3119 96.6127 27.5259 96.7298C27.74 96.845 27.9064 97.0206 28.0253 97.2566C28.1442 97.4908 28.2037 97.7871 28.2037 98.1456V100.824H27.5561V98.1895C27.5561 97.8584 27.4701 97.6005 27.2982 97.4158C27.1262 97.2292 26.8903 97.1359 26.5903 97.1359C26.3836 97.1359 26.1988 97.1807 26.036 97.2703C25.875 97.36 25.7479 97.4908 25.6546 97.6627C25.5613 97.8347 25.5147 98.0432 25.5147 98.2883ZM32.2178 97.553L31.6361 97.7176C31.5995 97.6206 31.5455 97.5264 31.4742 97.435C31.4047 97.3417 31.3096 97.2649 31.1888 97.2045C31.0681 97.1441 30.9135 97.1139 30.7251 97.1139C30.4672 97.1139 30.2522 97.1734 30.0803 97.2923C29.9102 97.4094 29.8251 97.5584 29.8251 97.7395C29.8251 97.9005 29.8837 98.0277 30.0007 98.1209C30.1178 98.2142 30.3007 98.292 30.5495 98.3542L31.1751 98.5078C31.5519 98.5993 31.8327 98.7392 32.0175 98.9276C32.2022 99.1142 32.2946 99.3548 32.2946 99.6493C32.2946 99.8907 32.2251 100.107 32.0861 100.297C31.9489 100.487 31.7568 100.637 31.5099 100.747C31.2629 100.857 30.9757 100.911 30.6483 100.911C30.2184 100.911 29.8626 100.818 29.5809 100.632C29.2992 100.445 29.1209 100.172 29.0459 99.8139L29.6605 99.6603C29.719 99.8871 29.8297 100.057 29.9925 100.171C30.1571 100.284 30.3721 100.341 30.6373 100.341C30.9391 100.341 31.1788 100.277 31.3562 100.149C31.5355 100.019 31.6251 99.8633 31.6251 99.6822C31.6251 99.5359 31.5739 99.4133 31.4714 99.3145C31.369 99.2139 31.2117 99.1389 30.9995 99.0895L30.2971 98.9249C29.9111 98.8334 29.6276 98.6917 29.4465 98.4996C29.2672 98.3057 29.1776 98.0633 29.1776 97.7725C29.1776 97.5347 29.2443 97.3243 29.3779 97.1414C29.5132 96.9585 29.6971 96.8149 29.9294 96.7106C30.1635 96.6063 30.4288 96.5542 30.7251 96.5542C31.1422 96.5542 31.4696 96.6456 31.7074 96.8286C31.9471 97.0115 32.1172 97.253 32.2178 97.553ZM34.9478 96.6091V97.1578H32.7636V96.6091H34.9478ZM33.4002 95.5993H34.0478V99.6164C34.0478 99.7993 34.0743 99.9365 34.1273 100.028C34.1822 100.118 34.2517 100.178 34.3359 100.209C34.4218 100.238 34.5124 100.253 34.6075 100.253C34.6789 100.253 34.7374 100.249 34.7831 100.242C34.8289 100.233 34.8654 100.226 34.8929 100.22L35.0246 100.802C34.9807 100.818 34.9194 100.835 34.8407 100.851C34.7621 100.869 34.6624 100.879 34.5417 100.879C34.3587 100.879 34.1795 100.839 34.0039 100.761C33.8301 100.682 33.6856 100.562 33.5703 100.401C33.4569 100.24 33.4002 100.037 33.4002 99.792V95.5993ZM37.4891 100.911C37.083 100.911 36.7327 100.822 36.4382 100.643C36.1455 100.461 35.9196 100.209 35.7604 99.8853C35.6031 99.5597 35.5245 99.181 35.5245 98.7493C35.5245 98.3176 35.6031 97.9371 35.7604 97.6078C35.9196 97.2767 36.1409 97.0188 36.4245 96.8341C36.7098 96.6475 37.0427 96.5542 37.4232 96.5542C37.6427 96.5542 37.8595 96.5908 38.0735 96.6639C38.2876 96.7371 38.4824 96.856 38.658 97.0206C38.8336 97.1835 38.9735 97.3993 39.0778 97.6682C39.1821 97.9371 39.2342 98.2682 39.2342 98.6615V98.9359H35.9854V98.3761H38.5757C38.5757 98.1383 38.5281 97.9261 38.433 97.7395C38.3397 97.553 38.2062 97.4057 38.0324 97.2978C37.8604 97.1899 37.6574 97.1359 37.4232 97.1359C37.1653 97.1359 36.9421 97.1999 36.7537 97.328C36.5671 97.4542 36.4235 97.6188 36.3229 97.8219C36.2223 98.0249 36.172 98.2426 36.172 98.4749V98.8481C36.172 99.1664 36.2269 99.4362 36.3367 99.6575C36.4482 99.877 36.6028 100.044 36.8004 100.16C36.9979 100.273 37.2275 100.33 37.4891 100.33C37.6592 100.33 37.8129 100.306 37.9501 100.258C38.0891 100.209 38.2089 100.136 38.3095 100.039C38.4101 99.9401 38.4879 99.8176 38.5427 99.6712L39.1683 99.8468C39.1025 100.059 38.9918 100.246 38.8363 100.407C38.6808 100.566 38.4888 100.69 38.2601 100.78C38.0315 100.868 37.7744 100.911 37.4891 100.911ZM40.7123 95.2042V100.824H40.0647V95.2042H40.7123ZM42.3913 95.2042V100.824H41.7438V95.2042H42.3913ZM44.6631 100.922C44.396 100.922 44.1536 100.872 43.9359 100.772C43.7183 100.669 43.5454 100.522 43.4174 100.33C43.2893 100.136 43.2253 99.9017 43.2253 99.6273C43.2253 99.3859 43.2728 99.1901 43.368 99.0401C43.4631 98.8883 43.5902 98.7694 43.7494 98.6834C43.9085 98.5975 44.0841 98.5334 44.2762 98.4914C44.4701 98.4475 44.6649 98.4127 44.8606 98.3871C45.1167 98.3542 45.3244 98.3295 45.4835 98.313C45.6445 98.2947 45.7615 98.2645 45.8347 98.2225C45.9097 98.1804 45.9472 98.1072 45.9472 98.003V97.981C45.9472 97.7103 45.8731 97.4999 45.725 97.3499C45.5786 97.1999 45.3564 97.1249 45.0582 97.1249C44.7491 97.1249 44.5067 97.1926 44.3311 97.328C44.1555 97.4633 44.032 97.6078 43.9606 97.7615L43.346 97.542C43.4558 97.2859 43.6021 97.0865 43.785 96.9438C43.9698 96.7993 44.171 96.6987 44.3887 96.642C44.6082 96.5835 44.8241 96.5542 45.0362 96.5542C45.1716 96.5542 45.3271 96.5707 45.5027 96.6036C45.6801 96.6347 45.8512 96.6996 46.0158 96.7984C46.1823 96.8972 46.3204 97.0463 46.4301 97.2456C46.5399 97.445 46.5948 97.7121 46.5948 98.0469V100.824H45.9472V100.253H45.9143C45.8704 100.344 45.7972 100.442 45.6948 100.547C45.5923 100.651 45.4561 100.74 45.2859 100.813C45.1158 100.886 44.9082 100.922 44.6631 100.922ZM44.7619 100.341C45.018 100.341 45.2338 100.29 45.4094 100.19C45.5869 100.089 45.7204 99.9593 45.81 99.8002C45.9015 99.6411 45.9472 99.4737 45.9472 99.2981V98.7054C45.9198 98.7383 45.8594 98.7685 45.7661 98.7959C45.6747 98.8215 45.5686 98.8444 45.4478 98.8645C45.3289 98.8828 45.2128 98.8993 45.0994 98.9139C44.9878 98.9267 44.8972 98.9377 44.8277 98.9469C44.6594 98.9688 44.5021 99.0045 44.3558 99.0539C44.2113 99.1014 44.0942 99.1737 44.0045 99.2706C43.9167 99.3658 43.8728 99.4956 43.8728 99.6603C43.8728 99.8853 43.9561 100.055 44.1225 100.171C44.2908 100.284 44.5039 100.341 44.7619 100.341ZM49.4551 96.6091V97.1578H47.2709V96.6091H49.4551ZM47.9075 95.5993H48.5551V99.6164C48.5551 99.7993 48.5816 99.9365 48.6347 100.028C48.6895 100.118 48.759 100.178 48.8432 100.209C48.9292 100.238 49.0197 100.253 49.1148 100.253C49.1862 100.253 49.2447 100.249 49.2904 100.242C49.3362 100.233 49.3728 100.226 49.4002 100.22L49.5319 100.802C49.488 100.818 49.4267 100.835 49.3481 100.851C49.2694 100.869 49.1697 100.879 49.049 100.879C48.8661 100.879 48.6868 100.839 48.5112 100.761C48.3374 100.682 48.1929 100.562 48.0776 100.401C47.9642 100.24 47.9075 100.037 47.9075 99.792V95.5993ZM50.2746 100.824V96.6091H50.9222V100.824H50.2746ZM50.6039 95.9066C50.4777 95.9066 50.3688 95.8636 50.2774 95.7777C50.1877 95.6917 50.1429 95.5883 50.1429 95.4676C50.1429 95.3469 50.1877 95.2435 50.2774 95.1576C50.3688 95.0716 50.4777 95.0286 50.6039 95.0286C50.7301 95.0286 50.838 95.0716 50.9277 95.1576C51.0191 95.2435 51.0649 95.3469 51.0649 95.4676C51.0649 95.5883 51.0191 95.6917 50.9277 95.7777C50.838 95.8636 50.7301 95.9066 50.6039 95.9066ZM53.6659 100.911C53.2854 100.911 52.9515 100.821 52.6644 100.64C52.379 100.459 52.1558 100.205 51.9948 99.8798C51.8357 99.5542 51.7561 99.1737 51.7561 98.7383C51.7561 98.2993 51.8357 97.9161 51.9948 97.5886C52.1558 97.2612 52.379 97.0069 52.6644 96.8258C52.9515 96.6447 53.2854 96.5542 53.6659 96.5542C54.0464 96.5542 54.3793 96.6447 54.6646 96.8258C54.9518 97.0069 55.175 97.2612 55.3342 97.5886C55.4951 97.9161 55.5756 98.2993 55.5756 98.7383C55.5756 99.1737 55.4951 99.5542 55.3342 99.8798C55.175 100.205 54.9518 100.459 54.6646 100.64C54.3793 100.821 54.0464 100.911 53.6659 100.911ZM53.6659 100.33C53.9549 100.33 54.1927 100.256 54.3793 100.108C54.5659 99.9593 54.704 99.7645 54.7936 99.5231C54.8832 99.2816 54.9281 99.02 54.9281 98.7383C54.9281 98.4566 54.8832 98.1941 54.7936 97.9508C54.704 97.7075 54.5659 97.5109 54.3793 97.3609C54.1927 97.2109 53.9549 97.1359 53.6659 97.1359C53.3768 97.1359 53.139 97.2109 52.9525 97.3609C52.7659 97.5109 52.6278 97.7075 52.5381 97.9508C52.4485 98.1941 52.4037 98.4566 52.4037 98.7383C52.4037 99.02 52.4485 99.2816 52.5381 99.5231C52.6278 99.7645 52.7659 99.9593 52.9525 100.108C53.139 100.256 53.3768 100.33 53.6659 100.33ZM57.0571 98.2883V100.824H56.4096V96.6091H57.0352V97.2676H57.09C57.1888 97.0536 57.3388 96.8816 57.54 96.7517C57.7413 96.62 58.001 96.5542 58.3193 96.5542C58.6047 96.5542 58.8544 96.6127 59.0684 96.7298C59.2824 96.845 59.4489 97.0206 59.5678 97.2566C59.6867 97.4908 59.7461 97.7871 59.7461 98.1456V100.824H59.0986V98.1895C59.0986 97.8584 59.0126 97.6005 58.8406 97.4158C58.6687 97.2292 58.4327 97.1359 58.1327 97.1359C57.926 97.1359 57.7413 97.1807 57.5785 97.2703C57.4175 97.36 57.2903 97.4908 57.1971 97.6627C57.1038 97.8347 57.0571 98.0432 57.0571 98.2883Z" fill="#4D4D4D"/>
<rect x="69.1816" y="88.3047" width="56.0382" height="19.0382" rx="9.51912" fill="white"/>
<path d="M80.1231 98.0139C80.1231 98.6066 80.0161 99.1188 79.8021 99.5505C79.588 99.9822 79.2944 100.315 78.9213 100.549C78.5481 100.783 78.1219 100.9 77.6426 100.9C77.1634 100.9 76.7371 100.783 76.364 100.549C75.9908 100.315 75.6972 99.9822 75.4832 99.5505C75.2692 99.1188 75.1621 98.6066 75.1621 98.0139C75.1621 97.4213 75.2692 96.9091 75.4832 96.4774C75.6972 96.0457 75.9908 95.7127 76.364 95.4786C76.7371 95.2444 77.1634 95.1274 77.6426 95.1274C78.1219 95.1274 78.5481 95.2444 78.9213 95.4786C79.2944 95.7127 79.588 96.0457 79.8021 96.4774C80.0161 96.9091 80.1231 97.4213 80.1231 98.0139ZM79.4646 98.0139C79.4646 97.5274 79.3832 97.1167 79.2203 96.7819C79.0594 96.4472 78.8408 96.1938 78.5646 96.0219C78.2902 95.8499 77.9829 95.7639 77.6426 95.7639C77.3024 95.7639 76.9941 95.8499 76.7179 96.0219C76.4435 96.1938 76.2249 96.4472 76.0621 96.7819C75.9012 97.1167 75.8207 97.5274 75.8207 98.0139C75.8207 98.5005 75.9012 98.9112 76.0621 99.2459C76.2249 99.5807 76.4435 99.834 76.7179 100.006C76.9941 100.178 77.3024 100.264 77.6426 100.264C77.9829 100.264 78.2902 100.178 78.5646 100.006C78.8408 99.834 79.0594 99.5807 79.2203 99.2459C79.3832 98.9112 79.4646 98.5005 79.4646 98.0139ZM81.0249 100.824V96.6091H81.6506V97.2456H81.6945C81.7713 97.0371 81.9103 96.8679 82.1115 96.738C82.3127 96.6081 82.5396 96.5432 82.792 96.5432C82.8396 96.5432 82.899 96.5441 82.9704 96.546C83.0417 96.5478 83.0957 96.5505 83.1322 96.5542V97.2127C83.1103 97.2072 83.06 97.199 82.9813 97.188C82.9045 97.1752 82.8231 97.1688 82.7371 97.1688C82.5323 97.1688 82.3493 97.2118 82.1884 97.2978C82.0292 97.3819 81.903 97.499 81.8097 97.649C81.7182 97.7972 81.6725 97.9664 81.6725 98.1566V100.824H81.0249ZM85.3182 102.492C85.0054 102.492 84.7365 102.452 84.5115 102.371C84.2865 102.293 84.099 102.188 83.949 102.058C83.8009 101.93 83.6829 101.793 83.5951 101.647L84.1109 101.285C84.1695 101.361 84.2436 101.449 84.3332 101.548C84.4228 101.649 84.5454 101.736 84.7009 101.809C84.8582 101.884 85.064 101.921 85.3182 101.921C85.6585 101.921 85.9393 101.839 86.1606 101.674C86.382 101.51 86.4926 101.252 86.4926 100.9V100.044H86.4377C86.3902 100.121 86.3225 100.216 86.2347 100.33C86.1487 100.441 86.0243 100.541 85.8615 100.629C85.7006 100.715 85.4829 100.758 85.2085 100.758C84.8682 100.758 84.5628 100.677 84.292 100.516C84.0231 100.355 83.81 100.121 83.6527 99.8139C83.4972 99.5066 83.4195 99.1334 83.4195 98.6944C83.4195 98.2627 83.4954 97.8868 83.6472 97.5667C83.799 97.2447 84.0103 96.996 84.2811 96.8203C84.5518 96.6429 84.8646 96.5542 85.2195 96.5542C85.4939 96.5542 85.7115 96.5999 85.8725 96.6914C86.0353 96.781 86.1597 96.8835 86.2457 96.9987C86.3335 97.1121 86.4012 97.2054 86.4487 97.2786H86.5146V96.6091H87.1402V100.944C87.1402 101.307 87.0579 101.601 86.8932 101.828C86.7304 102.057 86.5109 102.224 86.2347 102.33C85.9603 102.438 85.6548 102.492 85.3182 102.492ZM85.2963 100.176C85.556 100.176 85.7756 100.117 85.9548 99.9978C86.1341 99.8789 86.2704 99.7078 86.3637 99.4847C86.457 99.2615 86.5036 98.9944 86.5036 98.6834C86.5036 98.3798 86.4579 98.1118 86.3664 97.8795C86.2749 97.6472 86.1396 97.4652 85.9603 97.3334C85.781 97.2017 85.5597 97.1359 85.2963 97.1359C85.0219 97.1359 84.7932 97.2054 84.6103 97.3444C84.4292 97.4834 84.2929 97.67 84.2015 97.9042C84.1119 98.1383 84.067 98.3981 84.067 98.6834C84.067 98.9761 84.1128 99.235 84.2042 99.46C84.2975 99.6831 84.4347 99.8587 84.6158 99.9868C84.7987 100.113 85.0256 100.176 85.2963 100.176ZM89.4112 100.922C89.1442 100.922 88.9018 100.872 88.6841 100.772C88.4664 100.669 88.2936 100.522 88.1655 100.33C88.0375 100.136 87.9734 99.9017 87.9734 99.6273C87.9734 99.3859 88.021 99.1901 88.1161 99.0401C88.2112 98.8883 88.3384 98.7694 88.4975 98.6834C88.6567 98.5975 88.8323 98.5334 89.0244 98.4914C89.2183 98.4475 89.4131 98.4127 89.6088 98.3871C89.8649 98.3542 90.0725 98.3295 90.2317 98.313C90.3926 98.2947 90.5097 98.2645 90.5829 98.2225C90.6579 98.1804 90.6954 98.1072 90.6954 98.003V97.981C90.6954 97.7103 90.6213 97.4999 90.4731 97.3499C90.3268 97.1999 90.1045 97.1249 89.8064 97.1249C89.4972 97.1249 89.2548 97.1926 89.0792 97.328C88.9036 97.4633 88.7801 97.6078 88.7088 97.7615L88.0942 97.542C88.2039 97.2859 88.3503 97.0865 88.5332 96.9438C88.718 96.7993 88.9192 96.6987 89.1369 96.642C89.3564 96.5835 89.5722 96.5542 89.7844 96.5542C89.9198 96.5542 90.0753 96.5707 90.2509 96.6036C90.4283 96.6347 90.5993 96.6996 90.764 96.7984C90.9304 96.8972 91.0685 97.0463 91.1783 97.2456C91.2881 97.445 91.3429 97.7121 91.3429 98.0469V100.824H90.6954V100.253H90.6625C90.6185 100.344 90.5454 100.442 90.4429 100.547C90.3405 100.651 90.2042 100.74 90.0341 100.813C89.864 100.886 89.6564 100.922 89.4112 100.922ZM89.51 100.341C89.7661 100.341 89.982 100.29 90.1576 100.19C90.335 100.089 90.4686 99.9593 90.5582 99.8002C90.6496 99.6411 90.6954 99.4737 90.6954 99.2981V98.7054C90.6679 98.7383 90.6076 98.7685 90.5143 98.7959C90.4228 98.8215 90.3167 98.8444 90.196 98.8645C90.0771 98.8828 89.9609 98.8993 89.8475 98.9139C89.7359 98.9267 89.6454 98.9377 89.5759 98.9469C89.4076 98.9688 89.2503 99.0045 89.1039 99.0539C88.9594 99.1014 88.8423 99.1737 88.7527 99.2706C88.6649 99.3658 88.621 99.4956 88.621 99.6603C88.621 99.8853 88.7042 100.055 88.8707 100.171C89.039 100.284 89.2521 100.341 89.51 100.341ZM93.0179 98.2883V100.824H92.3703V96.6091H92.9959V97.2676H93.0508C93.1496 97.0536 93.2996 96.8816 93.5008 96.7517C93.702 96.62 93.9618 96.5542 94.2801 96.5542C94.5654 96.5542 94.8151 96.6127 95.0291 96.7298C95.2432 96.845 95.4096 97.0206 95.5285 97.2566C95.6474 97.4908 95.7069 97.7871 95.7069 98.1456V100.824H95.0593V98.1895C95.0593 97.8584 94.9734 97.6005 94.8014 97.4158C94.6295 97.2292 94.3935 97.1359 94.0935 97.1359C93.8868 97.1359 93.702 97.1807 93.5392 97.2703C93.3782 97.36 93.2511 97.4908 93.1578 97.6627C93.0645 97.8347 93.0179 98.0432 93.0179 98.2883ZM96.7357 100.824V96.6091H97.3832V100.824H96.7357ZM97.0649 95.9066C96.9387 95.9066 96.8299 95.8636 96.7384 95.7777C96.6488 95.6917 96.6039 95.5883 96.6039 95.4676C96.6039 95.3469 96.6488 95.2435 96.7384 95.1576C96.8299 95.0716 96.9387 95.0286 97.0649 95.0286C97.1911 95.0286 97.2991 95.0716 97.3887 95.1576C97.4802 95.2435 97.5259 95.3469 97.5259 95.4676C97.5259 95.5883 97.4802 95.6917 97.3887 95.7777C97.2991 95.8636 97.1911 95.9066 97.0649 95.9066ZM98.294 100.824V100.33L100.687 97.2566V97.2127H98.3708V96.6091H101.521V97.1249L99.194 100.176V100.22H101.598V100.824H98.294ZM103.681 100.922C103.414 100.922 103.171 100.872 102.954 100.772C102.736 100.669 102.563 100.522 102.435 100.33C102.307 100.136 102.243 99.9017 102.243 99.6273C102.243 99.3859 102.29 99.1901 102.386 99.0401C102.481 98.8883 102.608 98.7694 102.767 98.6834C102.926 98.5975 103.102 98.5334 103.294 98.4914C103.488 98.4475 103.683 98.4127 103.878 98.3871C104.134 98.3542 104.342 98.3295 104.501 98.313C104.662 98.2947 104.779 98.2645 104.852 98.2225C104.927 98.1804 104.965 98.1072 104.965 98.003V97.981C104.965 97.7103 104.891 97.4999 104.743 97.3499C104.596 97.1999 104.374 97.1249 104.076 97.1249C103.767 97.1249 103.524 97.1926 103.349 97.328C103.173 97.4633 103.05 97.6078 102.978 97.7615L102.364 97.542C102.473 97.2859 102.62 97.0865 102.803 96.9438C102.987 96.7993 103.189 96.6987 103.406 96.642C103.626 96.5835 103.842 96.5542 104.054 96.5542C104.189 96.5542 104.345 96.5707 104.52 96.6036C104.698 96.6347 104.869 96.6996 105.033 96.7984C105.2 96.8972 105.338 97.0463 105.448 97.2456C105.558 97.445 105.612 97.7121 105.612 98.0469V100.824H104.965V100.253H104.932C104.888 100.344 104.815 100.442 104.712 100.547C104.61 100.651 104.474 100.74 104.304 100.813C104.133 100.886 103.926 100.922 103.681 100.922ZM103.78 100.341C104.036 100.341 104.251 100.29 104.427 100.19C104.604 100.089 104.738 99.9593 104.828 99.8002C104.919 99.6411 104.965 99.4737 104.965 99.2981V98.7054C104.937 98.7383 104.877 98.7685 104.784 98.7959C104.692 98.8215 104.586 98.8444 104.465 98.8645C104.347 98.8828 104.23 98.8993 104.117 98.9139C104.005 98.9267 103.915 98.9377 103.845 98.9469C103.677 98.9688 103.52 99.0045 103.373 99.0539C103.229 99.1014 103.112 99.1737 103.022 99.2706C102.934 99.3658 102.89 99.4956 102.89 99.6603C102.89 99.8853 102.974 100.055 103.14 100.171C103.308 100.284 103.522 100.341 103.78 100.341ZM108.473 96.6091V97.1578H106.289V96.6091H108.473ZM106.925 95.5993H107.573V99.6164C107.573 99.7993 107.599 99.9365 107.652 100.028C107.707 100.118 107.777 100.178 107.861 100.209C107.947 100.238 108.037 100.253 108.132 100.253C108.204 100.253 108.262 100.249 108.308 100.242C108.354 100.233 108.39 100.226 108.418 100.22L108.55 100.802C108.506 100.818 108.444 100.835 108.366 100.851C108.287 100.869 108.187 100.879 108.067 100.879C107.884 100.879 107.704 100.839 107.529 100.761C107.355 100.682 107.211 100.562 107.095 100.401C106.982 100.24 106.925 100.037 106.925 99.792V95.5993ZM109.292 100.824V96.6091H109.94V100.824H109.292ZM109.622 95.9066C109.495 95.9066 109.386 95.8636 109.295 95.7777C109.205 95.6917 109.161 95.5883 109.161 95.4676C109.161 95.3469 109.205 95.2435 109.295 95.1576C109.386 95.0716 109.495 95.0286 109.622 95.0286C109.748 95.0286 109.856 95.0716 109.945 95.1576C110.037 95.2435 110.083 95.3469 110.083 95.4676C110.083 95.5883 110.037 95.6917 109.945 95.7777C109.856 95.8636 109.748 95.9066 109.622 95.9066ZM112.684 100.911C112.303 100.911 111.969 100.821 111.682 100.64C111.397 100.459 111.173 100.205 111.012 99.8798C110.853 99.5542 110.774 99.1737 110.774 98.7383C110.774 98.2993 110.853 97.9161 111.012 97.5886C111.173 97.2612 111.397 97.0069 111.682 96.8258C111.969 96.6447 112.303 96.5542 112.684 96.5542C113.064 96.5542 113.397 96.6447 113.682 96.8258C113.969 97.0069 114.193 97.2612 114.352 97.5886C114.513 97.9161 114.593 98.2993 114.593 98.7383C114.593 99.1737 114.513 99.5542 114.352 99.8798C114.193 100.205 113.969 100.459 113.682 100.64C113.397 100.821 113.064 100.911 112.684 100.911ZM112.684 100.33C112.973 100.33 113.21 100.256 113.397 100.108C113.584 99.9593 113.722 99.7645 113.811 99.5231C113.901 99.2816 113.946 99.02 113.946 98.7383C113.946 98.4566 113.901 98.1941 113.811 97.9508C113.722 97.7075 113.584 97.5109 113.397 97.3609C113.21 97.2109 112.973 97.1359 112.684 97.1359C112.394 97.1359 112.157 97.2109 111.97 97.3609C111.784 97.5109 111.645 97.7075 111.556 97.9508C111.466 98.1941 111.421 98.4566 111.421 98.7383C111.421 99.02 111.466 99.2816 111.556 99.5231C111.645 99.7645 111.784 99.9593 111.97 100.108C112.157 100.256 112.394 100.33 112.684 100.33ZM116.075 98.2883V100.824H115.427V96.6091H116.053V97.2676H116.108C116.206 97.0536 116.356 96.8816 116.558 96.7517C116.759 96.62 117.019 96.5542 117.337 96.5542C117.622 96.5542 117.872 96.6127 118.086 96.7298C118.3 96.845 118.467 97.0206 118.585 97.2566C118.704 97.4908 118.764 97.7871 118.764 98.1456V100.824H118.116V98.1895C118.116 97.8584 118.03 97.6005 117.858 97.4158C117.686 97.2292 117.45 97.1359 117.15 97.1359C116.944 97.1359 116.759 97.1807 116.596 97.2703C116.435 97.36 116.308 97.4908 116.215 97.6627C116.121 97.8347 116.075 98.0432 116.075 98.2883Z" fill="#4D4D4D"/>
<rect x="128.531" y="88.3047" width="24.0382" height="19.0382" rx="9.51912" fill="white"/>
<path d="M139.253 96.9603H138.573C138.532 96.7646 138.462 96.5926 138.361 96.4444C138.263 96.2963 138.142 96.1719 137.999 96.0713C137.858 95.9688 137.702 95.892 137.53 95.8408C137.358 95.7896 137.179 95.7639 136.992 95.7639C136.652 95.7639 136.344 95.8499 136.068 96.0219C135.793 96.1938 135.575 96.4472 135.412 96.7819C135.251 97.1167 135.17 97.5274 135.17 98.0139C135.17 98.5005 135.251 98.9112 135.412 99.2459C135.575 99.5807 135.793 99.834 136.068 100.006C136.344 100.178 136.652 100.264 136.992 100.264C137.179 100.264 137.358 100.238 137.53 100.187C137.702 100.136 137.858 100.06 137.999 99.9593C138.142 99.8569 138.263 99.7316 138.361 99.5834C138.462 99.4334 138.532 99.2615 138.573 99.0676H139.253C139.202 99.3548 139.109 99.6118 138.973 99.8386C138.838 100.065 138.67 100.258 138.468 100.418C138.267 100.575 138.041 100.695 137.791 100.777C137.542 100.859 137.276 100.9 136.992 100.9C136.513 100.9 136.087 100.783 135.714 100.549C135.34 100.315 135.047 99.9822 134.833 99.5505C134.619 99.1188 134.512 98.6066 134.512 98.0139C134.512 97.4213 134.619 96.9091 134.833 96.4774C135.047 96.0457 135.34 95.7127 135.714 95.4786C136.087 95.2444 136.513 95.1274 136.992 95.1274C137.276 95.1274 137.542 95.1685 137.791 95.2508C138.041 95.3332 138.267 95.4539 138.468 95.613C138.67 95.7704 138.838 95.9624 138.973 96.1893C139.109 96.4142 139.202 96.6713 139.253 96.9603ZM142.767 99.1005V96.6091H143.414V100.824H142.767V100.11H142.723C142.624 100.324 142.47 100.506 142.262 100.656C142.053 100.804 141.79 100.879 141.471 100.879C141.208 100.879 140.974 100.821 140.769 100.706C140.564 100.589 140.403 100.413 140.286 100.179C140.169 99.9429 140.11 99.6456 140.11 99.2871V96.6091H140.758V99.2432C140.758 99.5505 140.844 99.7956 141.016 99.9786C141.19 100.161 141.411 100.253 141.68 100.253C141.841 100.253 142.005 100.212 142.171 100.129C142.339 100.047 142.48 99.9209 142.594 99.7508C142.709 99.5807 142.767 99.3639 142.767 99.1005ZM146.279 96.6091V97.1578H144.094V96.6091H146.279ZM144.731 95.5993H145.379V99.6164C145.379 99.7993 145.405 99.9365 145.458 100.028C145.513 100.118 145.582 100.178 145.667 100.209C145.753 100.238 145.843 100.253 145.938 100.253C146.01 100.253 146.068 100.249 146.114 100.242C146.16 100.233 146.196 100.226 146.224 100.22L146.355 100.802C146.311 100.818 146.25 100.835 146.172 100.851C146.093 100.869 145.993 100.879 145.872 100.879C145.689 100.879 145.51 100.839 145.335 100.761C145.161 100.682 145.016 100.562 144.901 100.401C144.788 100.24 144.731 100.037 144.731 99.792V95.5993Z" fill="#4D4D4D"/>
</svg>
