<svg width="156" height="140" viewBox="0 0 156 140" fill="none" xmlns="http://www.w3.org/2000/svg">
<path d="M40.6505 105.531C41.1295 105.386 41.549 105.09 41.8472 104.688C42.1454 104.286 42.3064 103.799 42.3064 103.299C42.3064 102.798 42.1454 102.311 41.8472 101.909C41.549 101.507 41.1295 101.212 40.6505 101.067C32.9008 100.761 25.1417 101.349 17.5266 102.82C17.0933 102.953 16.7214 103.236 16.4772 103.618C16.233 104 16.1323 104.456 16.1931 104.905C16.2538 105.354 16.4721 105.767 16.809 106.07C17.146 106.374 17.5796 106.547 18.0327 106.561C25.559 106.165 33.167 106.04 40.6505 105.531Z" fill="black"/>
<path d="M15.3114 117.806C15.3691 118.261 15.5908 118.68 15.935 118.984C16.2792 119.288 16.7224 119.456 17.1816 119.457C22.6364 119.03 28.1136 118.967 33.5767 119.268C34.2918 119.258 34.974 118.966 35.476 118.457C35.9779 117.947 36.2593 117.261 36.2592 116.545C36.2592 115.83 35.9778 115.144 35.4759 114.634C34.9739 114.125 34.2917 113.833 33.5766 113.823C30.427 113.575 14.9372 113.483 15.3114 117.806Z" fill="black"/>
<path d="M153.56 26.7174C152.758 25.202 151.518 23.9633 150.002 23.1624C148.485 22.3616 146.763 22.0357 145.059 22.2272C140.005 22.1747 134.856 22.7994 129.813 23.1047C125.153 23.1434 120.509 23.6482 115.95 24.6113C117.473 14.1968 111.89 13.7315 103.371 15.4628C94.2592 16.8385 84.9354 17.0161 75.8764 18.4257C75.411 18.5704 75.0119 18.8752 74.7499 19.2862C74.488 19.6972 74.3801 20.1877 74.4454 20.6707C74.5108 21.1537 74.7451 21.5979 75.1069 21.9244C75.4687 22.251 75.9345 22.4389 76.4216 22.4546C79.5592 22.4808 82.6923 22.2108 85.7792 21.6484C93.6239 20.7972 101.497 20.261 109.36 19.6122C110.38 19.534 111.417 19.1472 111.806 20.2647C112.26 22.3622 112.18 24.54 111.573 26.5985C110.59 33.1166 104.523 32.5014 99.4015 32.7148C93.3776 32.7034 87.0185 34.2308 81.1196 32.7586C78.3424 31.7342 77.5639 28.0766 77.3539 25.4504C77.3444 25.1849 77.2321 24.9334 77.0409 24.7488C76.8496 24.5643 76.5943 24.4612 76.3285 24.4612C76.0628 24.4612 75.8074 24.5643 75.6161 24.7488C75.4249 24.9334 75.3127 25.1849 75.3031 25.4504C75.2796 25.9775 75.2519 26.4972 75.2279 27.0132C63.3148 25.0722 46.6761 30.6973 46.5164 44.8872C46.7091 49.3451 46.8217 53.867 47.0606 58.2834C47.1659 58.6331 47.3699 58.945 47.6483 59.1814C47.9266 59.4179 48.2674 59.5689 48.6295 59.6162C48.9916 59.6635 49.3597 59.6051 49.6895 59.4481C50.0192 59.2911 50.2966 59.0422 50.4881 58.7312C52.2989 55.1045 50.9558 50.8214 50.9705 46.9415C50.0365 32.8398 64.8847 31.6879 75.3018 30.2361C75.4457 31.4806 75.8944 32.6705 76.6081 33.7003C70.8296 30.6712 62.5758 33.9558 62.1571 40.9647C61.8782 46.7387 61.3905 57.9715 61.4606 63.1134C43.5532 62.2744 25.609 63.5138 7.98704 66.8066C4.64019 67.4121 6.07496 72.4506 9.38904 71.8919C14.4078 71.0457 19.4414 70.3775 24.4852 69.8328C22.8813 73.8756 22.5648 79.301 26.3792 82.2194C30.3227 84.9533 35.4736 83.6311 39.9481 83.5204C42.5792 83.3487 45.2162 83.2166 47.845 83.0191C55.9538 82.6248 57.6054 74.6727 56.0751 68.0229C59.9663 67.9703 63.8994 67.8865 67.7847 68.1458C69.6841 68.2752 70.8694 68.1371 71.2234 70.1073C71.2804 87.7362 74.5409 105.68 71.584 123.271C70.9019 127.001 69.1063 127.87 65.424 128.009C52.9518 128.366 40.4753 128.62 28.0032 128.998C23.5624 129.123 12.0126 131.18 9.28616 126.238C8.53058 124.226 8.28651 122.057 8.57586 119.927C8.54626 113.345 9.11649 106.786 9.52144 100.222C10.0392 91.4921 9.91905 82.7358 9.16194 74.0231C8.93194 71.4523 4.88694 71.4281 5.11899 74.0231C5.93399 83.13 5.85649 92.285 5.89459 101.42C5.91289 105.802 5.96294 110.193 5.84881 114.573C5.74881 118.415 4.94899 122.884 5.99056 126.65C7.75096 133.015 15.0415 133.645 20.5191 133.634C31.9752 133.605 43.433 133.382 54.8884 133.251C49.5002 140.249 59.2385 146.003 65.7052 145.239C84.2309 144.821 102.75 144.089 121.263 143.045C129.106 142.163 137.435 143.502 144.857 140.455C152.789 137.591 152.625 131.727 153.169 124.456C153.956 115.027 154.201 105.52 154.448 96.0637C154.937 77.3125 155.049 58.5612 154.641 39.8072C154.553 35.7581 155.312 30.5078 153.56 26.7174ZM50.569 77.9163C47.734 80.5806 43.22 79.4043 39.6583 79.9703C30.4564 80.6873 25.0307 82.0355 26.5161 70.3056C26.5287 70.1856 26.5171 70.0642 26.482 69.9487C26.4469 69.8332 26.3891 69.7259 26.3119 69.6331C34.7344 68.7794 43.1885 68.3031 51.6669 68.1028C52.2833 71.2393 52.807 75.2469 50.569 77.9163ZM69.202 63.9291C67.5676 63.6931 65.916 63.5126 64.2581 63.3553C64.9986 56.965 64.216 50.3671 64.8281 43.9172C64.6909 39.2017 67.1613 37.045 71.78 36.9702C73.3288 36.8214 78.2502 37.2823 77.5254 34.8009C82.5866 38.9409 90.0213 36.77 96.0604 36.9205C101.881 36.3931 109.47 37.7548 113.462 32.5189C118.968 33.3895 124.527 33.8824 130.1 33.9945C132.79 34.1042 135.964 33.4053 138.051 35.3516C140.04 37.2051 138.8 41.2254 138.623 43.783C137.549 66.8691 137.014 89.984 135.342 113.045C135.134 117.741 135.685 122.49 130.258 123.866C112.747 126.137 95.0946 127.152 77.4379 126.902C77.1438 126.871 76.8465 126.903 76.5655 126.995C76.2846 127.087 76.0262 127.237 75.8075 127.436C79.5178 112.3 77.6181 96.3323 76.7746 80.9326C76.6486 76.8439 76.2182 72.7702 75.4871 68.7454C75.0999 67.3717 74.2785 66.1601 73.1455 65.292C72.0126 64.4238 70.6292 63.9457 69.202 63.9291ZM149.709 84.9408C149.531 92.5641 149.139 100.187 148.681 107.798C147.828 116.698 148.825 126.257 145.86 134.776C145.099 136.679 144.52 137.171 142.262 137.311C118.204 137.315 94.1189 137.224 70.0575 137.909C68.3555 137.956 58.8606 139.366 59.7294 135.625C59.8221 135.2 59.8145 134.76 59.7072 134.338C59.5999 133.917 59.3958 133.527 59.1112 133.198C64.5393 132.858 72.0738 134.515 75.1893 128.751C75.1424 129.093 75.1634 129.441 75.251 129.774C75.3387 130.108 75.4914 130.421 75.7003 130.695C75.9092 130.97 76.1702 131.201 76.4684 131.374C76.7665 131.547 77.096 131.66 77.4379 131.706C90.2746 134.214 103.459 133.213 116.422 132.203C125.42 131.354 139.705 131.792 141.143 120.027C142.282 107.166 141.049 94.1298 141.557 81.2216C141.832 67.9208 142.734 54.5908 142.523 41.2871C142.736 38.7621 142.237 36.2278 141.082 33.9725C140.434 33.1756 139.623 32.5259 138.705 32.0666C137.786 31.6072 136.78 31.3487 135.754 31.3083C128.916 29.9364 121.938 29.3937 114.97 29.6918C115.238 28.9179 115.447 28.1246 115.595 27.3189C122.552 28.5207 130.17 27.3448 137.167 26.9775C140.037 26.8269 144.321 25.8019 147.088 26.8362C150.749 28.2047 149.599 34.7853 149.669 37.9526C150.017 53.6124 150.073 69.2809 149.709 84.9408Z" fill="black"/>
<path d="M71.7578 43.5254C71.791 43.5254 71.8228 43.5122 71.8462 43.4888C71.8696 43.4653 71.8828 43.4335 71.8828 43.4004C71.8828 43.3672 71.8696 43.3354 71.8462 43.312C71.8228 43.2886 71.791 43.2754 71.7578 43.2754C71.7247 43.2754 71.6929 43.2886 71.6694 43.312C71.646 43.3354 71.6328 43.3672 71.6328 43.4004C71.6328 43.4335 71.646 43.4653 71.6694 43.4888C71.6929 43.5122 71.7247 43.5254 71.7578 43.5254Z" fill="black"/>
<path d="M83.1044 58.5744C86.3525 59.1039 89.6471 59.2913 92.9343 59.1337C96.2499 59.3372 99.5772 59.2287 102.872 58.8096C103.343 58.6646 103.755 58.3726 104.047 57.9764C104.34 57.5802 104.498 57.1006 104.498 56.6081C104.498 56.1156 104.34 55.6361 104.047 55.2399C103.755 54.8437 103.343 54.5516 102.872 54.4067C99.5727 54.0338 96.2447 53.9782 92.9343 54.2405C89.6418 54.1465 86.3483 54.387 83.1044 54.9583C82.7179 55.0773 82.3797 55.3172 82.1394 55.6426C81.8992 55.968 81.7695 56.3619 81.7695 56.7663C81.7695 57.1708 81.8992 57.5647 82.1394 57.8901C82.3797 58.2155 82.7179 58.4553 83.1044 58.5744Z" fill="black"/>
<path d="M113.858 60.2946C118.487 63.1039 122.106 57.7787 125.168 55.3602C127.307 53.6417 129.266 51.7112 131.016 49.598C131.261 49.1613 131.357 48.6565 131.288 48.1605C131.22 47.6645 130.991 47.2044 130.637 46.8504C130.283 46.4964 129.823 46.2677 129.327 46.1993C128.831 46.1309 128.326 46.2264 127.889 46.4713C125.522 48.9398 123.406 51.6376 121.573 54.5249C120.637 55.8639 119.765 57.5271 118.129 58.0834C115.904 56.8777 114.021 55.1295 112.653 53.0012C112.402 52.7653 112.082 52.6167 111.74 52.5775C111.398 52.5384 111.053 52.6107 110.756 52.7838C110.458 52.9569 110.225 53.2215 110.09 53.5381C109.956 53.8547 109.927 54.2064 110.008 54.5407C110.54 56.8669 111.91 58.9156 113.858 60.2946Z" fill="black"/>
<path d="M83.1044 82.3948C86.3531 82.9192 89.6472 83.1066 92.9343 82.954C96.2499 83.1575 99.5772 83.049 102.872 82.6298C103.343 82.4848 103.755 82.1928 104.047 81.7966C104.34 81.4004 104.498 80.9208 104.498 80.4283C104.498 79.9358 104.34 79.4563 104.047 79.0601C103.755 78.6639 103.343 78.3719 102.872 78.2269C99.5727 77.8541 96.2447 77.7985 92.9343 78.0609C89.6418 77.9668 86.3483 78.2073 83.1044 78.7786C82.7179 78.8977 82.3797 79.1376 82.1394 79.463C81.8992 79.7884 81.7695 80.1822 81.7695 80.5867C81.7695 80.9912 81.8992 81.3851 82.1394 81.7105C82.3797 82.0359 82.7179 82.2757 83.1044 82.3948Z" fill="black"/>
<path d="M113.858 84.113C118.487 86.9224 122.106 81.5971 125.168 79.1787C127.307 77.4602 129.266 75.5296 131.016 73.4164C131.261 72.9797 131.357 72.4749 131.288 71.9788C131.22 71.4828 130.991 71.0228 130.637 70.6687C130.283 70.3147 129.823 70.0861 129.327 70.0176C128.831 69.9492 128.326 70.0448 127.889 70.2897C125.522 72.7582 123.406 75.456 121.573 78.3433C120.637 79.6821 119.765 81.3458 118.129 81.9018C115.904 80.6961 114.021 78.948 112.653 76.8196C112.402 76.5837 112.082 76.4351 111.74 76.3959C111.398 76.3568 111.053 76.4291 110.756 76.6023C110.458 76.7754 110.225 77.04 110.09 77.3566C109.956 77.6732 109.927 78.0249 110.008 78.3592C110.54 80.6854 111.91 82.734 113.858 84.113Z" fill="black"/>
<path d="M83.1044 106.213C86.353 106.738 89.6471 106.925 92.9343 106.772C96.2498 106.976 99.5772 106.867 102.872 106.448C103.343 106.303 103.755 106.011 104.047 105.615C104.34 105.219 104.498 104.739 104.498 104.247C104.498 103.754 104.34 103.275 104.047 102.879C103.755 102.482 103.343 102.19 102.872 102.045C99.5727 101.672 96.2447 101.617 92.9343 101.879C89.6418 101.785 86.3483 102.026 83.1044 102.597C82.7179 102.716 82.3796 102.956 82.1394 103.281C81.8992 103.607 81.7695 104.001 81.7695 104.405C81.7695 104.81 81.8992 105.203 82.1394 105.529C82.3796 105.854 82.7179 106.094 83.1044 106.213Z" fill="black"/>
<path d="M113.858 107.933C118.488 110.743 122.11 105.413 125.168 102.999C127.307 101.28 129.266 99.3498 131.016 97.2367C131.261 96.8 131.357 96.2952 131.288 95.7992C131.22 95.3032 130.991 94.8431 130.637 94.4891C130.283 94.135 129.823 93.9064 129.327 93.838C128.831 93.7695 128.326 93.8651 127.889 94.11C125.522 96.5785 123.406 99.2763 121.573 102.164C120.637 103.503 119.765 105.166 118.129 105.722C115.904 104.516 114.021 102.768 112.653 100.64C112.402 100.404 112.082 100.255 111.74 100.216C111.398 100.177 111.053 100.249 110.756 100.422C110.458 100.596 110.225 100.86 110.09 101.177C109.956 101.493 109.927 101.845 110.008 102.179C110.54 104.506 111.91 106.554 113.858 107.933Z" fill="black"/>
</svg>
