<svg width="240" height="203" viewBox="0 0 240 203" fill="none" xmlns="http://www.w3.org/2000/svg">
<rect width="240" height="202.396" fill="#F1F1F1"/>
<rect x="8.84766" y="8.84766" width="222.304" height="30.9677" rx="8" fill="white"/>
<path d="M36.5001 26.8305V22.6076H37.1489V26.8305H36.5001ZM36.83 21.9038C36.7035 21.9038 36.5945 21.8607 36.5028 21.7746C36.413 21.6884 36.3681 21.5849 36.3681 21.4639C36.3681 21.3429 36.413 21.2394 36.5028 21.1532C36.5945 21.0671 36.7035 21.024 36.83 21.024C36.9565 21.024 37.0646 21.0671 37.1544 21.1532C37.2461 21.2394 37.2919 21.3429 37.2919 21.4639C37.2919 21.5849 37.2461 21.6884 37.1544 21.7746C37.0646 21.8607 36.9565 21.9038 36.83 21.9038ZM38.8313 24.2902V26.8305H38.1825V22.6076H38.8093V23.2674H38.8643C38.9632 23.053 39.1135 22.8807 39.3151 22.7506C39.5168 22.6186 39.777 22.5526 40.0959 22.5526C40.3819 22.5526 40.632 22.6113 40.8465 22.7286C41.0609 22.844 41.2277 23.02 41.3469 23.2564C41.466 23.491 41.5256 23.788 41.5256 24.1472V26.8305H40.8767V24.1912C40.8767 23.8594 40.7906 23.601 40.6183 23.4159C40.446 23.2289 40.2096 23.1355 39.909 23.1355C39.7019 23.1355 39.5168 23.1804 39.3536 23.2702C39.1923 23.36 39.065 23.491 38.9715 23.6633C38.878 23.8356 38.8313 24.0446 38.8313 24.2902ZM45.5475 23.5533L44.9647 23.7183C44.928 23.6212 44.874 23.5268 44.8025 23.4351C44.7328 23.3417 44.6375 23.2647 44.5166 23.2042C44.3956 23.1437 44.2407 23.1135 44.0519 23.1135C43.7935 23.1135 43.5782 23.173 43.4059 23.2922C43.2354 23.4095 43.1502 23.5588 43.1502 23.7403C43.1502 23.9016 43.2088 24.029 43.3261 24.1224C43.4434 24.2159 43.6267 24.2938 43.876 24.3561L44.5028 24.5101C44.8804 24.6017 45.1617 24.7419 45.3468 24.9307C45.532 25.1177 45.6245 25.3587 45.6245 25.6538C45.6245 25.8957 45.5549 26.112 45.4156 26.3026C45.2781 26.4932 45.0857 26.6435 44.8382 26.7535C44.5908 26.8635 44.303 26.9185 43.975 26.9185C43.5442 26.9185 43.1878 26.825 42.9055 26.638C42.6232 26.4511 42.4445 26.178 42.3694 25.8187L42.9852 25.6648C43.0439 25.8921 43.1548 26.0625 43.3179 26.1761C43.4828 26.2898 43.6982 26.3466 43.964 26.3466C44.2664 26.3466 44.5065 26.2825 44.6843 26.1542C44.8639 26.024 44.9537 25.8682 44.9537 25.6868C44.9537 25.5402 44.9024 25.4174 44.7997 25.3184C44.6971 25.2176 44.5395 25.1424 44.3269 25.0929L43.6231 24.928C43.2363 24.8363 42.9522 24.6943 42.7708 24.5018C42.5912 24.3076 42.5014 24.0647 42.5014 23.7733C42.5014 23.535 42.5683 23.3242 42.7021 23.141C42.8377 22.9577 43.0219 22.8138 43.2547 22.7093C43.4893 22.6049 43.755 22.5526 44.0519 22.5526C44.4698 22.5526 44.7979 22.6443 45.0362 22.8275C45.2763 23.0108 45.4467 23.2528 45.5475 23.5533ZM48.2829 22.6076V23.1575H46.0945V22.6076H48.2829ZM46.7323 21.5959H47.3811V25.6208C47.3811 25.8041 47.4077 25.9415 47.4608 26.0332C47.5158 26.123 47.5855 26.1835 47.6698 26.2146C47.7559 26.244 47.8467 26.2586 47.942 26.2586C48.0134 26.2586 48.0721 26.255 48.1179 26.2476C48.1637 26.2385 48.2004 26.2311 48.2279 26.2256L48.3599 26.8085C48.3159 26.825 48.2545 26.8415 48.1757 26.858C48.0968 26.8763 47.9969 26.8855 47.876 26.8855C47.6927 26.8855 47.5131 26.8461 47.3371 26.7672C47.163 26.6884 47.0182 26.5684 46.9027 26.4071C46.7891 26.2458 46.7323 26.0424 46.7323 25.7968V21.5959ZM50.3467 26.9294C50.0791 26.9294 49.8362 26.879 49.6181 26.7782C49.4 26.6756 49.2268 26.5281 49.0985 26.3356C48.9702 26.1413 48.9061 25.9067 48.9061 25.6318C48.9061 25.3899 48.9537 25.1937 49.049 25.0435C49.1443 24.8913 49.2717 24.7722 49.4312 24.686C49.5906 24.5999 49.7666 24.5358 49.959 24.4936C50.1533 24.4496 50.3485 24.4148 50.5446 24.3891C50.8012 24.3561 51.0093 24.3314 51.1687 24.3149C51.33 24.2966 51.4473 24.2663 51.5206 24.2242C51.5958 24.182 51.6333 24.1087 51.6333 24.0042V23.9822C51.6333 23.711 51.5591 23.5002 51.4107 23.3499C51.264 23.1996 51.0413 23.1245 50.7426 23.1245C50.4328 23.1245 50.19 23.1923 50.014 23.3279C49.8381 23.4635 49.7144 23.6083 49.6429 23.7623L49.027 23.5424C49.137 23.2858 49.2836 23.086 49.4669 22.943C49.652 22.7982 49.8537 22.6974 50.0718 22.6406C50.2917 22.5819 50.508 22.5526 50.7206 22.5526C50.8562 22.5526 51.012 22.5691 51.188 22.6021C51.3658 22.6333 51.5371 22.6983 51.7021 22.7973C51.8689 22.8963 52.0072 23.0457 52.1172 23.2454C52.2272 23.4452 52.2822 23.7128 52.2822 24.0482V26.8305H51.6333V26.2586H51.6004C51.5564 26.3503 51.4831 26.4483 51.3804 26.5528C51.2778 26.6573 51.1412 26.7462 50.9708 26.8195C50.8003 26.8928 50.5923 26.9294 50.3467 26.9294ZM50.4457 26.3466C50.7023 26.3466 50.9185 26.2962 51.0945 26.1954C51.2723 26.0946 51.4061 25.9645 51.4959 25.805C51.5875 25.6455 51.6333 25.4778 51.6333 25.3019V24.708C51.6059 24.741 51.5454 24.7713 51.4519 24.7988C51.3603 24.8244 51.2539 24.8473 51.133 24.8675C51.0138 24.8858 50.8975 24.9023 50.7838 24.917C50.672 24.9298 50.5813 24.9408 50.5116 24.95C50.343 24.972 50.1854 25.0077 50.0388 25.0572C49.894 25.1049 49.7767 25.1772 49.6869 25.2744C49.5989 25.3697 49.5549 25.4998 49.5549 25.6648C49.5549 25.8902 49.6383 26.0607 49.8051 26.1761C49.9737 26.2898 50.1872 26.3466 50.4457 26.3466ZM53.9604 24.2902V26.8305H53.3116V22.6076H53.9384V23.2674H53.9934C54.0924 23.053 54.2427 22.8807 54.4443 22.7506C54.6459 22.6186 54.9062 22.5526 55.2251 22.5526C55.511 22.5526 55.7612 22.6113 55.9756 22.7286C56.1901 22.844 56.3569 23.02 56.476 23.2564C56.5951 23.491 56.6547 23.788 56.6547 24.1472V26.8305H56.0059V24.1912C56.0059 23.8594 55.9197 23.601 55.7474 23.4159C55.5751 23.2289 55.3387 23.1355 55.0381 23.1355C54.831 23.1355 54.6459 23.1804 54.4828 23.2702C54.3215 23.36 54.1941 23.491 54.1006 23.6633C54.0071 23.8356 53.9604 24.0446 53.9604 24.2902ZM59.522 22.6076V23.1575H57.3336V22.6076H59.522ZM57.9714 21.5959H58.6202V25.6208C58.6202 25.8041 58.6468 25.9415 58.7 26.0332C58.7549 26.123 58.8246 26.1835 58.9089 26.2146C58.995 26.244 59.0858 26.2586 59.1811 26.2586C59.2526 26.2586 59.3112 26.255 59.357 26.2476C59.4028 26.2385 59.4395 26.2311 59.467 26.2256L59.599 26.8085C59.555 26.825 59.4936 26.8415 59.4148 26.858C59.336 26.8763 59.2361 26.8855 59.1151 26.8855C58.9318 26.8855 58.7522 26.8461 58.5762 26.7672C58.4021 26.6884 58.2573 26.5684 58.1419 26.4071C58.0282 26.2458 57.9714 26.0424 57.9714 25.7968V21.5959ZM64.3342 21.2V26.8305H63.6524V21.9148H63.6194L62.2447 22.8275V22.1347L63.6524 21.2H64.3342ZM65.8097 26.8305V22.6076H66.4365V23.2674H66.4915C66.5795 23.042 66.7215 22.8669 66.9176 22.7423C67.1137 22.6158 67.3493 22.5526 67.6242 22.5526C67.9028 22.5526 68.1346 22.6158 68.3197 22.7423C68.5067 22.8669 68.6524 23.042 68.7569 23.2674H68.8009C68.909 23.0493 69.0712 22.8761 69.2875 22.7478C69.5038 22.6177 69.7631 22.5526 70.0655 22.5526C70.4431 22.5526 70.7519 22.6708 70.992 22.9073C71.2321 23.1419 71.3522 23.5075 71.3522 24.0042V26.8305H70.7034V24.0042C70.7034 23.6926 70.6181 23.47 70.4477 23.3362C70.2772 23.2024 70.0765 23.1355 69.8456 23.1355C69.5487 23.1355 69.3186 23.2253 69.1555 23.4049C68.9924 23.5827 68.9108 23.8081 68.9108 24.0812V26.8305H68.251V23.9382C68.251 23.6981 68.1731 23.5048 68.0173 23.3582C67.8615 23.2097 67.6608 23.1355 67.4152 23.1355C67.2466 23.1355 67.089 23.1804 66.9424 23.2702C66.7976 23.36 66.6803 23.4846 66.5905 23.6441C66.5025 23.8017 66.4585 23.9841 66.4585 24.1912V26.8305H65.8097ZM75.3749 23.5533L74.792 23.7183C74.7554 23.6212 74.7013 23.5268 74.6298 23.4351C74.5602 23.3417 74.4649 23.2647 74.3439 23.2042C74.2229 23.1437 74.068 23.1135 73.8793 23.1135C73.6208 23.1135 73.4055 23.173 73.2332 23.2922C73.0627 23.4095 72.9775 23.5588 72.9775 23.7403C72.9775 23.9016 73.0362 24.029 73.1535 24.1224C73.2708 24.2159 73.454 24.2938 73.7033 24.3561L74.3301 24.5101C74.7077 24.6017 74.989 24.7419 75.1742 24.9307C75.3593 25.1177 75.4518 25.3587 75.4518 25.6538C75.4518 25.8957 75.3822 26.112 75.2429 26.3026C75.1054 26.4932 74.913 26.6435 74.6656 26.7535C74.4181 26.8635 74.1304 26.9185 73.8023 26.9185C73.3716 26.9185 73.0151 26.825 72.7328 26.638C72.4506 26.4511 72.2719 26.178 72.1967 25.8187L72.8125 25.6648C72.8712 25.8921 72.9821 26.0625 73.1452 26.1761C73.3102 26.2898 73.5255 26.3466 73.7913 26.3466C74.0937 26.3466 74.3338 26.2825 74.5116 26.1542C74.6912 26.024 74.781 25.8682 74.781 25.6868C74.781 25.5402 74.7297 25.4174 74.6271 25.3184C74.5244 25.2176 74.3668 25.1424 74.1542 25.0929L73.4504 24.928C73.0636 24.8363 72.7796 24.6943 72.5981 24.5018C72.4185 24.3076 72.3287 24.0647 72.3287 23.7733C72.3287 23.535 72.3956 23.3242 72.5294 23.141C72.665 22.9577 72.8492 22.8138 73.082 22.7093C73.3166 22.6049 73.5823 22.5526 73.8793 22.5526C74.2971 22.5526 74.6252 22.6443 74.8635 22.8275C75.1036 23.0108 75.2741 23.2528 75.3749 23.5533ZM81.2875 23.5533L80.7046 23.7183C80.668 23.6212 80.6139 23.5268 80.5424 23.4351C80.4728 23.3417 80.3775 23.2647 80.2565 23.2042C80.1355 23.1437 79.9806 23.1135 79.7919 23.1135C79.5334 23.1135 79.3181 23.173 79.1458 23.2922C78.9753 23.4095 78.8901 23.5588 78.8901 23.7403C78.8901 23.9016 78.9488 24.029 79.0661 24.1224C79.1834 24.2159 79.3666 24.2938 79.6159 24.3561L80.2427 24.5101C80.6203 24.6017 80.9016 24.7419 81.0868 24.9307C81.2719 25.1177 81.3644 25.3587 81.3644 25.6538C81.3644 25.8957 81.2948 26.112 81.1555 26.3026C81.018 26.4932 80.8256 26.6435 80.5782 26.7535C80.3307 26.8635 80.043 26.9185 79.7149 26.9185C79.2842 26.9185 78.9277 26.825 78.6454 26.638C78.3632 26.4511 78.1845 26.178 78.1093 25.8187L78.7251 25.6648C78.7838 25.8921 78.8947 26.0625 79.0578 26.1761C79.2228 26.2898 79.4381 26.3466 79.7039 26.3466C80.0063 26.3466 80.2464 26.2825 80.4242 26.1542C80.6038 26.024 80.6936 25.8682 80.6936 25.6868C80.6936 25.5402 80.6423 25.4174 80.5397 25.3184C80.437 25.2176 80.2794 25.1424 80.0668 25.0929L79.363 24.928C78.9762 24.8363 78.6922 24.6943 78.5107 24.5018C78.3311 24.3076 78.2413 24.0647 78.2413 23.7733C78.2413 23.535 78.3082 23.3242 78.442 23.141C78.5776 22.9577 78.7618 22.8138 78.9946 22.7093C79.2292 22.6049 79.4949 22.5526 79.7919 22.5526C80.2098 22.5526 80.5378 22.6443 80.7761 22.8275C81.0162 23.0108 81.1867 23.2528 81.2875 23.5533ZM83.9568 26.9185C83.5499 26.9185 83.1989 26.8286 82.9038 26.649C82.6106 26.4676 82.3842 26.2146 82.2248 25.8902C82.0671 25.564 81.9883 25.1846 81.9883 24.752C81.9883 24.3195 82.0671 23.9382 82.2248 23.6083C82.3842 23.2766 82.606 23.0182 82.8901 22.833C83.176 22.6461 83.5096 22.5526 83.8908 22.5526C84.1108 22.5526 84.328 22.5893 84.5424 22.6626C84.7568 22.7359 84.952 22.855 85.128 23.02C85.3039 23.1831 85.4442 23.3994 85.5486 23.6688C85.6531 23.9382 85.7053 24.27 85.7053 24.6641V24.939H82.4502V24.3781H85.0455C85.0455 24.1399 84.9979 23.9272 84.9026 23.7403C84.8091 23.5533 84.6753 23.4058 84.5012 23.2977C84.3289 23.1895 84.1254 23.1355 83.8908 23.1355C83.6324 23.1355 83.4088 23.1996 83.22 23.3279C83.0331 23.4544 82.8892 23.6193 82.7884 23.8228C82.6876 24.0262 82.6372 24.2443 82.6372 24.4771V24.851C82.6372 25.1699 82.6921 25.4403 82.8021 25.662C82.9139 25.882 83.0688 26.0497 83.2667 26.1652C83.4647 26.2788 83.6947 26.3356 83.9568 26.3356C84.1273 26.3356 84.2812 26.3118 84.4187 26.2641C84.558 26.2146 84.678 26.1413 84.7788 26.0442C84.8796 25.9452 84.9575 25.8224 85.0125 25.6758L85.6394 25.8517C85.5734 26.0643 85.4625 26.2513 85.3067 26.4126C85.1509 26.572 84.9585 26.6967 84.7294 26.7865C84.5002 26.8745 84.2427 26.9185 83.9568 26.9185ZM87.7802 26.9294C87.5126 26.9294 87.2697 26.879 87.0516 26.7782C86.8335 26.6756 86.6603 26.5281 86.532 26.3356C86.4037 26.1413 86.3395 25.9067 86.3395 25.6318C86.3395 25.3899 86.3872 25.1937 86.4825 25.0435C86.5778 24.8913 86.7052 24.7722 86.8647 24.686C87.0241 24.5999 87.2001 24.5358 87.3925 24.4936C87.5868 24.4496 87.782 24.4148 87.9781 24.3891C88.2347 24.3561 88.4427 24.3314 88.6022 24.3149C88.7635 24.2966 88.8808 24.2663 88.9541 24.2242C89.0292 24.182 89.0668 24.1087 89.0668 24.0042V23.9822C89.0668 23.711 88.9926 23.5002 88.8441 23.3499C88.6975 23.1996 88.4748 23.1245 88.1761 23.1245C87.8663 23.1245 87.6235 23.1923 87.4475 23.3279C87.2715 23.4635 87.1478 23.6083 87.0763 23.7623L86.4605 23.5424C86.5705 23.2858 86.7171 23.086 86.9004 22.943C87.0855 22.7982 87.2871 22.6974 87.5052 22.6406C87.7252 22.5819 87.9414 22.5526 88.1541 22.5526C88.2897 22.5526 88.4455 22.5691 88.6214 22.6021C88.7992 22.6333 88.9706 22.6983 89.1355 22.7973C89.3023 22.8963 89.4407 23.0457 89.5507 23.2454C89.6607 23.4452 89.7156 23.7128 89.7156 24.0482V26.8305H89.0668V26.2586H89.0338C88.9898 26.3503 88.9165 26.4483 88.8139 26.5528C88.7112 26.6573 88.5747 26.7462 88.4042 26.8195C88.2338 26.8928 88.0258 26.9294 87.7802 26.9294ZM87.8791 26.3466C88.1357 26.3466 88.352 26.2962 88.528 26.1954C88.7057 26.0946 88.8395 25.9645 88.9294 25.805C89.021 25.6455 89.0668 25.4778 89.0668 25.3019V24.708C89.0393 24.741 88.9788 24.7713 88.8854 24.7988C88.7937 24.8244 88.6874 24.8473 88.5664 24.8675C88.4473 24.8858 88.3309 24.9023 88.2173 24.917C88.1055 24.9298 88.0148 24.9408 87.9451 24.95C87.7765 24.972 87.6189 25.0077 87.4722 25.0572C87.3274 25.1049 87.2101 25.1772 87.1203 25.2744C87.0324 25.3697 86.9884 25.4998 86.9884 25.6648C86.9884 25.8902 87.0718 26.0607 87.2386 26.1761C87.4072 26.2898 87.6207 26.3466 87.8791 26.3466ZM90.745 26.8305V22.6076H91.3719V23.2454H91.4159C91.4928 23.0365 91.6321 22.8669 91.8338 22.7368C92.0354 22.6067 92.2626 22.5416 92.5156 22.5416C92.5632 22.5416 92.6228 22.5425 92.6943 22.5444C92.7658 22.5462 92.8198 22.5489 92.8565 22.5526V23.2124C92.8345 23.2069 92.7841 23.1987 92.7053 23.1877C92.6283 23.1749 92.5467 23.1685 92.4606 23.1685C92.2553 23.1685 92.072 23.2115 91.9107 23.2977C91.7513 23.382 91.6248 23.4993 91.5313 23.6496C91.4397 23.798 91.3939 23.9676 91.3939 24.1582V26.8305H90.745ZM95.0578 26.9185C94.6619 26.9185 94.321 26.825 94.035 26.638C93.7491 26.4511 93.5292 26.1936 93.3752 25.8655C93.2213 25.5374 93.1443 25.1626 93.1443 24.741C93.1443 24.3121 93.2231 23.9337 93.3807 23.6056C93.5402 23.2757 93.7619 23.0182 94.046 22.833C94.332 22.6461 94.6655 22.5526 95.0468 22.5526C95.3437 22.5526 95.6113 22.6076 95.8496 22.7176C96.0878 22.8275 96.283 22.9815 96.4352 23.1794C96.5873 23.3774 96.6817 23.6083 96.7183 23.8723H96.0695C96.02 23.6798 95.91 23.5094 95.7396 23.3609C95.571 23.2106 95.3437 23.1355 95.0578 23.1355C94.8048 23.1355 94.5831 23.2014 94.3924 23.3334C94.2037 23.4635 94.0561 23.6477 93.9498 23.886C93.8453 24.1224 93.7931 24.4001 93.7931 24.719C93.7931 25.0453 93.8444 25.3294 93.9471 25.5713C94.0515 25.8132 94.1982 26.0011 94.3869 26.1349C94.5776 26.2687 94.8012 26.3356 95.0578 26.3356C95.2264 26.3356 95.3794 26.3063 95.5169 26.2476C95.6544 26.189 95.7707 26.1047 95.8661 25.9947C95.9614 25.8847 96.0292 25.7528 96.0695 25.5988H96.7183C96.6817 25.8481 96.5909 26.0726 96.4462 26.2724C96.3032 26.4703 96.1135 26.6279 95.8771 26.7452C95.6424 26.8607 95.3694 26.9185 95.0578 26.9185ZM98.1608 24.2902V26.8305H97.512V21.2H98.1608V23.2674H98.2158C98.3148 23.0493 98.4632 22.8761 98.6612 22.7478C98.861 22.6177 99.1267 22.5526 99.4585 22.5526C99.7462 22.5526 99.9982 22.6104 100.215 22.7258C100.431 22.8395 100.598 23.0145 100.718 23.2509C100.839 23.4855 100.899 23.7843 100.899 24.1472V26.8305H100.25V24.1912C100.25 23.8558 100.163 23.5964 99.9891 23.4131C99.8168 23.228 99.5776 23.1355 99.2715 23.1355C99.0589 23.1355 98.8683 23.1804 98.6997 23.2702C98.5329 23.36 98.4009 23.491 98.3038 23.6633C98.2085 23.8356 98.1608 24.0446 98.1608 24.2902ZM103.702 26.9185C103.295 26.9185 102.944 26.8286 102.649 26.649C102.356 26.4676 102.129 26.2146 101.97 25.8902C101.812 25.564 101.733 25.1846 101.733 24.752C101.733 24.3195 101.812 23.9382 101.97 23.6083C102.129 23.2766 102.351 23.0182 102.635 22.833C102.921 22.6461 103.255 22.5526 103.636 22.5526C103.856 22.5526 104.073 22.5893 104.287 22.6626C104.502 22.7359 104.697 22.855 104.873 23.02C105.049 23.1831 105.189 23.3994 105.294 23.6688C105.398 23.9382 105.45 24.27 105.45 24.6641V24.939H102.195V24.3781H104.79C104.79 24.1399 104.743 23.9272 104.648 23.7403C104.554 23.5533 104.42 23.4058 104.246 23.2977C104.074 23.1895 103.87 23.1355 103.636 23.1355C103.377 23.1355 103.154 23.1996 102.965 23.3279C102.778 23.4544 102.634 23.6193 102.533 23.8228C102.433 24.0262 102.382 24.2443 102.382 24.4771V24.851C102.382 25.1699 102.437 25.4403 102.547 25.662C102.659 25.882 102.814 26.0497 103.012 26.1652C103.21 26.2788 103.44 26.3356 103.702 26.3356C103.872 26.3356 104.026 26.3118 104.164 26.2641C104.303 26.2146 104.423 26.1413 104.524 26.0442C104.625 25.9452 104.702 25.8224 104.757 25.6758L105.384 25.8517C105.318 26.0643 105.207 26.2513 105.052 26.4126C104.896 26.572 104.703 26.6967 104.474 26.7865C104.245 26.8745 103.988 26.9185 103.702 26.9185ZM109.274 23.5533L108.691 23.7183C108.654 23.6212 108.6 23.5268 108.529 23.4351C108.459 23.3417 108.364 23.2647 108.243 23.2042C108.122 23.1437 107.967 23.1135 107.778 23.1135C107.52 23.1135 107.304 23.173 107.132 23.2922C106.962 23.4095 106.876 23.5588 106.876 23.7403C106.876 23.9016 106.935 24.029 107.052 24.1224C107.17 24.2159 107.353 24.2938 107.602 24.3561L108.229 24.5101C108.606 24.6017 108.888 24.7419 109.073 24.9307C109.258 25.1177 109.351 25.3587 109.351 25.6538C109.351 25.8957 109.281 26.112 109.142 26.3026C109.004 26.4932 108.812 26.6435 108.564 26.7535C108.317 26.8635 108.029 26.9185 107.701 26.9185C107.27 26.9185 106.914 26.825 106.632 26.638C106.349 26.4511 106.171 26.178 106.095 25.8187L106.711 25.6648C106.77 25.8921 106.881 26.0625 107.044 26.1761C107.209 26.2898 107.424 26.3466 107.69 26.3466C107.992 26.3466 108.233 26.2825 108.41 26.1542C108.59 26.024 108.68 25.8682 108.68 25.6868C108.68 25.5402 108.628 25.4174 108.526 25.3184C108.423 25.2176 108.266 25.1424 108.053 25.0929L107.349 24.928C106.962 24.8363 106.678 24.6943 106.497 24.5018C106.317 24.3076 106.227 24.0647 106.227 23.7733C106.227 23.535 106.294 23.3242 106.428 23.141C106.564 22.9577 106.748 22.8138 106.981 22.7093C107.215 22.6049 107.481 22.5526 107.778 22.5526C108.196 22.5526 108.524 22.6443 108.762 22.8275C109.002 23.0108 109.173 23.2528 109.274 23.5533Z" fill="#353FD7"/>
<g clip-path="url(#clip0_1643_26277)">
<path d="M29.4656 24.7948L29.0496 24.4524C28.7647 24.2178 28.7652 23.7818 29.0496 23.5476L29.4656 23.2052C29.7617 22.9614 29.8374 22.5435 29.6457 22.2114L28.8242 20.7886C28.6325 20.4565 28.2326 20.3131 27.8736 20.4476L27.369 20.6367C27.0234 20.7661 26.646 20.5478 26.5854 20.1843L26.4969 19.6528C26.4338 19.2746 26.1097 19 25.7263 19H24.0834C23.6999 19 23.3758 19.2746 23.3128 19.6528L23.2242 20.1843C23.1635 20.5484 22.7856 20.7659 22.4407 20.6367L21.9361 20.4476C21.577 20.3131 21.1772 20.4565 20.9854 20.7886L20.164 22.2114C19.9722 22.5435 20.0479 22.9614 20.344 23.2052L20.76 23.5476C21.045 23.7822 21.0445 24.2182 20.76 24.4523L20.344 24.7948C20.0479 25.0386 19.9722 25.4565 20.164 25.7886L20.9854 27.2114C21.1772 27.5435 21.5769 27.6868 21.9361 27.5523L22.4406 27.3633C22.7863 27.2338 23.1636 27.4523 23.2242 27.8157L23.3128 28.3471C23.3758 28.7254 23.6999 29 24.0834 29H25.7262C26.1097 29 26.4338 28.7254 26.4969 28.3472L26.5854 27.8157C26.6461 27.4517 27.0239 27.234 27.369 27.3633L27.8736 27.5524C28.2327 27.6869 28.6325 27.5435 28.8242 27.2114L29.6457 25.7886C29.8374 25.4565 29.7617 25.0386 29.4656 24.7948ZM28.1477 26.8208L27.6431 26.6317C26.8364 26.3296 25.9562 26.8393 25.8148 27.6872L25.7263 28.2188H24.0834L23.9948 27.6872C23.8532 26.8377 22.9716 26.3301 22.1666 26.6317L21.662 26.8208L20.8406 25.398L21.2566 25.0555C21.9216 24.5081 21.9202 23.4908 21.2566 22.9445L20.8406 22.602L21.662 21.1792L22.1666 21.3683C22.9732 21.6704 23.8535 21.1607 23.9948 20.3128L24.0834 19.7812H25.7262L25.8148 20.3128C25.9564 21.1624 26.838 21.6698 27.643 21.3683L28.1476 21.1792L28.9693 22.6018C28.9693 22.6018 28.9692 22.6019 28.969 22.602L28.5531 22.9445C27.8881 23.4919 27.8894 24.5092 28.553 25.0555L28.9691 25.398L28.1477 26.8208ZM24.9048 22.0729C23.8422 22.0729 22.9777 22.9374 22.9777 24C22.9777 25.0626 23.8422 25.9271 24.9048 25.9271C25.9674 25.9271 26.8319 25.0626 26.8319 24C26.8319 22.9374 25.9674 22.0729 24.9048 22.0729ZM24.9048 25.1458C24.273 25.1458 23.759 24.6318 23.759 24C23.759 23.3682 24.273 22.8542 24.9048 22.8542C25.5366 22.8542 26.0507 23.3682 26.0507 24C26.0507 24.6318 25.5366 25.1458 24.9048 25.1458Z" fill="#353FD7"/>
</g>
<rect x="8.84766" y="43.1334" width="222.304" height="30.9677" rx="8" fill="white"/>
<path d="M216.031 58.2473L219.054 55.2242" stroke="#4D4D4D" stroke-width="0.829493" stroke-linecap="round" stroke-linejoin="round"/>
<path d="M219.35 56.6989V54.9293H217.58" stroke="#4D4D4D" stroke-width="0.829493" stroke-linecap="round" stroke-linejoin="round"/>
<path d="M215.293 54.9293H214.555C212.712 54.9293 211.975 55.6666 211.975 57.5099V59.7219C211.975 61.5652 212.712 62.3025 214.555 62.3025H216.767C218.611 62.3025 219.348 61.5652 219.348 59.7219V58.9846" stroke="#4D4D4D" stroke-width="0.829493" stroke-linecap="round" stroke-linejoin="round"/>
<path d="M122.524 58.0384C122.524 60.0416 120.898 61.6674 118.895 61.6674C116.891 61.6674 115.266 60.0416 115.266 58.0384C115.266 56.0351 116.891 54.4093 118.895 54.4093C120.898 54.4093 122.524 56.0351 122.524 58.0384Z" stroke="#4D4D4D" stroke-width="0.552995" stroke-linecap="round" stroke-linejoin="round"/>
<path d="M118.895 55.8609V57.9347" stroke="#4D4D4D" stroke-width="0.552995" stroke-linecap="round" stroke-linejoin="round"/>
<path d="M117.65 53.3725H120.139" stroke="#4D4D4D" stroke-width="0.552995" stroke-miterlimit="10" stroke-linecap="round" stroke-linejoin="round"/>
<path d="M128.646 54.3894V60.0199H127.964V55.1042H127.931L126.557 56.017V55.3242L127.964 54.3894H128.646ZM130.122 60.0199V55.7971H130.749V56.4569H130.804C130.892 56.2314 131.034 56.0564 131.23 55.9318C131.426 55.8053 131.661 55.7421 131.936 55.7421C132.215 55.7421 132.447 55.8053 132.632 55.9318C132.819 56.0564 132.965 56.2314 133.069 56.4569H133.113C133.221 56.2388 133.383 56.0656 133.6 55.9373C133.816 55.8071 134.075 55.7421 134.378 55.7421C134.755 55.7421 135.064 55.8603 135.304 56.0967C135.544 56.3313 135.664 56.697 135.664 57.1937V60.0199H135.015V57.1937C135.015 56.8821 134.93 56.6594 134.76 56.5256C134.589 56.3918 134.389 56.3249 134.158 56.3249C133.861 56.3249 133.631 56.4147 133.468 56.5943C133.305 56.7721 133.223 56.9976 133.223 57.2707V60.0199H132.563V57.1277C132.563 56.8876 132.485 56.6942 132.329 56.5476C132.174 56.3991 131.973 56.3249 131.727 56.3249C131.559 56.3249 131.401 56.3698 131.254 56.4596C131.11 56.5494 130.992 56.6741 130.903 56.8335C130.815 56.9912 130.771 57.1735 130.771 57.3806V60.0199H130.122ZM139.687 56.7428L139.104 56.9078C139.067 56.8106 139.013 56.7162 138.942 56.6246C138.872 56.5311 138.777 56.4541 138.656 56.3936C138.535 56.3332 138.38 56.3029 138.191 56.3029C137.933 56.3029 137.718 56.3625 137.545 56.4816C137.375 56.5989 137.29 56.7483 137.29 56.9298C137.29 57.091 137.348 57.2184 137.466 57.3119C137.583 57.4054 137.766 57.4833 138.015 57.5456L138.642 57.6995C139.02 57.7912 139.301 57.9314 139.486 58.1202C139.671 58.3071 139.764 58.5482 139.764 58.8432C139.764 59.0852 139.694 59.3015 139.555 59.4921C139.418 59.6827 139.225 59.833 138.978 59.9429C138.73 60.0529 138.442 60.1079 138.114 60.1079C137.684 60.1079 137.327 60.0144 137.045 59.8275C136.763 59.6405 136.584 59.3674 136.509 59.0082L137.125 58.8542C137.183 59.0815 137.294 59.252 137.457 59.3656C137.622 59.4792 137.838 59.5361 138.103 59.5361C138.406 59.5361 138.646 59.4719 138.824 59.3436C139.003 59.2135 139.093 59.0577 139.093 58.8762C139.093 58.7296 139.042 58.6068 138.939 58.5078C138.837 58.407 138.679 58.3319 138.466 58.2824L137.762 58.1174C137.376 58.0258 137.092 57.8837 136.91 57.6913C136.731 57.497 136.641 57.2542 136.641 56.9627C136.641 56.7245 136.708 56.5137 136.841 56.3304C136.977 56.1471 137.161 56.0032 137.394 55.8988C137.629 55.7943 137.894 55.7421 138.191 55.7421C138.609 55.7421 138.937 55.8337 139.176 56.017C139.416 56.2003 139.586 56.4422 139.687 56.7428Z" fill="#4D4D4D"/>
<path d="M25.3388 58.9398C25.3388 59.5336 25.2316 60.0468 25.0171 60.4794C24.8027 60.9119 24.5085 61.2455 24.1346 61.4801C23.7607 61.7147 23.3337 61.832 22.8535 61.832C22.3733 61.832 21.9462 61.7147 21.5723 61.4801C21.1984 61.2455 20.9042 60.9119 20.6898 60.4794C20.4753 60.0468 20.3681 59.5336 20.3681 58.9398C20.3681 58.3459 20.4753 57.8327 20.6898 57.4002C20.9042 56.9676 21.1984 56.6341 21.5723 56.3994C21.9462 56.1648 22.3733 56.0475 22.8535 56.0475C23.3337 56.0475 23.7607 56.1648 24.1346 56.3994C24.5085 56.6341 24.8027 56.9676 25.0171 57.4002C25.2316 57.8327 25.3388 58.3459 25.3388 58.9398ZM24.679 58.9398C24.679 58.4522 24.5974 58.0408 24.4343 57.7054C24.273 57.3699 24.054 57.1161 23.7772 56.9438C23.5023 56.7715 23.1944 56.6854 22.8535 56.6854C22.5126 56.6854 22.2037 56.7715 21.927 56.9438C21.652 57.1161 21.433 57.3699 21.2699 57.7054C21.1086 58.0408 21.028 58.4522 21.028 58.9398C21.028 59.4273 21.1086 59.8388 21.2699 60.1742C21.433 60.5096 21.652 60.7635 21.927 60.9357C22.2037 61.108 22.5126 61.1942 22.8535 61.1942C23.1944 61.1942 23.5023 61.108 23.7772 60.9357C24.054 60.7635 24.273 60.5096 24.4343 60.1742C24.5974 59.8388 24.679 59.4273 24.679 58.9398ZM27.837 61.843C27.4851 61.843 27.1744 61.7541 26.905 61.5763C26.6356 61.3967 26.4248 61.1438 26.2727 60.8175C26.1205 60.4894 26.0445 60.1018 26.0445 59.6546C26.0445 59.211 26.1205 58.8261 26.2727 58.4999C26.4248 58.1736 26.6365 57.9216 26.9078 57.7438C27.179 57.5661 27.4924 57.4772 27.848 57.4772C28.1229 57.4772 28.3401 57.523 28.4996 57.6146C28.6609 57.7044 28.7837 57.8071 28.868 57.9225C28.9541 58.0362 29.021 58.1297 29.0687 58.203H29.1237V56.1245H29.7725V61.755H29.1457V61.1062H29.0687C29.021 61.1832 28.9532 61.2803 28.8652 61.3976C28.7773 61.5131 28.6517 61.6166 28.4886 61.7083C28.3255 61.7981 28.1083 61.843 27.837 61.843ZM27.925 61.2602C28.1852 61.2602 28.4052 61.1923 28.5848 61.0567C28.7644 60.9192 28.901 60.7295 28.9944 60.4876C29.0879 60.2438 29.1347 59.9625 29.1347 59.6436C29.1347 59.3283 29.0888 59.0525 28.9972 58.8161C28.9056 58.5778 28.7699 58.3927 28.5903 58.2607C28.4107 58.1269 28.1889 58.06 27.925 58.06C27.6501 58.06 27.4209 58.1306 27.2377 58.2717C27.0562 58.411 26.9197 58.6007 26.828 58.8408C26.7382 59.0791 26.6933 59.3467 26.6933 59.6436C26.6933 59.9442 26.7391 60.2173 26.8308 60.4629C26.9242 60.7066 27.0617 60.9009 27.2432 61.0457C27.4264 61.1887 27.6537 61.2602 27.925 61.2602ZM32.4906 61.843C32.1387 61.843 31.8281 61.7541 31.5586 61.5763C31.2892 61.3967 31.0784 61.1438 30.9263 60.8175C30.7742 60.4894 30.6981 60.1018 30.6981 59.6546C30.6981 59.211 30.7742 58.8261 30.9263 58.4999C31.0784 58.1736 31.2901 57.9216 31.5614 57.7438C31.8326 57.5661 32.1461 57.4772 32.5016 57.4772C32.7766 57.4772 32.9937 57.523 33.1532 57.6146C33.3145 57.7044 33.4373 57.8071 33.5216 57.9225C33.6078 58.0362 33.6747 58.1297 33.7223 58.203H33.7773V56.1245H34.4261V61.755H33.7993V61.1062H33.7223C33.6747 61.1832 33.6068 61.2803 33.5189 61.3976C33.4309 61.5131 33.3053 61.6166 33.1422 61.7083C32.9791 61.7981 32.7619 61.843 32.4906 61.843ZM32.5786 61.2602C32.8389 61.2602 33.0588 61.1923 33.2384 61.0567C33.4181 60.9192 33.5546 60.7295 33.6481 60.4876C33.7416 60.2438 33.7883 59.9625 33.7883 59.6436C33.7883 59.3283 33.7425 59.0525 33.6508 58.8161C33.5592 58.5778 33.4236 58.3927 33.2439 58.2607C33.0643 58.1269 32.8425 58.06 32.5786 58.06C32.3037 58.06 32.0746 58.1306 31.8913 58.2717C31.7098 58.411 31.5733 58.6007 31.4817 58.8408C31.3918 59.0791 31.3469 59.3467 31.3469 59.6436C31.3469 59.9442 31.3928 60.2173 31.4844 60.4629C31.5779 60.7066 31.7153 60.9009 31.8968 61.0457C32.0801 61.1887 32.3073 61.2602 32.5786 61.2602ZM37.3523 56.7294V56.1245H41.5752V56.7294H39.8047V61.755H39.1229V56.7294H37.3523ZM43.0335 59.2147V61.755H42.3847V56.1245H43.0335V58.192H43.0885C43.1875 57.9739 43.3359 57.8007 43.5339 57.6724C43.7336 57.5422 43.9994 57.4772 44.3311 57.4772C44.6189 57.4772 44.8709 57.5349 45.0872 57.6504C45.3035 57.764 45.4712 57.939 45.5903 58.1755C45.7113 58.4101 45.7718 58.7088 45.7718 59.0717V61.755H45.1229V59.1157C45.1229 58.7803 45.0359 58.521 44.8618 58.3377C44.6895 58.1526 44.4503 58.06 44.1442 58.06C43.9316 58.06 43.741 58.1049 43.5723 58.1947C43.4056 58.2845 43.2736 58.4156 43.1765 58.5879C43.0811 58.7602 43.0335 58.9691 43.0335 59.2147ZM48.5195 61.843C48.1382 61.843 47.8037 61.7523 47.516 61.5708C47.2301 61.3894 47.0065 61.1355 46.8452 60.8093C46.6857 60.483 46.606 60.1018 46.606 59.6656C46.606 59.2257 46.6857 58.8417 46.8452 58.5136C47.0065 58.1856 47.2301 57.9308 47.516 57.7493C47.8037 57.5679 48.1382 57.4772 48.5195 57.4772C48.9007 57.4772 49.2343 57.5679 49.5202 57.7493C49.808 57.9308 50.0316 58.1856 50.191 58.5136C50.3523 58.8417 50.433 59.2257 50.433 59.6656C50.433 60.1018 50.3523 60.483 50.191 60.8093C50.0316 61.1355 49.808 61.3894 49.5202 61.5708C49.2343 61.7523 48.9007 61.843 48.5195 61.843ZM48.5195 61.2602C48.8091 61.2602 49.0473 61.1859 49.2343 61.0375C49.4212 60.889 49.5596 60.6938 49.6494 60.4519C49.7392 60.2099 49.7841 59.9478 49.7841 59.6656C49.7841 59.3833 49.7392 59.1203 49.6494 58.8765C49.5596 58.6328 49.4212 58.4357 49.2343 58.2854C49.0473 58.1352 48.8091 58.06 48.5195 58.06C48.2299 58.06 47.9916 58.1352 47.8047 58.2854C47.6177 58.4357 47.4793 58.6328 47.3895 58.8765C47.2997 59.1203 47.2548 59.3833 47.2548 59.6656C47.2548 59.9478 47.2997 60.2099 47.3895 60.4519C47.4793 60.6938 47.6177 60.889 47.8047 61.0375C47.9916 61.1859 48.2299 61.2602 48.5195 61.2602ZM51.2685 61.755V57.5321H51.8954V58.192H51.9504C52.0383 57.9665 52.1804 57.7915 52.3765 57.6669C52.5726 57.5404 52.8081 57.4772 53.0831 57.4772C53.3616 57.4772 53.5935 57.5404 53.7786 57.6669C53.9656 57.7915 54.1113 57.9665 54.2158 58.192H54.2597C54.3679 57.9739 54.5301 57.8007 54.7464 57.6724C54.9626 57.5422 55.222 57.4772 55.5244 57.4772C55.902 57.4772 56.2108 57.5954 56.4509 57.8318C56.691 58.0664 56.8111 58.4321 56.8111 58.9288V61.755H56.1622V58.9288C56.1622 58.6172 56.077 58.3945 55.9066 58.2607C55.7361 58.1269 55.5354 58.06 55.3045 58.06C55.0075 58.06 54.7775 58.1498 54.6144 58.3294C54.4513 58.5072 54.3697 58.7327 54.3697 59.0058V61.755H53.7099V58.8628C53.7099 58.6227 53.632 58.4293 53.4762 58.2827C53.3204 58.1342 53.1197 58.06 52.8741 58.06C52.7055 58.06 52.5479 58.1049 52.4012 58.1947C52.2564 58.2845 52.1391 58.4092 52.0493 58.5686C51.9614 58.7262 51.9174 58.9086 51.9174 59.1157V61.755H51.2685ZM59.0852 61.854C58.8176 61.854 58.5748 61.8036 58.3566 61.7028C58.1385 61.6001 57.9653 61.4526 57.837 61.2602C57.7087 61.0659 57.6446 60.8313 57.6446 60.5563C57.6446 60.3144 57.6922 60.1183 57.7875 59.968C57.8829 59.8159 58.0102 59.6967 58.1697 59.6106C58.3291 59.5244 58.5051 59.4603 58.6976 59.4181C58.8918 59.3742 59.087 59.3393 59.2831 59.3137C59.5397 59.2807 59.7478 59.2559 59.9072 59.2394C60.0685 59.2211 60.1858 59.1909 60.2591 59.1487C60.3343 59.1066 60.3719 59.0332 60.3719 58.9288V58.9068C60.3719 58.6355 60.2976 58.4247 60.1492 58.2744C60.0025 58.1242 59.7798 58.049 59.4811 58.049C59.1713 58.049 58.9285 58.1168 58.7525 58.2525C58.5766 58.3881 58.4529 58.5329 58.3814 58.6868L57.7655 58.4669C57.8755 58.2103 58.0221 58.0105 58.2054 57.8676C58.3905 57.7228 58.5922 57.622 58.8103 57.5651C59.0302 57.5065 59.2465 57.4772 59.4591 57.4772C59.5947 57.4772 59.7505 57.4937 59.9265 57.5266C60.1043 57.5578 60.2756 57.6229 60.4406 57.7218C60.6074 57.8208 60.7458 57.9702 60.8557 58.17C60.9657 58.3698 61.0207 58.6374 61.0207 58.9728V61.755H60.3719V61.1832H60.3389C60.2949 61.2748 60.2216 61.3729 60.1189 61.4773C60.0163 61.5818 59.8797 61.6707 59.7093 61.744C59.5388 61.8173 59.3308 61.854 59.0852 61.854ZM59.1842 61.2711C59.4408 61.2711 59.657 61.2207 59.833 61.1199C60.0108 61.0191 60.1446 60.889 60.2344 60.7295C60.326 60.5701 60.3719 60.4024 60.3719 60.2264V59.6326C60.3444 59.6656 60.2839 59.6958 60.1904 59.7233C60.0988 59.749 59.9925 59.7719 59.8715 59.792C59.7524 59.8104 59.636 59.8269 59.5223 59.8415C59.4105 59.8544 59.3198 59.8654 59.2502 59.8745C59.0815 59.8965 58.9239 59.9323 58.7773 59.9817C58.6325 60.0294 58.5152 60.1018 58.4254 60.1989C58.3374 60.2942 58.2934 60.4244 58.2934 60.5893C58.2934 60.8148 58.3768 60.9852 58.5436 61.1007C58.7122 61.2143 58.9257 61.2711 59.1842 61.2711ZM65.0413 58.4779L64.4584 58.6428C64.4218 58.5457 64.3677 58.4513 64.2962 58.3597C64.2266 58.2662 64.1313 58.1892 64.0103 58.1287C63.8894 58.0683 63.7345 58.038 63.5457 58.038C63.2873 58.038 63.0719 58.0976 62.8996 58.2167C62.7292 58.334 62.6439 58.4834 62.6439 58.6648C62.6439 58.8261 62.7026 58.9535 62.8199 59.047C62.9372 59.1405 63.1205 59.2184 63.3697 59.2807L63.9966 59.4346C64.3741 59.5263 64.6555 59.6665 64.8406 59.8553C65.0257 60.0422 65.1183 60.2832 65.1183 60.5783C65.1183 60.8203 65.0486 61.0365 64.9093 61.2272C64.7719 61.4178 64.5794 61.5681 64.332 61.678C64.0845 61.788 63.7968 61.843 63.4687 61.843C63.038 61.843 62.6815 61.7495 62.3992 61.5626C62.117 61.3756 61.9383 61.1025 61.8631 60.7433L62.479 60.5893C62.5376 60.8166 62.6485 60.9871 62.8116 61.1007C62.9766 61.2143 63.192 61.2711 63.4577 61.2711C63.7601 61.2711 64.0002 61.207 64.178 61.0787C64.3576 60.9486 64.4475 60.7928 64.4475 60.6113C64.4475 60.4647 64.3961 60.3419 64.2935 60.2429C64.1909 60.1421 64.0332 60.067 63.8206 60.0175L63.1168 59.8525C62.7301 59.7609 62.446 59.6188 62.2645 59.4264C62.0849 59.2321 61.9951 58.9893 61.9951 58.6978C61.9951 58.4596 62.062 58.2488 62.1958 58.0655C62.3314 57.8822 62.5156 57.7383 62.7484 57.6339C62.983 57.5294 63.2488 57.4772 63.5457 57.4772C63.9636 57.4772 64.2917 57.5688 64.5299 57.7521C64.77 57.9354 64.9405 58.1773 65.0413 58.4779Z" fill="#4D4D4D"/>
<path d="M36.9784 63.2946H65.5032V63.8225H36.9784V63.2946Z" fill="#4D4D4D"/>
<rect x="8.84766" y="77.4191" width="222.304" height="30.9677" rx="8" fill="white"/>
<path d="M216.031 92.5349L219.054 89.5119" stroke="#4D4D4D" stroke-width="0.829493" stroke-linecap="round" stroke-linejoin="round"/>
<path d="M219.35 90.9865V89.2169H217.58" stroke="#4D4D4D" stroke-width="0.829493" stroke-linecap="round" stroke-linejoin="round"/>
<path d="M215.293 89.2169H214.555C212.712 89.2169 211.975 89.9543 211.975 91.7976V94.0096C211.975 95.8529 212.712 96.5902 214.555 96.5902H216.767C218.611 96.5902 219.348 95.8529 219.348 94.0096V93.2722" stroke="#4D4D4D" stroke-width="0.829493" stroke-linecap="round" stroke-linejoin="round"/>
<path d="M122.524 92.0384C122.524 94.0416 120.898 95.6674 118.895 95.6674C116.891 95.6674 115.266 94.0416 115.266 92.0384C115.266 90.0351 116.891 88.4093 118.895 88.4093C120.898 88.4093 122.524 90.0351 122.524 92.0384Z" stroke="#4D4D4D" stroke-width="0.552995" stroke-linecap="round" stroke-linejoin="round"/>
<path d="M118.895 89.8609V91.9347" stroke="#4D4D4D" stroke-width="0.552995" stroke-linecap="round" stroke-linejoin="round"/>
<path d="M117.65 87.3725H120.139" stroke="#4D4D4D" stroke-width="0.552995" stroke-miterlimit="10" stroke-linecap="round" stroke-linejoin="round"/>
<path d="M128.646 88.3894V94.0199H127.964V89.1042H127.931L126.557 90.017V89.3242L127.964 88.3894H128.646ZM130.122 94.0199V89.7971H130.749V90.4569H130.804C130.892 90.2314 131.034 90.0564 131.23 89.9318C131.426 89.8053 131.661 89.7421 131.936 89.7421C132.215 89.7421 132.447 89.8053 132.632 89.9318C132.819 90.0564 132.965 90.2314 133.069 90.4569H133.113C133.221 90.2388 133.383 90.0656 133.6 89.9373C133.816 89.8071 134.075 89.7421 134.378 89.7421C134.755 89.7421 135.064 89.8603 135.304 90.0967C135.544 90.3313 135.664 90.697 135.664 91.1937V94.0199H135.015V91.1937C135.015 90.8821 134.93 90.6594 134.76 90.5256C134.589 90.3918 134.389 90.3249 134.158 90.3249C133.861 90.3249 133.631 90.4147 133.468 90.5943C133.305 90.7721 133.223 90.9976 133.223 91.2707V94.0199H132.563V91.1277C132.563 90.8876 132.485 90.6942 132.329 90.5476C132.174 90.3991 131.973 90.3249 131.727 90.3249C131.559 90.3249 131.401 90.3698 131.254 90.4596C131.11 90.5494 130.992 90.6741 130.903 90.8335C130.815 90.9912 130.771 91.1735 130.771 91.3806V94.0199H130.122ZM139.687 90.7428L139.104 90.9078C139.067 90.8106 139.013 90.7162 138.942 90.6246C138.872 90.5311 138.777 90.4541 138.656 90.3936C138.535 90.3332 138.38 90.3029 138.191 90.3029C137.933 90.3029 137.718 90.3625 137.545 90.4816C137.375 90.5989 137.29 90.7483 137.29 90.9298C137.29 91.091 137.348 91.2184 137.466 91.3119C137.583 91.4054 137.766 91.4833 138.015 91.5456L138.642 91.6995C139.02 91.7912 139.301 91.9314 139.486 92.1202C139.671 92.3071 139.764 92.5482 139.764 92.8432C139.764 93.0852 139.694 93.3015 139.555 93.4921C139.418 93.6827 139.225 93.833 138.978 93.9429C138.73 94.0529 138.442 94.1079 138.114 94.1079C137.684 94.1079 137.327 94.0144 137.045 93.8275C136.763 93.6405 136.584 93.3674 136.509 93.0082L137.125 92.8542C137.183 93.0815 137.294 93.252 137.457 93.3656C137.622 93.4792 137.838 93.5361 138.103 93.5361C138.406 93.5361 138.646 93.4719 138.824 93.3436C139.003 93.2135 139.093 93.0577 139.093 92.8762C139.093 92.7296 139.042 92.6068 138.939 92.5078C138.837 92.407 138.679 92.3319 138.466 92.2824L137.762 92.1174C137.376 92.0258 137.092 91.8837 136.91 91.6913C136.731 91.497 136.641 91.2542 136.641 90.9627C136.641 90.7245 136.708 90.5137 136.841 90.3304C136.977 90.1471 137.161 90.0032 137.394 89.8988C137.629 89.7943 137.894 89.7421 138.191 89.7421C138.609 89.7421 138.937 89.8337 139.176 90.017C139.416 90.2003 139.586 90.4422 139.687 90.7428Z" fill="#4D4D4D"/>
<path d="M20.2802 90.7294V90.1245H24.503V90.7294H22.7325V95.755H22.0507V90.7294H20.2802ZM25.9613 93.2147V95.755H25.3125V90.1245H25.9613V92.192H26.0163C26.1153 91.9739 26.2637 91.8007 26.4617 91.6724C26.6615 91.5422 26.9272 91.4772 27.259 91.4772C27.5467 91.4772 27.7987 91.5349 28.015 91.6504C28.2313 91.764 28.399 91.939 28.5181 92.1755C28.6391 92.4101 28.6996 92.7088 28.6996 93.0717V95.755H28.0508V93.1157C28.0508 92.7803 27.9637 92.521 27.7896 92.3377C27.6173 92.1526 27.3781 92.06 27.072 92.06C26.8594 92.06 26.6688 92.1049 26.5002 92.1947C26.3334 92.2845 26.2014 92.4156 26.1043 92.5879C26.009 92.7602 25.9613 92.9691 25.9613 93.2147ZM31.4473 95.843C31.0661 95.843 30.7316 95.7523 30.4438 95.5708C30.1579 95.3894 29.9343 95.1355 29.773 94.8093C29.6135 94.483 29.5338 94.1018 29.5338 93.6656C29.5338 93.2257 29.6135 92.8417 29.773 92.5136C29.9343 92.1856 30.1579 91.9308 30.4438 91.7493C30.7316 91.5679 31.0661 91.4772 31.4473 91.4772C31.8285 91.4772 32.1621 91.5679 32.448 91.7493C32.7358 91.9308 32.9594 92.1856 33.1188 92.5136C33.2801 92.8417 33.3608 93.2257 33.3608 93.6656C33.3608 94.1018 33.2801 94.483 33.1188 94.8093C32.9594 95.1355 32.7358 95.3894 32.448 95.5708C32.1621 95.7523 31.8285 95.843 31.4473 95.843ZM31.4473 95.2602C31.7369 95.2602 31.9751 95.1859 32.1621 95.0375C32.349 94.889 32.4874 94.6938 32.5772 94.4519C32.667 94.2099 32.712 93.9478 32.712 93.6656C32.712 93.3833 32.667 93.1203 32.5772 92.8765C32.4874 92.6328 32.349 92.4357 32.1621 92.2854C31.9751 92.1352 31.7369 92.06 31.4473 92.06C31.1577 92.06 30.9194 92.1352 30.7325 92.2854C30.5455 92.4357 30.4071 92.6328 30.3173 92.8765C30.2275 93.1203 30.1826 93.3833 30.1826 93.6656C30.1826 93.9478 30.2275 94.2099 30.3173 94.4519C30.4071 94.6938 30.5455 94.889 30.7325 95.0375C30.9194 95.1859 31.1577 95.2602 31.4473 95.2602ZM34.1964 95.755V91.5321H34.8232V92.192H34.8782C34.9662 91.9665 35.1082 91.7915 35.3043 91.6669C35.5004 91.5404 35.736 91.4772 36.0109 91.4772C36.2895 91.4772 36.5213 91.5404 36.7064 91.6669C36.8934 91.7915 37.0391 91.9665 37.1436 92.192H37.1876C37.2957 91.9739 37.4579 91.8007 37.6742 91.6724C37.8905 91.5422 38.1498 91.4772 38.4522 91.4772C38.8298 91.4772 39.1386 91.5954 39.3787 91.8318C39.6188 92.0664 39.7389 92.4321 39.7389 92.9288V95.755H39.0901V92.9288C39.0901 92.6172 39.0048 92.3945 38.8344 92.2607C38.6639 92.1269 38.4632 92.06 38.2323 92.06C37.9354 92.06 37.7053 92.1498 37.5422 92.3294C37.3791 92.5072 37.2975 92.7327 37.2975 93.0058V95.755H36.6377V92.8628C36.6377 92.6227 36.5598 92.4293 36.404 92.2827C36.2482 92.1342 36.0475 92.06 35.8019 92.06C35.6333 92.06 35.4757 92.1049 35.3291 92.1947C35.1843 92.2845 35.067 92.4092 34.9772 92.5686C34.8892 92.7262 34.8452 92.9086 34.8452 93.1157V95.755H34.1964ZM42.013 95.854C41.7454 95.854 41.5026 95.8036 41.2845 95.7028C41.0664 95.6001 40.8932 95.4526 40.7649 95.2602C40.6366 95.0659 40.5724 94.8313 40.5724 94.5563C40.5724 94.3144 40.6201 94.1183 40.7154 93.968C40.8107 93.8159 40.9381 93.6967 41.0975 93.6106C41.257 93.5244 41.4329 93.4603 41.6254 93.4181C41.8197 93.3742 42.0149 93.3393 42.211 93.3137C42.4676 93.2807 42.6756 93.2559 42.8351 93.2394C42.9963 93.2211 43.1136 93.1909 43.187 93.1487C43.2621 93.1066 43.2997 93.0332 43.2997 92.9288V92.9068C43.2997 92.6355 43.2254 92.4247 43.077 92.2744C42.9304 92.1242 42.7077 92.049 42.4089 92.049C42.0992 92.049 41.8563 92.1168 41.6804 92.2525C41.5044 92.3881 41.3807 92.5329 41.3092 92.6868L40.6934 92.4669C40.8033 92.2103 40.95 92.0105 41.1333 91.8676C41.3184 91.7228 41.52 91.622 41.7381 91.5651C41.958 91.5065 42.1743 91.4772 42.3869 91.4772C42.5226 91.4772 42.6783 91.4937 42.8543 91.5266C43.0321 91.5578 43.2035 91.6229 43.3684 91.7218C43.5352 91.8208 43.6736 91.9702 43.7835 92.17C43.8935 92.3698 43.9485 92.6374 43.9485 92.9728V95.755H43.2997V95.1832H43.2667C43.2227 95.2748 43.1494 95.3729 43.0467 95.4773C42.9441 95.5818 42.8076 95.6707 42.6371 95.744C42.4667 95.8173 42.2586 95.854 42.013 95.854ZM42.112 95.2711C42.3686 95.2711 42.5849 95.2207 42.7608 95.1199C42.9386 95.0191 43.0724 94.889 43.1622 94.7295C43.2539 94.5701 43.2997 94.4024 43.2997 94.2264V93.6326C43.2722 93.6656 43.2117 93.6958 43.1182 93.7233C43.0266 93.749 42.9203 93.7719 42.7993 93.792C42.6802 93.8104 42.5638 93.8269 42.4502 93.8415C42.3384 93.8544 42.2476 93.8654 42.178 93.8745C42.0094 93.8965 41.8517 93.9323 41.7051 93.9817C41.5603 94.0294 41.443 94.1018 41.3532 94.1989C41.2652 94.2942 41.2212 94.4244 41.2212 94.5893C41.2212 94.8148 41.3046 94.9852 41.4714 95.1007C41.64 95.2143 41.8536 95.2711 42.112 95.2711ZM47.9691 92.4779L47.3863 92.6428C47.3496 92.5457 47.2955 92.4513 47.2241 92.3597C47.1544 92.2662 47.0591 92.1892 46.9381 92.1287C46.8172 92.0683 46.6623 92.038 46.4735 92.038C46.2151 92.038 45.9997 92.0976 45.8274 92.2167C45.657 92.334 45.5718 92.4834 45.5718 92.6648C45.5718 92.8261 45.6304 92.9535 45.7477 93.047C45.865 93.1405 46.0483 93.2184 46.2976 93.2807L46.9244 93.4346C47.302 93.5263 47.5833 93.6665 47.7684 93.8553C47.9535 94.0422 48.0461 94.2832 48.0461 94.5783C48.0461 94.8203 47.9764 95.0365 47.8372 95.2272C47.6997 95.4178 47.5072 95.5681 47.2598 95.678C47.0124 95.788 46.7246 95.843 46.3965 95.843C45.9658 95.843 45.6093 95.7495 45.3271 95.5626C45.0448 95.3756 44.8661 95.1025 44.791 94.7433L45.4068 94.5893C45.4654 94.8166 45.5763 94.9871 45.7395 95.1007C45.9044 95.2143 46.1198 95.2711 46.3855 95.2711C46.688 95.2711 46.9281 95.207 47.1058 95.0787C47.2855 94.9486 47.3753 94.7928 47.3753 94.6113C47.3753 94.4647 47.324 94.3419 47.2213 94.2429C47.1187 94.1421 46.9611 94.067 46.7484 94.0175L46.0446 93.8525C45.6579 93.7609 45.3738 93.6188 45.1924 93.4264C45.0127 93.2321 44.9229 92.9893 44.9229 92.6978C44.9229 92.4596 44.9898 92.2488 45.1236 92.0655C45.2593 91.8822 45.4435 91.7383 45.6762 91.6339C45.9108 91.5294 46.1766 91.4772 46.4735 91.4772C46.8914 91.4772 47.2195 91.5688 47.4578 91.7521C47.6979 91.9354 47.8683 92.1773 47.9691 92.4779Z" fill="#4D4D4D"/>
<path d="M19.9062 97.2946H48.431V97.8225H19.9062V97.2946Z" fill="#4D4D4D"/>
<defs>
<clipPath id="clip0_1643_26277">
<rect width="10" height="10" fill="white" transform="translate(19.9062 19)"/>
</clipPath>
</defs>
</svg>
