<svg width="24" height="24" viewBox="0 0 24 24" fill="none" xmlns="http://www.w3.org/2000/svg">
<g clip-path="url(#clip0_1643_26268)">
<path d="M17.625 4.41797H6.375C6.27554 4.41797 6.18016 4.45748 6.10983 4.5278C6.03951 4.59813 6 4.69351 6 4.79297V6.19922H6.75V5.16797H11.625V19.1255H10.425V19.8755H13.5862V19.1255H12.375V5.16797H17.25V6.19922H18V4.79297C18 4.69351 17.9605 4.59813 17.8902 4.5278C17.8198 4.45748 17.7245 4.41797 17.625 4.41797Z" fill="black"/>
<path d="M22.875 3.375C22.9745 3.375 23.0698 3.33549 23.1402 3.26516C23.2105 3.19484 23.25 3.09946 23.25 3V1.5C23.25 1.40054 23.2105 1.30516 23.1402 1.23483C23.0698 1.16451 22.9745 1.125 22.875 1.125H21.375C21.2755 1.125 21.1802 1.16451 21.1098 1.23483C21.0395 1.30516 21 1.40054 21 1.5V1.875H13.5V1.125C13.5 1.02554 13.4605 0.930161 13.3902 0.859835C13.3198 0.789509 13.2245 0.75 13.125 0.75H10.875C10.7755 0.75 10.6802 0.789509 10.6098 0.859835C10.5395 0.930161 10.5 1.02554 10.5 1.125V1.875H3V1.5C3 1.40054 2.96049 1.30516 2.89016 1.23483C2.81984 1.16451 2.72446 1.125 2.625 1.125H1.125C1.02554 1.125 0.930161 1.16451 0.859835 1.23483C0.789509 1.30516 0.75 1.40054 0.75 1.5V3C0.75 3.09946 0.789509 3.19484 0.859835 3.26516C0.930161 3.33549 1.02554 3.375 1.125 3.375H1.5V21H1.125C1.02554 21 0.930161 21.0395 0.859835 21.1098C0.789509 21.1802 0.75 21.2755 0.75 21.375V22.875C0.75 22.9745 0.789509 23.0698 0.859835 23.1402C0.930161 23.2105 1.02554 23.25 1.125 23.25H2.625C2.72446 23.25 2.81984 23.2105 2.89016 23.1402C2.96049 23.0698 3 22.9745 3 22.875V22.5H10.5V23.25C10.5 23.3495 10.5395 23.4448 10.6098 23.5152C10.6802 23.5855 10.7755 23.625 10.875 23.625H13.125C13.2245 23.625 13.3198 23.5855 13.3902 23.5152C13.4605 23.4448 13.5 23.3495 13.5 23.25V22.5H21V22.875C21 22.9745 21.0395 23.0698 21.1098 23.1402C21.1802 23.2105 21.2755 23.25 21.375 23.25H22.875C22.9745 23.25 23.0698 23.2105 23.1402 23.1402C23.2105 23.0698 23.25 22.9745 23.25 22.875V21.375C23.25 21.2755 23.2105 21.1802 23.1402 21.1098C23.0698 21.0395 22.9745 21 22.875 21H22.5V3.375H22.875ZM21.75 1.875H22.5V2.625H21.75V1.875ZM11.25 2.25V1.5H12.75V3H11.25V2.31375H10.875V2.25H11.25ZM1.5 1.875H2.25V2.625H1.5V1.875ZM2.25 22.5H1.5V21.75H2.25V22.5ZM12.75 22.875H11.25V22.1887H10.875V22.125H11.25V21.375H12.75V22.875ZM22.5 22.5H21.75V21.75H22.5V22.5ZM21.75 21H21.375C21.2755 21 21.1802 21.0395 21.1098 21.1098C21.0395 21.1802 21 21.2755 21 21.375V21.75H13.5V21C13.5 20.9005 13.4605 20.8052 13.3902 20.7348C13.3198 20.6645 13.2245 20.625 13.125 20.625H10.875C10.7755 20.625 10.6802 20.6645 10.6098 20.7348C10.5395 20.8052 10.5 20.9005 10.5 21V21.75H3V21.375C3 21.2755 2.96049 21.1802 2.89016 21.1098C2.81984 21.0395 2.72446 21 2.625 21H2.25V3.375H2.625C2.72446 3.375 2.81984 3.33549 2.89016 3.26516C2.96049 3.19484 3 3.09946 3 3V2.625H10.5V3.375C10.5 3.47446 10.5395 3.56984 10.6098 3.64016C10.6802 3.71049 10.7755 3.75 10.875 3.75H13.125C13.2245 3.75 13.3198 3.71049 13.3902 3.64016C13.4605 3.56984 13.5 3.47446 13.5 3.375V2.625H21V3C21 3.09946 21.0395 3.19484 21.1098 3.26516C21.1802 3.33549 21.2755 3.375 21.375 3.375H21.75V21Z" fill="black"/>
</g>
<defs>
<clipPath id="clip0_1643_26268">
<rect width="24" height="24" fill="white"/>
</clipPath>
</defs>
</svg>
