<svg width="240" height="203" viewBox="0 0 240 203" fill="none" xmlns="http://www.w3.org/2000/svg">
<rect width="240" height="202.396" fill="#F1F1F1"/>
<rect x="8.84766" y="8.84789" width="222.304" height="30.9677" rx="8" fill="white"/>
<path d="M36.87 22.1582V21.5533H41.0929V22.1582H39.3223V27.1838H38.6405V22.1582H36.87ZM43.7388 22.9609V23.5108H41.5504V22.9609H43.7388ZM42.1883 21.9492H42.8371V25.9741C42.8371 26.1574 42.8637 26.2949 42.9168 26.3865C42.9718 26.4763 43.0414 26.5368 43.1258 26.568C43.2119 26.5973 43.3026 26.612 43.3979 26.612C43.4694 26.612 43.5281 26.6083 43.5739 26.601C43.6197 26.5918 43.6564 26.5845 43.6839 26.579L43.8158 27.1618C43.7718 27.1783 43.7104 27.1948 43.6316 27.2113C43.5528 27.2296 43.4529 27.2388 43.332 27.2388C43.1487 27.2388 42.9691 27.1994 42.7931 27.1206C42.619 27.0418 42.4742 26.9217 42.3587 26.7604C42.2451 26.5991 42.1883 26.3957 42.1883 26.1501V21.9492ZM46.2302 27.2718C45.8489 27.2718 45.5144 27.1811 45.2267 26.9996C44.9408 26.8182 44.7172 26.5643 44.5559 26.2381C44.3964 25.9118 44.3167 25.5306 44.3167 25.0944C44.3167 24.6545 44.3964 24.2705 44.5559 23.9424C44.7172 23.6144 44.9408 23.3596 45.2267 23.1781C45.5144 22.9967 45.8489 22.906 46.2302 22.906C46.6114 22.906 46.945 22.9967 47.2309 23.1781C47.5187 23.3596 47.7423 23.6144 47.9017 23.9424C48.063 24.2705 48.1437 24.6545 48.1437 25.0944C48.1437 25.5306 48.063 25.9118 47.9017 26.2381C47.7423 26.5643 47.5187 26.8182 47.2309 26.9996C46.945 27.1811 46.6114 27.2718 46.2302 27.2718ZM46.2302 26.689C46.5198 26.689 46.758 26.6147 46.945 26.4663C47.1319 26.3178 47.2703 26.1226 47.3601 25.8807C47.4499 25.6387 47.4948 25.3766 47.4948 25.0944C47.4948 24.8121 47.4499 24.5491 47.3601 24.3053C47.2703 24.0616 47.1319 23.8645 46.945 23.7142C46.758 23.564 46.5198 23.4888 46.2302 23.4888C45.9406 23.4888 45.7023 23.564 45.5154 23.7142C45.3284 23.8645 45.19 24.0616 45.1002 24.3053C45.0104 24.5491 44.9655 24.8121 44.9655 25.0944C44.9655 25.3766 45.0104 25.6387 45.1002 25.8807C45.19 26.1226 45.3284 26.3178 45.5154 26.4663C45.7023 26.6147 45.9406 26.689 46.2302 26.689ZM48.9793 27.1838V22.9609H49.6061V23.6208H49.6611C49.749 23.3953 49.8911 23.2203 50.0872 23.0957C50.2833 22.9692 50.5188 22.906 50.7938 22.906C51.0724 22.906 51.3042 22.9692 51.4893 23.0957C51.6763 23.2203 51.822 23.3953 51.9265 23.6208H51.9705C52.0786 23.4027 52.2408 23.2295 52.4571 23.1012C52.6733 22.971 52.9327 22.906 53.2351 22.906C53.6127 22.906 53.9215 23.0242 54.1616 23.2606C54.4017 23.4952 54.5218 23.8609 54.5218 24.3576V27.1838H53.8729V24.3576C53.8729 24.046 53.7877 23.8233 53.6173 23.6895C53.4468 23.5557 53.2461 23.4888 53.0152 23.4888C52.7183 23.4888 52.4882 23.5786 52.3251 23.7582C52.162 23.936 52.0804 24.1615 52.0804 24.4346V27.1838H51.4206V24.2916C51.4206 24.0515 51.3427 23.8581 51.1869 23.7115C51.0311 23.563 50.8304 23.4888 50.5848 23.4888C50.4162 23.4888 50.2586 23.5337 50.1119 23.6235C49.9672 23.7133 49.8499 23.838 49.76 23.9974C49.6721 24.155 49.6281 24.3374 49.6281 24.5445V27.1838H48.9793Z" fill="#353FD7"/>
<path d="M36.4961 28.7234H41.3119V29.2513H36.4961V28.7234ZM41.3085 28.7234H43.9689V29.2513H41.3085V28.7234ZM43.9208 28.7234H55.1156V29.2513H43.9208V28.7234Z" fill="#353FD7"/>
<path d="M25.2021 28.4784C27.6199 28.4784 29.58 26.5184 29.58 24.1006C29.58 21.6827 27.6199 19.7227 25.2021 19.7227C22.7843 19.7227 20.8242 21.6827 20.8242 24.1006C20.8242 26.5184 22.7843 28.4784 25.2021 28.4784Z" stroke="#353FD7" stroke-width="0.829493" stroke-linecap="round" stroke-linejoin="round"/>
<path d="M30.0408 28.9393L29.1191 28.0176" stroke="#353FD7" stroke-width="0.829493" stroke-linecap="round" stroke-linejoin="round"/>
<rect x="8.84766" y="43.1337" width="222.304" height="30.9677" rx="8" fill="white"/>
<path d="M25.3408 58.6544C25.3408 59.2482 25.2335 59.7614 25.0191 60.194C24.8046 60.6265 24.5105 60.9601 24.1366 61.1947C23.7627 61.4293 23.3356 61.5466 22.8554 61.5466C22.3752 61.5466 21.9482 61.4293 21.5743 61.1947C21.2004 60.9601 20.9062 60.6265 20.6917 60.194C20.4773 59.7614 20.3701 59.2482 20.3701 58.6544C20.3701 58.0605 20.4773 57.5473 20.6917 57.1148C20.9062 56.6822 21.2004 56.3487 21.5743 56.1141C21.9482 55.8795 22.3752 55.7622 22.8554 55.7622C23.3356 55.7622 23.7627 55.8795 24.1366 56.1141C24.5105 56.3487 24.8046 56.6822 25.0191 57.1148C25.2335 57.5473 25.3408 58.0605 25.3408 58.6544ZM24.6809 58.6544C24.6809 58.1668 24.5994 57.7554 24.4362 57.42C24.275 57.0846 24.0559 56.8307 23.7792 56.6584C23.5042 56.4861 23.1963 56.4 22.8554 56.4C22.5145 56.4 22.2057 56.4861 21.9289 56.6584C21.654 56.8307 21.435 57.0846 21.2718 57.42C21.1105 57.7554 21.0299 58.1668 21.0299 58.6544C21.0299 59.1419 21.1105 59.5534 21.2718 59.8888C21.435 60.2242 21.654 60.4781 21.9289 60.6504C22.2057 60.8226 22.5145 60.9088 22.8554 60.9088C23.1963 60.9088 23.5042 60.8226 23.7792 60.6504C24.0559 60.4781 24.275 60.2242 24.4362 59.8888C24.5994 59.5534 24.6809 59.1419 24.6809 58.6544ZM27.839 61.5576C27.4871 61.5576 27.1764 61.4687 26.907 61.2909C26.6375 61.1113 26.4268 60.8584 26.2746 60.5321C26.1225 60.2041 26.0464 59.8164 26.0464 59.3692C26.0464 58.9256 26.1225 58.5407 26.2746 58.2145C26.4268 57.8883 26.6384 57.6362 26.9097 57.4585C27.181 57.2807 27.4944 57.1918 27.85 57.1918C28.1249 57.1918 28.3421 57.2376 28.5015 57.3292C28.6628 57.419 28.7856 57.5217 28.8699 57.6372C28.9561 57.7508 29.023 57.8443 29.0706 57.9176H29.1256V55.8391H29.7744V61.4696H29.1476V60.8208H29.0706C29.023 60.8978 28.9552 60.9949 28.8672 61.1122C28.7792 61.2277 28.6537 61.3313 28.4905 61.4229C28.3274 61.5127 28.1102 61.5576 27.839 61.5576ZM27.9269 60.9748C28.1872 60.9748 28.4071 60.907 28.5868 60.7713C28.7664 60.6339 28.9029 60.4442 28.9964 60.2022C29.0899 59.9585 29.1366 59.6771 29.1366 59.3582C29.1366 59.0429 29.0908 58.7671 28.9991 58.5307C28.9075 58.2924 28.7719 58.1073 28.5923 57.9753C28.4126 57.8415 28.1909 57.7746 27.9269 57.7746C27.652 57.7746 27.4229 57.8452 27.2396 57.9863C27.0582 58.1256 26.9216 58.3153 26.83 58.5554C26.7402 58.7937 26.6953 59.0613 26.6953 59.3582C26.6953 59.6588 26.7411 59.9319 26.8327 60.1775C26.9262 60.4212 27.0637 60.6155 27.2451 60.7603C27.4284 60.9033 27.6557 60.9748 27.9269 60.9748ZM32.4926 61.5576C32.1407 61.5576 31.83 61.4687 31.5606 61.2909C31.2912 61.1113 31.0804 60.8584 30.9283 60.5321C30.7761 60.2041 30.7001 59.8164 30.7001 59.3692C30.7001 58.9256 30.7761 58.5407 30.9283 58.2145C31.0804 57.8883 31.2921 57.6362 31.5633 57.4585C31.8346 57.2807 32.148 57.1918 32.5036 57.1918C32.7785 57.1918 32.9957 57.2376 33.1552 57.3292C33.3165 57.419 33.4393 57.5217 33.5236 57.6372C33.6097 57.7508 33.6766 57.8443 33.7243 57.9176H33.7792V55.8391H34.4281V61.4696H33.8012V60.8208H33.7243C33.6766 60.8978 33.6088 60.9949 33.5208 61.1122C33.4328 61.2277 33.3073 61.3313 33.1442 61.4229C32.981 61.5127 32.7638 61.5576 32.4926 61.5576ZM32.5806 60.9748C32.8408 60.9748 33.0608 60.907 33.2404 60.7713C33.42 60.6339 33.5566 60.4442 33.65 60.2022C33.7435 59.9585 33.7902 59.6771 33.7902 59.3582C33.7902 59.0429 33.7444 58.7671 33.6528 58.5307C33.5611 58.2924 33.4255 58.1073 33.2459 57.9753C33.0663 57.8415 32.8445 57.7746 32.5806 57.7746C32.3056 57.7746 32.0765 57.8452 31.8932 57.9863C31.7118 58.1256 31.5752 58.3153 31.4836 58.5554C31.3938 58.7937 31.3489 59.0613 31.3489 59.3582C31.3489 59.6588 31.3947 59.9319 31.4864 60.1775C31.5798 60.4212 31.7173 60.6155 31.8987 60.7603C32.082 60.9033 32.3093 60.9748 32.5806 60.9748Z" fill="#4D4D4D"/>
<path d="M37.3543 56.444V55.8391H41.5772V56.444H39.8066V61.4696H39.1248V56.444H37.3543ZM43.0354 58.9293V61.4696H42.3866V55.8391H43.0354V57.9066H43.0904C43.1894 57.6885 43.3379 57.5153 43.5358 57.387C43.7356 57.2568 44.0014 57.1918 44.3331 57.1918C44.6209 57.1918 44.8729 57.2495 45.0891 57.365C45.3054 57.4786 45.4731 57.6537 45.5923 57.8901C45.7132 58.1247 45.7737 58.4234 45.7737 58.7864V61.4696H45.1249V58.8303C45.1249 58.4949 45.0378 58.2356 44.8637 58.0523C44.6914 57.8672 44.4522 57.7746 44.1462 57.7746C43.9335 57.7746 43.7429 57.8195 43.5743 57.9093C43.4075 57.9991 43.2755 58.1302 43.1784 58.3025C43.0831 58.4748 43.0354 58.6837 43.0354 58.9293ZM48.5214 61.5576C48.1402 61.5576 47.8057 61.4669 47.5179 61.2854C47.232 61.104 47.0084 60.8501 46.8471 60.5239C46.6877 60.1976 46.6079 59.8164 46.6079 59.3802C46.6079 58.9403 46.6877 58.5563 46.8471 58.2282C47.0084 57.9002 47.232 57.6454 47.5179 57.464C47.8057 57.2825 48.1402 57.1918 48.5214 57.1918C48.9026 57.1918 49.2362 57.2825 49.5221 57.464C49.8099 57.6454 50.0335 57.9002 50.193 58.2282C50.3543 58.5563 50.4349 58.9403 50.4349 59.3802C50.4349 59.8164 50.3543 60.1976 50.193 60.5239C50.0335 60.8501 49.8099 61.104 49.5221 61.2854C49.2362 61.4669 48.9026 61.5576 48.5214 61.5576ZM48.5214 60.9748C48.811 60.9748 49.0493 60.9005 49.2362 60.7521C49.4232 60.6036 49.5616 60.4084 49.6514 60.1665C49.7412 59.9245 49.7861 59.6625 49.7861 59.3802C49.7861 59.0979 49.7412 58.8349 49.6514 58.5912C49.5616 58.3474 49.4232 58.1504 49.2362 58.0001C49.0493 57.8498 48.811 57.7746 48.5214 57.7746C48.2318 57.7746 47.9936 57.8498 47.8066 58.0001C47.6197 58.1504 47.4813 58.3474 47.3915 58.5912C47.3017 58.8349 47.2568 59.0979 47.2568 59.3802C47.2568 59.6625 47.3017 59.9245 47.3915 60.1665C47.4813 60.4084 47.6197 60.6036 47.8066 60.7521C47.9936 60.9005 48.2318 60.9748 48.5214 60.9748ZM51.2705 61.4696V57.2468H51.8973V57.9066H51.9523C52.0403 57.6811 52.1823 57.5061 52.3784 57.3815C52.5746 57.255 52.8101 57.1918 53.085 57.1918C53.3636 57.1918 53.5955 57.255 53.7806 57.3815C53.9675 57.5061 54.1132 57.6811 54.2177 57.9066H54.2617C54.3698 57.6885 54.532 57.5153 54.7483 57.387C54.9646 57.2568 55.2239 57.1918 55.5264 57.1918C55.9039 57.1918 56.2128 57.31 56.4529 57.5464C56.693 57.781 56.813 58.1467 56.813 58.6434V61.4696H56.1642V58.6434C56.1642 58.3318 56.079 58.1091 55.9085 57.9753C55.738 57.8415 55.5374 57.7746 55.3064 57.7746C55.0095 57.7746 54.7795 57.8644 54.6163 58.044C54.4532 58.2218 54.3717 58.4473 54.3717 58.7204V61.4696H53.7118V58.5774C53.7118 58.3373 53.6339 58.1439 53.4782 57.9973C53.3224 57.8489 53.1217 57.7746 52.8761 57.7746C52.7074 57.7746 52.5498 57.8195 52.4032 57.9093C52.2584 57.9991 52.1411 58.1238 52.0513 58.2832C51.9633 58.4409 51.9193 58.6232 51.9193 58.8303V61.4696H51.2705ZM59.0872 61.5686C58.8196 61.5686 58.5767 61.5182 58.3586 61.4174C58.1405 61.3148 57.9673 61.1672 57.839 60.9748C57.7107 60.7805 57.6465 60.5459 57.6465 60.271C57.6465 60.029 57.6942 59.8329 57.7895 59.6826C57.8848 59.5305 58.0122 59.4114 58.1716 59.3252C58.3311 59.2391 58.5071 59.1749 58.6995 59.1328C58.8938 59.0888 59.089 59.0539 59.2851 59.0283C59.5417 58.9953 59.7497 58.9706 59.9092 58.9541C60.0705 58.9357 60.1878 58.9055 60.2611 58.8633C60.3362 58.8212 60.3738 58.7479 60.3738 58.6434V58.6214C60.3738 58.3501 60.2996 58.1394 60.1511 57.9891C60.0045 57.8388 59.7818 57.7636 59.483 57.7636C59.1733 57.7636 58.9304 57.8314 58.7545 57.9671C58.5785 58.1027 58.4548 58.2475 58.3833 58.4015L57.7675 58.1815C57.8775 57.9249 58.0241 57.7251 58.2074 57.5822C58.3925 57.4374 58.5941 57.3366 58.8122 57.2798C59.0322 57.2211 59.2484 57.1918 59.4611 57.1918C59.5967 57.1918 59.7525 57.2083 59.9284 57.2413C60.1062 57.2724 60.2776 57.3375 60.4425 57.4365C60.6093 57.5354 60.7477 57.6848 60.8577 57.8846C60.9676 58.0844 61.0226 58.352 61.0226 58.6874V61.4696H60.3738V60.8978H60.3408C60.2968 60.9894 60.2235 61.0875 60.1209 61.192C60.0182 61.2964 59.8817 61.3853 59.7112 61.4586C59.5408 61.532 59.3328 61.5686 59.0872 61.5686ZM59.1861 60.9858C59.4427 60.9858 59.659 60.9354 59.835 60.8346C60.0127 60.7337 60.1465 60.6036 60.2363 60.4442C60.328 60.2847 60.3738 60.117 60.3738 59.941V59.3472C60.3463 59.3802 60.2858 59.4104 60.1924 59.4379C60.1007 59.4636 59.9944 59.4865 59.8734 59.5067C59.7543 59.525 59.6379 59.5415 59.5243 59.5561C59.4125 59.569 59.3218 59.58 59.2521 59.5891C59.0835 59.6111 58.9259 59.6469 58.7792 59.6964C58.6344 59.744 58.5171 59.8164 58.4273 59.9135C58.3394 60.0089 58.2954 60.139 58.2954 60.3039C58.2954 60.5294 58.3788 60.6998 58.5455 60.8153C58.7142 60.9289 58.9277 60.9858 59.1861 60.9858ZM65.0432 58.1925L64.4604 58.3575C64.4237 58.2603 64.3697 58.1659 64.2982 58.0743C64.2285 57.9808 64.1332 57.9038 64.0123 57.8434C63.8913 57.7829 63.7364 57.7526 63.5476 57.7526C63.2892 57.7526 63.0739 57.8122 62.9016 57.9313C62.7311 58.0486 62.6459 58.198 62.6459 58.3795C62.6459 58.5407 62.7045 58.6681 62.8218 58.7616C62.9391 58.8551 63.1224 58.933 63.3717 58.9953L63.9985 59.1493C64.3761 59.2409 64.6574 59.3811 64.8425 59.5699C65.0277 59.7568 65.1202 59.9979 65.1202 60.2929C65.1202 60.5349 65.0506 60.7512 64.9113 60.9418C64.7738 61.1324 64.5814 61.2827 64.3339 61.3927C64.0865 61.5026 63.7987 61.5576 63.4707 61.5576C63.0399 61.5576 62.6835 61.4641 62.4012 61.2772C62.1189 61.0902 61.9402 60.8171 61.8651 60.4579L62.4809 60.3039C62.5396 60.5312 62.6505 60.7017 62.8136 60.8153C62.9785 60.9289 63.1939 60.9858 63.4597 60.9858C63.7621 60.9858 64.0022 60.9216 64.18 60.7933C64.3596 60.6632 64.4494 60.5074 64.4494 60.3259C64.4494 60.1793 64.3981 60.0565 64.2954 59.9575C64.1928 59.8567 64.0352 59.7816 63.8226 59.7321L63.1188 59.5671C62.732 59.4755 62.4479 59.3335 62.2665 59.141C62.0869 58.9467 61.9971 58.7039 61.9971 58.4125C61.9971 58.1742 62.064 57.9634 62.1978 57.7801C62.3334 57.5968 62.5176 57.453 62.7504 57.3485C62.985 57.244 63.2507 57.1918 63.5476 57.1918C63.9655 57.1918 64.2936 57.2834 64.5319 57.4667C64.772 57.65 64.9424 57.8919 65.0432 58.1925Z" fill="#353FD7"/>
<path d="M36.9804 63.0092H65.5051V63.5371H36.9804V63.0092Z" fill="#353FD7"/>
<path d="M216.039 58.2495L219.062 55.2265" stroke="#353FD7" stroke-width="0.829493" stroke-linecap="round" stroke-linejoin="round"/>
<path d="M219.357 56.7011V54.9316H217.588" stroke="#353FD7" stroke-width="0.829493" stroke-linecap="round" stroke-linejoin="round"/>
<path d="M215.3 54.9316H214.563C212.72 54.9316 211.982 55.6689 211.982 57.5122V59.7242C211.982 61.5675 212.72 62.3048 214.563 62.3048H216.775C218.618 62.3048 219.356 61.5675 219.356 59.7242V58.9869" stroke="#353FD7" stroke-width="0.829493" stroke-linecap="round" stroke-linejoin="round"/>
<rect x="8.84766" y="77.4193" width="222.304" height="30.9677" rx="8" fill="white"/>
<path d="M20.2821 90.7296V90.1248H24.505V90.7296H22.7344V95.7552H22.0526V90.7296H20.2821ZM25.9633 93.2149V95.7552H25.3144V90.1248H25.9633V92.1922H26.0183C26.1172 91.9741 26.2657 91.8009 26.4636 91.6726C26.6634 91.5425 26.9292 91.4774 27.2609 91.4774C27.5487 91.4774 27.8007 91.5351 28.017 91.6506C28.2332 91.7642 28.401 91.9393 28.5201 92.1757C28.6411 92.4103 28.7015 92.7091 28.7015 93.072V95.7552H28.0527V93.116C28.0527 92.7805 27.9657 92.5212 27.7915 92.3379C27.6192 92.1528 27.3801 92.0602 27.074 92.0602C26.8614 92.0602 26.6707 92.1051 26.5021 92.1949C26.3353 92.2848 26.2034 92.4158 26.1062 92.5881C26.0109 92.7604 25.9633 92.9693 25.9633 93.2149ZM31.4492 95.8432C31.068 95.8432 30.7335 95.7525 30.4458 95.571C30.1598 95.3896 29.9362 95.1357 29.7749 94.8095C29.6155 94.4833 29.5358 94.102 29.5358 93.6658C29.5358 93.2259 29.6155 92.8419 29.7749 92.5139C29.9362 92.1858 30.1598 91.931 30.4458 91.7496C30.7335 91.5681 31.068 91.4774 31.4492 91.4774C31.8305 91.4774 32.164 91.5681 32.45 91.7496C32.7377 91.931 32.9613 92.1858 33.1208 92.5139C33.2821 92.8419 33.3627 93.2259 33.3627 93.6658C33.3627 94.102 33.2821 94.4833 33.1208 94.8095C32.9613 95.1357 32.7377 95.3896 32.45 95.571C32.164 95.7525 31.8305 95.8432 31.4492 95.8432ZM31.4492 95.2604C31.7388 95.2604 31.9771 95.1862 32.164 95.0377C32.351 94.8892 32.4894 94.694 32.5792 94.4521C32.669 94.2102 32.7139 93.9481 32.7139 93.6658C32.7139 93.3835 32.669 93.1205 32.5792 92.8768C32.4894 92.633 32.351 92.436 32.164 92.2857C31.9771 92.1354 31.7388 92.0602 31.4492 92.0602C31.1597 92.0602 30.9214 92.1354 30.7344 92.2857C30.5475 92.436 30.4091 92.633 30.3193 92.8768C30.2295 93.1205 30.1846 93.3835 30.1846 93.6658C30.1846 93.9481 30.2295 94.2102 30.3193 94.4521C30.4091 94.694 30.5475 94.8892 30.7344 95.0377C30.9214 95.1862 31.1597 95.2604 31.4492 95.2604ZM34.1983 95.7552V91.5324H34.8251V92.1922H34.8801C34.9681 91.9668 35.1102 91.7917 35.3063 91.6671C35.5024 91.5406 35.7379 91.4774 36.0128 91.4774C36.2914 91.4774 36.5233 91.5406 36.7084 91.6671C36.8953 91.7917 37.0411 91.9668 37.1455 92.1922H37.1895C37.2977 91.9741 37.4599 91.8009 37.6761 91.6726C37.8924 91.5425 38.1518 91.4774 38.4542 91.4774C38.8317 91.4774 39.1406 91.5956 39.3807 91.832C39.6208 92.0666 39.7408 92.4323 39.7408 92.929V95.7552H39.092V92.929C39.092 92.6174 39.0068 92.3947 38.8363 92.2609C38.6659 92.1271 38.4652 92.0602 38.2342 92.0602C37.9373 92.0602 37.7073 92.15 37.5442 92.3297C37.381 92.5074 37.2995 92.7329 37.2995 93.006V95.7552H36.6397V92.863C36.6397 92.6229 36.5618 92.4296 36.406 92.2829C36.2502 92.1345 36.0495 92.0602 35.8039 92.0602C35.6353 92.0602 35.4776 92.1051 35.331 92.1949C35.1862 92.2848 35.0689 92.4094 34.9791 92.5688C34.8911 92.7265 34.8471 92.9088 34.8471 93.116V95.7552H34.1983ZM42.015 95.8542C41.7474 95.8542 41.5045 95.8038 41.2864 95.703C41.0683 95.6004 40.8951 95.4528 40.7668 95.2604C40.6385 95.0661 40.5744 94.8315 40.5744 94.5566C40.5744 94.3146 40.622 94.1185 40.7173 93.9682C40.8126 93.8161 40.94 93.697 41.0995 93.6108C41.2589 93.5247 41.4349 93.4605 41.6273 93.4184C41.8216 93.3744 42.0168 93.3396 42.2129 93.3139C42.4695 93.2809 42.6775 93.2562 42.837 93.2397C42.9983 93.2213 43.1156 93.1911 43.1889 93.1489C43.2641 93.1068 43.3016 93.0335 43.3016 92.929V92.907C43.3016 92.6357 43.2274 92.425 43.0789 92.2747C42.9323 92.1244 42.7096 92.0492 42.4109 92.0492C42.1011 92.0492 41.8583 92.1171 41.6823 92.2527C41.5064 92.3883 41.3826 92.5331 41.3112 92.6871L40.6953 92.4671C40.8053 92.2105 40.9519 92.0107 41.1352 91.8678C41.3203 91.723 41.5219 91.6222 41.74 91.5654C41.96 91.5067 42.1763 91.4774 42.3889 91.4774C42.5245 91.4774 42.6803 91.4939 42.8563 91.5269C43.034 91.558 43.2054 91.6231 43.3704 91.7221C43.5372 91.821 43.6755 91.9704 43.7855 92.1702C43.8955 92.37 43.9505 92.6376 43.9505 92.973V95.7552H43.3016V95.1834H43.2686C43.2247 95.275 43.1513 95.3731 43.0487 95.4776C42.9461 95.582 42.8095 95.6709 42.6391 95.7443C42.4686 95.8176 42.2606 95.8542 42.015 95.8542ZM42.1139 95.2714C42.3705 95.2714 42.5868 95.221 42.7628 95.1202C42.9406 95.0194 43.0744 94.8892 43.1642 94.7298C43.2558 94.5703 43.3016 94.4026 43.3016 94.2267V93.6328C43.2741 93.6658 43.2137 93.696 43.1202 93.7235C43.0285 93.7492 42.9222 93.7721 42.8013 93.7923C42.6821 93.8106 42.5657 93.8271 42.4521 93.8418C42.3403 93.8546 42.2496 93.8656 42.1799 93.8748C42.0113 93.8967 41.8537 93.9325 41.7071 93.982C41.5623 94.0296 41.445 94.102 41.3552 94.1992C41.2672 94.2945 41.2232 94.4246 41.2232 94.5896C41.2232 94.815 41.3066 94.9855 41.4734 95.1009C41.642 95.2146 41.8555 95.2714 42.1139 95.2714ZM47.9711 92.4781L47.3882 92.6431C47.3516 92.5459 47.2975 92.4515 47.226 92.3599C47.1564 92.2664 47.0611 92.1894 46.9401 92.129C46.8191 92.0685 46.6643 92.0382 46.4755 92.0382C46.217 92.0382 46.0017 92.0978 45.8294 92.2169C45.6589 92.3342 45.5737 92.4836 45.5737 92.6651C45.5737 92.8264 45.6324 92.9537 45.7497 93.0472C45.867 93.1407 46.0502 93.2186 46.2995 93.2809L46.9263 93.4349C47.3039 93.5265 47.5853 93.6667 47.7704 93.8555C47.9555 94.0425 48.048 94.2835 48.048 94.5786C48.048 94.8205 47.9784 95.0368 47.8391 95.2274C47.7016 95.418 47.5092 95.5683 47.2618 95.6783C47.0143 95.7882 46.7266 95.8432 46.3985 95.8432C45.9678 95.8432 45.6113 95.7498 45.329 95.5628C45.0468 95.3759 44.8681 95.1028 44.7929 94.7435L45.4088 94.5896C45.4674 94.8168 45.5783 94.9873 45.7414 95.1009C45.9064 95.2146 46.1217 95.2714 46.3875 95.2714C46.6899 95.2714 46.93 95.2072 47.1078 95.0789C47.2874 94.9488 47.3772 94.793 47.3772 94.6116C47.3772 94.4649 47.3259 94.3421 47.2233 94.2432C47.1206 94.1423 46.963 94.0672 46.7504 94.0177L46.0466 93.8528C45.6599 93.7611 45.3758 93.6191 45.1943 93.4266C45.0147 93.2323 44.9249 92.9895 44.9249 92.6981C44.9249 92.4598 44.9918 92.249 45.1256 92.0657C45.2612 91.8824 45.4454 91.7386 45.6782 91.6341C45.9128 91.5296 46.1785 91.4774 46.4755 91.4774C46.8934 91.4774 47.2214 91.569 47.4597 91.7523C47.6998 91.9356 47.8703 92.1775 47.9711 92.4781Z" fill="#353FD7"/>
<path d="M53.1359 90.1248H53.8177V94.1497C53.8177 94.5089 53.7517 94.8141 53.6197 95.0652C53.4878 95.3163 53.3017 95.5069 53.0616 95.637C52.8215 95.7672 52.5384 95.8322 52.2121 95.8322C51.9042 95.8322 51.6302 95.7763 51.3901 95.6645C51.15 95.5509 50.9612 95.3896 50.8237 95.1807C50.6863 94.9717 50.6175 94.7234 50.6175 94.4356H51.2884C51.2884 94.5951 51.3278 94.7344 51.4066 94.8535C51.4872 94.9708 51.5972 95.0624 51.7365 95.1284C51.8758 95.1944 52.0343 95.2274 52.2121 95.2274C52.4082 95.2274 52.575 95.1862 52.7125 95.1037C52.8499 95.0212 52.9544 94.9002 53.0259 94.7408C53.0992 94.5795 53.1359 94.3824 53.1359 94.1497V90.1248ZM56.7118 95.8432C56.3049 95.8432 55.9539 95.7534 55.6588 95.5738C55.3656 95.3923 55.1392 95.1394 54.9797 94.815C54.8221 94.4888 54.7433 94.1094 54.7433 93.6768C54.7433 93.2443 54.8221 92.863 54.9797 92.5331C55.1392 92.2014 55.361 91.9429 55.6451 91.7578C55.931 91.5709 56.2646 91.4774 56.6458 91.4774C56.8657 91.4774 57.0829 91.514 57.2974 91.5874C57.5118 91.6607 57.707 91.7798 57.883 91.9448C58.0589 92.1079 58.1991 92.3242 58.3036 92.5936C58.4081 92.863 58.4603 93.1948 58.4603 93.5888V93.8638H55.2052V93.3029H57.8005C57.8005 93.0646 57.7528 92.852 57.6575 92.6651C57.5641 92.4781 57.4303 92.3306 57.2561 92.2224C57.0839 92.1143 56.8804 92.0602 56.6458 92.0602C56.3874 92.0602 56.1638 92.1244 55.975 92.2527C55.788 92.3791 55.6442 92.5441 55.5433 92.7476C55.4425 92.951 55.3921 93.1691 55.3921 93.4019V93.7758C55.3921 94.0947 55.4471 94.365 55.5571 94.5868C55.6689 94.8068 55.8238 94.9745 56.0217 95.0899C56.2197 95.2036 56.4497 95.2604 56.7118 95.2604C56.8822 95.2604 57.0362 95.2366 57.1737 95.1889C57.313 95.1394 57.433 95.0661 57.5338 94.969C57.6346 94.87 57.7125 94.7472 57.7675 94.6006L58.3943 94.7765C58.3284 94.9891 58.2175 95.1761 58.0617 95.3374C57.9059 95.4968 57.7134 95.6215 57.4843 95.7113C57.2552 95.7992 56.9977 95.8432 56.7118 95.8432ZM61.173 91.5324V92.0822H58.8966V91.5324H61.173ZM59.5784 95.7552V90.9495C59.5784 90.7076 59.6352 90.506 59.7488 90.3447C59.8625 90.1834 60.01 90.0624 60.1915 89.9818C60.3729 89.9011 60.5645 89.8608 60.7661 89.8608C60.9255 89.8608 61.0557 89.8737 61.1565 89.8993C61.2573 89.925 61.3324 89.9488 61.3819 89.9708L61.195 90.5316C61.162 90.5206 61.1161 90.5069 61.0575 90.4904C61.0007 90.4739 60.9255 90.4657 60.8321 90.4657C60.6176 90.4657 60.4627 90.5197 60.3674 90.6279C60.274 90.736 60.2272 90.8945 60.2272 91.1035V95.7552H59.5784ZM63.8079 91.5324V92.0822H61.5316V91.5324H63.8079ZM62.2134 95.7552V90.9495C62.2134 90.7076 62.2702 90.506 62.3838 90.3447C62.4975 90.1834 62.645 90.0624 62.8265 89.9818C63.0079 89.9011 63.1994 89.8608 63.4011 89.8608C63.5605 89.8608 63.6906 89.8737 63.7915 89.8993C63.8923 89.925 63.9674 89.9488 64.0169 89.9708L63.8299 90.5316C63.7969 90.5206 63.7511 90.5069 63.6925 90.4904C63.6357 90.4739 63.5605 90.4657 63.467 90.4657C63.2526 90.4657 63.0977 90.5197 63.0024 90.6279C62.9089 90.736 62.8622 90.8945 62.8622 91.1035V95.7552H62.2134ZM66.1591 95.8432C65.7522 95.8432 65.4012 95.7534 65.1061 95.5738C64.8128 95.3923 64.5865 95.1394 64.427 94.815C64.2694 94.4888 64.1906 94.1094 64.1906 93.6768C64.1906 93.2443 64.2694 92.863 64.427 92.5331C64.5865 92.2014 64.8083 91.9429 65.0923 91.7578C65.3783 91.5709 65.7118 91.4774 66.0931 91.4774C66.313 91.4774 66.5302 91.514 66.7447 91.5874C66.9591 91.6607 67.1543 91.7798 67.3303 91.9448C67.5062 92.1079 67.6464 92.3242 67.7509 92.5936C67.8554 92.863 67.9076 93.1948 67.9076 93.5888V93.8638H64.6525V93.3029H67.2478C67.2478 93.0646 67.2001 92.852 67.1048 92.6651C67.0113 92.4781 66.8775 92.3306 66.7034 92.2224C66.5311 92.1143 66.3277 92.0602 66.0931 92.0602C65.8346 92.0602 65.611 92.1244 65.4223 92.2527C65.2353 92.3791 65.0914 92.5441 64.9906 92.7476C64.8898 92.951 64.8394 93.1691 64.8394 93.4019V93.7758C64.8394 94.0947 64.8944 94.365 65.0044 94.5868C65.1162 94.8068 65.271 94.9745 65.469 95.0899C65.6669 95.2036 65.897 95.2604 66.1591 95.2604C66.3295 95.2604 66.4835 95.2366 66.6209 95.1889C66.7602 95.1394 66.8803 95.0661 66.9811 94.969C67.0819 94.87 67.1598 94.7472 67.2148 94.6006L67.8416 94.7765C67.7756 94.9891 67.6647 95.1761 67.509 95.3374C67.3532 95.4968 67.1607 95.6215 66.9316 95.7113C66.7025 95.7992 66.445 95.8432 66.1591 95.8432ZM68.7397 95.7552V91.5324H69.3666V92.1702H69.4106C69.4875 91.9613 69.6268 91.7917 69.8285 91.6616C70.0301 91.5315 70.2573 91.4664 70.5103 91.4664C70.5579 91.4664 70.6175 91.4673 70.689 91.4691C70.7605 91.471 70.8145 91.4737 70.8512 91.4774V92.1372C70.8292 92.1317 70.7788 92.1235 70.7 92.1125C70.623 92.0996 70.5414 92.0932 70.4553 92.0932C70.25 92.0932 70.0667 92.1363 69.9054 92.2224C69.746 92.3068 69.6195 92.4241 69.526 92.5743C69.4344 92.7228 69.3886 92.8923 69.3886 93.083V95.7552H68.7397ZM74.4567 92.4781L73.8738 92.6431C73.8372 92.5459 73.7831 92.4515 73.7116 92.3599C73.642 92.2664 73.5466 92.1894 73.4257 92.129C73.3047 92.0685 73.1498 92.0382 72.9611 92.0382C72.7026 92.0382 72.4873 92.0978 72.315 92.2169C72.1445 92.3342 72.0593 92.4836 72.0593 92.6651C72.0593 92.8264 72.1179 92.9537 72.2352 93.0472C72.3525 93.1407 72.5358 93.2186 72.7851 93.2809L73.4119 93.4349C73.7895 93.5265 74.0708 93.6667 74.256 93.8555C74.4411 94.0425 74.5336 94.2835 74.5336 94.5786C74.5336 94.8205 74.464 95.0368 74.3247 95.2274C74.1872 95.418 73.9948 95.5683 73.7473 95.6783C73.4999 95.7882 73.2122 95.8432 72.8841 95.8432C72.4534 95.8432 72.0969 95.7498 71.8146 95.5628C71.5323 95.3759 71.3536 95.1028 71.2785 94.7435L71.8943 94.5896C71.953 94.8168 72.0639 94.9873 72.227 95.1009C72.392 95.2146 72.6073 95.2714 72.8731 95.2714C73.1755 95.2714 73.4156 95.2072 73.5934 95.0789C73.773 94.9488 73.8628 94.793 73.8628 94.6116C73.8628 94.4649 73.8115 94.3421 73.7089 94.2432C73.6062 94.1423 73.4486 94.0672 73.236 94.0177L72.5322 93.8528C72.1454 93.7611 71.8613 93.6191 71.6799 93.4266C71.5003 93.2323 71.4105 92.9895 71.4105 92.6981C71.4105 92.4598 71.4774 92.249 71.6112 92.0657C71.7468 91.8824 71.931 91.7386 72.1638 91.6341C72.3984 91.5296 72.6641 91.4774 72.9611 91.4774C73.3789 91.4774 73.707 91.569 73.9453 91.7523C74.1854 91.9356 74.3558 92.1775 74.4567 92.4781ZM77.071 95.8432C76.6898 95.8432 76.3553 95.7525 76.0675 95.571C75.7816 95.3896 75.558 95.1357 75.3967 94.8095C75.2373 94.4833 75.1575 94.102 75.1575 93.6658C75.1575 93.2259 75.2373 92.8419 75.3967 92.5139C75.558 92.1858 75.7816 91.931 76.0675 91.7496C76.3553 91.5681 76.6898 91.4774 77.071 91.4774C77.4522 91.4774 77.7858 91.5681 78.0717 91.7496C78.3595 91.931 78.5831 92.1858 78.7426 92.5139C78.9039 92.8419 78.9845 93.2259 78.9845 93.6658C78.9845 94.102 78.9039 94.4833 78.7426 94.8095C78.5831 95.1357 78.3595 95.3896 78.0717 95.571C77.7858 95.7525 77.4522 95.8432 77.071 95.8432ZM77.071 95.2604C77.3606 95.2604 77.5989 95.1862 77.7858 95.0377C77.9728 94.8892 78.1112 94.694 78.201 94.4521C78.2908 94.2102 78.3357 93.9481 78.3357 93.6658C78.3357 93.3835 78.2908 93.1205 78.201 92.8768C78.1112 92.633 77.9728 92.436 77.7858 92.2857C77.5989 92.1354 77.3606 92.0602 77.071 92.0602C76.7814 92.0602 76.5432 92.1354 76.3562 92.2857C76.1693 92.436 76.0309 92.633 75.9411 92.8768C75.8513 93.1205 75.8063 93.3835 75.8063 93.6658C75.8063 93.9481 75.8513 94.2102 75.9411 94.4521C76.0309 94.694 76.1693 94.8892 76.3562 95.0377C76.5432 95.1862 76.7814 95.2604 77.071 95.2604ZM80.4689 93.2149V95.7552H79.8201V91.5324H80.4469V92.1922H80.5019C80.6009 91.9778 80.7512 91.8055 80.9528 91.6753C81.1544 91.5434 81.4147 91.4774 81.7336 91.4774C82.0195 91.4774 82.2697 91.536 82.4841 91.6533C82.6986 91.7688 82.8654 91.9448 82.9845 92.1812C83.1036 92.4158 83.1632 92.7127 83.1632 93.072V95.7552H82.5144V93.116C82.5144 92.7842 82.4282 92.5258 82.2559 92.3407C82.0837 92.1537 81.8472 92.0602 81.5466 92.0602C81.3395 92.0602 81.1544 92.1051 80.9913 92.1949C80.83 92.2848 80.7026 92.4158 80.6091 92.5881C80.5157 92.7604 80.4689 92.9693 80.4689 93.2149ZM84.6669 95.7992C84.5312 95.7992 84.4148 95.7507 84.3177 95.6535C84.2206 95.5564 84.172 95.44 84.172 95.3044C84.172 95.1687 84.2206 95.0524 84.3177 94.9552C84.4148 94.8581 84.5312 94.8095 84.6669 94.8095C84.8025 94.8095 84.9189 94.8581 85.016 94.9552C85.1131 95.0524 85.1617 95.1687 85.1617 95.3044C85.1617 95.3942 85.1388 95.4767 85.093 95.5518C85.049 95.6269 84.9894 95.6874 84.9143 95.7333C84.841 95.7772 84.7585 95.7992 84.6669 95.7992ZM84.6669 92.6651C84.5312 92.6651 84.4148 92.6165 84.3177 92.5194C84.2206 92.4222 84.172 92.3058 84.172 92.1702C84.172 92.0346 84.2206 91.9182 84.3177 91.821C84.4148 91.7239 84.5312 91.6753 84.6669 91.6753C84.8025 91.6753 84.9189 91.7239 85.016 91.821C85.1131 91.9182 85.1617 92.0346 85.1617 92.1702C85.1617 92.26 85.1388 92.3425 85.093 92.4176C85.049 92.4928 84.9894 92.5533 84.9143 92.5991C84.841 92.6431 84.7585 92.6651 84.6669 92.6651ZM87.9738 90.7296V90.1248H92.1967V90.7296H90.4262V95.7552H89.7444V90.7296H87.9738ZM93.655 93.2149V95.7552H93.0062V90.1248H93.655V92.1922H93.71C93.809 91.9741 93.9574 91.8009 94.1554 91.6726C94.3551 91.5425 94.6209 91.4774 94.9527 91.4774C95.2404 91.4774 95.4924 91.5351 95.7087 91.6506C95.925 91.7642 96.0927 91.9393 96.2118 92.1757C96.3328 92.4103 96.3933 92.7091 96.3933 93.072V95.7552H95.7444V93.116C95.7444 92.7805 95.6574 92.5212 95.4833 92.3379C95.311 92.1528 95.0718 92.0602 94.7657 92.0602C94.5531 92.0602 94.3625 92.1051 94.1939 92.1949C94.0271 92.2848 93.8951 92.4158 93.798 92.5881C93.7027 92.7604 93.655 92.9693 93.655 93.2149ZM99.196 95.8432C98.7891 95.8432 98.4381 95.7534 98.143 95.5738C97.8497 95.3923 97.6234 95.1394 97.4639 94.815C97.3063 94.4888 97.2275 94.1094 97.2275 93.6768C97.2275 93.2443 97.3063 92.863 97.4639 92.5331C97.6234 92.2014 97.8452 91.9429 98.1292 91.7578C98.4152 91.5709 98.7487 91.4774 99.13 91.4774C99.3499 91.4774 99.5671 91.514 99.7816 91.5874C99.996 91.6607 100.191 91.7798 100.367 91.9448C100.543 92.1079 100.683 92.3242 100.788 92.5936C100.892 92.863 100.944 93.1948 100.944 93.5888V93.8638H97.6894V93.3029H100.285C100.285 93.0646 100.237 92.852 100.142 92.6651C100.048 92.4781 99.9144 92.3306 99.7403 92.2224C99.568 92.1143 99.3646 92.0602 99.13 92.0602C98.8715 92.0602 98.6479 92.1244 98.4592 92.2527C98.2722 92.3791 98.1283 92.5441 98.0275 92.7476C97.9267 92.951 97.8763 93.1691 97.8763 93.4019V93.7758C97.8763 94.0947 97.9313 94.365 98.0413 94.5868C98.1531 94.8068 98.3079 94.9745 98.5059 95.0899C98.7038 95.2036 98.9339 95.2604 99.196 95.2604C99.3664 95.2604 99.5204 95.2366 99.6578 95.1889C99.7971 95.1394 99.9172 95.0661 100.018 94.969C100.119 94.87 100.197 94.7472 100.252 94.6006L100.879 94.7765C100.813 94.9891 100.702 95.1761 100.546 95.3374C100.39 95.4968 100.198 95.6215 99.9685 95.7113C99.7394 95.7992 99.4819 95.8432 99.196 95.8432ZM104.118 95.7552H103.403L105.471 90.1248H106.175L108.242 95.7552H107.527L105.845 91.0155H105.801L104.118 95.7552ZM104.382 93.5558H107.263V94.1607H104.382V93.5558ZM108.876 95.7552V91.5324H109.503V92.1702H109.547C109.624 91.9613 109.763 91.7917 109.965 91.6616C110.167 91.5315 110.394 91.4664 110.647 91.4664C110.694 91.4664 110.754 91.4673 110.825 91.4691C110.897 91.471 110.951 91.4737 110.988 91.4774V92.1372C110.966 92.1317 110.915 92.1235 110.836 92.1125C110.759 92.0996 110.678 92.0932 110.592 92.0932C110.387 92.0932 110.203 92.1363 110.042 92.2224C109.882 92.3068 109.756 92.4241 109.663 92.5743C109.571 92.7228 109.525 92.8923 109.525 93.083V95.7552H108.876ZM113.703 91.5324V92.0822H111.515V91.5324H113.703ZM112.152 90.5206H112.801V94.5456C112.801 94.7289 112.828 94.8663 112.881 94.958C112.936 95.0478 113.006 95.1083 113.09 95.1394C113.176 95.1687 113.267 95.1834 113.362 95.1834C113.434 95.1834 113.492 95.1797 113.538 95.1724C113.584 95.1632 113.621 95.1559 113.648 95.1504L113.78 95.7333C113.736 95.7498 113.675 95.7662 113.596 95.7827C113.517 95.8011 113.417 95.8102 113.296 95.8102C113.113 95.8102 112.933 95.7708 112.757 95.692C112.583 95.6132 112.438 95.4932 112.323 95.3319C112.209 95.1706 112.152 94.9671 112.152 94.7215V90.5206ZM118.262 95.8432C117.881 95.8432 117.547 95.7525 117.259 95.571C116.973 95.3896 116.749 95.1357 116.588 94.8095C116.429 94.4833 116.349 94.102 116.349 93.6658C116.349 93.2259 116.429 92.8419 116.588 92.5139C116.749 92.1858 116.973 91.931 117.259 91.7496C117.547 91.5681 117.881 91.4774 118.262 91.4774C118.644 91.4774 118.977 91.5681 119.263 91.7496C119.551 91.931 119.774 92.1858 119.934 92.5139C120.095 92.8419 120.176 93.2259 120.176 93.6658C120.176 94.102 120.095 94.4833 119.934 94.8095C119.774 95.1357 119.551 95.3896 119.263 95.571C118.977 95.7525 118.644 95.8432 118.262 95.8432ZM118.262 95.2604C118.552 95.2604 118.79 95.1862 118.977 95.0377C119.164 94.8892 119.302 94.694 119.392 94.4521C119.482 94.2102 119.527 93.9481 119.527 93.6658C119.527 93.3835 119.482 93.1205 119.392 92.8768C119.302 92.633 119.164 92.436 118.977 92.2857C118.79 92.1354 118.552 92.0602 118.262 92.0602C117.973 92.0602 117.734 92.1354 117.548 92.2857C117.361 92.436 117.222 92.633 117.132 92.8768C117.043 93.1205 116.998 93.3835 116.998 93.6658C116.998 93.9481 117.043 94.2102 117.132 94.4521C117.222 94.694 117.361 94.8892 117.548 95.0377C117.734 95.1862 117.973 95.2604 118.262 95.2604ZM122.892 91.5324V92.0822H120.616V91.5324H122.892ZM121.297 95.7552V90.9495C121.297 90.7076 121.354 90.506 121.468 90.3447C121.581 90.1834 121.729 90.0624 121.91 89.9818C122.092 89.9011 122.283 89.8608 122.485 89.8608C122.644 89.8608 122.775 89.8737 122.875 89.8993C122.976 89.925 123.051 89.9488 123.101 89.9708L122.914 90.5316C122.881 90.5206 122.835 90.5069 122.776 90.4904C122.72 90.4739 122.644 90.4657 122.551 90.4657C122.337 90.4657 122.182 90.5197 122.086 90.6279C121.993 90.736 121.946 90.8945 121.946 91.1035V95.7552H121.297ZM125.757 95.7552V90.1248H127.659C128.101 90.1248 128.462 90.2045 128.743 90.3639C129.025 90.5216 129.234 90.7351 129.369 91.0045C129.505 91.2739 129.573 91.5745 129.573 91.9063C129.573 92.238 129.505 92.5395 129.369 92.8108C129.236 93.082 129.029 93.2983 128.748 93.4596C128.468 93.6191 128.108 93.6988 127.67 93.6988H126.307V93.094H127.648C127.951 93.094 128.194 93.0417 128.377 92.9373C128.56 92.8328 128.693 92.6916 128.776 92.5139C128.86 92.3342 128.902 92.1317 128.902 91.9063C128.902 91.6808 128.86 91.4792 128.776 91.3014C128.693 91.1237 128.559 90.9844 128.374 90.8835C128.189 90.7809 127.944 90.7296 127.637 90.7296H126.439V95.7552H125.757ZM132.099 95.8432C131.717 95.8432 131.383 95.7525 131.095 95.571C130.809 95.3896 130.586 95.1357 130.424 94.8095C130.265 94.4833 130.185 94.102 130.185 93.6658C130.185 93.2259 130.265 92.8419 130.424 92.5139C130.586 92.1858 130.809 91.931 131.095 91.7496C131.383 91.5681 131.717 91.4774 132.099 91.4774C132.48 91.4774 132.813 91.5681 133.099 91.7496C133.387 91.931 133.611 92.1858 133.77 92.5139C133.931 92.8419 134.012 93.2259 134.012 93.6658C134.012 94.102 133.931 94.4833 133.77 94.8095C133.611 95.1357 133.387 95.3896 133.099 95.571C132.813 95.7525 132.48 95.8432 132.099 95.8432ZM132.099 95.2604C132.388 95.2604 132.626 95.1862 132.813 95.0377C133 94.8892 133.139 94.694 133.229 94.4521C133.318 94.2102 133.363 93.9481 133.363 93.6658C133.363 93.3835 133.318 93.1205 133.229 92.8768C133.139 92.633 133 92.436 132.813 92.2857C132.626 92.1354 132.388 92.0602 132.099 92.0602C131.809 92.0602 131.571 92.1354 131.384 92.2857C131.197 92.436 131.058 92.633 130.969 92.8768C130.879 93.1205 130.834 93.3835 130.834 93.6658C130.834 93.9481 130.879 94.2102 130.969 94.4521C131.058 94.694 131.197 94.8892 131.384 95.0377C131.571 95.1862 131.809 95.2604 132.099 95.2604ZM135.661 95.7552L134.374 91.5324H135.056L135.969 94.7655H136.013L136.914 91.5324H137.607L138.498 94.7545H138.542L139.455 91.5324H140.137L138.85 95.7552H138.212L137.288 92.5111H137.222L136.299 95.7552H135.661ZM142.466 95.8432C142.06 95.8432 141.709 95.7534 141.413 95.5738C141.12 95.3923 140.894 95.1394 140.734 94.815C140.577 94.4888 140.498 94.1094 140.498 93.6768C140.498 93.2443 140.577 92.863 140.734 92.5331C140.894 92.2014 141.116 91.9429 141.4 91.7578C141.686 91.5709 142.019 91.4774 142.4 91.4774C142.62 91.4774 142.838 91.514 143.052 91.5874C143.266 91.6607 143.462 91.7798 143.638 91.9448C143.814 92.1079 143.954 92.3242 144.058 92.5936C144.163 92.863 144.215 93.1948 144.215 93.5888V93.8638H140.96V93.3029H143.555C143.555 93.0646 143.507 92.852 143.412 92.6651C143.319 92.4781 143.185 92.3306 143.011 92.2224C142.838 92.1143 142.635 92.0602 142.4 92.0602C142.142 92.0602 141.918 92.1244 141.73 92.2527C141.543 92.3791 141.399 92.5441 141.298 92.7476C141.197 92.951 141.147 93.1691 141.147 93.4019V93.7758C141.147 94.0947 141.202 94.365 141.312 94.5868C141.424 94.8068 141.578 94.9745 141.776 95.0899C141.974 95.2036 142.204 95.2604 142.466 95.2604C142.637 95.2604 142.791 95.2366 142.928 95.1889C143.068 95.1394 143.188 95.0661 143.288 94.969C143.389 94.87 143.467 94.7472 143.522 94.6006L144.149 94.7765C144.083 94.9891 143.972 95.1761 143.816 95.3374C143.661 95.4968 143.468 95.6215 143.239 95.7113C143.01 95.7992 142.752 95.8432 142.466 95.8432ZM145.047 95.7552V91.5324H145.674V92.1702H145.718C145.795 91.9613 145.934 91.7917 146.136 91.6616C146.337 91.5315 146.565 91.4664 146.818 91.4664C146.865 91.4664 146.925 91.4673 146.996 91.4691C147.068 91.471 147.122 91.4737 147.159 91.4774V92.1372C147.137 92.1317 147.086 92.1235 147.007 92.1125C146.93 92.0996 146.849 92.0932 146.763 92.0932C146.557 92.0932 146.374 92.1363 146.213 92.2224C146.053 92.3068 145.927 92.4241 145.833 92.5743C145.742 92.7228 145.696 92.8923 145.696 93.083V95.7552H145.047Z" fill="#4D4D4D"/>
<path d="M19.9082 97.2948H48.276V97.8227H19.9082V97.2948Z" fill="#353FD7"/>
<path d="M216.039 92.5352L219.062 89.5121" stroke="#353FD7" stroke-width="0.829493" stroke-linecap="round" stroke-linejoin="round"/>
<path d="M219.357 90.9868V89.2172H217.588" stroke="#353FD7" stroke-width="0.829493" stroke-linecap="round" stroke-linejoin="round"/>
<path d="M215.302 89.2172H214.565C212.722 89.2172 211.984 89.9545 211.984 91.7978V94.0098C211.984 95.8531 212.722 96.5904 214.565 96.5904H216.777C218.62 96.5904 219.358 95.8531 219.358 94.0098V93.2725" stroke="#353FD7" stroke-width="0.829493" stroke-linecap="round" stroke-linejoin="round"/>
</svg>
