<svg xmlns="http://www.w3.org/2000/svg" width="16" height="16" viewBox="0 0 16 16" fill="none">
  <path d="M12.4476 12.4468L13.9276 11.7068V9.8535M9.48089 6.52016L8.00089 7.26016L9.48089 6.52016ZM8.00089 7.26016L6.52088 6.52016L8.00089 7.26016ZM8.00089 7.26016V9.1135V7.26016ZM13.9276 4.2935L12.4476 5.0335L13.9276 4.2935ZM13.9276 4.2935L12.4476 3.5535L13.9276 4.2935ZM13.9276 4.2935V6.14683V4.2935ZM9.48089 2.0735L8.00089 1.3335L6.52088 2.0735H9.48089ZM2.07422 4.2935L3.55422 3.5535L2.07422 4.2935ZM2.07422 4.2935L3.55422 5.0335L2.07422 4.2935ZM2.07422 4.2935V6.14683V4.2935ZM8.00089 14.6668L6.52088 13.9268L8.00089 14.6668ZM8.00089 14.6668L9.48089 13.9268L8.00089 14.6668ZM8.00089 14.6668V12.8135V14.6668ZM3.55422 12.4468L2.07422 11.7068V9.8535L3.55422 12.4468Z" stroke="#4D4D4D" stroke-linecap="round" stroke-linejoin="round"/>
</svg>