<svg xmlns="http://www.w3.org/2000/svg" width="14" height="15" viewBox="0 0 14 15" fill="none">
  <path d="M9.33268 8.02496V10.475C9.33268 12.5166 8.51602 13.3333 6.47435 13.3333H4.02435C1.98268 13.3333 1.16602 12.5166 1.16602 10.475V8.02496C1.16602 5.98329 1.98268 5.16663 4.02435 5.16663H6.47435C8.51602 5.16663 9.33268 5.98329 9.33268 8.02496Z" stroke="black" stroke-width="1.5" stroke-linecap="round" stroke-linejoin="round"/>
  <path d="M12.8327 4.52496V6.97496C12.8327 9.01663 12.016 9.83329 9.97435 9.83329H9.33268V8.02496C9.33268 5.98329 8.51602 5.16663 6.47435 5.16663H4.66602V4.52496C4.66602 2.48329 5.48268 1.66663 7.52435 1.66663H9.97435C12.016 1.66663 12.8327 2.48329 12.8327 4.52496Z" stroke="black" stroke-width="1.5" stroke-linecap="round" stroke-linejoin="round"/>
</svg>