<svg xmlns="http://www.w3.org/2000/svg" width="17" height="17" viewBox="0 0 17 16" fill="none">
  <rect x="0.138672" width="16" height="16" rx="4" fill="currentColor"/>
  <rect x="2.53906" y="1.59998" width="12.8" height="12.8" rx="2.5" ry="2.5" fill="#F43232"/>
  <path d="M12.1142 10.2138C12.1553 10.2516 12.1395 10.3903 12.1048 10.466C12.0354 10.6142 11.8934 10.6551 11.7483 10.6488C11.272 10.6331 10.8714 10.4313 10.5371 10.1539C10.0387 9.73456 9.52451 9.33101 9.0482 8.88648C9.04505 8.88963 9.03874 8.89279 9.03559 8.89594C8.95357 8.99682 8.87156 9.09771 8.78639 9.19545C8.24384 9.81338 7.67605 10.4029 7.00733 10.8884C6.81807 11.0272 6.57834 11.0618 6.38907 10.8443C6.21558 10.6488 6.19666 10.3966 6.34176 10.2075C6.60672 9.86697 6.86854 9.52017 7.17766 9.22067C7.55619 8.85495 7.95679 8.51131 8.35424 8.16451C8.31639 8.12037 8.27854 8.07939 8.24384 8.03525C8.1429 7.95328 8.04196 7.87131 7.94418 7.78618C7.32592 7.24392 6.73605 6.67643 6.25028 6.00806C6.11149 5.8189 6.07679 5.57929 6.29444 5.39013C6.49001 5.21673 6.74236 5.19781 6.93162 5.34284C7.2723 5.60766 7.61928 5.86934 7.91894 6.1783C8.29746 6.56924 8.65075 6.97909 9.0072 7.38894C9.63176 6.49988 10.5024 5.83151 11.2184 5.02441C11.2563 4.98343 11.3951 4.99919 11.4708 5.03387C11.619 5.10323 11.66 5.2451 11.6537 5.39013C11.6379 5.86619 11.4361 6.26658 11.1585 6.60077C10.7358 7.10205 10.3289 7.61909 9.88096 8.0983C10.7074 8.71308 11.3477 9.53279 12.1142 10.2138Z" fill="white"/>
</svg>
