<svg xmlns="http://www.w3.org/2000/svg" width="18" height="18" viewBox="0 0 18 18" fill="none">
  <g clip-path="url(#clip0_1664_33573)">
    <path d="M8.99887 0.187378C4.02975 0.187378 0 4.23288 0 9.22338C0 13.2149 2.5785 16.6011 6.156 17.797C6.606 17.8803 6.77025 17.6013 6.77025 17.3616C6.77025 17.1468 6.76237 16.5786 6.75787 15.8249C4.25475 16.3705 3.726 14.6133 3.726 14.6133C3.31763 13.5693 2.727 13.2914 2.727 13.2914C1.90913 12.7311 2.78775 12.7424 2.78775 12.7424C3.69112 12.8065 4.16587 13.6739 4.16587 13.6739C4.96913 15.0543 6.273 14.656 6.786 14.4243C6.867 13.8404 7.09987 13.4421 7.3575 13.216C5.3595 12.9876 3.258 12.2125 3.258 8.75088C3.258 7.76425 3.609 6.95763 4.185 6.32538C4.09163 6.097 3.78338 5.17788 4.27275 3.93475C4.27275 3.93475 5.02875 3.69175 6.74775 4.86063C7.4655 4.66038 8.235 4.56025 9.00113 4.55688C9.765 4.56138 10.5356 4.66038 11.2545 4.86175C12.9724 3.69288 13.7272 3.93588 13.7272 3.93588C14.2177 5.18013 13.9095 6.09813 13.8172 6.3265C14.3944 6.95875 14.742 7.76538 14.742 8.752C14.742 12.2226 12.6382 12.9865 10.6335 13.2104C10.9564 13.4894 11.2444 14.0406 11.2444 14.8833C11.2444 16.0915 11.2331 17.0658 11.2331 17.3616C11.2331 17.6035 11.3951 17.8848 11.8519 17.7959C15.4237 16.5989 18 13.2138 18 9.22338C18 4.23288 13.9703 0.187378 8.99887 0.187378Z" fill="currentColor"/>
  </g>
  <defs>
    <clipPath id="clip0_1664_33573">
      <rect width="18" height="18" fill="white"/>
    </clipPath>
  </defs>
</svg>