<svg xmlns="http://www.w3.org/2000/svg" width="16" height="16" viewBox="0 0 16 16" fill="none">
  <path d="M4.99935 2.6665H10.9993C11.4127 2.6665 11.7793 2.67984 12.106 2.7265C13.8593 2.91984 14.3327 3.7465 14.3327 5.99984V9.99984C14.3327 12.2532 13.8593 13.0798 12.106 13.2732C11.7793 13.3198 11.4127 13.3332 10.9993 13.3332H4.99935C4.58602 13.3332 4.21935 13.3198 3.89268 13.2732C2.13935 13.0798 1.66602 12.2532 1.66602 9.99984V5.99984C1.66602 3.7465 2.13935 2.91984 3.89268 2.7265C4.21935 2.67984 4.58602 2.6665 4.99935 2.6665Z" stroke="#4D4D4D" stroke-linecap="round" stroke-linejoin="round"/>
  <path d="M9 6.6665H11.3333" stroke="#4D4D4D" stroke-linecap="round" stroke-linejoin="round"/>
  <path d="M4.66602 10.3335H4.67935H11.3327" stroke="#4D4D4D" stroke-linecap="round" stroke-linejoin="round"/>
  <path d="M6.73006 6.66683H6.73605" stroke="#4D4D4D" stroke-linecap="round" stroke-linejoin="round"/>
  <path d="M4.73006 6.66683H4.73605" stroke="#4D4D4D" stroke-linecap="round" stroke-linejoin="round"/>
</svg>