<svg width="18" height="18" viewBox="0 0 18 18" fill="none" xmlns="http://www.w3.org/2000/svg">
<g clip-path="url(#clip0_1664_33578)">
<path d="M15.5455 0H2.45455C1.80356 0 1.17924 0.258603 0.71892 0.71892C0.258603 1.17924 0 1.80356 0 2.45455L0 15.5455C0 16.1964 0.258603 16.8208 0.71892 17.2811C1.17924 17.7414 1.80356 18 2.45455 18H15.5455C16.1964 18 16.8208 17.7414 17.2811 17.2811C17.7414 16.8208 18 16.1964 18 15.5455V2.45455C18 1.80356 17.7414 1.17924 17.2811 0.71892C16.8208 0.258603 16.1964 0 15.5455 0ZM6.13636 14.2445C6.1365 14.2945 6.12678 14.3439 6.10777 14.3901C6.08877 14.4362 6.06084 14.4782 6.02559 14.5135C5.99035 14.5488 5.94847 14.5769 5.90237 14.596C5.85627 14.6152 5.80685 14.625 5.75693 14.625H4.14C4.09 14.6251 4.04047 14.6154 3.99425 14.5963C3.94803 14.5772 3.90603 14.5492 3.87068 14.5139C3.83532 14.4785 3.8073 14.4365 3.78823 14.3903C3.76916 14.3441 3.75941 14.2945 3.75955 14.2445V7.46591C3.75955 7.36501 3.79963 7.26824 3.87098 7.19689C3.94233 7.12554 4.0391 7.08545 4.14 7.08545H5.75693C5.85766 7.08573 5.95416 7.12593 6.02529 7.19725C6.09642 7.26857 6.13636 7.36518 6.13636 7.46591V14.2445ZM4.94795 6.44318C4.64454 6.44318 4.34794 6.35321 4.09566 6.18464C3.84338 6.01607 3.64675 5.77648 3.53064 5.49616C3.41453 5.21584 3.38415 4.90739 3.44334 4.6098C3.50253 4.31222 3.64864 4.03887 3.86319 3.82432C4.07773 3.60978 4.35108 3.46367 4.64867 3.40448C4.94625 3.34528 5.25471 3.37566 5.53503 3.49178C5.81534 3.60789 6.05494 3.80452 6.2235 4.0568C6.39207 4.30908 6.48205 4.60568 6.48205 4.90909C6.48205 5.31596 6.32042 5.70616 6.03272 5.99386C5.74502 6.28155 5.35482 6.44318 4.94795 6.44318ZM14.5882 14.2711C14.5883 14.3171 14.5794 14.3627 14.5618 14.4051C14.5443 14.4476 14.5185 14.4863 14.486 14.5188C14.4535 14.5513 14.4149 14.577 14.3724 14.5946C14.3299 14.6121 14.2844 14.621 14.2384 14.6209H12.4998C12.4538 14.621 12.4083 14.6121 12.3658 14.5946C12.3233 14.577 12.2847 14.5513 12.2521 14.5188C12.2196 14.4863 12.1939 14.4476 12.1763 14.4051C12.1588 14.3627 12.1499 14.3171 12.15 14.2711V11.0956C12.15 10.621 12.2891 9.01739 10.9094 9.01739C9.84068 9.01739 9.62284 10.1148 9.57989 10.6077V14.2752C9.5799 14.3671 9.54375 14.4553 9.47925 14.5208C9.41476 14.5862 9.3271 14.6237 9.23523 14.625H7.55591C7.51002 14.625 7.46459 14.6159 7.42221 14.5984C7.37983 14.5808 7.34134 14.555 7.30894 14.5225C7.27655 14.49 7.25088 14.4514 7.23341 14.409C7.21595 14.3666 7.20702 14.3211 7.20716 14.2752V7.43625C7.20702 7.39037 7.21595 7.34491 7.23341 7.30247C7.25088 7.26004 7.27655 7.22148 7.30894 7.18898C7.34134 7.15649 7.37983 7.13071 7.42221 7.11312C7.46459 7.09553 7.51002 7.08648 7.55591 7.08648H9.23523C9.32799 7.08648 9.41696 7.12333 9.48255 7.18892C9.54815 7.25452 9.585 7.34348 9.585 7.43625V8.02739C9.98182 7.43114 10.5699 6.97295 11.8248 6.97295C14.6045 6.97295 14.5861 9.56864 14.5861 10.9943L14.5882 14.2711Z" fill="currentColor"/>
</g>
<defs>
<clipPath id="clip0_1664_33578">
<rect width="18" height="18" fill="white"/>
</clipPath>
</defs>
</svg>
