<svg xmlns="http://www.w3.org/2000/svg" width="16" height="16" viewBox="0 0 16 16" fill="none">
  <path d="M4.18742 14.6668C5.33617 14.6668 6.26742 13.7356 6.26742 12.5868C6.26742 11.4381 5.33617 10.5068 4.18742 10.5068C3.03867 10.5068 2.10742 11.4381 2.10742 12.5868C2.10742 13.7356 3.03867 14.6668 4.18742 14.6668Z" stroke="#4D4D4D" stroke-linecap="round" stroke-linejoin="round"/>
  <path d="M13.8942 11.2001V3.06673C13.8942 1.3334 12.8076 1.0934 11.7076 1.3934L7.54758 2.52673C6.78758 2.7334 6.26758 3.3334 6.26758 4.20006V5.64673V6.62006V12.5801" stroke="#4D4D4D" stroke-linecap="round" stroke-linejoin="round"/>
  <path d="M11.8124 13.2801C12.9612 13.2801 13.8924 12.3489 13.8924 11.2001C13.8924 10.0514 12.9612 9.12012 11.8124 9.12012C10.6637 9.12012 9.73242 10.0514 9.73242 11.2001C9.73242 12.3489 10.6637 13.2801 11.8124 13.2801Z" stroke="#4D4D4D" stroke-linecap="round" stroke-linejoin="round"/>
  <path d="M6.26758 6.3466L13.8942 4.2666" stroke="#4D4D4D" stroke-linecap="round" stroke-linejoin="round"/>
</svg>