<svg xmlns="http://www.w3.org/2000/svg" width="32" height="32" viewBox="0 0 32 32" fill="none">
  <path d="M15.3268 28.0003C22.3224 28.0003 27.9935 22.3293 27.9935 15.3337C27.9935 8.33805 22.3224 2.66699 15.3268 2.66699C8.33122 2.66699 2.66016 8.33805 2.66016 15.3337C2.66016 22.3293 8.33122 28.0003 15.3268 28.0003Z" fill="#F1F1F1"/>
  <path d="M28.4014 29.3337C28.1614 29.3337 27.9214 29.2404 27.748 29.0671L25.268 26.5871C24.908 26.2271 24.908 25.6404 25.268 25.2671C25.628 24.9071 26.2147 24.9071 26.588 25.2671L29.068 27.7471C29.428 28.1071 29.428 28.6937 29.068 29.0671C28.8814 29.2404 28.6414 29.3337 28.4014 29.3337Z" fill="#F1F1F1"/>
</svg>