<svg xmlns="http://www.w3.org/2000/svg" width="24" height="24" viewBox="0 0 24 24" fill="none">
  <path d="M11.7647 17.9429C11.5731 17.9031 10.6748 18.0579 9.81866 17.5965C9.64761 17.5043 9.43443 17.5683 9.34227 17.7392C9.25016 17.9101 9.31405 18.1234 9.48496 18.2156C9.5579 18.2548 9.63102 18.2906 9.70429 18.3231C8.98691 18.6381 8.40735 19.2069 8.06877 20.0476C7.74754 19.2612 7.19699 18.6632 6.43255 18.3221C7.21218 17.9742 7.75457 17.3658 8.06877 16.5967C8.13608 16.7629 8.19749 16.8783 8.19983 16.8831C8.28805 17.056 8.49993 17.1246 8.6729 17.0364C8.84587 16.9481 8.91449 16.7363 8.82622 16.5633C8.82519 16.5586 8.39952 15.7817 8.44982 14.7477C8.47855 14.5539 8.34271 14.3612 8.13557 14.3231C7.94704 14.286 7.73816 14.4056 7.6896 14.6173C7.66447 14.7271 7.84635 16.6258 6.46841 17.5068C5.57137 18.0791 4.55296 17.9012 4.36321 17.9443C3.9621 18.0356 3.96243 18.6088 4.36321 18.7C4.55062 18.7423 5.58899 18.5649 6.48632 19.149C7.81888 20.0172 7.67183 21.8655 7.68074 21.9483C7.68074 22.3819 8.30029 22.4795 8.43702 22.0565C8.48329 21.9124 8.28871 20.0793 9.60444 19.1783C10.4713 18.5843 11.5456 18.7276 11.7325 18.7065C12.1603 18.6585 12.1986 18.0347 11.7647 17.9429Z" fill="#4D4D4D"/>
  <path d="M23.6225 11.0835C22.9797 11.0121 18.3976 11.6557 16.3951 7.4512C15.3423 5.23964 15.6123 3.23475 15.555 2.98322C15.5033 2.75709 15.2895 2.62162 15.0851 2.64773C14.852 2.67412 14.6973 2.86716 14.6973 3.0615V3.97387C14.5385 7.11037 13.1111 9.78037 10.1138 10.7202C8.38299 11.2631 6.88036 11.0286 6.59982 11.09C6.14991 11.1921 6.14654 11.8382 6.6046 11.94C6.99685 12.0228 9.948 11.5447 12.2398 13.4479C12.3892 13.572 12.6109 13.5514 12.735 13.4021C12.859 13.2526 12.8385 13.031 12.6891 12.9069C11.9027 12.2538 10.9602 11.7871 9.88172 11.516C12.7211 10.8008 14.4638 8.77406 15.1309 5.93503C15.7924 8.75667 17.5208 10.8014 20.3907 11.513C17.5494 12.224 15.7826 14.2491 15.1268 17.0803C14.8827 16.0426 14.4755 15.0494 13.8633 14.182C13.7513 14.0233 13.5319 13.9855 13.3733 14.0974C13.2145 14.2094 13.1768 14.4288 13.2887 14.5875C13.5045 14.8932 13.6987 15.2263 13.8661 15.5776C14.8594 17.6643 14.6839 19.7873 14.6983 19.9921C14.7353 20.5152 15.5888 20.5416 15.5621 19.8947C15.5139 18.7289 15.6043 14.7793 18.7944 12.9052C20.9471 11.6418 23.3417 12.0108 23.6614 11.9389C24.1432 11.8296 24.091 11.136 23.6225 11.0835Z" fill="#4D4D4D"/>
  <path d="M7.70192 5.29833C7.46385 5.24897 5.58688 5.58127 4.74838 3.88964C4.35421 3.09605 4.38158 2.21367 4.38697 2.10305C4.41519 1.91156 4.28225 1.71689 4.07239 1.67859C3.88503 1.64152 3.67517 1.76039 3.62666 1.97344C3.60163 2.08266 3.78336 3.98142 2.40556 4.86239C1.53997 5.41458 0.529721 5.27194 0.339315 5.29317C-0.0885135 5.34183 -0.123107 5.95913 0.300315 6.05555C0.504783 6.10158 1.52117 5.91717 2.42342 6.50452C3.38502 7.13095 3.58485 8.28145 3.61789 8.91759C3.62244 9.28116 3.60636 9.32344 3.63491 9.41203C3.68746 9.57464 3.836 9.68381 4.00447 9.68381C4.19788 9.68391 4.35458 9.54089 4.38561 9.36563C4.40708 9.24544 4.31324 8.33119 4.75855 7.44633C4.84583 7.27284 4.77599 7.06148 4.60255 6.97416C4.42906 6.88678 4.21771 6.95672 4.13038 7.13016C4.08594 7.21852 4.04464 7.31016 4.00653 7.40466C3.68549 6.61767 3.13489 6.01927 2.3698 5.67773C3.14938 5.32969 3.69172 4.72139 4.00592 3.95231C4.31994 4.72702 4.85792 5.33269 5.64083 5.67895C5.5641 5.71284 5.48736 5.7502 5.41119 5.79136C5.24033 5.88375 5.17681 6.09708 5.26925 6.26794C5.36164 6.43875 5.57492 6.50227 5.74583 6.40992C6.57571 5.96095 7.48236 6.08306 7.66972 6.0622C8.0998 6.01289 8.13242 5.38941 7.70192 5.29833Z" fill="#4D4D4D"/>
</svg>