<svg xmlns="http://www.w3.org/2000/svg" width="18" height="18" viewBox="0 0 18 18" fill="none">
  <g clip-path="url(#clip0_1664_33562)">
    <path d="M6.63294 9.48828C5.58894 9.48828 4.74219 10.335 4.74219 11.379V16.1085C4.74219 17.1525 5.58894 17.9993 6.63294 17.9993C7.67694 17.9993 8.52369 17.1525 8.52369 16.1085V11.379C8.52294 10.335 7.67619 9.48828 6.63294 9.48828Z" fill="currentColor"/>
    <path d="M0.0136719 11.3786C0.0136719 12.4233 0.861172 13.2708 1.90592 13.2708C2.95067 13.2708 3.79817 12.4233 3.79817 11.3786V9.48633H1.90742C1.90667 9.48633 1.90667 9.48633 1.90592 9.48633C0.861172 9.48633 0.0136719 10.3338 0.0136719 11.3786Z" fill="currentColor"/>
    <path d="M6.63473 0C6.63398 0 6.63323 0 6.63248 0C5.58773 0 4.74023 0.8475 4.74023 1.89225C4.74023 2.937 5.58773 3.7845 6.63248 3.7845H8.52323V1.89225C8.52323 1.8915 8.52323 1.89 8.52323 1.8885C8.52248 0.84525 7.67723 0 6.63473 0Z" fill="currentColor"/>
    <path d="M1.8942 8.52669H6.6327C7.67745 8.52669 8.52495 7.67919 8.52495 6.63444C8.52495 5.58969 7.67745 4.74219 6.6327 4.74219H1.8942C0.849453 4.74219 0.00195312 5.58969 0.00195312 6.63444C0.00195312 7.67919 0.849453 8.52669 1.8942 8.52669Z" fill="currentColor"/>
    <path d="M16.0916 4.74219C15.0484 4.74219 14.2031 5.58744 14.2031 6.63069V6.63444V8.52669H16.0939C17.1386 8.52669 17.9861 7.67919 17.9861 6.63444C17.9861 5.58969 17.1386 4.74219 16.0939 4.74219C16.0931 4.74219 16.0924 4.74219 16.0916 4.74219Z" fill="currentColor"/>
    <path d="M9.48047 1.89075V6.6345C9.48047 7.6785 10.3272 8.52525 11.3712 8.52525C12.4152 8.52525 13.262 7.6785 13.262 6.6345V1.89075C13.262 0.84675 12.4152 0 11.3712 0C10.3272 0 9.48047 0.84675 9.48047 1.89075Z" fill="currentColor"/>
    <path d="M13.262 16.1056C13.262 15.0616 12.4152 14.2148 11.3712 14.2148H9.48047V16.1071C9.48122 17.1503 10.3272 17.9963 11.3712 17.9963C12.4152 17.9963 13.262 17.1496 13.262 16.1056Z" fill="currentColor"/>
    <path d="M16.1093 9.48633H11.3708C10.326 9.48633 9.47852 10.3338 9.47852 11.3786C9.47852 12.4233 10.326 13.2708 11.3708 13.2708H16.1093C17.154 13.2708 18.0015 12.4233 18.0015 11.3786C18.0015 10.3338 17.154 9.48633 16.1093 9.48633Z" fill="currentColor"/>
  </g>
  <defs>
    <clipPath id="clip0_1664_33562">
      <rect width="18" height="18" fill="white"/>
    </clipPath>
  </defs>
</svg>