<svg xmlns="http://www.w3.org/2000/svg" width="24" height="24" viewBox="0 0 24 24" fill="none">
  <path d="M20.2102 7.81994L12.5102 12.2799C12.2002 12.4599 11.8102 12.4599 11.4902 12.2799L3.79021 7.81994C3.24021 7.49994 3.10021 6.74994 3.52021 6.27994C3.81021 5.94994 4.14021 5.67994 4.49021 5.48994L9.91021 2.48994C11.0702 1.83994 12.9502 1.83994 14.1102 2.48994L19.5302 5.48994C19.8802 5.67994 20.2102 5.95994 20.5002 6.27994C20.9002 6.74994 20.7602 7.49994 20.2102 7.81994Z" fill="black"/>
  <path d="M11.4305 14.1399V20.9599C11.4305 21.7199 10.6605 22.2199 9.98047 21.8899C7.92047 20.8799 4.45047 18.9899 4.45047 18.9899C3.23047 18.2999 2.23047 16.5599 2.23047 15.1299V9.96988C2.23047 9.17988 3.06047 8.67988 3.74047 9.06988L10.9305 13.2399C11.2305 13.4299 11.4305 13.7699 11.4305 14.1399Z" fill="black"/>
  <path d="M12.5703 14.1399V20.9599C12.5703 21.7199 13.3403 22.2199 14.0203 21.8899C16.0803 20.8799 19.5503 18.9899 19.5503 18.9899C20.7703 18.2999 21.7703 16.5599 21.7703 15.1299V9.96988C21.7703 9.17988 20.9403 8.67988 20.2603 9.06988L13.0703 13.2399C12.7703 13.4299 12.5703 13.7699 12.5703 14.1399Z" fill="black"/>
</svg>