<svg xmlns="http://www.w3.org/2000/svg" width="15" height="15" viewBox="0 0 15 15" fill="none">
  <g clip-path="url(#clip0_1643_26726)">
    <path d="M9.98474 0H4.99383C4.11305 0.000998757 3.39931 0.714736 3.39844 1.59551V13.4046C3.39931 14.2853 4.11305 14.9991 4.99383 15H9.98474C10.8655 14.9991 11.5793 14.2853 11.5803 13.4046V1.59551C11.5793 0.714736 10.8655 0.000998757 9.98474 0ZM7.48935 13.6364C7.11269 13.6364 6.80745 13.3312 6.80745 12.9545C6.80745 12.578 7.11269 12.2727 7.48935 12.2727C7.86588 12.2727 8.17112 12.578 8.17112 12.9545C8.17112 13.3312 7.86588 13.6364 7.48935 13.6364ZM8.51207 2.04545H6.46662C6.27835 2.04545 6.12567 1.89277 6.12567 1.7045C6.12567 1.51624 6.27835 1.36368 6.46662 1.36368H8.51207C8.70034 1.36368 8.8529 1.51624 8.8529 1.7045C8.8529 1.89277 8.70034 2.04545 8.51207 2.04545Z" fill="black"/>
  </g>
  <defs>
    <clipPath id="clip0_1643_26726">
      <rect width="15" height="15" fill="white"/>
    </clipPath>
  </defs>
</svg>