<svg xmlns="http://www.w3.org/2000/svg" width="24" height="24" viewBox="0 0 24 24" fill="none">
  <path d="M11.5 21C16.7467 21 21 16.7467 21 11.5C21 6.2533 16.7467 2 11.5 2C6.2533 2 2 6.2533 2 11.5C2 16.7467 6.2533 21 11.5 21Z" fill="black"/>
  <path d="M21.3005 22.0001C21.1205 22.0001 20.9405 21.9301 20.8105 21.8001L18.9505 19.9401C18.6805 19.6701 18.6805 19.2301 18.9505 18.9501C19.2205 18.6801 19.6605 18.6801 19.9405 18.9501L21.8005 20.8101C22.0705 21.0801 22.0705 21.5201 21.8005 21.8001C21.6605 21.9301 21.4805 22.0001 21.3005 22.0001Z" fill="black"/>
</svg>