<svg fill="none" height="26" viewBox="0 0 26 26" width="26" xmlns="http://www.w3.org/2000/svg"><path d="m.834029 14.0386-.553513 2.673c-.100548.4875.212266.9638.699763 1.0654l2.823341.585c.16859.0356.34429.001.48851-.0934l.91-.5901c.13508-.0965.22852-.2417.26-.4052l.28845-1.3335.78.1584c.66118.1371 1.30811-.2864 1.44625-.9466l.16148-.78 1.33656.26h-.00102c.16656.0315.33922-.003.48142-.0964l.88663-.585c.456.2701.9445.4844 1.4534.6368.3087.0893.6276.1462.9486.1696.0731.1635.1503.325.2396.4834l-4.41996 6.2868c-.15742.2214-.21938.4967-.17164.7638l.47023 2.6964c.07313.4306.44484.7475.88157.7516.0518 0 .1046-.0041.1554-.0132l2.8397-.5068c.1696-.0274.3209-.1209.4215-.26l.6215-.8836c.0975-.1402.1371-.3128.1087-.4814l-.2234-1.3467.78-.1351c.6632-.1168 1.108-.7485.9933-1.4117l-.1351-.78 1.3365-.26c.1656-.0295.3139-.1229.4134-.26l.6083-.8715c1.5153.2407 3.0672-.0589 4.3844-.846 1.3163-.7871 2.3146-2.0129 2.8194-3.4621.6226-1.7185.4743-3.6218-.4052-5.22344-.1716-.31688-.5677-.4357-.8856-.26405-.3169.17164-.4347.56875-.2641.88561.7039 1.27458.8247 2.79088.3311 4.15998-.4204 1.2249-1.2787 2.2517-2.41 2.8803-1.1315.6297-2.4568.8176-3.7183.5281-.258-.0599-.5271.0437-.6784.26l-.6947 1.0116-1.5367.2884c-.4438.0782-.7404.5007-.6632.9435l.2031 1.17-1.175.1981c-.4429.0772-.7394.4956-.6663.9384l.26 1.56-.322.4347-2.1835.3798-.3799-2.1835 4.607-6.5377c.1523-.2164.1584-.5028.0162-.7252-.8419-1.3041-1.0583-2.9149-.5911-4.3956.4662-1.47973 1.5681-2.6751 3.0054-3.26114 1.4371-.585 3.0602-.50071 4.428.23156l-1.0115 1.28476.001-.00101c-.5555-.17063-1.1568-.09141-1.6494.21734-.4916.30976-.8237.81757-.91 1.39139-.0863.5749.0813 1.1578.4601 1.5976.3788.4408.9303.6937 1.5112.6937.1158 0 .2316-.0102.3463-.0305.6775-.1117 1.2513-.5657 1.5154-1.1995.264-.6347.1828-1.3609-.2154-1.92049l1.9115-2.43142h-.0011c.8653-1.13649 1.1-2.6325.6236-3.9793-.4763-1.34774-1.5986-2.363347-2.9858-2.703479-1.3873-.340236-2.853.040625-3.8979 1.014599l-.8633.82672c-2.1399-.8125-4.549-.44382-6.3477.97297-1.79762 1.41679-2.71981 3.6725-2.43036 5.94334l-6.42486 4.21486c-.2275.1473-.386953.3809-.441787.647zm19.786471-2.9453c-.1909.2701-.5464.3676-.849.2336-.3027-.1351-.4682-.4642-.3951-.7871.0721-.323.3626-.54948.6937-.54135.3311.00815.6104.24785.6673.57485.0325.1818-.0102.3687-.1168.52zm-2.3816-8.71808c1.1162-1.05422 2.8558-1.07047 3.9915-.0386 1.1365 1.03189 1.2868 2.76563.3453 3.97722l-.1147.14524v.00101c-.7262-.42452-1.5275-.7028-2.3603-.81959-.5231-1.12531-1.3518-2.08102-2.3918-2.75834zm-16.15666 12.04038 6.68174-4.3834c.22344-.14521.33618-.41231.28334-.67333-.31688-1.61179.14321-3.27938 1.24308-4.50034 1.1-1.22078 2.7098-1.8525 4.347-1.70523 1.6362.14828 3.1078 1.05827 3.9702 2.45577-.1798.01524-.3585.0386-.5383.07008v.00102c-1.7306.30061-3.2661 1.28882-4.2596 2.7391-.9922 1.44929-1.3579 3.23883-1.0126 4.96133-.0416 0-.0883-.0183-.13-.0315v.001c-.522-.1564-1.0156-.393-1.4645-.7028-.2183-.1473-.5058-.1473-.7251 0l-1.01872.6632-1.53359-.2986h-.00101c-.44078-.0914-.87345.193-.96382.6338l-.24274 1.173-1.16189-.26c-.43976-.0914-.8704.1899-.96483.6297l-.33311 1.5417-.455.2986-2.16734-.4418z" fill="#262626"/></svg>