<svg fill="none" height="97" viewBox="0 0 600 97" width="600" xmlns="http://www.w3.org/2000/svg"><g clip-rule="evenodd" fill-rule="evenodd"><path d="m52.7466 20.3444h46.1522v19.8955h-46.1522z" fill="#fff"/><path d="m10.9878 85.2975c-4.06518 0-7.60434-2.3576-9.50648-5.8535-.938449 1.7211-1.48132 3.7156-1.48132 5.8535 0 6.463 4.91948 11.7025 10.9878 11.7025h10.9878v-11.7025z" fill="#58bb5f"/><path d="m60.4266 23.4908 38.472-2.5592v-5.8535c0-6.46303-4.9194-11.70248-10.9878-11.70248h-49.4472l-1.3719-2.532325c-.4419-.806759-1.4098-1.08464-2.1715-.614031-.2399.147906-.4377.358557-.5765.614031l-1.3719 2.532325-1.3719-2.532325c-.4419-.806759-1.4098-1.08464-2.1715-.614031-.2399.147906-.4377.358557-.5765.614031l-1.3719 2.532325-1.3719-2.532325c-.4419-.806759-1.4098-1.08464-2.1715-.614031-.2399.147906-.4377.358557-.5765.614031l-1.3719 2.532325c-.0127 0-.0253 0-.0337 0l-2.2767-2.424756c-.6228-.658853-1.6286-.658854-2.2472.004481-.1936.210655-.3367.466125-.4082.752975l-.7533 2.98501-2.8532-.81573c-.8459-.24203-1.717.29582-1.9442 1.20118-.0716.28685-.0716.58266 0 .86951l.7701 3.03878-2.80273.7978c-.84586.24203-1.34665 1.16983-1.1194 2.07513.07154.2869.21462.5424.4082.753l2.26823 2.4248v.0358l-2.37765 1.4612c-.75749.4706-1.0184 1.5014-.57653 2.3127.13888.2554.33666.4661.57653.614l2.38185 1.4611-2.37764 1.4612c-.75749.4706-1.0184 1.5014-.57653 2.3127.13887.2554.33666.4661.57653.614l2.37764 1.4611-2.37764 1.4612c-.75749.4706-1.0184 1.5014-.57653 2.3127.13887.2554.33666.4661.57653.614l2.37764 1.4611-2.37764 1.4612c-.75749.4706-1.0184 1.5014-.57653 2.3127.13887.2554.33666.4661.57653.614l2.37764 1.4611-2.37764 1.4612c-.75749.4706-1.0184 1.5014-.57653 2.3127.13887.2554.33666.4661.57653.614l2.37764 1.4611-2.37764 1.4612c-.75749.4706-1.0184 1.5014-.57653 2.3127.13887.2554.33666.4661.57653.614l2.37764 1.4611-2.37764 1.4612c-.75749.4706-1.0184 1.5014-.57653 2.3127.13887.2554.33666.4661.57653.614l2.37764 1.4611-2.37764 1.4612c-.75749.4706-1.0184 1.5014-.57653 2.3127.13887.2554.33666.4661.57653.614l2.37764 1.4611-2.37764 1.4612c-.75749.4706-1.0184 1.5014-.57653 2.3127.13887.2554.33666.4661.57653.614l2.37764 1.4611-2.37764 1.4612c-.75749.4706-1.0184 1.5014-.57653 2.3127.13887.2555.33666.4661.57653.614l2.37764 1.4611-2.37764 1.4612c-.75749.4706-1.0184 1.5014-.57653 2.3127.13887.2555.33666.4661.57653.614l2.37764 1.4611-2.37764 1.4612c-.75749.4706-1.0184 1.5014-.57653 2.3127.13887.2555.33666.4661.57653.614l2.37764 1.4611c0 6.4631 4.9195 11.7025 10.9879 11.7025h65.931c6.0684 0 10.9879-5.2394 10.9879-11.7025v-46.7785l-38.4721-2.5592c-3.0805-.2062-5.4834-2.9268-5.4834-6.2166 0-3.2897 2.3903-6.0148 5.475-6.2165" fill="#58bb5f"/><path d="m76.9188 73.5906v23.405h16.4838v-23.405z" fill="#58bb5f"/><path d="m104.39 82.3708c-.122 0-.235.0224-.353.0358l-.063-.2644c.993-.4392 1.687-1.4835 1.687-2.6982 0-1.618-1.228-2.9267-2.748-2.9267-.601.0045-1.182.2151-1.658.6051l-.185-.1972c.345-.4886.551-1.0892.551-1.748 0-1.618-1.233-2.9268-2.7476-2.9223-1.0983 0-2.0915.6992-2.525 1.7794l-.244-.0673c.0168-.1165.0336-.2465.0336-.3764 0-1.618-1.2288-2.9268-2.748-2.9268s-2.748 1.3088-2.748 2.9268c0 .1299.0211.2509.0337.3764l-.2441.0673c-.5934-1.488-2.2093-2.1783-3.6065-1.5418-1.01.4616-1.6665 1.5194-1.6707 2.6892 0 .6588.2104 1.2594.5513 1.7479-2.1168 2.2007-3.3077 5.2171-3.2993 8.3679 0 6.4631 4.9195 11.7025 10.9878 11.7025 5.1299 0 9.4268-3.7469 10.6388-8.8161.109.018.231.0359.353.0359 1.519 0 2.748-1.3088 2.748-2.9268.004-1.6135-1.229-2.9222-2.744-2.9222" fill="#64bd5e"/><path d="m82.4148 50.1855v11.7025h16.4838v-11.7025z" fill="#58bb5f"/><path d="m104.391 57.5003c.757 0 1.371-.6544 1.371-1.4611 0-.8068-.614-1.4612-1.371-1.4612-.055 0-.118.0135-.177.018l-.034-.13c.699-.3093 1.031-1.1698.737-1.9138-.215-.5468-.712-.9009-1.267-.9009-.299 0-.593.1075-.829.3048l-.093-.0986c.181-.251.278-.5603.278-.874 0-.8068-.614-1.4612-1.372-1.4612-.551 0-1.048.3496-1.262.8875-.4717-.139-.964-.2196-1.4859-.2196-3.0341 0-5.496 2.6219-5.496 5.8534 0 3.2316 2.4619 5.8535 5.496 5.8535.5135 0 1.0058-.0807 1.4859-.2196.298.744 1.102 1.0891 1.801.7709.505-.2286.833-.7575.833-1.3446 0-.3317-.105-.632-.278-.874.03-.0314.063-.0583.093-.0986.236.1972.53.3003.829.3048.757 0 1.372-.6544 1.372-1.4611 0-.5917-.333-1.1205-.846-1.3491l.034-.13c.063-.0045.113.0045.181.0045" fill="#64bd5e"/><path d="m32.9677 22.3927c-.7575 0-1.3719-.6544-1.3719-1.4611-.0042-2.4203-1.8474-4.3834-4.1199-4.3879-2.2725.0045-4.1157 1.9676-4.1199 4.3879 0 .8067-.6144 1.4611-1.3719 1.4611s-1.3719-.6544-1.3719-1.4611c0-4.0338 3.0804-7.3147 6.8679-7.3147 3.7874 0 6.8679 3.2809 6.8679 7.3147-.0084.8067-.6228 1.4611-1.3803 1.4611" fill="#010101"/><path d="m54.9432 97.0001h32.9635c6.0683 0 10.9878-5.2395 10.9878-11.7025v-40.9609h-32.9635c-6.0683 0-10.9878 5.2394-10.9878 11.7025z" fill="#f8ee56"/><path d="m90.6674 62.4752h-27.4927c-.303 0-.5513-.26-.5513-.5871 0-.3272.2441-.5872.5513-.5872h27.4927c.303 0 .5513.26.5513.5872 0 .3271-.2483.5871-.5513.5871z" fill="#010101"/><path d="m90.6674 74.1777h-27.4927c-.303 0-.5513-.2599-.5513-.5871s.2441-.5872.5513-.5872h27.4927c.303 0 .5513.26.5513.5872s-.2483.5871-.5513.5871z" fill="#010101"/><path d="m90.6674 85.8803h-27.4927c-.303 0-.5513-.2599-.5513-.5871s.2441-.5871.5513-.5871h27.4927c.303 0 .5513.2599.5513.5871s-.2483.5871-.5513.5871z" fill="#010101"/><path d="m90.6674 56.7337h-27.4927c-.303 0-.5513-.2599-.5513-.5871s.2441-.5872.5513-.5872h27.4927c.303 0 .5513.26.5513.5872s-.2483.5871-.5513.5871z" fill="#010101"/><path d="m90.6674 68.3242h-27.4927c-.303 0-.5513-.26-.5513-.5872 0-.3271.2441-.5871.5513-.5871h27.4927c.303 0 .5513.26.5513.5871 0 .3272-.2483.5872-.5513.5872z" fill="#010101"/><path d="m90.6674 80.0311h-27.4927c-.303 0-.5513-.26-.5513-.5872 0-.3271.2441-.5871.5513-.5871h27.4927c.303 0 .5513.26.5513.5871 0 .3272-.2483.5872-.5513.5872z" fill="#010101"/><path d="m98.8946 25.9604c-.0084 0-.0126-.0045-.0168-.0045-1.7044.0628-2.4998 1.869-3.211 3.4646-.7406 1.6673-1.3129 2.752-2.2472 2.7206-1.0436-.0404-1.6328-1.2864-2.2598-2.6085-.7238-1.5194-1.5445-3.2405-3.2783-3.1733-1.6749.0628-2.4787 1.6359-3.1899 3.0254-.7574 1.479-1.2709 2.3799-2.264 2.3351-1.0605-.0404-1.6202-1.0578-2.2725-2.2321-.7238-1.3087-1.5655-2.7788-3.2614-2.7295-1.6454.0583-2.4534 1.3939-3.1646 2.5727-.7533 1.246-1.2835 2.0079-2.2893 1.9586-1.0858-.0403-1.6455-.8785-2.2893-1.86-.7281-1.0981-1.5487-2.3351-3.2404-2.2814-1.6076.0583-2.4156 1.1519-3.131 2.1155-.6775.9144-1.2035 1.6404-2.3229 1.5956-.303-.0134-.5597.2421-.5682.5648-.0126.3227.2273.5961.5303.605 1.658.0583 2.4955-1.0532 3.2277-2.0393.6481-.874 1.2036-1.6314 2.302-1.6718 1.0563-.0493 1.5528.6544 2.3061 1.7839.7112 1.0712 1.5234 2.2903 3.1478 2.353 1.7044.0628 2.525-1.2953 3.253-2.4965.6481-1.0711 1.2078-1.9989 2.2809-2.0393.9847-.0403 1.5234.7889 2.2767 2.1514.7112 1.2863 1.5192 2.743 3.1814 2.8057 1.717.0628 2.546-1.5328 3.2699-2.9446.627-1.2236 1.2162-2.3755 2.264-2.4158.9848-.0224 1.4982.9322 2.2515 2.5323.7112 1.4925 1.5149 3.1867 3.1982 3.2494h.0926c1.6833 0 2.4829-1.7972 3.1899-3.3884.627-1.4028 1.2162-2.7385 2.2346-2.7922z" fill="#010101"/><path d="m43.9554 73.5906v23.405h21.9757v-23.405z" fill="#58bb5f"/><path d="m76.9189 82.3708c-.122 0-.2357.0224-.3535.0358l-.0631-.2644c.9931-.4392 1.6875-1.4835 1.6875-2.6982 0-1.618-1.2288-2.9267-2.748-2.9267-.6018.0045-1.1825.2151-1.6581.6051l-.1851-.1972c.3451-.4886.5513-1.0892.5513-1.748 0-1.618-1.2331-2.9268-2.7481-2.9223-1.0983 0-2.0915.6992-2.5249 1.7794l-.2441-.0673c.0168-.1165.0337-.2465.0337-.3764 0-1.618-1.2288-2.9268-2.748-2.9268s-2.748 1.3088-2.748 2.9268c0 .1299.021.2509.0336.3764l-.2441.0673c-.5933-1.488-2.2093-2.1783-3.6064-1.5418-1.01.4616-1.6665 1.5194-1.6707 2.6892 0 .6588.2104 1.2594.5512 1.7479-2.1167 2.2007-3.3077 5.2171-3.2992 8.3679 0 6.4631 4.9194 11.7025 10.9878 11.7025 5.1299 0 9.4265-3.7469 10.6385-8.8161.1094.018.2314.0359.3535.0359 1.5192 0 2.748-1.3088 2.748-2.9268.0042-1.6135-1.2246-2.9222-2.7438-2.9222" fill="#64bd5e"/><path d="m43.9554 50.1855v11.7025h21.9757v-11.7025z" fill="#58bb5f"/><path d="m71.4271 57.5003c.7575 0 1.3719-.6544 1.3719-1.4611 0-.8068-.6144-1.4612-1.3719-1.4612-.0547 0-.1179.0135-.1768.018l-.0336-.13c.6985-.3093 1.031-1.1698.7364-1.9138-.2146-.5468-.7112-.9009-1.2667-.9009-.2988 0-.5934.1075-.829.3048l-.0926-.0986c.181-.251.2777-.5603.2777-.874 0-.8068-.6144-1.4612-1.3719-1.4612-.5512 0-1.0478.3496-1.2624.8875-.4714-.139-.9637-.2196-1.4856-.2196-3.0341 0-5.496 2.6219-5.496 5.8534 0 3.2316 2.4619 5.8535 5.496 5.8535.5134 0 1.0058-.0807 1.4856-.2196.2987.744 1.1025 1.0891 1.8011.7709.505-.2286.8332-.7575.8332-1.3446 0-.3317-.1052-.632-.2777-.874.0295-.0314.0631-.0583.0926-.0986.2356.1972.5302.3003.829.3048.7575 0 1.3719-.6544 1.3719-1.4611 0-.5917-.3325-1.1205-.8459-1.3491l.0337-.13c.0589-.0045.1136.0045.181.0045" fill="#64bd5e"/><path d="m76.9189 14.3475c-.0926 0-.1852-.009-.2735-.0314-.0884-.0179-.1768-.0448-.2567-.0807-.0842-.0358-.1642-.0807-.2357-.1344l-.2104-.1748c-.0547-.0718-.1221-.139-.1641-.2241-.0505-.0807-.0926-.1659-.1263-.251-.0337-.0897-.0589-.1793-.0757-.2734-.0169-.0942-.0295-.1928-.0295-.2914s.0126-.1927.0295-.2913c.0168-.0986.042-.1748.0757-.2734.0337-.0896.0758-.1703.1263-.251l.1641-.2241c.0673-.0582.1389-.13.2104-.1748.0715-.0538.1515-.0986.2357-.1344.0841-.0359.1683-.0628.2567-.0807.1767-.0404.3577-.0404.5386 0 .0884.0179.1768.0448.2567.0807.08.0358.1641.0806.2357.1344l.2104.1748c.0631.0717.1178.1434.1683.2241s.0926.1658.1263.251c.0336.0941.0547.1748.0757.2734.0169.0941.0253.1883.0295.2869-.0042.3854-.1473.7574-.3998 1.0353-.0673.0583-.1389.13-.2104.1748-.0716.0538-.1515.0986-.2357.1345-.0841.0358-.1641.0582-.2567.0806-.0884.0224-.1809.0314-.2735.0314zm10.9878-.7351c-.3619-.0045-.7112-.1568-.9721-.4258-.0631-.0717-.1178-.1434-.1683-.2241-.0505-.0806-.0926-.1658-.1263-.251-.0337-.0896-.0589-.1792-.0757-.2734-.0169-.0941-.0295-.1927-.0295-.2913.0042-.3854.1473-.7574.3998-1.0353.0673-.0583.1389-.13.2104-.1748.0715-.0538.1515-.0986.2357-.1345.0841-.0358.1683-.0627.2567-.0807.1767-.0403.3619-.0403.5386 0 .0884.018.1768.0449.2567.0807.0842.0359.1642.0807.2357.1345l.2104.1748c.2567.2779.3998.6499.3998 1.0353 0 .0941-.0084.1927-.0295.2869-.0168.0941-.042.1882-.0757.2734-.0379.0851-.08.1703-.1263.251-.0505.0761-.1094.1523-.1683.2241-.0673.0582-.1389.1299-.2104.1747-.0715.0538-.1515.0986-.2357.1345-.0841.0359-.1641.0583-.2567.0807-.0883.0224-.1809.0314-.2735.0314" fill="#010101"/></g><path d="m159.701 26.3913v44.154h9.259c7.821 0 13.529-1.7553 17.125-5.311 3.641-3.5558 5.439-9.1369 5.439-16.7885 0-7.6066-1.798-13.1427-5.439-16.6984-3.596-3.5557-9.349-5.3111-17.125-5.3111h-9.259zm-7.641-6.3013h15.731c10.967 0 19.013 2.2955 24.182 6.8864 5.124 4.546 7.686 11.7024 7.686 21.4244 0 9.767-2.562 16.9685-7.731 21.5144-5.169 4.5909-13.17 6.8864-24.047 6.8864h-15.731v-56.8016zm75.916 19.0389c-3.731 0-6.697 1.4853-8.9 4.4109-2.157 2.9256-3.281 6.9314-3.281 12.0175 0 5.086 1.079 9.0918 3.236 12.0624 2.158 2.9256 5.169 4.3659 8.9 4.3659s6.652-1.4853 8.855-4.4109c2.202-2.9256 3.281-6.9314 3.281-12.0174 0-5.0411-1.079-9.0469-3.281-11.9725-2.113-2.9706-5.079-4.4559-8.81-4.4559zm0-5.8962c6.068 0 10.832 1.9804 14.293 5.9412s5.214 9.4069 5.214 16.4284c0 6.9764-1.753 12.4225-5.214 16.4283-3.461 3.9608-8.225 5.9413-14.293 5.9413-6.113 0-10.877-1.9805-14.338-5.9413s-5.169-9.4519-5.169-16.4283c0-6.9765 1.708-12.4676 5.169-16.4284s8.27-5.9412 14.338-5.9412zm61.623 2.6555v6.5264c-1.978-1.0802-3.955-1.8904-5.978-2.4305-1.978-.5401-3.955-.8552-5.978-.8552-4.54 0-8.046 1.4403-10.563 4.3209s-3.775 6.8864-3.775 12.0624c0 5.1761 1.258 9.2269 3.775 12.1075s6.023 4.2759 10.563 4.2759c2.023 0 4-.27 5.978-.8101 1.978-.5402 3.955-1.3953 5.978-2.4756v6.4814c-1.933.9001-3.955 1.6203-6.068 2.0704-2.068.4501-4.27.6751-6.652.6751-6.383 0-11.507-2.0254-15.237-6.0312-3.776-4.0058-5.664-9.452-5.664-16.2934 0-6.9314 1.888-12.3775 5.709-16.3833 3.82-3.9608 9.034-5.9862 15.686-5.9862 2.158 0 4.27.225 6.293.6751 2.023.4951 4 1.1253 5.933 2.0704z" fill="#0f8140"/><path d="m301.105 60.0131v-25.7452h7.057v25.4752c0 4.0058.764 7.0664 2.337 9.0919 1.574 1.9804 3.911 2.9255 7.057 2.9255 3.776 0 6.742-1.2152 8.9-3.6007 2.202-2.3855 3.281-5.6712 3.281-9.857v-24.1249h7.057v42.5337h-7.057v-6.5264c-1.708 2.5656-3.686 4.5009-5.933 5.7612s-4.809 1.8454-7.776 1.8454c-4.899 0-8.585-1.5303-11.102-4.546-2.517-3.0606-3.776-7.4715-3.776-13.3227z" fill="#0f8140"/><path d="m378.235 35.4831v6.6164c-1.977-1.0352-4-1.8004-6.157-2.2955-2.113-.4951-4.315-.7651-6.608-.7651-3.461 0-6.068.5401-7.821 1.6203-1.708 1.0802-2.562 2.6555-2.562 4.771 0 1.6203.63 2.8806 1.843 3.8258 1.259.9001 3.731 1.8003 7.462 2.6105l2.382.5851c4.944 1.0802 8.45 2.5655 10.562 4.5459 2.113 1.9804 3.147 4.636 3.147 8.1017 0 3.9608-1.573 7.0664-4.72 9.3619-3.101 2.2955-7.416 3.4657-12.9 3.4657-2.292 0-4.674-.225-7.146-.6751-2.472-.4051-5.034-1.0352-7.776-1.9804v-7.2915c2.562 1.3503 5.124 2.3405 7.641 3.0156s4.989.9902 7.416.9902c3.281 0 5.798-.5401 7.596-1.6653 1.753-1.1703 2.652-2.7906 2.652-4.771 0-1.8904-.629-3.3757-1.933-4.3659-1.258-1.0352-4.045-1.9804-8.405-2.9256l-2.427-.5851c-4.315-.9002-7.461-2.2955-9.349-4.0959-1.978-1.8904-2.922-4.5009-2.922-7.7866 0-4.0058 1.439-7.0664 4.27-9.2719 2.832-2.1604 6.832-3.2856 12.046-3.2856 2.562 0 4.99.18 7.282.5851 2.292.3601 4.36.9452 6.292 1.7554z" fill="#0f8140"/><path d="m410.957 55.3773c-5.663 0-9.529.6301-11.731 1.9354-2.158 1.3052-3.281 3.5107-3.281 6.6163 0 2.4755.809 4.456 2.427 5.9413 1.663 1.4403 3.865 2.1604 6.697 2.1604 3.91 0 7.012-1.3503 9.304-4.0958 2.337-2.7456 3.506-6.4364 3.506-10.9823v-1.5753zm13.934-2.9256v24.26h-7.057v-6.4814c-1.573 2.5656-3.596 4.501-5.978 5.7162-2.382 1.1702-5.304 1.7553-8.72 1.7553-4.36 0-7.821-1.2152-10.383-3.6457-2.562-2.4755-3.82-5.7162-3.82-9.857 0-4.771 1.573-8.4167 4.764-10.8022 3.192-2.4305 8.001-3.6458 14.339-3.6458h9.798v-.6751c0-3.1957-1.079-5.7162-3.191-7.4265-2.113-1.7554-5.079-2.6556-8.9-2.6556-2.427 0-4.764.3151-7.057.9002-2.292.5851-4.494 1.4403-6.652 2.6106v-6.4814c2.562-.9902 5.034-1.7103 7.417-2.2054 2.382-.4951 4.719-.7652 7.011-.7652 6.158 0 10.743 1.5753 13.754 4.771 3.057 3.1957 4.54 8.0116 4.54 14.493z" fill="#0f8140"/><path d="m438.645 60.0131v-25.7452h7.057v25.4752c0 4.0058.764 7.0664 2.337 9.0919 1.573 1.9804 3.91 2.9255 7.057 2.9255 3.775 0 6.742-1.2152 8.899-3.6007 2.203-2.3855 3.281-5.6712 3.281-9.857v-24.1249h7.057v42.5337h-7.057v-6.5264c-1.708 2.5656-3.685 4.5009-5.933 5.7612-2.247 1.2603-4.809 1.8454-7.776 1.8454-4.899 0-8.585-1.5303-11.102-4.546-2.517-3.0156-3.775-7.4715-3.775-13.3227z" fill="#0f8140"/><path d="m513.213 40.7942c-.764-.4501-1.663-.7651-2.562-.9902-.899-.225-1.933-.3601-3.012-.3601-3.955 0-6.967 1.3053-9.124 3.8708-2.113 2.5656-3.147 6.2563-3.147 11.0273v22.4146h-7.011v-42.5337h7.011v6.6163c1.484-2.5655 3.372-4.5009 5.709-5.7161 2.337-1.2603 5.214-1.8904 8.585-1.8904.494 0 1.034.045 1.618.135.584.045 1.213.135 1.933.2701z" fill="#0f8140"/><path d="m519.91 60.0131v-25.7452h7.057v25.4752c0 4.0058.764 7.0664 2.337 9.0919 1.573 1.9804 3.91 2.9255 7.057 2.9255 3.775 0 6.742-1.2152 8.899-3.6007 2.203-2.3855 3.281-5.6712 3.281-9.857v-24.1249h7.057v42.5337h-7.057v-6.5264c-1.708 2.5656-3.685 4.5009-5.933 5.7612-2.247 1.2603-4.809 1.8454-7.776 1.8454-4.899 0-8.585-1.5303-11.102-4.546-2.517-3.0156-3.775-7.4715-3.775-13.3227z" fill="#0f8140"/><path d="m597.04 35.4831v6.6164c-1.978-1.0352-4.001-1.8004-6.158-2.2955-2.113-.4951-4.315-.7651-6.607-.7651-3.461 0-6.068.5401-7.821 1.6203-1.708 1.0802-2.562 2.6555-2.562 4.771 0 1.6203.629 2.8806 1.843 3.8258 1.258.9001 3.73 1.8003 7.461 2.6105l2.382.5851c4.944 1.0802 8.45 2.5655 10.563 4.5459 2.112 1.9804 3.146 4.636 3.146 8.1017 0 3.9608-1.573 7.0664-4.719 9.3619-3.102 2.2955-7.417 3.4657-12.9 3.4657-2.293 0-4.675-.225-7.147-.6751-2.472-.4051-5.034-1.0352-7.776-1.9804v-7.2915c2.562 1.3503 5.124 2.3405 7.641 3.0156s4.989.9902 7.416.9902c3.282 0 5.799-.5401 7.597-1.6653 1.753-1.1703 2.652-2.7906 2.652-4.771 0-1.8904-.63-3.3757-1.933-4.3659-1.259-1.0352-4.045-1.9804-8.405-2.9256l-2.428-.5851c-4.314-.9002-7.461-2.2955-9.349-4.0959-1.977-1.8904-2.921-4.5009-2.921-7.7866 0-4.0058 1.438-7.0664 4.27-9.2719 2.832-2.1604 6.832-3.2856 12.046-3.2856 2.562 0 4.989.18 7.281.5851 2.293.3601 4.36.9452 6.293 1.7554z" fill="#0f8140"/></svg>