<svg fill="none" height="78" viewBox="0 0 78 78" width="78" xmlns="http://www.w3.org/2000/svg"><path d="m38.9994 15.6016c-6.2065 0-12.1571 2.4649-16.5477 6.8524-4.3875 4.3906-6.8525 10.3413-6.8525 16.5477-.064 3.7386.8348 7.4283 2.6143 10.7157l-2.34 6.4045c-.6247 1.7093-.1981 3.6227 1.0877 4.9116 1.2857 1.2857 3.1992 1.7092 4.9085 1.0877l6.4045-2.34c3.2907 1.7824 6.9834 2.6843 10.725 2.6203 4.6526.0061 9.2017-1.3863 13.0556-3.9945l-2.9158-3.6898c-3.0195 1.9622-6.5417 3.0043-10.14 3.0043-3.6319.1097-7.1968-.9872-10.14-3.12l-8.58 3.12 3.12-8.58c-2.1329-2.9433-3.2297-6.5082-3.12-10.14 0-6.6879 3.5678-12.8669 9.36-16.2123 5.7921-3.3425 12.9277-3.3425 18.72 0 5.7921 3.3455 9.36 9.5246 9.36 16.2123v3.12c0 2.1541-1.7459 3.9-3.9 3.9-2.1542 0-3.9-1.7459-3.9-3.9v-3.12c.003-5.198-3.6593-9.6798-8.7571-10.7094-5.0943-1.0298-10.2102 1.6757-12.2273 6.4655-2.017 4.7927-.3778 10.3412 3.9213 13.2662s10.0605 2.4132 13.7779-1.2218c2.075 3.1779 5.9902 4.613 9.6252 3.5344 3.638-1.0817 6.1334-4.4211 6.1395-8.2142v-3.9c-.2011-6.0693-2.7575-11.8217-7.1236-16.0446-4.3662-4.22-10.2039-6.5782-16.2762-6.5752zm0 29.64c-2.5229 0-4.7988-1.5204-5.7647-3.8513-.9659-2.3339-.4327-5.0152 1.3528-6.8006 1.7855-1.7855 4.4668-2.3188 6.8007-1.3529 2.3309.9659 3.8512 3.2419 3.8512 5.7647 0 1.6544-.6581 3.2418-1.8281 4.4118-1.1701 1.17-2.7575 1.8282-4.4119 1.8282z" fill="#fff"/></svg>