<svg fill="none" height="32" viewBox="0 0 32 32" width="32" xmlns="http://www.w3.org/2000/svg"><path d="m24.4703 10.5812c2.4062 0 4.3686-1.91249 4.3686-4.26238s-1.9624-4.25632-4.3686-4.25632-4.3686 1.91251-4.3686 4.2624c0 .54374.1062 1.0625.2937 1.5375l-9.6563 5.5126c-.8-.8437-1.9375-1.3687-3.2064-1.3687-2.40624 0-4.36864 1.9125-4.36864 4.2624s1.95626 4.2624 4.36864 4.2624c1.26874 0 2.41251-.5313 3.2125-1.375l9.5501 5.2563c-.1313.4-.2.8313-.2 1.2688 0 2.35 1.9562 4.2624 4.3686 4.2624 2.4125 0 4.3686-1.9126 4.3686-4.2624 0-2.3499-1.9562-4.2624-4.3686-4.2624-1.5437 0-2.9062.7874-3.6813 1.975l-9.375-5.1626c.3125-.5875.4937-1.2563.4937-1.9687 0-.7125-.1812-1.3813-.5-1.975l9.5437-5.44996c.8 1.0625 2.0813 1.74376 3.5251 1.74376zm0 11.9626c1.7875 0 3.2438 1.4062 3.2438 3.1375 0 1.7312-1.4562 3.1312-3.2438 3.1312-1.7875 0-3.2438-1.4062-3.2438-3.1375 0-1.7312 1.45-3.1312 3.2438-3.1312zm-16.93759-3.1438c-1.78749 0-3.24384-1.4062-3.24384-3.1375 0-1.7312 1.45626-3.1375 3.24384-3.1375 1.78749 0 3.24389 1.4063 3.24389 3.1375 0 1.7313-1.45003 3.1375-3.24389 3.1375zm16.93759-16.21244c1.7875 0 3.2438 1.40624 3.2438 3.1375s-1.4562 3.1375-3.2438 3.1375c-1.7875 0-3.2438-1.40624-3.2438-3.1375s1.45-3.1375 3.2438-3.1375z" fill="#262626"/></svg>