<svg fill="none" height="31" viewBox="0 0 117 31" width="117" xmlns="http://www.w3.org/2000/svg"><g fill="#64328b"><path d="m15.9055.234375c-8.40941 0-15.264875 6.855465-15.264875 15.264825 0 8.4094 6.855465 15.2649 15.264875 15.2649 8.4093 0 15.2648-6.8555 15.2648-15.2649 0-8.40936-6.8555-15.264825-15.2648-15.264825zm-12.15706 15.356225 12.15706 12.1571c-6.76409 0-12.15706-5.4844-12.15706-12.1571zm14.80776 11.7914-14.53354-14.625c1.27968-5.39294 6.03284-9.41481 11.88284-9.41481 3.9304 0 7.4953 1.91953 9.689 4.84453l-1.8281 1.73672c-1.7367-2.46797-4.6617-4.11328-7.9523-4.11328-4.2047 0-7.76957 2.65078-9.14066 6.39844 1.82812 1.6453 11.88276 11.7 12.52266 12.4312 3.0164-1.0968 5.3016-3.7476 6.1242-6.9468h-5.2101v-2.1938l7.8609.0914c0 5.7586-4.0219 10.6032-9.4149 11.7914z"/><path d="m52.1914 15.4086v2.5594h4.2961c-.8227 2.1023-2.925 3.6562-5.393 3.6562-3.1992 0-5.85-2.6508-5.85-5.85s2.6508-5.84998 5.85-5.84998c1.8282 0 3.4735.82268 4.5703 2.19378l2.5594-1.8282c-1.6453-2.1023-4.2047-3.47339-7.0383-3.47339h-.1828c-4.9359 0-8.8664 3.93049-8.8664 8.86639s3.9305 8.8664 8.8664 8.8664h.1828c4.936 0 8.8664-3.9305 8.8664-8.8664 0-.1828 0-.2742 0-.3656z"/><path d="m69.3789 14.9508c-.9141-1.1883-2.1937-1.9196-3.7476-1.9196-2.7422 0-4.936 2.6508-4.936 5.85 0 3.1993 2.1938 5.85 4.936 5.85 1.5539 0 2.9249-.8226 3.839-2.1023v1.4625h3.0164v-10.7859h-3.1078zm-2.468 6.8555c-1.7367 0-3.1078-1.3711-3.1078-3.1079 0-1.7367 1.3711-3.1078 3.1078-3.1078 1.7368 0 3.1078 1.3711 3.1078 3.1078 0 1.7368-1.371 3.1079-3.1078 3.1079z"/><path d="m98.3516 12.9391c-1.4625 0-2.8336.7312-3.7477 1.9195v-1.5539-7.31251h-3.1078v7.31251 10.6945h3.0164v-1.4625c.9141 1.2797 2.2852 2.1024 3.8391 2.1024 2.7424 0 4.9354-2.6508 4.9354-5.85 0-3.1993-2.193-5.85-4.9354-5.85zm-1.2797 8.8664c-1.7367 0-3.1078-1.3711-3.1078-3.1078 0-1.7368 1.3711-3.1079 3.1078-3.1079s3.1081 1.3711 3.1081 3.1079c0 1.7367-1.3714 3.1078-3.1081 3.1078z"/><path d="m78.3359 9.64844h-2.925v3.65626h-1.1882v2.468h1.1882v8.2265h2.925v-8.2265h2.1938v-2.468h-2.1938z"/><path d="m85.1898 16.8719c-.8226 0-1.1882-3.1992 2.5594-1.0055l1.4625-1.7367s-3.5648-2.5594-6.5812 0c-2.1938 3.1992 1.0054 4.7531 1.0054 4.7531l1.9196.8227s2.6507 1.1883 0 2.5593c-2.1938.0915-2.925-1.4624-2.925-1.4624l-1.4625 1.8281s3.9304 4.0219 8.1351 0c2.1938-5.2102-2.8336-5.2102-4.1133-5.7586z"/><path d="m113.161 13.3047-3.108 6.1242-3.29-6.1242h-3.474l5.027 9.3234-3.93 7.3125h3.473l8.684-16.6359z"/></g></svg>