<svg fill="none" height="107" viewBox="0 0 405 107" width="405" xmlns="http://www.w3.org/2000/svg" xmlns:xlink="http://www.w3.org/1999/xlink"><clipPath id="a"><path d="m0 0h405v107h-405z"/></clipPath><g clip-path="url(#a)"><path d="m240.326 45.8571h10.698v38.2142h-10.698v-4.9678c-3.821 5.7321-8.788 6.1143-11.845 6.1143-11.844 0-19.486-9.1715-19.486-20.2536 0-11.4643 7.642-20.2536 18.722-20.2536 3.057 0 8.788.3822 12.226 6.1143v-4.9678zm-19.868 19.1071c0 6.1143 4.202 10.7 10.698 10.7 6.113 0 10.698-4.5857 10.698-10.7s-4.203-10.7-10.698-10.7c-6.113 0-10.698 4.5857-10.698 10.7zm51.58-9.9357v29.0428h-10.698v-29.0428h-4.203v-9.1714h4.203v-12.9929h10.698v12.9929h7.259v9.1714zm32.476 0c-2.674-2.2929-4.967-2.675-6.113-2.675-2.675 0-4.203 1.1464-4.203 3.0571 0 1.1465.382 2.2929 3.439 3.4393l2.674.7643c3.057 1.1464 7.642 2.2928 9.552 5.35 1.146 1.5286 1.911 3.8214 1.911 6.4964 0 3.4393-1.147 6.8786-4.203 9.5536-3.057 2.675-6.878 4.2036-11.462 4.2036-8.024 0-12.227-3.8215-14.901-6.4965l5.731-6.4964c2.292 2.2929 5.349 4.5857 8.405 4.5857 3.057 0 5.349-1.5286 5.349-4.2036 0-2.2928-1.91-3.4392-3.438-3.8214l-2.293-.7643c-2.674-1.1464-5.731-2.2928-8.023-4.5857-1.911-1.9107-3.057-4.2036-3.057-7.2607 0-3.8214 1.911-6.8786 3.821-8.7893 3.057-2.2928 6.877-2.675 9.934-2.675 2.674 0 7.259.3822 12.226 4.2036zm23.307-4.2036c3.821-5.35 9.17-6.1143 12.226-6.1143 11.08 0 18.722 8.7893 18.722 20.2536s-7.642 20.2536-19.104 20.2536c-2.292 0-8.023-.3822-12.226-6.1143v4.9678h-10.316v-64.2h10.698zm-1.146 14.1393c0 6.1143 4.202 10.7 10.698 10.7 6.113 0 10.698-4.5857 10.698-10.7s-4.203-10.7-10.698-10.7c-6.496 0-10.698 4.5857-10.698 10.7zm49.669 13.375-18.339-32.4821h12.608l11.845 21.7821 10.698-21.7821h12.226l-30.566 58.4679h-12.226zm-170.023-25.9857h-26.745v10.7h14.136c-2.292 7.2607-7.641 12.2286-17.575 12.2286-11.08 0-19.104-9.1715-19.104-20.2536 0-11.0822 7.642-20.6357 18.722-20.6357 6.113 0 12.226 3.0571 16.047 8.025l8.788-5.7322c-5.731-8.025-14.901-12.6107-24.835-12.6107-16.812 0-30.566 13.7572-30.566 30.9536s12.99 30.9535 30.566 30.9535c17.575 0 30.566-13.7571 30.566-30.9535.382-1.1465 0-1.9107 0-2.675z" fill="#fff"/><path d="m95.5189 53.4999h-26.7453v7.6429h18.3396c-2.6745 11.4643-11.0802 21.0179-22.1604 24.8393l-43.9386-43.9464c4.5849-13.375 17.5754-22.9286 32.4764-22.9286 11.4622 0 21.7783 5.7321 28.2736 14.5214l5.7311-4.9678c-7.6415-10.3179-19.8679-17.1965-34.0047-17.1965-19.8679 0-36.6793 14.1393-40.8821 32.8643l50.434 50.4429c18.3396-4.5857 32.4764-21.4 32.4764-41.2715zm-84.0566.3822c0 10.7 4.2028 21.0178 12.2264 29.0428s18.7217 12.2286 29.0377 12.2286z" fill="#639"/><path d="m53.4906 0c-29.4198 0-53.4906 24.075-53.4906 53.5s24.0708 53.5 53.4906 53.5 53.4904-24.075 53.4904-53.5-24.0706-53.5-53.4904-53.5zm-29.8019 83.3071c-8.0236-8.025-12.2264-18.725-12.2264-29.0428l41.6462 41.2714c-10.6981-.3821-21.3962-4.2036-29.4198-12.2286zm38.9717 11.0822-50.0519-50.0607c4.2028-18.725 21.0141-32.8643 40.8821-32.8643 14.1368 0 26.3632 6.8786 34.0047 17.1964l-5.7311 4.9679c-6.4953-8.7893-16.8114-14.5215-28.2736-14.5215-14.901 0-27.5095 9.5536-32.4764 22.9286l43.9386 43.9464c11.0802-3.8214 19.4859-13.375 22.1604-24.8392h-18.3396v-7.6429h26.7453c0 19.8714-14.1368 36.6857-32.8585 40.8893z" fill="#fff"/></g></svg>