<svg height="100pt" viewBox="0 0 100 100" width="100pt" xmlns="http://www.w3.org/2000/svg"><path d="m80.398 28.121c5.4766 0 9.9336-4.457 9.9336-9.9336s-4.457-9.9336-9.9336-9.9336-9.9336 4.457-9.9336 9.9336c0 5.4805 4.457 9.9336 9.9336 9.9336zm0-18.328c4.6289 0 8.3945 3.7656 8.3945 8.3945s-3.7656 8.3945-8.3945 8.3945c-4.6289.003907-8.3945-3.7656-8.3945-8.3945s3.7656-8.3945 8.3945-8.3945z"/><path d="m1.9102 57.172c.23438 7.9492 2.5938 15.387 6.5391 21.762.039062.18359.14062.33984.28516.44922 7.8555 12.363 21.672 20.617 37.27 20.617h.003906.003907c15.719 0 29.531-8.2656 37.355-20.668.085937-.082031.14844-.18359.1875-.29688 3.9688-6.4062 6.3359-13.895 6.5625-21.914.011718-.054688.035156-.10547.035156-.16406 0-.046875-.019532-.085937-.027344-.12891.007812-.32031.023438-.64062.023438-.96484 0-5.0781-.86719-10.055-2.5586-14.812 4.8281-7.5625 10.547-17.699 10.547-23.316-.003907-9.7773-7.957-17.734-17.738-17.734-8.8711 0-16.242 6.5508-17.531 15.074-5.3438-2.2188-11.004-3.3594-16.855-3.3594-15.598 0-29.414 8.25-37.27 20.617-.14844.10938-.24609.26562-.28516.44922-4.0547 6.5469-6.4492 14.215-6.5742 22.41-.007812.042969-.011718.085938-.011718.12891v1.0898c0 .042969.003906.085938.011718.125 0 .09375.007813.18359.011719.27734-.007812.046875-.027343.09375-.027343.14453 0 .074219.019531.14453.042968.21484zm23.898-1.3086c0-8.1094 1.082-15.695 2.9531-22.156h16.477v22.477h-19.426c0-.10547-.003906-.21094-.003906-.32031zm40.391.32422h-19.422v-22.48h16.477c1.8711 6.4609 2.9531 14.047 2.9531 22.156-.003906.10938-.007812.21484-.007812.32422zm16.188 21.82h-17.59c1.7227-6.0117 2.7695-12.914 2.9219-20.281h20.844c-.32031 7.4023-2.5312 14.32-6.1758 20.281zm-19.133 0h-16.477v-20.285h19.406c-.15234 7.4062-1.2031 14.324-2.9297 20.285zm-16.477 1.5352h16.012c-3.4961 10.977-9.3438 18.344-16.012 18.875zm-1.5391 18.879c-6.668-.53125-12.516-7.8984-16.012-18.875h16.012zm1.5391-66.254v-18.871c6.6641.53125 12.512 7.8984 16.008 18.875zm-1.5391 0h-16.008c3.4961-10.977 9.3438-18.344 16.008-18.875zm0 25.555v20.281l-16.477.003906c-1.7266-5.9609-2.7773-12.879-2.9258-20.281zm-18.02 20.285h-17.535c-3.6641-5.9648-5.8906-12.887-6.2109-20.281h20.824c.14844 7.3672 1.1953 14.27 2.9219 20.281zm-16.543 1.5352h17.004c2.7188 8.6445 6.8711 15.25 11.781 18.402-11.926-1.8672-22.273-8.7461-28.785-18.402zm41.863 18.418c4.9141-3.1523 9.0742-9.7617 11.797-18.418h17.066c-6.5 9.6836-16.863 16.566-28.863 18.418zm36.07-42.098c0 .10938-.007813.21484-.007813.32422h-20.863c0-.10938.003907-.21484.003907-.32031 0-8.0742-1.0781-15.641-2.9492-22.156h3.9922c4.7461 8.4336 10.582 16.438 10.992 17 .14453.19922.375.3125.62109.3125s.47656-.11719.62109-.3125c.25391-.34766 2.6172-3.5859 5.5039-8.0117 1.3828 4.2422 2.0859 8.6641 2.0859 13.164zm-8.2109-54.324c8.9297 0 16.195 7.2656 16.195 16.195 0 8.0117-13.156 26.934-16.195 31.199-3.0391-4.2656-16.195-23.188-16.195-31.199 0-.50781.03125-1.0117.078125-1.5078 0-.023437.003906-.042968.003906-.066406.79297-8.1953 7.7148-14.621 16.113-14.621zm-12.461 30.629h-3.6055c-2.7227-8.6562-6.8867-15.27-11.801-18.418 3.4961.53516 6.8984 1.5156 10.172 2.918-.019531.35156-.035156.70703-.035156 1.0664 0 3.582 2.3281 9.0117 5.2695 14.434zm-28.477-18.402c-4.9062 3.1523-9.0586 9.7578-11.777 18.402h-17c6.5117-9.6523 16.855-16.535 28.777-18.402zm-36.039 41.488c.10938-7.8711 2.3945-15.242 6.2656-21.547h17.531c-1.8711 6.5156-2.9492 14.086-2.9492 22.156 0 .10938.003907.21484.003907.32031l-20.863.003906v-.81641c.007813-.042969.011719-.082032.011719-.11719z"/></svg>