<svg fill="none" height="67" viewBox="0 0 67 67" width="67" xmlns="http://www.w3.org/2000/svg"><path d="m33.4987 5.58203c-3.6661 0-7.2962.72209-10.6832 2.12503-3.3871 1.40294-6.4646 3.45924-9.0569 6.05154-5.23536 5.2354-8.17657 12.3361-8.17657 19.7401 0 12.3392 8.01207 22.8079 19.09497 26.5208 1.3959.2234 1.8425-.6421 1.8425-1.3958 0-.6421 0-2.4008 0-4.7179-7.7329 1.675-9.38-3.7409-9.38-3.7409-1.2841-3.2383-3.0987-4.1037-3.0987-4.1037-2.5404-1.7308.1954-1.675.1954-1.675 2.7917.1954 4.2712 2.8754 4.2712 2.8754 2.4288 4.2434 6.5325 2.9871 8.1238 2.3171.2512-1.8146.9771-3.0429 1.7587-3.7408-6.1975-.698-12.702-3.0988-12.702-13.735 0-3.0988 1.0608-5.5834 2.8754-7.5655-.2792-.6979-1.2563-3.6012.2791-7.37 0 0 2.345-.7537 7.6771 2.8475 2.2054-.6141 4.6063-.9212 6.9792-.9212s4.7737.3071 6.9792.9212c5.332-3.6012 7.677-2.8475 7.677-2.8475 1.5355 3.7688.5584 6.6721.2792 7.37 1.8146 1.9821 2.8754 4.4667 2.8754 7.5655 0 10.6641-6.5325 13.0091-12.7579 13.707 1.005.8655 1.9263 2.5684 1.9263 5.1646v7.6492c0 .7537.4466 1.6471 1.8704 1.3958 11.0829-3.7408 19.0671-14.1816 19.0671-26.5208 0-3.6661-.7221-7.2962-2.1251-10.6832-1.4029-3.3871-3.4592-6.4646-6.0515-9.0569s-5.6698-4.6486-9.0569-6.05154c-3.387-1.40294-7.0171-2.12503-10.6832-2.12503z" fill="#fff"/></svg>