<svg fill="none" height="27" viewBox="0 0 27 27" width="27" xmlns="http://www.w3.org/2000/svg" xmlns:xlink="http://www.w3.org/1999/xlink"><clipPath id="a"><path d="m0 0h27v27h-27z"/></clipPath><g clip-path="url(#a)"><path clip-rule="evenodd" d="m19.2275 14.7274c-4.0667 0-7.3637-3.297-7.3637-7.36369 0-4.06674 3.297-7.36371 7.3637-7.36371 4.0668 0 7.3637 3.29697 7.3637 7.36371 0 4.06669-3.2969 7.36369-7.3637 7.36369zm0-.8184c3.6156 0 6.5454-2.9309 6.5454-6.54534 0-3.61557-2.9301-6.545344-6.5454-6.545344-3.6145 0-6.5453 2.930044-6.5453 6.545344 0 3.61444 2.9308 6.54534 6.5453 6.54534zm-3.068-5.31873c-1.0167 0-1.8404-.82372-1.8404-1.84043s.8237-1.84043 1.8404-1.84043 1.8415.82372 1.8415 1.84043-.8248 1.84043-1.8415 1.84043zm5.7281.81842c-1.0167 0-1.8415-.82372-1.8415-1.84043s.8248-1.84148 1.8415-1.84148 1.8404.82477 1.8404 1.84148-.8237 1.84043-1.8404 1.84043zm-14.11373 17.59101c-4.06674 0-7.363714-3.2969-7.363714-7.3637 0-4.0667 3.296974-7.3637 7.363714-7.3637 4.06673 0 7.36373 3.297 7.36373 7.3637 0 4.0668-3.297 7.3637-7.36373 7.3637zm0-.8184c3.61453 0 6.54533-2.93 6.54533-6.5453 0-3.6145-2.9308-6.5454-6.54533-6.5454-3.61557 0-6.54534 2.9309-6.54534 6.5454 0 3.6155 2.93004 6.5453 6.54534 6.5453zm-2.86335-4.9086c-1.13063 0-2.04609-.9165-2.04609-2.0461s.91546-2.045 2.04609-2.045c1.12957 0 2.04503.9154 2.04503 2.045s-.91546 2.0461-2.04503 2.0461zm0-.8184c.6771 0 1.22661-.5495 1.22661-1.2277 0-.6771-.54951-1.2266-1.22661-1.2266-.67816 0-1.22767.5495-1.22767 1.2266 0 .6782.54951 1.2277 1.22767 1.2277zm5.72698 1.6358c-1.12959 0-2.0461-.9155-2.0461-2.045 0-1.1296.91651-2.0451 2.0461-2.0451 1.1296 0 2.045.9155 2.045 2.0451 0 1.1295-.9154 2.045-2.045 2.045zm0-.8174c.6781 0 1.2266-.5495 1.2266-1.2276 0-.6782-.5484-1.2277-1.2266-1.2277s-1.22768.5495-1.22768 1.2277c0 .6781.54951 1.2276 1.22768 1.2276z" fill="#262626" fill-rule="evenodd"/></g></svg>