<svg fill="none" height="28" viewBox="0 0 28 28" width="28" xmlns="http://www.w3.org/2000/svg"><g fill="#262626"><path d="m19.25.875c-4.3422 0-7.875 3.53276-7.875 7.875 0 4.3422 3.5328 7.875 7.875 7.875s7.875-3.5328 7.875-7.875c0-4.34224-3.5328-7.875-7.875-7.875zm0 14.875c-3.8598 0-7-3.1402-7-7s3.1402-7 7-7 7 3.1402 7 7-3.1402 7-7 7z"/><path d="m.875 21.4374c0 3.1357 2.55172 5.6873 5.68736 5.6873s5.68734-2.5517 5.68734-5.6873c0-3.1357-2.5517-5.6874-5.68734-5.6874s-5.68736 2.5517-5.68736 5.6874zm5.68736-4.8127c2.65345 0 4.81264 2.1591 4.81264 4.8127 0 2.6535-2.15905 4.8126-4.81264 4.8126s-4.81264-2.1591-4.81264-4.8126c0-2.6536 2.15905-4.8127 4.81264-4.8127z"/><path d="m24.5 22.75c0-2.4128-1.9622-4.375-4.375-4.375s-4.375 1.9622-4.375 4.375 1.9622 4.375 4.375 4.375 4.375-1.9622 4.375-4.375zm-7.875 0c0-1.9294 1.5706-3.5 3.5-3.5s3.5 1.5706 3.5 3.5-1.5706 3.5-3.5 3.5-3.5-1.5706-3.5-3.5z"/><path d="m6.5625 14.875c1.44813 0 2.625-1.1769 2.625-2.625s-1.17687-2.625-2.625-2.625-2.625 1.1769-2.625 2.625 1.17687 2.625 2.625 2.625zm0-4.375c.96468 0 1.75.7853 1.75 1.75s-.78532 1.75-1.75 1.75-1.75-.7853-1.75-1.75.78532-1.75 1.75-1.75z"/><path d="m6.125 4.375c.96468 0 1.75-.78532 1.75-1.75s-.78532-1.75-1.75-1.75-1.75.78532-1.75 1.75.78532 1.75 1.75 1.75zm0-2.625c.48236 0 .875.39264.875.875s-.39264.875-.875.875-.875-.39264-.875-.875.39264-.875.875-.875z"/><path d="m25.8125 15.3125c-.7241 0-1.3125.5884-1.3125 1.3125 0 .724.5884 1.3125 1.3125 1.3125s1.3125-.5885 1.3125-1.3125c0-.7241-.5884-1.3125-1.3125-1.3125zm0 1.75c-.2417 0-.4375-.1969-.4375-.4375s.1958-.4375.4375-.4375.4375.1969.4375.4375-.1958.4375-.4375.4375z"/></g></svg>