<svg fill="none" height="50" viewBox="0 0 50 50" width="50" xmlns="http://www.w3.org/2000/svg"><path d="m0 0h50v50h-50z" fill="#f7df1e"/><g fill="#000"><path d="m13.1485 41.7858 3.8264-2.3156c.7381 1.3088 1.4097 2.4162 3.0204 2.4162 1.5439 0 2.5173-.604 2.5173-2.9532v-15.9762h4.6988v16.0426c0 4.8667-2.8527 7.0819-7.0147 7.0819-3.7588 0-5.9407-1.9468-7.0483-4.2961"/><path d="m29.7617 41.2815 3.8259-2.2152c1.0071 1.6448 2.3161 2.853 4.6318 2.853 1.9469 0 3.1884-.9735 3.1884-2.316 0-1.611-1.2753-2.1817-3.4234-3.1211l-1.1743-.5038c-3.3901-1.443-5.6389-3.2553-5.6389-7.0816 0-3.5241 2.685-6.2093 6.8805-6.2093 2.9872 0 5.1352 1.0406 6.6789 3.7592l-3.6584 2.3493c-.8056-1.4431-1.6779-2.0136-3.0204-2.0136-1.3761 0-2.2488.8726-2.2488 2.0136 0 1.4097.8727 1.9804 2.8863 2.8531l1.1746.5034c3.994 1.7118 6.2428 3.4569 6.2428 7.3837 0 4.2292-3.3227 6.5448-7.7865 6.5448-4.3632 0-7.1825-2.0808-8.5584-4.7995"/></g></svg>