<svg height="460.24014" width="242.75197" xmlns="http://www.w3.org/2000/svg"><g transform="translate(-2.168 -2.9854)"><path d="m82.6262 243.321s-11.9391 7.2672 8.30525 9.34351c24.3967 3.11437 37.3741 2.59576 64.3663-2.59534 0 0 7.2672 4.67165 17.1297 8.30546-60.7327 25.9542-137.557-1.5577-89.8013-15.0536zm-7.78643-33.7402s-12.9769 9.86233 7.2672 11.9386c26.4735 2.59576 47.2368 3.11437 83.0534-4.15263 0 0 4.67186 5.19089 12.4579 7.78643-73.1906 21.8016-155.206 2.07631-102.778-15.5725zm143.267 59.1754s8.82449 7.26741-9.86254 12.9769c-34.7787 10.3818-145.863 13.4961-177.008 0-10.9006-4.67144 9.86275-11.4198 16.6105-12.4579 6.74817-1.55708 10.3816-1.55708 10.3816-1.55708-11.9384-8.30546-79.4195 17.1295-34.2595 24.3967 124.061 20.2443 226.321-8.82428 194.137-23.3587zm-129.771-94.4732s-56.5799 13.4961-20.2439 18.1678c15.5725 2.0761 46.1983 1.5575 74.7481-.51903 23.3585-2.07631 46.7176-6.22894 46.7176-6.22894s-8.30546 3.63339-14.0156 7.26741c-57.6179 15.053-168.183 8.30504-136.519-7.26741 26.9923-12.9773 49.3125-11.4198 49.3125-11.4198zm101.222 56.5799c58.1372-30.1069 31.1451-59.1754 12.4579-55.5416-4.67186 1.03805-6.74817 2.07631-6.74817 2.07631s1.55729-3.11457 5.19068-4.15263c36.8552-12.9773 65.9238 38.9309-11.9384 59.1752 0 0 .51861-.51903 1.03805-1.55729zm-95.5117 82.0153c56.0613 3.63381 141.71-2.07631 143.786-28.5494 0 0-4.15242 10.3818-46.1981 18.1676-47.7558 8.8247-106.931 7.78643-141.71 2.07631 0 0 7.26699 6.22915 44.122 8.30546z" fill="#4e7896"/><path d="m154.26 2.98539s32.1832 32.7022-30.6261 82.0153c-50.3512 39.9692-11.4198 62.8088 0 88.7629-29.5878-26.4728-50.8702-49.8319-36.336-71.6335 21.2828-32.1832 79.939-47.7554 66.9621-99.1446zm-16.6105 148.977c15.053 17.1299-4.15283 32.7026-4.15283 32.7026s38.4121-19.7253 20.7633-44.1224c-16.0919-23.3585-28.5498-34.7783 38.9311-73.7098 0 0-106.412 26.4735-55.5416 85.1297zm-38.4123 278.748v-50.8702c0-12.9775-7.2672-21.8016-25.4354-21.8016-10.3816 0-19.2061 2.59534-26.9925 5.7097l2.59576 9.34351c5.7097-2.07631 12.9769-4.15283 20.7633-4.15283 9.86254 0 14.5342 4.15283 14.5342 12.4583v6.74817h-5.19068c-24.9162 0-36.336 9.34351-36.336 24.3967 0 12.4581 7.78623 19.7253 21.8016 19.7253 8.82428 0 15.5727-4.15283 21.8016-9.34351l1.03826 7.78643h11.4198zm-14.5346-16.6109c-5.19068 4.67165-10.9008 7.26741-16.0917 7.26741-6.74776 0-10.9004-4.15263-10.9004-11.4198 0-7.26741 4.15263-12.4581 20.7633-12.4581h6.22873v16.6105zm63.3285 16.6109h-18.1684l-21.8014-71.1147h15.5727l13.4961 43.603 3.11437 12.9771c6.74817-18.6868 11.9393-37.8933 14.0156-56.5801h15.5725c-4.15263 23.3589-11.4196 48.7937-21.8014 71.1147zm84.0914 0v-50.8702c0-12.9775-7.2672-21.8016-25.4352-21.8016-10.3818 0-19.2061 2.59534-26.9925 5.7097l2.07652 9.34351c6.22894-2.07631 13.4961-4.15283 21.2826-4.15283 9.86254 0 14.5342 4.15283 14.5342 12.4583v6.74817h-5.19068c-24.9162 0-36.336 9.34351-36.336 24.3967 0 12.4581 7.2672 19.7253 21.2824 19.7253 9.34351 0 16.0917-4.15283 22.3208-9.34351l1.03826 7.78643h11.4196zm-14.5344-16.6109c-5.19068 4.67165-10.9008 7.26741-16.0919 7.26741-6.74776 0-10.9004-4.15263-10.9004-11.4198 0-7.26741 4.15263-12.4581 20.7633-12.4581h6.22894v16.6105zm-190.504 28.5496c-4.15263 6.22894-10.3818 10.901-18.1676 13.4961l-6.74838-8.30546c5.19068-3.11437 10.3818-7.78581 12.4579-11.9386 2.07631-3.6336 2.59576-8.8247 2.59576-20.7633v-80.977h15.5725v79.9388c0 16.0915-1.55729 22.3204-5.71012 28.5496z" fill="#f58219"/></g></svg>