<svg fill="none" height="35" viewBox="0 0 35 35" width="35" xmlns="http://www.w3.org/2000/svg"><path d="m5.26172 24.5115 3.9305 3.9281 11.97248-11.9725-3.9295-3.928z" fill="#fff"/><path d="m21.4547 9.8957c-.2106-.21054-.4895-.32539-.7875-.32539-.2981 0-.577.11484-.7862.32539l-2.2599 2.26 3.928 3.928 2.2614-2.2613c.2091-.2078.324-.4867.324-.7834 0-.2981-.1149-.5783-.324-.7875z" fill="#fff"/><path d="m23.9556 19.0234c-.7533 0-1.3658.6125-1.3658 1.3658 0 .7506.6125 1.3618 1.3658 1.3618.7506 0 1.3618-.6112 1.3618-1.3618 0-.7533-.6112-1.3658-1.3618-1.3658z" fill="#ffd037"/><path d="m1.73164 28.0418c-.20918.2105-.32539.4894-.32539.7875 0 .298.11484.5783.32539.7875l2.35431 2.3543c.21055.2105.48944.3254.7875.3254.29805 0 .57831-.1149.7875-.3254l3.14318-3.1432-3.9305-3.9295z" fill="#fff"/><g fill="#ffd037"><path d="m8.39085 11.8488-.36369 1.1102.94609-.6891c.0957-.0697.22558-.0697.32265 0l.9461.6891-.3637-1.1102c-.03691-.1135.00274-.2365.09981-.3062l.94879-.6863-1.17031.0027c-.11894 0-.22421-.0766-.25976-.1901l-.35956-1.11421-.36092 1.11561c-.03691.1121-.14218.1887-.25976.1887l-1.16893-.0028.94881.6864c.0916.0697.13125.1927.09434.3062z"/><path d="m13.225 7.6572c.7533 0 1.3658-.6125 1.3658-1.3658 0-.75058-.6125-1.36171-1.3658-1.36171-.7506 0-1.3617.61113-1.3617 1.36171 0 .7533.6111 1.3658 1.3617 1.3658z"/><path d="m31.8504 16.3537c-.119 0-.2242-.0765-.2598-.19l-.3595-1.1129-.3596 1.1129c-.0369.1135-.1422.19-.2598.19l-1.1703-.0027.9488.6863c.0957.0697.1367.1941.0998.3062l-.3637 1.1102.9448-.6891c.0478-.0355.1039-.0519.1613-.0519.056 0 .1135.0178.1613.0519l.9461.6891-.3637-1.1102c-.0369-.1134.0028-.2365.0998-.3062l.9488-.6863-1.1703.0027h-.0041z"/><path d="m20.2098 5.61035-.3637 1.11699.9474-.69045c.0957-.06972.2256-.06972.3227 0l.9461.68908-.3651-1.11562c-.0369-.11348.0028-.23653.0998-.30625l.9461-.68222-1.1689.00273c-.119 0-.2242-.07656-.2598-.19004l-.3595-1.11426-.361 1.11426c-.0369.11211-.1422.18867-.2597.18867l-1.1662-.00273.9447.68222c.0943.07109.134.19551.0971.30762z"/><path d="m31.1371 7.25019c0-1.02813-.8354-1.86347-1.8635-1.86347s-1.8634.83534-1.8634 1.86347c0 1.02676.8353 1.86347 1.8634 1.86347 1.0281-.00137 1.8635-.83671 1.8635-1.86347z"/></g></svg>