<svg height="44" width="155" xmlns="http://www.w3.org/2000/svg" xmlns:xlink="http://www.w3.org/1999/xlink"><mask id="a" fill="#fff"><path d="m0 0h15.027v24h-15.027z" fill="#fff" fill-rule="evenodd"/></mask><mask id="b" fill="#fff"><path d="m0 .016h27v32.984h-27z" fill="#fff" fill-rule="evenodd"/></mask><mask id="c" fill="#fff"><path d="m0 0h27v33.797h-27z" fill="#fff" fill-rule="evenodd"/></mask><g fill="none" fill-rule="nonzero"><path d="m114.297 33.328c-5.293 0-8.582-3.066-8.582-8.008 0-5.129 3.035-8.32 7.922-8.32h.41c.613 0 1.457.02 2.61.164v-6.191h3.452v21.797s-3.28.558-5.812.558m-.031-13.61c-3.344 0-4.97 1.805-4.97 5.516 0 3.332 1.962 5.403 5.114 5.403.606 0 1.3-.04 2.246-.121v-10.576c-.945-.152-1.707-.222-2.39-.222m-47.254 13.11-9.325-16.273-.003 16.273h-3.25v-20.601h4.55l9.325 16.128-.004-16.128h3.293v20.601zm29.703.317c-1.57 0-3.207-.176-5.156-.551l-.211-.04v-2.878l.308.066c1.719.367 3.203.68 4.688.68 1.199 0 3.992-.188 3.992-1.953 0-1.48-1.93-1.852-3.48-2.149l-.098-.02c-.29-.054-.563-.109-.793-.167-2.274-.59-4.7-1.477-4.7-4.524 0-2.972 2.352-4.675 6.454-4.675 1.969 0 3.398.21 4.547.382l.558.082v2.793l-.297-.054c-1.3-.239-2.824-.485-4.289-.485-1.629 0-3.562.305-3.562 1.754 0 1.203 1.582 1.547 3.414 1.946 2.562.554 5.738 1.25 5.738 4.746 0 3.207-2.59 5.047-7.113 5.047m33.085 0c-3.573 0-6.882-.63-6.882-5.192 0-4.965 5.117-4.965 8.176-4.965.304 0 1.742.067 2.183.086-.004-2.785-.039-3.449-4.078-3.449-1.601 0-3.379.316-4.949.598l-.3.054v-2.75l.202-.043c1.82-.37 3.575-.55 5.364-.55 3.914 0 7.23.394 7.23 5.25v10.59l-.238.027c-2.711.304-4.863.344-6.707.344m1.207-7.7c-2.95 0-4.778.434-4.778 2.594 0 2.5 2.332 2.707 4.52 2.707.816 0 2.285-.105 2.734-.137v-5.078c-.632-.027-2.277-.086-2.476-.086m-49.645 7.7c-3.578 0-6.886-.63-6.886-5.192 0-4.965 5.117-4.965 8.175-4.965.305 0 1.746.067 2.188.086-.004-2.785-.043-3.449-4.082-3.449-1.602 0-3.38.316-4.95.598l-.3.054v-2.75l.207-.043a26.55 26.55 0 0 1 5.36-.55c3.913 0 7.23.394 7.23 5.25v10.59l-.239.027c-2.71.304-4.863.344-6.703.344m1.203-7.7c-2.949 0-4.773.434-4.773 2.594 0 2.5 2.328 2.707 4.516 2.707.82 0 2.289-.105 2.738-.137v-5.078c-.637-.027-2.281-.086-2.48-.086" fill="#231f20"/><path d="m11.492 23.828v-6.758c-1.347.188-2.062.188-2.64.188-1.368 0-2.887-.297-4.063-.793-2.633-1.095-4.203-3.875-4.203-7.442 0-1.78.434-5.035 3.336-6.789 1.457-.87 3.176-1.242 5.762-1.242.925 0 2.175.07 3.382.14l1.961.102v21.028zm-2.066-20.117c-3.508-.001-5.286 1.789-5.286 5.312 0 4.536 2.652 5.489 4.882 5.489.543 0 1.153 0 2.504-.172v-10.531c-1.058-.07-1.547-.098-2.101-.098z" fill="#231f20" mask="url(#a)" transform="translate(139 16)"/><g fill="#0996c7"><path d="m14.012.016-11.418 31.37a2.19 2.19 0 0 1 -1.836 1.427v.015h12.07c.945 0 1.754-.601 2.055-1.441l11.422-31.371z" mask="url(#b)" transform="translate(25)"/><path d="m24.773 32.352c.7 0 1.313-.348 1.688-.875.039-.055.176-.247.273-.508l4.188-11.512-2.45-6.723a2.07 2.07 0 0 0 -3.597-.398c-.04.055-.203.3-.273.508l-4.188 11.508 2.461 6.75a2.067 2.067 0 0 0 1.898 1.25"/><path d="m26.668.984h-12.203c-.945 0-1.754.598-2.059 1.442l-11.418 31.37h12.293l11.419-31.369a2.187 2.187 0 0 1 1.968-1.439z" mask="url(#c)" transform="translate(-1 10)"/></g></g></svg>