<svg fill="#fff" height="100pt" viewBox="0 0 100 100" width="100pt" xmlns="http://www.w3.org/2000/svg"><path d="m69.301 2.5c-12 0-21.699 8.6016-21.699 19.102 0 5.3008 2.3984 10 6.3008 13.5-1.1992 1.6992-2.8984 3.6016-4.6992 4.8984-1.1016.80078-.5 2.5.80078 2.5 4.1016.10156 8.6992-1.3008 12.398-2.8008 2.1992.60156 4.5 1 6.8984 1 12 0 21.699-8.6016 21.699-19.102 0-10.496-9.6992-19.098-21.699-19.098zm-.19922 31.801c-1.5 0-2.8008-1.1992-2.8008-2.8008 0-1.5 1.1992-2.8008 2.8008-2.8008 1.5 0 2.8008 1.1992 2.8008 2.8008-.10156 1.6016-1.3008 2.8008-2.8008 2.8008zm3.3984-11.102c-1.3008 1.1016-1.3008 1.6016-1.3008 1.8008v1c0 .5-.39844.89844-.89844.89844h-2.5c-.5 0-.89844-.39844-.89844-.89844v-1c0-1.8984 1-3.6016 2.8984-5.1992 1.3984-1.1016 2.8984-2.5 2.8984-3.6992 0-1.8984-.89844-2.6992-3.1992-2.6992-3.5-.003906-3.5 2.4961-3.5 2.5977v.5c0 .5-.39844.89844-.89844.89844h-2.5c-.5 0-.89844-.39844-.89844-.89844l-.003906-.5c0-2.8008 2.1016-7 7.8984-7 5.4023 0 7.4023 3.6016 7.4023 7.1016s-2.8008 5.7969-4.5 7.0977z"/><path d="m41.199 29.699c0 4.8047-3.8945 8.6992-8.6992 8.6992s-8.6992-3.8945-8.6992-8.6992 3.8945-8.6992 8.6992-8.6992 8.6992 3.8945 8.6992 8.6992"/><path d="m45 45.398c-1.8008-3-5.1016-4.8008-8.6016-4.8008h-6.8984c-2.3008 0-4.5-.60156-6.5-1.6016-2.6016-1.3984-4.3984-3.8984-5-6.8008l-1.1992-7.1953c-.39844-2.1016-2.3984-3.5-4.6016-3.1016-2.1016.39844-3.5 2.3984-3.1016 4.6016l1.3008 7.1016c1 5.3008 4.1992 9.6992 8.8984 12.301 1.5.80078 3.1992 1.5 4.8984 1.8984l-2.1016 45.398c-.10156 2.3008 1.6016 4.3008 3.8984 4.3984 2.3008.10156 4.3008-1.6016 4.3984-3.8984l1.4102-25.699h1.3984l1.3984 25.602c.10156 2.1992 2 3.8984 4.1992 3.8984h.19922c2.3008-.10156 4.1016-2.1016 3.8984-4.3984l-1.793-39.102 5.8984 9.8008c.69922 1.1992 2 1.8984 3.3008 1.8984.69922 0 1.3984-.19922 2-.60156 1.8008-1.1016 2.3984-3.5 1.3008-5.3984z"/></svg>