<svg width="18" height="18" viewBox="0 0 18 18" fill="none" xmlns="http://www.w3.org/2000/svg">
<path d="M13.7191 3.00022H10.1247C9.91731 3.00022 9.74996 2.83218 9.74996 2.62476C9.74996 2.41805 9.91731 2.25 10.1247 2.25H14.6247C14.8321 2.25 14.9995 2.41805 14.9995 2.62476V7.12476C14.9995 7.33217 14.8321 7.50022 14.6247 7.50022C14.4173 7.50022 14.25 7.33218 14.25 7.12476V3.53034L7.38962 10.39C7.24337 10.5362 7.00572 10.5362 6.85947 10.39C6.71322 10.2437 6.71322 10.0061 6.85947 9.85981L13.7191 3.00022ZM12 13.5V7.87498C12 7.66757 12.1673 7.50022 12.3748 7.50022C12.5822 7.50022 12.7495 7.66757 12.7495 7.87498V13.8747C12.7495 14.0822 12.5822 14.2502 12.3748 14.2502H3.37476C3.16735 14.2502 3 14.0822 3 13.8747V4.87474C3 4.66803 3.16734 4.49998 3.37476 4.49998H9.37452C9.58193 4.49998 9.74998 4.66803 9.74998 4.87474C9.74998 5.08216 9.58194 5.2502 9.37452 5.2502H3.74952V13.5L12 13.5Z" fill="#716308"/>
</svg>
