<svg enable-background="new 0 0 158.253 40.686" height="40.686" viewBox="0 0 158.253 40.686" width="158.253" xmlns="http://www.w3.org/2000/svg"><g fill="#fff"><path d="m65.327 23.208h-6.589v11.388h-4.393v-28.958h10.981c5.653 0 9.271 3.742 9.271 8.785s-3.618 8.785-9.27 8.785zm-.245-13.625h-6.345v9.639h6.345c3.05 0 5.124-1.749 5.124-4.799 0-3.051-2.074-4.84-5.124-4.84z"/><path d="m83.969 34.596c-3.904 0-5.652-2.644-5.652-5.693v-23.265h4.148v23.021c0 1.587.567 2.399 2.235 2.399h1.83v3.538z"/><path d="m104.762 32.399c-1.344 1.384-3.377 2.44-6.184 2.44-2.805 0-4.799-1.058-6.141-2.44-1.951-2.032-2.439-4.637-2.439-8.134 0-3.457.488-6.061 2.439-8.094 1.342-1.383 3.336-2.44 6.141-2.44 2.807 0 4.84 1.059 6.184 2.44 1.951 2.033 2.439 4.637 2.439 8.094.002 3.498-.488 6.101-2.439 8.134zm-3.133-13.786c-.773-.773-1.83-1.181-3.051-1.181-1.219 0-2.236.406-3.01 1.181-1.26 1.261-1.422 3.416-1.422 5.652s.162 4.393 1.422 5.653c.773.771 1.791 1.22 3.01 1.22 1.221 0 2.277-.447 3.051-1.22 1.262-1.262 1.424-3.417 1.424-5.653s-.162-4.392-1.424-5.652z"/><path d="m123.643 34.596v-12.567c0-3.214-1.83-4.597-4.147-4.597s-4.271 1.423-4.271 4.597v12.566h-4.147v-20.62h4.065v2.074c1.425-1.546 3.416-2.318 5.49-2.318 2.115 0 3.865.691 5.084 1.871 1.586 1.545 2.074 3.497 2.074 5.815v13.178z"/><path d="m135.772 25.486c0 3.537 1.871 5.774 5.246 5.774 2.317 0 3.539-.649 5.004-2.115l2.643 2.481c-2.115 2.114-4.107 3.213-7.727 3.213-5.166 0-9.273-2.725-9.273-10.574 0-6.671 3.457-10.534 8.744-10.534 5.531 0 8.744 4.067 8.744 9.925v1.83zm8.703-5.695c-.65-1.545-2.113-2.604-4.066-2.604-1.951 0-3.457 1.059-4.107 2.604-.406.936-.488 1.546-.529 2.807h9.273c-.043-1.261-.163-1.872-.571-2.807z"/><circle cx="17.815" cy="11.516" r="4.402"/><path d="m31.167 20.311c0 2.433-1.969 4.401-4.403 4.401-2.427 0-4.401-1.97-4.401-4.401 0-2.433 1.975-4.401 4.401-4.401 2.436-.001 4.403 1.969 4.403 4.401z"/><circle cx="17.801" cy="29.131" r="4.402"/><path d="m20.441-.045c-11.234.001-20.341 9.108-20.342 20.343.001 11.234 9.108 20.341 20.342 20.343 11.235-.002 20.341-9.107 20.343-20.343-.001-11.235-9.107-20.342-20.343-20.343zm11.45 31.792c-2.937 2.934-6.972 4.742-11.45 4.743-4.478-.001-8.513-1.811-11.45-4.743-2.933-2.937-4.741-6.972-4.742-11.449.001-4.478 1.809-8.513 4.743-11.45 2.937-2.934 6.972-4.742 11.45-4.743 4.478.001 8.513 1.81 11.45 4.743 2.934 2.938 4.742 6.973 4.743 11.45-.002 4.477-1.81 8.512-4.744 11.449z"/><path d="m153.985 9.95c-1.195 0-2.164.971-2.164 2.168.002 1.197.969 2.168 2.164 2.168 1.199 0 2.172-.971 2.172-2.168s-.973-2.168-2.172-2.168zm0 4.018c-1.021-.002-1.846-.827-1.846-1.85.002-1.021.825-1.849 1.846-1.851 1.023.002 1.852.828 1.854 1.851-.003 1.023-.831 1.848-1.854 1.85z"/><path d="m154.507 13.409-.54-1.08h-.486v1.08h-.389v-2.564h.994c.484 0 .796.313.796.75 0 .367-.224.602-.513.68l.592 1.136zm-.451-2.214h-.575v.803h.575c.261 0 .437-.147.437-.399s-.176-.404-.437-.404z"/></g></svg>