<svg width="200" height="84" viewBox="0 0 200 84" fill="none" xmlns="http://www.w3.org/2000/svg">
<path d="M81.5959 23.4524C81.6088 23.4308 81.6217 23.4091 81.6329 23.3869L81.6374 23.3795L81.6369 23.3789C81.7064 23.2404 81.7463 23.0849 81.7463 22.919C81.7463 22.5475 81.5488 22.2232 81.2559 22.0465C81.2525 22.0431 81.2497 22.0374 81.2463 22.0363C75.0727 18.6158 66.8293 19.4245 61.371 25.1279C58.307 28.3295 56.7421 32.4476 56.6613 36.5855H56.6562V52.8319C56.6562 53.3921 57.104 53.8469 57.6561 53.8469H62.3215C62.8736 53.8469 63.3214 53.3921 63.3214 52.8319V36.924H63.3242C63.3242 34.3732 64.2617 31.8201 66.1504 29.8466C69.5214 26.3247 74.4976 26.0602 77.9292 27.9147C77.9399 27.9209 77.9511 27.9261 77.9618 27.9318C77.9696 27.9358 77.9775 27.9397 77.9853 27.9437H77.9864C78.1166 28.0064 78.2614 28.0423 78.4145 28.0423C78.8045 28.0423 79.1423 27.8144 79.3067 27.4833L81.5959 23.4524Z" fill="#5237E6"/>
<path d="M36.6614 20.0001C27.4596 20.0001 20 27.5768 20 36.923V62.9851C20 63.5453 20.4472 64.0001 20.9999 64.0001H25.6653C26.2174 64.0001 26.6651 63.5453 26.6651 62.9851V50.4624C29.4498 52.5869 32.9111 53.8464 36.662 53.8464C45.8632 53.8464 53.3239 46.2697 53.3239 36.9235C53.3234 27.5768 45.8632 20.0001 36.6614 20.0001ZM36.6614 47.0772C31.1403 47.0772 26.6646 42.5312 26.6646 36.923C26.6646 31.3153 31.1403 26.7693 36.6614 26.7693C42.1825 26.7693 46.6588 31.3153 46.6588 36.923C46.6588 42.5307 42.1825 47.0772 36.6614 47.0772Z" fill="#5237E6"/>
<path d="M134.916 20C125.715 20 118.255 27.5767 118.255 36.9229V62.985C118.255 63.5452 118.703 64 119.255 64H123.92C124.472 64 124.92 63.5452 124.92 62.985V50.4628C127.705 52.5874 131.166 53.8468 134.917 53.8468C144.118 53.8468 151.579 46.2702 151.579 36.924C151.578 27.5767 144.118 20 134.916 20ZM134.916 47.0771C129.395 47.0771 124.919 42.5311 124.919 36.9229C124.919 31.3151 129.395 26.7691 134.916 26.7691C140.437 26.7691 144.913 31.3151 144.913 36.9229C144.913 42.5306 140.437 47.0771 134.916 47.0771Z" fill="#5237E6"/>
<path d="M114.806 37.2614C114.806 27.9146 107.345 20 98.1438 20C88.942 20 81.4824 27.5767 81.4824 36.9229C81.4824 46.269 88.942 53.8457 98.1438 53.8457C103.352 53.8457 107.649 51.4214 110.343 48.4477C110.343 48.4477 110.343 48.4471 110.344 48.4466C110.346 48.4443 110.349 48.442 110.35 48.4397C110.527 48.2562 110.636 48.006 110.636 47.7297C110.636 47.4373 110.513 47.1746 110.319 46.9894V46.9882L110.305 46.9768C110.28 46.9535 110.253 46.9318 110.225 46.9113L106.661 43.9644C106.485 43.8077 106.255 43.7114 106.002 43.7114C105.688 43.7114 105.408 43.859 105.225 44.0886C103.641 45.7254 101.138 47.0771 98.1433 47.0771C92.6222 47.0771 88.1464 42.5311 88.1464 36.9229C88.1464 31.3151 92.6222 26.7691 98.1433 26.7691C102.495 26.7691 106.197 29.5952 107.569 33.5383H98.9759C98.4238 33.5383 97.9761 33.993 97.9761 34.5538V39.2924C97.9761 39.8532 98.4238 40.308 98.9759 40.308H113.472C113.499 40.308 113.525 40.3057 113.552 40.304C113.579 40.3063 113.606 40.308 113.633 40.308C114.077 40.308 114.453 40.0139 114.584 39.607L114.595 39.6087C114.6 39.5723 114.606 39.5369 114.612 39.501C114.619 39.4663 114.625 39.4315 114.628 39.3956C114.745 38.6388 114.806 38.0985 114.806 37.2614Z" fill="#5237E6"/>
<path d="M179.887 23.3851L179.891 23.3777L179.891 23.3771C179.96 23.2386 180 23.083 180 22.9172C180 22.5456 179.803 22.2214 179.51 22.0447C179.506 22.0413 179.504 22.0356 179.5 22.0344C173.327 18.614 165.083 19.4226 159.625 25.1261C156.561 28.3277 154.996 32.4457 154.915 36.5837H154.91V52.8301C154.91 53.3903 155.358 53.8451 155.91 53.8451H160.575C161.128 53.8451 161.575 53.3903 161.575 52.8301V36.9222H161.578C161.578 34.3714 162.515 31.8183 164.404 29.8448C167.775 26.3229 172.751 26.0584 176.183 27.9128C176.193 27.9191 176.204 27.9242 176.215 27.9299C176.223 27.9339 176.231 27.9379 176.239 27.9419H176.24C176.37 28.0046 176.515 28.0411 176.668 28.0411C177.058 28.0411 177.396 27.8131 177.56 27.482L179.851 23.4523C179.863 23.4295 179.876 23.4079 179.887 23.3851Z" fill="#5237E6"/>
</svg>
