<svg fill="none" height="32" viewBox="0 0 32 32" width="32" xmlns="http://www.w3.org/2000/svg"><g fill="#262626"><path d="m24.5 25.5002h-1c-.0013 1.38-1.12 2.4987-2.5 2.5v1c1.9325-.0025 3.4976-1.5675 3.5002-3.5002z"/><path d="m11 29v-1c-1.38-.0013-2.49875-1.12-2.5-2.5h-1c.0025 1.9325 1.56749 3.4976 3.5002 3.5002z"/><path d="m16 24.9998c2.4887 0 4-5.9036 4-8.4998h-1c0 2.8938-1.6375 7.5002-3 7.5002s-3-4.6064-3-7.5002h-1c0 2.5963 1.5113 8.4998 4 8.4998z"/><path d="m8.67773 30.9989c.12 0 .24-.0062.36-.0187l6.96257-.7313 6.9673.73c.1213.0113.2363.0175.3501.0175 2.0325.0025 3.6825-1.7925 3.6825-3.9974.0113-1.1688-.4725-2.2863-1.3312-3.0788-.7313-.6737-1.7163-1.0012-2.7063-.9l-1.8575.195h.0013c1.15-1.8862 1.8012-4.0336 1.8937-6.24-.0037-1.44-.4525-2.8437-1.285-4.0189-.8325-1.175-2.0075-2.0649-3.3651-2.5449 1.3225-.70379 2.26-1.96379 2.555-3.43268.295-1.4689-.085-2.99251-1.035-4.15136-.95-1.16-2.3687-1.831266-3.8675-1.831266s-2.9175.671266-3.8675 1.831266c-.95 1.15875-1.33 2.68249-1.035 4.15136.2949 1.46886 1.2325 2.72873 2.555 3.43268-1.3588.48-2.535 1.3687-3.3674 2.5437-.83375 1.175-1.28373 2.5788-1.28748 4.0198.0925 2.2063.74375 4.3527 1.89378 6.2375l-1.86251-.195c-.12125-.0113-.23625-.0175-.35002-.0175-2.03126-.0013-3.68128 1.7937-3.68128 3.9987-.01125 1.1687.47251 2.2862 1.33127 3.0788.64.5887 1.47625.9175 2.34624.9212zm3.32257-24.99995c0-1.6175.975-3.07626 2.4687-3.69504 1.495-.62 3.2163-.2775 4.36.86624 1.1438 1.14374 1.4863 2.86499.8663 4.36-.6188 1.49376-2.0775 2.46874-3.6951 2.46874-2.2075-.0025-3.9974-1.79252-4-4zm4 4.99995c1.5875-.0012 3.1113.6275 4.2361 1.7475 1.1238 1.12 1.7588 2.6413 1.7638 4.2288 0 3.3988-2.8038 9.0237-6 9.0237-3.1963 0-6-5.6249-6-9.0237.005-1.5875.64-3.1087 1.7637-4.2288 1.125-1.12 2.6488-1.7487 4.2362-1.7475zm-7.32001 13c.08375 0 .16875.0038.25.0125l2.68751.2825c1.2025 1.5875 2.725 2.705 4.3824 2.705s3.18-1.1175 4.3801-2.705l2.6875-.2825c.7075-.0687 1.4113.1676 1.9325.6513.6488.6025 1.0113 1.4513 1 2.3363 0 1.6537-1.2 3-2.68 3-.0837 0-.1687-.0038-.2525-.0125l-7.0176-.7375c-.035-.0038-.07-.0038-.1037 0l-7.01506.735c-.70748.07-1.40998-.1663-1.93126-.6488-.64874-.6025-1.01126-1.4512-1-2.3362 0-1.6538 1.2-3 2.68-3z"/></g></svg>