<svg fill="none" height="25" viewBox="0 0 25 25" width="25" xmlns="http://www.w3.org/2000/svg" xmlns:xlink="http://www.w3.org/1999/xlink"><clipPath id="a"><path d="m0 0h25v25h-25z"/></clipPath><g clip-path="url(#a)" fill="#262626"><path d="m3.71107 7.50001c-.21485-.44922-.46875-.72265-.85938-.9375-.09765-.05859-.17578-.11719-.2539-.17578l-.54687.29298.09765-.625c.03907-.27345-.03906-.54688-.23437-.72265l-.44922-.44923.62499-.09765c.2539-.03907.48828-.21485.60548-.44923l.27345-.58595.27345.58595c.11719.23438.35155.41015.60547.44923l.54688.07812c.17578-.27345.3711-.5078.58595-.7422l-1.01563-.15625-.76172-1.6211c-.0586-.13672-.15625-.19531-.23438-.19531-.07812 0-.17578.05859-.23437.19531l-.76173 1.60155-1.718745.2539c-.2929748.03906-.3515498.2539-.13672.44923l1.250005 1.26952-.29298 1.7578c-.03906.21485.03906.33203.17578.33203.0586 0 .11719-.01953.19531-.0586l1.54298-.83985.72265.39063z"/><path d="m7.18844 4.1211c.35155-.13672.2539-.6836-.0586-.6836-.03906 0-.07812 0-.11719.01953-1.1914.44923-2.1875 1.52345-2.61725 2.754-.2539-.3125-.5664-.58595-.95702-.78125-.0586-.01953-.11719-.03906-.15625-.03906-.3125 0-.5078.46875-.17578.625.52735.27345.85937.66405 1.1328 1.1914.05859.11719.17578.15625.29297.15625.15625 0 .29298-.07813.3125-.2539.21485-1.25 1.1328-2.539 2.34375-2.98825z"/><path d="m3.71107 14.9219c-.21485-.4492-.46875-.7227-.85938-.9375-.09765-.0586-.17578-.1172-.2539-.1758l-.54687.293.09765-.625c.03907-.2735-.03906-.5469-.23437-.7227l-.44922-.4492.62499-.0976c.2539-.0391.48828-.2149.60548-.4493l.27345-.5859.27345.5859c.11719.2344.35155.4102.60547.4493l.54688.0781c.17578-.2735.3711-.5078.58595-.7422l-1.01563-.1563-.76172-1.62107c-.0586-.13672-.15625-.19532-.23438-.19532-.07812 0-.17578.0586-.23437.19532l-.76173 1.60157-1.718745.2539c-.2929748.039-.3515498.2539-.13672.4492l1.250005 1.2695-.29298 1.7578c-.03906.2149.03906.3321.17578.3321.0586 0 .11719-.0196.19531-.0586l1.54298-.8399.72265.3906z"/><path d="m7.18844 11.543c.35155-.1367.2539-.6836-.0586-.6836-.03906 0-.07812 0-.11719.0195-1.1914.4492-2.1875 1.5235-2.61725 2.754-.2539-.3125-.5664-.5859-.95702-.7812-.0586-.0196-.11719-.0391-.15625-.0391-.3125 0-.5078.4687-.17578.625.52735.2734.85937.664 1.1328 1.1914.05859.1172.17578.1562.29297.1562.15625 0 .29298-.0781.3125-.2539.21485-1.25 1.1328-2.539 2.34375-2.9882z"/><path d="m3.71107 22.3438c-.21485-.4493-.46875-.7227-.85938-.9375-.09765-.0586-.17578-.1172-.2539-.1758l-.54687.293.09765-.625c.03907-.2735-.03906-.5469-.23437-.7227l-.44922-.4492.62499-.0977c.2539-.039.48828-.2148.60548-.4492l.27345-.5859.27345.5859c.11719.2344.35155.4102.60547.4492l.54688.0782c.17578-.2735.3711-.5079.58595-.7423l-1.01563-.1562-.76172-1.6211c-.0586-.1367-.15625-.1953-.23438-.1953-.07812 0-.17578.0586-.23437.1953l-.76173 1.6015-1.718745.2539c-.2929748.0391-.3515498.2539-.13672.4493l1.250005 1.25-.29298 1.7578c-.03906.2148.03906.332.17578.332.0586 0 .11719-.0195.19531-.0586l1.54298-.8398.72265.4101z"/><path d="m7.18844 18.9648c.35155-.1367.2539-.6836-.0586-.6836-.03906 0-.07812 0-.11719.0196-1.1914.4492-2.1875 1.5234-2.61725 2.754-.2539-.3125-.5664-.586-.95702-.7813-.0586-.0195-.11719-.039-.15625-.039-.3125 0-.5078.4687-.17578.625.52735.2734.85937.664 1.1328 1.1914.05859.1172.17578.1562.29297.1562.15625 0 .29298-.0781.3125-.2539.21485-1.25 1.1328-2.539 2.34375-2.9882z"/><path d="m24.9999 5.07812c0 .4297-.3125.78126-.7031.78126h-14.41399c-.39062 0-.70312-.35156-.70312-.78126 0-.42969.3125-.78124.70312-.78124h14.41399c.3906 0 .7031.35155.7031.78124z"/><path d="m24.9999 12.5c0 .4297-.3125.7812-.7031.7812h-14.41399c-.39062 0-.70312-.3515-.70312-.7812s.3125-.7812.70312-.7812h14.41399c.3906 0 .7031.3515.7031.7812z"/><path d="m24.9999 19.9219c0 .4297-.3125.7812-.7031.7812h-14.41399c-.39062 0-.70312-.3515-.70312-.7812s.3125-.7813.70312-.7813h14.41399c.3906 0 .7031.3516.7031.7813z"/></g></svg>