<svg fill="none" height="144" viewBox="0 0 144 144" width="144" xmlns="http://www.w3.org/2000/svg"><g fill="#f3f3f3"><path d="m71.05 23.68c-26.06 0-47.27 21.22-47.27 47.27s21.22 47.27 47.27 47.27 47.27-21.22 47.27-47.27-21.22-47.27-47.27-47.27zm-.07 4.2c.8083.0209 1.5764.3578 2.1405.9388.5642.581.8798 1.3601.8795 2.1712 0 .8248-.3276 1.6159-.9109 2.1991-.5832.5832-1.3742.9109-2.1991.9109-.8248 0-1.6158-.3277-2.1991-.9109-.5832-.5832-.9109-1.3743-.9109-2.1991-.0001-.4161.0832-.828.2451-1.2113s.399-.7303.6974-1.0203c.2984-.2899.652-.5171 1.0397-.668.3878-.1509.8019-.2225 1.2178-.2104zm7.12 5.12c5.4597 1.0226 10.6313 3.2214 15.1557 6.4438 4.5243 3.2223 8.2933 7.3909 11.0443 12.2162l-3.67 8.28c-.63 1.43.02 3.11 1.44 3.75l7.06 3.13c.219 2.2068.246 4.4285.08 6.64h-3.93c-.39 0-.55.26-.55.64v1.8c0 4.24-2.39 5.17-4.49 5.4-2 .23-4.21-.84-4.49-2.06-1.18-6.63-3.14-8.04-6.24-10.49 3.85-2.44 7.85-6.05 7.85-10.87 0-5.21-3.57-8.49-6-10.1-3.42-2.25-7.2-2.7-8.22-2.7h-40.6c5.614-6.2716 13.1391-10.5174 21.41-12.08l4.79 5.02c1.08 1.13 2.87 1.18 4 .09zm-44.2 23.02c.8092.0234 1.5773.3614 2.1412.9421s.8792 1.3584.8788 2.1679c0 .8248-.3276 1.6159-.9109 2.1991-.5832.5832-1.3742.9109-2.1991.9109-.8248 0-1.6158-.3277-2.1991-.9109-.5832-.5832-.9109-1.3743-.9109-2.1991-.0001-.4161.0832-.828.2451-1.2113s.399-.7303.6974-1.0203c.2984-.2899.652-.5171 1.0397-.668.3878-.1509.8019-.2225 1.2178-.2104zm74.15.14c.809.0234 1.577.3614 2.141.9421s.879 1.3584.879 2.1679c0 .8248-.328 1.6159-.911 2.1991s-1.374.9109-2.199.9109-1.616-.3277-2.199-.9109-.911-1.3743-.911-2.1991c0-.4161.083-.828.245-1.2113s.399-.7303.698-1.0203c.298-.2899.651-.5171 1.039-.668s.802-.2225 1.218-.2104zm-68.29.5h5.42v24.44h-10.94c-1.3511-4.7446-1.7722-9.7056-1.24-14.61l6.7-2.98c1.43-.64 2.08-2.31 1.44-3.74zm22.62.26h12.91c.67 0 4.71.77 4.71 3.8 0 2.51-3.1 3.41-5.65 3.41h-11.98zm0 17.56h9.89c.9 0 4.83.26 6.08 5.28.39 1.54 1.26 6.56 1.85 8.17.59 1.8 2.98 5.4 5.53 5.4h16.14c-1.082 1.4486-2.2646 2.8187-3.54 4.1l-6.57-1.41c-1.53-.33-3.04.65-3.37 2.18l-1.56 7.28c-5.0164 2.272-10.4642 3.435-15.9713 3.41-5.5072-.026-10.9438-1.241-15.9387-3.56l-1.56-7.28c-.33-1.53-1.83-2.51-3.36-2.18l-6.43 1.38c-1.1932-1.2308-2.3023-2.5405-3.32-3.92h31.27c.35 0 .59-.06.59-.39v-11.06c0-.32-.24-.39-.59-.39h-9.15zm-14.43 25.33c.8092.0234 1.5773.361 2.1412.942s.8792 1.359.8788 2.168c0 .825-.3276 1.616-.9109 2.199-.5832.583-1.3742.911-2.1991.911-.8248 0-1.6158-.328-2.1991-.911-.5832-.583-.9109-1.374-.9109-2.199-.0001-.416.0832-.828.2451-1.211.1619-.384.399-.731.6974-1.021s.652-.517 1.0397-.668c.3878-.1505.8019-.222 1.2178-.21zm46.05.14c.8092.0234 1.5773.361 2.1412.942s.8792 1.359.8788 2.168c0 .825-.3276 1.616-.9109 2.199-.5832.583-1.3742.911-2.1991.911-.8248 0-1.6158-.328-2.1991-.911-.5832-.583-.9109-1.374-.9109-2.199-.0001-.416.0832-.828.2451-1.211.1619-.384.399-.731.6974-1.021s.652-.517 1.0397-.668c.3878-.151.8019-.222 1.2178-.21z"/><path d="m115.68 70.95c0 11.8366-4.702 23.1884-13.072 31.558-8.3695 8.37-19.7213 13.072-31.5579 13.072-11.8367 0-23.1885-4.702-31.5582-13.072-8.3698-8.3696-13.0719-19.7214-13.0719-31.558s4.7021-23.1884 13.0719-31.5582c8.3697-8.3697 19.7215-13.0718 31.5582-13.0718 11.8366 0 23.1884 4.7021 31.5579 13.0718 8.37 8.3698 13.072 19.7216 13.072 31.5582zm-.84-4.31 6.96 4.31-6.96 4.31 5.98 5.59-7.66 2.87 4.78 6.65-8.09 1.32 3.4 7.46-8.19-.29 1.88 7.98-7.9799-1.88.2899 8.19-7.4599-3.4-1.3201 8.09-6.65-4.78-2.87 7.66-5.5899-5.98-4.31 6.96-4.3101-6.96-5.5899 5.98-2.8701-7.66-6.6499 4.78-1.32-8.09-7.4601 3.4.29-8.19-7.98 1.88 1.8801-7.98-8.1901.29 3.4-7.46-8.09-1.32 4.7801-6.65-7.66-2.87 5.9799-5.59-6.96-4.31 6.96-4.31-5.9799-5.59 7.66-2.87-4.7801-6.65 8.09-1.32-3.4-7.46 8.1901.29-1.8801-7.98 7.98 1.88-.29-8.19 7.4601 3.4 1.32-8.09 6.6499 4.78 2.8701-7.66 5.5899 5.98 4.3101-6.96 4.31 6.96 5.5899-5.98 2.87 7.66 6.65-4.78 1.3201 8.09 7.4599-3.4-.2899 8.19 7.9799-1.88-1.88 7.98 8.19-.29-3.4 7.46 8.09 1.32-4.78 6.65 7.66 2.87z" style="fill-rule:evenodd;clip-rule:evenodd;stroke:#f3f3f3;stroke-width:3;stroke-linecap:round;stroke-linejoin:round"/></g></svg>