<svg fill="none" height="448" viewBox="0 0 796 448" width="796" xmlns="http://www.w3.org/2000/svg"><path d="m596.314 72.1477c-.413.5896-1.043.9911-1.752 1.1161s-1.438-.0367-2.028-.4496l-14.806-10.3027c-.59-.4129-.991-1.0431-1.116-1.7519-.125-.7089.036-1.4384.449-2.028s1.043-.9911 1.752-1.1161 1.438.0367 2.028.4496l14.807 10.3027c.589.4129.991 1.043 1.116 1.7519s-.037 1.4384-.45 2.028z" fill="#fff"/><path d="m579.502 60.4425c-2.185 3.1215-5.247 5.5247-8.799 6.9059-3.551 1.3811-7.433 1.6781-11.153.8534s-7.112-2.7341-9.748-5.4867c-2.635-2.7526-4.394-6.2248-5.056-9.9775s-.196-7.6174 1.339-11.1053c1.534-3.4879 4.069-6.4424 7.283-8.4898 3.213-2.0475 6.962-3.096 10.772-3.0129s7.509 1.294 10.631 3.4796c4.181 2.9346 7.027 7.4078 7.914 12.4382.887 5.0305-.258 10.2075-3.183 14.3951zm-27.619-19.3388c-1.639 2.3411-2.547 5.1157-2.61 7.9729-.062 2.8573.724 5.6689 2.26 8.0792 1.536 2.4104 3.751 4.3112 6.367 5.4622s5.515 1.5004 8.329 1.0041c2.815-.4963 5.419-1.816 7.483-3.7924 2.065-1.9763 3.497-4.5204 4.115-7.3106.619-2.7902.396-5.7012-.64-8.3648s-2.838-4.9602-5.179-6.5994c-3.141-2.1939-7.023-3.0523-10.796-2.387s-7.128 2.8-9.329 5.9358z" fill="#fff"/><rect height="102" rx="9" stroke="#fff" stroke-width="2" width="641" x="1" y="1"/><rect fill="#ffd037" height="32" rx="8" width="503" x="140" y="159"/><rect fill="#fff" height="32" rx="8" width="503" x="140" y="250"/><rect fill="#fff" height="32" rx="8" width="503" x="140" y="341"/><rect fill="#ffd037" height="28" rx="8" width="407" x="46" y="38"/><path d="m701.031 72.0351 11.23 11.223 34.207-34.207-11.227-11.223z" fill="#fff"/><path d="m747.301 30.2695c-.602-.6015-1.399-.9297-2.25-.9297-.852 0-1.649.3282-2.246.9297l-6.457 6.457 11.223 11.223 6.461-6.4609c.597-.5937.925-1.3906.925-2.2383 0-.8515-.328-1.6523-.925-2.25z" fill="#fff"/><path d="m754.445 56.3438c-2.152 0-3.902 1.7499-3.902 3.9022 0 2.1445 1.75 3.8907 3.902 3.8907 2.145 0 3.891-1.7462 3.891-3.8907 0-2.1523-1.746-3.9022-3.891-3.9022z" fill="#ffd037"/><path d="m690.949 82.1176c-.597.6016-.929 1.3984-.929 2.25s.328 1.6523.929 2.25l6.727 6.7266c.601.6016 1.398.9297 2.25.9297.851 0 1.652-.3281 2.25-.9297l8.98-8.9805-11.23-11.227z" fill="#fff"/><g fill="#ffd037"><path d="m709.981 35.8476-1.04 3.1719 2.704-1.9688c.273-.1992.644-.1992.921 0l2.704 1.9688-1.04-3.1719c-.105-.3242.008-.6758.286-.875l2.71-1.9609-3.343.0078c-.34 0-.641-.2187-.743-.5429l-1.027-3.1836-1.031 3.1875c-.105.3203-.406.539-.742.539l-3.34-.0078 2.711 1.9609c.262.1992.375.5508.269.875z"/><path d="m723.785 23.8788c2.152 0 3.902-1.75 3.902-3.9023 0-2.1445-1.75-3.8906-3.902-3.8906-2.144 0-3.89 1.7461-3.89 3.8906 0 2.1523 1.746 3.9023 3.89 3.9023z"/><path d="m776.996 48.7188c-.34 0-.641-.2188-.742-.543l-1.027-3.1797-1.028 3.1797c-.105.3242-.406.543-.742.543l-3.344-.0078 2.711 1.9609c.274.1992.391.5546.285.875l-1.039 3.1719 2.699-1.9688c.137-.1016.297-.1485.461-.1485.161 0 .325.0508.461.1485l2.703 1.9688-1.039-3.1719c-.105-.3243.008-.6758.285-.875l2.711-1.9609-3.343.0078z"/><path d="m743.742 18.0273-1.039 3.1914 2.707-1.9727c.274-.1992.645-.1992.922 0l2.703 1.9688-1.043-3.1875c-.105-.3242.008-.6757.285-.875l2.703-1.9492-3.339.0078c-.34 0-.641-.2187-.743-.5429l-1.027-3.1836-1.031 3.1836c-.106.3203-.406.539-.742.539l-3.332-.0078 2.699 1.9492c.269.2031.383.5586.277.8789z"/><path d="m774.961 22.7148c0-2.9375-2.387-5.3242-5.324-5.3242-2.938 0-5.325 2.3867-5.325 5.3242 0 2.9336 2.387 5.3242 5.325 5.3242 2.937-.0039 5.324-2.3906 5.324-5.3242z"/></g></svg>