<svg fill="none" height="373" viewBox="0 0 643 373" width="643" xmlns="http://www.w3.org/2000/svg"><path d="m596.314 72.1477c-.413.5896-1.043.9911-1.752 1.1161s-1.438-.0367-2.028-.4496l-14.806-10.3027c-.59-.4129-.991-1.0431-1.116-1.7519-.125-.7089.036-1.4384.449-2.028s1.043-.9911 1.752-1.1161 1.438.0367 2.028.4496l14.807 10.3027c.589.4129.991 1.043 1.116 1.7519s-.037 1.4384-.45 2.028z" fill="#fff"/><path d="m579.502 60.4425c-2.185 3.1215-5.247 5.5247-8.799 6.9059-3.551 1.3811-7.433 1.6781-11.153.8534s-7.112-2.7341-9.748-5.4867c-2.635-2.7526-4.394-6.2248-5.056-9.9775s-.196-7.6174 1.339-11.1053c1.534-3.4879 4.069-6.4424 7.283-8.4898 3.213-2.0475 6.962-3.096 10.772-3.0129s7.509 1.294 10.631 3.4796c4.181 2.9346 7.027 7.4078 7.914 12.4382.887 5.0305-.258 10.2075-3.183 14.3951zm-27.619-19.3388c-1.639 2.3411-2.547 5.1157-2.61 7.9729-.062 2.8573.724 5.6689 2.26 8.0792 1.536 2.4104 3.751 4.3112 6.367 5.4622s5.515 1.5004 8.329 1.0041c2.815-.4963 5.419-1.816 7.483-3.7924 2.065-1.9763 3.497-4.5204 4.115-7.3106.619-2.7902.396-5.7012-.64-8.3648s-2.838-4.9602-5.179-6.5994c-3.141-2.1939-7.023-3.0523-10.796-2.387s-7.128 2.8-9.329 5.9358z" fill="#fff"/><rect height="102" rx="9" stroke="#fff" stroke-width="2" width="641" x="1" y="1"/><rect fill="#ffd037" height="32" rx="8" width="503" x="140" y="159"/><rect fill="#fff" height="32" rx="8" width="503" x="140" y="250"/><rect fill="#fff" height="32" rx="8" width="503" x="140" y="341"/><rect fill="#ffd037" height="28" rx="8" width="407" x="46" y="38"/><path d="m49.1751 191.728 9.0963 9.091 27.7077-27.708-9.0939-9.09z" fill="#fff"/><path d="m86.6538 157.899c-.4873-.488-1.1327-.753-1.8225-.753s-1.3352.265-1.8193.753l-5.2302 5.23 9.0906 9.09 5.2334-5.233c.4841-.481.7498-1.126.7498-1.813 0-.69-.2657-1.338-.7498-1.822z" fill="#fff"/><path d="m92.4404 179.019c-1.7433 0-3.1608 1.417-3.1608 3.161 0 1.737 1.4175 3.151 3.1608 3.151 1.7371 0 3.1514-1.414 3.1514-3.151 0-1.744-1.4143-3.161-3.1514-3.161z" fill="#ffd037"/><path d="m41.0088 199.895c-.4841.487-.753 1.132-.753 1.822s.2658 1.339.753 1.823l5.4486 5.448c.4873.488 1.1327.753 1.8225.753s1.3384-.265 1.8225-.753l7.2742-7.274-9.0963-9.094z" fill="#fff"/><g fill="#ffd037"><path d="m56.4238 162.417-.8417 2.569 2.1895-1.595c.2215-.161.5221-.161.7468 0l2.1895 1.595-.8417-2.569c-.0854-.263.0063-.548.231-.709l2.1958-1.588-2.7085.006c-.2752 0-.5189-.177-.6012-.44l-.8321-2.578-.8352 2.581c-.0855.26-.3291.437-.6012.437l-2.7052-.006 2.1958 1.588c.212.161.3037.446.2183.709z"/><path d="m67.6058 152.722c1.7434 0 3.1609-1.418 3.1609-3.161 0-1.737-1.4175-3.151-3.1609-3.151-1.737 0-3.1513 1.414-3.1513 3.151 0 1.743 1.4143 3.161 3.1513 3.161z"/><path d="m110.707 172.842c-.276 0-.519-.177-.601-.439l-.833-2.576-.832 2.576c-.085.262-.329.439-.601.439l-2.708-.006 2.196 1.588c.221.162.316.45.231.709l-.842 2.569 2.186-1.594c.111-.083.241-.121.374-.121.129 0 .262.042.373.121l2.189 1.594-.841-2.569c-.086-.262.006-.547.231-.709l2.196-1.588-2.709.006z"/><path d="m83.771 147.982-.8417 2.585 2.1927-1.598c.2215-.161.5221-.161.7467 0l2.1896 1.595-.8449-2.582c-.0854-.263.0063-.548.231-.709l2.1895-1.579-2.7052.007c-.2753 0-.5189-.178-.6012-.44l-.8321-2.579-.8353 2.579c-.0854.259-.3291.436-.6012.436l-2.6989-.006 2.1864 1.579c.2183.164.31.452.2246.712z"/><path d="m109.058 151.779c0-2.379-1.933-4.312-4.312-4.312-2.38 0-4.313 1.933-4.313 4.312 0 2.376 1.933 4.313 4.313 4.313 2.379-.003 4.312-1.937 4.312-4.313z"/></g></svg>