<svg height="24" width="24" xmlns="http://www.w3.org/2000/svg"><g transform="translate(0 -1028.4)"><path d="m-729.04 747.57h4v10h-4z" fill="#95a5a6" transform="matrix(.70710678 -.70710678 .70710678 .70710678 0 0)"/><path d="m-729.04 747.57h4v3h-4z" fill="#7f8c8d" transform="matrix(.70710678 -.70710678 .70710678 .70710678 0 0)"/><path d="m3.201 1031.4c-3.5147 3.5-3.5147 9.2 0 12.7 3.5148 3.5 9.213 3.5 12.728 0s3.515-9.2 0-12.7-9.2133-3.5-12.728 0zm2.1213 2.1c2.3432-2.3 6.1417-2.3 8.4857 0 2.343 2.4 2.343 6.2 0 8.5-2.344 2.3-6.1425 2.3-8.4857 0-2.3431-2.3-2.3431-6.1 0-8.5z" fill="#bdc3c7"/><path d="m16 9.5a6.5 6.5 0 1 1 -13 0 6.5 6.5 0 1 1 13 0z" fill="#ecf0f1" transform="translate(0 1028.4)"/></g></svg>