<svg width="223" height="57" viewBox="0 0 223 57" fill="none" xmlns="http://www.w3.org/2000/svg">
<g clip-path="url(#clip0_3579_204)">
<path d="M27.979 0.635986C12.638 0.635986 0.199951 13.072 0.199951 28.414C0.199951 43.758 12.638 56.197 27.979 56.197C43.323 56.197 55.761 43.758 55.761 28.414C55.76 13.071 43.322 0.635986 27.979 0.635986ZM42.9599 16.713C41.6739 16.758 40.787 15.991 40.745 14.822C40.732 14.393 40.842 14.019 41.136 13.582C41.423 13.021 41.4839 12.957 41.4759 12.712C41.4509 11.977 40.34 11.948 40.036 11.963C35.866 12.1 34.7669 17.729 33.8759 22.305L33.439 24.718C35.84 25.07 37.545 24.636 38.496 24.021C39.835 23.153 38.1219 22.26 38.3369 21.271C38.5569 20.263 39.473 19.778 40.202 19.757C41.221 19.733 41.949 20.789 41.926 21.862C41.889 23.635 39.534 26.074 34.827 25.975C34.253 25.961 33.725 25.921 33.233 25.862L32.345 30.765C31.549 34.478 30.492 39.551 26.713 43.977C23.465 47.837 20.171 48.437 18.694 48.487C15.934 48.58 14.1029 47.109 14.0369 45.144C13.9719 43.242 15.6549 42.202 16.7599 42.165C18.2339 42.115 19.253 43.183 19.292 44.414C19.329 45.455 18.7859 45.78 18.4269 45.977C18.1859 46.169 17.824 46.367 17.838 46.797C17.847 46.98 18.046 47.401 18.657 47.381C19.825 47.342 20.5989 46.765 21.1409 46.379C23.8299 44.138 24.866 40.232 26.221 33.122L26.505 31.398C26.967 29.085 27.48 26.507 28.262 23.939C26.365 22.512 25.229 20.742 22.68 20.051C20.932 19.576 19.866 19.979 19.117 20.926C18.23 22.048 18.5249 23.508 19.3829 24.365L20.798 25.929C22.534 27.937 23.4839 29.497 23.1269 31.598C22.5619 34.951 18.565 37.522 13.844 36.071C9.81295 34.829 9.05895 31.974 9.54295 30.402C9.96995 29.018 11.069 28.757 12.145 29.088C13.296 29.442 13.747 30.841 13.417 31.918C13.38 32.031 13.321 32.224 13.2 32.481C13.067 32.778 12.82 33.037 12.712 33.384C12.453 34.227 13.61 34.826 14.417 35.074C16.219 35.628 17.9779 34.685 18.4249 33.226C18.8399 31.884 17.991 30.949 17.639 30.589L15.9329 28.761C15.1509 27.89 13.432 25.465 14.271 22.74C14.593 21.691 15.273 20.575 16.262 19.839C18.347 18.285 20.6139 18.029 22.7729 18.649C25.5669 19.455 26.91 21.302 28.651 22.729C29.624 19.872 30.9739 17.074 33.0049 14.715C34.8379 12.563 37.302 11.007 40.125 10.91C42.945 10.818 45.076 12.095 45.147 14.118C45.175 14.982 44.6789 16.657 42.9599 16.713Z" fill="white"/>
<path d="M168.637 20.5979C175.041 20.5979 179.337 25.2259 179.337 31.6289C179.337 37.6619 174.958 42.6599 168.637 42.6599C162.275 42.6599 157.896 37.6619 157.896 31.6289C157.896 25.2269 162.19 20.5979 168.637 20.5979ZM168.637 39.5229C173.181 39.5229 175.204 35.3899 175.204 31.6279C175.204 27.6219 172.767 23.7379 168.637 23.7379C164.465 23.7379 162.028 27.6219 162.028 31.6279C162.027 35.3909 164.051 39.5229 168.637 39.5229Z" fill="white"/>
<path d="M157.363 22.5589V21.0939H151.785V19.0899C151.785 16.2399 152.197 14.0899 155.544 14.0899C155.606 14.0899 155.67 14.0949 155.733 14.0969C155.74 14.0969 155.739 14.0869 155.748 14.0869C156.677 14.1549 157.448 13.3989 157.502 12.4709L157.569 11.1989C156.786 11.0749 155.955 10.9509 154.967 10.9509C149.224 10.9509 147.901 14.2979 147.901 19.4209V21.0949H142.942V22.7309C143.069 23.5789 143.795 24.2309 144.68 24.2309C144.684 24.2309 144.688 24.2359 144.693 24.2359H147.901V42.1659H150.042C150.045 42.1659 150.044 42.1649 150.047 42.1649C150.937 42.1649 151.665 41.4979 151.785 40.6429V24.2349H155.669C156.585 24.2049 157.32 23.4729 157.363 22.5589Z" fill="white"/>
<path d="M105.632 21.094C105.624 21.094 105.622 21.098 105.613 21.098C104.793 21.098 104.002 21.66 103.656 22.421L98.311 38.53H98.228L93 22.428C92.659 21.664 91.862 21.097 91.04 21.097C91.031 21.097 91.027 21.093 91.019 21.093H88.311L95.458 40.76C95.707 41.463 96.203 42.537 96.203 42.991C96.203 43.403 95.046 48.195 91.575 48.195C91.491 48.195 91.402 48.185 91.317 48.18C90.432 48.131 89.763 48.75 89.614 49.702L89.509 51.046C90.211 51.17 90.916 51.336 92.156 51.336C97.278 51.336 98.805 46.666 100.253 42.619L108.021 21.092H105.632V21.094Z" fill="white"/>
<path d="M80.944 25.3738C77.736 23.7318 74.228 22.6178 74.166 19.3158C74.176 15.8088 77.397 14.8878 79.882 14.8918C79.892 14.8888 79.903 14.8888 79.908 14.8888C80.986 14.8888 81.848 14.9958 82.691 15.1808C82.701 15.1808 82.7 15.1678 82.715 15.1678C83.605 15.2328 84.349 14.5368 84.455 13.6598L84.526 12.3868C82.898 11.9828 81.197 11.7778 79.716 11.7778C74.316 11.8108 70.307 14.5278 70.293 19.7118C70.302 24.2438 73.357 26.0018 76.641 27.5918C79.864 29.1408 83.395 30.4198 83.424 34.1608C83.405 38.0628 79.638 39.5018 77.043 39.5068C75.525 39.5018 73.877 39.1228 72.49 38.6858C71.619 38.5428 70.905 39.3098 70.794 40.3268L70.676 41.4628C72.585 42.0798 74.542 42.6178 76.508 42.6178C76.508 42.6178 76.51 42.6178 76.515 42.6178C76.52 42.6178 76.524 42.6178 76.534 42.6178C82.58 42.5738 87.281 40.1608 87.3 33.8988C87.29 29.0638 84.214 27.0348 80.944 25.3738Z" fill="white"/>
<path d="M139.684 42.1649C139.686 42.1649 139.686 42.1639 139.688 42.1639C140.527 42.1639 141.225 41.5769 141.404 40.7889V28.6559C141.404 24.0699 139.464 20.5979 134.089 20.5979C132.191 20.5979 129.011 21.6739 127.565 24.6889C126.449 21.8379 124.012 20.5979 121.574 20.5979C118.475 20.5979 116.367 21.7139 114.883 24.1519H114.799V22.8409C114.786 21.8769 114.006 21.0979 113.039 21.0979C113.031 21.0979 113.027 21.0939 113.02 21.0939H111.163V42.1649H113.267C113.269 42.1649 113.269 42.1639 113.27 42.1639C114.244 42.1639 115.033 41.3739 115.033 40.4019C115.033 40.3759 115.041 40.3649 115.047 40.3479V31.5479C115.047 27.6219 116.616 23.7379 120.582 23.7379C123.722 23.7379 124.344 27.0009 124.344 29.6039V42.1639H126.476C126.478 42.1639 126.478 42.1629 126.483 42.1629C127.401 42.1629 128.143 41.4569 128.226 40.5589V31.5479C128.226 27.6219 129.797 23.7379 133.762 23.7379C136.902 23.7379 137.523 27.0009 137.523 29.6039V42.1639L139.684 42.1649Z" fill="white"/>
<path d="M199.698 42.1649C199.702 42.1649 199.702 42.1639 199.705 42.1639C200.65 42.1639 201.414 41.4179 201.458 40.4819V29.6459C201.458 23.9869 199.019 20.5979 193.565 20.5979C190.632 20.5979 187.825 22.0449 186.665 24.4419H186.584V22.8679C186.584 22.8659 186.581 22.8659 186.581 22.8619C186.581 21.8859 185.792 21.0979 184.82 21.0979C184.81 21.0979 184.807 21.0939 184.799 21.0939H182.821V42.1649H184.955C184.956 42.1649 184.956 42.1639 184.962 42.1639C185.885 42.1639 186.634 41.4479 186.706 40.5419V32.4149C186.706 27.2919 188.691 23.7389 193.11 23.7389C196.501 23.9449 197.571 26.3399 197.571 31.2579V42.1649H199.698Z" fill="white"/>
<path d="M220.605 21.094C220.599 21.094 220.595 21.098 220.584 21.098C219.766 21.098 218.972 21.66 218.629 22.421L213.285 38.53H213.2L207.972 22.428C207.63 21.664 206.833 21.097 206.01 21.097C206.004 21.097 205.998 21.093 205.992 21.093H203.284L210.431 40.76C210.68 41.463 211.178 42.537 211.178 42.991C211.178 43.403 210.017 48.195 206.547 48.195C206.46 48.195 206.375 48.185 206.288 48.18C205.404 48.131 204.736 48.75 204.587 49.702L204.482 51.046C205.184 51.17 205.889 51.336 207.128 51.336C212.25 51.336 213.78 46.666 215.227 42.619L222.995 21.092H220.605V21.094Z" fill="white"/>
</g>
<defs>
<clipPath id="clip0_3579_204">
<rect width="223" height="57" fill="white"/>
</clipPath>
</defs>
</svg>
