<svg width="113" height="113" viewBox="0 0 113 113" fill="none" xmlns="http://www.w3.org/2000/svg">
<g clip-path="url(#clip0_3067_7981)">
<path d="M112.951 56.4479C112.951 87.4239 87.8419 112.535 56.8669 112.535C25.8939 112.535 0.785889 87.4239 0.785889 56.4479C0.785889 25.4769 25.8929 0.368896 56.8669 0.368896C87.8419 0.368896 112.951 25.4769 112.951 56.4479Z" fill="white"/>
<path d="M81.389 21.119C75.692 21.314 70.719 24.459 67.016 28.799C62.916 33.564 60.192 39.21 58.225 44.979C54.711 42.097 52.002 38.368 46.361 36.746C42.002 35.493 37.425 36.009 33.215 39.145C31.223 40.634 29.848 42.883 29.195 45.004C27.503 50.502 30.973 55.4 32.549 57.155L35.996 60.846C36.705 61.571 38.418 63.459 37.58 66.165C36.68 69.112 33.129 71.015 29.488 69.896C27.861 69.397 25.525 68.186 26.049 66.483C26.264 65.784 26.764 65.258 27.033 64.662C27.277 64.141 27.396 63.755 27.471 63.522C28.136 61.353 27.226 58.528 24.901 57.809C22.73 57.143 20.51 57.671 19.649 60.464C18.672 63.638 20.192 69.399 28.33 71.905C37.865 74.84 45.927 69.646 47.072 62.879C47.793 58.64 45.877 55.487 42.371 51.438L39.512 48.275C37.782 46.546 37.188 43.598 38.979 41.333C40.491 39.421 42.643 38.607 46.17 39.565C51.32 40.961 53.613 44.534 57.441 47.416C55.863 52.603 54.828 57.808 53.894 62.475L53.32 65.956C50.584 80.308 48.494 88.191 43.064 92.716C41.97 93.495 40.406 94.659 38.05 94.743C36.812 94.78 36.413 93.929 36.396 93.557C36.369 92.692 37.099 92.293 37.584 91.905C38.311 91.509 39.408 90.852 39.332 88.749C39.254 86.265 37.195 84.11 34.221 84.208C31.992 84.283 28.596 86.379 28.724 90.219C28.855 94.186 32.551 97.157 38.125 96.969C41.104 96.867 47.758 95.657 54.313 87.864C61.944 78.929 64.079 68.689 65.685 61.193L67.478 51.296C68.47 51.415 69.537 51.496 70.695 51.524C80.199 51.725 84.951 46.804 85.023 43.222C85.072 41.055 83.603 38.92 81.544 38.971C80.073 39.012 78.224 39.993 77.782 42.028C77.346 44.023 80.805 45.826 78.102 47.581C76.182 48.823 72.741 49.697 67.893 48.988L68.774 44.116C70.573 34.878 72.792 23.516 81.21 23.238C81.825 23.209 84.067 23.264 84.12 24.75C84.134 25.243 84.011 25.373 83.431 26.507C82.839 27.391 82.617 28.147 82.646 29.011C82.726 31.367 84.519 32.919 87.117 32.829C90.59 32.713 91.586 29.333 91.529 27.596C91.383 23.511 87.08 20.931 81.389 21.119Z" fill="black"/>
</g>
<defs>
<clipPath id="clip0_3067_7981">
<rect width="113" height="113" fill="white"/>
</clipPath>
</defs>
</svg>
