<svg fill="none" height="32" viewBox="0 0 32 32" width="32" xmlns="http://www.w3.org/2000/svg" xmlns:xlink="http://www.w3.org/1999/xlink"><clipPath id="a"><path d="m0 0h32v32h-32z"/></clipPath><g clip-path="url(#a)" fill="#262626"><path d="m7.74151 10.6125c-.23875-.4087-.55252-.6125-.86624-.6125-.31373 0-.62749.2038-.86624.6125l-5.803844 9.9088c-.478752.8175-.091252 1.4788.866244 1.4788h11.60737c.9562 0 1.3437-.6613.8662-1.4788zm-6.6576 10.3875 5.7888-9.8825c.00125-.0013.0025-.0038.00375-.005.00125.0012.0025.0037.0025.005l5.78754 9.8825z"/><path d="m31.7954 20.5213-5.8039-9.9088c-.2387-.4087-.5525-.6125-.8662-.6125-.3138 0-.6275.2038-.8663.6125l-5.8038 9.9088c-.4788.8175-.0913 1.4788.8662 1.4788h11.6087c.955 0 1.3437-.6613.865-1.4788zm-12.4612.4788 5.7888-9.8826c.0013-.0012.0025-.0037.0038-.005.0012.0013.0025.0038.0025.005l5.7875 9.8826z"/><path d="m13.5 15.5h4.4998c.2763 0 .5-.2238.5-.5s-.2237-.5-.5-.5h-4.4998c-.2762 0-.5.2238-.5.5s.2238.5.5.5z"/><path d="m18.4998 17c0-.2762-.2237-.5-.5-.5h-4.4998c-.2762 0-.5.2238-.5.5s.2238.5.5.5h4.4998c.2763 0 .5-.2238.5-.5z"/></g></svg>