<svg fill="none" height="226" viewBox="0 0 941 226" width="941" xmlns="http://www.w3.org/2000/svg"><path d="m256 224.204c0 .987-.812 1.796-1.803 1.796-.018 0-.018 0-.035 0-.398 0-.813-.124-1.139-.394-20.08-16.294-61.735-27.702-108.731-29.803-.94-.035-1.697-.79-1.732-1.707-4.042-89.913-11.331-115.7107-14.631-116.7706-3.194 1.0599-10.483 26.8576-14.524 116.7706-.036.917-.794 1.67-1.732 1.707-46.9954 2.102-88.6527 13.511-108.73216 29.803-.66851.538-1.64199.521-2.29137-.036-.66732-.557-.846707-1.492-.414982-2.246l126.178512-222.474617c.632-1.132511 2.508-1.132511 3.139 0l126.015 222.186617c.272.324.433.718.433 1.168z" fill="#4d72da"/><path d="m136.985 197.897c-3.409 24.765-6.712 28.103-9.486 28.103-2.775 0-6.076-3.338-9.483-28.103-.062-.442.061-.886.354-1.233.277-.348.694-.554 1.125-.554 2.499-.078 5.119-.11 8.018-.11 2.883 0 5.505.031 7.986.11.433 0 .848.206 1.127.554.297.347.42.791.359 1.233z" fill="#4d72da"/><g fill="#fff"><path d="m402.855 51.248v19.547c0 .683-.559 1.241-1.241 1.241h-35.57v102.836c0 .684-.559 1.241-1.241 1.241h-22.638c-.683 0-1.241-.558-1.241-1.241v-102.836h-35.482c-.683 0-1.241-.558-1.241-1.241v-19.547c0-.682.559-1.241 1.241-1.241h96.172c.682 0 1.241.559 1.241 1.241z"/><path d="m497.215 105.534c-2.631-6.156-6.33-11.592-10.996-16.172-4.667-4.58-10.314-8.24-16.755-10.896-6.466-2.656-13.602-4.009-21.248-4.009-7.583 0-14.682 1.353-21.111 4.009-6.417 2.656-12.038 6.317-16.705 10.896-4.679 4.58-8.365 10.016-10.958 16.172-2.595 6.156-3.91 12.82-3.91 19.794 0 6.989 1.328 13.652 3.959 19.808 2.619 6.156 6.305 11.594 10.947 16.172 4.642 4.579 10.239 8.229 16.63 10.848 6.392 2.63 13.478 3.959 21.062 3.959 7.694 0 14.868-1.329 21.322-3.959 6.454-2.619 12.113-6.269 16.804-10.848 4.704-4.578 8.415-10.002 11.009-16.122 2.594-6.13 3.922-12.807 3.922-19.857 0-6.975-1.341-13.64-3.972-19.795zm-48.812 49.009c-3.934 0-7.658-.732-11.058-2.172-3.413-1.438-6.429-3.475-8.973-6.045-2.532-2.567-4.567-5.683-6.044-9.245-1.477-3.55-2.234-7.533-2.234-11.84 0-4.232.758-8.191 2.234-11.753 1.477-3.562 3.512-6.665 6.044-9.234 2.544-2.569 5.56-4.58 8.961-5.995 3.413-1.414 7.136-2.134 11.07-2.134 3.873 0 7.571.732 11.008 2.172 3.45 1.452 6.479 3.463 9.023 6.007 2.532 2.544 4.567 5.634 6.044 9.184 1.477 3.562 2.222 7.521 2.222 11.753 0 4.307-.745 8.303-2.222 11.89-1.478 3.587-3.513 6.714-6.057 9.283-2.532 2.569-5.547 4.58-8.948 5.994-3.413 1.416-7.136 2.135-11.07 2.135z"/><path d="m616.174 105.534c-2.619-6.156-6.317-11.592-10.997-16.172-4.666-4.58-10.301-8.24-16.755-10.896-6.453-2.656-13.602-4.009-21.247-4.009-7.57 0-14.683 1.353-21.11 4.009-6.417 2.656-12.039 6.317-16.705 10.896s-8.354 10.016-10.959 16.172c-2.594 6.156-3.91 12.82-3.91 19.794 0 6.989 1.328 13.652 3.96 19.808 2.631 6.156 6.316 11.594 10.946 16.172 4.643 4.579 10.239 8.229 16.63 10.848 6.393 2.63 13.479 3.959 21.063 3.959 7.693 0 14.867-1.329 21.321-3.959 6.466-2.619 12.113-6.269 16.816-10.848 4.704-4.578 8.403-10.002 10.997-16.122 2.605-6.13 3.922-12.807 3.922-19.857 0-6.975-1.341-13.64-3.972-19.795zm-48.813 49.009c-3.935 0-7.657-.732-11.059-2.172-3.413-1.438-6.428-3.475-8.972-6.045-2.532-2.567-4.568-5.671-6.045-9.245-1.478-3.562-2.222-7.546-2.222-11.84 0-4.232.744-8.191 2.222-11.753 1.477-3.562 3.513-6.665 6.045-9.234 2.544-2.569 5.559-4.58 8.96-5.995 3.413-1.414 7.136-2.134 11.07-2.134 3.872 0 7.584.732 11.021 2.172 3.438 1.452 6.466 3.463 9.011 6.007 2.531 2.544 4.567 5.634 6.044 9.184 1.478 3.562 2.222 7.521 2.222 11.753 0 4.307-.744 8.303-2.222 11.89-1.477 3.599-3.513 6.714-6.057 9.283-2.532 2.569-5.547 4.58-8.948 5.994-3.412 1.416-7.135 2.135-11.07 2.135z"/><path d="m663.385 51.248v123.625c0 .684-.559 1.241-1.241 1.241h-22.091c-.684 0-1.241-.558-1.241-1.241v-123.625c0-.682.558-1.241 1.241-1.241h22.091c.682 0 1.241.559 1.241 1.241z"/><path d="m737.527 51.248v83.091c0 6.801-1.018 12.856-3.041 17.996-2.036 5.186-5.002 9.604-8.813 13.142-3.809 3.524-8.524 6.219-13.998 7.98-5.412 1.763-11.629 2.656-18.48 2.656h-14.359c-.683 0-1.24-.558-1.24-1.241v-19.548c0-.682.558-1.241 1.24-1.241h14.359c6.938 0 11.927-1.712 14.831-5.1 2.979-3.45 4.48-8.403 4.48-14.744l.074-82.992c0-.682.559-1.241 1.241-1.241h22.464c.684 0 1.242.56 1.242 1.242z"/><path d="m855.803 105.534c-2.631-6.156-6.33-11.592-11.008-16.172-4.666-4.58-10.301-8.24-16.755-10.896s-13.603-4.009-21.248-4.009c-7.569 0-14.67 1.353-21.099 4.009-6.428 2.656-12.051 6.317-16.717 10.896s-8.354 10.016-10.946 16.172c-2.606 6.156-3.923 12.82-3.923 19.794 0 6.989 1.316 13.641 3.923 19.759 2.593 6.131 6.28 11.555 10.946 16.134 4.666 4.566 10.289 8.241 16.717 10.897 6.429 2.655 13.529 3.996 21.099 3.996 6.293 0 12.163-.894 17.438-2.656 5.287-1.75 10.065-4.158 14.236-7.11 4.169-2.967 7.793-6.442 10.772-10.302 2.965-3.871 5.262-7.968 6.813-12.2.136-.372.086-.794-.149-1.129-.236-.335-.608-.534-1.018-.534h-23.903c-.459 0-.869.248-1.092.646-2.061 3.712-5.113 6.765-9.085 9.061-3.96 2.309-8.614 3.475-13.826 3.475-3.289 0-6.541-.571-9.668-1.7-3.128-1.13-6.02-2.743-8.602-4.804-2.568-2.047-4.803-4.579-6.627-7.545-1.575-2.545-2.743-5.387-3.475-8.464h79.368c.62 0 1.142-.46 1.229-1.068.124-.855.235-1.736.36-2.644.136-.98.197-2.222.197-3.811.002-6.975-1.325-13.64-3.957-19.795zm-48.824-10.86c3.476 0 6.714.534 9.619 1.601 2.916 1.067 5.56 2.569 7.868 4.468 2.308 1.911 4.294 4.208 5.907 6.838 1.353 2.197 2.433 4.592 3.227 7.148h-54.248c.807-2.543 1.911-4.939 3.313-7.136 1.676-2.63 3.736-4.927 6.132-6.826 2.395-1.912 5.15-3.413 8.19-4.493 3.029-1.067 6.392-1.6 9.992-1.6z"/><path d="m940.458 156.703-.187 18.181c-.013.684-.559 1.229-1.241 1.229h-17.908c-5.089 0-9.954-.534-14.46-1.588-4.604-1.068-8.674-3.066-12.075-5.933-3.4-2.88-6.131-6.852-8.116-11.804-1.961-4.914-2.954-11.28-2.954-18.914v-37.207h-14.384c-.684 0-1.241-.559-1.241-1.241v-17.09c0-.559.372-1.043.905-1.192l14.311-3.971 4.318-27.13c.1-.596.62-1.043 1.229-1.043h18.195c.682 0 1.24.559 1.24 1.241v28.855h28.583c.683 0 1.241.559 1.241 1.241v19.088c0 .682-.559 1.241-1.241 1.241h-28.67v37.021c0 3.612.422 6.604 1.241 8.9.819 2.27 1.899 4.069 3.239 5.349 1.329 1.278 2.916 2.184 4.716 2.692 1.862.547 3.885.819 6.02.819h15.998c.335 0 .645.137.881.372.235.238.36.549.36.884z"/></g></svg>