<svg width="110" height="81" viewBox="0 0 110 81" fill="none" xmlns="http://www.w3.org/2000/svg">
<path d="M78.8276 65.7918C61.5656 61.259 54.7502 53.5482 52.0712 47.8788C49.1369 41.6676 50.3486 36.5958 50.4025 36.3828L51.5674 36.6711C51.5556 36.7203 50.4072 41.6024 53.1916 47.4381C56.897 55.2027 65.8666 61.1493 79.132 64.6317L78.8276 65.7918Z" fill="#F17E0C"/>
<path d="M70.5555 66.6366L70.5391 65.4366L78.6391 65.3405L73.8297 59.1461L74.7789 58.4102L81.0669 66.5102L70.5555 66.6366Z" fill="#F17E0C"/>
<path d="M3.42 8.18C2.87333 8.18 2.48667 8.15333 2.26 8.1C2.03333 8.03333 1.89333 7.94667 1.84 7.84C1.8 7.73333 1.78 7.62667 1.78 7.52C1.78 7.37333 1.85333 7.24 2 7.12C2.16 6.98667 2.48 6.88 2.96 6.8C3.57333 6.66667 4.29333 6.53333 5.12 6.4C5.96 6.25333 6.85333 6.12 7.8 6C8.74667 5.86667 9.69333 5.74667 10.64 5.64C11.6 5.53333 12.5133 5.45333 13.38 5.4C14.26 5.33333 15.04 5.3 15.72 5.3C16.6267 5.3 17.24 5.38 17.56 5.54C17.8933 5.7 18.06 5.87333 18.06 6.06C18.06 6.23333 17.9667 6.39333 17.78 6.54C17.6067 6.68667 17.3067 6.76 16.88 6.76C16.7067 6.76 16.3067 6.8 15.68 6.88C15.0533 6.94667 14.2867 7.04 13.38 7.16C12.4867 7.26667 11.54 7.38667 10.54 7.52C10.4733 7.97333 10.3733 8.57333 10.24 9.32C10.1067 10.0533 9.95333 10.86 9.78 11.74C9.62 12.62 9.45333 13.5067 9.28 14.4C9.12 15.28 8.96667 16.1 8.82 16.86C8.68667 17.62 8.57333 18.2467 8.48 18.74C8.38667 19.2333 8.33333 19.5267 8.32 19.62C8.26667 20.0333 8.14667 20.3467 7.96 20.56C7.78667 20.76 7.59333 20.86 7.38 20.86C7.12667 20.86 6.91333 20.7533 6.74 20.54C6.58 20.3133 6.5 19.92 6.5 19.36C6.5 19.1733 6.54 18.8133 6.62 18.28C6.7 17.7333 6.80667 17.0867 6.94 16.34C7.07333 15.5933 7.22 14.8 7.38 13.96C7.54 13.12 7.7 12.3 7.86 11.5C8.02 10.6867 8.16667 9.95333 8.3 9.3C8.43333 8.63333 8.53333 8.11333 8.6 7.74C7.54667 7.86 6.55333 7.96667 5.62 8.06C4.7 8.14 3.96667 8.18 3.42 8.18ZM16.1286 21.38C15.9153 21.38 15.7353 21.2933 15.5886 21.12C15.4419 20.9467 15.3686 20.7067 15.3686 20.4C15.3686 20.1733 15.4153 19.8 15.5086 19.28C15.6153 18.7467 15.7286 18.1267 15.8486 17.42C15.9819 16.7133 16.0953 15.98 16.1886 15.22C16.2819 14.4467 16.3286 13.7067 16.3286 13C16.3286 12.6533 16.4153 12.4 16.5886 12.24C16.7753 12.0667 16.9819 11.98 17.2086 11.98C17.4219 11.98 17.5819 12.1133 17.6886 12.38C17.7953 12.6467 17.8153 13.18 17.7486 13.98C18.3619 12.62 19.0353 11.5267 19.7686 10.7C20.5153 9.86 21.2553 9.26 21.9886 8.9C22.7219 8.52667 23.3819 8.34 23.9686 8.34C24.3553 8.34 24.6353 8.42 24.8086 8.58C24.9953 8.72667 25.0886 8.89333 25.0886 9.08C25.0886 9.33333 24.9819 9.53333 24.7686 9.68C24.5686 9.81333 24.2153 9.97333 23.7086 10.16C23.1219 10.3867 22.5819 10.6533 22.0886 10.96C21.6086 11.2533 21.1486 11.64 20.7086 12.12C20.2819 12.6 19.8619 13.2133 19.4486 13.96C19.0353 14.6933 18.6219 15.6 18.2086 16.68C17.7953 17.76 17.3553 19.06 16.8886 20.58C16.8086 20.8733 16.7019 21.08 16.5686 21.2C16.4486 21.32 16.3019 21.38 16.1286 21.38ZM27.6613 26.14C26.9946 26.14 26.3813 26.0933 25.8213 26C25.2746 25.92 24.7346 25.7867 24.2013 25.6C23.6679 25.4267 23.0879 25.2 22.4612 24.92C22.2746 24.8267 22.1079 24.7133 21.9613 24.58C21.8146 24.46 21.7412 24.32 21.7412 24.16C21.7412 23.96 21.8679 23.7467 22.1212 23.52C22.3612 23.3067 22.5879 23.2 22.8012 23.2C23.0279 23.2 23.3079 23.28 23.6413 23.44C23.9879 23.6 24.3879 23.7867 24.8413 24C25.2946 24.2267 25.7946 24.42 26.3413 24.58C26.9013 24.74 27.5013 24.82 28.1413 24.82C28.8346 24.82 29.4879 24.5333 30.1013 23.96C30.7146 23.3867 31.2146 22.56 31.6013 21.48C31.9879 20.4133 32.1813 19.1267 32.1813 17.62C32.1813 17.1667 32.1679 16.6667 32.1413 16.12C32.1279 15.56 32.1013 14.9733 32.0613 14.36C31.7413 15.0533 31.3813 15.74 30.9813 16.42C30.5946 17.1 30.1879 17.7133 29.7613 18.26C29.3479 18.8067 28.9146 19.2467 28.4613 19.58C28.0213 19.9 27.5746 20.06 27.1213 20.06C26.5479 20.06 26.1346 19.9133 25.8813 19.62C25.6279 19.3267 25.5013 18.8733 25.5013 18.26C25.5013 17.62 25.5479 16.9267 25.6413 16.18C25.7346 15.4333 25.8546 14.68 26.0013 13.92C26.1613 13.1467 26.3479 12.4133 26.5613 11.72C26.7746 11.0267 27.0013 10.4267 27.2413 9.92C27.3746 9.65333 27.5746 9.52 27.8413 9.52C28.0279 9.52 28.2079 9.62 28.3813 9.82C28.5679 10.0067 28.6613 10.2533 28.6613 10.56C28.6613 10.8 28.6079 11.14 28.5013 11.58C28.3946 12.02 28.2613 12.52 28.1013 13.08C27.9413 13.64 27.7813 14.2267 27.6213 14.84C27.4613 15.44 27.3279 16.0333 27.2213 16.62C27.1146 17.1933 27.0613 17.72 27.0613 18.2C27.0613 18.4 27.1946 18.5 27.4613 18.5C27.6079 18.5 27.8146 18.3667 28.0813 18.1C28.3613 17.82 28.6679 17.46 29.0013 17.02C29.3479 16.5667 29.6946 16.0733 30.0413 15.54C30.4013 14.9933 30.7479 14.4533 31.0813 13.92C31.4146 13.3733 31.7013 12.8733 31.9413 12.42C31.9279 12.3133 31.9213 12.2133 31.9213 12.12C31.9213 12.0267 31.9213 11.94 31.9213 11.86C31.9213 11.2067 31.9879 10.8 32.1213 10.64C32.2679 10.4667 32.4546 10.38 32.6813 10.38C33.0679 10.38 33.3413 10.4667 33.5013 10.64C33.6613 10.8133 33.7413 11.1133 33.7413 11.54C33.7413 11.7 33.7213 11.8733 33.6813 12.06C33.6413 12.2333 33.5746 12.4867 33.4813 12.82C33.5879 13.8733 33.6746 14.82 33.7413 15.66C33.8213 16.5 33.8613 17.3467 33.8613 18.2C33.8613 19.8133 33.6013 21.2133 33.0813 22.4C32.5746 23.5867 31.8546 24.5067 30.9213 25.16C30.0013 25.8133 28.9146 26.14 27.6613 26.14ZM50.3627 21.5C49.7627 21.5 49.2293 21.32 48.7627 20.96C48.3093 20.5867 47.956 20.08 47.7027 19.44C47.4493 18.8 47.3227 18.06 47.3227 17.22C47.3227 16.34 47.4227 15.4533 47.6227 14.56C47.8227 13.6667 48.076 12.8467 48.3827 12.1C48.6893 11.3533 49.0027 10.76 49.3227 10.32C49.6427 9.86667 49.9293 9.64 50.1827 9.64C50.3693 9.64 50.5227 9.7 50.6427 9.82C50.7627 9.94 50.8227 10.1133 50.8227 10.34C50.8227 10.3933 50.7693 10.58 50.6627 10.9C50.556 11.2067 50.4227 11.6067 50.2627 12.1C50.1027 12.58 49.9427 13.1133 49.7827 13.7C49.6227 14.2867 49.4893 14.8867 49.3827 15.5C49.276 16.1133 49.2227 16.6933 49.2227 17.24C49.2227 18.1733 49.3093 18.8333 49.4827 19.22C49.6693 19.5933 49.9627 19.78 50.3627 19.78C51.336 19.78 52.2427 19.5267 53.0827 19.02C53.936 18.5 54.7227 17.82 55.4427 16.98C56.176 16.1267 56.8493 15.1867 57.4627 14.16C56.996 14.2267 56.5427 14.28 56.1027 14.32C55.6627 14.3467 55.2427 14.3667 54.8427 14.38C54.456 14.3933 54.2027 14.3467 54.0827 14.24C53.9627 14.1333 53.9027 13.9667 53.9027 13.74C53.8893 13.54 53.9693 13.36 54.1427 13.2C54.3293 13.04 54.5227 12.9533 54.7227 12.94C55.3227 12.8867 55.936 12.82 56.5627 12.74C57.1893 12.66 57.8093 12.5667 58.4227 12.46C58.7427 11.8467 59.0493 11.2267 59.3427 10.6C59.636 9.97333 59.9027 9.37333 60.1427 8.8C60.4227 7.93333 60.716 7.12667 61.0227 6.38C61.3293 5.62 61.636 5.00667 61.9427 4.54C62.2493 4.06 62.536 3.82 62.8027 3.82C63.256 3.82 63.4827 4.04667 63.4827 4.5C63.4827 4.59333 63.4227 4.85333 63.3027 5.28C63.1827 5.70667 63.016 6.26 62.8027 6.94C62.6027 7.62 62.3693 8.39333 62.1027 9.26C61.836 10.1133 61.5627 11.0133 61.2827 11.96C62.4827 11.72 63.576 11.4867 64.5627 11.26C65.5627 11.02 66.3827 10.8267 67.0227 10.68C67.6627 10.52 68.0427 10.44 68.1627 10.44C68.336 10.44 68.476 10.5267 68.5827 10.7C68.6893 10.86 68.7427 11.0133 68.7427 11.16C68.7427 11.28 68.5227 11.44 68.0827 11.64C67.656 11.84 67.0627 12.06 66.3027 12.3C65.556 12.5267 64.7027 12.76 63.7427 13C62.796 13.2267 61.8093 13.44 60.7827 13.64C60.4493 14.7733 60.1293 15.8933 59.8227 17C59.516 18.1067 59.256 19.12 59.0427 20.04C58.9227 20.6267 58.6293 20.92 58.1627 20.92C57.9227 20.92 57.7427 20.86 57.6227 20.74C57.516 20.62 57.4627 20.4133 57.4627 20.12C57.4627 20.08 57.496 19.88 57.5627 19.52C57.6427 19.1467 57.7427 18.6867 57.8627 18.14C57.9827 17.58 58.1093 17 58.2427 16.4C58.376 15.7867 58.5027 15.22 58.6227 14.7C57.916 15.9533 57.136 17.0933 56.2827 18.12C55.4293 19.1467 54.5027 19.9667 53.5027 20.58C52.516 21.1933 51.4693 21.5 50.3627 21.5ZM50.6027 7.68C50.2827 7.68 50.016 7.58 49.8027 7.38C49.6027 7.18 49.5027 6.93333 49.5027 6.64C49.5027 6.28 49.6293 5.98 49.8827 5.74C50.1493 5.48667 50.456 5.36 50.8027 5.36C51.1893 5.36 51.4827 5.47333 51.6827 5.7C51.8827 5.91333 51.9827 6.19333 51.9827 6.54C51.9827 6.82 51.8493 7.08 51.5827 7.32C51.316 7.56 50.9893 7.68 50.6027 7.68ZM78.0825 21.2C77.2958 21.2 76.6758 20.9 76.2225 20.3C75.7692 19.7 75.5425 18.92 75.5425 17.96C75.5425 17.6133 75.5892 17.2467 75.6825 16.86C75.7892 16.46 75.9225 16.1 76.0825 15.78C75.9892 15.6867 75.9158 15.56 75.8625 15.4C75.8092 15.2267 75.7825 15.0133 75.7825 14.76C75.7825 13.9733 75.9158 13.2533 76.1825 12.6C76.4492 11.9467 76.8025 11.38 77.2425 10.9C77.6825 10.4067 78.1692 10.0267 78.7025 9.76C79.2492 9.49333 79.8025 9.36 80.3625 9.36C81.2825 9.36 82.0292 9.69333 82.6025 10.36C83.1758 11.0133 83.4625 12.0133 83.4625 13.36C83.4625 14.0667 83.3558 14.7867 83.1425 15.52C82.9425 16.2533 82.6625 16.96 82.3025 17.64C81.9558 18.32 81.5492 18.9267 81.0825 19.46C80.6292 19.9933 80.1425 20.42 79.6225 20.74C79.1158 21.0467 78.6025 21.2 78.0825 21.2ZM77.4025 15.1C77.4825 15.2067 77.5225 15.3467 77.5225 15.52C77.5225 15.72 77.4825 15.92 77.4025 16.12C77.3358 16.32 77.2625 16.5933 77.1825 16.94C77.1025 17.2867 77.0625 17.78 77.0625 18.42C77.0625 19.06 77.3158 19.38 77.8225 19.38C78.3825 19.38 78.9025 19.16 79.3825 18.72C79.8625 18.2667 80.2892 17.6867 80.6625 16.98C81.0358 16.2733 81.3225 15.52 81.5225 14.72C81.7358 13.9067 81.8425 13.14 81.8425 12.42C81.8425 11.9533 81.7558 11.6267 81.5825 11.44C81.4092 11.24 81.0958 11.14 80.6425 11.14C80.1758 11.14 79.6892 11.3 79.1825 11.62C78.6892 11.9267 78.2758 12.3467 77.9425 12.88C77.6092 13.4133 77.4425 14.0133 77.4425 14.68C77.4425 14.8267 77.4292 14.9667 77.4025 15.1ZM92.0234 21.48C91.7968 21.48 91.6034 21.38 91.4434 21.18C91.2834 20.98 91.2034 20.6867 91.2034 20.3C91.2034 19.8467 91.2701 19.2 91.4034 18.36C91.5501 17.52 91.7634 16.4067 92.0434 15.02C91.6834 15.8733 91.2834 16.68 90.8434 17.44C90.4168 18.2 89.9634 18.82 89.4834 19.3C89.0034 19.78 88.5101 20.02 88.0034 20.02C87.5101 20.02 87.0701 19.8267 86.6834 19.44C86.3101 19.0533 86.1234 18.3733 86.1234 17.4C86.1234 16.8533 86.1701 16.24 86.2634 15.56C86.3568 14.8667 86.4768 14.18 86.6234 13.5C86.7701 12.82 86.9168 12.2133 87.0634 11.68C87.2101 11.1333 87.3434 10.7333 87.4634 10.48C87.5568 10.2667 87.6501 10.1267 87.7434 10.06C87.8368 9.98 87.9634 9.94 88.1234 9.94C88.3101 9.94 88.5101 10.02 88.7234 10.18C88.9368 10.34 89.0434 10.6067 89.0434 10.98C89.0434 11.0733 88.9968 11.2933 88.9034 11.64C88.8234 11.9733 88.7168 12.3867 88.5834 12.88C88.4634 13.36 88.3368 13.88 88.2034 14.44C88.0701 15 87.9568 15.56 87.8634 16.12C87.7834 16.68 87.7434 17.1933 87.7434 17.66C87.7434 17.9133 87.7701 18.12 87.8234 18.28C87.8768 18.44 88.0101 18.52 88.2234 18.52C88.4101 18.52 88.6434 18.3333 88.9234 17.96C89.2168 17.5867 89.5301 17.0933 89.8634 16.48C90.2101 15.8533 90.5634 15.16 90.9234 14.4C91.2968 13.64 91.6568 12.86 92.0034 12.06C92.3634 11.26 92.6901 10.5 92.9834 9.78C93.0901 9.54 93.2034 9.39333 93.3234 9.34C93.4434 9.27333 93.5768 9.24 93.7234 9.24C93.9634 9.24 94.1768 9.34 94.3634 9.54C94.5634 9.72667 94.6634 9.97333 94.6634 10.28C94.6634 10.48 94.6234 10.8267 94.5434 11.32C94.4768 11.8133 94.3768 12.3933 94.2434 13.06C94.1234 13.7133 93.9834 14.4067 93.8234 15.14C93.6768 15.8733 93.5301 16.6 93.3834 17.32C93.2368 18.0267 93.0968 18.6733 92.9634 19.26C92.8434 19.8467 92.7434 20.32 92.6634 20.68C92.5968 21.0133 92.5034 21.2267 92.3834 21.32C92.2768 21.4267 92.1568 21.48 92.0234 21.48ZM95.9491 14.6C95.5891 14.5733 95.4224 14.34 95.4491 13.9C95.4624 13.7933 95.5357 13.6667 95.6691 13.52C95.8024 13.36 95.9557 13.2733 96.1291 13.26C96.5424 13.22 97.0491 13.16 97.6491 13.08C98.2624 12.9867 98.9357 12.88 99.6691 12.76C99.8024 12.1067 99.9624 11.42 100.149 10.7C100.336 9.98 100.542 9.28 100.769 8.6C100.996 7.90667 101.236 7.28 101.489 6.72C101.742 6.16 102.009 5.72 102.289 5.4C102.436 5.25333 102.569 5.15333 102.689 5.1C102.809 5.03333 102.916 5 103.009 5C103.196 5 103.342 5.08 103.449 5.24C103.569 5.4 103.629 5.58 103.629 5.78C103.629 5.88667 103.609 5.99333 103.569 6.1C103.302 6.84667 103.016 7.76667 102.709 8.86C102.402 9.95333 102.076 11.1467 101.729 12.44C102.956 12.24 104.182 12.0267 105.409 11.8C106.636 11.5733 107.689 11.3667 108.569 11.18C108.822 11.0733 109.016 11.0933 109.149 11.24C109.296 11.3867 109.369 11.5333 109.369 11.68C109.369 11.8667 109.316 12.0067 109.209 12.1C109.116 12.1933 109.016 12.2733 108.909 12.34L108.889 12.36C108.622 12.4667 108.222 12.5933 107.689 12.74C107.156 12.8733 106.542 13.02 105.849 13.18C105.156 13.3267 104.416 13.4733 103.629 13.62C102.856 13.7667 102.089 13.9 101.329 14.02C101.022 15.1933 100.709 16.4 100.389 17.64C100.082 18.8667 99.7757 20.0733 99.4691 21.26C99.3357 21.74 99.1824 22.04 99.0091 22.16C98.8491 22.2933 98.6757 22.36 98.4891 22.36C98.2757 22.36 98.0891 22.28 97.9291 22.12C97.7824 21.96 97.7624 21.6333 97.8691 21.14L99.3291 14.32C98.5291 14.44 97.8224 14.5267 97.2091 14.58C96.6091 14.6333 96.1891 14.64 95.9491 14.6Z" fill="#EB743B"/>
</svg>
