<?xml version="1.0" encoding="UTF-8"?>
<svg width="1200pt" height="1200pt" version="1.1" viewBox="0 0 1200 1200" xmlns="http://www.w3.org/2000/svg">
 <g>
  <path d="m132 688.44c21.207 0 38.398 21.207 38.398 38.398 0 21.207-17.191 38.398-38.398 38.398s-38.398-21.207-38.398-38.398c0-21.207 17.191-38.398 38.398-38.398z"/>
  <path d="m516 352.44c21.207 0 38.398 21.207 38.398 38.398 0 21.207-17.191 38.398-38.398 38.398s-38.398-21.207-38.398-38.398c0-21.207 17.191-38.398 38.398-38.398z"/>
  <path d="m1032 1024.4c21.207 0 38.398 21.207 38.398 38.398 0 21.207-17.191 38.398-38.398 38.398s-38.398-21.207-38.398-38.398c0-21.207 17.191-38.398 38.398-38.398z"/>
  <path d="m648 844.44c21.207 0 38.398 21.207 38.398 38.398 0 21.207-17.191 38.398-38.398 38.398s-38.398-21.207-38.398-38.398c0-21.207 17.191-38.398 38.398-38.398z"/>
  <path d="m1092 460.44c21.207 0 38.398 21.207 38.398 38.398 0 21.207-17.191 38.398-38.398 38.398s-38.398-21.207-38.398-38.398c0-21.207 17.191-38.398 38.398-38.398z"/>
  <path d="m600 560.04c-10.598 0-20.762 4.2109-28.258 11.703-7.4922 7.4961-11.703 17.66-11.703 28.258s4.2109 20.762 11.703 28.258c7.4961 7.4922 17.66 11.703 28.258 11.703s20.762-4.2109 28.258-11.703c7.4922-7.4961 11.703-17.66 11.703-28.258s-4.2109-20.762-11.703-28.258c-7.4961-7.4922-17.66-11.703-28.258-11.703zm0 67.922c-7.4141 0-14.527-2.9453-19.77-8.1914-5.2461-5.2422-8.1914-12.355-8.1914-19.77s2.9453-14.527 8.1914-19.77c5.2422-5.2461 12.355-8.1914 19.77-8.1914s14.527 2.9453 19.77 8.1914c5.2461 5.2422 8.1914 12.355 8.1914 19.77s-2.9453 14.527-8.1914 19.77c-5.2422 5.2461-12.355 8.1914-19.77 8.1914z"/>
  <path d="m843.72 427.2 8.5195-8.5195-27.719-27.719 27.719-27.84-8.5195-8.5195-27.719 27.84-27.719-27.84-8.5195 8.5195 27.719 27.84-27.719 27.719 8.5195 8.5195 27.719-27.84z"/>
  <path d="m392.28 187.2 27.719-27.84 27.719 27.84 8.5195-8.5195-27.719-27.84 27.719-27.719-8.5195-8.5195-27.719 27.84-27.719-27.84-8.5195 8.5195 27.719 27.719-27.719 27.84z"/>
  <path d="m888.24 687.12-8.5195-8.5195-27.719 27.84-27.719-27.84-8.5195 8.5195 27.719 27.84-27.719 27.719 8.5195 8.5195 27.719-27.84 27.719 27.84 8.5195-8.5195-27.719-27.719z"/>
  <path d="m363.72 642.6-27.719 27.84-27.719-27.84-8.5195 8.5195 27.719 27.84-27.719 27.719 8.5195 8.5195 27.719-27.84 27.719 27.84 8.5195-8.5195-27.719-27.719 27.719-27.84z"/>
  <path d="m600 182.28c-110.79 0-217.04 44.008-295.37 122.35-78.34 78.336-122.35 184.59-122.35 295.37s44.008 217.04 122.35 295.37c78.336 78.34 184.59 122.35 295.37 122.35s217.04-44.008 295.37-122.35c78.34-78.336 122.35-184.59 122.35-295.37-0.09375-110.76-44.133-216.95-122.45-295.27-78.316-78.32-184.51-122.36-295.27-122.45zm0 823.44v-0.003906c-107.61 0-210.8-42.742-286.89-118.83-76.09-76.086-118.83-179.28-118.83-286.89s42.742-210.8 118.83-286.89c76.086-76.09 179.28-118.83 286.89-118.83s210.8 42.742 286.89 118.83c76.09 76.086 118.83 179.28 118.83 286.89-0.125 107.57-42.91 210.69-118.97 286.75-76.059 76.062-179.18 118.85-286.75 118.97z"/>
 </g>
</svg>
