<svg fill="none" height="63" viewBox="0 0 63 63" width="63" xmlns="http://www.w3.org/2000/svg"><path d="m51.8921 38.5045c1.954-1.4347 3.2312-3.7431 3.2312-6.3466 0-3.4207-2.1976-6.3322-5.2491-7.4151v-14.2412c0-.72593-.5882-1.31164-1.3117-1.31164l-42.00084-.00246c-.72595 0-1.31166.58816-1.31166 1.3117v21.6562c0 .726.58816 1.3117 1.31166 1.3117h19.68754v2.6258h-1.9688c-.7259 0-1.3116.5882-1.3116 1.3117 0 .7259.5881 1.3116 1.3116 1.3116h6.5634c.7259 0 1.3116-.5881 1.3116-1.3116 0-.726-.5882-1.3117-1.3116-1.3117h-1.9688v-2.6258h10.6186c.347 2.0598 1.4938 3.8464 3.1131 5.0351-3.465 1.7202-5.8595 5.2836-5.8595 9.4059v4.5945c0 .726.5882 1.3117 1.3117 1.3117h18.3758c.726 0 1.3117-.5882 1.3117-1.3117v-4.5945c.0024-4.1221-2.3921-7.6854-5.8546-9.4034zm-44.01872-26.6912h39.37502v12.4696c-3.8932 0-7.1291 2.8448-7.7566 6.5633l-14.5561-.0024v-2.6259c0-3.0023-1.6907-5.6159-4.1689-6.9445.7555-.8638 1.2157-1.9909 1.2157-3.2263 0-2.7144-2.2074-4.9218-4.9218-4.9218s-4.9219 2.2074-4.9219 4.9218c0 1.2354.4602 2.3625 1.2157 3.2288-2.4782 1.3289-4.16883 3.9424-4.16883 6.9445v2.6258h-1.31166zm6.89092 6.2335c0-1.2674 1.0311-2.296 2.2961-2.296 1.2673 0 2.296 1.0311 2.296 2.296.0025 1.2674-1.0287 2.2985-2.296 2.2985-1.265 0-2.2961-1.0311-2.2961-2.2985zm-2.9531 12.7966v-2.6259c0-2.8941 2.3551-5.2491 5.2492-5.2491 2.894 0 5.2491 2.3551 5.2491 5.2491v2.6259zm30.1883 1.3141c0-2.8941 2.3552-5.2492 5.2492-5.2492s5.2492 2.3552 5.2492 5.2492-2.3552 5.2492-5.2492 5.2492-5.2492-2.3552-5.2492-5.2492zm13.1242 19.0304h-15.75v-3.2804c0-4.3435 3.5339-7.875 7.875-7.875s7.875 3.5315 7.875 7.875z" fill="#fff"/></svg>