<svg fill="none" height="56" viewBox="0 0 246 56" width="246" xmlns="http://www.w3.org/2000/svg"><path d="m142.675 22.0425h-9.683v1.0306c3.029 0 3.516.6514 3.516 4.5053v6.9477c0 3.8534-.487 4.5591-3.516 4.5591-2.326-.3254-3.895-1.5741-6.059-3.9622l-2.488-2.7136c3.353-.5978 5.138-2.714 5.138-5.1025 0-2.9846-2.542-5.2644-7.303-5.2644h-9.521v1.0306c3.029 0 3.516.6514 3.516 4.5053v6.9477c0 3.8534-.487 4.5591-3.516 4.5591v1.0311h10.765v-1.0311c-3.029 0-3.516-.7057-3.516-4.5591v-1.9535h.92l6.005 7.5437h15.742c7.736 0 11.091-4.1244 11.091-9.0643 0-4.939-3.354-9.0095-11.091-9.0095zm-22.666 8.8463v-7.2178h2.218c2.434 0 3.516 1.6824 3.516 3.6363 0 1.9-1.082 3.582-3.516 3.582zm22.829 7.5451h-.379c-1.947 0-2.218-.4881-2.218-2.985v-11.7779h2.597c5.626 0 6.654 4.1245 6.654 7.3271 0 3.3104-1.028 7.4358-6.654 7.4358z" fill="#00749a"/><path d="m82.6278 32.8981 3.7328-11.0731c1.0824-3.2022.5954-4.1245-2.8668-4.1245v-1.086h10.1702v1.086c-3.408 0-4.2193.814-5.5719 4.7762l-6.1677 18.5625h-.703l-5.5185-16.9888-5.6257 16.9888h-.7034l-6.0047-18.5625c-1.2983-3.9622-2.1639-4.7762-5.3017-4.7762v-1.086h12.0098v1.086c-3.1921 0-4.0581.7596-2.9215 4.1245l3.6244 11.0731 5.464-16.2836h1.0281z" fill="#00749a"/><path d="m101.02 40.8216c-5.9501 0-10.8191-4.396-10.8191-9.7701 0-5.3187 4.8695-9.7156 10.8191-9.7156 5.951 0 10.82 4.3969 10.82 9.7156 0 5.3741-4.869 9.7701-10.82 9.7701zm0-17.8019c-4.9761 0-6.7077 4.5043-6.7077 8.0323 0 3.5829 1.7316 8.0332 6.7077 8.0332 5.032 0 6.763-4.4503 6.763-8.0332 0-3.528-1.731-8.0323-6.763-8.0323z" fill="#00749a"/><g fill="#f3f3f3"><path d="m167.127 39.0308v1.0855h-12.388v-1.0855c3.624 0 4.274-.9223 4.274-6.3508v-8.6836c0-5.4285-.65-6.2964-4.274-6.2964v-1.086h11.198c5.571 0 8.656 2.8767 8.656 6.7311 0 3.7451-3.085 6.6758-8.656 6.6758h-3.084v2.6587c0 5.4289.649 6.3512 4.274 6.3512zm-1.19-20.4629h-3.084v9.4447h3.084c3.029 0 4.436-2.1167 4.436-4.6675 0-2.6052-1.407-4.7772-4.436-4.7772z"/><path d="m211.757 35.0147-.27.9767c-.487 1.7912-1.083 2.4425-4.924 2.4425h-.757c-2.813 0-3.3-.6513-3.3-4.5047v-2.4965c4.22 0 4.545.3794 4.545 3.2022h1.028v-8.0877h-1.028c0 2.8224-.325 3.2022-4.545 3.2022v-6.0784h2.975c3.842 0 4.436.6513 4.923 2.4425l.271 1.0307h.865l-.378-5.1017h-15.905v1.0306c3.029 0 3.516.6514 3.516 4.5053v6.9477c0 3.5253-.413 4.4133-2.802 4.5399-2.27-.3478-3.828-1.5901-5.961-3.943l-2.488-2.7136c3.354-.5978 5.139-2.714 5.139-5.1025 0-2.9846-2.542-5.2644-7.303-5.2644h-9.521v1.0306c3.029 0 3.516.6514 3.516 4.5053v6.9477c0 3.8534-.486 4.5591-3.516 4.5591v1.0311h10.766v-1.0311c-3.029 0-3.517-.7057-3.517-4.5591v-1.9535h.92l6.005 7.5437h22.234l.325-5.1012h-.813zm-28.671-4.1259v-7.2178h2.218c2.434 0 3.516 1.6824 3.516 3.6363 0 1.9-1.082 3.582-3.516 3.582h-2.218z"/><path d="m222.739 40.8216c-2.164 0-4.058-1.1395-4.869-1.8456-.271.2719-.757 1.0859-.865 1.8456h-1.028v-7.4894h1.082c.433 3.582 2.921 5.6986 6.113 5.6986 1.731 0 3.137-.9767 3.137-2.6048 0-1.4109-1.244-2.4969-3.462-3.528l-3.083-1.4653c-2.165-1.032-3.787-2.8232-3.787-5.2109 0-2.6052 2.434-4.8302 5.788-4.8302 1.786 0 3.3.6513 4.22 1.4109.27-.2171.541-.8144.703-1.4662h1.028v6.4052h-1.136c-.379-2.5513-1.785-4.6679-4.652-4.6679-1.515 0-2.922.8684-2.922 2.2258 0 1.411 1.136 2.1706 3.733 3.3649l2.975 1.4653c2.597 1.2482 3.624 3.2575 3.624 4.8855 0 3.4188-2.975 5.8065-6.599 5.8065z"/><path d="m239.401 40.8216c-2.164 0-4.058-1.1395-4.869-1.8456-.271.2719-.757 1.0859-.865 1.8456h-1.028v-7.4894h1.082c.432 3.582 2.921 5.6986 6.113 5.6986 1.731 0 3.138-.9767 3.138-2.6048 0-1.4109-1.245-2.4969-3.463-3.528l-3.084-1.4653c-2.164-1.032-3.787-2.8232-3.787-5.2109 0-2.6052 2.435-4.8302 5.789-4.8302 1.785 0 3.3.6513 4.22 1.4109.27-.2171.54-.8144.702-1.4662h1.028v6.4052h-1.135c-.379-2.5513-1.786-4.6679-4.652-4.6679-1.515 0-2.922.8684-2.922 2.2258 0 1.411 1.136 2.1706 3.733 3.3649l2.975 1.4653c2.597 1.2482 3.624 3.2575 3.624 4.8855 0 3.4188-2.975 5.8065-6.599 5.8065z"/><path d="m3.96692 27.9993c0 9.5077 5.50721 17.7242 13.49308 21.6179l-11.4203-31.3934c-1.3284 2.9873-2.07278 6.2932-2.07278 9.7755z"/><path d="m44.0704 26.7872c0-2.9686-1.0628-5.0244-1.9743-6.6246-1.2136-1.9786-2.3512-3.6542-2.3512-5.6328 0-2.208 1.6692-4.2634 4.0203-4.2634.1062 0 .2068.0133.3102.0192-4.2594-3.91515-9.9343-6.30556-16.1672-6.30556-8.364 0-15.7226 4.30548-20.00341 10.82676.5617.0169 1.09105.0288 1.54068.0288 2.50423 0 6.38053-.3049 6.38053-.3049 1.2906-.0763 1.4427 1.8255.1535 1.9786 0 0-1.297.1532-2.7402.229l8.7185 26.018 5.2393-15.7653-3.7301-10.2536c-1.2892-.0759-2.5105-.229-2.5105-.229-1.2902-.0758-1.1389-2.0549.1512-1.9786 0 0 3.9538.3049 6.3062.3049 2.5038 0 6.3806-.3049 6.3806-.3049 1.2915-.0763 1.4432 1.8255.1535 1.9786 0 0-1.2997.1531-2.7402.229l8.6519 25.821 2.3881-8.0063c1.035-3.3223 1.8226-5.7086 1.8226-7.7649z"/><path d="m28.3282 30.1004-7.1832 20.9419c2.1448.6326 4.413.9786 6.7632.9786 2.788 0 5.4617-.4836 7.9504-1.3616-.0643-.1029-.1226-.2121-.1704-.3309z"/><path d="m48.9158 16.4751c.1029.7651.1612 1.5864.1612 2.4699 0 2.4375-.4537 5.1776-1.8204 8.6037l-7.313 21.2134c7.1176-4.1643 11.905-11.9009 11.905-20.7623.0005-4.1761-1.0628-8.1032-2.9328-11.5247z"/><path d="m27.9082 0c-15.3882 0-27.9082 12.5604-27.9082 27.9993 0 15.4408 12.52 28.0007 27.9082 28.0007 15.3878 0 27.9097-12.5599 27.9097-28.0007-.0005-15.4389-12.5219-27.9993-27.9097-27.9993zm0 54.7166c-14.6825 0-26.62854-11.9854-26.62854-26.7173 0-14.7309 11.94554-26.71543 26.62854-26.71543 14.6821 0 26.6273 11.98453 26.6273 26.71543 0 14.7319-11.9452 26.7173-26.6273 26.7173z"/></g></svg>