<svg xmlns="http://www.w3.org/2000/svg" xmlns:xlink="http://www.w3.org/1999/xlink" width="1920" height="1080" viewBox="0 0 1920 1080">
  <defs>
    <clipPath id="clip-Web_1920_1">
      <rect width="1920" height="1080"/>
    </clipPath>
  </defs>
  <g id="Web_1920_1" data-name="Web 1920 – 1" clip-path="url(#clip-Web_1920_1)">
    <rect width="1920" height="1080" fill="#fff"/>
    <g id="aws-dynamodb" transform="translate(1391 52)">
      <path id="Path_3" data-name="Path 3" d="M165.258,288.5h3.508l57.261-28.634.953-1.347V29.964l-.953-1.354L168.766,0h-3.551l.043,288.5" fill="#5294cf"/>
      <path id="Path_4" data-name="Path 4" d="M90.741,288.5H87.184L29.972,259.867l-1.161-2L28.222,31.128l1.75-2.518L87.184,0h3.6l-.044,288.5" fill="#1f5b98"/>
      <path id="Path_5" data-name="Path 5" d="M87.285,0h81.426V288.5H87.285Z" transform="translate(-3)" fill="#2d72b8"/>
      <path id="Path_6" data-name="Path 6" d="M256,137.769l-1.935-.429-27.628-2.576-.41.2-57.312-2.292H87.285l-57.313,2.292v-43.7l-.06.032.06-.128,57.313-13.28h81.43l57.312,13.28,21.069,11.2v-7.2l8.9-.974-.922-1.8L226.886,72.236l-.859.279L168.715,54.756H87.285L29.972,72.515V28.61L0,63.723V94.389l.232-.168,8.672.946v7.348L0,107.28v30.513l.232-.024L8.9,137.9V150.7l-7.482.112L0,150.68V181.2l8.9,4.788v7.433l-8.531.942L0,194.088v30.661l29.972,35.118v-43.9l57.313,17.759h81.43L226.2,215.914l.764.335,27.821-19.862L256,194.408l-8.9-.982v-7.284l-1.167-.466-19.043,10.265-.69,1.44-57.481,13.2v.016H87.285v-.016L29.972,197.325V153.461l57.313,2.284v.056h81.43l57.312-2.34,1.3.6,26.779-2.306,1.889-.923-8.9-.128V137.9l8.9-.128" fill="#1a476f"/>
      <path id="Path_7" data-name="Path 7" d="M226.027,215.966v43.9L256,224.749V194.288l-29.8,21.626-.173.052m0-18.545.173-.04L256,181.353V150.7l-29.973,2.757v43.96M226.2,91.208l-.173-.04v43.8l29.973,2.8V107.135L226.2,91.208m0-18.521L256,94.193V63.731L226.027,28.61v43.9l.173.06v.112" fill="#2d72b8"/>
    </g>
    <g id="aws-lambda" transform="translate(832 540)">
      <path id="Path_8" data-name="Path 8" d="M0,245.262l16.322,8.161L19,248.668V59.333l-2.678-3.494L0,64V245.262" fill="#9d5025"/>
      <path id="Path_9" data-name="Path 9" d="M47.678,63.57,16.322,55.839V253.423l31.356-7.3V63.57" fill="#f68536"/>
      <path id="Path_10" data-name="Path 10" d="M143.893,78.6l22.335-11.6,74.309,28.778-19.758,2.577L143.893,78.6" fill="#6b3a19"/>
      <path id="Path_11" data-name="Path 11" d="M144.752,230.658l21.906,11.6,74.308-28.778L221.208,210.9l-76.456,19.759" fill="#fbbf93"/>
      <path id="Path_12" data-name="Path 12" d="M150.336,198.872l39.087,5.155L191.667,200V110l-2.244-4.765-39.087,5.154v88.483M35.651,45.96,59.705,33.933,62.333,39V270l-2.628,5.329L35.651,263.3V45.96" fill="#9d5025"/>
      <path id="Path_13" data-name="Path 13" d="M108.671,259.007,59.7,274.9V33.933l48.966,15.893V259.007" fill="#f68536"/>
      <path id="Path_14" data-name="Path 14" d="M89.772,289.933,128,309.262l4-4.6v-299L128,0,89.772,19.329v270.6M219.919,98.362l19.759-2.577,1.7,2.465V211l-1.7,2.906-19.759-2.577V98.362" fill="#9d5025"/>
      <path id="Path_15" data-name="Path 15" d="M189.423,105.235v99.221l40.8-49.825-40.8-49.4" fill="#f68536"/>
      <path id="Path_16" data-name="Path 16" d="M239.678,55.839,128,0V309.262l128-64V64Zm0,158.217-73.45,21.936V73.27l73.45,21.936Z" fill="#f68536"/>
    </g>
    <g id="typesense_logo_1_" data-name="typesense_logo (1)" transform="translate(106 129)">
      <path id="Path_27" data-name="Path 27" d="M36.478,38.485a19.875,19.875,0,0,1,.4,3.889,19.263,19.263,0,0,1-.4,3.755h0l-16.97-.134V91.049q0,5.632,5.211,5.632H34.875a11.93,11.93,0,0,1,.935,4.559,8.5,8.5,0,0,1-.267,2.816,97.723,97.723,0,0,1-12.694.8q-12.961,0-12.961-11.13h0V45.994L.4,46.128A19.276,19.276,0,0,1,0,42.373a19.888,19.888,0,0,1,.4-3.889h0l9.487.134V24.539q0-3.621,1.069-5.1,1.069-1.609,4.142-1.609h3.608l.8.8V38.753Z" fill="#0300b0"/>
      <path id="Path_28" data-name="Path 28" d="M101.135,39.155,82.83,102.045q-5.078,17.3-10.823,24.4t-17.237,7.107a32.346,32.346,0,0,1-10.823-1.743,10.194,10.194,0,0,1,2.138-7.241,26.1,26.1,0,0,0,8.819,1.475q7.082,0,10.823-4.827T72.541,106.2h0l.4-1.341a10.523,10.523,0,0,1-5.345-1.609,10.245,10.245,0,0,1-2.94-4.961h0l-18.707-59a18.183,18.183,0,0,1,5.879-1.743q3.875,0,5.211,4.693h0L67.6,75.9q.535,1.609,6.147,20.918a1.237,1.237,0,0,0,1.336.939h0l16.3-59.269a15.8,15.8,0,0,1,4.543-.536,13.319,13.319,0,0,1,4.944.8h0Z" fill="#0300b0"/>
      <path id="Path_29" data-name="Path 29" d="M126.81,99.9v26.55q0,3.62-1.069,5.1-1.069,1.609-4.276,1.609h-3.608l-.8-.8V38.887l.8-.8h3.474q3.207,0,4.276,1.743,1.2,1.609,1.2,5.364h0v.67q8.017-8.984,19.108-8.984,11.358,0,17.1,9.253,5.746,9.118,5.746,25.344a44.1,44.1,0,0,1-2.138,14.214,33.749,33.749,0,0,1-5.478,10.727,25.032,25.032,0,0,1-7.75,6.7,19.557,19.557,0,0,1-9.086,2.28A31.14,31.14,0,0,1,126.81,99.9Zm0-43.58V90.781q8.151,6.034,15.366,6.034t11.892-6.436q4.677-6.436,4.677-19.443a45.249,45.249,0,0,0-1.2-11.13,26.22,26.22,0,0,0-2.94-7.912,12.5,12.5,0,0,0-4.409-4.693,9.19,9.19,0,0,0-5.211-1.609,19.8,19.8,0,0,0-10.155,2.816A23.413,23.413,0,0,0,126.81,56.319Z" fill="#0300b0"/>
      <path id="Path_30" data-name="Path 30" d="M236.427,74.422H195.005q.668,22.8,17.237,22.8,9.086,0,19.375-5.632a11.416,11.416,0,0,1,3.608,6.839,42.492,42.492,0,0,1-24.586,7.509,25.687,25.687,0,0,1-11.892-2.548,23.566,23.566,0,0,1-8.151-7.241,33.979,33.979,0,0,1-4.543-11,60.808,60.808,0,0,1-1.47-13.812,52.41,52.41,0,0,1,1.737-13.946,33.413,33.413,0,0,1,5.345-10.862,25.153,25.153,0,0,1,8.285-7.107,24.145,24.145,0,0,1,11.224-2.548,25.287,25.287,0,0,1,10.957,2.28,21.419,21.419,0,0,1,8.151,6.034,25.19,25.19,0,0,1,5.078,9.118A35.52,35.52,0,0,1,237.1,65.571a40.3,40.3,0,0,1-.267,4.693Q236.695,72.41,236.427,74.422Zm-41.422-7.643h32.069V65.035q0-9.252-3.875-14.884t-11.625-5.632a13.761,13.761,0,0,0-11.892,6.034Q195.54,56.587,195.005,66.778Z" fill="#0300b0"/>
      <path id="Path_31" data-name="Path 31" d="M250.182,99.631a18.869,18.869,0,0,1,1.6-6.436,18.6,18.6,0,0,1,3.608-5.632q10.556,5.766,18.574,5.766a12.789,12.789,0,0,0,7.081-1.743,5.312,5.312,0,0,0,2.807-4.693q0-4.693-7.216-7.509h0l-7.483-2.816Q252.319,70.4,252.319,56.855a20.2,20.2,0,0,1,1.738-8.582,19.4,19.4,0,0,1,5.077-6.57,23.178,23.178,0,0,1,7.884-4.291,32.771,32.771,0,0,1,10.154-1.475,43.573,43.573,0,0,1,5.612.4,53.916,53.916,0,0,1,6.413,1.207,61.68,61.68,0,0,1,6.147,1.609,35.4,35.4,0,0,1,5.077,2.011,20.11,20.11,0,0,1-1.336,6.973,11.608,11.608,0,0,1-3.608,5.364q-10.556-4.693-18.3-4.693a8.065,8.065,0,0,0-5.479,1.743,5.224,5.224,0,0,0-2,4.291q0,4.157,6.682,6.57h0l8.151,2.95q8.817,3.084,13.095,8.448a19.423,19.423,0,0,1,4.276,12.471,18.729,18.729,0,0,1-7.083,15.286Q287.727,106.2,274.5,106.2A47.762,47.762,0,0,1,250.182,99.631Z" fill="#0300b0"/>
      <path id="Path_32" data-name="Path 32" d="M367.288,76.7H330.41q.4,7.375,3.34,11.666,3.075,4.157,10.556,4.157,7.75,0,17.773-4.559a19.3,19.3,0,0,1,4.944,10.593q-10.69,7.643-25.654,7.643-14.164,0-21.514-8.716-7.216-8.85-7.214-26.148a51.809,51.809,0,0,1,1.871-14.482,31.679,31.679,0,0,1,5.476-11.13,24.68,24.68,0,0,1,8.818-7.241A26.744,26.744,0,0,1,340.7,35.937a31.4,31.4,0,0,1,12.025,2.146,23.9,23.9,0,0,1,14.164,14.884,33.633,33.633,0,0,1,1.871,11.4,50.116,50.116,0,0,1-.4,6.436Q367.959,73.751,367.288,76.7ZM341.5,48.542q-10.422,0-11.224,15.823h22.179V62.755q0-6.437-2.672-10.325T341.5,48.542Z" fill="#0300b0"/>
      <path id="Path_33" data-name="Path 33" d="M440.52,59.537V88.769q0,8.582,2.8,12.739a15.059,15.059,0,0,1-10.287,3.755q-5.746,0-7.884-2.548-2.138-2.682-2.139-8.314h0V63.158q0-6.034-1.469-8.448T416.066,52.3q-7.082,0-13.228,6.437h0v45.592a31.024,31.024,0,0,1-4.276.536q-2.138.134-4.409.134t-4.542-.134a30.848,30.848,0,0,1-4.143-.536h0V37.948l.8-.939h6.682q7.485,0,9.353,8.045,9.754-8.448,19.375-8.448t14.164,6.3Q440.517,49.078,440.52,59.537Z" fill="#0300b0"/>
      <path id="Path_34" data-name="Path 34" d="M454.536,99.631a18.869,18.869,0,0,1,1.6-6.436,18.6,18.6,0,0,1,3.608-5.632q10.556,5.766,18.574,5.766a12.789,12.789,0,0,0,7.081-1.743,5.312,5.312,0,0,0,2.807-4.693q0-4.693-7.216-7.509h0l-7.483-2.816Q456.673,70.4,456.673,56.855a20.2,20.2,0,0,1,1.738-8.582,19.4,19.4,0,0,1,5.077-6.57,23.178,23.178,0,0,1,7.884-4.291,32.771,32.771,0,0,1,10.154-1.475,43.573,43.573,0,0,1,5.612.4,53.919,53.919,0,0,1,6.413,1.207,61.682,61.682,0,0,1,6.147,1.609,35.4,35.4,0,0,1,5.077,2.011,20.11,20.11,0,0,1-1.336,6.973,11.608,11.608,0,0,1-3.608,5.364q-10.556-4.693-18.3-4.693a8.065,8.065,0,0,0-5.479,1.743,5.224,5.224,0,0,0-2,4.291q0,4.157,6.682,6.57h0l8.151,2.95q8.817,3.084,13.095,8.448a19.423,19.423,0,0,1,4.276,12.471,18.729,18.729,0,0,1-7.083,15.286q-7.082,5.632-20.309,5.632A47.762,47.762,0,0,1,454.536,99.631Z" fill="#0300b0"/>
      <path id="Path_35" data-name="Path 35" d="M571.643,76.7H534.764q.4,7.375,3.34,11.666,3.075,4.157,10.556,4.157,7.75,0,17.773-4.559a19.3,19.3,0,0,1,4.944,10.593q-10.69,7.643-25.654,7.643-14.164,0-21.514-8.716-7.216-8.85-7.214-26.148a51.81,51.81,0,0,1,1.871-14.482,31.679,31.679,0,0,1,5.477-11.13,24.667,24.667,0,0,1,8.821-7.241,26.726,26.726,0,0,1,11.892-2.548,31.394,31.394,0,0,1,12.025,2.146,23.9,23.9,0,0,1,14.164,14.884,33.632,33.632,0,0,1,1.871,11.4,49.685,49.685,0,0,1-.4,6.436Q572.313,73.751,571.643,76.7Zm-25.788-28.16q-10.422,0-11.224,15.823h22.182V62.755q0-6.437-2.674-10.325T545.855,48.542Z" fill="#0300b0"/>
      <path id="Path_36" data-name="Path 36" d="M592.36,123.1V.4a23.215,23.215,0,0,1,4.545-.4,28.358,28.358,0,0,1,4.942.4h0V123.1a28.364,28.364,0,0,1-4.942.4A23.22,23.22,0,0,1,592.36,123.1Z" fill="#0300b0"/>
    </g>
    <g id="Component_1_1" data-name="Component 1 – 1" transform="translate(1148.5 290.5)">
      <line id="Line_1" data-name="Line 1" x1="195" y2="200" fill="none" stroke="#000" stroke-linecap="round" stroke-width="5"/>
    </g>
    <line id="Line_2" data-name="Line 2" x2="220" y2="164" transform="translate(576.5 326.5)" fill="none" stroke="#000" stroke-width="5"/>
    <g id="Polygon_1" data-name="Polygon 1" transform="translate(548.166 331.769) rotate(-51)">
      <path d="M 43.10847091674805 35.5 L 0.8915305733680725 35.5 L 22 0.9588682055473328 L 43.10847091674805 35.5 Z" stroke="none"/>
      <path d="M 22 1.917724609375 L 1.783054351806641 35 L 42.21694564819336 35 L 22 1.917724609375 M 22 0 L 44 36 L 0 36 L 22 0 Z" stroke="none" fill="#707070"/>
    </g>
    <g id="Polygon_3" data-name="Polygon 3" transform="translate(1149.84 519.366) rotate(-133)">
      <path d="M 43.10847091674805 35.5 L 0.8915305733680725 35.5 L 22 0.9588682055473328 L 43.10847091674805 35.5 Z" stroke="none"/>
      <path d="M 22 1.917724609375 L 1.783054351806641 35 L 42.21694564819336 35 L 22 1.917724609375 M 22 0 L 44 36 L 0 36 L 22 0 Z" stroke="none" fill="#707070"/>
    </g>
    <text id="DynamoDB" transform="translate(1360 408)" font-size="60" font-family="SegoeUI-Bold, Segoe UI" font-weight="700"><tspan x="0" y="0">DynamoDB</tspan></text>
    <text id="Lambda" transform="translate(848 898)" font-size="60" font-family="SegoeUI-Bold, Segoe UI" font-weight="700"><tspan x="0" y="0">Lambda</tspan></text>
  </g>
</svg>
