<svg fill="none" height="79" viewBox="0 0 250 79" width="250" xmlns="http://www.w3.org/2000/svg"><g fill="#1035bc"><path d="m15.0736 15.8466c.1105.5522.1657 1.0859.1657 1.6013 0 .4785-.0552.9938-.1657 1.546l-7.01225-.0552v18.5521c0 1.546.71779 2.319 2.15335 2.319h4.1963c.2577.6258.3865 1.2516.3865 1.8773 0 .6258-.0368 1.0123-.1104 1.1595-1.6932.2209-3.4417.3313-5.24538.3313-3.57055 0-5.35583-1.5276-5.35583-4.5828v-19.6564l-3.920246.0552c-.1104293-.5522-.165644-1.0675-.165644-1.546 0-.5154.0552147-1.0491.165644-1.6013l3.920246.0552v-5.7975c0-.99387.14724-1.69325.44172-2.09816.29448-.44172.86503-.66258 1.71165-.66258h1.4908l.33129.33129v8.28225z"/><path d="m41.7915 16.1227-7.5644 25.8957c-1.3988 4.7485-2.8896 8.0982-4.4724 10.0491s-3.9571 2.9264-7.1227 2.9264c-1.6196 0-3.1104-.2393-4.4724-.7178-.1104-1.0307.1841-2.0246.8834-2.9816 1.1411.4049 2.3559.6073 3.6442.6073 1.9509 0 3.4417-.6625 4.4724-1.9877 1.0307-1.3251 1.9693-3.3865 2.816-6.184l.1656-.5522c-.9571-.0736-1.6932-.2945-2.2086-.6626-.4785-.3681-.8834-1.049-1.2147-2.0429l-7.7301-24.2945c1.1411-.4785 1.9509-.7178 2.4295-.7178 1.0675 0 1.7853.6442 2.1534 1.9325l4.3619 13.8589c.1473.4418.9939 3.3129 2.5399 8.6135.0736.2577.2577.3865.5521.3865l6.7362-24.4049c.4786-.1472 1.1043-.2208 1.8773-.2208.8099 0 1.4908.1104 2.043.3313z"/><path d="m52.4009 41.135v10.9325c0 .9938-.1472 1.6932-.4417 2.0981-.2945.4418-.8834.6626-1.7669.6626h-1.4908l-.3312-.3313v-38.4846l.3312-.3313h1.4356c.8835 0 1.4724.2392 1.7669.7178.3313.4417.4969 1.1779.4969 2.2086v.276c2.2086-2.4662 4.8405-3.6994 7.8957-3.6994 3.1289 0 5.4847 1.27 7.0675 3.8099 1.5828 2.503 2.3743 5.9816 2.3743 10.4356 0 2.1717-.2945 4.1226-.8835 5.8527-.5521 1.7301-1.3067 3.2025-2.2638 4.4172-.9202 1.1779-1.9877 2.0981-3.2024 2.7607-1.2148.6258-2.4663.9387-3.7546.9387-2.5399 0-4.951-.7546-7.2332-2.2638zm0-17.9448v14.1902c2.2454 1.6564 4.362 2.4846 6.3497 2.4846 1.9878 0 3.6258-.8834 4.9141-2.6503 1.2884-1.7668 1.9326-4.4356 1.9326-8.0061 0-1.7669-.1657-3.2945-.497-4.5828-.2945-1.3252-.6994-2.4111-1.2147-3.2577-.5153-.8834-1.1227-1.5276-1.8221-1.9325-.6626-.4417-1.3804-.6626-2.1534-.6626-1.4724 0-2.8711.3865-4.1963 1.1595-1.3251.773-2.4294 1.8589-3.3129 3.2577z"/><path d="m97.6973 30.6442h-17.1166c.1841 6.2576 2.5583 9.3865 7.1227 9.3865 2.5031 0 5.1718-.773 8.0061-2.319.8099.7361 1.3068 1.6748 1.4909 2.8159-3.0184 2.0614-6.405 3.092-10.1596 3.092-1.9141 0-3.5521-.3497-4.9141-1.049-1.3619-.7362-2.4846-1.7301-3.3681-2.9816-.8466-1.2884-1.4724-2.7976-1.8773-4.5277-.4049-1.73-.6073-3.6257-.6073-5.6871 0-2.0981.2392-4.0122.7178-5.7423.5153-1.7301 1.2515-3.2209 2.2085-4.4724.9571-1.2515 2.0982-2.227 3.4234-2.9264 1.3619-.6994 2.9079-1.0491 4.638-1.0491 1.6932 0 3.2025.3129 4.5276.9387 1.362.589 2.4847 1.4172 3.3681 2.4847.9203 1.0306 1.6196 2.2822 2.0982 3.7546.4785 1.4355.7178 2.9816.7178 4.638 0 .6626-.0369 1.3067-.1105 1.9325-.0368.589-.092 1.1595-.1656 1.7117zm-17.1166-3.1473h13.2516v-.7178c0-2.5398-.5338-4.5828-1.6013-6.1288s-2.6687-2.319-4.8037-2.319c-2.0981 0-3.7362.8282-4.9141 2.4847-1.1411 1.6564-1.7852 3.8834-1.9325 6.6809z"/><path d="m103.381 41.0245c.036-.8098.257-1.6932.662-2.6503.442-.9938.939-1.7668 1.491-2.319 2.908 1.5828 5.466 2.3743 7.675 2.3743 1.214 0 2.19-.2393 2.926-.7178.773-.4786 1.16-1.1227 1.16-1.9326 0-1.2883-.994-2.319-2.982-3.092l-3.092-1.1595c-4.638-1.6932-6.957-4.3988-6.957-8.1166 0-1.3251.239-2.503.718-3.5337.515-1.0675 1.214-1.9693 2.098-2.7055.92-.773 2.006-1.362 3.258-1.7669 1.251-.4049 2.65-.6074 4.196-.6074.699 0 1.472.0553 2.319.1657.883.1104 1.767.2761 2.65.4969.884.1841 1.73.4049 2.54.6626s1.509.5337 2.098.8282c0 .9203-.184 1.8773-.552 2.8712s-.865 1.73-1.491 2.2086c-2.908-1.2884-5.429-1.9325-7.564-1.9325-.957 0-1.712.2392-2.264.7178-.552.4417-.828 1.0306-.828 1.7668 0 1.1411.92 2.043 2.761 2.7055l3.368 1.2148c2.429.8466 4.233 2.0061 5.411 3.4785s1.767 3.184 1.767 5.135c0 2.6135-.976 4.7116-2.927 6.2944-1.951 1.5461-4.748 2.3191-8.392 2.3191-3.571 0-6.921-.9019-10.049-2.7056z"/><path d="m151.772 31.5828h-15.239c.111 2.0246.571 3.6258 1.38 4.8037.847 1.1411 2.301 1.7117 4.362 1.7117 2.135 0 4.583-.6258 7.344-1.8773 1.067 1.1042 1.748 2.5582 2.043 4.3619-2.945 2.0982-6.479 3.1473-10.601 3.1473-3.902 0-6.865-1.1964-8.89-3.589-1.988-2.4294-2.981-6.0184-2.981-10.7669 0-2.2086.257-4.1963.773-5.9632.515-1.8036 1.269-3.3312 2.263-4.5828.994-1.2883 2.209-2.2822 3.644-2.9816 1.436-.6994 3.074-1.0491 4.915-1.0491 1.877 0 3.533.2945 4.969.8835 1.436.5521 2.65 1.3619 3.644 2.4294.994 1.0307 1.73 2.2638 2.209 3.6994.515 1.4356.773 3 .773 4.6933 0 .9202-.056 1.8036-.166 2.6503-.11.8098-.258 1.6196-.442 2.4294zm-10.656-11.5951c-2.871 0-4.417 2.1718-4.638 6.5154h9.165v-.6626c0-1.7669-.368-3.1841-1.104-4.2515-.736-1.0675-1.877-1.6013-3.423-1.6013z"/><path d="m182.033 24.5153v12.0368c0 2.3559.386 4.1043 1.159 5.2454-1.178 1.0307-2.595 1.5461-4.251 1.5461-1.583 0-2.669-.3497-3.258-1.0491-.589-.7362-.884-1.8773-.884-3.4233v-12.8651c0-1.6564-.202-2.8159-.607-3.4785s-1.159-.9939-2.264-.9939c-1.951 0-3.773.8835-5.466 2.6504v18.773c-.552.1104-1.141.184-1.767.2208-.589.0368-1.196.0552-1.822.0552s-1.251-.0184-1.877-.0552c-.589-.0368-1.16-.1104-1.712-.2208v-27.3313l.331-.3865h2.761c2.062 0 3.35 1.1043 3.865 3.3128 2.687-2.319 5.356-3.4785 8.006-3.4785 2.651 0 4.602.8651 5.853 2.5951 1.288 1.6933 1.933 3.9755 1.933 6.8466z"/><path d="m187.825 41.0245c.036-.8098.257-1.6932.662-2.6503.442-.9938.939-1.7668 1.491-2.319 2.908 1.5828 5.466 2.3743 7.675 2.3743 1.214 0 2.19-.2393 2.926-.7178.773-.4786 1.16-1.1227 1.16-1.9326 0-1.2883-.994-2.319-2.982-3.092l-3.092-1.1595c-4.638-1.6932-6.957-4.3988-6.957-8.1166 0-1.3251.239-2.503.718-3.5337.515-1.0675 1.214-1.9693 2.098-2.7055.92-.773 2.006-1.362 3.258-1.7669 1.251-.4049 2.65-.6074 4.196-.6074.699 0 1.472.0553 2.319.1657.883.1104 1.767.2761 2.65.4969.884.1841 1.73.4049 2.54.6626s1.509.5337 2.098.8282c0 .9203-.184 1.8773-.552 2.8712s-.865 1.73-1.491 2.2086c-2.908-1.2884-5.429-1.9325-7.564-1.9325-.957 0-1.712.2392-2.264.7178-.552.4417-.828 1.0306-.828 1.7668 0 1.1411.92 2.043 2.761 2.7055l3.368 1.2148c2.429.8466 4.233 2.0061 5.411 3.4785s1.767 3.184 1.767 5.135c0 2.6135-.976 4.7116-2.927 6.2944-1.951 1.5461-4.748 2.3191-8.392 2.3191-3.571 0-6.921-.9019-10.049-2.7056z"/><path d="m236.216 31.5828h-15.239c.111 2.0246.571 3.6258 1.38 4.8037.847 1.1411 2.301 1.7117 4.362 1.7117 2.135 0 4.583-.6258 7.344-1.8773 1.067 1.1042 1.748 2.5582 2.043 4.3619-2.945 2.0982-6.479 3.1473-10.601 3.1473-3.902 0-6.865-1.1964-8.89-3.589-1.988-2.4294-2.981-6.0184-2.981-10.7669 0-2.2086.257-4.1963.773-5.9632.515-1.8036 1.269-3.3312 2.263-4.5828.994-1.2883 2.209-2.2822 3.645-2.9816 1.435-.6994 3.073-1.0491 4.914-1.0491 1.877 0 3.533.2945 4.969.8835 1.436.5521 2.65 1.3619 3.644 2.4294.994 1.0307 1.73 2.2638 2.209 3.6994.515 1.4356.773 3 .773 4.6933 0 .9202-.055 1.8036-.166 2.6503-.11.8098-.258 1.6196-.442 2.4294zm-10.656-11.5951c-2.871 0-4.417 2.1718-4.638 6.5154h9.166v-.6626c0-1.7669-.369-3.1841-1.105-4.2515-.736-1.0675-1.877-1.6013-3.423-1.6013z"/><path d="m244.777 50.6871v-50.521455c.552-.1104299 1.178-.165645 1.878-.165645.736 0 1.417.0552151 2.042.165645v50.521455c-.625.1104-1.306.1657-2.042.1657-.7 0-1.326-.0553-1.878-.1657z"/></g><path d="m172.021 65.9908v-.3712c0-.4949-.068-.9785-.203-1.4509-.134-.4724-.348-.8885-.641-1.2485-.27-.3599-.629-.6411-1.079-.8435-.428-.225-.945-.3374-1.553-.3374-1.282 0-2.294.5848-3.036 1.7546-.743 1.1697-1.114 2.8343-1.114 4.9938s.36 3.7792 1.08 4.8589c.742 1.0573 1.743 1.5859 3.003 1.5859 1.327 0 2.846-.6186 4.555-1.8558.608.3599 1.001.8885 1.181 1.5859-1.732 1.6196-3.678 2.4294-5.837 2.4294-1.08 0-2.025-.2137-2.835-.6411-.809-.4274-1.495-1.001-2.058-1.7208-.562-.7424-.99-1.6084-1.282-2.5982-.27-1.0123-.405-2.092-.405-3.2393 0-1.5521.169-2.9018.506-4.049.36-1.1698.844-2.1258 1.451-2.8681.63-.7649 1.361-1.3272 2.193-1.6872.833-.3824 1.721-.5736 2.666-.5736.967 0 1.811.1575 2.531.4724.719.2925 1.316.6749 1.788 1.1473.495.4724.866.9897 1.113 1.5521.248.5624.372 1.091.372 1.5859 0 1.0797-.439 1.6196-1.316 1.6196-.315 0-.675-.0337-1.08-.1012z" fill="#d90368"/><path d="m182.473 74.7638h1.417c.09.2025.146.4274.169.6749.045.2474.067.4723.067.6748 0 .135-.011.2474-.034.3374v.1687c-.36.0675-.708.1238-1.046.1687-.337.045-.675.0675-1.012.0675-.922 0-1.698-.2024-2.328-.6073-.63-.4274-.945-1.1698-.945-2.227v-21.9325l.202-.2025h.911c.54 0 .9.135 1.08.4049.18.2475.27.6749.27 1.2822v19.7393c0 .9673.416 1.4509 1.249 1.4509z" fill="#d90368"/><path d="m198.481 75.3037c-1.192 1.1922-2.744 1.7883-4.656 1.7883-1.125 0-2.126-.2137-3.003-.6411-.855-.4274-1.586-1.0122-2.194-1.7546-.584-.7648-1.034-1.6758-1.349-2.7331-.293-1.0798-.439-2.2607-.439-3.543 0-1.2822.146-2.4519.439-3.5092.315-1.0797.765-2.002 1.349-2.7668.608-.7649 1.339-1.361 2.194-1.7884.877-.4274 1.878-.6411 3.003-.6411s2.114.2137 2.969.6411c.877.4274 1.609 1.0235 2.193 1.7884.608.7648 1.069 1.6871 1.384 2.7668.315 1.0573.472 2.227.472 3.5092 0 3.0144-.787 5.3088-2.362 6.8835zm-4.622-.1687c1.439 0 2.53-.6074 3.273-1.8221.764-1.2372 1.147-2.8681 1.147-4.8927 0-.8997-.09-1.7546-.27-2.5644-.158-.8323-.416-1.5521-.776-2.1595-.36-.6298-.821-1.1247-1.384-1.4846-.562-.36-1.237-.5399-2.024-.5399-.765 0-1.429.1799-1.991.5399-.54.3374-.99.8098-1.35 1.4171-.36.6074-.63 1.3272-.809 2.1595-.158.8099-.237 1.6872-.237 2.6319 0 .9448.079 1.8221.237 2.6319.179.8099.438 1.5185.776 2.1258.36.6074.821 1.091 1.383 1.4509.562.3375 1.237.5062 2.025.5062z" fill="#d90368"/><path d="m205.383 71.727v-8.4018c0-1.1923-.135-2.1483-.405-2.8681.383-.36.912-.5399 1.586-.5399.855 0 1.283.5511 1.283 1.6534v9.3466c0 1.4172.18 2.4069.539 2.9693.36.5624.99.8436 1.89.8436s1.833-.2362 2.801-.7086c.967-.4949 1.777-1.1248 2.429-1.8896v-11.9785c.135-.045.315-.0788.54-.1013.225-.0224.461-.0337.709-.0337.247 0 .472.0113.674.0337.225.0225.417.0563.574.1013v11.8773c0 1.7996.315 3.003.945 3.6104-.203.6299-.585 1.0573-1.147 1.2822-1.103-.3599-1.811-1.1922-2.126-2.4969-.765.7648-1.687 1.3834-2.767 1.8558-1.057.4724-2.126.7086-3.206.7086-1.507 0-2.609-.4836-3.306-1.4509-.675-.9673-1.013-2.2383-1.013-3.8129z" fill="#d90368"/><path d="m229.033 59.8497c1.35 0 2.756.4611 4.218 1.3834v-9.1441l.203-.2025h.911c.517 0 .866.135 1.046.4049.18.2475.27.6749.27 1.2822v18.4571c0 1.7771.315 2.9805.944 3.6104-.225.6074-.596 1.0348-1.113 1.2822-1.035-.3599-1.721-1.1135-2.058-2.2607-1.395 1.6196-3.037 2.4294-4.927 2.4294-1.957 0-3.419-.7648-4.386-2.2945-.945-1.5296-1.417-3.6554-1.417-6.3773 0-1.3721.179-2.5869.539-3.6441.36-1.0798.833-1.9796 1.418-2.6994.584-.7423 1.248-1.2935 1.99-1.6534.765-.3824 1.553-.5736 2.362-.5736zm-.168 15.0828c.764 0 1.541-.2249 2.328-.6748.81-.4724 1.496-1.1135 2.058-1.9233v-8.8068c-1.485-1.0123-2.789-1.5184-3.914-1.5184-1.147 0-2.114.5511-2.902 1.6534-.787 1.0797-1.181 2.7106-1.181 4.8926s.338 3.7904 1.012 4.8252c.698 1.0347 1.564 1.5521 2.599 1.5521z" fill="#d90368"/></svg>