<svg fill="none" height="67" viewBox="0 0 313 67" width="313" xmlns="http://www.w3.org/2000/svg"><g fill="#000"><path d="m6.04763 50.4915c-3.64853 4.9443-6.468188 12.2294-3.54606 14.4245 4.12279 3.0968 22.86863-5.4728 37.84583-23.9346 14.977-18.4615 19.9367-37.5008 13.2765-40.42836-3.0702-1.349578-9.4859 2.94367-13.1687 6.5084l1.5896.85381c3.6244-2.31798 9.6673-4.71292 4.0799 5.37065-.0265.0482-.0533.0965-.0804.145-7.9097-6.00082-18.9041-7.23647-28.2442-2.2643-12.79636 6.8121-17.641689 22.6969-10.8223 35.4796 1.6049 3.0083 3.7128 5.577 6.1649 7.657-9.68272 7.4725-7.32108.9768-5.9659-2.2194z"/><path d="m56.2539 31.4604c1.129 10.3423-4.0053 20.8049-13.7583 25.9968-3.3181 1.7663-6.8452 2.7493-10.3684 3.0134 3.3952-6.3223 7.9726-12.8093 13.5931-18.9778 3.3941-3.7252 6.9397-7.0827 10.5336-10.0324z"/><path d="m86.2989 23.1597-3.689 29.882h9.6583l3.6889-29.882zm.4695-12.73c0 3.149 2.4816 5.628 5.6339 5.628 3.1524 0 5.6341-2.479 5.6341-5.628 0-3.14896-2.4817-5.62796-5.6341-5.62796-3.1523 0-5.6339 2.479-5.6339 5.62796z"/><path d="m104.232 23.1597-3.689 29.882h9.658l1.744-14.74c.201-1.608.603-4.489 2.347-6.298 1.208-1.206 2.683-1.608 4.36-1.608 1.006 0 2.482.201 3.555 1.273 1.006 1.072 1.207 2.479 1.207 3.618 0 .469 0 1.742-.402 4.824l-1.61 12.931h9.658l1.811-15.343c.402-3.216.469-4.69.469-5.695 0-1.809-.201-4.824-2.548-7.102-2.281-2.211-5.299-2.546-7.78-2.546-2.08 0-3.756.134-5.903 1.273-1.274.67-2.548 1.608-3.689 2.814l.47-3.283z"/><path d="m163.548 25.1698c-4.091-2.814-7.646-3.015-9.859-3.015-2.146 0-6.774.201-9.86 3.216-1.609 1.608-2.817 4.0869-2.817 6.9679s1.275 4.556 2.013 5.36c1.408 1.407 3.42 2.211 5.03 2.68l2.146.67c.805.268 1.744.469 2.348.871.469.335.939.871.939 1.876 0 .938-.403 1.474-1.208 1.943-.804.469-1.743.67-2.951.67-2.079 0-3.823-.804-4.158-.938-1.207-.536-2.616-1.474-3.689-2.479l-4.091 6.499c1.408 1.273 2.951 2.345 4.627 3.082 2.683 1.206 5.232 1.474 7.781 1.474 2.616 0 7.311-.402 10.53-3.752 1.274-1.273 2.817-3.685 2.817-7.37 0-2.345-.671-4.154-2.213-5.695-1.677-1.742-3.689-2.412-5.165-2.814l-2.213-.603c-1.677-.469-2.147-.67-2.348-.804-.738-.469-.939-1.072-.939-1.608s.269-1.139.671-1.474c.671-.603 1.945-.804 2.884-.804 2.348 0 4.293 1.005 5.634 2.01z"/><path d="m186.325 30.9317.939-7.772h-5.902l1.207-9.648h-9.658l-1.207 9.648h-3.488l-.939 7.772h3.488l-2.75 22.11h9.658l2.75-22.11z"/><path d="m213.746 26.7778c-1.341-1.876-2.951-2.948-4.091-3.484-1.945-.938-4.092-1.139-5.836-1.139-4.158 0-7.914 1.206-10.999 4.355-2.884 2.9479-4.829 7.3699-4.829 12.8639 0 5.159 1.811 8.643 4.024 10.988 2.616 2.747 5.567 3.685 9.256 3.685 1.14 0 3.487-.134 5.567-1.072 1.609-.737 3.152-2.077 4.225-3.35l-.738 3.417h9.659l3.689-29.8819h-9.659zm-7.847 3.6849c2.615 0 4.158.871 5.03 1.675 1.274 1.139 2.079 3.015 2.079 5.159 0 2.211-.805 4.757-2.548 6.432-1.007.938-2.75 2.01-5.5 2.01-1.945 0-3.689-.536-5.098-2.01-.939-1.005-1.945-2.613-1.945-5.092s.939-4.623 2.281-5.963c1.475-1.474 3.286-2.211 5.701-2.211z"/><path d="m246.454 30.9317.939-7.772h-5.903l1.208-9.648h-9.659l-1.207 9.648h-3.488l-.939 7.772h3.488l-2.75 22.11h9.658l2.75-22.11z"/><path d="m272.466 23.1598-1.878 15.6779c-.402 3.551-1.543 4.958-1.945 5.36-1.073 1.139-2.884 1.675-4.427 1.675-1.408 0-3.085-.469-3.957-1.273-.671-.603-1.274-1.675-1.274-3.283 0-.737.134-1.407.335-3.283l1.744-14.8739h-9.658l-1.811 15.2089c-.135.938-.336 3.015-.336 4.221 0 3.149 1.208 6.164 3.22 8.04 3.353 3.216 8.652 3.417 11.67 3.417 3.421 0 8.183-.402 11.738-3.819 3.353-3.216 3.957-7.37 4.36-10.921l1.878-16.1469z"/><path d="m311.052 25.1698c-4.091-2.814-7.646-3.015-9.859-3.015-2.147 0-6.775.201-9.86 3.216-1.61 1.608-2.817 4.0869-2.817 6.9679s1.274 4.556 2.012 5.36c1.409 1.407 3.421 2.211 5.031 2.68l2.146.67c.805.268 1.744.469 2.347.871.47.335.939.871.939 1.876 0 .938-.402 1.474-1.207 1.943s-1.744.67-2.951.67c-2.079 0-3.823-.804-4.158-.938-1.208-.536-2.616-1.474-3.689-2.479l-4.092 6.499c1.409 1.273 2.951 2.345 4.628 3.082 2.683 1.206 5.232 1.474 7.78 1.474 2.616 0 7.311-.402 10.531-3.752 1.274-1.273 2.817-3.685 2.817-7.37 0-2.345-.671-4.154-2.214-5.695-1.676-1.742-3.689-2.412-5.164-2.814l-2.214-.603c-1.676-.469-2.146-.67-2.347-.804-.738-.469-.939-1.072-.939-1.608s.268-1.139.671-1.474c.67-.603 1.945-.804 2.884-.804 2.347 0 4.292 1.005 5.634 2.01z"/></g></svg>