<svg width="355" height="120" viewBox="0 0 355 120" fill="none" xmlns="http://www.w3.org/2000/svg">
<g clip-path="url(#clip0_3409_231)">
<path fill-rule="evenodd" clip-rule="evenodd" d="M0 0H38.0685V26.2069H50.4522V13.3333H63.2946V0H100.904V39.5402H88.062V52.8736H75.2196V66.2069H88.062V79.5402H100.904V119.08H62.8359V105.747H50.4522V91.954H38.0685V118.161H0V0ZM252.72 0H290.788V26.2069H303.63V13.3333H316.473V0H354.541V39.5402H341.699V52.8736H328.857V66.2069H341.699V79.5402H354.541V119.08H316.473V105.747H303.63V91.954H290.788V118.161H252.72V0ZM113.747 0H151.815V118.161H113.747V0ZM202.267 0H177.041V13.3333H164.199V105.287H177.041V118.621H240.336V79.0805H202.267V39.5402H240.336V0H202.267Z" fill="black"/>
</g>
<defs>
<clipPath id="clip0_3409_231">
<rect width="355" height="120" fill="white"/>
</clipPath>
</defs>
</svg>
