<svg fill="none" height="104" viewBox="0 0 660 104" width="660" xmlns="http://www.w3.org/2000/svg"><path d="m570.1 2.1c-3 1-5.8 2.5-6.3 3.2-.4.6-.8 4.2-.8 7.9v6.7l-4.7.3-4.8.3v7.5 7.5l4.7.3 4.7.3.3 24.7c.3 24.2.3 24.8 2.8 29.2 1.4 2.4 4.4 5.7 6.7 7.4 3.5 2.4 5.2 2.9 10.5 3l6.3.1v-6.9c0-6.8-.1-7-2.8-7.7-5.8-1.6-5.7-1.2-5.7-26.5v-23.3l5.8-.3 5.7-.3.3-5.4c.5-9.3 0-10.1-6.3-10.1h-5.5v-8.8c0-12.000002-.9-12.7-10.9-9.1z" fill="#d0021b"/><g fill="#0a3040"><path d="m30.9 5.8001c-13.1 4.4-22.9 14.6-28 29.2-3.099999 8.9-3.299999 27.8-.5 36 3.2 9.3 6.6 15.1 12 20.5 9.7 9.6999 23.9 13.9999 38.5 11.7999 23.5-3.6999 38-22.3999 38.1-49.2999 0-21.1-9.6-38.2-25.9-46.3-6-2.9-7.4-3.2-17.6-3.4-8.5-.2-12.3.1-16.6 1.5zm21.9 16.4c3.3.8 6 2.5 9.3 5.8 6.5 6.5 8.4 12.5 8.4 26.6 0 10.7-.1 11.3-3.5 18-4.8 9.4-9.5 12.7-19.1 13.2-8.9.5-14.4-1.5-19.7-7.2-5.5-6-7.7-12.9-7.7-24.6 0-24 12.9-36.7 32.3-31.8z"/><path d="m150.7 5.70018c-.4.3-.7 8.30002-.7 17.70002 0 15.7-.1 16.9-1.5 14.8-4.7-6.6-16.9-9.7-26.9-6.8-10.9 3.2-18.6 13.6-20.7 28-1.9 12.8 2 27.7 9.4 35.5 9.5 9.9998 28 11.0998 36.9 2.2l3.7-3.8.3 4.1.3 4.0998h8.5 8.5l.3-48.2998.2-48.20002h-8.8c-4.9 0-9.2.3-9.5.7zm-7.7 41.20002c10.5 7.4 10.8 31.8.4 40-3.5 2.8-11.6 2.9-16 .2-5.5-3.4-7.7-8.3-8.2-18.3-.5-10.2 1.1-15.8 5.7-20.2 4.8-4.6 12.8-5.3 18.1-1.7z"/><path d="m230.7 5.6c-.4.4-.7 8.4-.7 17.8 0 15.7-.1 16.9-1.5 14.8-2.6-3.6-9.9-7.3-15.8-7.9-24-2.5-38.9 24.1-29.5 52.7 1.7 5.1 3.3 7.6 7.7 12 6.2 6.2 10.6 8 19.2 8 7.9 0 12.9-1.7 17.1-5.9l3.7-3.8.3 4.1.3 4.1h8.5 8.5v-48-48l-8.5-.3c-4.7-.1-8.9 0-9.3.4zm-11.7 39.4c1.1 0 3.5 1.4 5.5 3.1 9.1 8 8.4 31.3-1.1 38.8-3.5 2.8-11.6 2.9-16 .2-5.6-3.4-7.8-8.4-8.2-18.6-.6-13.9 3.3-21.4 12.3-23.6 1.6-.4 3.6-.5 4.3-.3.8.2 2.2.4 3.2.4z"/><path d="m263 53v48h9 9v-48-48h-9-9z"/></g><path d="m382 53.5v47.5h33 33v-8.5-8.5h-24-24v-12-12h17.9c20.2 0 19.1.5 19.1-8.5s1.1-8.5-19.1-8.5h-17.9v-10-10l23.3-.2 23.2-.3v-8-8l-32.2-.3-32.3-.2z" fill="#d0021b"/><path d="m492 19.4002c-12.9 2.8-23.6 11.3-29.3 23.3-3 6.4-3.2 7.5-3.2 17.9 0 10.7.1 11.2 3.8 18.6 11 22.2998 38.8 30.4998 56 16.7 2.1-1.7 4-2.9 4.1-2.8.1.2.7 2 1.2 3.9l1 3.4998 6.8.3c4.1.2 7.3-.2 8.2-.8998 1.9-1.6 2.1-76.8.2-78.7-.7-.7-3.9-1.2-7.5-1.2-5.9 0-6.3.2-6.8 2.5-.3 1.4-.7 3.7-1 5.1l-.6 2.6-3.9-3.6c-5.1-4.6-8.4-6.2-15.5-7.5-6.8-1.3-6.4-1.3-13.5.3zm19.1 19.4c16 8.3 18.6 29.2 5.2 41.3-5.1 4.6-10 6.2-17.3 5.7-20.7-1.5-29.2-27.7-14-42.9 7.6-7.6 16.7-9 26.1-4.1z" fill="#d0021b"/><path d="m624.9 19.0001c-12.8 2.2-20.9 11.1-20.9 23 0 13.6 6.6 20.6 25 26.5 9.6 3.1 13 5.6 13 9.5 0 4.4-3.4 7.7-8.9 8.9-6.5 1.4-12.1-.5-17.8-6.1-4.6-4.5-4.4-4.6-11.7 1.5-3.6 2.9-3.2 5.5 1.9 11.4 12.9 14.9999 43.1 12.7999 51.6-3.9 4.4-8.5 3.4-19.3-2.3-26.3-4.2-5.1-9.2-7.9-20-11.6-9.9-3.3-13.8-6-13.8-9.4 0-8.8 14.2-10.8 21.7-2.9 1.7 1.9 3.5 3.4 4 3.4 1.2 0 10.3-8 10.3-9.1 0-2-9.3-10.9-13.3-12.8-5-2.3-12.5-3.1-18.8-2.1z" fill="#d0021b"/><path d="m314.4 33.1002c-11.9 4.5-20 16.2-21.1 30-1.3 16.9 5.7 30.8 18.5 37.0998 7.1 3.4 20.6 3.8 28.7.8 7-2.5998 13-8.2998 16.3-15.2998 1.2-2.6 2.2-4.9 2.2-5.2s-3.5-.5-7.9-.5c-7.3 0-8 .2-9.5 2.5-2.8 4.2-7.5 6.5-13.4 6.5-9.6 0-14.8-4.4-16.5-13.8l-.6-3.2h24.6 24.6l-.6-7.8c-1.1-15.8-9.2-27.8-21.6-32-5.4-1.9-17.8-1.4-23.7.9zm20.4 13.6c2.2 1.4 6.1 8.4 6.2 11 0 1-3.7 1.3-15.1 1.3h-15l.7-2.3c1.1-3.7 3.1-7.1 5.3-9.1 4-3.6 12.9-4.1 17.9-.9z" fill="#0a3040"/></svg>