<svg xmlns="http://www.w3.org/2000/svg" width="322" height="443" viewBox="0 0 322 443" fill="none">
<g clip-path="url(#clip0_1717_36073)">
<path d="M363.574 304.178C363.574 305.793 363.35 307.408 362.844 308.857C362.562 309.804 362.225 310.695 361.775 311.53C359.076 316.543 353.791 319.941 347.663 319.941C345.245 319.941 342.996 319.384 340.972 318.493L304.931 388.341C304.032 388.007 303.132 387.673 302.232 387.45L338.554 317.045C334.45 314.26 331.751 309.525 331.751 304.178C331.751 295.489 338.891 288.415 347.663 288.415C356.434 288.415 363.574 295.489 363.574 304.178Z" fill="white"/>
<path d="M404.811 383.335C404.811 388.682 400.426 393.027 395.028 393.027C390.474 393.027 386.594 389.908 385.582 385.674L317.887 402.162C317.606 401.215 317.212 400.379 316.818 399.544L385.301 382.945C385.47 377.765 389.743 373.643 395.028 373.643C400.313 373.643 404.811 377.988 404.811 383.335Z" fill="white"/>
<path d="M120.768 301.851C126.171 301.851 130.551 297.511 130.551 292.159C130.551 286.806 126.171 282.467 120.768 282.467C115.364 282.467 110.984 286.806 110.984 292.159C110.984 297.511 115.364 301.851 120.768 301.851Z" fill="white"/>
<path d="M173.672 238.57C179.075 238.57 183.455 234.231 183.455 228.878C183.455 223.525 179.075 219.186 173.672 219.186C168.269 219.186 163.889 223.525 163.889 228.878C163.889 234.231 168.269 238.57 173.672 238.57Z" fill="white"/>
<path d="M101.059 376.082C103.974 376.082 106.337 373.741 106.337 370.854C106.337 367.966 103.974 365.625 101.059 365.625C98.1442 365.625 95.7812 367.966 95.7812 370.854C95.7812 373.741 98.1442 376.082 101.059 376.082Z" fill="white"/>
<path d="M252.02 231.429C254.935 231.429 257.298 229.088 257.298 226.201C257.298 223.313 254.935 220.972 252.02 220.972C249.105 220.972 246.742 223.313 246.742 226.201C246.742 229.088 249.105 231.429 252.02 231.429Z" fill="white"/>
<path d="M218.879 122.921C221.794 122.921 224.157 120.58 224.157 117.692C224.157 114.804 221.794 112.463 218.879 112.463C215.965 112.463 213.602 114.804 213.602 117.692C213.602 120.58 215.965 122.921 218.879 122.921Z" fill="white"/>
<path d="M352.491 447.662C349.511 447.662 346.868 448.943 345.125 451.004L310.997 426.886C315.944 422.708 319.093 416.47 319.093 409.507C319.093 406.945 318.643 404.494 317.856 402.21C317.575 401.208 317.181 400.372 316.788 399.537C314.314 394.524 310.097 390.513 304.924 388.341C304.025 388.007 303.125 387.672 302.225 387.45C300.257 386.893 298.177 386.614 296.041 386.614C290.53 386.614 285.47 388.508 281.478 391.739L216.257 314.482C219.124 311.641 220.867 307.742 220.867 303.398C220.867 294.653 213.783 287.579 204.955 287.579C196.128 287.579 189.043 294.653 189.043 303.398C189.043 307.408 190.562 311.084 193.092 313.869L144.794 378.76C141.196 375.418 136.36 373.357 131.019 373.357C119.886 373.357 110.89 382.325 110.89 393.354C110.89 404.383 119.886 413.295 131.019 413.295C136.36 413.295 141.252 411.234 144.85 407.836L178.023 461.921C171.614 464.706 167.172 471.056 167.172 478.464C167.172 485.872 171.332 491.777 177.405 494.729L150.698 561.569C149.461 561.291 148.168 561.18 146.874 561.18C136.529 561.18 128.095 569.479 128.095 579.784C128.095 586.802 132.031 592.929 137.822 596.104L118.48 638.38C115.894 636.654 112.745 635.595 109.372 635.595C100.488 635.595 93.3477 642.725 93.3477 651.526C93.3477 660.326 100.488 667.456 109.372 667.456C118.256 667.456 125.452 660.326 125.452 651.526C125.452 647.125 123.653 643.115 120.729 640.274L140.352 597.274C142.376 598.053 144.569 598.443 146.874 598.443C157.276 598.443 165.71 590.088 165.71 579.784C165.71 577.388 165.26 575.105 164.417 573.044L292.667 524.807C295.029 528.762 298.627 531.881 302.956 533.663L281.085 606.186C280.354 606.018 279.566 605.963 278.779 605.963C271.133 605.963 264.948 612.146 264.948 619.721C264.948 627.296 271.133 633.423 278.779 633.423C286.426 633.423 292.667 627.296 292.667 619.721C292.667 613.872 288.956 608.915 283.783 606.91L305.655 534.499C307.398 535 309.197 535.223 311.053 535.223C322.916 535.223 332.531 525.698 332.531 513.946C332.531 502.193 322.916 492.668 311.053 492.668C308.748 492.668 306.555 493.058 304.474 493.726L297.502 432.344C301.607 432.121 305.43 430.785 308.691 428.612L343.607 453.288C342.989 454.513 342.652 455.906 342.652 457.354C342.652 462.757 347.037 467.101 352.491 467.101C357.945 467.101 362.274 462.757 362.274 457.354C362.274 451.951 357.889 447.662 352.491 447.662ZM195.172 315.819C197.871 317.88 201.244 319.161 204.955 319.161C208.385 319.161 211.534 318.102 214.12 316.264L279.342 393.632C276.418 396.64 274.338 400.484 273.438 404.717L150.866 397.142C151.091 395.916 151.204 394.635 151.204 393.354C151.204 388.619 149.573 384.275 146.762 380.877L195.172 315.819ZM163.18 570.537C161.043 566.75 157.557 563.853 153.453 562.349L180.047 495.787H180.104C181.79 496.344 183.646 496.623 185.501 496.623C193.485 496.623 200.289 491.554 202.762 484.48L290.587 507.763C289.968 509.712 289.631 511.773 289.631 513.946C289.631 516.898 290.249 519.738 291.374 522.356L163.18 570.537ZM301.776 494.785C297.278 496.957 293.679 500.577 291.599 505.089L203.493 481.806C203.718 480.692 203.831 479.578 203.831 478.464C203.831 468.438 195.622 460.306 185.501 460.306C183.871 460.306 182.296 460.529 180.778 460.974L146.874 405.719C148.28 403.993 149.348 401.987 150.079 399.871L273.044 407.446C272.988 408.115 272.932 408.783 272.932 409.507C272.932 413.852 274.113 417.862 276.249 421.26L239.534 444.208C238.691 443.651 237.678 443.317 236.61 443.317C233.686 443.317 231.325 445.657 231.325 448.553C231.325 451.45 233.686 453.733 236.61 453.733C239.534 453.733 241.839 451.394 241.839 448.553C241.839 447.773 241.671 446.993 241.333 446.325L277.823 423.544C281.759 428.557 287.775 431.954 294.635 432.344L301.776 494.785Z" fill="white"/>
<path d="M418.02 135.855C418.02 143.041 412.172 148.833 404.975 148.833C399.128 148.833 394.236 145.101 392.493 139.921L312.316 156.576C312.259 162.703 309.448 168.217 305.063 171.893L361.513 226.758C362.3 226.313 363.2 226.034 364.156 226.034C367.023 226.034 369.385 228.374 369.385 231.214C369.385 234.055 367.023 236.45 364.156 236.45C361.288 236.45 358.87 234.111 358.87 231.214C358.87 230.323 359.095 229.432 359.545 228.708L302.814 173.62C299.553 175.737 295.673 176.962 291.512 176.962C290.95 176.962 290.388 176.962 289.882 176.851L277.119 289.032C280.942 290.313 283.641 293.878 283.641 298.111C283.641 303.458 279.255 307.803 273.857 307.803C268.46 307.803 264.074 303.458 264.074 298.111C264.074 292.764 268.46 288.419 273.857 288.419C274.026 288.419 274.195 288.419 274.363 288.475L287.127 176.517C277.737 174.511 270.709 166.212 270.709 156.353C270.709 144.934 279.986 135.744 291.512 135.744C302.083 135.744 310.854 143.542 312.147 153.735L391.931 137.192C391.875 136.691 391.875 136.301 391.875 135.855C391.875 128.726 397.722 122.877 404.975 122.877C412.228 122.877 418.02 128.726 418.02 135.855Z" fill="white"/>
</g>
<defs>
<clipPath id="clip0_1717_36073">
<rect width="1147" height="1110" fill="white"/>
</clipPath>
</defs>
</svg>