<svg xmlns="http://www.w3.org/2000/svg" width="180" height="180" viewBox="0 0 180 180" fill="none">
  <path d="M132.361 86.4787C133.255 86.2771 133.941 85.5807 134.559 84.9044C137.445 81.7455 140.035 78.3164 142.285 74.677C142.53 74.2814 142.779 73.8119 142.623 73.3736C142.463 72.9235 141.913 72.7114 141.44 72.7833C140.968 72.8552 140.559 73.1416 140.179 73.4307C136.594 76.1545 133.837 79.7977 131.127 83.3924C130.712 83.9429 130.049 84.8586 130.335 85.5955C130.614 86.3146 131.678 86.6328 132.361 86.4787Z" fill="#353FD7"/>
  <path d="M135.854 89.1814C135.761 89.7441 136.317 90.3475 136.81 90.5073C137.455 90.7161 138.154 90.5318 138.802 90.3345C141.83 89.4128 144.771 88.208 147.575 86.7409C147.88 86.5814 148.215 86.3768 148.281 86.0391C148.349 85.6921 148.079 85.3498 147.752 85.2173C147.423 85.0849 147.055 85.113 146.705 85.1535C143.397 85.5349 140.269 86.813 137.189 88.0782C136.717 88.272 135.95 88.6045 135.854 89.1814Z" fill="#353FD7"/>
  <path d="M125.473 71.6027C125.235 71.8451 125.125 72.1823 125.031 72.5092C124.154 75.5874 124.138 78.8361 124.129 82.0371C124.128 82.5274 124.141 83.3311 124.618 83.6283C125.083 83.9184 125.824 83.6461 126.148 83.2668C126.57 82.7711 126.663 82.0822 126.726 81.434C127.022 78.4059 127.033 75.3502 126.762 72.32C126.732 71.9906 126.674 71.6171 126.398 71.4342C126.115 71.2466 125.712 71.3604 125.473 71.6027Z" fill="#353FD7"/>
  <path d="M119.484 44.0903C121.604 44.366 123.231 46.0512 124.607 47.6864C123.696 45.172 123.865 42.2861 125.063 39.895C125.656 38.7123 126.478 37.6626 127.294 36.622C124.776 36.881 122.615 40.6377 118.941 36.0287C118.616 35.6215 118.26 35.2912 117.976 34.8552C118.038 35.7742 118.513 36.198 118.313 38.1267C118.085 40.3275 116.571 43.9648 115.035 45.3938C116.346 44.5119 117.918 43.8867 119.484 44.0903Z" fill="#353FD7"/>
  <path d="M22.8282 149.997C23.7275 153.984 27.3571 157.27 31.9149 157.405C32.7147 157.428 41.8044 157.004 64.7649 156.001C79.1456 155.276 71.5218 156.072 114.604 151.033C117.199 150.759 120.006 150.473 122.162 147.6C128.501 144.762 135.167 140.71 142.132 141.75C143.255 144.72 146.328 144.344 149.694 144.264C152.296 144.225 155.051 144.353 157.715 144.128L159.725 143.96C159.965 143.933 161.245 143.791 161.005 143.817C163.425 143.383 163.429 141.024 163.596 138.579C165.387 118.974 168.618 115.795 166.984 112.55C166.48 111.579 165.547 111.011 164.778 110.749C163.208 110.202 161.78 110.253 160.615 110.088C157.761 109.823 155.26 109.566 153.125 109.699C148.878 109.814 148.644 109.73 147.733 109.95C147.013 110.113 146.305 110.341 145.759 110.746C144.525 111.619 144.629 113.201 144.926 113.298C144.853 113.596 144.773 113.893 144.697 114.19C145.048 111.486 143.998 115.184 143.178 117.951C142.374 120.404 141.023 127.889 140.902 132.729C140.997 134.941 141.277 137.012 141.604 139.146C129.873 137.901 119.49 148.978 109.437 148.09C106.462 147.784 104.943 146.029 104.801 144.081C104.809 144.068 104.795 143.902 104.841 143.686C104.886 143.493 105.11 143.242 105.236 143.023C105.069 142.783 103.609 140.68 103.776 140.921C103.017 141.273 103.012 141.173 102.471 141.298C102.335 141.331 102.121 141.34 102.134 141.334C98.9796 141.427 97.208 137.912 98.8495 135.476C99.7132 135.623 98.7892 135.524 107.224 133.86C108.196 133.655 108.817 132.7 108.611 131.727C108.407 130.754 107.453 130.141 106.478 130.338L98.7721 131.965C98.2922 132.066 97.9005 132.352 97.6492 132.731C95.9913 132.415 94.8159 131.189 94.4696 129.899C94.0672 128.439 94.0564 126.375 95.1616 125.484L96.0065 124.876L97.7128 123.696C94.4007 122.662 94.6404 122.736 94.1631 122.297C93.3384 121.44 93.0136 120.152 93.6293 118.603C94.3454 116.779 96.177 115.441 98.1973 114.284C106.627 109.556 109.214 109.619 114.355 108.219C110.525 106.068 110.217 105.966 108.916 104.974C108.529 104.448 108.075 103.773 107.607 102.893C106.193 101.246 105.078 99.2455 104.458 97.2354C104.176 96.2271 104.002 94.4761 104.906 93.9432C105.961 94.1951 107.257 95.1939 108.376 96.2437C110.407 97.9548 111.272 98.9571 115.123 100.171C118.548 101.683 124.232 102.967 135.018 109.344C137.305 110.574 138.646 111.963 139.943 112.646C141.186 113.314 141.912 113.338 141.959 113.206C141.978 113.16 141.936 113.096 141.859 113.018C142.337 113.136 141.769 112.847 141.372 112.606C139.096 110.805 138.543 109.566 135.989 107.864C125.236 100.111 117.645 99.056 113.945 96.6633L113.534 96.3946C113.491 96.3161 112.758 91.4673 112.77 91.5454C111.84 84.712 111.191 83.4693 110.011 69.3679C108.291 47.4318 109.845 34.392 109.423 31.8559C108.961 28.9983 107.15 26.4126 104.626 25.0186C101.648 23.3338 99.2566 23.8771 96.7887 23.6159C96.5386 23.6047 72.7556 22.5428 74.2694 22.6104C62.6292 22.5145 52.1524 22.754 31.4168 25.6632C31.0691 25.7132 22.2045 27.0075 22.2399 27.2496C22.2842 27.5733 37.906 25.4757 59.3233 25.3564C64.2956 25.2006 69.2725 25.1428 74.2454 25.1839C74.4955 25.195 100.579 26.361 100.337 26.3502C103.482 26.5496 106.342 28.9337 106.883 32.2693C107.276 34.6922 105.618 46.2697 107.446 69.5692C108.636 83.8061 109.29 85.048 110.23 91.9599L110.68 94.8852C110.045 94.2661 109.886 94.1408 109.248 93.601C109.196 93.4513 109.175 93.3171 109.064 93.14C108.019 91.6787 106.317 90.9069 104.566 91.3359C102.177 91.2553 100.642 92.9776 100.395 94.933C100.112 96.9453 100.994 98.9244 101.971 100.708C101.471 100.578 100.889 100.285 99.4896 100.834C98.8873 99.7799 97.8771 98.1165 96.5031 95.7589C96.7445 95.5022 97.0172 95.2378 97.2446 94.9881C103.205 88.0072 103.359 80.0292 102.793 80.003C102.415 79.9412 102.062 82.3052 100.173 86.4471C90.6309 106.608 63.5019 107.018 53.8061 87.9076C52.6345 85.4779 51.8608 82.8618 51.4732 80.1909C56.5494 81.4171 57.6931 77.0385 58.7444 77.0153C59.3668 77.0665 60.974 78.5938 62.9174 79.0248C65.2547 78.934 67.0819 77.4755 67.7192 75.9782C68.1651 74.8684 67.8844 74.3261 67.711 74.2957C67.486 74.2388 67.2586 74.6311 66.5948 74.9748C66.0211 75.3199 64.5903 75.5642 63.8104 74.8295C63.5655 74.7996 63.0487 74.5254 62.4024 74.1082C61.7438 73.7188 60.9463 73.1086 59.5864 72.8094C58.2352 72.4667 56.492 73.028 55.5979 73.8905C53.584 75.6916 54.0465 76.8706 51.2127 75.5648C51.4169 71.6975 52.4754 67.8826 54.3373 64.4872C57.0536 66.4208 60.0899 66.9302 62.7557 64.9265C64.471 63.7114 66.1984 61.4906 67.2434 61.3016C69.1667 60.8026 71.0686 64.6378 75.5022 64.725C79.1403 63.9943 80.7001 61.8753 81.3879 60.5915C82.0354 59.2101 81.9118 58.4713 81.746 58.4124C81.5227 58.3201 81.1835 58.9019 80.2501 59.6033C79.3618 60.2672 77.5348 61.0368 75.6592 60.4385C74.8969 60.3846 74.3602 60.2426 73.6418 59.7887C72.117 58.8564 69.4381 56.1167 66.1079 57.1652C64.3969 57.6439 63.3704 58.6541 62.4938 59.4313C61.3055 60.5532 60.009 62.081 58.7543 61.899C57.8944 61.7983 56.9653 61.0629 56.725 60.9155C70.2385 43.9942 97.4142 50.9775 102.251 71.8787C103.367 77.2069 102.762 80.0326 102.984 80.0264C103.224 80.0552 105.039 70.9648 99.5385 61.8504C97.3547 58.2322 93.8795 54.4101 88.7866 51.6952C80.4961 47.5388 70.1256 47.93 62.1979 52.7513C59.2928 54.4325 56.7783 56.718 54.69 59.3402C54.5016 59.1984 54.3402 59.0606 54.1366 58.9198C50.7571 56.5724 47.4168 57.7714 46.5935 59.7307C46.0058 59.7174 45.2259 59.5769 44.1071 59.1501C43.2979 59.0751 42.0229 59.4067 41.3292 60.0688C40.6489 60.6504 40.2135 61.217 39.8954 61.4256C39.5918 61.5559 39.7875 61.5577 39.5221 61.4247C39.2444 61.2196 38.9063 60.6574 38.3409 59.9924C36.0979 57.3802 31.8522 56.7981 29.069 58.9658C26.5467 60.8769 26.7637 63.5659 27.5784 63.6756C28.2874 63.7699 28.8094 62.4454 30.6059 61.0303C32.2788 59.6683 35.0098 60.0718 36.4049 61.6881C36.7594 62.0575 37.1016 62.7442 37.9049 63.4268C38.9225 64.2802 40.313 64.2991 41.3684 63.5361C42.1829 62.9311 42.579 62.3537 42.9698 62.0516C43.319 61.7686 43.4795 61.732 44.0532 61.7229C44.7446 61.5102 45.5743 61.5132 46.3747 61.3148C46.5214 61.2751 46.6228 61.2083 46.7541 61.1582C46.8091 61.2 46.856 61.2634 46.9167 61.2849C47.4399 61.439 48.0821 61.185 48.7635 61.2908C49.1168 61.3283 49.5463 61.3728 50.0051 61.5225C50.3918 61.6588 50.9274 61.923 51.7096 62.4568C51.8957 62.5736 52.0858 62.711 52.2821 62.8627C50.2433 66.4377 49.0735 70.4642 48.7363 74.5563C48.1222 74.3713 47.4595 74.2214 46.6834 74.2008C43.5179 74.256 41.801 76.6965 42.2078 78.2531C42.1969 78.2666 42.1937 78.2733 42.1823 78.2871C41.9063 78.6255 41.3356 79.0983 40.5727 79.137C38.6139 80.1255 36.822 77.0188 33.668 77.5298C31.7159 77.819 29.3844 79.4865 29.6239 81.4239C29.6954 82.0506 30.0399 82.3286 30.344 82.3465C31.6199 82.3352 32.1921 80.3474 34.0231 80.0789C35.4073 79.8925 36.443 81.0687 38.2741 81.6876C39.31 82.0763 40.7813 82.0037 41.7967 81.4011C42.6484 80.5144 42.9203 79.673 42.9988 79.0495C44.0593 79.1153 45.1796 78.5087 46.667 78.4898C47.146 78.4566 47.821 78.7421 48.7128 79.1418C50.4953 98.622 71.1029 110.058 88.297 101.812C88.4843 102.058 92.7221 107.613 92.5348 107.367C91.9755 108.443 92.1214 109.497 92.3526 110.055C93.4761 112.861 92.9346 111.985 94.1268 113.954C93.9976 114.06 93.8564 114.147 93.7313 114.259C90.5772 116.922 89.6015 121.275 92.321 124.095L92.6819 124.428L92.5606 124.6C90.9495 127.146 91.3334 131.714 94.3483 134.016C95.1744 134.66 95.9058 134.899 96.1471 135.009L96.1137 135.083C94.9209 137.955 96.1055 141.898 99.3247 143.313C100.872 144.014 101.994 143.873 102.237 143.907C102.239 143.884 102.231 143.908 102.228 144.086C102.33 147.076 104.553 149.867 108.435 150.53C45.8734 154.615 96.7174 151.914 34.101 154.765C32.5653 154.835 31.3383 154.939 30.1729 154.54C27.8022 153.847 25.8751 151.822 25.3313 149.399C19.4405 124.469 15.8918 99.5055 15.2239 71.8216C14.7356 50.264 15.747 34.7835 14.935 34.7212C13.7902 34.6323 7.15661 83.7034 22.8282 149.997ZM152.777 118.286C153.531 117.126 155.998 113.583 155.608 114.908C155.653 114.837 155.69 114.761 155.737 114.69L151.586 134.209C151.579 135.741 151.419 136.568 151.071 136.63C150.676 136.705 149.96 135.472 149.849 132.811C149.68 127.826 150.701 122.818 152.777 118.286ZM90.5857 100.596C92.4914 99.4832 93.3586 98.7649 94.7139 97.519C96.5265 99.1617 97.849 100.394 98.7302 101.183C98.0251 101.657 97.7128 102.085 97.2619 102.489C94.789 104.856 95.9524 103.872 94.1248 105.242C93.9382 104.996 91.7591 102.123 91.9457 102.369L90.5857 100.596ZM121.154 148.047C119.139 149.809 117.475 149.965 115.093 150.099C116.321 149.805 119.097 148.93 121.154 148.047Z" fill="#353FD7"/>
  <path d="M38.3973 109.526C58.5471 105.793 58.3473 106.309 38.3106 106.954C34.6361 107.087 25.064 105.531 24.4948 113.275C24.2299 116.319 26.3752 118.798 29.1161 118.84C30.3659 118.915 31.3884 118.726 32.3862 118.633C53.6493 116.29 53.0973 116.377 60.7696 115.501C59.3516 113.349 59.7538 113.981 59.1846 112.847C58.9065 111.784 58.9241 110.785 58.7399 109.641C57.9293 104.591 53.3933 106.209 53.4425 106.783C53.4553 106.93 53.6979 107.046 54.1344 107.157C54.554 107.274 55.2307 107.372 55.7317 107.73C56.9904 108.674 56.2724 111.077 56.7524 113.399C56.7343 113.351 56.7366 113.401 56.7284 113.387L56.7096 113.379L56.7073 113.377C28.7283 116.445 30.1205 116.335 29.2954 116.273C28.4803 116.228 28.0057 115.952 27.5745 115.452C26.7823 114.464 26.9177 112.492 27.8393 111.294C29.3974 108.878 35.5429 109.617 38.3973 109.526Z" fill="#353FD7"/>
  <path d="M38.4827 131.003L46.7538 130.023C73.9571 124.992 73.9694 125.496 46.4837 127.464L38.226 128.443C35.3513 128.877 31.8894 128.283 29.4616 130.418C25.4104 134.254 30.1681 140.76 36.1676 140.631C40.6713 140.683 47.4048 137.616 65.0919 137.391C67.7626 137.303 70.7772 137.694 73.8217 136.349C75.4436 135.584 76.6553 134.347 77.3333 132.861C79.2691 128.689 75.0786 123.714 68.2003 125.716C67.4743 125.944 67.1315 126.152 67.1497 126.31C67.1573 126.7 68.7768 126.581 71.454 127.016C73.9515 127.493 76.1559 129.442 75.0428 131.82C73.3791 135.26 68.6364 134.759 65.0643 134.818C42.3419 135.106 37.2278 140.082 32.901 137.158C31.6314 136.4 30.2963 134.945 30.617 133.432C31.1779 130.767 35.23 131.494 38.4827 131.003Z" fill="#353FD7"/>
  <path d="M103.011 121.927C101.732 122.24 100.401 122.357 99.0872 122.266C97.7495 122.124 97.1812 124.652 98.9103 124.833C100.491 124.942 102.085 124.803 103.624 124.427C105.018 122.155 104.911 122.706 103.011 121.927Z" fill="#353FD7"/>
  <path d="M107.275 138.979C105.849 139.594 107.091 141.861 108.226 141.37C109.344 140.925 110.521 140.623 111.715 140.468C113.033 138.544 113.285 139.024 111.388 137.916C109.98 138.097 108.595 138.454 107.275 138.979Z" fill="#353FD7"/>
</svg>