<svg enable-background="new 0 0 2201.3 310.2" viewBox="0 0 2201.3 310.2" xmlns="http://www.w3.org/2000/svg"><path d="m18.1 166.4 96.9 58.6v-48.8l-53.8-32.5v-50.5l108.3 65.1 106.7-65.1v205.8l41.5-26.8v-256.2l-148.2 93.5-151.4-93.5z"/><path d="m18.1 272.1v-52.9l41.5 23.6v55.3z"/><path d="m18.1 166.4 96.9 58.6v-48.8l-53.8-32.5v-50.5l108.3 65.1 106.7-65.1v205.8l41.5-26.8v-256.2l-148.2 93.5-151.4-93.5z" fill="none" stroke="#000" stroke-width="3"/><path d="m18.1 272.1v-52.9l41.5 23.6v55.3z" fill="none" stroke="#000" stroke-width="3"/><g enable-background="new"><path d="m468 261v-210h29.4l75.6 146.4 75-146.4h29.7v210h-25.2v-165l-70.2 135h-18.9l-70.2-134.7v164.7z"/><path d="m770.1 264.6c-12.4 0-22.7-2.1-30.9-6.3s-14.3-9.8-18.3-16.8-6-14.6-6-22.8c0-15.2 5.8-26.9 17.4-35.1s27.4-12.3 47.4-12.3h40.2v-1.8c0-13-3.4-22.8-10.2-29.5s-15.9-10-27.3-10c-9.8 0-18.3 2.5-25.4 7.3-7.1 4.9-11.5 12.1-13.4 21.4h-25.8c1-10.8 4.6-19.9 11-27.3 6.3-7.4 14.1-13.1 23.5-17s19.4-5.9 30-5.9c20.8 0 36.5 5.6 47 16.7s15.8 25.9 15.8 44.2v91.6h-22.5l-1.5-26.7c-4.2 8.4-10.4 15.6-18.5 21.5s-18.9 8.8-32.5 8.8zm3.9-21.3c9.6 0 17.9-2.5 24.8-7.5s12.1-11.5 15.8-19.5c3.6-8 5.4-16.4 5.4-25.2v-.3h-38.1c-14.8 0-25.3 2.5-31.4 7.7-6.1 5.1-9.1 11.5-9.1 19 0 7.8 2.9 14.1 8.6 18.8 5.6 4.7 13.6 7 24 7z"/><path d="m951.3 264.6c-14.2 0-27-3.3-38.2-9.8-11.3-6.5-20.2-15.6-26.7-27.3s-9.8-25.3-9.8-41c0-15.6 3.2-29.2 9.8-40.9 6.5-11.7 15.4-20.8 26.7-27.3s24-9.8 38.2-9.8c17.6 0 32.4 4.6 44.5 13.8s19.7 21.5 23 36.9h-25.8c-2-9.2-6.9-16.3-14.7-21.4s-16.9-7.6-27.3-7.6c-8.4 0-16.3 2.1-23.7 6.3s-13.4 10.5-18 18.9-6.9 18.8-6.9 31.2 2.3 22.8 6.9 31.2 10.6 14.8 18 19c7.4 4.3 15.3 6.5 23.7 6.5 10.4 0 19.5-2.5 27.3-7.6s12.7-12.3 14.7-21.8h25.8c-3 15-10.6 27.2-22.8 36.6s-27.1 14.1-44.7 14.1z"/><path d="m1053.9 261v-148.8h22.8l2.1 28.5c4.6-9.8 11.6-17.6 21-23.4s21-8.7 34.8-8.7v26.4h-6.9c-8.8 0-16.9 1.6-24.3 4.7s-13.3 8.4-17.7 15.8-6.6 17.6-6.6 30.6v75h-25.2z"/><path d="m1224.9 264.6c-14 0-26.6-3.2-37.8-9.6s-20.1-15.5-26.6-27.2-9.8-25.4-9.8-41.2 3.3-29.5 9.9-41.2 15.5-20.7 26.8-27.1 23.9-9.6 38-9.6c14 0 26.6 3.2 37.8 9.6s20 15.5 26.6 27.1c6.5 11.7 9.8 25.5 9.8 41.2 0 15.8-3.3 29.6-9.9 41.2-6.6 11.7-15.6 20.8-26.8 27.2-11.4 6.4-24 9.6-38 9.6zm0-21.6c8.6 0 16.6-2.1 24-6.3s13.4-10.5 18-18.9 6.9-18.8 6.9-31.2-2.2-22.8-6.8-31.2c-4.5-8.4-10.5-14.7-17.8-18.9-7.4-4.2-15.3-6.3-23.7-6.3-8.6 0-16.6 2.1-24 6.3s-13.4 10.5-18 18.9-6.9 18.8-6.9 31.2 2.3 22.8 6.9 31.2 10.5 14.7 17.9 18.9c7.2 4.2 15.1 6.3 23.5 6.3z"/><path d="m1336.2 261v-210h127.8v20.7h-102.6v73.8h87.3v20.4h-87.3v95.1z"/><path d="m1534.2 264.6c-12.4 0-22.7-2.1-30.9-6.3s-14.3-9.8-18.3-16.8-6-14.6-6-22.8c0-15.2 5.8-26.9 17.4-35.1s27.4-12.3 47.4-12.3h40.2v-1.8c0-13-3.4-22.8-10.2-29.5s-15.9-10-27.3-10c-9.8 0-18.3 2.5-25.3 7.3-7.1 4.9-11.6 12.1-13.4 21.4h-25.8c1-10.8 4.7-19.9 11-27.3s14.1-13.1 23.5-17 19.4-5.9 30-5.9c20.8 0 36.5 5.6 47 16.7s15.8 25.9 15.8 44.2v91.6h-22.5l-1.5-26.7c-4.2 8.4-10.4 15.6-18.5 21.5s-19 8.8-32.6 8.8zm3.9-21.3c9.6 0 17.9-2.5 24.8-7.5s12.2-11.5 15.8-19.5 5.4-16.4 5.4-25.2v-.3h-38.1c-14.8 0-25.3 2.5-31.4 7.7-6.1 5.1-9.1 11.5-9.1 19 0 7.8 2.8 14.1 8.5 18.8 5.6 4.7 13.7 7 24.1 7z"/><path d="m1715.4 264.6c-14.2 0-27-3.3-38.2-9.8-11.3-6.5-20.2-15.6-26.7-27.3s-9.8-25.3-9.8-41c0-15.6 3.2-29.2 9.8-40.9 6.5-11.7 15.4-20.8 26.7-27.3s24-9.8 38.2-9.8c17.6 0 32.4 4.6 44.6 13.8 12.1 9.2 19.7 21.5 22.9 36.9h-25.8c-2-9.2-6.9-16.3-14.7-21.4s-16.9-7.6-27.3-7.6c-8.4 0-16.3 2.1-23.7 6.3s-13.4 10.5-18 18.9-6.9 18.8-6.9 31.2 2.3 22.8 6.9 31.2 10.6 14.8 18 19c7.4 4.3 15.3 6.5 23.7 6.5 10.4 0 19.5-2.5 27.3-7.6s12.7-12.3 14.7-21.8h25.8c-3 15-10.6 27.2-22.8 36.6s-27.1 14.1-44.7 14.1z"/><path d="m1872.6 261c-13.6 0-24.3-3.3-32.1-9.9s-11.7-18.5-11.7-35.7v-81.9h-25.8v-21.3h25.8l3.3-35.7h21.9v35.7h43.8v21.3h-43.8v81.9c0 9.4 1.9 15.8 5.7 19 3.8 3.3 10.5 5 20.1 5h15.6v21.6z"/><path d="m1993.5 264.6c-14 0-26.6-3.2-37.8-9.6s-20.1-15.5-26.5-27.2c-6.5-11.7-9.8-25.4-9.8-41.2s3.3-29.5 9.9-41.2 15.5-20.7 26.9-27.1c11.3-6.4 23.9-9.6 37.9-9.6s26.6 3.2 37.8 9.6 20 15.5 26.5 27.1c6.5 11.7 9.8 25.5 9.8 41.2 0 15.8-3.3 29.6-9.9 41.2-6.6 11.7-15.6 20.8-26.8 27.2-11.4 6.4-24 9.6-38 9.6zm0-21.6c8.6 0 16.6-2.1 24-6.3s13.4-10.5 18-18.9 6.9-18.8 6.9-31.2-2.2-22.8-6.8-31.2c-4.5-8.4-10.5-14.7-17.9-18.9s-15.3-6.3-23.7-6.3c-8.6 0-16.6 2.1-24 6.3s-13.4 10.5-18 18.9-6.9 18.8-6.9 31.2 2.3 22.8 6.9 31.2 10.5 14.7 17.9 18.9c7.3 4.2 15.2 6.3 23.6 6.3z"/><path d="m2103.3 261v-148.8h22.8l2.1 28.5c4.6-9.8 11.6-17.6 21-23.4s21-8.7 34.8-8.7v26.4h-6.9c-8.8 0-16.9 1.6-24.3 4.7s-13.3 8.4-17.7 15.8-6.6 17.6-6.6 30.6v75h-25.2z"/></g></svg>