<svg fill="none" height="232" viewBox="0 0 1131 232" width="1131" xmlns="http://www.w3.org/2000/svg" xmlns:xlink="http://www.w3.org/1999/xlink"><clipPath id="a"><path d="m0 0h1131v232h-1131z"/></clipPath><g clip-path="url(#a)" fill="#ff7631"><path d="m920.2 166.4v-94.5001h21.2v94.5001z"/><path d="m806.4 71.8999h22.8l29 70.4001 29.7-70.4001h21.6l-40.3 94.5001h-20.9z"/><path d="m765.2 71.8999c1 .1 1.9.1 2.9.1.9 0 1.9 0 2.9.1 3.7.2 7.3.7 10.8 1.7s6.6 2.8 9.3 5.4c2.4 2.3 4.2 5 5.4 8 1.2 3.1 1.9 6.2 2.2 9.5 0 .6 0 1.2.1 1.8 0 .6.1 1.2.1 1.8001.1 6.6-1.5 12.3-4.6 17-3.2 4.8-8.1 8-14.8 9.5l24 39.3h-22.8l-21.2-37.1h-23.9v37.1h-20.3v-94.2001zm-4.9 16.8h-24.8v23.8001h24.8c.2.1.4.1.5.1h.5c4.3 0 8.2-.6 11.7-1.9s5.3-4.6 5.2-10.1c0-5.6001-1.9-9.0001-5.6-10.1001s-7.8-1.7-12.4-1.7v-.1z"/><path d="m612.5 98.8998c2.2-6.6 5.5-12 9.8-16.2s10-7.1 17-8.9c2.6-.6 5.2-1 8-1.4 2.7-.3 5.5-.5 8.2-.5 2.9-.1 5.9 0 8.9.4 3 .3 5.9.9 8.6 1.6 6.9 1.7 12.5 4.6 16.8 8.8 4.4 4.2 7.6 9.6 9.6 16.3.9 3.0002 1.5 6.2002 2 9.6002s.7 6.7.7 10.1c0 3.6-.2 7.1-.6 10.6-.4 3.4-1.1 6.7-2.1 9.8-2.1 6.8-5.3 12.3-9.8 16.4-4.5 4.2-10.2 7-17.2 8.6-2.7.7-5.6 1.2-8.5 1.4-2.9.3-5.9.4-8.9.4-2.7 0-5.3-.2-8-.5s-5.3-.8-7.8-1.4c-6.9-1.6-12.6-4.5-17.1-8.6-4.5-4.2-7.7-9.6-9.8-16.4-.9-2.9-1.5-6.1-2-9.6-.5-3.4-.7-6.9-.7-10.5 0-3.5.2-7 .6-10.5s1.1-6.7 2.1-9.5002zm20.1 6.4002c-.6 2.3-1 4.6-1.3 6.9s-.4 4.6-.4 6.9c0 2.4.1 4.7.5 7 .3 2.3.7 4.6 1.2 6.7.9 3.9 2.5 7.2 4.7 10.1s5.2 5 9.2 6.3c1.5.5 3 .9 4.6 1.1 1.6.3 3.3.4 4.9.4s3.3-.1 4.9-.4 3.2-.6 4.6-1.1c3.9-1.3 7-3.4 9.3-6.3 2.2-2.9 3.8-6.2 4.6-10.1.5-2.2.9-4.4 1.2-6.7s.4-4.6.4-7c0-2.3-.2-4.6-.4-6.9-.3-2.3-.7-4.6-1.2-6.7-.9-3.9-2.4-7.2002-4.6-10.1002s-5.3-5-9.3-6.2c-1.5-.5-3-.9-4.6-1.1-1.6-.3-3.3-.4-4.9-.4s-3.3.1-4.9.4-3.2.6-4.6 1.1c-3.9 1.3-7 3.4-9.1 6.3s-3.7 6.2002-4.8 10.1002z"/><path d="m506.8 98.8998c2.2-6.6 5.5-12 9.8-16.2s10-7.1 17-8.9c2.6-.6 5.2-1 8-1.4 2.7-.3 5.5-.5 8.2-.5 2.9-.1 5.9 0 8.9.4 3 .3 5.9.9 8.6 1.6 6.9 1.7 12.5 4.6 16.8 8.8 4.4 4.2 7.6 9.6 9.6 16.3.9 3.0002 1.5 6.2002 2 9.6002s.7 6.7.7 10.1c0 3.6-.2 7.1-.6 10.6-.4 3.4-1.1 6.7-2.1 9.8-2.1 6.8-5.3 12.3-9.8 16.4-4.5 4.2-10.2 7-17.2 8.6-2.7.7-5.6 1.2-8.5 1.4-2.9.3-5.9.4-8.9.4-2.7 0-5.3-.2-8-.5s-5.3-.8-7.8-1.4c-6.9-1.6-12.6-4.5-17.1-8.6-4.5-4.2-7.7-9.6-9.8-16.4-.9-2.9-1.5-6.1-2-9.6-.5-3.4-.7-6.9-.7-10.5 0-3.5.2-7 .6-10.5s1.1-6.7 2.1-9.5002zm20.1 6.4002c-.6 2.3-1 4.6-1.3 6.9s-.4 4.6-.4 6.9c0 2.4.1 4.7.5 7 .3 2.3.7 4.6 1.2 6.7.9 3.9 2.5 7.2 4.7 10.1s5.2 5 9.2 6.3c1.5.5 3 .9 4.6 1.1 1.6.3 3.3.4 4.9.4s3.3-.1 4.9-.4 3.2-.6 4.6-1.1c3.9-1.3 7-3.4 9.3-6.3 2.2-2.9 3.8-6.2 4.6-10.1.5-2.2.9-4.4 1.2-6.7s.4-4.6.4-7c0-2.3-.2-4.6-.4-6.9-.3-2.3-.7-4.6-1.2-6.7-.9-3.9-2.4-7.2002-4.6-10.1002s-5.3-5-9.3-6.2c-1.5-.5-3-.9-4.6-1.1-1.6-.3-3.3-.4-4.9-.4s-3.3.1-4.9.4-3.2.6-4.6 1.1c-3.9 1.3-7 3.4-9.1 6.3s-3.7 6.2002-4.8 10.1002z"/><path d="m450.3 71.8999c.1.1.2.1.3.1h.3 5.1c1.7 0 3.4.1 5.1.3 3 .2 6.1.6 9.1 1.2 3 .7 5.8 1.7 8.4 3.2 4.7 2.7 8.1 6.4 10.1 11.2 2 4.7 3.1 9.7 3.2 14.9001.1 4.7-.7 9.3-2.5 13.7-1.7 4.4-4.6 8-8.7 10.9-3.4 2.4-7.1 3.9-11.1 4.7-4 .7-8 1.2-12.1 1.4-1.1 0-2.1 0-3.2 0s-2.1 0-3.2 0l-24.6-.1v33h-20.3v-94.5001zm-.2 16.8h-23.5v27.9001h24.7c4.9 0 9.2-.9 12.7-2.8 3.6-1.9 5.4-5.5 5.4-11 .2-6.1001-1.7-9.9001-5.7-11.5001s-8.5-2.4-13.6-2.4z"/><path d="m976 71.9998v45.2002l37.8-45.2002h24.2l-38.5 46.0002 38.9 48.1h-25.8l-36.6-46.8v46.7h-20.2v-94.0002z"/><path d="m1089.2 71.9998h-21.4l-32.9 76.4002 13.9 17.1 8.4-21.9h41.7l8.8 22.4h22.5zm-25.6 54.9002 14-36.2002 14.6 36.2002z"/><path d="m171 105.5c-10.9 1.2-21.9 10.5-21.9 21.7v56.6c0 12.4-9.5 22.6-21.6 23.9v.1c0 13.4 10.8 24.2 24.2 24.2s24.2-10.8 24.2-24.2c0-24.9-14-55.2-14-86.7-.1-6.1 5-11.6 9.1-15.6z"/><path d="m150.3 107.3c.1 1.3 1.1 2.2 2.4 2.2 1.3-.1 2.2-1.1 2.2-2.4-.1-1.3-1.1-2.2-2.4-2.2-1.3.1-2.3 1.2-2.2 2.4z"/><path d="m156.3 103.9c.1 1.3 1.1 2.2 2.4 2.2 1.3-.1 2.2-1.1 2.2-2.4-.1-1.3-1.1-2.2-2.4-2.2s-2.2 1.1-2.2 2.4z"/><path d="m162.5 101.3c.1 1.3 1.1 2.2 2.4 2.2 1.3-.1 2.2-1.1 2.2-2.4-.1-1.3001-1.1-2.2001-2.4-2.2001-1.3.1-2.2 1.1-2.2 2.4001z"/><path d="m.5 163.5c0 11.1 9.2 20.2 20.5 20.2 1.5 0 3-.2 4.5-.5 10.4-2.3 21.2-3.5 32.2-3.5 25.6 0 49.7 6.5 70.5 18-6.3-6.5-44.1-58.2-107.2-54.3-12 .7-20.5 8.9-20.5 20.1zm13.9 1.2c1.6-3.1 6-9.9 15.7-12v.1c-3.6 3.6-5.3 8-6 10.1-.2.8-.1 1.6.5 2.2 1.5 1.6 4.9 4.9 9.7 6.7v.1c-9.6 2.1-16.5-2.2-19.3-4.4-.8-.7-1.1-1.9-.6-2.8z"/><path d="m25 116.1c.9.2 1.9.2 2.8.3 5.9.2 11.8.6 17.8 1.6 38.3 6.4 70 29.2 89.7 60.3-.6-8.1-14.1-89.9002-103.1-106.0002-11.6-2-22.69998 6.3-24.69998 18.3-2 12.2002 5.79998 23.5002 17.49998 25.5002zm-3.5-23.8002c2.6-2.5 9.2-7.6 19-6.2v.1c-4.7 2.3-7.9 6-9.3 7.8-.5.7-.6 1.6-.3 2.4.8 2.2 2.8 6.6002 6.6 10.2002v.1c-9.8-1.4-14.7-8.2002-16.4-11.4002-.6-1-.4-2.3.4-3z"/><path d="m66 39.7998c-1.7 9.1.7 17.2 9.8 22.8 30.2 17.8 52.9 45.7002 64.3 78.0002 4.7-41.4002-8.5-80.9002-34.4-111.0002-3.3-3.9-7.9-6.7-13.3-7.7-12.4-2.4-24.2 5.7-26.4 17.9zm18.7-2.3c3.7-.2 12.1.4 19 8l-.1.1c-5.2-1.4-10.1-.7-12.3-.2-.8.2-1.5.8-1.8 1.6-.7 2.2-1.9 7-1.1 12.3l-.1.1c-6.9-7.7-6.5-16.2-6-19.8.4-1.2 1.3-2 2.4-2.1z"/><path d="m158.5.399902c-13.1 0-21.6 11.599998-21.6 24.499998s21.6 66.4 21.6 66.4 21.6-53.5 21.6-66.4-8.5-24.499998-21.6-24.499998zm10.2 30.699998c-2.9-4.5-7-7.3-9-8.4-.7-.4-1.6-.4-2.4 0-2 1.2-6.1 3.9-9 8.4h-.1c0-10.3 6-16.4 8.8-18.8.9-.7 2.1-.7 3 0 2.8 2.4 8.8 8.5 8.7 18.8z"/><path d="m224.6 21.8998c-5.4 1-10 3.8-13.3 7.7-25.8 30.1-39.1 69.5-34.4 111.0002 11.5-32.3 34.2-60.2002 64.4-78.0002 9-5.5 11.4-13.7 9.8-22.8-2.3-12.2-14.2-20.3-26.5-17.9zm9.8 17.6c.6 3.6.9 12.1-6 19.8l-.1-.1c.8-5.3-.4-10.1-1.1-12.3-.3-.8-.9-1.4-1.8-1.6-2.3-.5-7.2-1.2-12.3.2l-.1-.1c6.9-7.7 15.4-8.2 19-8 1.3.2 2.3 1 2.4 2.1z"/><path d="m309.4 90.6999c-2-12.1-13.1-20.2999-24.7-18.2999-89 16.1-102.5 97.8-103.1 106 19.7-31.1 51.4-53.9 89.7-60.3 6-1 11.9-1.4 17.8-1.6.9 0 1.9-.1 2.8-.3 11.7-2.1 19.5-13.4 17.5-25.5001zm-13.5 4.5c-1.8 3.2-6.7 9.9001-16.4 11.4001v-.1c3.8-3.5 5.8-8 6.6-10.2.3-.8.2-1.7-.3-2.4-1.4-1.8-4.6-5.5001-9.3-7.8001v-.1c9.8-1.4 16.4 3.6 19 6.2.7.8.9 2.1.4 3z"/><path d="m296 143.3c-63.2-3.9-101 47.8-107.2 54.3 20.9-11.5 44.9-18 70.5-18 11.1 0 21.9 1.2 32.2 3.5 1.4.3 2.9.5 4.5.5 11.3 0 20.5-9 20.5-20.2-.1-11.1-8.5-19.3-20.5-20.1zm5.9 24.1c-2.7 2.2-9.6 6.5-19.3 4.4v-.1c4.8-1.8 8.2-5.1 9.7-6.7.5-.6.7-1.4.5-2.2-.7-2.1-2.4-6.5-6-10.1v-.1c9.6 2.1 14.1 8.9 15.7 12 .5 1 .3 2.2-.6 2.8z"/></g></svg>