<svg height="26" viewBox="0 0 137 26" width="137" xmlns="http://www.w3.org/2000/svg"><g fill-rule="evenodd" transform="translate(-1)"><rect height="15.6" rx="1.2" width="2.4" x="1.2" y="4.8"/><rect height="25.2" rx="1.2" width="2.4" x="19.2"/><rect height="7.2" rx="1.2" width="2.4" x="6" y="10.8"/><rect height="18" rx="3" width="6" x="10.8" y="4.8"/><rect height="12" rx="3" width="6" x="24" y="8.4"/><path d="m38.582 16.134c.108 1.008 1.026 2.736 3.69 2.736 2.322 0 3.438-1.476 3.438-2.916 0-1.296-.882-2.358-2.628-2.718l-1.26-.27c-.486-.09-.81-.36-.81-.792 0-.504.504-.882 1.134-.882 1.008 0 1.386.666 1.458 1.188l1.998-.45c-.108-.954-.954-2.556-3.474-2.556-1.908 0-3.312 1.314-3.312 2.898 0 1.242.774 2.268 2.484 2.646l1.17.27c.684.144.954.468.954.864 0 .468-.378.882-1.17.882-1.044 0-1.566-.648-1.62-1.35zm13.936.558c1.17 0 2.25-.846 2.25-2.52s-1.08-2.52-2.25-2.52-2.25.846-2.25 2.52c0 1.656 1.08 2.52 2.25 2.52zm0-7.218c2.646 0 4.644 1.962 4.644 4.698 0 2.718-1.998 4.698-4.644 4.698s-4.644-1.98-4.644-4.698c0-2.736 1.998-4.698 4.644-4.698zm13.234 9.126h2.286c-.036-.306-.09-.918-.09-1.602v-7.254h-2.394v5.148c0 1.026-.612 1.746-1.674 1.746-1.116 0-1.62-.792-1.62-1.782v-5.112h-2.394v5.598c0 1.926 1.224 3.492 3.366 3.492.936 0 1.962-.36 2.448-1.188 0 .36.036.774.072.954zm8.086-5.094c0-1.026.612-1.836 1.656-1.836 1.152 0 1.638.774 1.638 1.764v5.166h2.394v-5.58c0-1.944-1.008-3.51-3.204-3.51-.954 0-2.016.414-2.556 1.332v-1.098h-2.322v8.856h2.394zm17.5-7.938v11.43c0 .594.036 1.242.072 1.602h-2.286c-.036-.18-.09-.612-.09-1.026-.396.702-1.296 1.242-2.484 1.242-2.52 0-4.32-1.98-4.32-4.662 0-2.592 1.746-4.626 4.248-4.626 1.53 0 2.25.63 2.502 1.098v-5.058zm-6.696 8.586c0 1.584.936 2.52 2.196 2.52 1.224 0 2.178-.936 2.178-2.538 0-1.584-.954-2.466-2.178-2.466s-2.196.9-2.196 2.484zm9.472 1.98c.108 1.008 1.026 2.736 3.69 2.736 2.322 0 3.438-1.476 3.438-2.916 0-1.296-.882-2.358-2.628-2.718l-1.26-.27c-.486-.09-.81-.36-.81-.792 0-.504.504-.882 1.134-.882 1.008 0 1.386.666 1.458 1.188l1.998-.45c-.108-.954-.954-2.556-3.474-2.556-1.908 0-3.312 1.314-3.312 2.898 0 1.242.774 2.268 2.484 2.646l1.17.27c.684.144.954.468.954.864 0 .468-.378.882-1.17.882-1.044 0-1.566-.648-1.62-1.35zm12.388-2.628c0-1.026.612-1.836 1.656-1.836 1.152 0 1.638.774 1.638 1.764v5.166h2.394v-5.58c0-1.944-1.008-3.51-3.204-3.51-.954 0-2.016.414-2.556 1.332v-1.098h-2.322v8.856h2.394zm8.518 2.682c0-1.584 1.17-2.466 2.646-2.682l2.178-.324c.504-.072.666-.324.666-.63 0-.63-.486-1.152-1.494-1.152-1.044 0-1.62.666-1.692 1.44l-2.124-.45c.144-1.386 1.422-2.916 3.798-2.916 2.808 0 3.852 1.584 3.852 3.366v4.356c0 .468.054 1.098.108 1.404h-2.196c-.054-.234-.09-.72-.09-1.062-.45.702-1.296 1.314-2.61 1.314-1.89 0-3.042-1.278-3.042-2.664zm3.546.882c1.008 0 1.944-.486 1.944-2.052v-.396l-1.998.306c-.612.09-1.098.432-1.098 1.116 0 .522.378 1.026 1.152 1.026zm10.03 4.95h-2.394v-12.276h2.322v1.08c.396-.684 1.386-1.278 2.718-1.278 2.592 0 4.086 1.98 4.086 4.608 0 2.682-1.674 4.662-4.176 4.662-1.224 0-2.124-.486-2.556-1.08zm4.374-7.848c0-1.566-.972-2.484-2.196-2.484s-2.214.918-2.214 2.484.99 2.502 2.214 2.502 2.196-.918 2.196-2.502z"/></g></svg>