<svg clip-rule="evenodd" fill-rule="evenodd" height="38.4859mm" image-rendering="optimizeQuality" shape-rendering="geometricPrecision" text-rendering="geometricPrecision" viewBox="0 0 9380 3876" width="93.1261mm" xmlns="http://www.w3.org/2000/svg"><path d="m1979 2594 14 1279c-1067 10-1949-824-1984-1876-35-1069 815-1963 1898-1996 30-1 61-1 90-1l-17 1286c-7 0-14 0-21 0-359 0-650 293-650 654s291 654 650 654z" fill="#af0539"/><path d="m1983 2593 14 1283c-1073 11-1961-823-1996-1876-18-548 202-1079 606-1459l904 925c-124 119-202 287-202 474 0 361 291 654 650 654 8 0 16 0 24-1z" fill="#d30145"/><path d="m1959 2594 15 1279c-1062 10-1938-823-1973-1876-1-23-1-45-1-68l1309 5v6c0 361 291 654 650 654z" fill="#e23b7a"/><path d="m2418 2403 910 913c-349 344-817 544-1309 560-533 16-1050-186-1431-559l910-917c118 120 281 194 461 194s342-73 459-191z" fill="#eb77a6"/><path d="m2427 2394 920 922c-349 344-817 544-1309 559-14 1-28 1-42 1l-14-1283c175-5 332-81 445-199z" fill="#ecaac4"/><g fill="#373435" fill-rule="nonzero"><path d="m2316 2176 63 51c-48 58-95 104-141 138-45 34-88 58-128 72-41 14-88 20-143 20-97 0-180-19-248-59-78-46-139-105-180-179-42-73-63-160-63-259 0-105 21-194 61-268s97-133 169-175c73-43 157-64 253-64 71 0 133 11 185 33s97 55 133 100c37 44 63 95 80 152 9 34 15 77 16 130h-702c-2 33-3 57-3 73 0 84 14 158 44 224 28 65 67 113 115 144s102 47 163 47c52 0 102-13 150-37s107-72 176-143zm-127-399c-9-61-24-106-42-135s-44-52-77-70c-34-17-71-26-113-26s-81 9-117 26c-37 18-67 41-91 72-25 30-46 75-63 133z"/><path d="m3406 2158 63 51c-124 166-274 248-448 248-137 0-251-48-345-144-93-97-140-217-140-360 0-96 22-182 65-259 44-76 104-136 181-178 78-42 167-63 267-63 114 0 209 28 286 84 76 56 114 112 114 169 0 30-9 54-27 70-18 17-38 25-61 25-12 0-23-3-35-9-11-6-23-15-35-28-5-7-15-25-29-56-18-39-32-65-42-78-20-26-46-48-76-63-31-15-64-23-102-23-56 0-109 16-157 47s-87 77-115 138c-28 60-42 132-42 217 0 130 35 234 104 310 61 67 133 100 218 100 38 0 77-7 117-20 39-13 77-31 112-56 26-18 68-59 127-122z"/><path d="m3586 1145v-86c64-8 115-18 151-30 36-11 73-29 113-53h78v658c75-63 146-109 213-138 66-29 130-43 191-43 89 0 162 26 220 79 57 53 85 117 85 193v488c0 49 4 80 12 95 7 15 20 26 38 33s59 11 121 11v83h-515v-83h37c49 0 81-4 96-12 16-8 27-20 34-38s10-54 10-109v-339c0-75-3-123-8-146-10-38-30-69-61-92s-71-35-119-35c-54 0-111 13-170 40s-121 67-184 121v497c0 38 3 63 10 75 7 13 17 23 33 28 15 6 46 10 91 10h41v83h-517v-83h30c49 0 85-7 107-18 12-6 20-18 26-35 5-17 8-65 8-143v-1011z"/><path d="m5177 1002c32 0 58 12 81 34s34 49 34 81-11 59-34 82c-23 22-49 34-81 34s-59-12-82-34c-22-23-34-50-34-82s12-59 34-81c23-22 50-34 82-34zm-252 618v-84c55-6 101-15 138-27s80-31 128-56h72v797c0 27 4 48 12 62s19 24 34 30c14 6 40 10 78 10h47v83h-509v-83h40c45 0 74-5 90-12 15-9 25-20 32-34 6-15 9-49 9-103v-583z"/><path d="m6164 1143v-84c45-4 86-12 123-23 38-12 84-32 141-60h74v1206c0 56 1 90 4 102 7 25 18 43 34 53 16 9 47 15 92 15h43v83l-344 16v-159c-66 60-129 103-187 128s-116 37-174 37c-120 0-220-48-299-144s-119-212-119-347c0-97 21-185 63-266 43-80 98-142 167-184s145-63 227-63c63 0 121 11 175 32 53 22 102 55 147 99v-441zm167 1051v-375c0-54-10-98-30-132-21-34-54-63-100-89-46-25-93-37-142-37-57 0-111 15-160 47-48 31-86 77-114 136-27 59-41 131-41 215 0 79 13 147 38 205 26 58 60 102 103 132s87 45 132 45 95-12 152-38c56-25 110-62 162-109z"/><path d="m6808 1620v-84c60-7 104-14 134-23 29-10 72-30 128-60h72v189c87-74 162-124 223-150 62-26 124-39 188-39 54 0 102 9 143 27 42 18 76 43 102 74s43 67 52 106c5 25 8 62 8 112v437c0 52 3 85 11 100s20 26 37 33c17 6 57 10 123 10v83h-512v-83h28c48 0 80-5 97-13 17-9 30-22 37-38 8-17 12-51 12-102v-365c0-76-7-128-19-157s-33-52-63-71c-29-18-66-27-111-27-54 0-111 14-173 41-60 28-120 68-177 122v457c0 52 4 86 12 104 7 17 20 30 37 39 12 6 44 10 96 10h29v83h-516v-83h25c50 0 84-5 102-13s31-23 38-45c4-10 6-47 6-110v-564z"/><path d="m8871 1860-2-108c0-74-21-127-62-158-41-32-99-48-175-48-37 0-69 5-97 14s-51 21-67 37c-17 15-30 33-38 53-3 7-11 35-24 84-15 60-46 90-92 90-27 0-48-9-65-27-16-17-24-41-24-70 0-44 16-87 49-129 32-42 82-77 149-104 66-28 145-41 236-41 85 0 158 13 218 39s105 64 133 113c20 33 30 95 30 184v381c0 54 2 90 5 106 7 29 20 50 39 64 18 15 41 22 71 22s67-7 109-21v87c-55 16-104 23-149 23-47 0-86-6-119-19-32-14-59-33-79-58-21-26-34-56-40-91-79 62-151 106-216 131-64 25-129 37-195 37-91 0-166-24-223-74s-85-108-85-175c0-40 10-78 31-114 21-37 53-69 96-97 43-27 111-52 202-73 92-21 220-40 384-58zm-1 86c-155 22-251 38-287 46-73 17-125 35-157 55-31 20-54 42-67 64-13 23-20 48-20 73 0 26 7 51 22 75 15 25 37 44 64 58 27 13 56 20 87 20 43 0 93-10 147-31 55-20 125-60 211-120z"/><path d="m4548 2747h47l68 267-59 18c-38-75-88-134-150-177-52-35-108-53-171-53-37 0-71 6-101 19s-53 30-67 51c-16 20-23 42-23 63 0 20 6 38 17 57 12 18 30 34 53 48 24 14 62 28 116 44l168 46c20 6 50 17 89 34 39 16 69 34 91 52 22 19 39 41 51 68 13 27 19 56 19 87 0 69-31 129-93 180-62 52-143 78-242 78-50 0-96-8-136-22s-84-39-130-76l-30 84h-45l-59-313 59-11c22 57 51 106 87 146s76 70 120 91c44 20 88 31 134 31 61 0 115-18 162-54 38-31 57-66 57-107 0-38-14-68-41-92-29-24-79-47-152-67l-160-45c-90-25-153-57-190-97-37-39-55-84-55-135 0-40 12-77 36-110 23-34 60-62 110-85 49-23 104-34 163-34 49 0 97 8 142 25 32 11 61 28 88 50z"/><path d="m4814 2747h728l84 228-57 20c-14-37-29-66-46-88-17-21-37-39-60-54-24-15-47-25-71-30s-67-7-129-7h-218v318h108c40 0 70-6 91-20 20-13 34-29 42-49 6-14 9-40 9-76v-14h63v381h-63v-33c0-29-2-50-7-63-4-13-13-25-25-36-12-12-25-20-39-24-13-4-37-6-71-6h-108v281c0 30 2 48 5 54 2 6 7 11 13 14 7 3 24 4 53 4h135c75 0 133-9 176-26 42-17 79-44 111-80 25-28 50-67 73-118l58 20-100 272h-755v-53h26c30 0 48-1 55-5 11-6 20-14 26-26 4-8 6-26 6-54v-598c0-27-3-45-8-54-6-9-15-17-29-22-7-3-32-4-76-4z"/><path d="m5714 2747h320v52h-34c-22 0-37 2-45 6-13 7-19 17-19 30 0 10 3 25 10 46l183 579 160-477-38-114c-9-27-22-47-41-59-11-7-31-11-59-11v-52h318v52h-30c-26 0-43 3-52 9-9 7-13 15-13 26 0 9 3 25 10 47l184 582 185-582c6-20 10-36 10-46 0-12-5-21-13-27-9-6-26-9-51-9h-32v-52h272v52c-23 0-40 2-51 7-12 4-21 11-28 20-8 9-16 27-24 55l-246 734h-93l-170-518-174 518h-93l-242-734c-12-36-26-59-43-70-13-8-34-12-61-12z"/><path d="m7010 2747h341v52h-26c-25 0-43 3-54 10s-19 16-24 28c-5 13-8 36-8 72v559c0 28 3 49 9 60 5 12 13 21 23 26 10 6 28 8 54 8h26v53h-341v-53h28c25 0 43-2 53-8 11-6 18-14 23-24 5-11 7-32 7-62v-571c0-32-2-54-7-65-5-12-12-20-23-25-10-5-28-8-53-8h-28z"/><path d="m7460 2747h273l408 651v-496c0-29-3-51-9-64-6-12-15-22-27-29s-29-10-52-10h-23v-52h298v52h-16c-27 0-45 2-54 6-13 6-23 17-30 32-6 16-9 37-9 65v713h-78l-491-782v620c0 34 1 55 3 62 3 10 9 19 17 26 7 8 17 14 27 17 11 2 32 4 65 4v53h-302v-53h16c31 0 51-3 62-8 11-6 20-16 26-30s9-38 9-71v-551c0-34-1-55-3-63-4-14-11-24-22-31-11-6-33-9-65-9h-23z"/><path d="m9142 2747h47l73 267-58 19c-38-84-83-144-132-180-51-36-107-54-170-54-91 0-168 37-229 110-62 73-92 161-92 262 0 73 15 140 47 201 31 60 73 107 126 139s109 48 168 48c38 0 74-7 109-21 34-13 62-29 83-48 16-14 27-29 33-46 5-17 8-40 7-71v-40c0-33-4-56-12-70-7-13-19-23-33-29-11-4-41-7-90-7v-52h361v52h-29c-26 0-43 3-52 7-9 5-16 13-20 22-4 10-7 30-7 59v300h-63l-34-77c-36 26-74 45-114 59-61 21-121 32-181 32-120 0-223-43-309-129-85-85-128-191-128-319 0-127 43-233 130-319s191-129 312-129c30 0 60 3 90 8 29 6 56 14 80 25 19 8 40 21 65 38z"/></g></svg>