<?xml version="1.0" encoding="UTF-8"?>
<svg id="Warstwa_1" data-name="Warstwa 1" xmlns="http://www.w3.org/2000/svg" viewBox="0 0 969.36 128.97">
  <defs>
    <style>
      .cls-1 {
        fill: #1d1d1b;
      }
    </style>
  </defs>
  <path class="cls-1" d="m92.88,1.9h90.17v20.43h-66.73v29.81h44.43v20.43h-44.43v33.37h68.8v20.43h-92.23V1.9Z"/>
  <path class="cls-1" d="m198.42.21h23.43v126.16h-23.43V.21Z"/>
  <path class="cls-1" d="m234.97,82.69c0-27.37,18.37-46.49,44.24-46.49s42.74,17.81,42.74,45.74v7.87h-64.11c1.5,12.75,9.75,19.87,22.31,19.87s18.75-6.19,21.56-13.68l20.25,7.12c-6.19,14.25-19.12,24.74-42.18,24.74-27.56,0-44.8-17.62-44.8-45.18Zm63.55-9c-.94-12.93-7.87-19.5-19.87-19.5-11.25,0-19.5,7.12-21.18,19.5h41.05Z"/>
  <path class="cls-1" d="m322.32,37.89h23.99l20.99,61.67,19.5-61.67h23.24l-32.24,88.48h-21.56l-33.93-88.48Z"/>
  <path class="cls-1" d="m409.11,82.69c0-27.37,18.37-46.49,44.24-46.49s42.74,17.81,42.74,45.74v7.87h-64.11c1.5,12.75,9.75,19.87,22.31,19.87s18.75-6.19,21.56-13.68l20.25,7.12c-6.19,14.25-19.12,24.74-42.18,24.74-27.56,0-44.8-17.62-44.8-45.18Zm63.55-9c-.94-12.93-7.87-19.5-19.87-19.5-11.25,0-19.5,7.12-21.18,19.5h41.05Z"/>
  <path class="cls-1" d="m508.84,37.89h23.24v14.43c4.69-10.31,13.31-16.31,25.87-16.31,19.31,0,30.74,12.93,30.74,37.3v53.05h-23.24v-51.74c0-12.37-4.69-18.75-15.56-18.75s-17.81,9-17.81,25.49v44.99h-23.24V37.89Z"/>
  <path class="cls-1" d="m609.45,1.88h23.81v104.04h56.24v20.43h-80.04V1.88Z"/>
  <path class="cls-1" d="m698.49,102.91c0-19.87,14.81-24.37,34.68-28.68,16.31-3.19,24.56-3.94,25.12-8.81v-.94c0-5.25-4.69-10.12-16.68-10.12s-17.62,6-18.18,13.87v1.31h-23.06c.75-20.06,16.5-33.37,41.43-33.37s38.62,10.5,38.62,34.49v55.67h-22.31v-12c-5.62,9.19-15.75,14.25-28.87,14.25-18.93,0-30.74-10.31-30.74-25.68Zm59.8-13.12v-7.5c-5.06,3-13.31,4.5-20.62,6.37-9,2.25-15.75,5.25-15.75,13.12,0,6,4.69,10.12,12.75,10.12,11.06,0,23.06-5.62,23.62-22.12Z"/>
  <path class="cls-1" d="m819.21,114.91v11.43h-22.68V0h22.87v48.93c6-8.06,15.56-12.93,26.99-12.93,22.12,0,39.18,17.06,39.18,45.36v.19c0,28.68-16.87,46.68-39.37,46.68-11.25,0-20.81-4.87-26.99-13.31Zm42.18-32.62v-1.31c0-17.43-8.62-26.06-21.56-26.06s-21.56,10.87-21.56,26.81v1.5c0,15.93,7.87,26.06,21.56,26.06,12.56,0,21.56-9.56,21.56-26.99Z"/>
  <path class="cls-1" d="m893.07,110.22l18.37-10.5c4.87,6.94,13.12,11.06,22.31,11.06,8.25,0,13.31-3.56,13.31-9.37,0-6.19-9.75-7.31-22.68-10.12-15.37-3.19-30.74-9.19-30.74-26.81,0-16.12,15.37-28.68,35.24-28.68,17.62,0,31.12,7.87,39.74,19.5l-18.37,9.75c-4.87-7.31-12.37-11.06-21.18-11.06-8.25,0-13.5,3.56-13.5,8.81,0,6,5.06,6.94,20.43,9.93,15.93,3,33.37,9,33.37,26.99,0,16.68-15.37,29.24-36.18,29.24-18.18,0-31.87-7.69-40.12-18.75Z"/>
  <rect class="cls-1" x="46.17" y="1.62" width="23.51" height="124.75"/>
  <rect class="cls-1" y="1.62" width="23.51" height="124.75"/>
</svg>