<svg width="1000" height="140" viewBox="0 0 1000 140" fill="none" xmlns="http://www.w3.org/2000/svg">
<g clip-path="url(#clip0_3412_236)">
<path d="M308.061 106.382C293.238 106.382 284.547 97.5504 284.547 82.5727V0.610596H306.711V81.2226C306.711 85.4417 308.511 87.5231 312.562 87.5231H317.948V106.382H308.061ZM703.611 106.382C688.789 106.382 680.097 97.5504 680.097 82.5727V0.610596H702.261V81.2226C702.261 85.4417 704.062 87.5231 708.112 87.5231H713.498V106.382H703.611Z" fill="#0057d9"/>
<path d="M391.148 31.2269H368.984V72.011C368.984 82.4884 363.598 86.9887 356.412 86.9887C349.225 86.9887 343.754 82.4884 343.754 72.011V31.2269H321.661V73.333C321.661 93.9923 337.13 106.424 354.119 106.424C359.548 106.424 367.536 103.612 369.167 98.3942V102.248C369.167 114.23 360.729 120.066 351.335 120.066C347.484 120.186 343.666 119.33 340.235 117.576C336.805 115.823 333.874 113.23 331.716 110.039L316.893 122.963C325.88 136.141 340.253 139.432 350.744 139.432C375.158 139.432 391.177 125.059 391.177 100.94V31.2269H391.148ZM37.9715 67.4404C37.9715 43.3355 55.1993 26.5578 78.5588 26.5578C101.918 26.5578 119.343 43.3355 119.343 67.4404C119.343 91.5453 102.073 108.337 78.5588 108.337C55.0446 108.337 37.9715 91.5593 37.9715 67.4404ZM96.6866 67.4404C96.6866 53.6722 88.8955 46.1764 78.5588 46.1764C68.2221 46.1764 60.7403 53.6722 60.7403 67.4404C60.7403 81.2086 68.3768 88.8591 78.5588 88.8591C88.7408 88.8591 96.6866 81.2226 96.6866 67.4404ZM277.417 72.9814H224.538C226.198 84.8229 232.976 89.6045 242.666 89.6045C250.302 89.6045 256.139 87.059 260.344 80.7726L275.645 93.2048C268.121 103.387 255.956 108.337 242.666 108.337C218.547 108.337 202.079 92.0094 202.079 67.4404C202.079 43.3355 217.802 26.5578 240.416 26.5578C262.439 26.5578 277.557 43.1808 277.557 67.4404C277.557 69.0858 277.557 71.336 277.417 72.9814ZM225.016 58.271H255.393C253.453 48.2296 248.052 44.0387 240.416 44.0387C231.978 44.0387 226.788 48.525 224.946 58.271H225.016ZM953.801 72.9814H900.937C902.582 84.8229 909.375 89.6045 919.065 89.6045C926.701 89.6045 932.537 87.059 936.728 80.7726L952.001 93.2048C944.519 103.387 932.411 108.337 919.065 108.337C894.946 108.337 878.477 92.0094 878.477 67.4404C878.477 43.3355 894.2 26.5578 916.814 26.5578C938.824 26.5578 953.956 43.1808 953.956 67.4404C953.956 69.0858 953.956 71.336 953.801 72.9814ZM901.387 58.271H931.792C929.837 48.2296 924.451 44.0387 916.814 44.0387C908.418 44.0809 903.187 48.5672 901.387 58.271ZM714.919 67.4967C714.919 90.6311 730.29 108.506 750.26 108.506C761.23 108.506 767.783 103.541 772.438 96.4816V106.326H794.588V67.4967C794.588 35.1506 770.244 26.4875 755.211 26.4875C729.517 26.4875 714.919 44.3622 714.919 67.4967ZM737.589 67.6373C737.589 53.8269 744.803 46.1623 755.168 46.1623C765.533 46.1623 772.748 53.8269 772.748 67.6373C772.748 81.4477 765.533 88.9716 755.211 88.9716C744.888 88.9716 737.631 81.4617 737.631 67.6373H737.589ZM1000 48.4265H983.039V76.7364C983.039 83.9182 985.88 87.5137 991.562 87.5231H1000V106.382H988.749C971.226 106.382 960.889 95.6096 960.889 77.6365V4.82965L983.039 5.06873V31.2269H999.916L1000 48.4265ZM23.5142 106.439C8.69125 106.439 0 97.6488 0 82.6149V0.610596H22.1641V81.2789C22.1641 85.498 23.9642 87.5653 28.0004 87.5653H33.4008V106.439H23.5142ZM632.253 26.5296C617.219 26.5296 592.875 35.249 592.875 67.5388V131.978H614.955V96.5378C619.61 103.57 626.206 108.548 637.147 108.548C657.118 108.548 672.489 90.6733 672.489 67.5388C672.489 44.4044 657.863 26.5296 632.253 26.5296ZM632.253 89.0279C621.888 89.0279 614.674 81.518 614.674 67.6935C614.674 53.8691 621.888 46.2186 632.253 46.2186C642.618 46.2186 649.734 53.8691 649.734 67.6935C649.734 81.518 642.534 89.0279 632.169 89.0279H632.253ZM195.638 59.6773V106.382H173.473V60.9993C173.473 50.522 168.073 46.0357 160.887 46.0357C153.7 46.0357 148.314 50.522 148.314 60.9993V106.382H126.136V59.6773C126.136 39.004 141.113 26.5718 160.887 26.5718C180.66 26.5718 195.638 38.9899 195.638 59.6773ZM872.725 59.6773V106.382H850.561V60.9993C850.561 50.522 845.161 46.0357 837.974 46.0357C830.788 46.0357 825.401 50.522 825.401 60.9993V106.382H803.237V59.6773C803.237 39.004 818.201 26.5718 837.974 26.5718C857.748 26.5718 872.725 38.9899 872.725 59.6773ZM492.392 2.08726C476.432 2.08246 461.042 8.01416 449.214 18.7285C437.387 29.4429 429.967 44.1737 428.399 60.0557C426.831 75.9376 431.227 91.835 440.731 104.655C450.235 117.476 464.169 126.303 479.821 129.419C495.473 132.535 511.724 129.717 525.414 121.514C539.103 113.312 549.253 100.31 553.887 85.0384C558.521 69.7669 557.309 53.3176 550.486 38.8902C543.664 24.4629 531.719 13.0891 516.975 6.98137C509.181 3.75101 500.828 2.08797 492.392 2.08726ZM495.134 125.073C490.579 125.27 486.016 124.945 481.535 124.102C481.423 124.083 481.323 124.023 481.253 123.934C481.19 123.847 481.151 123.745 481.141 123.638C481.142 123.525 481.181 123.416 481.253 123.329C481.323 123.239 481.423 123.179 481.535 123.16C485.318 122.401 492.701 120.474 498.411 116.255C503.839 112.233 508.044 105.693 504.908 97.7192C497.581 79.085 475.74 83.5853 472.534 84.4291H472.379C472.332 84.4171 472.288 84.3929 472.253 84.3588C472.217 84.3276 472.188 84.2893 472.168 84.2463C472.162 84.1997 472.162 84.1523 472.168 84.1057L472.97 70.5625C474.376 57.9053 471.732 53.4331 471.732 53.4331C465.263 40.565 450.961 43.3215 450.961 43.3215C448.553 43.7518 446.271 44.7126 444.28 46.1342C439.711 49.4204 436.453 54.2182 435.083 59.6773C435.053 59.7917 434.983 59.8915 434.886 59.9586C434.788 60.0281 434.668 60.0582 434.548 60.043C434.433 60.0229 434.328 59.9623 434.254 59.8721C434.179 59.7819 434.139 59.6679 434.141 59.5508C434.359 56.2016 435.002 52.8936 436.053 49.7063C440.234 35.4777 449.621 23.3461 462.345 15.728C475.068 8.10992 490.195 5.56446 504.711 8.59867C504.843 8.62411 504.962 8.69354 505.049 8.79556C505.14 8.90201 505.194 9.03528 505.204 9.17527C505.205 9.3081 505.16 9.43726 505.077 9.54093C504.999 9.65159 504.884 9.73125 504.753 9.76594C501.294 10.649 498.114 12.3958 495.514 14.8429C495.514 14.8429 490.085 19.0619 489.452 29.5955C489.3 32.3904 489.508 35.1934 490.071 37.9352L495.457 65.0918C496.194 68.9506 498.371 72.3847 501.547 74.6972C504.074 76.5826 507.242 77.3962 510.365 76.9614C510.365 76.9614 522.277 76.4129 520.35 64.5855L518.944 57.5538C518.929 57.47 518.929 57.3844 518.944 57.3006C518.968 57.2266 519.001 57.1558 519.042 57.0897C519.087 57.0234 519.145 56.9662 519.211 56.9209C519.281 56.8806 519.357 56.852 519.436 56.8365C522.797 56.3021 538.604 52.7018 539.462 32.4082C539.468 32.2809 539.512 32.1584 539.589 32.0566C539.67 31.9585 539.777 31.8854 539.898 31.8457C540.018 31.8105 540.144 31.8105 540.264 31.8457C540.379 31.8895 540.48 31.9621 540.559 32.0566C546.709 40.6894 550.415 50.8218 551.287 61.3851C552.159 71.9485 550.164 82.5514 545.513 92.0756C540.862 101.6 533.726 109.692 524.86 115.5C515.993 121.307 505.723 124.615 495.134 125.073Z" fill="#0057d9"/>
</g>
<defs>
<clipPath id="clip0_3412_236">
<rect width="1000" height="140" fill="white"/>
</clipPath>
</defs>
</svg>
