<svg fill="none" height="72" viewBox="0 0 300 72" width="300" xmlns="http://www.w3.org/2000/svg"><g fill="#000"><path d="m16.3252 34.9311h11.7594c6.7655-3.1081 14.2582-7.8695 14.2582-18.1629 0-8.35528-4.1623-13.50218-13.2168-13.50218h-7.702zm35.6802 34.9659h-12.0565l-15.1947-33.0253h-8.7434l-5.2966 33.0253h-10.7142l10.8072-66.43557v-1.55525h23.9383c12.3849 0 19.4618 6.02348 19.4618 13.89002 0 10.8771-9.6804 16.0268-20.7096 18.8416l-8.1181 2.1392 12.2803 3.3987z"/><path d="m86.5538 35.029c0-4.2758-2.0798-7.2858-5.9305-8.2578-8.3277 4.08-12.6994 10.7822-12.8007 19.5227v1.2625l17.2737-5.7306c1.1464-2.2341 1.4575-4.37 1.4575-6.7968zm8.3274 5.6326-26.9573 7.8662c.6254 8.4508 4.9971 14.3762 12.6994 16.9989 5.9305-3.1084 10.8227-5.8285 12.8008-7.0905l.7272.8741c-3.5369 2.4268-7.5975 4.8562-12.2803 7.7687l-7.0769 4.2758c-9.3656-1.0694-16.2359-8.839-16.2359-18.5512 0-11.8519 7.5975-21.5642 20.7125-26.3227l8.7402-3.3038c5.7243 1.0698 8.9501 4.6636 8.9501 10.2964 0 2.72-.6223 4.7582-2.0798 7.1881z"/><path d="m195.727 43.7696c0-12.0443-4.788-16.4147-11.239-17.677-8.846 3.4963-11.554 15.2473-11.554 24.1837 0 11.7538 5.102 16.9986 10.928 18.1625 8.953-3.4957 11.865-15.7327 11.865-24.6692zm-32.679 9.034c0-11.4637 6.35-21.5642 18.735-26.6161l7.387-3.0104c8.744 0 16.341 5.9259 16.341 18.068 0 11.461-6.349 21.9498-18.629 27.0014l-7.493 3.1083c-8.744 0-16.341-6.4117-16.341-18.5512z"/><path d="m243.584 44.5459c0-8.3524-2.81-13.0163-8.119-15.345l-9.054 6.4087-5.308 27.7807c2.6 2.7197 7.181 4.1744 9.68 4.1744 9.991-4.1744 12.801-14.4707 12.801-23.0188zm-32.368 22.0474 11.655-62.2578-.314-.87407 8.848-3.107968 1.352.969028-6.241 33.02491 15.296-11.1704c6.559 1.5557 11.658 6.5097 11.658 16.5128 0 10.9744-7.077 22.3403-18.735 27.2942l-10.096 4.3708c-5.203-.3882-8.949-1.846-13.423-4.7615z"/><path d="m289.593 35.029c0-4.2758-2.079-7.2858-5.93-8.2578-8.328 4.08-12.7 10.7822-12.801 19.5227v1.2625l17.274-5.7306c1.146-2.2341 1.457-4.37 1.457-6.7968zm8.328 5.6326-26.958 7.8662c.625 8.4508 4.997 14.3762 12.7 16.9989 5.93-3.1084 10.823-5.8285 12.8-7.0905l.727.8741c-3.537 2.4268-7.597 4.8562-12.28 7.7687l-7.077 4.2758c-9.365-1.0694-16.235-8.839-16.235-18.5512 0-11.8519 7.597-21.5642 20.712-26.3227l8.74-3.3038c5.725 1.0698 8.95 4.6636 8.95 10.2964 0 2.72-.622 4.7582-2.079 7.1881z"/><path d="m120.62 34.9311h11.759c6.766-3.1081 14.259-7.8695 14.259-18.1629 0-8.35528-4.163-13.50218-13.217-13.50218h-7.703zm35.68 34.9659h-12.056l-15.195-33.0253h-8.744l-5.296 33.0253h-10.714l10.807-66.43557v-1.55525h23.938c12.385 0 19.462 6.02348 19.462 13.89002 0 10.8771-9.681 16.0268-20.71 18.8416l-8.118 2.1392 12.28 3.3987z"/></g></svg>