<svg height="74.807205mm" viewBox="0 0 296.96958 74.807205" width="296.96957mm" xmlns="http://www.w3.org/2000/svg"><g fill-rule="evenodd" transform="matrix(.86595745 0 0 .87462028 -3.879723 -105.570476)"><path d="m14.151778 140.56508h9.330159v56.750374h-9.330159z" fill="#458b00" stroke-width=".109314"/><g fill="#c00"><path d="m25.307402 140.56508h9.330159v17.809958h-9.330159z" stroke-width=".061239"/><path d="m37.071518 153.82043h9.330159v19.345909h-9.330159z" stroke-width=".063824"/><path d="m47.618652 168.93727h9.330159v16.759441h-9.330159z" stroke-width=".059405"/></g><path d="m58.571457 153.84473h9.330159v19.927677h-9.330159z" fill="#458b00" stroke-width=".064777"/><path d="m69.118591 129.97601h9.330159v33.231178h-9.330159z" fill="#458b00" stroke-width=".08365"/></g><g stroke-width="1.19472" transform="matrix(1.0127285 0 0 .98743147 -28.9376 -183.13628)"><path d="m114.18397 218.78613v-28.91353h-6.98903v-4.02109h18.47786v4.02109h-6.98904v28.91353z"/><path d="m146.28035 218.78613-3.8296-12.73344h-.28722-5.50506v12.73344h-4.49979v-32.93462h10.38781q3.39877 0 5.1221 1.24462 1.72332 1.19675 2.24989 3.30304.52657 2.10628.52657 5.55293 0 3.59026-.76592 5.93589-.71805 2.29776-2.96794 3.30304l4.3083 13.5951zm-4.88275-16.61092q2.01055 0 2.96795-.62231.9574-.62231 1.24462-1.86693.28722-1.2925.28722-3.73387 0-2.48925-.28722-3.73387-.23935-1.24462-1.19675-1.81906-.90953-.62231-2.96794-.62231h-4.78701v12.39835z"/><path d="m173.83506 218.78613-2.01054-8.42513h-9.2868l-1.96267 8.42513h-4.49979l8.09004-32.93462h6.22312l8.04217 32.93462zm-6.51033-28.05187h-.28722l-3.59026 15.74926h7.46774z"/><path d="m184.87234 185.85151h8.13792q4.88275 0 6.94116 1.29249 2.10629 1.29249 2.68073 4.49979.57444 3.15943.57444 10.67503 0 7.51561-.57444 10.7229-.57444 3.15943-2.68073 4.45192-2.05841 1.29249-6.94116 1.29249h-8.13792zm8.04218 29.00928q2.8722 0 3.92535-.62231 1.10101-.67019 1.4361-3.06369.38296-2.44138.38296-8.85597 0-6.36672-.38296-8.8081-.33509-2.44137-1.4361-3.06368-1.05315-.67018-3.92535-.67018h-3.54239v25.08393z"/><path d="m211.46516 218.78613v-32.93462h4.54766v32.93462z"/><path d="m239.61226 218.78613-10.10059-23.31273h-.19148v23.31273h-4.35618v-32.93462h4.69127l9.7655 22.54681h.19148v-22.54681h4.35618v32.93462z"/><path d="m261.81524 204.56872v-3.82961h8.61662v17.52045q-1.72333.38296-3.92535.62231-2.20203.28723-4.02109.28723-4.40405 0-6.5582-1.2925-2.10629-1.34036-2.96795-4.83488-.81379-3.49451-.81379-10.7229 0-7.18051.81379-10.67503.86166-3.49452 3.01582-4.83488 2.15415-1.34036 6.65394-1.34036 1.86693 0 4.02109.28722 2.20202.23935 3.68599.67018v3.63813q-3.92534-.67019-6.0795-.67019-3.63812 0-5.07423.67019-1.4361.67018-2.01054 3.25516-.52657 2.58499-.52657 8.99958 0 5.93589.38296 8.52088.38296 2.58498 1.57971 3.54239 1.19675.9574 3.87748.9574 1.81906 0 3.59026-.33509v-10.43568z"/><path d="m116.83979 261.22672q-1.91481 0-4.21257-.19148-2.29776-.19148-4.06896-.4787v-3.78174q4.11683.52657 6.94117.52657 1.81906 0 2.8722-.23935 1.10101-.28722 1.72333-.90953.57444-.57444.76592-1.62759.19148-1.05314.19148-2.77646 0-2.34564-.23935-3.30304-.19148-1.00527-.95741-1.38823-.71805-.43083-2.53711-.71805l-5.16997-.86166q-2.58499-.43084-3.44665-2.44138-.81379-2.05841-.81379-6.17524 0-5.16997 2.20202-7.22839 2.2499-2.10628 6.8933-2.10628 2.01054 0 4.02109.23935 2.05841.19148 3.30303.52657v3.686q-3.06368-.52657-6.22311-.52657-1.96267 0-3.06369.28722-1.10101.28722-1.67545.90953-.57444.62231-.76592 1.57971-.19148.9574-.19148 2.53712 0 2.01054.19148 2.92007.19148.86167.71805 1.24463.57444.33509 1.86694.52657l4.88275.81379q1.9148.33509 3.06368 1.10101 1.19675.71805 1.86694 2.44138.57444 1.62758.57444 5.40932 0 3.87747-.90954 6.0795-.86166 2.15415-2.72859 3.06369-1.86693.86166-5.07423.86166z"/><path d="m134.68955 260.84376v-28.91354h-6.98903v-4.02109h18.47785v4.02109h-6.98903v28.91354z"/><path d="m163.77233 260.84376-3.82961-12.73345h-.28722-5.50506v12.73345h-4.49979v-32.93463h10.38781q3.39878 0 5.1221 1.24462 1.72333 1.19675 2.2499 3.30304.52657 2.10628.52657 5.55293 0 3.59026-.76592 5.93589-.71806 2.29777-2.96795 3.30304l4.30831 13.59511zm-4.88275-16.61093q2.01054 0 2.96794-.62231.95741-.62231 1.24463-1.86693.28722-1.2925.28722-3.73387 0-2.48925-.28722-3.73387-.23935-1.24462-1.19675-1.81906-.90954-.62231-2.96795-.62231h-4.78701v12.39835z"/><path d="m188.31343 260.84376-2.01054-8.42514h-9.2868l-1.96267 8.42514h-4.49979l8.09004-32.93463h6.22312l8.04217 32.93463zm-6.51033-28.05188h-.28722l-3.59026 15.74926h7.46774z"/><path d="m198.78222 260.84376v-28.91354h-6.98903v-4.02109h18.47786v4.02109h-6.98904v28.91354z"/><path d="m213.74333 260.84376v-32.93463h15.70139v3.92535h-11.2016v10.38781h9.71763v3.92535h-9.71763v10.77077h11.2016v3.92535z"/><path d="m242.99963 246.62634v-3.82961h8.61662v17.52046q-1.72332.38296-3.92535.62231-2.20202.28722-4.02109.28722-4.40405 0-6.5582-1.2925-2.10628-1.34036-2.96795-4.83488-.81379-3.49451-.81379-10.7229 0-7.18051.81379-10.67503.86167-3.49452 3.01582-4.83488 2.15415-1.34036 6.65394-1.34036 1.86694 0 4.02109.28722 2.20203.23935 3.686.67018v3.63813q-3.92535-.67018-6.0795-.67018-3.63813 0-5.07423.67018-1.43611.67018-2.01055 3.25516-.52657 2.58499-.52657 8.99958 0 5.9359.38296 8.52088.38296 2.58499 1.57972 3.54239 1.19675.9574 3.87747.9574 1.81907 0 3.59026-.33509v-10.43568z"/><path d="m262.18826 260.84376v-12.25475l-8.23366-20.67988h4.69127l5.79228 15.31843h.28722l5.74441-15.31843h4.49979l-8.23365 20.67988v12.25475z"/></g></svg>