<svg fill="none" height="70" viewBox="0 0 262 70" width="262" xmlns="http://www.w3.org/2000/svg" xmlns:xlink="http://www.w3.org/1999/xlink"><clipPath id="a"><path d="m0 0h262v70h-262z"/></clipPath><g clip-path="url(#a)"><path d="m0 0h11.1147l15.2464 52.9439 15.9076-49.06189h9.0901l15.9902 49.06189 15.2878-52.9439h11.1147l-20.6592 69.0914h-10.4123l-15.8663-48.4424-15.8662 48.4424h-10.2883zm105.321 0h10.618v69.0914h-10.618zm99.04 0v69.0914h-10.578v-54.4306l-18.965 48.4837h-10.288l-18.841-48.4837v54.4306h-10.619v-69.0914h15.246l19.337 50.9616 19.461-50.9616zm11.817 47.9882 10.412-1.1976c.703 8.9203 4.876 13.3805 12.396 13.3805s12.395-5.2449 12.395-15.8584v-34.48379h-26.774v-9.82891h37.186v44.8909c0 15.6932-8.635 25.1091-22.807 25.1091-13.098.2065-21.816-8.3422-22.808-22.0118z" fill="#656a80"/></g></svg>