<svg fill="none" height="60" viewBox="0 0 364 60" width="364" xmlns="http://www.w3.org/2000/svg" xmlns:xlink="http://www.w3.org/1999/xlink"><clipPath id="a"><path d="m0 0h364v60h-364z"/></clipPath><g clip-path="url(#a)"><path d="m27.9064 59.4528h-25.55569c-1.29847 0-2.35071-1.0538-2.35071-2.3546h27.9294c9.7645.0477 18.8117-5.1254 23.7349-13.5707 4.9232-8.4454 4.9736-18.8793.1331-27.3724-4.8414-8.49303-13.8382-13.7538-23.6027-13.80149h-28.1947c0-1.3 1.05224-2.35461708 2.35071-2.35461708h25.84399c7.8841.00769231 15.4417 3.15384708 21.008 8.74538708 5.5671 5.59072 8.6871 13.16922 8.6725 21.06462-.0451 16.4354-13.5666 29.6431-29.9696 29.6431z" fill="#5468ff"/><path d="m0 53.1115h18.1319c2.2422.0077 4.4055-.8238 6.0665-2.3315h-24.1984zm0-6.3415h27.8154c.5613-.7592 1.0844-1.5192 1.57-2.3623h-29.3854zm0-6.35h31.3721c.3112-.7592.5911-1.5192.8343-2.3546h-32.2064zm0-6.3416h33.1164c.1139-.7592.2049-1.5646.2577-2.3546h-33.3741zm0-6.3415h33.3664c-.0528-.7977-.1438-1.5877-.2577-2.3623h-33.1087zm0-6.3492h32.2064c-.2425-.7977-.5231-1.5877-.8343-2.3546h-31.3721zm0-6.3423h29.3854c-.4826-.8116-1.0064-1.597-1.57-2.3546h-27.8154zm0-8.70388v2.36231h24.2213c-1.6602-1.50923-3.8243-2.34077-6.0664-2.33154zm103.755 32.17998c-1.393 2.5408-3.504 4.6146-6.0661 5.9623-2.8807 1.4854-6.0886 2.2216-9.3271 2.1416h-12.6796v-33.6077h12.6719c3.2416-.0846 6.4541.6354 9.3501 2.0961 2.5628 1.3162 4.6758 3.3685 6.0668 5.8939 1.446 2.6823 2.176 5.6938 2.116 8.7415.053 3.0585-.68 6.08-2.132 8.7723zm-8.7281-1.6861c1.7543-1.6762 2.6314-4.0377 2.6314-7.0862 0-3.0484-.8771-5.4077-2.6314-7.0784-1.7595-1.6808-4.2211-2.5216-7.3863-2.5216h-3.8372v19.2h3.8372c3.1698 0 5.6321-.8377 7.3863-2.5138zm39.1451-22.1239c2.541 1.4523 4.639 3.5716 6.067 6.1293 1.51 2.7061 2.279 5.7638 2.23 8.863.04 3.1116-.745 6.1785-2.275 8.8862-1.447 2.5723-3.565 4.7015-6.128 6.1592-5.332 2.9462-11.799 2.9462-17.131 0-2.563-1.4561-4.678-3.5861-6.12-6.1592-1.535-2.7062-2.321-5.7739-2.275-8.8862-.047-3.1046.74-6.1654 2.275-8.863 1.448-2.56 3.564-4.6785 6.12-6.1293 5.35-2.9469 11.834-2.9469 17.184 0zm-14.954 7.9369c-1.563 1.727-2.346 4.0785-2.351 7.0554-.005 2.977.778 5.3216 2.351 7.0331 3.499 3.4839 9.149 3.4839 12.649 0 1.572-1.7369 2.358-4.0808 2.358-7.0331 0-2.9515-.784-5.2961-2.351-7.033-3.514-3.47-9.158-3.47-12.672 0zm52.923-6.5853c2.83 2.3007 4.755 5.5284 5.437 9.1138h-8.584c-.583-1.4831-1.601-2.7538-2.92-3.6454-1.385-.9107-3.014-1.3769-4.671-1.3369-2.214-.0785-4.339.8792-5.749 2.59-1.456 1.7369-2.184 4.0662-2.184 6.9877s.728 5.2408 2.184 6.9569c1.412 1.7092 3.536 2.6654 5.749 2.59 1.652.0523 3.282-.4008 4.671-1.2984 1.311-.8839 2.328-2.14 2.92-3.6077h8.592c-.689 3.5823-2.614 6.8084-5.437 9.1138-2.796 2.2631-6.335 3.3977-10.616 3.4023-3.004.0662-5.97-.6823-8.585-2.1646-2.455-1.4285-4.443-3.5392-5.725-6.0762-1.381-2.7553-2.073-5.8046-2.018-8.8861-.055-3.0846.637-6.1362 2.018-8.8939 1.282-2.5369 3.27-4.6476 5.725-6.0761 2.615-1.4731 5.578-2.2131 8.577-2.1415 4.287 0 7.826 1.1238 10.616 3.3723zm32.04 25.9977c-.963 1.5461-2.347 2.7846-3.989 3.57-1.996.9353-4.182 1.3907-6.385 1.3292-3.762 0-6.86-.9192-9.297-2.7569-2.434-1.8231-3.903-4.6593-3.989-7.7016h8.637c.063 1.1308.545 2.1977 1.35 2.9923.807.74 1.872 1.1331 2.965 1.0939.904.0523 1.792-.2531 2.472-.8508.607-.5992.935-1.4254.903-2.2785.02-.7946-.28-1.5646-.835-2.1338-.588-.6-1.289-1.0777-2.062-1.4054-.819-.3646-1.964-.7592-3.42-1.3061-1.777-.5885-3.512-1.297-5.195-2.1193-1.384-.7161-2.574-1.7584-3.465-3.0377-1.024-1.5553-1.531-3.3946-1.449-5.2553-.047-1.8431.483-3.6547 1.517-5.18 1.056-1.4954 2.516-2.657 4.209-3.3493 1.946-.8061 4.037-1.2023 6.142-1.1623 3.731 0 6.696.8862 8.895 2.6585 2.216 1.8069 3.57 4.4638 3.731 7.3215h-8.781c-.106-.99-.532-1.9184-1.214-2.6431-.707-.6707-1.658-1.0215-2.631-.9723-.824-.0277-1.632.2416-2.275.7593-.611.5753-.932 1.3953-.872 2.233-.024.7477.249 1.4739.759 2.02.559.5823 1.229 1.0447 1.971 1.3593.789.3492 1.926.7923 3.413 1.3292 1.809.5854 3.571 1.3092 5.27 2.1646 1.4.7462 2.603 1.8131 3.511 3.1139 1.04 1.5715 1.555 3.433 1.471 5.3161.012 1.7254-.458 3.42-1.357 4.8916zm13.961-22.58v7.0407h11.375v6.1369h-11.375v7.4662h12.763v6.5092h-20.846v-33.6154h20.877v6.4631zm38.046 21.0153h-12.573l-2.093 6.1293h-8.539l12.293-33.3646h9.35l12.308 33.3646h-8.653zm-2.085-6.1823-4.179-12.3569-4.224 12.3569zm32.547 12.3116-7.265-12.6908h-1.835v12.6908h-8.114v-33.6077h13.862c2.327-.0616 4.635.4223 6.742 1.4123 1.727.8223 3.167 2.1454 4.133 3.7977.935 1.6761 1.409 3.5715 1.373 5.4907.067 2.247-.646 4.4485-2.017 6.2277-1.505 1.7893-3.572 3.0131-5.863 3.4708l7.978 13.2154zm-9.1-18.2277h5.036c1.278.1146 2.553-.2631 3.564-1.0554.809-.8446 1.222-1.9923 1.138-3.1592.064-1.1616-.356-2.2977-1.16-3.137-.982-.8315-2.252-1.2407-3.534-1.1392h-5.043zm47.305-12.3346c2.831 2.2984 4.758 5.5277 5.437 9.1138h-8.592c-.578-1.49-1.596-2.7677-2.92-3.6608-1.385-.9115-3.015-1.3777-4.672-1.3369-2.214-.0769-4.338.8869-5.74 2.6054-1.456 1.7369-2.184 4.0662-2.184 6.9877s.728 5.2408 2.184 6.9569c1.407 1.71 3.529 2.6669 5.74 2.59 1.656.0439 3.286-.42 4.672-1.3292 1.313-.8816 2.33-2.1385 2.92-3.6077h8.592c-.686 3.5838-2.612 6.8108-5.437 9.1138-2.796 2.2631-6.335 3.3977-10.617 3.4023-3.006.067-5.975-.6807-8.592-2.1646-2.454-1.4269-4.441-3.5377-5.718-6.0761-1.382-2.7539-2.074-5.8039-2.017-8.8862-.059-3.0846.633-6.1369 2.017-8.8938 1.277-2.5377 3.264-4.6493 5.718-6.0762 2.618-1.4815 5.586-2.2261 8.592-2.1569 4.283.03 7.821 1.1708 10.617 3.4185zm38.508-3.0454v33.6077h-8.167v-14.02h-12.717v14.02h-8.114v-33.6077h8.114v13.0254h12.717v-13.0254z" fill="#000"/></g></svg>