<svg fill="none" height="33" viewBox="0 0 183 33" width="183" xmlns="http://www.w3.org/2000/svg"><path d="m20.5487 14.5371 2.6656 4.4777m.4439-10.52225c0 3.58545-2.8841 6.49255-6.4419 6.49255s-6.4419-2.9067-6.4419-6.49255c0-3.5858 2.8841-6.49255 6.4419-6.49255s6.4419 2.90675 6.4419 6.49255z" stroke="#5468ff" stroke-width="2.2"/><path clip-rule="evenodd" d="m4.2218 19.8856c3.08026-1.7927 7.0196-.7289 8.7985 2.3757 1.7785 3.1054.7228 7.0751-2.3578 8.8678-3.08111 1.7927-7.02002.729-8.79853-2.3756-1.7785078-3.1054-.72325-7.0752 2.35783-8.8679z" fill-rule="evenodd" stroke="#848ab8" stroke-dasharray="3.99 3.99"/><path d="m20.9926 25.7311h-5.331m-4.8872-5.8204 2.6656-4.4781zm12.9957 11.2184c-3.0811-1.7927-4.1364-5.7624-2.3579-8.8674s5.7179-4.1688 8.7985-2.3761c3.0811 1.7927 4.1364 5.7624 2.3579 8.8674-1.7789 3.105-5.7179 4.1688-8.7985 2.3761z" stroke="#848ab8" stroke-width="1.1"/><path clip-rule="evenodd" d="m46 24.968v-16.17599h1.944v16.17599zm7.56-12.168v2.112c.72-1.52 2-2.28 3.84-2.28 1.184 0 2.128.36 2.832 1.08s1.056 1.68 1.056 2.88v8.376h-1.896v-7.872c0-.896-.228-1.58-.684-2.052s-1.052-.708-1.788-.708c-.912 0-1.7.352-2.364 1.056s-.996 1.68-.996 2.928v6.648h-1.872v-12.168zm17.712.408v1.8c-.736-.448-1.744-.672-3.024-.672-.64 0-1.148.148-1.524.444s-.564.676-.564 1.14c0 .288.056.54.168.756s.332.428.66.636.568.348.72.42.484.22.996.444c1.024.416 1.824.888 2.4 1.416s.864 1.24.864 2.136c0 1.04-.364 1.864-1.092 2.472s-1.724.912-2.988.912c-1.472 0-2.664-.248-3.576-.744v-1.848c1.072.64 2.224.96 3.456.96.736 0 1.296-.144 1.68-.432s.576-.68.576-1.176c0-.576-.212-1.024-.636-1.344s-1.132-.68-2.124-1.08c-.912-.352-1.644-.792-2.196-1.32s-.828-1.24-.828-2.136c0-1.008.38-1.812 1.14-2.412s1.708-.9 2.844-.9c1.264 0 2.28.176 3.048.528zm5.88 1.128v7.128c0 1.296.608 1.944 1.824 1.944.624 0 1.176-.184 1.656-.552v1.8c-.5457.2924-1.1569.4411-1.776.432-2.4 0-3.6-1.224-3.6-3.672v-7.08h-1.944v-1.536h1.944v-3.024h1.896v3.024h3.36v1.536zm12.792 5.016h-2.112c-1.024 0-1.792.2-2.304.6s-.768.904-.768 1.512.2 1.1.6 1.476.984.564 1.752.564c.864 0 1.552-.244 2.064-.732s.768-1.108.768-1.86zm-6.288-4.008v-1.896c.912-.56 2.112-.84 3.6-.84 3.056 0 4.584 1.552 4.584 4.656v7.704h-1.872v-1.44c-.624 1.04-1.76 1.56-3.408 1.56-1.136 0-2.052-.336-2.748-1.008s-1.044-1.52-1.044-2.544c0-1.168.444-2.076 1.332-2.724s2.1-.972 3.636-.972h2.208v-.624c0-.96-.216-1.684-.648-2.172s-1.16-.732-2.184-.732c-1.296 0-2.448.344-3.456 1.032zm13.416-2.544v2.112c.72-1.52 2-2.28 3.84-2.28 1.184 0 2.128.36 2.832 1.08s1.056 1.68 1.056 2.88v8.376h-1.896v-7.872c0-.896-.228-1.58-.684-2.052s-1.052-.708-1.788-.708c-.912 0-1.7.352-2.364 1.056s-.996 1.68-.996 2.928v6.648h-1.872v-12.168zm13.704 1.536v7.128c0 1.296.608 1.944 1.824 1.944.624 0 1.176-.184 1.656-.552v1.8c-.546.2924-1.157.4411-1.776.432-2.4 0-3.6-1.224-3.6-3.672v-7.08h-1.944v-1.536h1.944v-3.024h1.896v3.024h3.36v1.536zm14.808-4.944v2.04c-.976-.64-2.144-.96-3.504-.96-.976 0-1.752.228-2.328.684s-.864 1.052-.864 1.788c0 .384.076.728.228 1.032s.42.588.804.852.712.464.984.6.696.332 1.272.588c.544.24.96.428 1.248.564s.66.352 1.116.648.8.584 1.032.864.44.648.624 1.104.276.948.276 1.476c0 1.424-.488 2.524-1.464 3.3s-2.232 1.164-3.768 1.164c-1.696 0-3.136-.344-4.32-1.032v-2.088c1.168.88 2.592 1.32 4.272 1.32 1.008 0 1.8-.224 2.376-.672s.864-1.096.864-1.944c0-.352-.068-.668-.204-.948s-.36-.536-.672-.768c-.282-.2126-.579-.4051-.888-.576-.514-.2727-1.038-.5249-1.572-.756-.532-.2299-1.057-.478-1.572-.744-.446-.2493-.872-.5342-1.272-.852-.488-.376-.844-.812-1.068-1.308s-.336-1.072-.336-1.728c0-1.376.492-2.452 1.476-3.228s2.22-1.16401 3.708-1.16401c1.392 0 2.576.24801 3.552.74401zm11.76 8.712v-.48c0-1.008-.272-1.812-.816-2.412s-1.296-.9-2.256-.9c-.912 0-1.688.328-2.328.984s-1.016 1.592-1.128 2.808zm1.128 4.464v1.776c-.944.496-2.096.744-3.456.744-1.84 0-3.324-.564-4.452-1.692s-1.692-2.62-1.692-4.476c0-1.936.504-3.464 1.512-4.584s2.304-1.68 3.888-1.68c1.52 0 2.728.488 3.624 1.464s1.344 2.36 1.344 4.152c0 .512-.04.984-.12 1.416h-8.304c.144 1.2.6 2.12 1.368 2.76s1.776.96 3.024.96c1.36 0 2.448-.28 3.264-.84zm10.2-3.216h-2.112c-1.024 0-1.792.2-2.304.6s-.768.904-.768 1.512.2 1.1.6 1.476.984.564 1.752.564c.864 0 1.552-.244 2.064-.732s.768-1.108.768-1.86zm-6.288-4.008v-1.896c.912-.56 2.112-.84 3.6-.84 3.056 0 4.584 1.552 4.584 4.656v7.704h-1.872v-1.44c-.624 1.04-1.76 1.56-3.408 1.56-1.136 0-2.052-.336-2.748-1.008s-1.044-1.52-1.044-2.544c0-1.168.444-2.076 1.332-2.724s2.1-.972 3.636-.972h2.208v-.624c0-.96-.216-1.684-.648-2.172s-1.16-.732-2.184-.732c-1.296 0-2.448.344-3.456 1.032zm13.416-2.544v2.136c.64-1.504 1.744-2.256 3.312-2.256.288 0 .512.016.672.048v1.872c-.333-.1114-.681-.1682-1.032-.168-.848 0-1.552.392-2.112 1.176s-.84 1.688-.84 2.712v6.648h-1.896l.024-12.168zm7.2 6.144c.016 1.312.416 2.404 1.2 3.276s1.896 1.308 3.336 1.308c.928 0 1.792-.264 2.592-.792v1.8c-.768.464-1.712.696-2.832.696-1.92 0-3.444-.612-4.572-1.836s-1.692-2.716-1.692-4.476c0-1.728.564-3.216 1.692-4.464s2.668-1.872 4.62-1.872c1.04 0 1.968.224 2.784.672v1.8c-.736-.496-1.6-.744-2.592-.744-1.376 0-2.476.444-3.3 1.332s-1.236 1.988-1.236 3.3zm11.928-10.944v6.912c.72-1.52 2-2.28 3.84-2.28 1.168 0 2.108.36 2.82 1.08s1.068 1.696 1.068 2.928v8.328h-1.896v-7.872c0-.88-.228-1.56-.684-2.04s-1.052-.72-1.788-.72c-.896 0-1.68.344-2.352 1.032s-1.008 1.672-1.008 2.952v6.648h-1.872v-16.968z" fill="#000" fill-rule="evenodd"/></svg>