<svg width="1608" height="182" viewBox="0 0 1608 182" fill="none" xmlns="http://www.w3.org/2000/svg">
<path d="M1.09439 0.542969V181.457H183.225V0.542969H1.09439ZM127.984 128.215C124.976 132.561 120.327 135.821 114.584 138.266C108.842 140.71 102.005 141.797 93.8004 141.797H53.0536V40.2026H91.6129C102.825 40.2026 111.576 42.3757 117.866 46.9936C124.156 51.6116 127.164 57.8593 127.164 66.2803C127.164 74.7008 126.07 75.2444 123.882 78.7758C121.695 82.3072 118.413 85.0233 114.038 87.197C120.053 89.0982 124.703 92.3579 127.984 96.704C131.266 101.05 132.906 106.212 132.906 112.459C132.906 118.707 131.266 123.868 128.258 128.215H127.984ZM102.005 78.504C104.739 76.0592 106.38 72.7995 106.38 68.7252C106.38 60.5758 100.911 56.5011 89.6985 56.5011H73.8375V81.7636H89.6985C95.1681 81.7636 99.27 80.6771 102.005 78.2322V78.504ZM92.1596 97.7906H73.8375V125.226H91.886C98.176 125.226 102.825 124.14 106.107 121.695C109.388 119.25 111.029 115.991 111.029 111.644C111.029 102.409 104.739 97.7906 91.886 97.7906H92.1596Z" fill="#333333"/>
<path d="M228.622 0.542969V181.457H410.752V0.542969H228.622ZM355.511 128.215C352.503 132.561 347.854 135.821 342.111 138.266C336.369 140.71 329.532 141.797 321.328 141.797H280.581V40.2026H319.14C330.352 40.2026 339.103 42.3757 345.393 46.9936C351.683 51.6116 354.691 57.8593 354.691 66.2803C354.691 74.7008 353.597 75.2444 351.409 78.7758C349.222 82.3072 345.94 85.0233 341.565 87.197C347.581 89.0982 352.23 92.3579 355.511 96.704C358.793 101.05 360.434 106.212 360.434 112.459C360.434 118.707 358.793 123.868 355.785 128.215H355.511ZM329.532 78.504C332.266 76.0592 333.908 72.7995 333.908 68.7252C333.908 60.5758 328.438 56.5011 317.226 56.5011H301.365V81.7636H317.226C322.695 81.7636 326.797 80.6771 329.532 78.2322V78.504ZM319.96 97.7906H301.638V125.226H319.687C325.977 125.226 330.625 124.14 333.908 121.695C337.189 119.25 338.83 115.991 338.83 111.644C338.83 102.409 332.54 97.7906 319.687 97.7906H319.96Z" fill="#333333"/>
<path d="M456.149 181.457H638.279V0.542969H456.149V181.457ZM586.868 135.277C582.492 137.722 577.843 139.352 572.1 140.71C566.631 142.068 560.614 142.612 554.598 142.612C548.582 142.612 539.011 141.525 532.447 139.08C525.884 136.635 520.414 133.376 515.766 128.758C511.116 124.412 507.835 118.707 505.374 112.459C502.913 105.94 501.819 98.6053 501.819 90.7278C501.819 82.8502 503.186 75.788 505.647 69.2681C508.109 63.0207 511.663 57.3161 516.586 52.9698C521.235 48.3519 526.978 44.8206 533.541 42.3758C540.104 39.931 547.488 38.8444 555.692 38.8444C563.896 38.8444 566.631 39.3877 571.827 40.4743C576.749 41.5608 581.672 43.4623 586.047 45.6354V65.4655C582.219 62.7489 577.843 60.8476 573.194 59.4892C568.545 58.131 563.623 57.5877 558.7 57.5877C553.778 57.5877 545.574 58.9459 540.651 61.3906C535.729 64.1072 531.9 67.6386 529.165 72.7995C526.431 77.6893 525.064 83.6655 525.064 90.7278C525.064 97.7906 526.431 103.767 528.892 108.657C531.353 113.546 535.182 117.349 540.104 120.066C545.026 122.782 550.77 123.868 557.88 123.868C568.545 123.868 578.39 121.152 587.141 115.719V135.006L586.868 135.277Z" fill="#333333"/>
<path d="M690.512 26.0771V155.922H708.012V82.8505L754.231 152.934L800.444 82.8505V155.922H817.944V26.0771L754.231 122.238L690.512 26.0771Z" fill="#E45F00"/>
<path d="M1005.82 155.922H1079.93V138.809H1023.33V99.6922H1065.71V82.5787H1023.33V43.4622H1079.93V26.0771H1005.82V155.922Z" fill="#E45F00"/>
<path d="M1187.95 101.323C1186.04 98.8777 1183.57 96.4328 1181.11 94.5315C1178.65 92.3585 1175.92 90.7284 1172.91 89.0988C1169.9 87.4687 1166.89 86.3822 1163.88 85.2957L1159.78 83.9373L1154.86 82.5796C1153.49 82.3078 1151.85 81.4925 1149.94 80.9495C1148.29 80.4059 1146.66 79.5912 1145.29 78.7764C1143.92 77.9617 1142.55 77.1463 1141.19 76.0598C1139.82 74.9732 1138.72 73.8867 1137.63 72.8001C1135.72 70.0835 1134.62 66.8239 1134.62 63.2925C1134.62 60.8482 1135.17 58.1316 1136.26 55.9585C1137.36 53.5137 1138.72 51.6121 1140.64 49.7106C1142.55 47.8092 1144.74 46.451 1146.93 45.636C1149.39 44.5494 1151.85 44.0062 1154.59 44.0062C1159.78 44.0062 1164.97 45.9076 1168.53 49.7106C1170.72 51.8838 1172.09 54.3286 1173.18 57.045L1190.68 53.5137C1188.77 46.451 1184.67 40.4749 1179.2 35.857C1175.92 32.8689 1172.09 30.6958 1167.71 29.0659C1158.69 25.8062 1148.84 26.0778 1139.82 29.6092C1135.44 31.5106 1131.07 34.2271 1127.78 37.4867C1124.23 40.7465 1121.5 44.8212 1119.58 49.1674C1117.67 53.7853 1116.57 58.4031 1116.57 63.2925C1116.57 70.6271 1119.03 77.6899 1123.96 83.1226C1127.24 86.9258 1131.34 90.4572 1135.72 92.902C1140.64 95.6181 1145.84 97.5194 1151.03 98.8777C1153.49 99.4213 1155.95 100.236 1158.14 101.051C1160.33 101.866 1162.79 102.953 1164.97 104.039C1167.17 105.126 1169.08 106.484 1170.99 107.842C1172.63 109.2 1174 111.102 1174.82 113.003C1175.92 114.905 1176.46 117.078 1176.19 119.523C1176.19 122.239 1175.64 124.955 1174.28 127.128C1173.18 129.573 1171.27 131.475 1169.36 133.105C1167.17 134.735 1164.97 136.093 1162.24 137.18C1159.78 138.266 1157.04 138.809 1154.31 139.081C1149.94 139.081 1145.56 137.723 1142.01 135.278C1138.45 133.105 1135.44 129.845 1133.8 125.771L1116.3 129.301C1117.94 134.463 1120.95 139.353 1124.77 143.155C1128.6 147.23 1133.26 150.49 1138.45 152.663C1148.29 157.009 1159.51 157.281 1169.63 153.206C1174.28 151.305 1178.65 148.86 1182.48 145.328C1186.04 142.069 1189.04 137.994 1191.23 133.648C1193.42 129.03 1194.51 124.141 1194.51 119.251C1194.51 115.991 1193.97 112.732 1192.87 109.472C1191.78 106.483 1190.41 103.767 1188.49 101.323H1187.95Z" fill="#E45F00"/>
<path d="M1226.24 26.0781V43.1915H1260.97V155.923H1278.47V43.1915H1313.2V26.0781H1226.24Z" fill="#E45F00"/>
<path d="M1602.53 66.2807C1598.98 58.4029 1594.05 51.3403 1588.04 45.3642C1581.74 39.1164 1574.64 34.2268 1566.71 30.9671C1542.09 20.6447 1513.38 26.3493 1494.51 45.3642C1488.22 51.3403 1483.3 58.6746 1480.02 66.5519C1473.72 82.5788 1473.72 100.236 1480.02 116.263C1483.3 124.14 1488.22 131.474 1494.51 137.179C1500.52 143.427 1507.91 148.045 1515.84 151.304C1540.72 161.627 1569.17 155.922 1588.04 137.179C1594.32 131.203 1599.25 124.14 1602.53 116.263C1609.09 100.236 1609.09 82.3077 1602.53 66.5519V66.2807ZM1586.12 109.2C1583.66 114.904 1580.11 120.337 1575.46 124.683C1566.43 133.648 1554.12 138.809 1541.27 138.809C1534.98 138.809 1528.42 137.722 1522.68 135.278C1516.93 132.833 1511.47 129.301 1507.09 124.955C1502.44 120.609 1498.89 115.447 1496.42 109.472C1493.96 103.767 1492.87 97.5192 1492.87 91.2718C1492.87 85.0237 1493.96 78.7762 1496.42 73.0718C1498.89 67.3673 1502.44 61.934 1507.09 57.8597C1516.11 48.6238 1528.42 43.7343 1541.27 43.7343C1547.56 43.7343 1553.85 44.8209 1559.87 47.2656C1565.61 49.7104 1571.08 53.2417 1575.73 57.8597C1580.11 62.2058 1583.66 67.3673 1586.39 73.0718C1588.86 78.7762 1590.22 85.0237 1589.95 91.2718C1589.95 97.5192 1588.86 103.767 1586.12 109.472V109.2Z" fill="#E45F00"/>
<path d="M1411.92 107.842L1417.94 105.398C1420.95 104.311 1423.68 102.953 1426.14 101.323C1428.61 99.4212 1430.79 96.9764 1432.71 94.5321C1435.17 91.0007 1437.08 87.1975 1438.72 83.3943C1440.09 79.3199 1440.91 75.2456 1440.64 70.8988V67.0962C1440.64 61.9347 1439.82 56.7737 1437.9 51.8841C1435.71 46.9945 1432.43 42.6483 1428.61 39.1169C1424.23 35.0423 1419.31 32.0542 1413.84 29.8811C1408.09 27.7079 1401.81 26.3497 1395.51 26.6213H1354.77V68.7257H1372.27V43.7349H1393.6C1397.7 43.7349 1401.81 44.2781 1405.63 45.6363C1409.19 46.7229 1412.47 48.6244 1415.2 51.0691C1417.39 53.2422 1419.31 55.9588 1420.68 58.9468C1421.77 61.9347 1422.32 65.1943 1422.32 68.4545C1422.32 71.7142 1421.77 74.9738 1420.68 78.2334C1419.58 81.493 1417.67 84.2097 1415.2 86.6539C1413.02 88.8276 1410.56 90.7289 1407.82 92.0872C1404.82 93.1738 1401.81 93.9885 1398.52 93.7167H1355.04V156.466H1372.55V110.83H1391.68L1421.22 156.466H1443.1L1415.75 114.09L1412.19 108.385L1411.92 107.842Z" fill="#E45F00"/>
<path d="M923.235 92.9013L931.439 112.731H893.969L921.863 47.5371L912.84 26.3491L856.779 155.922H875.377L886.59 129.845H938.823L950.031 155.922H968.629L932.258 71.4417L923.235 92.9013Z" fill="#E45F00"/>
</svg>
