<svg id="Layer_1" data-name="Layer 1" xmlns="http://www.w3.org/2000/svg" xmlns:xlink="http://www.w3.org/1999/xlink" viewBox="0 0 361.51 111"><defs><style>.cls-1{fill:#121921;}.cls-2{fill:url(#linear-gradient);}.cls-3{fill:url(#New_Gradient_Swatch_8);}</style><linearGradient id="linear-gradient" x1="16.49" y1="72" x2="111.61" y2="72" gradientUnits="userSpaceOnUse"><stop offset="0" stop-color="#61c192" stop-opacity="0"/><stop offset="1" stop-color="#61c192"/></linearGradient><linearGradient id="New_Gradient_Swatch_8" x1="34.44" y1="72" x2="98.88" y2="72" gradientUnits="userSpaceOnUse"><stop offset="0" stop-color="#61c192"/><stop offset="1" stop-color="#61c192" stop-opacity="0"/></linearGradient></defs><title>changelog</title><path class="cls-1" d="M268.28,61.41H255.05v6.75h11.77V75.5H255.05v7.18h13.72v7.4H247.11v-36h21.17Z" transform="translate(-16.49 -16.5)"/><path class="cls-1" d="M81,65.51c-3.19-3.62-5.62-4.91-9.07-4.91a11.48,11.48,0,0,0,.05,23c3.46,0,5.94-1.35,9.18-5l5.67,5.29c-4.7,5-9.07,7.13-14.74,7.13a18.93,18.93,0,1,1,0-37.85c5.62,0,9.94,2.05,14.58,7Z" transform="translate(-16.49 -16.5)"/><path class="cls-1" d="M100,68.16h13.37V54.06h8v36h-8V75.56H100V90.08H92v-36h8Z" transform="translate(-16.49 -16.5)"/><path class="cls-1" d="M137.47,82.14l-2.75,7.94h-8.42l13.45-36h9.18l13.45,36h-8.48l-2.75-7.94Zm6.8-19.55-4.21,12.15h8.48Z" transform="translate(-16.49 -16.5)"/><path class="cls-1" d="M167.25,54.06h6.7l16.63,21.87V54.06h8v36h-6.7L175.24,68.21V90.08h-8Z" transform="translate(-16.49 -16.5)"/><path class="cls-1" d="M240.91,69.56v3.73a19.67,19.67,0,0,1-2.32,9.77c-2.92,5-8.26,7.94-14.69,7.94-10.8,0-19.44-8.37-19.44-18.9a19.11,19.11,0,0,1,19.39-19c5.56,0,9.67,1.89,14.8,6.7L233,65.13c-3.4-3.35-5.72-4.54-9.18-4.54a11.48,11.48,0,0,0,.05,23c4.54,0,7.61-2.38,8.75-6.7H223V69.56Z" transform="translate(-16.49 -16.5)"/><path class="cls-1" d="M283.46,54.06V82.68h13.69v7.4H275.47v-36Z" transform="translate(-16.49 -16.5)"/><path class="cls-1" d="M337.29,72.1a19.2,19.2,0,0,1-38.39-.32c0-10,8.86-18.63,19.17-18.63A19.14,19.14,0,0,1,337.29,72.1Zm-30.35.16A11.16,11.16,0,1,0,318,60.6C311.8,60.6,306.94,65.73,306.94,72.26Z" transform="translate(-16.49 -16.5)"/><path class="cls-1" d="M378,69.56v3.73a19.67,19.67,0,0,1-2.32,9.77c-2.92,5-8.26,7.94-14.69,7.94-10.8,0-19.44-8.37-19.44-18.9a19.11,19.11,0,0,1,19.39-19c5.56,0,9.67,1.89,14.8,6.7l-5.67,5.29c-3.4-3.35-5.72-4.54-9.18-4.54a11.48,11.48,0,0,0,.05,23c4.54,0,7.61-2.38,8.75-6.7h-9.61V69.56Z" transform="translate(-16.49 -16.5)"/><path class="cls-2" d="M72,127.5H70.86a55.09,55.09,0,0,1-39.68-17.8,55.69,55.69,0,0,1,0-75.37,55.5,55.5,0,0,1,80-1.56A1.5,1.5,0,0,1,109,34.88a52.5,52.5,0,0,0-75.67,1.47,52.68,52.68,0,0,0,0,71.3A52.5,52.5,0,0,0,109,109.12a1.5,1.5,0,0,1,2.12,2.12A55,55,0,0,1,72,127.5Z" transform="translate(-16.49 -16.5)"/><path class="cls-3" d="M71.9,109.5l-1.28,0a37.5,37.5,0,0,1,0-75,37.61,37.61,0,0,1,27.81,11,1.5,1.5,0,0,1-2.12,2.12A34.64,34.64,0,0,0,70.73,37.52a34.5,34.5,0,0,0,0,69A34.64,34.64,0,0,0,96.32,96.4a1.5,1.5,0,0,1,2.12,2.12A37.64,37.64,0,0,1,71.9,109.5Z" transform="translate(-16.49 -16.5)"/></svg>