<svg xmlns="http://www.w3.org/2000/svg" xmlns:xlink="http://www.w3.org/1999/xlink" fill="none" height="64" viewBox="0 0 154 64" width="154"><clipPath id="a"><path d="m20 19h128.329v28h-128.329z"/></clipPath><g clip-path="url(#a)"><g fill="#202124"><path d="m20 30.7235c0-5.6849 4.768-10.3149 10.4633-10.3149 1.3089-.0219 2.609.2182 3.8238.7062 1.2147.488 2.3196 1.214 3.2496 2.1354l-1.998 1.9884c-1.3605-1.3113-3.1833-2.0331-5.0728-2.0085-4.1479 0-7.3903 3.3402-7.3903 7.4969 0 4.1566 3.2372 7.4951 7.3903 7.4951 2.6905 0 4.2231-1.0811 5.2046-2.0635.8052-.806 1.3318-1.9657 1.5335-3.5376h-6.7407v-2.8293h9.4783c.1075.5835.1581 1.176.1511 1.7692 0 2.1124-.5772 4.7278-2.439 6.5905-1.8146 1.8783-4.1287 2.8747-7.1904 2.8747-5.6953 0-10.4633-4.6178-10.4633-10.3044"/><path d="m47.7491 38.4186c-2.0085 0-3.7445-1.6592-3.7445-4.0249 0-2.3656 1.7334-4.0239 3.7445-4.0239s3.7419 1.6347 3.7419 4.0274c0 2.3928-1.7334 4.0231-3.7419 4.0231zm0-10.6625c-3.6677 0-6.6612 2.7945-6.6612 6.6368s2.9909 6.6323 6.6612 6.6323 6.662-2.818 6.662-6.6367-2.9944-6.6341-6.662-6.6341z"/><path d="m62.2793 38.4186c-2.0085 0-3.7454-1.6592-3.7454-4.0249 0-2.3656 1.7342-4.0239 3.7454-4.0239 2.0111 0 3.7453 1.6347 3.7453 4.0274 0 2.3928-1.7342 4.0266-3.7453 4.0266zm0-10.659c-3.6677 0-6.6621 2.7944-6.6621 6.6368 0 3.8423 2.9918 6.6323 6.6621 6.6323 3.6702 0 6.662-2.818 6.662-6.6367s-2.9918-6.6376-6.662-6.6376z"/><path d="m87.8112 21.1143h-2.9167v19.5189h2.9167z"/><path d="m87.8112 21.1143h-2.9167v19.5189h2.9167z"/><path d="m95.5801 30.3207c1.1571 0 2.1369.5772 2.4626 1.4085l-5.932 2.4643c-.0768-2.5665 1.9858-3.8728 3.4686-3.8728zm.2254 8.0994c-1.4846 0-2.5395-.6794-3.2171-2.0085l8.8756-3.6738-.299-.7484c-.553-1.4845-2.2359-4.2248-5.6809-4.2248s-6.2595 2.6923-6.2595 6.6368c0 3.7226 2.8163 6.6367 6.587 6.6367 1.094.0056 2.1722-.2607 3.1377-.7752s1.7877-1.2609 2.3937-2.172l-2.2628-1.509c-.7606 1.1038-1.7911 1.8382-3.2739 1.8382z"/><path d="m76.7785 38.4205c-2.0084 0-3.6956-1.6854-3.6956-3.9986 0-2.3133 1.6845-4.0502 3.6956-4.0502s3.535 1.7098 3.535 4.0502c0 2.3403-1.5527 3.9986-3.5384 3.9986zm3.3359-10.2634v1.0794h-.1005c-.654-.7859-1.9106-1.4845-3.493-1.4845-3.3183 0-6.3607 2.9184-6.3607 6.6664s3.0415 6.6079 6.3607 6.6079c1.5832 0 2.8399-.6986 3.493-1.509h.1005v.9553c0 2.5403-1.3571 3.8982-3.5358 3.8982-1.785 0-2.8905-1.2828-3.3385-2.3577l-2.5394 1.0575c.4777 1.1682 1.2942 2.1667 2.3442 2.867 1.05.7004 2.2855 1.0704 3.5476 1.0626 3.4197 0 6.3102-2.0085 6.3102-6.917v-11.9261z"/></g><path d="m119.972 21.0854h-9.843v19.5775h9.843z" fill="#3d8bff"/><path d="m138.23 40.9728c5.578 0 10.099-4.5216 10.099-10.0992s-4.521-10.0992-10.099-10.0992-10.099 4.5216-10.099 10.0992 4.521 10.0992 10.099 10.0992z" fill="#3d8bff"/><path d="m123.2 42.7473h-1.897l5.4-23.7473h1.898z" fill="#202124"/></g></svg>