<svg xmlns="http://www.w3.org/2000/svg" width="115" height="31" viewBox="0 0 115 31" fill="none">
  <g clip-path="url(#clip0_1784_13308)">
    <path fill-rule="evenodd" clip-rule="evenodd" d="M52.8378 12.4C49.9413 12.4 47.5074 10.4241 46.8174 7.75H39.6926C38.1733 7.75 36.8767 8.84559 36.627 10.3404L36.3713 11.8693C36.1289 13.3209 35.3925 14.5843 34.3513 15.5C35.3925 16.4157 36.1289 17.6791 36.3713 19.1307L36.627 20.6596C36.8767 22.1544 38.1733 23.25 39.6926 23.25H40.6012C41.2912 20.5759 43.7251 18.6 46.6216 18.6C50.0548 18.6 52.8378 21.3758 52.8378 24.8C52.8378 28.2242 50.0548 31 46.6216 31C43.7251 31 41.2912 29.024 40.6012 26.35H39.6926C36.6539 26.35 34.0607 24.1588 33.5611 21.1693L33.3055 19.6404C33.0558 18.1456 31.7592 17.05 30.2398 17.05H27.7772C27.0872 19.7241 24.6533 21.7 21.7568 21.7C18.8603 21.7 16.4265 19.7241 15.7364 17.05H12.2366C11.5465 19.7241 9.11271 21.7 6.21622 21.7C2.7831 21.7 0 18.9242 0 15.5C0 12.0758 2.7831 9.3 6.21622 9.3C9.11271 9.3 11.5465 11.2759 12.2366 13.95H15.7364C16.4265 11.2759 18.8603 9.3 21.7568 9.3C24.6533 9.3 27.0872 11.2759 27.7772 13.95H30.2398C31.7592 13.95 33.0558 12.8544 33.3055 11.3596L33.5611 9.83072C34.0607 6.84116 36.6539 4.65 39.6926 4.65H46.8174C47.5074 1.9759 49.9413 0 52.8378 0C56.271 0 59.0541 2.77584 59.0541 6.2C59.0541 9.62416 56.271 12.4 52.8378 12.4ZM52.8378 9.3C54.5543 9.3 55.9459 7.91208 55.9459 6.2C55.9459 4.48792 54.5543 3.1 52.8378 3.1C51.1214 3.1 49.7297 4.48792 49.7297 6.2C49.7297 7.91208 51.1214 9.3 52.8378 9.3ZM6.21622 18.6C7.93277 18.6 9.32432 17.2121 9.32432 15.5C9.32432 13.7879 7.93277 12.4 6.21622 12.4C4.49966 12.4 3.10811 13.7879 3.10811 15.5C3.10811 17.2121 4.49966 18.6 6.21622 18.6ZM24.8649 15.5C24.8649 17.2121 23.4733 18.6 21.7568 18.6C20.0402 18.6 18.6486 17.2121 18.6486 15.5C18.6486 13.7879 20.0402 12.4 21.7568 12.4C23.4733 12.4 24.8649 13.7879 24.8649 15.5ZM49.7297 24.8C49.7297 26.512 48.3381 27.9 46.6216 27.9C44.9052 27.9 43.5135 26.512 43.5135 24.8C43.5135 23.0879 44.9052 21.7 46.6216 21.7C48.3381 21.7 49.7297 23.0879 49.7297 24.8Z" fill="#EA4B71"/>
    <path fill-rule="evenodd" clip-rule="evenodd" d="M96.3561 13.4041V13.2564C97.4405 12.7147 98.525 11.7791 98.525 9.93243C98.525 7.27328 96.3315 5.67285 93.3 5.67285C90.1945 5.67285 87.9763 7.37176 87.9763 9.98167C87.9763 11.7544 89.0113 12.7147 90.1453 13.2564V13.4041C88.8883 13.8473 87.3848 15.1769 87.3848 17.3928C87.3848 20.0766 89.6029 21.9479 93.2754 21.9479C96.9476 21.9479 99.092 20.0766 99.092 17.3928C99.092 15.1769 97.613 13.8719 96.3561 13.4041ZM93.2754 7.93807C94.5078 7.93807 95.4195 8.72596 95.4195 10.0555C95.4195 11.3851 94.4829 12.173 93.2754 12.173C92.0676 12.173 91.057 11.3851 91.057 10.0555C91.057 8.70135 92.0184 7.93807 93.2754 7.93807ZM93.2754 19.5842C91.8459 19.5842 90.6874 18.6732 90.6874 17.122C90.6874 15.7186 91.6486 14.6598 93.2508 14.6598C94.8282 14.6598 95.7894 15.6939 95.7894 17.1712C95.7894 18.6732 94.6803 19.5842 93.2754 19.5842Z" fill="#101330"/>
    <path d="M102.895 21.7016H106.049V15.0291C106.049 12.8378 107.38 11.8775 108.884 11.8775C110.363 11.8775 111.521 12.8624 111.521 14.8814V21.7016H114.676V14.2412C114.676 11.0158 112.802 9.14453 109.87 9.14453C108.021 9.14453 106.986 9.88318 106.246 10.8434H106.049L105.778 9.39075H102.895V21.7016Z" fill="#101330"/>
    <path d="M74.9672 21.7016H71.8125V9.39075H74.696L74.9672 10.8434H75.1643C75.9038 9.88318 76.9391 9.14453 78.7876 9.14453C81.7204 9.14453 83.5935 11.0158 83.5935 14.2412V21.7016H80.4388V14.8814C80.4388 12.8624 79.2805 11.8775 77.8016 11.8775C76.2983 11.8775 74.9672 12.8378 74.9672 15.0291V21.7016Z" fill="#101330"/>
  </g>
  <defs>
    <clipPath id="clip0_1784_13308">
      <rect width="115" height="31" fill="white"/>
    </clipPath>
  </defs>
</svg>