<svg xmlns="http://www.w3.org/2000/svg" width="577" height="167" viewBox="0 0 577 167" fill="none">
<g clip-path="url(#clip0_3067_7980)">
<path d="M38.4012 0L0 75.377H17.8387L56.254 0H38.4012Z" fill="#F2617A"/>
<path d="M259.409 30.1734L256.333 36.1996H256.149C254.877 33.7936 252.91 31.8265 250.504 30.5545C248.072 29.4368 245.417 28.8913 242.742 28.9597C239.855 28.8991 236.996 29.5281 234.401 30.7944C232.032 31.9685 229.954 33.6559 228.319 35.7339C226.642 37.8696 225.383 40.3018 224.607 42.9033C223.753 45.6443 223.325 48.5001 223.337 51.371C223.317 54.3207 223.673 57.2609 224.395 60.121C225.054 62.7449 226.229 65.2111 227.853 67.375C229.445 69.4621 231.51 71.1407 233.879 72.2722C236.621 73.5297 239.614 74.1428 242.629 74.0645C245.329 74.0776 247.999 73.4945 250.448 72.3569C252.885 71.2677 254.898 69.4084 256.177 67.0645H256.347V73.0202C256.347 80.0766 253.044 84.1129 246.468 84.1129C239.891 84.1129 236.391 81.2903 234.528 78.9758L230.04 87.8528C230.04 87.8528 235.121 92.4254 244.732 92.4254C260.665 92.4254 268.145 84.6774 268.145 72.4839V30.1452L259.409 30.1734ZM255.683 56.8891C255.267 58.323 254.598 59.6708 253.708 60.869C252.826 62.0448 251.693 63.0091 250.391 63.6916C248.956 64.4106 247.367 64.7691 245.762 64.7359C244.073 64.7993 242.402 64.3729 240.95 63.5081C239.684 62.715 238.621 61.6373 237.845 60.3609C237.035 59.0345 236.475 57.5708 236.194 56.0424C235.867 54.4446 235.702 52.8182 235.7 51.1875C235.696 49.5518 235.89 47.9216 236.278 46.3327C236.627 44.8608 237.249 43.4677 238.113 42.2258C238.935 41.0595 240.011 40.0945 241.26 39.4033C242.644 38.6694 244.196 38.3094 245.762 38.3589C247.52 38.2903 249.266 38.6793 250.829 39.4879C252.128 40.2169 253.228 41.254 254.032 42.5081C254.877 43.8628 255.47 45.3594 255.782 46.9254C256.141 48.6616 256.316 50.4308 256.304 52.2037C256.323 53.7871 256.113 55.3651 255.683 56.8891Z" fill="#003D4F"/>
<path d="M93.9072 12.9557V36.4678H94.1753C95.5742 34.0082 97.6714 32.019 100.202 30.7521C102.416 29.6105 104.865 28.997 107.357 28.9597C110.152 28.885 112.934 29.3647 115.542 30.371C117.514 31.1657 119.245 32.4594 120.566 34.125C121.842 35.8653 122.719 37.8648 123.135 39.9819C123.653 42.4982 123.903 45.0621 123.883 47.6311V75.4335H111.492V49.8468C111.685 46.9586 111.08 44.0729 109.742 41.5061C108.585 39.6573 106.51 38.6835 103.546 38.6835C100.159 38.6835 97.7177 39.6996 96.1935 41.7037C94.6693 43.7077 93.9213 47.0242 93.9213 51.5827V75.3771H81.502V12.9557H93.9072Z" fill="#003D4F"/>
<path d="M129.091 42.9879C130.108 40.173 131.715 37.6083 133.804 35.4657C135.893 33.3732 138.391 31.7348 141.143 30.6532C147.37 28.3907 154.194 28.3907 160.421 30.6532C163.214 31.7062 165.745 33.3552 167.836 35.4854C169.927 37.6155 171.529 40.1757 172.53 42.9879C173.677 46.1533 174.242 49.5003 174.195 52.8669C174.238 56.2056 173.674 59.5242 172.53 62.6613C171.495 65.4507 169.89 67.9935 167.816 70.127C165.714 72.1947 163.192 73.7876 160.421 74.7983C154.179 77.0033 147.371 77.0033 141.129 74.7983C138.372 73.7475 135.87 72.1214 133.79 70.0282C131.707 67.902 130.101 65.3571 129.077 62.5625C127.926 59.4272 127.362 56.1073 127.411 52.7681C127.375 49.4333 127.944 46.1195 129.091 42.9879ZM140.381 58.1028C140.693 59.7461 141.3 61.3192 142.173 62.7459C143 64.1021 144.155 65.2282 145.532 66.0201C147.141 66.8908 148.954 67.3147 150.782 67.2479C152.619 67.3089 154.439 66.8854 156.06 66.0201C157.46 65.2383 158.636 64.1111 159.476 62.7459C160.343 61.3166 160.95 59.7445 161.268 58.1028C161.621 56.3657 161.796 54.5971 161.79 52.8246C161.794 51.0334 161.619 49.2463 161.268 47.4899C160.957 45.8463 160.35 44.2729 159.476 42.8467C158.618 41.4757 157.442 40.3329 156.046 39.5161C154.43 38.6346 152.608 38.201 150.768 38.26C149.058 38.1689 147.355 38.5418 145.84 39.3393C144.324 40.1368 143.052 41.3292 142.159 42.7903C141.279 44.2136 140.671 45.788 140.367 47.4334C140.011 49.1894 139.831 50.9765 139.831 52.7681C139.825 54.56 140.005 56.3477 140.367 58.1028H140.381Z" fill="#003D4F"/>
<path d="M208.066 75.377V69.1532H207.812C206.39 71.6122 204.254 73.5809 201.687 74.7983C199.281 75.9328 196.656 76.5253 193.996 76.5342C191.214 76.6228 188.441 76.1822 185.824 75.2358C183.842 74.4735 182.105 73.1854 180.8 71.51C179.512 69.7756 178.629 67.7741 178.218 65.6532C177.7 63.1368 177.449 60.5729 177.47 58.004V30.1733H189.889V55.7036C189.696 58.5963 190.301 61.4864 191.639 64.0584C192.796 65.8931 194.866 66.834 197.849 66.881C201.226 66.881 203.673 65.8743 205.187 63.8608C206.697 61.8568 207.46 58.5403 207.46 53.9818V30.1733H219.865V75.3346L208.066 75.377Z" fill="#003D4F"/>
<path d="M285.193 12.9557V36.4678H285.447C286.854 34.0093 288.955 32.0209 291.488 30.7521C293.703 29.6105 296.152 28.997 298.643 28.9597C301.438 28.885 304.22 29.3647 306.829 30.371C308.809 31.1435 310.555 32.4177 311.895 34.0686C313.17 35.811 314.051 37.8093 314.478 39.9254C314.99 42.4423 315.236 45.0062 315.212 47.5746V75.3771H302.806V49.8468C302.993 46.9591 302.388 44.0751 301.056 41.5061C299.89 39.6244 297.82 38.6835 294.847 38.6835C291.46 38.6835 289.018 39.6996 287.508 41.7037C285.998 43.7077 285.236 47.0242 285.236 51.5827V75.3771H272.816V12.9557H285.193Z" fill="#003D4F"/>
<path d="M409.923 42.9879C410.929 40.1874 412.527 37.6362 414.606 35.5079C416.686 33.3795 419.199 31.7238 421.976 30.6532C428.203 28.3907 435.027 28.3907 441.254 30.6532C444.044 31.7121 446.571 33.363 448.661 35.4924C450.752 37.6218 452.356 40.179 453.363 42.9879C454.51 46.1533 455.074 49.5003 455.028 52.8669C455.071 56.2056 454.506 59.5242 453.363 62.6613C452.33 65.4547 450.719 67.9987 448.635 70.127C446.544 72.1958 444.031 73.7892 441.268 74.7983C435.026 77.0033 428.218 77.0033 421.976 74.7983C419.217 73.751 416.714 72.1244 414.637 70.0282C412.554 67.8999 410.943 65.3559 409.909 62.5625C408.771 59.4245 408.211 56.1059 408.258 52.7681C408.224 49.4347 408.788 46.1221 409.923 42.9879ZM421.214 58.1028C421.531 59.7445 422.138 61.3166 423.006 62.7459C423.842 64.0997 425.001 65.2247 426.379 66.0201C427.988 66.8908 429.801 67.3147 431.629 67.2479C433.466 67.3089 435.286 66.8854 436.907 66.0201C438.304 65.2343 439.479 64.1079 440.323 62.7459C441.19 61.3166 441.797 59.7445 442.115 58.1028C442.468 56.3657 442.643 54.5971 442.637 52.8246C442.641 51.0334 442.466 49.2463 442.115 47.4899C441.804 45.8463 441.197 44.2729 440.323 42.8467C439.461 41.4789 438.286 40.3369 436.893 39.5161C435.277 38.6346 433.455 38.201 431.615 38.26C429.783 38.1949 427.969 38.6291 426.365 39.5161C425.002 40.3317 423.848 41.4526 422.992 42.7903C422.118 44.2165 421.511 45.7898 421.2 47.4334C420.855 49.1909 420.681 50.9773 420.677 52.7681C420.675 54.5592 420.85 56.3462 421.2 58.1028H421.214Z" fill="#003D4F"/>
<path d="M506.272 12.9557V46.4456L521.909 30.1734H536.601L519.552 46.7843L538.534 75.3771H523.49L511.085 55.1815L506.272 59.8105V75.3347H493.853V12.9557H506.272Z" fill="#003D4F"/>
<path d="M547.708 64.1431C548.236 65.0758 548.964 65.8804 549.839 66.5C550.754 67.1448 551.777 67.6226 552.859 67.9113C554.016 68.2076 555.207 68.3547 556.401 68.3488C557.327 68.3459 558.25 68.2418 559.153 68.0383C560.072 67.8535 560.957 67.5299 561.778 67.0786C562.556 66.6519 563.227 66.0534 563.74 65.3286C564.306 64.5 564.584 63.5081 564.53 62.506C564.53 60.6431 563.288 59.2459 560.818 58.2722C557.437 57.085 553.976 56.1417 550.46 55.4496C548.653 55.0403 546.889 54.5605 545.167 54.0383C543.526 53.5537 541.962 52.836 540.524 51.9072C539.203 51.0274 538.098 49.8597 537.292 48.4919C536.433 46.9603 536.008 45.223 536.064 43.4677C535.959 40.9659 536.55 38.4839 537.772 36.2984C538.871 34.4654 540.421 32.9446 542.274 31.881C544.247 30.7751 546.395 30.0161 548.625 29.6371C550.985 29.1991 553.38 28.9818 555.78 28.9879C558.173 28.9797 560.561 29.2113 562.907 29.6794C565.087 30.0977 567.176 30.9005 569.075 32.0504C570.888 33.1603 572.427 34.6655 573.577 36.4536C574.856 38.5596 575.593 40.9503 575.722 43.4113H563.923C563.948 42.4336 563.709 41.4672 563.232 40.6133C562.756 39.7593 562.059 39.0489 561.214 38.5564C559.42 37.6737 557.44 37.2379 555.441 37.2863C554.682 37.2891 553.924 37.3315 553.169 37.4133C552.401 37.4935 551.65 37.6886 550.939 37.9919C550.274 38.2673 549.687 38.7037 549.232 39.2621C548.741 39.8926 548.495 40.6799 548.54 41.4778C548.521 41.9923 548.621 42.5042 548.831 42.974C549.042 43.4439 549.358 43.859 549.754 44.1875C550.696 44.9591 551.779 45.5392 552.943 45.8951C554.42 46.3767 555.923 46.7726 557.445 47.0806C559.139 47.4382 560.861 47.8192 562.611 48.2238C564.396 48.6195 566.158 49.1142 567.889 49.7056C569.525 50.2442 571.071 51.0243 572.476 52.0201C573.808 52.9621 574.916 54.186 575.722 55.6048C576.589 57.2304 577.012 59.0558 576.949 60.8972C577.067 63.3419 576.528 65.7737 575.389 67.9401C574.25 70.1065 572.552 71.9287 570.472 73.2177C568.455 74.4827 566.22 75.3587 563.881 75.8004C561.39 76.2924 558.856 76.5382 556.316 76.5342C553.733 76.541 551.155 76.2809 548.625 75.758C546.254 75.2833 543.987 74.3845 541.935 73.1048C539.814 71.8064 538.067 69.979 536.864 67.8019C535.662 65.6247 535.046 63.1724 535.077 60.6855H546.875C546.837 61.8919 547.124 63.0863 547.708 64.1431Z" fill="#003D4F"/>
<path d="M341.433 66.1048C339.942 66.2866 338.435 65.915 337.2 65.0605C336.345 63.8246 335.973 62.3182 336.155 60.8266V38.4859H343.085L347.319 30.1734H336.169V16.625H323.75V30.1734H317.54L313.306 38.4718H323.736V65.1452C323.655 67.0462 324.047 68.9377 324.879 70.6492C325.587 72.0022 326.664 73.1275 327.984 73.8952C329.392 74.6787 330.932 75.1955 332.528 75.4194C334.336 75.6915 336.162 75.8236 337.99 75.8145C339.218 75.8145 340.46 75.8145 341.744 75.7298C342.916 75.6803 344.085 75.5625 345.244 75.377V65.752C344.639 65.8799 344.026 65.9695 343.409 66.0202C342.802 66.0766 342.139 66.1048 341.433 66.1048Z" fill="#003D4F"/>
<path d="M73.7682 66.1048C72.2767 66.2853 70.7708 65.9138 69.5343 65.0605C68.6798 63.8246 68.3082 62.3182 68.49 60.8266V38.4859H74.8831L79.117 30.1734H68.5182V16.625H56.1129V30.1734H49.8891L45.6553 38.4718H56.0988V65.1452C56.0138 67.045 56.4017 68.9363 57.2279 70.6492C57.9405 71.9991 59.0158 73.1233 60.3327 73.8952C61.7546 74.6816 63.3096 75.1983 64.9194 75.4194C66.7271 75.6915 68.5531 75.8236 70.3811 75.8145C71.6089 75.8145 72.865 75.8145 74.1351 75.7298C75.3029 75.6798 76.4668 75.562 77.621 75.377V65.752C77.0157 65.8799 76.4029 65.9695 75.7863 66.0202C75.1371 66.0766 74.4597 66.1048 73.7682 66.1048Z" fill="#003D4F"/>
<path d="M484.171 28.9596C473.742 28.9596 469.748 38.5705 469.748 38.5705H469.579V30.1734H457.78V75.3346H470.186V56.4516C470.186 45.4435 472.331 40.5322 481.716 40.5322C483.405 40.5078 485.074 40.9056 486.571 41.6895L491.891 31.2459C489.599 29.7413 486.914 28.9461 484.171 28.9596Z" fill="#003D4F"/>
<path d="M397.843 30.1875L389.53 60.7702H389.361L381.669 30.1875H369.603L362.081 60.869H361.911L353.613 30.1875L345.526 46.0363L354.841 75.377H367.683L375.375 45.0343H375.544L383.589 75.377H396.361L410.601 30.1875H397.843Z" fill="#003D4F"/>
</g>
<path d="M56.7322 117.817V113.253H78.235V117.817H70.2194V139.435H64.7478V117.817H56.7322ZM87.7751 139.819C85.7552 139.819 84.0166 139.41 82.5592 138.591C81.1104 137.765 79.9939 136.597 79.2098 135.089C78.4257 133.572 78.0337 131.778 78.0337 129.706C78.0337 127.687 78.4257 125.914 79.2098 124.388C79.9939 122.863 81.0976 121.674 82.5209 120.822C83.9527 119.969 85.6317 119.543 87.5578 119.543C88.8533 119.543 90.0592 119.752 91.1757 120.17C92.3007 120.579 93.2808 121.197 94.116 122.023C94.9598 122.85 95.616 123.89 96.0848 125.143C96.5535 126.387 96.7879 127.844 96.7879 129.515V131.01H80.2069V127.635H91.6615C91.6615 126.851 91.491 126.157 91.1501 125.552C90.8092 124.947 90.3362 124.474 89.7311 124.133C89.1345 123.783 88.4399 123.608 87.6473 123.608C86.8206 123.608 86.0876 123.8 85.4484 124.184C84.8177 124.559 84.3234 125.066 83.9655 125.705C83.6075 126.336 83.4243 127.039 83.4158 127.814V131.023C83.4158 131.995 83.5947 132.834 83.9527 133.542C84.3192 134.249 84.8348 134.795 85.4996 135.178C86.1643 135.562 86.9527 135.753 87.8646 135.753C88.4697 135.753 89.0237 135.668 89.5265 135.498C90.0294 135.327 90.4598 135.072 90.8177 134.731C91.1757 134.39 91.4484 133.972 91.6359 133.478L96.6729 133.81C96.4172 135.02 95.893 136.077 95.1004 136.981C94.3163 137.876 93.3021 138.574 92.0578 139.077C90.822 139.572 89.3944 139.819 87.7751 139.819ZM109.214 139.819C107.203 139.819 105.473 139.393 104.024 138.54C102.583 137.679 101.475 136.486 100.7 134.961C99.9328 133.435 99.5493 131.679 99.5493 129.694C99.5493 127.682 99.9371 125.918 100.713 124.401C101.497 122.876 102.609 121.687 104.049 120.834C105.49 119.974 107.203 119.543 109.188 119.543C110.902 119.543 112.402 119.854 113.688 120.476C114.975 121.099 115.994 121.972 116.744 123.097C117.494 124.222 117.907 125.543 117.984 127.06H112.845C112.7 126.08 112.316 125.292 111.694 124.695C111.081 124.09 110.275 123.787 109.278 123.787C108.434 123.787 107.697 124.018 107.066 124.478C106.444 124.929 105.958 125.59 105.609 126.459C105.26 127.329 105.085 128.381 105.085 129.617C105.085 130.87 105.255 131.935 105.596 132.813C105.946 133.691 106.436 134.36 107.066 134.82C107.697 135.28 108.434 135.51 109.278 135.51C109.9 135.51 110.458 135.383 110.953 135.127C111.456 134.871 111.869 134.501 112.193 134.015C112.525 133.52 112.742 132.928 112.845 132.238H117.984C117.899 133.738 117.49 135.059 116.757 136.201C116.032 137.334 115.031 138.221 113.752 138.86C112.474 139.499 110.961 139.819 109.214 139.819ZM126.917 128.083V139.435H121.471V113.253H126.763V123.263H126.994C127.437 122.104 128.153 121.197 129.141 120.54C130.13 119.876 131.37 119.543 132.861 119.543C134.225 119.543 135.414 119.841 136.428 120.438C137.451 121.026 138.244 121.874 138.806 122.982C139.377 124.081 139.658 125.398 139.65 126.932V139.435H134.204V127.904C134.212 126.694 133.905 125.752 133.283 125.079C132.67 124.405 131.809 124.069 130.701 124.069C129.959 124.069 129.303 124.226 128.732 124.542C128.17 124.857 127.726 125.317 127.403 125.922C127.087 126.519 126.925 127.239 126.917 128.083ZM149.382 128.083V139.435H143.936V119.799H149.126V123.263H149.356C149.791 122.121 150.519 121.218 151.542 120.553C152.565 119.88 153.805 119.543 155.262 119.543C156.626 119.543 157.815 119.841 158.829 120.438C159.843 121.035 160.632 121.887 161.194 122.995C161.757 124.094 162.038 125.407 162.038 126.932V139.435H156.592V127.904C156.6 126.702 156.294 125.765 155.671 125.091C155.049 124.41 154.193 124.069 153.102 124.069C152.369 124.069 151.721 124.226 151.159 124.542C150.605 124.857 150.17 125.317 149.855 125.922C149.548 126.519 149.39 127.239 149.382 128.083ZM175.202 139.819C173.217 139.819 171.499 139.397 170.05 138.553C168.61 137.701 167.498 136.516 166.714 134.999C165.93 133.474 165.538 131.705 165.538 129.694C165.538 127.665 165.93 125.893 166.714 124.376C167.498 122.85 168.61 121.665 170.05 120.822C171.499 119.969 173.217 119.543 175.202 119.543C177.188 119.543 178.901 119.969 180.342 120.822C181.79 121.665 182.907 122.85 183.691 124.376C184.475 125.893 184.867 127.665 184.867 129.694C184.867 131.705 184.475 133.474 183.691 134.999C182.907 136.516 181.79 137.701 180.342 138.553C178.901 139.397 177.188 139.819 175.202 139.819ZM175.228 135.6C176.131 135.6 176.886 135.344 177.491 134.833C178.096 134.313 178.552 133.606 178.859 132.711C179.174 131.816 179.332 130.797 179.332 129.655C179.332 128.513 179.174 127.495 178.859 126.6C178.552 125.705 178.096 124.998 177.491 124.478C176.886 123.958 176.131 123.698 175.228 123.698C174.316 123.698 173.549 123.958 172.927 124.478C172.313 124.998 171.849 125.705 171.533 126.6C171.226 127.495 171.073 128.513 171.073 129.655C171.073 130.797 171.226 131.816 171.533 132.711C171.849 133.606 172.313 134.313 172.927 134.833C173.549 135.344 174.316 135.6 175.228 135.6ZM193.854 113.253V139.435H188.408V113.253H193.854ZM207.089 139.819C205.103 139.819 203.386 139.397 201.937 138.553C200.497 137.701 199.385 136.516 198.6 134.999C197.816 133.474 197.424 131.705 197.424 129.694C197.424 127.665 197.816 125.893 198.6 124.376C199.385 122.85 200.497 121.665 201.937 120.822C203.386 119.969 205.103 119.543 207.089 119.543C209.075 119.543 210.788 119.969 212.228 120.822C213.677 121.665 214.794 122.85 215.578 124.376C216.362 125.893 216.754 127.665 216.754 129.694C216.754 131.705 216.362 133.474 215.578 134.999C214.794 136.516 213.677 137.701 212.228 138.553C210.788 139.397 209.075 139.819 207.089 139.819ZM207.115 135.6C208.018 135.6 208.772 135.344 209.377 134.833C209.983 134.313 210.438 133.606 210.745 132.711C211.061 131.816 211.218 130.797 211.218 129.655C211.218 128.513 211.061 127.495 210.745 126.6C210.438 125.705 209.983 124.998 209.377 124.478C208.772 123.958 208.018 123.698 207.115 123.698C206.203 123.698 205.436 123.958 204.813 124.478C204.2 124.998 203.735 125.705 203.42 126.6C203.113 127.495 202.96 128.513 202.96 129.655C202.96 130.797 203.113 131.816 203.42 132.711C203.735 133.606 204.2 134.313 204.813 134.833C205.436 135.344 206.203 135.6 207.115 135.6ZM229.142 147.208C227.377 147.208 225.865 146.965 224.603 146.479C223.35 146.002 222.353 145.35 221.612 144.523C220.87 143.697 220.389 142.768 220.167 141.736L225.204 141.059C225.358 141.451 225.6 141.817 225.933 142.158C226.265 142.499 226.704 142.772 227.25 142.976C227.804 143.189 228.477 143.296 229.269 143.296C230.454 143.296 231.43 143.006 232.197 142.427C232.973 141.856 233.36 140.897 233.36 139.55V135.958H233.13C232.892 136.503 232.534 137.019 232.056 137.505C231.579 137.991 230.965 138.387 230.215 138.694C229.465 139.001 228.571 139.154 227.531 139.154C226.056 139.154 224.714 138.813 223.504 138.131C222.302 137.441 221.343 136.388 220.627 134.974C219.92 133.55 219.566 131.752 219.566 129.579C219.566 127.354 219.929 125.496 220.653 124.005C221.377 122.513 222.34 121.397 223.542 120.655C224.752 119.914 226.078 119.543 227.518 119.543C228.617 119.543 229.538 119.731 230.279 120.106C231.021 120.472 231.617 120.932 232.069 121.486C232.529 122.032 232.883 122.569 233.13 123.097H233.335V119.799H238.742V139.627C238.742 141.297 238.333 142.695 237.515 143.82C236.697 144.945 235.563 145.789 234.115 146.351C232.674 146.922 231.017 147.208 229.142 147.208ZM229.257 135.063C230.135 135.063 230.876 134.846 231.481 134.411C232.095 133.968 232.563 133.337 232.887 132.519C233.22 131.692 233.386 130.704 233.386 129.553C233.386 128.403 233.224 127.405 232.9 126.562C232.576 125.709 232.108 125.049 231.494 124.58C230.88 124.111 230.135 123.877 229.257 123.877C228.362 123.877 227.608 124.12 226.994 124.606C226.38 125.083 225.916 125.748 225.6 126.6C225.285 127.452 225.127 128.437 225.127 129.553C225.127 130.687 225.285 131.667 225.6 132.493C225.924 133.312 226.389 133.947 226.994 134.398C227.608 134.841 228.362 135.063 229.257 135.063ZM246.438 146.799C245.748 146.799 245.1 146.743 244.495 146.633C243.899 146.53 243.404 146.398 243.012 146.236L244.24 142.171C244.879 142.367 245.454 142.474 245.965 142.491C246.485 142.508 246.933 142.388 247.308 142.133C247.691 141.877 248.002 141.442 248.241 140.829L248.561 139.998L241.517 119.799H247.244L251.309 134.219H251.514L255.617 119.799H261.383L253.751 141.557C253.385 142.614 252.886 143.535 252.255 144.319C251.633 145.111 250.845 145.721 249.89 146.147C248.936 146.581 247.785 146.799 246.438 146.799ZM272.604 139.435V113.253H282.934C284.911 113.253 286.599 113.607 287.996 114.314C289.403 115.013 290.472 116.006 291.205 117.293C291.947 118.572 292.317 120.076 292.317 121.806C292.317 123.545 291.942 125.04 291.192 126.293C290.442 127.537 289.356 128.492 287.932 129.157C286.518 129.822 284.805 130.154 282.793 130.154H275.877V125.705H281.898C282.955 125.705 283.833 125.56 284.532 125.27C285.231 124.981 285.751 124.546 286.092 123.966C286.441 123.387 286.616 122.667 286.616 121.806C286.616 120.937 286.441 120.204 286.092 119.607C285.751 119.01 285.226 118.559 284.519 118.252C283.82 117.937 282.938 117.779 281.873 117.779H278.14V139.435H272.604ZM286.744 127.52L293.251 139.435H287.14L280.773 127.52H286.744ZM301.726 139.806C300.474 139.806 299.357 139.589 298.377 139.154C297.397 138.711 296.621 138.059 296.05 137.198C295.488 136.329 295.207 135.246 295.207 133.951C295.207 132.86 295.407 131.944 295.807 131.202C296.208 130.461 296.753 129.864 297.444 129.412C298.134 128.961 298.918 128.62 299.796 128.39C300.682 128.16 301.611 127.998 302.583 127.904C303.725 127.785 304.645 127.674 305.344 127.572C306.043 127.461 306.55 127.299 306.866 127.086C307.181 126.873 307.339 126.557 307.339 126.14V126.063C307.339 125.253 307.083 124.627 306.572 124.184C306.069 123.741 305.353 123.519 304.424 123.519C303.444 123.519 302.664 123.736 302.084 124.171C301.505 124.597 301.121 125.134 300.934 125.782L295.897 125.373C296.153 124.179 296.655 123.148 297.405 122.279C298.155 121.401 299.123 120.728 300.307 120.259C301.501 119.782 302.881 119.543 304.449 119.543C305.54 119.543 306.584 119.671 307.582 119.927C308.587 120.182 309.478 120.579 310.253 121.116C311.038 121.653 311.655 122.343 312.107 123.187C312.559 124.022 312.785 125.023 312.785 126.191V139.435H307.62V136.712H307.467C307.151 137.326 306.729 137.867 306.201 138.336C305.672 138.796 305.038 139.158 304.296 139.422C303.555 139.678 302.698 139.806 301.726 139.806ZM303.286 136.047C304.087 136.047 304.795 135.89 305.408 135.574C306.022 135.251 306.503 134.816 306.853 134.27C307.202 133.725 307.377 133.107 307.377 132.417V130.333C307.207 130.444 306.972 130.546 306.674 130.64C306.384 130.725 306.056 130.806 305.69 130.883C305.323 130.951 304.957 131.015 304.59 131.074C304.224 131.126 303.891 131.172 303.593 131.215C302.954 131.309 302.395 131.458 301.918 131.662C301.441 131.867 301.07 132.144 300.806 132.493C300.542 132.834 300.41 133.26 300.41 133.772C300.41 134.513 300.678 135.08 301.215 135.472C301.761 135.856 302.451 136.047 303.286 136.047ZM324.246 139.755C322.754 139.755 321.403 139.371 320.193 138.604C318.991 137.829 318.037 136.691 317.329 135.191C316.631 133.682 316.281 131.833 316.281 129.643C316.281 127.393 316.643 125.522 317.368 124.03C318.092 122.53 319.055 121.41 320.257 120.668C321.467 119.918 322.793 119.543 324.233 119.543C325.332 119.543 326.248 119.731 326.981 120.106C327.723 120.472 328.32 120.932 328.771 121.486C329.231 122.032 329.581 122.569 329.82 123.097H329.986V113.253H335.419V139.435H330.05V136.29H329.82C329.564 136.836 329.202 137.377 328.733 137.914C328.273 138.442 327.672 138.881 326.93 139.231C326.197 139.58 325.302 139.755 324.246 139.755ZM325.971 135.421C326.849 135.421 327.591 135.182 328.196 134.705C328.81 134.219 329.278 133.542 329.602 132.672C329.935 131.803 330.101 130.785 330.101 129.617C330.101 128.449 329.939 127.435 329.615 126.574C329.291 125.714 328.822 125.049 328.209 124.58C327.595 124.111 326.849 123.877 325.971 123.877C325.077 123.877 324.322 124.12 323.709 124.606C323.095 125.091 322.631 125.765 322.315 126.626C322 127.486 321.842 128.483 321.842 129.617C321.842 130.759 322 131.769 322.315 132.647C322.639 133.516 323.104 134.198 323.709 134.692C324.322 135.178 325.077 135.421 325.971 135.421ZM345.496 139.806C344.243 139.806 343.127 139.589 342.147 139.154C341.166 138.711 340.391 138.059 339.82 137.198C339.257 136.329 338.976 135.246 338.976 133.951C338.976 132.86 339.176 131.944 339.577 131.202C339.978 130.461 340.523 129.864 341.213 129.412C341.904 128.961 342.688 128.62 343.566 128.39C344.452 128.16 345.381 127.998 346.353 127.904C347.495 127.785 348.415 127.674 349.114 127.572C349.813 127.461 350.32 127.299 350.635 127.086C350.951 126.873 351.108 126.557 351.108 126.14V126.063C351.108 125.253 350.853 124.627 350.341 124.184C349.838 123.741 349.122 123.519 348.193 123.519C347.213 123.519 346.433 123.736 345.854 124.171C345.274 124.597 344.891 125.134 344.703 125.782L339.666 125.373C339.922 124.179 340.425 123.148 341.175 122.279C341.925 121.401 342.892 120.728 344.077 120.259C345.27 119.782 346.651 119.543 348.219 119.543C349.31 119.543 350.354 119.671 351.351 119.927C352.357 120.182 353.247 120.579 354.023 121.116C354.807 121.653 355.425 122.343 355.877 123.187C356.328 124.022 356.554 125.023 356.554 126.191V139.435H351.389V136.712H351.236C350.921 137.326 350.499 137.867 349.97 138.336C349.442 138.796 348.807 139.158 348.066 139.422C347.324 139.678 346.468 139.806 345.496 139.806ZM347.056 136.047C347.857 136.047 348.564 135.89 349.178 135.574C349.791 135.251 350.273 134.816 350.622 134.27C350.972 133.725 351.147 133.107 351.147 132.417V130.333C350.976 130.444 350.742 130.546 350.443 130.64C350.154 130.725 349.826 130.806 349.459 130.883C349.093 130.951 348.726 131.015 348.36 131.074C347.993 131.126 347.661 131.172 347.362 131.215C346.723 131.309 346.165 131.458 345.688 131.662C345.21 131.867 344.84 132.144 344.576 132.493C344.311 132.834 344.179 133.26 344.179 133.772C344.179 134.513 344.448 135.08 344.985 135.472C345.53 135.856 346.22 136.047 347.056 136.047ZM360.779 139.435V119.799H366.059V123.225H366.264C366.622 122.006 367.223 121.086 368.066 120.464C368.91 119.833 369.882 119.518 370.981 119.518C371.254 119.518 371.548 119.535 371.863 119.569C372.179 119.603 372.456 119.65 372.694 119.709V124.542C372.438 124.465 372.085 124.397 371.633 124.337C371.181 124.278 370.768 124.248 370.393 124.248C369.592 124.248 368.876 124.422 368.245 124.772C367.623 125.113 367.129 125.59 366.762 126.204C366.404 126.817 366.225 127.525 366.225 128.326V139.435H360.779Z" fill="black"/>
<defs>
<clipPath id="clip0_3067_7980">
<rect width="576.95" height="92.4254" fill="white"/>
</clipPath>
</defs>
</svg>